999
Inkscape export via OpenSCAD DXF Export
  0
SECTION
  2
HEADER
  9
$ACADVER
  1
AC1014
  9
$HANDSEED
  5
FFFF
  9
$MEASUREMENT
 70
     1
  0
ENDSEC
  0
SECTION
  2
TABLES
  0
TABLE
  2
VPORT
  5
8
330
0
100
AcDbSymbolTable
 70
     4
  0
VPORT
  5
2E
330
8
100
AcDbSymbolTableRecord
100
AcDbViewportTableRecord
  2
*ACTIVE
 70
     0
 10
0.0
 20
0.0
 11
1.0
 21
1.0
 12
210.0
 22
148.5
 13
0.0
 23
0.0
 14
10.0
 24
10.0
 15
10.0
 25
10.0
 16
0.0
 26
0.0
 36
1.0
 17
0.0
 27
0.0
 37
0.0
 40
341.0
 41
1.24
 42
50.0
 43
0.0
 44
0.0
 50
0.0
 51
0.0
 71
     0
 72
   100
 73
     1
 74
     3
 75
     0
 76
     0
 77
     0
 78
     0
  0
ENDTAB
  0
TABLE
  2
LTYPE
  5
5
330
0
100
AcDbSymbolTable
 70
     1
  0
LTYPE
  5
14
330
5
100
AcDbSymbolTableRecord
100
AcDbLinetypeTableRecord
  2
BYBLOCK
 70
     0
  3

 72
    65
 73
     0
 40
0.0
  0
LTYPE
  5
15
330
5
100
AcDbSymbolTableRecord
100
AcDbLinetypeTableRecord
  2
BYLAYER
 70
     0
  3

 72
    65
 73
     0
 40
0.0
  0
LTYPE
  5
16
330
5
100
AcDbSymbolTableRecord
100
AcDbLinetypeTableRecord
  2
CONTINUOUS
 70
     0
  3
Solid line
 72
    65
 73
     0
 40
0.0
  0
ENDTAB
  0
TABLE
0
TABLE
2
LAYER
5
2
330
0
100
AcDbSymbolTable
70
1
0
LAYER
5
10
330
2
100
AcDbSymbolTableRecord
100
AcDbLayerTableRecord
2
Layer_1
70
0
62
7
6
CONTINUOUS
0
ENDTAB
0
ENDSEC
  0
ENDTAB
  0
TABLE
  2
STYLE
  5
3
330
0
100
AcDbSymbolTable
 70
     1
  0
STYLE
  5
11
330
3
100
AcDbSymbolTableRecord
100
AcDbTextStyleTableRecord
  2
STANDARD
 70
     0
 40
0.0
 41
1.0
 50
0.0
 71
     0
 42
2.5
  3
txt
  4

  0
ENDTAB
  0
TABLE
  2
VIEW
  5
6
330
0
100
AcDbSymbolTable
 70
     0
  0
ENDTAB
  0
TABLE
  2
UCS
  5
7
330
0
100
AcDbSymbolTable
 70
     0
  0
ENDTAB
  0
TABLE
  2
APPID
  5
9
330
0
100
AcDbSymbolTable
 70
     2
  0
APPID
  5
12
330
9
100
AcDbSymbolTableRecord
100
AcDbRegAppTableRecord
  2
ACAD
 70
     0
  0
ENDTAB
  0
TABLE
  2
DIMSTYLE
  5
A
330
0
100
AcDbSymbolTable
 70
     1
  0
DIMSTYLE
105
27
330
A
100
AcDbSymbolTableRecord
100
AcDbDimStyleTableRecord
  2
ISO-25
 70
     0
  3

  4

  5

  6

  7

 40
1.0
 41
2.5
 42
0.625
 43
3.75
 44
1.25
 45
0.0
 46
0.0
 47
0.0
 48
0.0
140
2.5
141
2.5
142
0.0
143
0.03937007874016
144
1.0
145
0.0
146
1.0
147
0.625
 71
     0
 72
     0
 73
     0
 74
     0
 75
     0
 76
     0
 77
     1
 78
     8
170
     0
171
     3
172
     1
173
     0
174
     0
175
     0
176
     0
177
     0
178
     0
270
     2
271
     2
272
     2
273
     2
274
     3
340
11
275
     0
280
     0
281
     0
282
     0
283
     0
284
     8
285
     0
286
     0
287
     3
288
     0
  0
ENDTAB
  0
TABLE
  2
BLOCK_RECORD
  5
1
330
0
100
AcDbSymbolTable
 70
     1
  0
BLOCK_RECORD
  5
1F
330
1
100
AcDbSymbolTableRecord
100
AcDbBlockTableRecord
  2
*MODEL_SPACE
  0
BLOCK_RECORD
  5
1B
330
1
100
AcDbSymbolTableRecord
100
AcDbBlockTableRecord
  2
*PAPER_SPACE
  0
ENDTAB
  0
ENDSEC
  0
SECTION
  2
BLOCKS
  0
BLOCK
  5
20
330
1F
100
AcDbEntity
  8
0
100
AcDbBlockBegin
  2
*MODEL_SPACE
 70
     0
 10
0.0
 20
0.0
 30
0.0
  3
*MODEL_SPACE
  1

  0
ENDBLK
  5
21
330
1F
100
AcDbEntity
  8
0
100
AcDbBlockEnd
  0
BLOCK
  5
1C
330
1B
100
AcDbEntity
 67
     1
  8
0
100
AcDbBlockBegin
  2
*PAPER_SPACE
  1

  0
ENDBLK
  5
1D
330
1B
100
AcDbEntity
 67
     1
  8
0
100
AcDbBlockEnd
  0
ENDSEC
  0
SECTION
  2
ENTITIES
0
DIMENSION
5
83
100
AcDbEntity
62
256
370
-1
6
ByLayer
1
total_width
3
Standard
70
0
71
5
72
1
41
1.0
100
AcDbAlignedDimension
13
4.156337
23
0.000000
33
0.0
14
38.183583
24
0.000000
34
0.0
50
0.000000
100
AcDbRotatedDimension
0
DIMENSION
5
83
100
AcDbEntity
62
256
370
-1
6
ByLayer
1
total_minx
3
Standard
70
0
71
5
72
1
41
1.0
100
AcDbAlignedDimension
13
4.156337
23
0.000000
33
0.0
14
0.000000
24
0.000000
34
0.0
50
0.000000
100
AcDbRotatedDimension
0
DIMENSION
5
83
100
AcDbEntity
62
256
370
-1
6
ByLayer
1
total_maxx
3
Standard
70
0
71
5
72
1
41
1.0
100
AcDbAlignedDimension
13
0.000000
23
0.000000
33
0.0
14
38.183583
24
0.000000
34
0.0
50
0.000000
100
AcDbRotatedDimension
0
DIMENSION
5
83
100
AcDbEntity
62
256
370
-1
6
ByLayer
1
total_height
3
Standard
70
0
71
5
72
1
41
1.0
100
AcDbAlignedDimension
13
0.000000
23
6.809783
33
0.0
14
0.000000
24
35.523197
34
0.0
50
90.000000
100
AcDbRotatedDimension
0
DIMENSION
5
83
100
AcDbEntity
62
256
370
-1
6
ByLayer
1
total_miny
3
Standard
70
0
71
5
72
1
41
1.0
100
AcDbAlignedDimension
13
6.809783
23
0.000000
33
0.0
14
0.000000
24
0.000000
34
0.0
50
0.000000
100
AcDbRotatedDimension
0
DIMENSION
5
83
100
AcDbEntity
62
256
370
-1
6
ByLayer
1
total_maxy
3
Standard
70
0
71
5
72
1
41
1.0
100
AcDbAlignedDimension
13
0.000000
23
0.000000
33
0.0
14
35.523197
24
0.000000
34
0.0
50
0.000000
100
AcDbRotatedDimension
0
DIMENSION
8
Layer_1
5
83
100
AcDbEntity
62
256
370
-1
6
ByLayer
1
Layer_1_width
3
Standard
70
0
71
5
72
1
41
1.0
100
AcDbAlignedDimension
13
4.156337
23
0.000000
33
0.0
14
38.183583
24
0.000000
34
0.0
50
0.000000
100
AcDbRotatedDimension
0
DIMENSION
8
Layer_1
5
83
100
AcDbEntity
62
256
370
-1
6
ByLayer
1
Layer_1_minx
3
Standard
70
0
71
5
72
1
41
1.0
100
AcDbAlignedDimension
13
4.156337
23
0.000000
33
0.0
14
0.000000
24
0.000000
34
0.0
50
0.000000
100
AcDbRotatedDimension
0
DIMENSION
8
Layer_1
5
83
100
AcDbEntity
62
256
370
-1
6
ByLayer
1
Layer_1_maxx
3
Standard
70
0
71
5
72
1
41
1.0
100
AcDbAlignedDimension
13
0.000000
23
0.000000
33
0.0
14
38.183583
24
0.000000
34
0.0
50
0.000000
100
AcDbRotatedDimension
0
DIMENSION
8
Layer_1
5
83
100
AcDbEntity
62
256
370
-1
6
ByLayer
1
Layer_1_height
3
Standard
70
0
71
5
72
1
41
1.0
100
AcDbAlignedDimension
13
0.000000
23
6.809783
33
0.0
14
0.000000
24
35.523197
34
0.0
50
90.000000
100
AcDbRotatedDimension
0
DIMENSION
8
Layer_1
5
83
100
AcDbEntity
62
256
370
-1
6
ByLayer
1
Layer_1_miny
3
Standard
70
0
71
5
72
1
41
1.0
100
AcDbAlignedDimension
13
6.809783
23
0.000000
33
0.0
14
0.000000
24
0.000000
34
0.0
50
0.000000
100
AcDbRotatedDimension
0
DIMENSION
8
Layer_1
5
83
100
AcDbEntity
62
256
370
-1
6
ByLayer
1
Layer_1_maxy
3
Standard
70
0
71
5
72
1
41
1.0
100
AcDbAlignedDimension
13
0.000000
23
0.000000
33
0.0
14
35.523197
24
0.000000
34
0.0
50
0.000000
100
AcDbRotatedDimension
62
0
0
LWPOLYLINE
100
AcDbPolyline
8
Layer_1
90
44
70
0
10
10.837226
20
7.570747
30
0.0
10
9.676034
20
8.554380
30
0.0
10
8.428546
20
9.839409
30
0.0
10
7.272823
20
11.227754
30
0.0
10
6.386928
20
12.521334
30
0.0
10
5.430959
20
14.455893
30
0.0
10
4.734400
20
16.541514
30
0.0
10
4.306457
20
18.743101
30
0.0
10
4.156337
20
21.025556
30
0.0
10
4.418049
20
24.297786
30
0.0
10
4.755160
20
25.834771
30
0.0
10
5.230634
20
27.307944
30
0.0
10
5.845117
20
28.719013
30
0.0
10
6.599253
20
30.069684
30
0.0
10
8.529066
20
32.596663
30
0.0
10
10.372622
20
34.398228
30
0.0
10
11.872024
20
35.350985
30
0.0
10
12.528180
20
35.523197
30
0.0
10
13.140912
20
35.500170
30
0.0
10
13.724427
20
35.287559
30
0.0
10
14.292929
20
34.891018
30
0.0
10
14.902156
20
34.141204
30
0.0
10
15.070667
20
33.179986
30
0.0
10
15.012373
20
32.578257
30
0.0
10
14.770857
20
32.032098
30
0.0
10
13.338349
20
30.484352
30
0.0
10
11.397654
20
28.329147
30
0.0
10
10.057895
20
26.111907
30
0.0
10
9.281554
20
23.751468
30
0.0
10
9.031111
20
21.166667
30
0.0
10
9.281554
20
18.581865
30
0.0
10
10.057895
20
16.221426
30
0.0
10
11.397654
20
14.004186
30
0.0
10
13.338349
20
11.848981
30
0.0
10
14.770857
20
10.301236
30
0.0
10
15.012373
20
9.755077
30
0.0
10
15.070667
20
9.153347
30
0.0
10
14.902156
20
8.192129
30
0.0
10
14.292929
20
7.442316
30
0.0
10
13.507860
20
6.952219
30
0.0
10
12.683020
20
6.809783
30
0.0
10
11.799209
20
7.015721
30
0.0
10
10.837226
20
7.570747
30
0.0
10
10.837226
20
7.570747
30
0.0
62
0
0
LWPOLYLINE
100
AcDbPolyline
8
Layer_1
90
40
70
0
10
28.040405
20
7.442316
30
0.0
10
27.431177
20
8.192129
30
0.0
10
27.262667
20
9.153347
30
0.0
10
27.320960
20
9.755077
30
0.0
10
27.562476
20
10.301236
30
0.0
10
28.994983
20
11.848981
30
0.0
10
30.928178
20
14.000048
30
0.0
10
32.268770
20
16.223120
30
0.0
10
33.049279
20
18.588545
30
0.0
10
33.302222
20
21.166667
30
0.0
10
33.049279
20
23.744788
30
0.0
10
32.268770
20
26.110213
30
0.0
10
30.928178
20
28.333285
30
0.0
10
28.994983
20
30.484352
30
0.0
10
27.562476
20
32.032098
30
0.0
10
27.320960
20
32.578257
30
0.0
10
27.262667
20
33.179986
30
0.0
10
27.431177
20
34.141204
30
0.0
10
28.040405
20
34.891018
30
0.0
10
28.608906
20
35.287559
30
0.0
10
29.192421
20
35.500170
30
0.0
10
29.805154
20
35.523197
30
0.0
10
30.461310
20
35.350985
30
0.0
10
31.960711
20
34.398228
30
0.0
10
33.804267
20
32.596663
30
0.0
10
35.713519
20
30.093988
30
0.0
10
37.082800
20
27.346994
30
0.0
10
37.907643
20
24.367336
30
0.0
10
38.183583
20
21.166667
30
0.0
10
37.907643
20
17.965998
30
0.0
10
37.082800
20
14.986339
30
0.0
10
35.713519
20
12.239345
30
0.0
10
33.804267
20
9.736669
30
0.0
10
31.960711
20
7.935104
30
0.0
10
30.461310
20
6.982348
30
0.0
10
29.805154
20
6.810137
30
0.0
10
29.192421
20
6.833164
30
0.0
10
28.608906
20
7.045775
30
0.0
10
28.040405
20
7.442316
30
0.0
10
28.040405
20
7.442316
30
0.0
62
0
0
LWPOLYLINE
100
AcDbPolyline
8
Layer_1
90
38
70
0
10
19.135573
20
13.363530
30
0.0
10
17.840135
20
13.833704
30
0.0
10
16.685399
20
14.473885
30
0.0
10
15.681234
20
15.270979
30
0.0
10
14.837510
20
16.211892
30
0.0
10
14.164100
20
17.283532
30
0.0
10
13.670871
20
18.472805
30
0.0
10
13.367696
20
19.766617
30
0.0
10
13.264444
20
21.151875
30
0.0
10
13.337713
20
22.347032
30
0.0
10
13.555228
20
23.470965
30
0.0
10
13.913557
20
24.518054
30
0.0
10
14.409266
20
25.482683
30
0.0
10
15.038921
20
26.359234
30
0.0
10
15.799088
20
27.142088
30
0.0
10
16.686335
20
27.825628
30
0.0
10
17.697226
20
28.404237
30
0.0
10
19.309975
20
28.983827
30
0.0
10
20.962325
20
29.196434
30
0.0
10
22.599521
20
29.064092
30
0.0
10
24.166811
20
28.608840
30
0.0
10
25.609440
20
27.852711
30
0.0
10
26.872656
20
26.817744
30
0.0
10
27.901705
20
25.525974
30
0.0
10
28.641833
20
23.999437
30
0.0
10
28.949324
20
22.678437
30
0.0
10
29.051821
20
21.166667
30
0.0
10
28.949324
20
19.654897
30
0.0
10
28.641833
20
18.333897
30
0.0
10
28.011083
20
17.006254
30
0.0
10
27.134441
20
15.835146
30
0.0
10
26.055205
20
14.843214
30
0.0
10
24.816675
20
14.053096
30
0.0
10
23.462148
20
13.487429
30
0.0
10
22.034923
20
13.168853
30
0.0
10
20.578298
20
13.120007
30
0.0
10
19.135573
20
13.363530
30
0.0
10
19.135573
20
13.363530
30
0.0
62
0
0
LWPOLYLINE
100
AcDbPolyline
8
Layer_1
90
22
70
0
10
23.208325
20
18.885738
30
0.0
10
23.696356
20
19.368186
30
0.0
10
23.974957
20
19.815888
30
0.0
10
24.130000
20
21.166667
30
0.0
10
23.974957
20
22.517446
30
0.0
10
23.696356
20
22.965147
30
0.0
10
23.208325
20
23.447595
30
0.0
10
22.243185
20
24.090614
30
0.0
10
21.166667
20
24.271111
30
0.0
10
20.090148
20
24.090614
30
0.0
10
19.125008
20
23.447595
30
0.0
10
18.636978
20
22.965147
30
0.0
10
18.358376
20
22.517446
30
0.0
10
18.203333
20
21.166667
30
0.0
10
18.358376
20
19.815888
30
0.0
10
18.636978
20
19.368186
30
0.0
10
19.125008
20
18.885738
30
0.0
10
20.090148
20
18.242719
30
0.0
10
21.166667
20
18.062222
30
0.0
10
22.243185
20
18.242719
30
0.0
10
23.208325
20
18.885738
30
0.0
10
23.208325
20
18.885738
30
0.0
  0
ENDSEC
  0
SECTION
  2
OBJECTS
  0
DICTIONARY
  5
C
330
0
100
AcDbDictionary
  3
ACAD_GROUP
350
D
  3
ACAD_MLINESTYLE
350
17
  0
DICTIONARY
  5
D
330
C
100
AcDbDictionary
  0
DICTIONARY
  5
1A
330
C
100
AcDbDictionary
  0
DICTIONARY
  5
17
330
C
100
AcDbDictionary
  3
STANDARD
350
18
  0
DICTIONARY
  5
19
330
C
100
AcDbDictionary
  0
ENDSEC
  0
EOF
