999
Inkscape export via OpenSCAD DXF Export
  0
SECTION
  2
HEADER
  9
$ACADVER
  1
AC1014
  9
$HANDSEED
  5
FFFF
  9
$MEASUREMENT
 70
     1
  0
ENDSEC
  0
SECTION
  2
TABLES
  0
TABLE
  2
VPORT
  5
8
330
0
100
AcDbSymbolTable
 70
     4
  0
VPORT
  5
2E
330
8
100
AcDbSymbolTableRecord
100
AcDbViewportTableRecord
  2
*ACTIVE
 70
     0
 10
0.0
 20
0.0
 11
1.0
 21
1.0
 12
210.0
 22
148.5
 13
0.0
 23
0.0
 14
10.0
 24
10.0
 15
10.0
 25
10.0
 16
0.0
 26
0.0
 36
1.0
 17
0.0
 27
0.0
 37
0.0
 40
341.0
 41
1.24
 42
50.0
 43
0.0
 44
0.0
 50
0.0
 51
0.0
 71
     0
 72
   100
 73
     1
 74
     3
 75
     0
 76
     0
 77
     0
 78
     0
  0
ENDTAB
  0
TABLE
  2
LTYPE
  5
5
330
0
100
AcDbSymbolTable
 70
     1
  0
LTYPE
  5
14
330
5
100
AcDbSymbolTableRecord
100
AcDbLinetypeTableRecord
  2
BYBLOCK
 70
     0
  3

 72
    65
 73
     0
 40
0.0
  0
LTYPE
  5
15
330
5
100
AcDbSymbolTableRecord
100
AcDbLinetypeTableRecord
  2
BYLAYER
 70
     0
  3

 72
    65
 73
     0
 40
0.0
  0
LTYPE
  5
16
330
5
100
AcDbSymbolTableRecord
100
AcDbLinetypeTableRecord
  2
CONTINUOUS
 70
     0
  3
Solid line
 72
    65
 73
     0
 40
0.0
  0
ENDTAB
  0
TABLE
0
TABLE
2
LAYER
5
2
330
0
100
AcDbSymbolTable
70
1
0
LAYER
5
10
330
2
100
AcDbSymbolTableRecord
100
AcDbLayerTableRecord
2
Layer_1
70
0
62
7
6
CONTINUOUS
0
ENDTAB
0
ENDSEC
  0
ENDTAB
  0
TABLE
  2
STYLE
  5
3
330
0
100
AcDbSymbolTable
 70
     1
  0
STYLE
  5
11
330
3
100
AcDbSymbolTableRecord
100
AcDbTextStyleTableRecord
  2
STANDARD
 70
     0
 40
0.0
 41
1.0
 50
0.0
 71
     0
 42
2.5
  3
txt
  4

  0
ENDTAB
  0
TABLE
  2
VIEW
  5
6
330
0
100
AcDbSymbolTable
 70
     0
  0
ENDTAB
  0
TABLE
  2
UCS
  5
7
330
0
100
AcDbSymbolTable
 70
     0
  0
ENDTAB
  0
TABLE
  2
APPID
  5
9
330
0
100
AcDbSymbolTable
 70
     2
  0
APPID
  5
12
330
9
100
AcDbSymbolTableRecord
100
AcDbRegAppTableRecord
  2
ACAD
 70
     0
  0
ENDTAB
  0
TABLE
  2
DIMSTYLE
  5
A
330
0
100
AcDbSymbolTable
 70
     1
  0
DIMSTYLE
105
27
330
A
100
AcDbSymbolTableRecord
100
AcDbDimStyleTableRecord
  2
ISO-25
 70
     0
  3

  4

  5

  6

  7

 40
1.0
 41
2.5
 42
0.625
 43
3.75
 44
1.25
 45
0.0
 46
0.0
 47
0.0
 48
0.0
140
2.5
141
2.5
142
0.0
143
0.03937007874016
144
1.0
145
0.0
146
1.0
147
0.625
 71
     0
 72
     0
 73
     0
 74
     0
 75
     0
 76
     0
 77
     1
 78
     8
170
     0
171
     3
172
     1
173
     0
174
     0
175
     0
176
     0
177
     0
178
     0
270
     2
271
     2
272
     2
273
     2
274
     3
340
11
275
     0
280
     0
281
     0
282
     0
283
     0
284
     8
285
     0
286
     0
287
     3
288
     0
  0
ENDTAB
  0
TABLE
  2
BLOCK_RECORD
  5
1
330
0
100
AcDbSymbolTable
 70
     1
  0
BLOCK_RECORD
  5
1F
330
1
100
AcDbSymbolTableRecord
100
AcDbBlockTableRecord
  2
*MODEL_SPACE
  0
BLOCK_RECORD
  5
1B
330
1
100
AcDbSymbolTableRecord
100
AcDbBlockTableRecord
  2
*PAPER_SPACE
  0
ENDTAB
  0
ENDSEC
  0
SECTION
  2
BLOCKS
  0
BLOCK
  5
20
330
1F
100
AcDbEntity
  8
0
100
AcDbBlockBegin
  2
*MODEL_SPACE
 70
     0
 10
0.0
 20
0.0
 30
0.0
  3
*MODEL_SPACE
  1

  0
ENDBLK
  5
21
330
1F
100
AcDbEntity
  8
0
100
AcDbBlockEnd
  0
BLOCK
  5
1C
330
1B
100
AcDbEntity
 67
     1
  8
0
100
AcDbBlockBegin
  2
*PAPER_SPACE
  1

  0
ENDBLK
  5
1D
330
1B
100
AcDbEntity
 67
     1
  8
0
100
AcDbBlockEnd
  0
ENDSEC
  0
SECTION
  2
ENTITIES
0
DIMENSION
5
83
100
AcDbEntity
62
256
370
-1
6
ByLayer
1
total_width
3
Standard
70
0
71
5
72
1
41
1.0
100
AcDbAlignedDimension
13
1.769815
23
0.000000
33
0.0
14
22.783966
24
0.000000
34
0.0
50
0.000000
100
AcDbRotatedDimension
0
DIMENSION
5
83
100
AcDbEntity
62
256
370
-1
6
ByLayer
1
total_minx
3
Standard
70
0
71
5
72
1
41
1.0
100
AcDbAlignedDimension
13
1.769815
23
0.000000
33
0.0
14
0.000000
24
0.000000
34
0.0
50
0.000000
100
AcDbRotatedDimension
0
DIMENSION
5
83
100
AcDbEntity
62
256
370
-1
6
ByLayer
1
total_maxx
3
Standard
70
0
71
5
72
1
41
1.0
100
AcDbAlignedDimension
13
0.000000
23
0.000000
33
0.0
14
22.783966
24
0.000000
34
0.0
50
0.000000
100
AcDbRotatedDimension
0
DIMENSION
5
83
100
AcDbEntity
62
256
370
-1
6
ByLayer
1
total_height
3
Standard
70
0
71
5
72
1
41
1.0
100
AcDbAlignedDimension
13
0.000000
23
2.222814
33
0.0
14
0.000000
24
25.113135
34
0.0
50
90.000000
100
AcDbRotatedDimension
0
DIMENSION
5
83
100
AcDbEntity
62
256
370
-1
6
ByLayer
1
total_miny
3
Standard
70
0
71
5
72
1
41
1.0
100
AcDbAlignedDimension
13
2.222814
23
0.000000
33
0.0
14
0.000000
24
0.000000
34
0.0
50
0.000000
100
AcDbRotatedDimension
0
DIMENSION
5
83
100
AcDbEntity
62
256
370
-1
6
ByLayer
1
total_maxy
3
Standard
70
0
71
5
72
1
41
1.0
100
AcDbAlignedDimension
13
0.000000
23
0.000000
33
0.0
14
25.113135
24
0.000000
34
0.0
50
0.000000
100
AcDbRotatedDimension
0
DIMENSION
8
Layer_1
5
83
100
AcDbEntity
62
256
370
-1
6
ByLayer
1
Layer_1_width
3
Standard
70
0
71
5
72
1
41
1.0
100
AcDbAlignedDimension
13
1.769815
23
0.000000
33
0.0
14
22.783966
24
0.000000
34
0.0
50
0.000000
100
AcDbRotatedDimension
0
DIMENSION
8
Layer_1
5
83
100
AcDbEntity
62
256
370
-1
6
ByLayer
1
Layer_1_minx
3
Standard
70
0
71
5
72
1
41
1.0
100
AcDbAlignedDimension
13
1.769815
23
0.000000
33
0.0
14
0.000000
24
0.000000
34
0.0
50
0.000000
100
AcDbRotatedDimension
0
DIMENSION
8
Layer_1
5
83
100
AcDbEntity
62
256
370
-1
6
ByLayer
1
Layer_1_maxx
3
Standard
70
0
71
5
72
1
41
1.0
100
AcDbAlignedDimension
13
0.000000
23
0.000000
33
0.0
14
22.783966
24
0.000000
34
0.0
50
0.000000
100
AcDbRotatedDimension
0
DIMENSION
8
Layer_1
5
83
100
AcDbEntity
62
256
370
-1
6
ByLayer
1
Layer_1_height
3
Standard
70
0
71
5
72
1
41
1.0
100
AcDbAlignedDimension
13
0.000000
23
2.222814
33
0.0
14
0.000000
24
25.113135
34
0.0
50
90.000000
100
AcDbRotatedDimension
0
DIMENSION
8
Layer_1
5
83
100
AcDbEntity
62
256
370
-1
6
ByLayer
1
Layer_1_miny
3
Standard
70
0
71
5
72
1
41
1.0
100
AcDbAlignedDimension
13
2.222814
23
0.000000
33
0.0
14
0.000000
24
0.000000
34
0.0
50
0.000000
100
AcDbRotatedDimension
0
DIMENSION
8
Layer_1
5
83
100
AcDbEntity
62
256
370
-1
6
ByLayer
1
Layer_1_maxy
3
Standard
70
0
71
5
72
1
41
1.0
100
AcDbAlignedDimension
13
0.000000
23
0.000000
33
0.0
14
25.113135
24
0.000000
34
0.0
50
0.000000
100
AcDbRotatedDimension
62
0
0
LWPOLYLINE
100
AcDbPolyline
8
Layer_1
90
96
70
0
10
3.411129
20
3.155583
30
0.0
10
3.264501
20
3.862879
30
0.0
10
3.251428
20
4.723274
30
0.0
10
3.592911
20
6.775326
30
0.0
10
4.369493
20
9.055672
30
0.0
10
5.515092
20
11.308245
30
0.0
10
6.330569
20
12.868276
30
0.0
10
6.295076
20
13.325058
30
0.0
10
6.027997
20
13.887719
30
0.0
10
5.690902
20
14.739131
30
0.0
10
5.530680
20
15.648345
30
0.0
10
5.539161
20
16.584818
30
0.0
10
5.708169
20
17.518007
30
0.0
10
6.029533
20
18.417369
30
0.0
10
6.495079
20
19.252362
30
0.0
10
7.096635
20
19.992443
30
0.0
10
7.826027
20
20.607070
30
0.0
10
9.068422
20
21.155131
30
0.0
10
10.538190
20
21.345682
30
0.0
10
12.029119
20
21.177187
30
0.0
10
13.335000
20
20.648109
30
0.0
10
14.203660
20
20.192695
30
0.0
10
14.355279
20
20.239832
30
0.0
10
14.393333
20
20.456647
30
0.0
10
14.286651
20
21.063196
30
0.0
10
13.965341
20
21.619779
30
0.0
10
13.427510
20
22.128743
30
0.0
10
12.671262
20
22.592439
30
0.0
10
10.792898
20
23.232156
30
0.0
10
8.844120
20
23.314330
30
0.0
10
6.932374
20
22.849608
30
0.0
10
5.165105
20
21.848638
30
0.0
10
3.722220
20
21.047014
30
0.0
10
3.178319
20
20.685787
30
0.0
10
2.540000
20
19.908094
30
0.0
10
1.987723
20
19.220989
30
0.0
10
1.836277
20
19.161868
30
0.0
10
1.769815
20
19.276741
30
0.0
10
1.897413
20
19.981577
30
0.0
10
2.381649
20
21.241726
30
0.0
10
2.877432
20
22.157541
30
0.0
10
3.500266
20
22.948532
30
0.0
10
4.251553
20
23.615414
30
0.0
10
5.132694
20
24.158898
30
0.0
10
6.145090
20
24.579699
30
0.0
10
7.290142
20
24.878529
30
0.0
10
9.983816
20
25.113135
30
0.0
10
11.761577
20
24.988103
30
0.0
10
13.163513
20
24.598033
30
0.0
10
14.269922
20
23.908361
30
0.0
10
15.161099
20
22.884522
30
0.0
10
15.583497
20
21.924777
30
0.0
10
15.799798
20
20.769364
30
0.0
10
15.784267
20
19.703080
30
0.0
10
15.511166
20
19.010721
30
0.0
10
15.367364
20
18.488523
30
0.0
10
15.545938
20
17.472610
30
0.0
10
15.703037
20
16.298271
30
0.0
10
15.572022
20
15.124941
30
0.0
10
15.164832
20
14.003523
30
0.0
10
14.493405
20
12.984918
30
0.0
10
13.644555
20
12.142901
30
0.0
10
12.726775
20
11.616039
30
0.0
10
11.621085
20
11.358191
30
0.0
10
10.208504
20
11.323216
30
0.0
10
8.325556
20
11.394844
30
0.0
10
7.412461
20
9.879591
30
0.0
10
6.616912
20
8.246792
30
0.0
10
9.646674
20
9.464209
30
0.0
10
12.181269
20
10.591710
30
0.0
10
13.902142
20
11.227526
30
0.0
10
15.272900
20
11.509246
30
0.0
10
16.757150
20
11.574461
30
0.0
10
18.633121
20
11.699213
30
0.0
10
20.320000
20
11.994444
30
0.0
10
22.265577
20
12.393952
30
0.0
10
22.749975
20
12.393845
30
0.0
10
22.783966
20
12.247670
30
0.0
10
20.831929
20
11.415708
30
0.0
10
19.697796
20
10.939265
30
0.0
10
19.449566
20
10.787319
30
0.0
10
19.473333
20
10.723187
30
0.0
10
19.303669
20
10.595013
30
0.0
10
18.528771
20
10.268695
30
0.0
10
15.663333
20
9.219047
30
0.0
10
12.320827
20
7.972701
30
0.0
10
9.969682
20
6.868889
30
0.0
10
8.346180
20
5.760855
30
0.0
10
7.186600
20
4.501842
30
0.0
10
5.913916
20
3.026289
30
0.0
10
4.832761
20
2.300191
30
0.0
10
4.376983
20
2.222814
30
0.0
10
3.984658
20
2.338353
30
0.0
10
3.660977
20
2.648659
30
0.0
10
3.411129
20
3.155583
30
0.0
10
3.411129
20
3.155583
30
0.0
62
0
0
LWPOLYLINE
100
AcDbPolyline
8
Layer_1
90
31
70
0
10
12.982222
20
12.381022
30
0.0
10
13.673215
20
13.017043
30
0.0
10
14.309833
20
13.825603
30
0.0
10
14.776534
20
14.637051
30
0.0
10
14.957778
20
15.281736
30
0.0
10
14.903989
20
15.548655
30
0.0
10
14.696749
20
15.707753
30
0.0
10
13.546667
20
15.804444
30
0.0
10
12.550069
20
15.727463
30
0.0
10
12.135556
20
15.542381
30
0.0
10
11.986674
20
15.154929
30
0.0
10
11.609213
20
14.783045
30
0.0
10
11.106949
20
14.503568
30
0.0
10
10.583658
20
14.393333
30
0.0
10
9.950577
20
14.597648
30
0.0
10
9.363755
20
15.098889
30
0.0
10
8.662033
20
15.665471
30
0.0
10
7.508827
20
15.804444
30
0.0
10
6.660878
20
15.737827
30
0.0
10
6.253918
20
15.490398
30
0.0
10
6.248557
20
14.990794
30
0.0
10
6.605407
20
14.167652
30
0.0
10
7.104414
20
13.407483
30
0.0
10
7.744695
20
12.731824
30
0.0
10
8.465452
20
12.194841
30
0.0
10
9.205892
20
11.850700
30
0.0
10
10.140809
20
11.699556
30
0.0
10
11.186108
20
11.752205
30
0.0
10
12.185381
20
11.986682
30
0.0
10
12.982222
20
12.381022
30
0.0
10
12.982222
20
12.381022
30
0.0
62
0
0
LWPOLYLINE
100
AcDbPolyline
8
Layer_1
90
14
70
0
10
11.559859
20
15.367553
30
0.0
10
11.786035
20
15.807792
30
0.0
10
11.781299
20
16.271936
30
0.0
10
11.555319
20
16.721698
30
0.0
10
11.117759
20
17.118788
30
0.0
10
10.511229
20
17.354077
30
0.0
10
9.857908
20
16.973994
30
0.0
10
9.361285
20
16.401524
30
0.0
10
9.529098
20
15.696487
30
0.0
10
9.927117
20
15.198212
30
0.0
10
10.475172
20
14.964838
30
0.0
10
11.057881
20
15.015056
30
0.0
10
11.559859
20
15.367553
30
0.0
10
11.559859
20
15.367553
30
0.0
62
0
0
LWPOLYLINE
100
AcDbPolyline
8
Layer_1
90
31
70
0
10
9.079991
20
17.069020
30
0.0
10
9.359421
20
17.490478
30
0.0
10
9.736096
20
17.791378
30
0.0
10
10.645487
20
18.031609
30
0.0
10
11.536771
20
17.789932
30
0.0
10
11.890812
20
17.488446
30
0.0
10
12.138552
20
17.066564
30
0.0
10
12.322196
20
16.702657
30
0.0
10
12.587579
20
16.491153
30
0.0
10
13.717719
20
16.368889
30
0.0
10
15.031631
20
16.368889
30
0.0
10
14.863772
20
17.403285
30
0.0
10
14.637827
20
18.162785
30
0.0
10
14.233777
20
18.865674
30
0.0
10
13.682032
20
19.491853
30
0.0
10
13.013000
20
20.021222
30
0.0
10
12.257091
20
20.433683
30
0.0
10
11.444715
20
20.709136
30
0.0
10
10.606281
20
20.827481
30
0.0
10
9.772198
20
20.768619
30
0.0
10
8.493309
20
20.249051
30
0.0
10
7.348657
20
19.305502
30
0.0
10
6.524949
20
18.138193
30
0.0
10
6.208889
20
16.947348
30
0.0
10
6.253836
20
16.646938
30
0.0
10
6.435086
20
16.471429
30
0.0
10
7.484939
20
16.368889
30
0.0
10
8.587515
20
16.495794
30
0.0
10
8.868899
20
16.708569
30
0.0
10
9.079991
20
17.069020
30
0.0
10
9.079991
20
17.069020
30
0.0
  0
ENDSEC
  0
SECTION
  2
OBJECTS
  0
DICTIONARY
  5
C
330
0
100
AcDbDictionary
  3
ACAD_GROUP
350
D
  3
ACAD_MLINESTYLE
350
17
  0
DICTIONARY
  5
D
330
C
100
AcDbDictionary
  0
DICTIONARY
  5
1A
330
C
100
AcDbDictionary
  0
DICTIONARY
  5
17
330
C
100
AcDbDictionary
  3
STANDARD
350
18
  0
DICTIONARY
  5
19
330
C
100
AcDbDictionary
  0
ENDSEC
  0
EOF
