999
Inkscape export via OpenSCAD DXF Export
  0
SECTION
  2
HEADER
  9
$ACADVER
  1
AC1014
  9
$HANDSEED
  5
FFFF
  9
$MEASUREMENT
 70
     1
  0
ENDSEC
  0
SECTION
  2
TABLES
  0
TABLE
  2
VPORT
  5
8
330
0
100
AcDbSymbolTable
 70
     4
  0
VPORT
  5
2E
330
8
100
AcDbSymbolTableRecord
100
AcDbViewportTableRecord
  2
*ACTIVE
 70
     0
 10
0.0
 20
0.0
 11
1.0
 21
1.0
 12
210.0
 22
148.5
 13
0.0
 23
0.0
 14
10.0
 24
10.0
 15
10.0
 25
10.0
 16
0.0
 26
0.0
 36
1.0
 17
0.0
 27
0.0
 37
0.0
 40
341.0
 41
1.24
 42
50.0
 43
0.0
 44
0.0
 50
0.0
 51
0.0
 71
     0
 72
   100
 73
     1
 74
     3
 75
     0
 76
     0
 77
     0
 78
     0
  0
ENDTAB
  0
TABLE
  2
LTYPE
  5
5
330
0
100
AcDbSymbolTable
 70
     1
  0
LTYPE
  5
14
330
5
100
AcDbSymbolTableRecord
100
AcDbLinetypeTableRecord
  2
BYBLOCK
 70
     0
  3

 72
    65
 73
     0
 40
0.0
  0
LTYPE
  5
15
330
5
100
AcDbSymbolTableRecord
100
AcDbLinetypeTableRecord
  2
BYLAYER
 70
     0
  3

 72
    65
 73
     0
 40
0.0
  0
LTYPE
  5
16
330
5
100
AcDbSymbolTableRecord
100
AcDbLinetypeTableRecord
  2
CONTINUOUS
 70
     0
  3
Solid line
 72
    65
 73
     0
 40
0.0
  0
ENDTAB
  0
TABLE
0
TABLE
2
LAYER
5
2
330
0
100
AcDbSymbolTable
70
1
0
LAYER
5
10
330
2
100
AcDbSymbolTableRecord
100
AcDbLayerTableRecord
2
Layer_1
70
0
62
7
6
CONTINUOUS
0
ENDTAB
0
ENDSEC
  0
ENDTAB
  0
TABLE
  2
STYLE
  5
3
330
0
100
AcDbSymbolTable
 70
     1
  0
STYLE
  5
11
330
3
100
AcDbSymbolTableRecord
100
AcDbTextStyleTableRecord
  2
STANDARD
 70
     0
 40
0.0
 41
1.0
 50
0.0
 71
     0
 42
2.5
  3
txt
  4

  0
ENDTAB
  0
TABLE
  2
VIEW
  5
6
330
0
100
AcDbSymbolTable
 70
     0
  0
ENDTAB
  0
TABLE
  2
UCS
  5
7
330
0
100
AcDbSymbolTable
 70
     0
  0
ENDTAB
  0
TABLE
  2
APPID
  5
9
330
0
100
AcDbSymbolTable
 70
     2
  0
APPID
  5
12
330
9
100
AcDbSymbolTableRecord
100
AcDbRegAppTableRecord
  2
ACAD
 70
     0
  0
ENDTAB
  0
TABLE
  2
DIMSTYLE
  5
A
330
0
100
AcDbSymbolTable
 70
     1
  0
DIMSTYLE
105
27
330
A
100
AcDbSymbolTableRecord
100
AcDbDimStyleTableRecord
  2
ISO-25
 70
     0
  3

  4

  5

  6

  7

 40
1.0
 41
2.5
 42
0.625
 43
3.75
 44
1.25
 45
0.0
 46
0.0
 47
0.0
 48
0.0
140
2.5
141
2.5
142
0.0
143
0.03937007874016
144
1.0
145
0.0
146
1.0
147
0.625
 71
     0
 72
     0
 73
     0
 74
     0
 75
     0
 76
     0
 77
     1
 78
     8
170
     0
171
     3
172
     1
173
     0
174
     0
175
     0
176
     0
177
     0
178
     0
270
     2
271
     2
272
     2
273
     2
274
     3
340
11
275
     0
280
     0
281
     0
282
     0
283
     0
284
     8
285
     0
286
     0
287
     3
288
     0
  0
ENDTAB
  0
TABLE
  2
BLOCK_RECORD
  5
1
330
0
100
AcDbSymbolTable
 70
     1
  0
BLOCK_RECORD
  5
1F
330
1
100
AcDbSymbolTableRecord
100
AcDbBlockTableRecord
  2
*MODEL_SPACE
  0
BLOCK_RECORD
  5
1B
330
1
100
AcDbSymbolTableRecord
100
AcDbBlockTableRecord
  2
*PAPER_SPACE
  0
ENDTAB
  0
ENDSEC
  0
SECTION
  2
BLOCKS
  0
BLOCK
  5
20
330
1F
100
AcDbEntity
  8
0
100
AcDbBlockBegin
  2
*MODEL_SPACE
 70
     0
 10
0.0
 20
0.0
 30
0.0
  3
*MODEL_SPACE
  1

  0
ENDBLK
  5
21
330
1F
100
AcDbEntity
  8
0
100
AcDbBlockEnd
  0
BLOCK
  5
1C
330
1B
100
AcDbEntity
 67
     1
  8
0
100
AcDbBlockBegin
  2
*PAPER_SPACE
  1

  0
ENDBLK
  5
1D
330
1B
100
AcDbEntity
 67
     1
  8
0
100
AcDbBlockEnd
  0
ENDSEC
  0
SECTION
  2
ENTITIES
0
DIMENSION
5
83
100
AcDbEntity
62
256
370
-1
6
ByLayer
1
total_width
3
Standard
70
0
71
5
72
1
41
1.0
100
AcDbAlignedDimension
13
4.797778
23
0.000000
33
0.0
14
37.470690
24
0.000000
34
0.0
50
0.000000
100
AcDbRotatedDimension
0
DIMENSION
5
83
100
AcDbEntity
62
256
370
-1
6
ByLayer
1
total_minx
3
Standard
70
0
71
5
72
1
41
1.0
100
AcDbAlignedDimension
13
4.797778
23
0.000000
33
0.0
14
0.000000
24
0.000000
34
0.0
50
0.000000
100
AcDbRotatedDimension
0
DIMENSION
5
83
100
AcDbEntity
62
256
370
-1
6
ByLayer
1
total_maxx
3
Standard
70
0
71
5
72
1
41
1.0
100
AcDbAlignedDimension
13
0.000000
23
0.000000
33
0.0
14
37.470690
24
0.000000
34
0.0
50
0.000000
100
AcDbRotatedDimension
0
DIMENSION
5
83
100
AcDbEntity
62
256
370
-1
6
ByLayer
1
total_height
3
Standard
70
0
71
5
72
1
41
1.0
100
AcDbAlignedDimension
13
0.000000
23
2.559101
33
0.0
14
0.000000
24
40.071905
34
0.0
50
90.000000
100
AcDbRotatedDimension
0
DIMENSION
5
83
100
AcDbEntity
62
256
370
-1
6
ByLayer
1
total_miny
3
Standard
70
0
71
5
72
1
41
1.0
100
AcDbAlignedDimension
13
2.559101
23
0.000000
33
0.0
14
0.000000
24
0.000000
34
0.0
50
0.000000
100
AcDbRotatedDimension
0
DIMENSION
5
83
100
AcDbEntity
62
256
370
-1
6
ByLayer
1
total_maxy
3
Standard
70
0
71
5
72
1
41
1.0
100
AcDbAlignedDimension
13
0.000000
23
0.000000
33
0.0
14
40.071905
24
0.000000
34
0.0
50
0.000000
100
AcDbRotatedDimension
0
DIMENSION
8
Layer_1
5
83
100
AcDbEntity
62
256
370
-1
6
ByLayer
1
Layer_1_width
3
Standard
70
0
71
5
72
1
41
1.0
100
AcDbAlignedDimension
13
4.797778
23
0.000000
33
0.0
14
37.470690
24
0.000000
34
0.0
50
0.000000
100
AcDbRotatedDimension
0
DIMENSION
8
Layer_1
5
83
100
AcDbEntity
62
256
370
-1
6
ByLayer
1
Layer_1_minx
3
Standard
70
0
71
5
72
1
41
1.0
100
AcDbAlignedDimension
13
4.797778
23
0.000000
33
0.0
14
0.000000
24
0.000000
34
0.0
50
0.000000
100
AcDbRotatedDimension
0
DIMENSION
8
Layer_1
5
83
100
AcDbEntity
62
256
370
-1
6
ByLayer
1
Layer_1_maxx
3
Standard
70
0
71
5
72
1
41
1.0
100
AcDbAlignedDimension
13
0.000000
23
0.000000
33
0.0
14
37.470690
24
0.000000
34
0.0
50
0.000000
100
AcDbRotatedDimension
0
DIMENSION
8
Layer_1
5
83
100
AcDbEntity
62
256
370
-1
6
ByLayer
1
Layer_1_height
3
Standard
70
0
71
5
72
1
41
1.0
100
AcDbAlignedDimension
13
0.000000
23
2.559101
33
0.0
14
0.000000
24
40.071905
34
0.0
50
90.000000
100
AcDbRotatedDimension
0
DIMENSION
8
Layer_1
5
83
100
AcDbEntity
62
256
370
-1
6
ByLayer
1
Layer_1_miny
3
Standard
70
0
71
5
72
1
41
1.0
100
AcDbAlignedDimension
13
2.559101
23
0.000000
33
0.0
14
0.000000
24
0.000000
34
0.0
50
0.000000
100
AcDbRotatedDimension
0
DIMENSION
8
Layer_1
5
83
100
AcDbEntity
62
256
370
-1
6
ByLayer
1
Layer_1_maxy
3
Standard
70
0
71
5
72
1
41
1.0
100
AcDbAlignedDimension
13
0.000000
23
0.000000
33
0.0
14
40.071905
24
0.000000
34
0.0
50
0.000000
100
AcDbRotatedDimension
62
0
0
LWPOLYLINE
100
AcDbPolyline
8
Layer_1
90
30
70
0
10
20.320000
20
2.889851
30
0.0
10
18.166604
20
4.000997
30
0.0
10
16.718763
20
4.800496
30
0.0
10
18.812723
20
13.161891
30
0.0
10
20.815581
20
21.796591
30
0.0
10
19.225523
20
20.505531
30
0.0
10
15.530550
20
17.017700
30
0.0
10
10.336622
20
11.965500
30
0.0
10
11.243183
20
10.427750
30
0.0
10
12.618573
20
8.184444
30
0.0
10
12.761096
20
7.905160
30
0.0
10
12.608973
20
7.961107
30
0.0
10
11.678145
20
8.819809
30
0.0
10
9.111664
20
11.712222
30
0.0
10
6.903064
20
15.339385
30
0.0
10
6.010704
20
17.118751
30
0.0
10
5.744340
20
17.973970
30
0.0
10
13.290985
20
20.178847
30
0.0
10
19.464545
20
21.837719
30
0.0
10
20.624661
20
22.014384
30
0.0
10
21.051369
20
21.876406
30
0.0
10
21.876467
20
19.166862
30
0.0
10
23.427655
20
13.232415
30
0.0
10
25.142828
20
6.059843
30
0.0
10
25.220769
20
4.985411
30
0.0
10
24.954064
20
4.594564
30
0.0
10
22.886775
20
3.412737
30
0.0
10
21.104159
20
2.559101
30
0.0
10
20.320000
20
2.889851
30
0.0
10
20.320000
20
2.889851
30
0.0
62
0
0
LWPOLYLINE
100
AcDbPolyline
8
Layer_1
90
18
70
0
10
29.675641
20
8.355045
30
0.0
10
31.048350
20
10.438621
30
0.0
10
31.955421
20
11.987242
30
0.0
10
26.631599
20
17.155482
30
0.0
10
22.909723
20
20.895957
30
0.0
10
22.074028
20
21.857625
30
0.0
10
21.937397
20
22.084571
30
0.0
10
21.997730
20
22.132068
30
0.0
10
36.310626
20
17.970115
30
0.0
10
36.336121
20
17.366373
30
0.0
10
35.901797
20
16.250508
30
0.0
10
34.094360
20
13.149075
30
0.0
10
31.769643
20
9.999140
30
0.0
10
30.688720
20
8.822648
30
0.0
10
29.808974
20
8.134028
30
0.0
10
29.362759
20
7.941896
30
0.0
10
29.675641
20
8.355045
30
0.0
10
29.675641
20
8.355045
30
0.0
62
0
0
LWPOLYLINE
100
AcDbPolyline
8
Layer_1
90
13
70
0
10
36.765924
20
21.772106
30
0.0
10
36.333615
20
22.877559
30
0.0
10
35.768969
20
23.809514
30
0.0
10
35.110081
20
24.617917
30
0.0
10
28.515132
20
23.597385
30
0.0
10
21.812059
20
22.684978
30
0.0
10
29.549189
20
28.299950
30
0.0
10
37.394444
20
33.806797
30
0.0
10
37.470690
20
28.240894
30
0.0
10
37.459477
20
23.996854
30
0.0
10
37.325464
20
21.609047
30
0.0
10
37.103993
20
20.543102
30
0.0
10
36.765924
20
21.772106
30
0.0
62
0
0
LWPOLYLINE
100
AcDbPolyline
8
Layer_1
90
26
70
0
10
5.009444
20
21.329950
30
0.0
10
4.859955
20
23.288406
30
0.0
10
4.797778
20
27.697911
30
0.0
10
4.797778
20
33.852858
30
0.0
10
12.609872
20
28.360375
30
0.0
10
20.542159
20
22.988085
30
0.0
10
15.834121
20
29.733721
30
0.0
10
12.775851
20
33.847316
30
0.0
10
10.659699
20
36.361485
30
0.0
10
8.847092
20
37.941726
30
0.0
10
6.699459
20
39.253536
30
0.0
10
5.221111
20
40.071905
30
0.0
10
11.266529
20
40.003175
30
0.0
10
17.311947
20
39.934444
30
0.0
10
19.127714
20
31.511408
30
0.0
10
20.390025
20
25.257913
30
0.0
10
20.678184
20
22.823073
30
0.0
10
18.726556
20
22.900470
30
0.0
10
13.806782
20
23.581052
30
0.0
10
7.200678
20
24.604327
30
0.0
10
6.458586
20
23.715420
30
0.0
10
5.861724
20
22.836536
30
0.0
10
5.468802
20
21.971725
30
0.0
10
5.231693
20
21.430603
30
0.0
10
5.009444
20
21.329950
30
0.0
10
5.009444
20
21.329950
30
0.0
62
0
0
LWPOLYLINE
100
AcDbPolyline
8
Layer_1
90
14
70
0
10
23.043678
20
31.115000
30
0.0
10
24.966169
20
39.722778
30
0.0
10
25.328297
20
39.890276
30
0.0
10
26.367409
20
39.997652
30
0.0
10
31.106144
20
40.067373
30
0.0
10
37.112222
20
40.059190
30
0.0
10
35.244930
20
39.062991
30
0.0
10
33.160942
20
37.758326
30
0.0
10
31.195709
20
35.975715
30
0.0
10
28.906593
20
33.245640
30
0.0
10
25.850951
20
29.098581
30
0.0
10
21.320960
20
22.860000
30
0.0
10
23.043678
20
31.115000
30
0.0
10
23.043678
20
31.115000
30
0.0
  0
ENDSEC
  0
SECTION
  2
OBJECTS
  0
DICTIONARY
  5
C
330
0
100
AcDbDictionary
  3
ACAD_GROUP
350
D
  3
ACAD_MLINESTYLE
350
17
  0
DICTIONARY
  5
D
330
C
100
AcDbDictionary
  0
DICTIONARY
  5
1A
330
C
100
AcDbDictionary
  0
DICTIONARY
  5
17
330
C
100
AcDbDictionary
  3
STANDARD
350
18
  0
DICTIONARY
  5
19
330
C
100
AcDbDictionary
  0
ENDSEC
  0
EOF
