999
Inkscape export via OpenSCAD DXF Export
  0
SECTION
  2
HEADER
  9
$ACADVER
  1
AC1014
  9
$HANDSEED
  5
FFFF
  9
$MEASUREMENT
 70
     1
  0
ENDSEC
  0
SECTION
  2
TABLES
  0
TABLE
  2
VPORT
  5
8
330
0
100
AcDbSymbolTable
 70
     4
  0
VPORT
  5
2E
330
8
100
AcDbSymbolTableRecord
100
AcDbViewportTableRecord
  2
*ACTIVE
 70
     0
 10
0.0
 20
0.0
 11
1.0
 21
1.0
 12
210.0
 22
148.5
 13
0.0
 23
0.0
 14
10.0
 24
10.0
 15
10.0
 25
10.0
 16
0.0
 26
0.0
 36
1.0
 17
0.0
 27
0.0
 37
0.0
 40
341.0
 41
1.24
 42
50.0
 43
0.0
 44
0.0
 50
0.0
 51
0.0
 71
     0
 72
   100
 73
     1
 74
     3
 75
     0
 76
     0
 77
     0
 78
     0
  0
ENDTAB
  0
TABLE
  2
LTYPE
  5
5
330
0
100
AcDbSymbolTable
 70
     1
  0
LTYPE
  5
14
330
5
100
AcDbSymbolTableRecord
100
AcDbLinetypeTableRecord
  2
BYBLOCK
 70
     0
  3

 72
    65
 73
     0
 40
0.0
  0
LTYPE
  5
15
330
5
100
AcDbSymbolTableRecord
100
AcDbLinetypeTableRecord
  2
BYLAYER
 70
     0
  3

 72
    65
 73
     0
 40
0.0
  0
LTYPE
  5
16
330
5
100
AcDbSymbolTableRecord
100
AcDbLinetypeTableRecord
  2
CONTINUOUS
 70
     0
  3
Solid line
 72
    65
 73
     0
 40
0.0
  0
ENDTAB
  0
TABLE
0
TABLE
2
LAYER
5
2
330
0
100
AcDbSymbolTable
70
1
0
LAYER
5
10
330
2
100
AcDbSymbolTableRecord
100
AcDbLayerTableRecord
2
Layer_1
70
0
62
7
6
CONTINUOUS
0
ENDTAB
0
ENDSEC
  0
ENDTAB
  0
TABLE
  2
STYLE
  5
3
330
0
100
AcDbSymbolTable
 70
     1
  0
STYLE
  5
11
330
3
100
AcDbSymbolTableRecord
100
AcDbTextStyleTableRecord
  2
STANDARD
 70
     0
 40
0.0
 41
1.0
 50
0.0
 71
     0
 42
2.5
  3
txt
  4

  0
ENDTAB
  0
TABLE
  2
VIEW
  5
6
330
0
100
AcDbSymbolTable
 70
     0
  0
ENDTAB
  0
TABLE
  2
UCS
  5
7
330
0
100
AcDbSymbolTable
 70
     0
  0
ENDTAB
  0
TABLE
  2
APPID
  5
9
330
0
100
AcDbSymbolTable
 70
     2
  0
APPID
  5
12
330
9
100
AcDbSymbolTableRecord
100
AcDbRegAppTableRecord
  2
ACAD
 70
     0
  0
ENDTAB
  0
TABLE
  2
DIMSTYLE
  5
A
330
0
100
AcDbSymbolTable
 70
     1
  0
DIMSTYLE
105
27
330
A
100
AcDbSymbolTableRecord
100
AcDbDimStyleTableRecord
  2
ISO-25
 70
     0
  3

  4

  5

  6

  7

 40
1.0
 41
2.5
 42
0.625
 43
3.75
 44
1.25
 45
0.0
 46
0.0
 47
0.0
 48
0.0
140
2.5
141
2.5
142
0.0
143
0.03937007874016
144
1.0
145
0.0
146
1.0
147
0.625
 71
     0
 72
     0
 73
     0
 74
     0
 75
     0
 76
     0
 77
     1
 78
     8
170
     0
171
     3
172
     1
173
     0
174
     0
175
     0
176
     0
177
     0
178
     0
270
     2
271
     2
272
     2
273
     2
274
     3
340
11
275
     0
280
     0
281
     0
282
     0
283
     0
284
     8
285
     0
286
     0
287
     3
288
     0
  0
ENDTAB
  0
TABLE
  2
BLOCK_RECORD
  5
1
330
0
100
AcDbSymbolTable
 70
     1
  0
BLOCK_RECORD
  5
1F
330
1
100
AcDbSymbolTableRecord
100
AcDbBlockTableRecord
  2
*MODEL_SPACE
  0
BLOCK_RECORD
  5
1B
330
1
100
AcDbSymbolTableRecord
100
AcDbBlockTableRecord
  2
*PAPER_SPACE
  0
ENDTAB
  0
ENDSEC
  0
SECTION
  2
BLOCKS
  0
BLOCK
  5
20
330
1F
100
AcDbEntity
  8
0
100
AcDbBlockBegin
  2
*MODEL_SPACE
 70
     0
 10
0.0
 20
0.0
 30
0.0
  3
*MODEL_SPACE
  1

  0
ENDBLK
  5
21
330
1F
100
AcDbEntity
  8
0
100
AcDbBlockEnd
  0
BLOCK
  5
1C
330
1B
100
AcDbEntity
 67
     1
  8
0
100
AcDbBlockBegin
  2
*PAPER_SPACE
  1

  0
ENDBLK
  5
1D
330
1B
100
AcDbEntity
 67
     1
  8
0
100
AcDbBlockEnd
  0
ENDSEC
  0
SECTION
  2
ENTITIES
0
DIMENSION
5
83
100
AcDbEntity
62
256
370
-1
6
ByLayer
1
total_width
3
Standard
70
0
71
5
72
1
41
1.0
100
AcDbAlignedDimension
13
3.675266
23
0.000000
33
0.0
14
38.614934
24
0.000000
34
0.0
50
0.000000
100
AcDbRotatedDimension
0
DIMENSION
5
83
100
AcDbEntity
62
256
370
-1
6
ByLayer
1
total_minx
3
Standard
70
0
71
5
72
1
41
1.0
100
AcDbAlignedDimension
13
3.675266
23
0.000000
33
0.0
14
0.000000
24
0.000000
34
0.0
50
0.000000
100
AcDbRotatedDimension
0
DIMENSION
5
83
100
AcDbEntity
62
256
370
-1
6
ByLayer
1
total_maxx
3
Standard
70
0
71
5
72
1
41
1.0
100
AcDbAlignedDimension
13
0.000000
23
0.000000
33
0.0
14
38.614934
24
0.000000
34
0.0
50
0.000000
100
AcDbRotatedDimension
0
DIMENSION
5
83
100
AcDbEntity
62
256
370
-1
6
ByLayer
1
total_height
3
Standard
70
0
71
5
72
1
41
1.0
100
AcDbAlignedDimension
13
0.000000
23
3.409946
33
0.0
14
0.000000
24
38.889902
34
0.0
50
90.000000
100
AcDbRotatedDimension
0
DIMENSION
5
83
100
AcDbEntity
62
256
370
-1
6
ByLayer
1
total_miny
3
Standard
70
0
71
5
72
1
41
1.0
100
AcDbAlignedDimension
13
3.409946
23
0.000000
33
0.0
14
0.000000
24
0.000000
34
0.0
50
0.000000
100
AcDbRotatedDimension
0
DIMENSION
5
83
100
AcDbEntity
62
256
370
-1
6
ByLayer
1
total_maxy
3
Standard
70
0
71
5
72
1
41
1.0
100
AcDbAlignedDimension
13
0.000000
23
0.000000
33
0.0
14
38.889902
24
0.000000
34
0.0
50
0.000000
100
AcDbRotatedDimension
0
DIMENSION
8
Layer_1
5
83
100
AcDbEntity
62
256
370
-1
6
ByLayer
1
Layer_1_width
3
Standard
70
0
71
5
72
1
41
1.0
100
AcDbAlignedDimension
13
3.675266
23
0.000000
33
0.0
14
38.614934
24
0.000000
34
0.0
50
0.000000
100
AcDbRotatedDimension
0
DIMENSION
8
Layer_1
5
83
100
AcDbEntity
62
256
370
-1
6
ByLayer
1
Layer_1_minx
3
Standard
70
0
71
5
72
1
41
1.0
100
AcDbAlignedDimension
13
3.675266
23
0.000000
33
0.0
14
0.000000
24
0.000000
34
0.0
50
0.000000
100
AcDbRotatedDimension
0
DIMENSION
8
Layer_1
5
83
100
AcDbEntity
62
256
370
-1
6
ByLayer
1
Layer_1_maxx
3
Standard
70
0
71
5
72
1
41
1.0
100
AcDbAlignedDimension
13
0.000000
23
0.000000
33
0.0
14
38.614934
24
0.000000
34
0.0
50
0.000000
100
AcDbRotatedDimension
0
DIMENSION
8
Layer_1
5
83
100
AcDbEntity
62
256
370
-1
6
ByLayer
1
Layer_1_height
3
Standard
70
0
71
5
72
1
41
1.0
100
AcDbAlignedDimension
13
0.000000
23
3.409946
33
0.0
14
0.000000
24
38.889902
34
0.0
50
90.000000
100
AcDbRotatedDimension
0
DIMENSION
8
Layer_1
5
83
100
AcDbEntity
62
256
370
-1
6
ByLayer
1
Layer_1_miny
3
Standard
70
0
71
5
72
1
41
1.0
100
AcDbAlignedDimension
13
3.409946
23
0.000000
33
0.0
14
0.000000
24
0.000000
34
0.0
50
0.000000
100
AcDbRotatedDimension
0
DIMENSION
8
Layer_1
5
83
100
AcDbEntity
62
256
370
-1
6
ByLayer
1
Layer_1_maxy
3
Standard
70
0
71
5
72
1
41
1.0
100
AcDbAlignedDimension
13
0.000000
23
0.000000
33
0.0
14
38.889902
24
0.000000
34
0.0
50
0.000000
100
AcDbRotatedDimension
62
0
0
LWPOLYLINE
100
AcDbPolyline
8
Layer_1
90
60
70
0
10
22.316775
20
3.693516
30
0.0
10
20.413308
20
4.167060
30
0.0
10
18.515611
20
4.832603
30
0.0
10
16.649359
20
5.674525
30
0.0
10
14.840230
20
6.677209
30
0.0
10
13.113900
20
7.825036
30
0.0
10
11.496044
20
9.102387
30
0.0
10
10.012341
20
10.493646
30
0.0
10
8.688466
20
11.983192
30
0.0
10
7.461858
20
13.706238
30
0.0
10
6.298822
20
15.712291
30
0.0
10
5.288479
20
17.832163
30
0.0
10
4.519949
20
19.896667
30
0.0
10
4.070868
20
21.920328
30
0.0
10
3.778748
20
24.408418
30
0.0
10
3.675266
20
26.957584
30
0.0
10
3.792101
20
29.164470
30
0.0
10
3.987925
20
30.157017
30
0.0
10
4.227414
20
30.710318
30
0.0
10
4.338390
20
30.790146
30
0.0
10
4.430110
20
30.721637
30
0.0
10
4.515556
20
30.088238
30
0.0
10
4.760106
20
28.625645
30
0.0
10
5.385986
20
26.493812
30
0.0
10
6.231535
20
24.181047
30
0.0
10
7.135094
20
22.175661
30
0.0
10
8.704985
20
19.577255
30
0.0
10
10.569435
20
17.219472
30
0.0
10
12.690613
20
15.127859
30
0.0
10
15.030687
20
13.327959
30
0.0
10
17.551827
20
11.845319
30
0.0
10
20.216202
20
10.705484
30
0.0
10
22.985981
20
9.933999
30
0.0
10
25.823333
20
9.556409
30
0.0
10
27.516667
20
9.454444
30
0.0
10
27.599386
20
11.657883
30
0.0
10
27.578256
20
13.148538
30
0.0
10
27.403667
20
14.640849
30
0.0
10
26.597692
20
17.620835
30
0.0
10
25.188631
20
20.578625
30
0.0
10
23.183651
20
23.495000
30
0.0
10
22.046264
20
25.039726
30
0.0
10
21.757284
20
25.682222
30
0.0
10
22.506251
20
25.443907
30
0.0
10
23.719052
20
24.841982
30
0.0
10
26.286086
20
23.225445
30
0.0
10
28.133833
20
21.533941
30
0.0
10
29.837597
20
19.421996
30
0.0
10
31.317675
20
17.003033
30
0.0
10
32.494364
20
14.390478
30
0.0
10
33.257242
20
11.803150
30
0.0
10
33.500890
20
8.466667
30
0.0
10
33.503017
20
5.863134
30
0.0
10
33.352178
20
4.557477
30
0.0
10
32.824870
20
4.211054
30
0.0
10
31.822074
20
3.914588
30
0.0
10
28.854072
20
3.507857
30
0.0
10
25.376272
20
3.409946
30
0.0
10
22.316775
20
3.693516
30
0.0
10
22.316775
20
3.693516
30
0.0
62
0
0
LWPOLYLINE
100
AcDbPolyline
8
Layer_1
90
63
70
0
10
37.505304
20
13.353988
30
0.0
10
37.046495
20
15.271241
30
0.0
10
36.439104
20
17.130994
30
0.0
10
35.691595
20
18.925249
30
0.0
10
34.812432
20
20.646011
30
0.0
10
32.693007
20
23.835076
30
0.0
10
30.148547
20
26.634221
30
0.0
10
27.246771
20
28.979482
30
0.0
10
25.683052
20
29.961916
30
0.0
10
24.055398
20
30.806893
30
0.0
10
22.372273
20
31.506416
30
0.0
10
20.642144
20
32.052489
30
0.0
10
18.873475
20
32.437117
30
0.0
10
17.074730
20
32.652304
30
0.0
10
14.675556
20
32.821616
30
0.0
10
14.675556
20
30.440103
30
0.0
10
14.953315
20
27.298243
30
0.0
10
15.791472
20
24.304973
30
0.0
10
17.197349
20
21.441184
30
0.0
10
19.178265
20
18.687769
30
0.0
10
20.274308
20
17.249379
30
0.0
10
20.520812
20
16.811816
30
0.0
10
20.508125
20
16.651111
30
0.0
10
18.318966
20
17.551927
30
0.0
10
16.888041
20
18.396926
30
0.0
10
15.503868
20
19.472985
30
0.0
10
14.186023
20
20.754560
30
0.0
10
12.954081
20
22.216106
30
0.0
10
11.827618
20
23.832078
30
0.0
10
10.826211
20
25.576933
30
0.0
10
9.969433
20
27.425126
30
0.0
10
9.276861
20
29.351111
30
0.0
10
8.774906
20
31.799427
30
0.0
10
8.577261
20
34.490686
30
0.0
10
8.694575
20
36.766478
30
0.0
10
8.874669
20
37.542821
30
0.0
10
9.137496
20
37.968396
30
0.0
10
10.242697
20
38.403173
30
0.0
10
12.061755
20
38.720804
30
0.0
10
14.331016
20
38.889902
30
0.0
10
16.786826
20
38.879076
30
0.0
10
19.126510
20
38.648646
30
0.0
10
21.393702
20
38.181046
30
0.0
10
23.575974
20
37.490180
30
0.0
10
25.660895
20
36.589955
30
0.0
10
27.636035
20
35.494275
30
0.0
10
29.488965
20
34.217046
30
0.0
10
31.207254
20
32.772173
30
0.0
10
32.778473
20
31.173563
30
0.0
10
34.190192
20
29.435119
30
0.0
10
35.429981
20
27.570749
30
0.0
10
36.485411
20
25.594357
30
0.0
10
37.344051
20
23.519848
30
0.0
10
37.993471
20
21.361129
30
0.0
10
38.421242
20
19.132104
30
0.0
10
38.614934
20
16.846680
30
0.0
10
38.562116
20
14.518761
30
0.0
10
38.355196
20
12.443106
30
0.0
10
38.129144
20
11.578097
30
0.0
10
38.000011
20
11.589738
30
0.0
10
37.855376
20
11.892226
30
0.0
10
37.505304
20
13.353988
30
0.0
10
37.505304
20
13.353988
30
0.0
  0
ENDSEC
  0
SECTION
  2
OBJECTS
  0
DICTIONARY
  5
C
330
0
100
AcDbDictionary
  3
ACAD_GROUP
350
D
  3
ACAD_MLINESTYLE
350
17
  0
DICTIONARY
  5
D
330
C
100
AcDbDictionary
  0
DICTIONARY
  5
1A
330
C
100
AcDbDictionary
  0
DICTIONARY
  5
17
330
C
100
AcDbDictionary
  3
STANDARD
350
18
  0
DICTIONARY
  5
19
330
C
100
AcDbDictionary
  0
ENDSEC
  0
EOF
