999
Inkscape export via OpenSCAD DXF Export
  0
SECTION
  2
HEADER
  9
$ACADVER
  1
AC1014
  9
$HANDSEED
  5
FFFF
  9
$MEASUREMENT
 70
     1
  0
ENDSEC
  0
SECTION
  2
TABLES
  0
TABLE
  2
VPORT
  5
8
330
0
100
AcDbSymbolTable
 70
     4
  0
VPORT
  5
2E
330
8
100
AcDbSymbolTableRecord
100
AcDbViewportTableRecord
  2
*ACTIVE
 70
     0
 10
0.0
 20
0.0
 11
1.0
 21
1.0
 12
210.0
 22
148.5
 13
0.0
 23
0.0
 14
10.0
 24
10.0
 15
10.0
 25
10.0
 16
0.0
 26
0.0
 36
1.0
 17
0.0
 27
0.0
 37
0.0
 40
341.0
 41
1.24
 42
50.0
 43
0.0
 44
0.0
 50
0.0
 51
0.0
 71
     0
 72
   100
 73
     1
 74
     3
 75
     0
 76
     0
 77
     0
 78
     0
  0
ENDTAB
  0
TABLE
  2
LTYPE
  5
5
330
0
100
AcDbSymbolTable
 70
     1
  0
LTYPE
  5
14
330
5
100
AcDbSymbolTableRecord
100
AcDbLinetypeTableRecord
  2
BYBLOCK
 70
     0
  3

 72
    65
 73
     0
 40
0.0
  0
LTYPE
  5
15
330
5
100
AcDbSymbolTableRecord
100
AcDbLinetypeTableRecord
  2
BYLAYER
 70
     0
  3

 72
    65
 73
     0
 40
0.0
  0
LTYPE
  5
16
330
5
100
AcDbSymbolTableRecord
100
AcDbLinetypeTableRecord
  2
CONTINUOUS
 70
     0
  3
Solid line
 72
    65
 73
     0
 40
0.0
  0
ENDTAB
  0
TABLE
0
TABLE
2
LAYER
5
2
330
0
100
AcDbSymbolTable
70
1
0
LAYER
5
10
330
2
100
AcDbSymbolTableRecord
100
AcDbLayerTableRecord
2
Layer_1
70
0
62
7
6
CONTINUOUS
0
ENDTAB
0
ENDSEC
  0
ENDTAB
  0
TABLE
  2
STYLE
  5
3
330
0
100
AcDbSymbolTable
 70
     1
  0
STYLE
  5
11
330
3
100
AcDbSymbolTableRecord
100
AcDbTextStyleTableRecord
  2
STANDARD
 70
     0
 40
0.0
 41
1.0
 50
0.0
 71
     0
 42
2.5
  3
txt
  4

  0
ENDTAB
  0
TABLE
  2
VIEW
  5
6
330
0
100
AcDbSymbolTable
 70
     0
  0
ENDTAB
  0
TABLE
  2
UCS
  5
7
330
0
100
AcDbSymbolTable
 70
     0
  0
ENDTAB
  0
TABLE
  2
APPID
  5
9
330
0
100
AcDbSymbolTable
 70
     2
  0
APPID
  5
12
330
9
100
AcDbSymbolTableRecord
100
AcDbRegAppTableRecord
  2
ACAD
 70
     0
  0
ENDTAB
  0
TABLE
  2
DIMSTYLE
  5
A
330
0
100
AcDbSymbolTable
 70
     1
  0
DIMSTYLE
105
27
330
A
100
AcDbSymbolTableRecord
100
AcDbDimStyleTableRecord
  2
ISO-25
 70
     0
  3

  4

  5

  6

  7

 40
1.0
 41
2.5
 42
0.625
 43
3.75
 44
1.25
 45
0.0
 46
0.0
 47
0.0
 48
0.0
140
2.5
141
2.5
142
0.0
143
0.03937007874016
144
1.0
145
0.0
146
1.0
147
0.625
 71
     0
 72
     0
 73
     0
 74
     0
 75
     0
 76
     0
 77
     1
 78
     8
170
     0
171
     3
172
     1
173
     0
174
     0
175
     0
176
     0
177
     0
178
     0
270
     2
271
     2
272
     2
273
     2
274
     3
340
11
275
     0
280
     0
281
     0
282
     0
283
     0
284
     8
285
     0
286
     0
287
     3
288
     0
  0
ENDTAB
  0
TABLE
  2
BLOCK_RECORD
  5
1
330
0
100
AcDbSymbolTable
 70
     1
  0
BLOCK_RECORD
  5
1F
330
1
100
AcDbSymbolTableRecord
100
AcDbBlockTableRecord
  2
*MODEL_SPACE
  0
BLOCK_RECORD
  5
1B
330
1
100
AcDbSymbolTableRecord
100
AcDbBlockTableRecord
  2
*PAPER_SPACE
  0
ENDTAB
  0
ENDSEC
  0
SECTION
  2
BLOCKS
  0
BLOCK
  5
20
330
1F
100
AcDbEntity
  8
0
100
AcDbBlockBegin
  2
*MODEL_SPACE
 70
     0
 10
0.0
 20
0.0
 30
0.0
  3
*MODEL_SPACE
  1

  0
ENDBLK
  5
21
330
1F
100
AcDbEntity
  8
0
100
AcDbBlockEnd
  0
BLOCK
  5
1C
330
1B
100
AcDbEntity
 67
     1
  8
0
100
AcDbBlockBegin
  2
*PAPER_SPACE
  1

  0
ENDBLK
  5
1D
330
1B
100
AcDbEntity
 67
     1
  8
0
100
AcDbBlockEnd
  0
ENDSEC
  0
SECTION
  2
ENTITIES
0
DIMENSION
5
83
100
AcDbEntity
62
256
370
-1
6
ByLayer
1
total_width
3
Standard
70
0
71
5
72
1
41
1.0
100
AcDbAlignedDimension
13
2.837703
23
0.000000
33
0.0
14
39.754375
24
0.000000
34
0.0
50
0.000000
100
AcDbRotatedDimension
0
DIMENSION
5
83
100
AcDbEntity
62
256
370
-1
6
ByLayer
1
total_minx
3
Standard
70
0
71
5
72
1
41
1.0
100
AcDbAlignedDimension
13
2.837703
23
0.000000
33
0.0
14
0.000000
24
0.000000
34
0.0
50
0.000000
100
AcDbRotatedDimension
0
DIMENSION
5
83
100
AcDbEntity
62
256
370
-1
6
ByLayer
1
total_maxx
3
Standard
70
0
71
5
72
1
41
1.0
100
AcDbAlignedDimension
13
0.000000
23
0.000000
33
0.0
14
39.754375
24
0.000000
34
0.0
50
0.000000
100
AcDbRotatedDimension
0
DIMENSION
5
83
100
AcDbEntity
62
256
370
-1
6
ByLayer
1
total_height
3
Standard
70
0
71
5
72
1
41
1.0
100
AcDbAlignedDimension
13
0.000000
23
3.394868
33
0.0
14
0.000000
24
38.943910
34
0.0
50
90.000000
100
AcDbRotatedDimension
0
DIMENSION
5
83
100
AcDbEntity
62
256
370
-1
6
ByLayer
1
total_miny
3
Standard
70
0
71
5
72
1
41
1.0
100
AcDbAlignedDimension
13
3.394868
23
0.000000
33
0.0
14
0.000000
24
0.000000
34
0.0
50
0.000000
100
AcDbRotatedDimension
0
DIMENSION
5
83
100
AcDbEntity
62
256
370
-1
6
ByLayer
1
total_maxy
3
Standard
70
0
71
5
72
1
41
1.0
100
AcDbAlignedDimension
13
0.000000
23
0.000000
33
0.0
14
38.943910
24
0.000000
34
0.0
50
0.000000
100
AcDbRotatedDimension
0
DIMENSION
8
Layer_1
5
83
100
AcDbEntity
62
256
370
-1
6
ByLayer
1
Layer_1_width
3
Standard
70
0
71
5
72
1
41
1.0
100
AcDbAlignedDimension
13
2.837703
23
0.000000
33
0.0
14
39.754375
24
0.000000
34
0.0
50
0.000000
100
AcDbRotatedDimension
0
DIMENSION
8
Layer_1
5
83
100
AcDbEntity
62
256
370
-1
6
ByLayer
1
Layer_1_minx
3
Standard
70
0
71
5
72
1
41
1.0
100
AcDbAlignedDimension
13
2.837703
23
0.000000
33
0.0
14
0.000000
24
0.000000
34
0.0
50
0.000000
100
AcDbRotatedDimension
0
DIMENSION
8
Layer_1
5
83
100
AcDbEntity
62
256
370
-1
6
ByLayer
1
Layer_1_maxx
3
Standard
70
0
71
5
72
1
41
1.0
100
AcDbAlignedDimension
13
0.000000
23
0.000000
33
0.0
14
39.754375
24
0.000000
34
0.0
50
0.000000
100
AcDbRotatedDimension
0
DIMENSION
8
Layer_1
5
83
100
AcDbEntity
62
256
370
-1
6
ByLayer
1
Layer_1_height
3
Standard
70
0
71
5
72
1
41
1.0
100
AcDbAlignedDimension
13
0.000000
23
3.394868
33
0.0
14
0.000000
24
38.943910
34
0.0
50
90.000000
100
AcDbRotatedDimension
0
DIMENSION
8
Layer_1
5
83
100
AcDbEntity
62
256
370
-1
6
ByLayer
1
Layer_1_miny
3
Standard
70
0
71
5
72
1
41
1.0
100
AcDbAlignedDimension
13
3.394868
23
0.000000
33
0.0
14
0.000000
24
0.000000
34
0.0
50
0.000000
100
AcDbRotatedDimension
0
DIMENSION
8
Layer_1
5
83
100
AcDbEntity
62
256
370
-1
6
ByLayer
1
Layer_1_maxy
3
Standard
70
0
71
5
72
1
41
1.0
100
AcDbAlignedDimension
13
0.000000
23
0.000000
33
0.0
14
38.943910
24
0.000000
34
0.0
50
0.000000
100
AcDbRotatedDimension
62
0
0
LWPOLYLINE
100
AcDbPolyline
8
Layer_1
90
128
70
0
10
37.087717
20
5.432778
30
0.0
10
34.286636
20
10.221095
30
0.0
10
32.862878
20
12.963302
30
0.0
10
31.234857
20
11.143124
30
0.0
10
29.683933
20
9.588031
30
0.0
10
27.950080
20
8.168707
30
0.0
10
26.102756
20
6.936580
30
0.0
10
24.211417
20
5.943072
30
0.0
10
22.353848
20
5.198969
30
0.0
10
20.494099
20
4.641178
30
0.0
10
18.649031
20
4.263820
30
0.0
10
16.835507
20
4.061018
30
0.0
10
15.070390
20
4.026892
30
0.0
10
13.370541
20
4.155566
30
0.0
10
11.752825
20
4.441160
30
0.0
10
10.234103
20
4.877797
30
0.0
10
8.831239
20
5.459599
30
0.0
10
7.561094
20
6.180687
30
0.0
10
6.440531
20
7.035183
30
0.0
10
5.486414
20
8.017210
30
0.0
10
4.715604
20
9.120888
30
0.0
10
4.144964
20
10.340340
30
0.0
10
3.791357
20
11.669688
30
0.0
10
3.671646
20
13.103053
30
0.0
10
3.784190
20
14.285399
30
0.0
10
4.115584
20
15.429014
30
0.0
10
4.663401
20
16.531011
30
0.0
10
5.425221
20
17.588503
30
0.0
10
6.398617
20
18.598600
30
0.0
10
7.581168
20
19.558417
30
0.0
10
8.970449
20
20.465063
30
0.0
10
10.564038
20
21.315653
30
0.0
10
13.129621
20
22.448327
30
0.0
10
16.028751
20
23.482982
30
0.0
10
19.608543
20
24.531212
30
0.0
10
24.216113
20
25.704610
30
0.0
10
28.080774
20
26.698013
30
0.0
10
30.524808
20
27.478675
30
0.0
10
31.803799
20
28.145999
30
0.0
10
32.086275
20
28.468222
30
0.0
10
32.173333
20
28.799388
30
0.0
10
31.947234
20
29.334726
30
0.0
10
31.292336
20
29.685331
30
0.0
10
30.243742
20
29.840775
30
0.0
10
28.836555
20
29.790630
30
0.0
10
25.928179
20
29.192207
30
0.0
10
20.884444
20
27.482626
30
0.0
10
19.647365
20
27.070119
30
0.0
10
18.590467
20
26.852965
30
0.0
10
15.522222
20
26.819965
30
0.0
10
9.161422
20
26.852862
30
0.0
10
6.943078
20
26.710653
30
0.0
10
5.362464
20
26.462543
30
0.0
10
3.810483
20
26.092461
30
0.0
10
3.198707
20
28.213521
30
0.0
10
2.845087
20
29.594347
30
0.0
10
2.837703
20
30.357853
30
0.0
10
3.242596
20
30.685288
30
0.0
10
4.125809
20
30.757901
30
0.0
10
7.303534
20
31.110469
30
0.0
10
11.224082
20
32.107930
30
0.0
10
15.725415
20
33.700451
30
0.0
10
20.645494
20
35.838200
30
0.0
10
24.166962
20
37.446726
30
0.0
10
26.610169
20
38.390418
30
0.0
10
28.489555
20
38.834428
30
0.0
10
30.319557
20
38.943910
30
0.0
10
32.221572
20
38.790176
30
0.0
10
33.866667
20
38.218798
30
0.0
10
36.722679
20
36.495663
30
0.0
10
37.925552
20
35.605653
30
0.0
10
38.333259
20
35.141162
30
0.0
10
36.406667
20
35.442947
30
0.0
10
34.573674
20
35.739774
30
0.0
10
32.913700
20
35.808974
30
0.0
10
31.362139
20
35.648717
30
0.0
10
29.854384
20
35.257171
30
0.0
10
27.954868
20
34.554332
30
0.0
10
27.524707
20
34.315340
30
0.0
10
27.448761
20
34.140237
30
0.0
10
28.382968
20
33.948512
30
0.0
10
30.804392
20
33.912780
30
0.0
10
33.814235
20
33.833350
30
0.0
10
36.032828
20
33.519757
30
0.0
10
37.659148
20
32.924994
30
0.0
10
38.892172
20
32.002051
30
0.0
10
39.668345
20
31.023598
30
0.0
10
39.754375
20
30.583260
30
0.0
10
39.701419
20
30.022943
30
0.0
10
39.371347
20
28.942362
30
0.0
10
38.714994
20
27.886032
30
0.0
10
37.697351
20
26.830273
30
0.0
10
36.283409
20
25.751404
30
0.0
10
34.438156
20
24.625743
30
0.0
10
32.126585
20
23.429611
30
0.0
10
25.964444
20
20.731207
30
0.0
10
19.360402
20
17.885965
30
0.0
10
17.846851
20
17.005838
30
0.0
10
16.940973
20
16.193361
30
0.0
10
16.398651
20
15.425352
30
0.0
10
16.225371
20
14.746425
30
0.0
10
16.421930
20
14.111654
30
0.0
10
16.989123
20
13.476111
30
0.0
10
17.567047
20
13.155759
30
0.0
10
18.349766
20
13.006536
30
0.0
10
20.471168
20
13.208910
30
0.0
10
23.236490
20
14.058090
30
0.0
10
26.528889
20
15.528933
30
0.0
10
29.256585
20
17.028195
30
0.0
10
31.683844
20
18.652981
30
0.0
10
33.995144
20
20.540012
30
0.0
10
36.374962
20
22.826006
30
0.0
10
38.198963
20
24.662674
30
0.0
10
38.713507
20
25.097732
30
0.0
10
38.997635
20
25.196374
30
0.0
10
39.077265
20
24.947929
30
0.0
10
38.978313
20
24.341722
30
0.0
10
38.348327
20
22.013333
30
0.0
10
37.992912
20
20.585512
30
0.0
10
37.792395
20
19.188325
30
0.0
10
37.694836
20
14.675556
30
0.0
10
37.832068
20
10.148812
30
0.0
10
38.329836
20
6.870113
30
0.0
10
38.946667
20
3.695113
30
0.0
10
38.838407
20
3.394868
30
0.0
10
38.503062
20
3.574520
30
0.0
10
37.087717
20
5.432778
30
0.0
10
37.087717
20
5.432778
30
0.0
  0
ENDSEC
  0
SECTION
  2
OBJECTS
  0
DICTIONARY
  5
C
330
0
100
AcDbDictionary
  3
ACAD_GROUP
350
D
  3
ACAD_MLINESTYLE
350
17
  0
DICTIONARY
  5
D
330
C
100
AcDbDictionary
  0
DICTIONARY
  5
1A
330
C
100
AcDbDictionary
  0
DICTIONARY
  5
17
330
C
100
AcDbDictionary
  3
STANDARD
350
18
  0
DICTIONARY
  5
19
330
C
100
AcDbDictionary
  0
ENDSEC
  0
EOF
