999
Inkscape export via OpenSCAD DXF Export
  0
SECTION
  2
HEADER
  9
$ACADVER
  1
AC1014
  9
$HANDSEED
  5
FFFF
  9
$MEASUREMENT
 70
     1
  0
ENDSEC
  0
SECTION
  2
TABLES
  0
TABLE
  2
VPORT
  5
8
330
0
100
AcDbSymbolTable
 70
     4
  0
VPORT
  5
2E
330
8
100
AcDbSymbolTableRecord
100
AcDbViewportTableRecord
  2
*ACTIVE
 70
     0
 10
0.0
 20
0.0
 11
1.0
 21
1.0
 12
210.0
 22
148.5
 13
0.0
 23
0.0
 14
10.0
 24
10.0
 15
10.0
 25
10.0
 16
0.0
 26
0.0
 36
1.0
 17
0.0
 27
0.0
 37
0.0
 40
341.0
 41
1.24
 42
50.0
 43
0.0
 44
0.0
 50
0.0
 51
0.0
 71
     0
 72
   100
 73
     1
 74
     3
 75
     0
 76
     0
 77
     0
 78
     0
  0
ENDTAB
  0
TABLE
  2
LTYPE
  5
5
330
0
100
AcDbSymbolTable
 70
     1
  0
LTYPE
  5
14
330
5
100
AcDbSymbolTableRecord
100
AcDbLinetypeTableRecord
  2
BYBLOCK
 70
     0
  3

 72
    65
 73
     0
 40
0.0
  0
LTYPE
  5
15
330
5
100
AcDbSymbolTableRecord
100
AcDbLinetypeTableRecord
  2
BYLAYER
 70
     0
  3

 72
    65
 73
     0
 40
0.0
  0
LTYPE
  5
16
330
5
100
AcDbSymbolTableRecord
100
AcDbLinetypeTableRecord
  2
CONTINUOUS
 70
     0
  3
Solid line
 72
    65
 73
     0
 40
0.0
  0
ENDTAB
  0
TABLE
0
TABLE
2
LAYER
5
2
330
0
100
AcDbSymbolTable
70
1
0
LAYER
5
10
330
2
100
AcDbSymbolTableRecord
100
AcDbLayerTableRecord
2
Layer_1
70
0
62
7
6
CONTINUOUS
0
ENDTAB
0
ENDSEC
  0
ENDTAB
  0
TABLE
  2
STYLE
  5
3
330
0
100
AcDbSymbolTable
 70
     1
  0
STYLE
  5
11
330
3
100
AcDbSymbolTableRecord
100
AcDbTextStyleTableRecord
  2
STANDARD
 70
     0
 40
0.0
 41
1.0
 50
0.0
 71
     0
 42
2.5
  3
txt
  4

  0
ENDTAB
  0
TABLE
  2
VIEW
  5
6
330
0
100
AcDbSymbolTable
 70
     0
  0
ENDTAB
  0
TABLE
  2
UCS
  5
7
330
0
100
AcDbSymbolTable
 70
     0
  0
ENDTAB
  0
TABLE
  2
APPID
  5
9
330
0
100
AcDbSymbolTable
 70
     2
  0
APPID
  5
12
330
9
100
AcDbSymbolTableRecord
100
AcDbRegAppTableRecord
  2
ACAD
 70
     0
  0
ENDTAB
  0
TABLE
  2
DIMSTYLE
  5
A
330
0
100
AcDbSymbolTable
 70
     1
  0
DIMSTYLE
105
27
330
A
100
AcDbSymbolTableRecord
100
AcDbDimStyleTableRecord
  2
ISO-25
 70
     0
  3

  4

  5

  6

  7

 40
1.0
 41
2.5
 42
0.625
 43
3.75
 44
1.25
 45
0.0
 46
0.0
 47
0.0
 48
0.0
140
2.5
141
2.5
142
0.0
143
0.03937007874016
144
1.0
145
0.0
146
1.0
147
0.625
 71
     0
 72
     0
 73
     0
 74
     0
 75
     0
 76
     0
 77
     1
 78
     8
170
     0
171
     3
172
     1
173
     0
174
     0
175
     0
176
     0
177
     0
178
     0
270
     2
271
     2
272
     2
273
     2
274
     3
340
11
275
     0
280
     0
281
     0
282
     0
283
     0
284
     8
285
     0
286
     0
287
     3
288
     0
  0
ENDTAB
  0
TABLE
  2
BLOCK_RECORD
  5
1
330
0
100
AcDbSymbolTable
 70
     1
  0
BLOCK_RECORD
  5
1F
330
1
100
AcDbSymbolTableRecord
100
AcDbBlockTableRecord
  2
*MODEL_SPACE
  0
BLOCK_RECORD
  5
1B
330
1
100
AcDbSymbolTableRecord
100
AcDbBlockTableRecord
  2
*PAPER_SPACE
  0
ENDTAB
  0
ENDSEC
  0
SECTION
  2
BLOCKS
  0
BLOCK
  5
20
330
1F
100
AcDbEntity
  8
0
100
AcDbBlockBegin
  2
*MODEL_SPACE
 70
     0
 10
0.0
 20
0.0
 30
0.0
  3
*MODEL_SPACE
  1

  0
ENDBLK
  5
21
330
1F
100
AcDbEntity
  8
0
100
AcDbBlockEnd
  0
BLOCK
  5
1C
330
1B
100
AcDbEntity
 67
     1
  8
0
100
AcDbBlockBegin
  2
*PAPER_SPACE
  1

  0
ENDBLK
  5
1D
330
1B
100
AcDbEntity
 67
     1
  8
0
100
AcDbBlockEnd
  0
ENDSEC
  0
SECTION
  2
ENTITIES
0
DIMENSION
5
83
100
AcDbEntity
62
256
370
-1
6
ByLayer
1
total_width
3
Standard
70
0
71
5
72
1
41
1.0
100
AcDbAlignedDimension
13
3.104444
23
0.000000
33
0.0
14
38.946667
24
0.000000
34
0.0
50
0.000000
100
AcDbRotatedDimension
0
DIMENSION
5
83
100
AcDbEntity
62
256
370
-1
6
ByLayer
1
total_minx
3
Standard
70
0
71
5
72
1
41
1.0
100
AcDbAlignedDimension
13
3.104444
23
0.000000
33
0.0
14
0.000000
24
0.000000
34
0.0
50
0.000000
100
AcDbRotatedDimension
0
DIMENSION
5
83
100
AcDbEntity
62
256
370
-1
6
ByLayer
1
total_maxx
3
Standard
70
0
71
5
72
1
41
1.0
100
AcDbAlignedDimension
13
0.000000
23
0.000000
33
0.0
14
38.946667
24
0.000000
34
0.0
50
0.000000
100
AcDbRotatedDimension
0
DIMENSION
5
83
100
AcDbEntity
62
256
370
-1
6
ByLayer
1
total_height
3
Standard
70
0
71
5
72
1
41
1.0
100
AcDbAlignedDimension
13
0.000000
23
3.107032
33
0.0
14
0.000000
24
39.228889
34
0.0
50
90.000000
100
AcDbRotatedDimension
0
DIMENSION
5
83
100
AcDbEntity
62
256
370
-1
6
ByLayer
1
total_miny
3
Standard
70
0
71
5
72
1
41
1.0
100
AcDbAlignedDimension
13
3.107032
23
0.000000
33
0.0
14
0.000000
24
0.000000
34
0.0
50
0.000000
100
AcDbRotatedDimension
0
DIMENSION
5
83
100
AcDbEntity
62
256
370
-1
6
ByLayer
1
total_maxy
3
Standard
70
0
71
5
72
1
41
1.0
100
AcDbAlignedDimension
13
0.000000
23
0.000000
33
0.0
14
39.228889
24
0.000000
34
0.0
50
0.000000
100
AcDbRotatedDimension
0
DIMENSION
8
Layer_1
5
83
100
AcDbEntity
62
256
370
-1
6
ByLayer
1
Layer_1_width
3
Standard
70
0
71
5
72
1
41
1.0
100
AcDbAlignedDimension
13
3.104444
23
0.000000
33
0.0
14
38.946667
24
0.000000
34
0.0
50
0.000000
100
AcDbRotatedDimension
0
DIMENSION
8
Layer_1
5
83
100
AcDbEntity
62
256
370
-1
6
ByLayer
1
Layer_1_minx
3
Standard
70
0
71
5
72
1
41
1.0
100
AcDbAlignedDimension
13
3.104444
23
0.000000
33
0.0
14
0.000000
24
0.000000
34
0.0
50
0.000000
100
AcDbRotatedDimension
0
DIMENSION
8
Layer_1
5
83
100
AcDbEntity
62
256
370
-1
6
ByLayer
1
Layer_1_maxx
3
Standard
70
0
71
5
72
1
41
1.0
100
AcDbAlignedDimension
13
0.000000
23
0.000000
33
0.0
14
38.946667
24
0.000000
34
0.0
50
0.000000
100
AcDbRotatedDimension
0
DIMENSION
8
Layer_1
5
83
100
AcDbEntity
62
256
370
-1
6
ByLayer
1
Layer_1_height
3
Standard
70
0
71
5
72
1
41
1.0
100
AcDbAlignedDimension
13
0.000000
23
3.107032
33
0.0
14
0.000000
24
39.228889
34
0.0
50
90.000000
100
AcDbRotatedDimension
0
DIMENSION
8
Layer_1
5
83
100
AcDbEntity
62
256
370
-1
6
ByLayer
1
Layer_1_miny
3
Standard
70
0
71
5
72
1
41
1.0
100
AcDbAlignedDimension
13
3.107032
23
0.000000
33
0.0
14
0.000000
24
0.000000
34
0.0
50
0.000000
100
AcDbRotatedDimension
0
DIMENSION
8
Layer_1
5
83
100
AcDbEntity
62
256
370
-1
6
ByLayer
1
Layer_1_maxy
3
Standard
70
0
71
5
72
1
41
1.0
100
AcDbAlignedDimension
13
0.000000
23
0.000000
33
0.0
14
39.228889
24
0.000000
34
0.0
50
0.000000
100
AcDbRotatedDimension
62
0
0
LWPOLYLINE
100
AcDbPolyline
8
Layer_1
90
65
70
0
10
18.865845
20
3.985074
30
0.0
10
16.988357
20
4.860536
30
0.0
10
17.384179
20
5.807871
30
0.0
10
17.677096
20
7.067648
30
0.0
10
17.763886
20
8.746403
30
0.0
10
17.647146
20
10.542646
30
0.0
10
17.329475
20
12.154888
30
0.0
10
16.568155
20
14.229915
30
0.0
10
15.529589
20
16.200572
30
0.0
10
14.199361
20
18.090353
30
0.0
10
12.563053
20
19.922752
30
0.0
10
10.581603
20
21.733520
30
0.0
10
8.776566
20
22.948800
30
0.0
10
7.029288
20
23.632007
30
0.0
10
5.221111
20
23.846555
30
0.0
10
3.800066
20
23.949354
30
0.0
10
3.500525
20
24.121004
30
0.0
10
3.344243
20
24.412222
30
0.0
10
3.132576
20
30.691667
30
0.0
10
3.104444
20
36.406667
30
0.0
10
6.026664
20
36.406667
30
0.0
10
8.948884
20
36.406667
30
0.0
10
9.246113
20
33.467828
30
0.0
10
9.508096
20
31.647741
30
0.0
10
9.919013
20
30.004943
30
0.0
10
10.498496
20
28.509369
30
0.0
10
11.266175
20
27.130954
30
0.0
10
12.241682
20
25.839630
30
0.0
10
13.444648
20
24.605333
30
0.0
10
14.894705
20
23.397997
30
0.0
10
16.611483
20
22.187555
30
0.0
10
20.220157
20
19.891539
30
0.0
10
21.108091
20
19.386236
30
0.0
10
24.009343
20
21.179308
30
0.0
10
26.241794
20
22.662807
30
0.0
10
28.128682
20
24.148537
30
0.0
10
29.684771
20
25.658024
30
0.0
10
30.924826
20
27.212791
30
0.0
10
31.863612
20
28.834362
30
0.0
10
32.515893
20
30.544262
30
0.0
10
32.896434
20
32.364015
30
0.0
10
33.020000
20
34.315144
30
0.0
10
33.020000
20
36.406667
30
0.0
10
35.983333
20
36.406667
30
0.0
10
38.946667
20
36.406667
30
0.0
10
38.945256
20
30.127222
30
0.0
10
38.943844
20
23.847778
30
0.0
10
37.040304
20
23.830636
30
0.0
10
35.238907
20
23.663601
30
0.0
10
33.719674
20
23.082493
30
0.0
10
31.641996
20
21.756507
30
0.0
10
29.714872
20
20.045290
30
0.0
10
27.994842
20
18.046347
30
0.0
10
26.538446
20
15.857182
30
0.0
10
25.402225
20
13.575303
30
0.0
10
24.642718
20
11.298213
30
0.0
10
24.316466
20
9.123418
30
0.0
10
24.480010
20
7.148424
30
0.0
10
24.988469
20
5.288255
30
0.0
10
25.006482
20
5.004655
30
0.0
10
24.780269
20
4.723416
30
0.0
10
23.321134
20
3.947699
30
0.0
10
21.102407
20
3.107032
30
0.0
10
18.865944
20
3.985077
30
0.0
10
18.865845
20
3.985074
30
0.0
62
0
0
LWPOLYLINE
100
AcDbPolyline
8
Layer_1
90
22
70
0
10
11.841485
20
8.399055
30
0.0
10
9.865184
20
10.203515
30
0.0
10
8.096372
20
12.142422
30
0.0
10
6.871495
20
13.892048
30
0.0
10
5.663895
20
15.962091
30
0.0
10
4.677794
20
17.972667
30
0.0
10
4.117414
20
19.543889
30
0.0
10
4.041818
20
19.977711
30
0.0
10
4.116498
20
20.209447
30
0.0
10
5.004068
20
20.317352
30
0.0
10
5.808300
20
20.218142
30
0.0
10
6.646934
20
19.937144
30
0.0
10
8.371909
20
18.906202
30
0.0
10
10.068000
20
17.377355
30
0.0
10
11.624209
20
15.503433
30
0.0
10
12.929543
20
13.437268
30
0.0
10
13.873005
20
11.331689
30
0.0
10
14.343600
20
9.339527
30
0.0
10
14.366887
20
8.433737
30
0.0
10
14.230334
20
7.613613
30
0.0
10
13.965542
20
6.690340
30
0.0
10
11.841485
20
8.399055
30
0.0
62
0
0
LWPOLYLINE
100
AcDbPolyline
8
Layer_1
90
22
70
0
10
28.056131
20
7.477938
30
0.0
10
27.932898
20
8.338988
30
0.0
10
27.963813
20
9.278619
30
0.0
10
28.435364
20
11.319589
30
0.0
10
29.365345
20
13.452788
30
0.0
10
30.648318
20
15.530151
30
0.0
10
32.178842
20
17.403616
30
0.0
10
33.851477
20
18.925121
30
0.0
10
35.560785
20
19.946603
30
0.0
10
36.396241
20
20.223566
30
0.0
10
37.201325
20
20.320000
30
0.0
10
37.869273
20
20.190045
30
0.0
10
38.032289
20
19.999235
30
0.0
10
38.080701
20
19.699325
30
0.0
10
37.831813
20
18.696560
30
0.0
10
37.118815
20
17.030470
30
0.0
10
35.749704
20
14.475754
30
0.0
10
34.084246
20
12.142088
30
0.0
10
32.049947
20
9.940607
30
0.0
10
29.574315
20
7.782450
30
0.0
10
28.245297
20
6.724246
30
0.0
10
28.056131
20
7.477938
30
0.0
62
0
0
LWPOLYLINE
100
AcDbPolyline
8
Layer_1
90
22
70
0
10
18.767778
20
25.017215
30
0.0
10
16.926281
20
26.323913
30
0.0
10
15.511067
20
27.588233
30
0.0
10
14.445745
20
28.889178
30
0.0
10
13.653923
20
30.305748
30
0.0
10
13.235565
20
31.334478
30
0.0
10
12.982699
20
32.347063
30
0.0
10
12.752134
20
35.630556
30
0.0
10
12.633258
20
39.228889
30
0.0
10
21.176187
20
39.228889
30
0.0
10
29.719115
20
39.228889
30
0.0
10
29.549262
20
35.771667
30
0.0
10
29.327209
20
33.046718
30
0.0
10
28.904860
20
31.073004
30
0.0
10
28.174799
20
29.521983
30
0.0
10
27.029610
20
28.065116
30
0.0
10
25.620606
20
26.766079
30
0.0
10
23.774224
20
25.334308
30
0.0
10
22.057787
20
24.181378
30
0.0
10
21.038622
20
23.718863
30
0.0
10
18.767778
20
25.017215
30
0.0
10
18.767778
20
25.017215
30
0.0
  0
ENDSEC
  0
SECTION
  2
OBJECTS
  0
DICTIONARY
  5
C
330
0
100
AcDbDictionary
  3
ACAD_GROUP
350
D
  3
ACAD_MLINESTYLE
350
17
  0
DICTIONARY
  5
D
330
C
100
AcDbDictionary
  0
DICTIONARY
  5
1A
330
C
100
AcDbDictionary
  0
DICTIONARY
  5
17
330
C
100
AcDbDictionary
  3
STANDARD
350
18
  0
DICTIONARY
  5
19
330
C
100
AcDbDictionary
  0
ENDSEC
  0
EOF
