999
Inkscape export via OpenSCAD DXF Export
  0
SECTION
  2
HEADER
  9
$ACADVER
  1
AC1014
  9
$HANDSEED
  5
FFFF
  9
$MEASUREMENT
 70
     1
  0
ENDSEC
  0
SECTION
  2
TABLES
  0
TABLE
  2
VPORT
  5
8
330
0
100
AcDbSymbolTable
 70
     4
  0
VPORT
  5
2E
330
8
100
AcDbSymbolTableRecord
100
AcDbViewportTableRecord
  2
*ACTIVE
 70
     0
 10
0.0
 20
0.0
 11
1.0
 21
1.0
 12
210.0
 22
148.5
 13
0.0
 23
0.0
 14
10.0
 24
10.0
 15
10.0
 25
10.0
 16
0.0
 26
0.0
 36
1.0
 17
0.0
 27
0.0
 37
0.0
 40
341.0
 41
1.24
 42
50.0
 43
0.0
 44
0.0
 50
0.0
 51
0.0
 71
     0
 72
   100
 73
     1
 74
     3
 75
     0
 76
     0
 77
     0
 78
     0
  0
ENDTAB
  0
TABLE
  2
LTYPE
  5
5
330
0
100
AcDbSymbolTable
 70
     1
  0
LTYPE
  5
14
330
5
100
AcDbSymbolTableRecord
100
AcDbLinetypeTableRecord
  2
BYBLOCK
 70
     0
  3

 72
    65
 73
     0
 40
0.0
  0
LTYPE
  5
15
330
5
100
AcDbSymbolTableRecord
100
AcDbLinetypeTableRecord
  2
BYLAYER
 70
     0
  3

 72
    65
 73
     0
 40
0.0
  0
LTYPE
  5
16
330
5
100
AcDbSymbolTableRecord
100
AcDbLinetypeTableRecord
  2
CONTINUOUS
 70
     0
  3
Solid line
 72
    65
 73
     0
 40
0.0
  0
ENDTAB
  0
TABLE
0
TABLE
2
LAYER
5
2
330
0
100
AcDbSymbolTable
70
1
0
LAYER
5
10
330
2
100
AcDbSymbolTableRecord
100
AcDbLayerTableRecord
2
Layer_1
70
0
62
7
6
CONTINUOUS
0
ENDTAB
0
ENDSEC
  0
ENDTAB
  0
TABLE
  2
STYLE
  5
3
330
0
100
AcDbSymbolTable
 70
     1
  0
STYLE
  5
11
330
3
100
AcDbSymbolTableRecord
100
AcDbTextStyleTableRecord
  2
STANDARD
 70
     0
 40
0.0
 41
1.0
 50
0.0
 71
     0
 42
2.5
  3
txt
  4

  0
ENDTAB
  0
TABLE
  2
VIEW
  5
6
330
0
100
AcDbSymbolTable
 70
     0
  0
ENDTAB
  0
TABLE
  2
UCS
  5
7
330
0
100
AcDbSymbolTable
 70
     0
  0
ENDTAB
  0
TABLE
  2
APPID
  5
9
330
0
100
AcDbSymbolTable
 70
     2
  0
APPID
  5
12
330
9
100
AcDbSymbolTableRecord
100
AcDbRegAppTableRecord
  2
ACAD
 70
     0
  0
ENDTAB
  0
TABLE
  2
DIMSTYLE
  5
A
330
0
100
AcDbSymbolTable
 70
     1
  0
DIMSTYLE
105
27
330
A
100
AcDbSymbolTableRecord
100
AcDbDimStyleTableRecord
  2
ISO-25
 70
     0
  3

  4

  5

  6

  7

 40
1.0
 41
2.5
 42
0.625
 43
3.75
 44
1.25
 45
0.0
 46
0.0
 47
0.0
 48
0.0
140
2.5
141
2.5
142
0.0
143
0.03937007874016
144
1.0
145
0.0
146
1.0
147
0.625
 71
     0
 72
     0
 73
     0
 74
     0
 75
     0
 76
     0
 77
     1
 78
     8
170
     0
171
     3
172
     1
173
     0
174
     0
175
     0
176
     0
177
     0
178
     0
270
     2
271
     2
272
     2
273
     2
274
     3
340
11
275
     0
280
     0
281
     0
282
     0
283
     0
284
     8
285
     0
286
     0
287
     3
288
     0
  0
ENDTAB
  0
TABLE
  2
BLOCK_RECORD
  5
1
330
0
100
AcDbSymbolTable
 70
     1
  0
BLOCK_RECORD
  5
1F
330
1
100
AcDbSymbolTableRecord
100
AcDbBlockTableRecord
  2
*MODEL_SPACE
  0
BLOCK_RECORD
  5
1B
330
1
100
AcDbSymbolTableRecord
100
AcDbBlockTableRecord
  2
*PAPER_SPACE
  0
ENDTAB
  0
ENDSEC
  0
SECTION
  2
BLOCKS
  0
BLOCK
  5
20
330
1F
100
AcDbEntity
  8
0
100
AcDbBlockBegin
  2
*MODEL_SPACE
 70
     0
 10
0.0
 20
0.0
 30
0.0
  3
*MODEL_SPACE
  1

  0
ENDBLK
  5
21
330
1F
100
AcDbEntity
  8
0
100
AcDbBlockEnd
  0
BLOCK
  5
1C
330
1B
100
AcDbEntity
 67
     1
  8
0
100
AcDbBlockBegin
  2
*PAPER_SPACE
  1

  0
ENDBLK
  5
1D
330
1B
100
AcDbEntity
 67
     1
  8
0
100
AcDbBlockEnd
  0
ENDSEC
  0
SECTION
  2
ENTITIES
0
DIMENSION
5
83
100
AcDbEntity
62
256
370
-1
6
ByLayer
1
total_width
3
Standard
70
0
71
5
72
1
41
1.0
100
AcDbAlignedDimension
13
12.253171
23
0.000000
33
0.0
14
30.104731
24
0.000000
34
0.0
50
0.000000
100
AcDbRotatedDimension
0
DIMENSION
5
83
100
AcDbEntity
62
256
370
-1
6
ByLayer
1
total_minx
3
Standard
70
0
71
5
72
1
41
1.0
100
AcDbAlignedDimension
13
12.253171
23
0.000000
33
0.0
14
0.000000
24
0.000000
34
0.0
50
0.000000
100
AcDbRotatedDimension
0
DIMENSION
5
83
100
AcDbEntity
62
256
370
-1
6
ByLayer
1
total_maxx
3
Standard
70
0
71
5
72
1
41
1.0
100
AcDbAlignedDimension
13
0.000000
23
0.000000
33
0.0
14
30.104731
24
0.000000
34
0.0
50
0.000000
100
AcDbRotatedDimension
0
DIMENSION
5
83
100
AcDbEntity
62
256
370
-1
6
ByLayer
1
total_height
3
Standard
70
0
71
5
72
1
41
1.0
100
AcDbAlignedDimension
13
0.000000
23
2.604443
33
0.0
14
0.000000
24
39.971655
34
0.0
50
90.000000
100
AcDbRotatedDimension
0
DIMENSION
5
83
100
AcDbEntity
62
256
370
-1
6
ByLayer
1
total_miny
3
Standard
70
0
71
5
72
1
41
1.0
100
AcDbAlignedDimension
13
2.604443
23
0.000000
33
0.0
14
0.000000
24
0.000000
34
0.0
50
0.000000
100
AcDbRotatedDimension
0
DIMENSION
5
83
100
AcDbEntity
62
256
370
-1
6
ByLayer
1
total_maxy
3
Standard
70
0
71
5
72
1
41
1.0
100
AcDbAlignedDimension
13
0.000000
23
0.000000
33
0.0
14
39.971655
24
0.000000
34
0.0
50
0.000000
100
AcDbRotatedDimension
0
DIMENSION
8
Layer_1
5
83
100
AcDbEntity
62
256
370
-1
6
ByLayer
1
Layer_1_width
3
Standard
70
0
71
5
72
1
41
1.0
100
AcDbAlignedDimension
13
12.253171
23
0.000000
33
0.0
14
30.104731
24
0.000000
34
0.0
50
0.000000
100
AcDbRotatedDimension
0
DIMENSION
8
Layer_1
5
83
100
AcDbEntity
62
256
370
-1
6
ByLayer
1
Layer_1_minx
3
Standard
70
0
71
5
72
1
41
1.0
100
AcDbAlignedDimension
13
12.253171
23
0.000000
33
0.0
14
0.000000
24
0.000000
34
0.0
50
0.000000
100
AcDbRotatedDimension
0
DIMENSION
8
Layer_1
5
83
100
AcDbEntity
62
256
370
-1
6
ByLayer
1
Layer_1_maxx
3
Standard
70
0
71
5
72
1
41
1.0
100
AcDbAlignedDimension
13
0.000000
23
0.000000
33
0.0
14
30.104731
24
0.000000
34
0.0
50
0.000000
100
AcDbRotatedDimension
0
DIMENSION
8
Layer_1
5
83
100
AcDbEntity
62
256
370
-1
6
ByLayer
1
Layer_1_height
3
Standard
70
0
71
5
72
1
41
1.0
100
AcDbAlignedDimension
13
0.000000
23
2.604443
33
0.0
14
0.000000
24
39.971655
34
0.0
50
90.000000
100
AcDbRotatedDimension
0
DIMENSION
8
Layer_1
5
83
100
AcDbEntity
62
256
370
-1
6
ByLayer
1
Layer_1_miny
3
Standard
70
0
71
5
72
1
41
1.0
100
AcDbAlignedDimension
13
2.604443
23
0.000000
33
0.0
14
0.000000
24
0.000000
34
0.0
50
0.000000
100
AcDbRotatedDimension
0
DIMENSION
8
Layer_1
5
83
100
AcDbEntity
62
256
370
-1
6
ByLayer
1
Layer_1_maxy
3
Standard
70
0
71
5
72
1
41
1.0
100
AcDbAlignedDimension
13
0.000000
23
0.000000
33
0.0
14
39.971655
24
0.000000
34
0.0
50
0.000000
100
AcDbRotatedDimension
62
0
0
LWPOLYLINE
100
AcDbPolyline
8
Layer_1
90
90
70
0
10
15.459481
20
3.166192
30
0.0
10
14.561358
20
4.704539
30
0.0
10
13.803573
20
6.352809
30
0.0
10
13.189993
20
8.092722
30
0.0
10
12.724488
20
9.905999
30
0.0
10
12.410924
20
11.774362
30
0.0
10
12.253171
20
13.679531
30
0.0
10
12.255095
20
15.603228
30
0.0
10
12.420565
20
17.527173
30
0.0
10
12.928220
20
20.364613
30
0.0
10
13.668067
20
22.928817
30
0.0
10
14.617372
20
25.187396
30
0.0
10
15.753400
20
27.107958
30
0.0
10
17.053416
20
28.658112
30
0.0
10
18.494686
20
29.805468
30
0.0
10
20.054474
20
30.517635
30
0.0
10
21.710048
20
30.762222
30
0.0
10
23.036804
20
30.601429
30
0.0
10
24.084542
20
29.917610
30
0.0
10
24.827407
20
29.075517
30
0.0
10
25.496221
20
27.954504
30
0.0
10
26.042969
20
26.650363
30
0.0
10
26.419637
20
25.258889
30
0.0
10
26.641376
20
24.130000
30
0.0
10
26.833964
20
24.976667
30
0.0
10
27.059942
20
28.523776
30
0.0
10
26.977794
20
30.852205
30
0.0
10
26.647111
20
32.694889
30
0.0
10
26.038209
20
34.156211
30
0.0
10
25.121403
20
35.340557
30
0.0
10
24.000046
20
36.228383
30
0.0
10
23.433351
20
36.373126
30
0.0
10
22.658811
20
36.406667
30
0.0
10
21.286306
20
36.236929
30
0.0
10
19.959055
20
35.746866
30
0.0
10
18.892975
20
35.267211
30
0.0
10
18.820764
20
35.352174
30
0.0
10
18.953360
20
35.643096
30
0.0
10
19.683240
20
36.620859
30
0.0
10
20.804017
20
37.705551
30
0.0
10
22.093649
20
38.705168
30
0.0
10
23.330097
20
39.427712
30
0.0
10
24.817251
20
39.971655
30
0.0
10
25.356798
20
39.971341
30
0.0
10
25.979574
20
39.822144
30
0.0
10
27.047742
20
39.299476
30
0.0
10
27.976221
20
38.434672
30
0.0
10
28.753051
20
37.263241
30
0.0
10
29.366275
20
35.820696
30
0.0
10
29.803935
20
34.142545
30
0.0
10
30.054073
20
32.264299
30
0.0
10
30.104731
20
30.221469
30
0.0
10
29.943950
20
28.049564
30
0.0
10
29.432098
20
24.921636
30
0.0
10
28.704567
20
22.076749
30
0.0
10
27.785838
20
19.556210
30
0.0
10
26.700393
20
17.401324
30
0.0
10
25.472712
20
15.653399
30
0.0
10
24.127279
20
14.353739
30
0.0
10
22.688573
20
13.543653
30
0.0
10
21.181077
20
13.264444
30
0.0
10
20.122616
20
13.368948
30
0.0
10
19.321274
20
13.700438
30
0.0
10
18.736270
20
14.285889
30
0.0
10
18.326827
20
15.152271
30
0.0
10
18.068515
20
16.221457
30
0.0
10
17.974919
20
17.333062
30
0.0
10
18.039153
20
18.460737
30
0.0
10
18.254331
20
19.578134
30
0.0
10
18.613568
20
20.658904
30
0.0
10
19.109978
20
21.676699
30
0.0
10
19.736675
20
22.605169
30
0.0
10
20.486773
20
23.417967
30
0.0
10
21.718500
20
24.553333
30
0.0
10
20.840895
20
24.553333
30
0.0
10
19.883560
20
24.402006
30
0.0
10
18.980077
20
23.957747
30
0.0
10
18.139975
20
23.235135
30
0.0
10
17.372781
20
22.248754
30
0.0
10
16.688025
20
21.013183
30
0.0
10
16.095234
20
19.543005
30
0.0
10
15.603937
20
17.852801
30
0.0
10
15.223662
20
15.957152
30
0.0
10
15.027707
20
13.469331
30
0.0
10
15.047286
20
10.301134
30
0.0
10
15.258853
20
7.101220
30
0.0
10
15.638864
20
4.518251
30
0.0
10
15.962962
20
2.604443
30
0.0
10
15.459481
20
3.166192
30
0.0
10
15.459481
20
3.166192
30
0.0
62
0
0
LWPOLYLINE
100
AcDbPolyline
8
Layer_1
90
18
70
0
10
22.580871
20
18.697222
30
0.0
10
22.956406
20
19.696144
30
0.0
10
23.135210
20
20.966568
30
0.0
10
23.101011
20
22.224062
30
0.0
10
22.837539
20
23.184190
30
0.0
10
22.496609
20
23.606164
30
0.0
10
21.960841
20
23.236192
30
0.0
10
21.315264
20
22.470066
30
0.0
10
20.794469
20
21.498440
30
0.0
10
20.446650
20
20.434268
30
0.0
10
20.320000
20
19.390503
30
0.0
10
20.353806
20
18.541145
30
0.0
10
20.496729
20
18.053948
30
0.0
10
20.811028
20
17.832402
30
0.0
10
21.358963
20
17.780000
30
0.0
10
21.995948
20
18.007758
30
0.0
10
22.580871
20
18.697222
30
0.0
10
22.580871
20
18.697222
30
0.0
  0
ENDSEC
  0
SECTION
  2
OBJECTS
  0
DICTIONARY
  5
C
330
0
100
AcDbDictionary
  3
ACAD_GROUP
350
D
  3
ACAD_MLINESTYLE
350
17
  0
DICTIONARY
  5
D
330
C
100
AcDbDictionary
  0
DICTIONARY
  5
1A
330
C
100
AcDbDictionary
  0
DICTIONARY
  5
17
330
C
100
AcDbDictionary
  3
STANDARD
350
18
  0
DICTIONARY
  5
19
330
C
100
AcDbDictionary
  0
ENDSEC
  0
EOF
