999
Inkscape export via OpenSCAD DXF Export
  0
SECTION
  2
HEADER
  9
$ACADVER
  1
AC1014
  9
$HANDSEED
  5
FFFF
  9
$MEASUREMENT
 70
     1
  0
ENDSEC
  0
SECTION
  2
TABLES
  0
TABLE
  2
VPORT
  5
8
330
0
100
AcDbSymbolTable
 70
     4
  0
VPORT
  5
2E
330
8
100
AcDbSymbolTableRecord
100
AcDbViewportTableRecord
  2
*ACTIVE
 70
     0
 10
0.0
 20
0.0
 11
1.0
 21
1.0
 12
210.0
 22
148.5
 13
0.0
 23
0.0
 14
10.0
 24
10.0
 15
10.0
 25
10.0
 16
0.0
 26
0.0
 36
1.0
 17
0.0
 27
0.0
 37
0.0
 40
341.0
 41
1.24
 42
50.0
 43
0.0
 44
0.0
 50
0.0
 51
0.0
 71
     0
 72
   100
 73
     1
 74
     3
 75
     0
 76
     0
 77
     0
 78
     0
  0
ENDTAB
  0
TABLE
  2
LTYPE
  5
5
330
0
100
AcDbSymbolTable
 70
     1
  0
LTYPE
  5
14
330
5
100
AcDbSymbolTableRecord
100
AcDbLinetypeTableRecord
  2
BYBLOCK
 70
     0
  3

 72
    65
 73
     0
 40
0.0
  0
LTYPE
  5
15
330
5
100
AcDbSymbolTableRecord
100
AcDbLinetypeTableRecord
  2
BYLAYER
 70
     0
  3

 72
    65
 73
     0
 40
0.0
  0
LTYPE
  5
16
330
5
100
AcDbSymbolTableRecord
100
AcDbLinetypeTableRecord
  2
CONTINUOUS
 70
     0
  3
Solid line
 72
    65
 73
     0
 40
0.0
  0
ENDTAB
  0
TABLE
0
TABLE
2
LAYER
5
2
330
0
100
AcDbSymbolTable
70
1
0
LAYER
5
10
330
2
100
AcDbSymbolTableRecord
100
AcDbLayerTableRecord
2
Layer_1
70
0
62
7
6
CONTINUOUS
0
ENDTAB
0
ENDSEC
  0
ENDTAB
  0
TABLE
  2
STYLE
  5
3
330
0
100
AcDbSymbolTable
 70
     1
  0
STYLE
  5
11
330
3
100
AcDbSymbolTableRecord
100
AcDbTextStyleTableRecord
  2
STANDARD
 70
     0
 40
0.0
 41
1.0
 50
0.0
 71
     0
 42
2.5
  3
txt
  4

  0
ENDTAB
  0
TABLE
  2
VIEW
  5
6
330
0
100
AcDbSymbolTable
 70
     0
  0
ENDTAB
  0
TABLE
  2
UCS
  5
7
330
0
100
AcDbSymbolTable
 70
     0
  0
ENDTAB
  0
TABLE
  2
APPID
  5
9
330
0
100
AcDbSymbolTable
 70
     2
  0
APPID
  5
12
330
9
100
AcDbSymbolTableRecord
100
AcDbRegAppTableRecord
  2
ACAD
 70
     0
  0
ENDTAB
  0
TABLE
  2
DIMSTYLE
  5
A
330
0
100
AcDbSymbolTable
 70
     1
  0
DIMSTYLE
105
27
330
A
100
AcDbSymbolTableRecord
100
AcDbDimStyleTableRecord
  2
ISO-25
 70
     0
  3

  4

  5

  6

  7

 40
1.0
 41
2.5
 42
0.625
 43
3.75
 44
1.25
 45
0.0
 46
0.0
 47
0.0
 48
0.0
140
2.5
141
2.5
142
0.0
143
0.03937007874016
144
1.0
145
0.0
146
1.0
147
0.625
 71
     0
 72
     0
 73
     0
 74
     0
 75
     0
 76
     0
 77
     1
 78
     8
170
     0
171
     3
172
     1
173
     0
174
     0
175
     0
176
     0
177
     0
178
     0
270
     2
271
     2
272
     2
273
     2
274
     3
340
11
275
     0
280
     0
281
     0
282
     0
283
     0
284
     8
285
     0
286
     0
287
     3
288
     0
  0
ENDTAB
  0
TABLE
  2
BLOCK_RECORD
  5
1
330
0
100
AcDbSymbolTable
 70
     1
  0
BLOCK_RECORD
  5
1F
330
1
100
AcDbSymbolTableRecord
100
AcDbBlockTableRecord
  2
*MODEL_SPACE
  0
BLOCK_RECORD
  5
1B
330
1
100
AcDbSymbolTableRecord
100
AcDbBlockTableRecord
  2
*PAPER_SPACE
  0
ENDTAB
  0
ENDSEC
  0
SECTION
  2
BLOCKS
  0
BLOCK
  5
20
330
1F
100
AcDbEntity
  8
0
100
AcDbBlockBegin
  2
*MODEL_SPACE
 70
     0
 10
0.0
 20
0.0
 30
0.0
  3
*MODEL_SPACE
  1

  0
ENDBLK
  5
21
330
1F
100
AcDbEntity
  8
0
100
AcDbBlockEnd
  0
BLOCK
  5
1C
330
1B
100
AcDbEntity
 67
     1
  8
0
100
AcDbBlockBegin
  2
*PAPER_SPACE
  1

  0
ENDBLK
  5
1D
330
1B
100
AcDbEntity
 67
     1
  8
0
100
AcDbBlockEnd
  0
ENDSEC
  0
SECTION
  2
ENTITIES
0
DIMENSION
5
83
100
AcDbEntity
62
256
370
-1
6
ByLayer
1
total_width
3
Standard
70
0
71
5
72
1
41
1.0
100
AcDbAlignedDimension
13
5.290518
23
0.000000
33
0.0
14
37.190285
24
0.000000
34
0.0
50
0.000000
100
AcDbRotatedDimension
0
DIMENSION
5
83
100
AcDbEntity
62
256
370
-1
6
ByLayer
1
total_minx
3
Standard
70
0
71
5
72
1
41
1.0
100
AcDbAlignedDimension
13
5.290518
23
0.000000
33
0.0
14
0.000000
24
0.000000
34
0.0
50
0.000000
100
AcDbRotatedDimension
0
DIMENSION
5
83
100
AcDbEntity
62
256
370
-1
6
ByLayer
1
total_maxx
3
Standard
70
0
71
5
72
1
41
1.0
100
AcDbAlignedDimension
13
0.000000
23
0.000000
33
0.0
14
37.190285
24
0.000000
34
0.0
50
0.000000
100
AcDbRotatedDimension
0
DIMENSION
5
83
100
AcDbEntity
62
256
370
-1
6
ByLayer
1
total_height
3
Standard
70
0
71
5
72
1
41
1.0
100
AcDbAlignedDimension
13
0.000000
23
6.611434
33
0.0
14
0.000000
24
36.830000
34
0.0
50
90.000000
100
AcDbRotatedDimension
0
DIMENSION
5
83
100
AcDbEntity
62
256
370
-1
6
ByLayer
1
total_miny
3
Standard
70
0
71
5
72
1
41
1.0
100
AcDbAlignedDimension
13
6.611434
23
0.000000
33
0.0
14
0.000000
24
0.000000
34
0.0
50
0.000000
100
AcDbRotatedDimension
0
DIMENSION
5
83
100
AcDbEntity
62
256
370
-1
6
ByLayer
1
total_maxy
3
Standard
70
0
71
5
72
1
41
1.0
100
AcDbAlignedDimension
13
0.000000
23
0.000000
33
0.0
14
36.830000
24
0.000000
34
0.0
50
0.000000
100
AcDbRotatedDimension
0
DIMENSION
8
Layer_1
5
83
100
AcDbEntity
62
256
370
-1
6
ByLayer
1
Layer_1_width
3
Standard
70
0
71
5
72
1
41
1.0
100
AcDbAlignedDimension
13
5.290518
23
0.000000
33
0.0
14
37.190285
24
0.000000
34
0.0
50
0.000000
100
AcDbRotatedDimension
0
DIMENSION
8
Layer_1
5
83
100
AcDbEntity
62
256
370
-1
6
ByLayer
1
Layer_1_minx
3
Standard
70
0
71
5
72
1
41
1.0
100
AcDbAlignedDimension
13
5.290518
23
0.000000
33
0.0
14
0.000000
24
0.000000
34
0.0
50
0.000000
100
AcDbRotatedDimension
0
DIMENSION
8
Layer_1
5
83
100
AcDbEntity
62
256
370
-1
6
ByLayer
1
Layer_1_maxx
3
Standard
70
0
71
5
72
1
41
1.0
100
AcDbAlignedDimension
13
0.000000
23
0.000000
33
0.0
14
37.190285
24
0.000000
34
0.0
50
0.000000
100
AcDbRotatedDimension
0
DIMENSION
8
Layer_1
5
83
100
AcDbEntity
62
256
370
-1
6
ByLayer
1
Layer_1_height
3
Standard
70
0
71
5
72
1
41
1.0
100
AcDbAlignedDimension
13
0.000000
23
6.611434
33
0.0
14
0.000000
24
36.830000
34
0.0
50
90.000000
100
AcDbRotatedDimension
0
DIMENSION
8
Layer_1
5
83
100
AcDbEntity
62
256
370
-1
6
ByLayer
1
Layer_1_miny
3
Standard
70
0
71
5
72
1
41
1.0
100
AcDbAlignedDimension
13
6.611434
23
0.000000
33
0.0
14
0.000000
24
0.000000
34
0.0
50
0.000000
100
AcDbRotatedDimension
0
DIMENSION
8
Layer_1
5
83
100
AcDbEntity
62
256
370
-1
6
ByLayer
1
Layer_1_maxy
3
Standard
70
0
71
5
72
1
41
1.0
100
AcDbAlignedDimension
13
0.000000
23
0.000000
33
0.0
14
36.830000
24
0.000000
34
0.0
50
0.000000
100
AcDbRotatedDimension
62
0
0
LWPOLYLINE
100
AcDbPolyline
8
Layer_1
90
15
70
0
10
13.123333
20
12.260408
30
0.0
10
7.562777
20
16.438432
30
0.0
10
5.290518
20
18.394320
30
0.0
10
8.294152
20
27.798889
30
0.0
10
11.228380
20
36.830000
30
0.0
10
21.174905
20
36.830000
30
0.0
10
31.121429
20
36.830000
30
0.0
10
32.025423
20
34.007778
30
0.0
10
35.059849
20
24.625513
30
0.0
10
37.190285
20
18.065471
30
0.0
10
29.418091
20
12.394195
30
0.0
10
21.335725
20
6.611434
30
0.0
10
18.795390
20
8.224833
30
0.0
10
13.123333
20
12.260408
30
0.0
10
13.123333
20
12.260408
30
0.0
62
0
0
LWPOLYLINE
100
AcDbPolyline
8
Layer_1
90
42
70
0
10
26.018691
20
12.516606
30
0.0
10
27.750435
20
13.525035
30
0.0
10
29.241696
20
14.769788
30
0.0
10
30.500246
20
16.258586
30
0.0
10
31.533852
20
17.999153
30
0.0
10
32.132728
20
19.271965
30
0.0
10
32.449980
20
20.263825
30
0.0
10
32.574872
20
21.405457
30
0.0
10
32.596667
20
23.127585
30
0.0
10
32.459688
20
25.942067
30
0.0
10
32.189111
20
26.889229
30
0.0
10
31.695494
20
28.007946
30
0.0
10
30.664822
20
29.767536
30
0.0
10
29.349888
20
31.325443
30
0.0
10
27.791981
20
32.640377
30
0.0
10
26.032390
20
33.671049
30
0.0
10
24.914425
20
34.164297
30
0.0
10
23.968350
20
34.434915
30
0.0
10
21.166667
20
34.572222
30
0.0
10
18.364984
20
34.434915
30
0.0
10
17.418908
20
34.164297
30
0.0
10
16.300943
20
33.671049
30
0.0
10
14.541352
20
32.640377
30
0.0
10
12.983446
20
31.325443
30
0.0
10
11.668512
20
29.767536
30
0.0
10
10.637840
20
28.007946
30
0.0
10
10.144592
20
26.889981
30
0.0
10
9.873974
20
25.943905
30
0.0
10
9.736667
20
23.142222
30
0.0
10
9.865731
20
20.391268
30
0.0
10
10.102300
20
19.488525
30
0.0
10
10.520439
20
18.505273
30
0.0
10
11.707016
20
16.397356
30
0.0
10
13.130929
20
14.719517
30
0.0
10
14.899864
20
13.369639
30
0.0
10
17.121510
20
12.245602
30
0.0
10
18.082216
20
11.882699
30
0.0
10
18.966834
20
11.686260
30
0.0
10
21.590000
20
11.648053
30
0.0
10
24.188367
20
11.868095
30
0.0
10
26.018691
20
12.516606
30
0.0
10
26.018691
20
12.516606
30
0.0
62
0
0
LWPOLYLINE
100
AcDbPolyline
8
Layer_1
90
36
70
0
10
18.908889
20
16.238102
30
0.0
10
17.861428
20
16.663159
30
0.0
10
16.913732
20
17.247891
30
0.0
10
16.078057
20
17.975025
30
0.0
10
15.366663
20
18.827290
30
0.0
10
14.791806
20
19.787414
30
0.0
10
14.365744
20
20.838126
30
0.0
10
14.100735
20
21.962152
30
0.0
10
14.009038
20
23.142222
30
0.0
10
14.250130
20
25.126409
30
0.0
10
14.970925
20
26.854836
30
0.0
10
16.162671
20
28.312924
30
0.0
10
17.816619
20
29.486093
30
0.0
10
19.393733
20
30.151578
30
0.0
10
21.166667
20
30.305833
30
0.0
10
22.666782
20
30.164411
30
0.0
10
24.036551
20
29.765046
30
0.0
10
25.254774
20
29.128945
30
0.0
10
26.300249
20
28.277317
30
0.0
10
27.151774
20
27.231369
30
0.0
10
27.788148
20
26.012309
30
0.0
10
28.188169
20
24.641347
30
0.0
10
28.330635
20
23.139688
30
0.0
10
28.243890
20
21.939540
30
0.0
10
27.980630
20
20.804632
30
0.0
10
27.551940
20
19.750251
30
0.0
10
26.968904
20
18.791689
30
0.0
10
26.242607
20
17.944235
30
0.0
10
25.384133
20
17.223179
30
0.0
10
24.404567
20
16.643810
30
0.0
10
23.314993
20
16.221419
30
0.0
10
22.142876
20
15.937732
30
0.0
10
21.099519
20
15.845641
30
0.0
10
20.062372
20
15.945609
30
0.0
10
18.908889
20
16.238102
30
0.0
10
18.908889
20
16.238102
30
0.0
62
0
0
LWPOLYLINE
100
AcDbPolyline
8
Layer_1
90
34
70
0
10
22.436667
20
17.531221
30
0.0
10
23.681271
20
18.141772
30
0.0
10
24.910467
20
19.181000
30
0.0
10
25.925990
20
20.445435
30
0.0
10
26.529576
20
21.731606
30
0.0
10
26.734267
20
22.925725
30
0.0
10
26.734799
20
24.118080
30
0.0
10
26.559786
20
25.242000
30
0.0
10
26.237845
20
26.230816
30
0.0
10
25.797589
20
27.017858
30
0.0
10
25.267632
20
27.536456
30
0.0
10
24.676591
20
27.719940
30
0.0
10
24.053079
20
27.501640
30
0.0
10
23.750977
20
27.234553
30
0.0
10
23.595005
20
26.896446
30
0.0
10
23.623082
20
25.563868
30
0.0
10
23.636630
20
24.513096
30
0.0
10
23.466083
20
23.531608
30
0.0
10
23.128475
20
22.641232
30
0.0
10
22.640842
20
21.863796
30
0.0
10
22.020217
20
21.221127
30
0.0
10
21.283634
20
20.735053
30
0.0
10
20.448129
20
20.427401
30
0.0
10
19.530736
20
20.320000
30
0.0
10
18.694129
20
20.220611
30
0.0
10
18.052962
20
19.938569
30
0.0
10
17.642442
20
19.498065
30
0.0
10
17.497778
20
18.923287
30
0.0
10
17.588366
20
18.483609
30
0.0
10
17.880458
20
18.124448
30
0.0
10
19.191111
20
17.548672
30
0.0
10
20.817241
20
17.259059
30
0.0
10
22.436667
20
17.531219
30
0.0
10
22.436667
20
17.531221
30
0.0
  0
ENDSEC
  0
SECTION
  2
OBJECTS
  0
DICTIONARY
  5
C
330
0
100
AcDbDictionary
  3
ACAD_GROUP
350
D
  3
ACAD_MLINESTYLE
350
17
  0
DICTIONARY
  5
D
330
C
100
AcDbDictionary
  0
DICTIONARY
  5
1A
330
C
100
AcDbDictionary
  0
DICTIONARY
  5
17
330
C
100
AcDbDictionary
  3
STANDARD
350
18
  0
DICTIONARY
  5
19
330
C
100
AcDbDictionary
  0
ENDSEC
  0
EOF
