999
Inkscape export via OpenSCAD DXF Export
  0
SECTION
  2
HEADER
  9
$ACADVER
  1
AC1014
  9
$HANDSEED
  5
FFFF
  9
$MEASUREMENT
 70
     1
  0
ENDSEC
  0
SECTION
  2
TABLES
  0
TABLE
  2
VPORT
  5
8
330
0
100
AcDbSymbolTable
 70
     4
  0
VPORT
  5
2E
330
8
100
AcDbSymbolTableRecord
100
AcDbViewportTableRecord
  2
*ACTIVE
 70
     0
 10
0.0
 20
0.0
 11
1.0
 21
1.0
 12
210.0
 22
148.5
 13
0.0
 23
0.0
 14
10.0
 24
10.0
 15
10.0
 25
10.0
 16
0.0
 26
0.0
 36
1.0
 17
0.0
 27
0.0
 37
0.0
 40
341.0
 41
1.24
 42
50.0
 43
0.0
 44
0.0
 50
0.0
 51
0.0
 71
     0
 72
   100
 73
     1
 74
     3
 75
     0
 76
     0
 77
     0
 78
     0
  0
ENDTAB
  0
TABLE
  2
LTYPE
  5
5
330
0
100
AcDbSymbolTable
 70
     1
  0
LTYPE
  5
14
330
5
100
AcDbSymbolTableRecord
100
AcDbLinetypeTableRecord
  2
BYBLOCK
 70
     0
  3

 72
    65
 73
     0
 40
0.0
  0
LTYPE
  5
15
330
5
100
AcDbSymbolTableRecord
100
AcDbLinetypeTableRecord
  2
BYLAYER
 70
     0
  3

 72
    65
 73
     0
 40
0.0
  0
LTYPE
  5
16
330
5
100
AcDbSymbolTableRecord
100
AcDbLinetypeTableRecord
  2
CONTINUOUS
 70
     0
  3
Solid line
 72
    65
 73
     0
 40
0.0
  0
ENDTAB
  0
TABLE
0
TABLE
2
LAYER
5
2
330
0
100
AcDbSymbolTable
70
1
0
LAYER
5
10
330
2
100
AcDbSymbolTableRecord
100
AcDbLayerTableRecord
2
Layer_1
70
0
62
7
6
CONTINUOUS
0
ENDTAB
0
ENDSEC
  0
ENDTAB
  0
TABLE
  2
STYLE
  5
3
330
0
100
AcDbSymbolTable
 70
     1
  0
STYLE
  5
11
330
3
100
AcDbSymbolTableRecord
100
AcDbTextStyleTableRecord
  2
STANDARD
 70
     0
 40
0.0
 41
1.0
 50
0.0
 71
     0
 42
2.5
  3
txt
  4

  0
ENDTAB
  0
TABLE
  2
VIEW
  5
6
330
0
100
AcDbSymbolTable
 70
     0
  0
ENDTAB
  0
TABLE
  2
UCS
  5
7
330
0
100
AcDbSymbolTable
 70
     0
  0
ENDTAB
  0
TABLE
  2
APPID
  5
9
330
0
100
AcDbSymbolTable
 70
     2
  0
APPID
  5
12
330
9
100
AcDbSymbolTableRecord
100
AcDbRegAppTableRecord
  2
ACAD
 70
     0
  0
ENDTAB
  0
TABLE
  2
DIMSTYLE
  5
A
330
0
100
AcDbSymbolTable
 70
     1
  0
DIMSTYLE
105
27
330
A
100
AcDbSymbolTableRecord
100
AcDbDimStyleTableRecord
  2
ISO-25
 70
     0
  3

  4

  5

  6

  7

 40
1.0
 41
2.5
 42
0.625
 43
3.75
 44
1.25
 45
0.0
 46
0.0
 47
0.0
 48
0.0
140
2.5
141
2.5
142
0.0
143
0.03937007874016
144
1.0
145
0.0
146
1.0
147
0.625
 71
     0
 72
     0
 73
     0
 74
     0
 75
     0
 76
     0
 77
     1
 78
     8
170
     0
171
     3
172
     1
173
     0
174
     0
175
     0
176
     0
177
     0
178
     0
270
     2
271
     2
272
     2
273
     2
274
     3
340
11
275
     0
280
     0
281
     0
282
     0
283
     0
284
     8
285
     0
286
     0
287
     3
288
     0
  0
ENDTAB
  0
TABLE
  2
BLOCK_RECORD
  5
1
330
0
100
AcDbSymbolTable
 70
     1
  0
BLOCK_RECORD
  5
1F
330
1
100
AcDbSymbolTableRecord
100
AcDbBlockTableRecord
  2
*MODEL_SPACE
  0
BLOCK_RECORD
  5
1B
330
1
100
AcDbSymbolTableRecord
100
AcDbBlockTableRecord
  2
*PAPER_SPACE
  0
ENDTAB
  0
ENDSEC
  0
SECTION
  2
BLOCKS
  0
BLOCK
  5
20
330
1F
100
AcDbEntity
  8
0
100
AcDbBlockBegin
  2
*MODEL_SPACE
 70
     0
 10
0.0
 20
0.0
 30
0.0
  3
*MODEL_SPACE
  1

  0
ENDBLK
  5
21
330
1F
100
AcDbEntity
  8
0
100
AcDbBlockEnd
  0
BLOCK
  5
1C
330
1B
100
AcDbEntity
 67
     1
  8
0
100
AcDbBlockBegin
  2
*PAPER_SPACE
  1

  0
ENDBLK
  5
1D
330
1B
100
AcDbEntity
 67
     1
  8
0
100
AcDbBlockEnd
  0
ENDSEC
  0
SECTION
  2
ENTITIES
0
DIMENSION
5
83
100
AcDbEntity
62
256
370
-1
6
ByLayer
1
total_width
3
Standard
70
0
71
5
72
1
41
1.0
100
AcDbAlignedDimension
13
3.711579
23
0.000000
33
0.0
14
39.180819
24
0.000000
34
0.0
50
0.000000
100
AcDbRotatedDimension
0
DIMENSION
5
83
100
AcDbEntity
62
256
370
-1
6
ByLayer
1
total_minx
3
Standard
70
0
71
5
72
1
41
1.0
100
AcDbAlignedDimension
13
3.711579
23
0.000000
33
0.0
14
0.000000
24
0.000000
34
0.0
50
0.000000
100
AcDbRotatedDimension
0
DIMENSION
5
83
100
AcDbEntity
62
256
370
-1
6
ByLayer
1
total_maxx
3
Standard
70
0
71
5
72
1
41
1.0
100
AcDbAlignedDimension
13
0.000000
23
0.000000
33
0.0
14
39.180819
24
0.000000
34
0.0
50
0.000000
100
AcDbRotatedDimension
0
DIMENSION
5
83
100
AcDbEntity
62
256
370
-1
6
ByLayer
1
total_height
3
Standard
70
0
71
5
72
1
41
1.0
100
AcDbAlignedDimension
13
0.000000
23
4.070827
33
0.0
14
0.000000
24
36.520280
34
0.0
50
90.000000
100
AcDbRotatedDimension
0
DIMENSION
5
83
100
AcDbEntity
62
256
370
-1
6
ByLayer
1
total_miny
3
Standard
70
0
71
5
72
1
41
1.0
100
AcDbAlignedDimension
13
4.070827
23
0.000000
33
0.0
14
0.000000
24
0.000000
34
0.0
50
0.000000
100
AcDbRotatedDimension
0
DIMENSION
5
83
100
AcDbEntity
62
256
370
-1
6
ByLayer
1
total_maxy
3
Standard
70
0
71
5
72
1
41
1.0
100
AcDbAlignedDimension
13
0.000000
23
0.000000
33
0.0
14
36.520280
24
0.000000
34
0.0
50
0.000000
100
AcDbRotatedDimension
0
DIMENSION
8
Layer_1
5
83
100
AcDbEntity
62
256
370
-1
6
ByLayer
1
Layer_1_width
3
Standard
70
0
71
5
72
1
41
1.0
100
AcDbAlignedDimension
13
3.711579
23
0.000000
33
0.0
14
39.180819
24
0.000000
34
0.0
50
0.000000
100
AcDbRotatedDimension
0
DIMENSION
8
Layer_1
5
83
100
AcDbEntity
62
256
370
-1
6
ByLayer
1
Layer_1_minx
3
Standard
70
0
71
5
72
1
41
1.0
100
AcDbAlignedDimension
13
3.711579
23
0.000000
33
0.0
14
0.000000
24
0.000000
34
0.0
50
0.000000
100
AcDbRotatedDimension
0
DIMENSION
8
Layer_1
5
83
100
AcDbEntity
62
256
370
-1
6
ByLayer
1
Layer_1_maxx
3
Standard
70
0
71
5
72
1
41
1.0
100
AcDbAlignedDimension
13
0.000000
23
0.000000
33
0.0
14
39.180819
24
0.000000
34
0.0
50
0.000000
100
AcDbRotatedDimension
0
DIMENSION
8
Layer_1
5
83
100
AcDbEntity
62
256
370
-1
6
ByLayer
1
Layer_1_height
3
Standard
70
0
71
5
72
1
41
1.0
100
AcDbAlignedDimension
13
0.000000
23
4.070827
33
0.0
14
0.000000
24
36.520280
34
0.0
50
90.000000
100
AcDbRotatedDimension
0
DIMENSION
8
Layer_1
5
83
100
AcDbEntity
62
256
370
-1
6
ByLayer
1
Layer_1_miny
3
Standard
70
0
71
5
72
1
41
1.0
100
AcDbAlignedDimension
13
4.070827
23
0.000000
33
0.0
14
0.000000
24
0.000000
34
0.0
50
0.000000
100
AcDbRotatedDimension
0
DIMENSION
8
Layer_1
5
83
100
AcDbEntity
62
256
370
-1
6
ByLayer
1
Layer_1_maxy
3
Standard
70
0
71
5
72
1
41
1.0
100
AcDbAlignedDimension
13
0.000000
23
0.000000
33
0.0
14
36.520280
24
0.000000
34
0.0
50
0.000000
100
AcDbRotatedDimension
62
0
0
LWPOLYLINE
100
AcDbPolyline
8
Layer_1
90
100
70
0
10
17.010141
20
4.337911
30
0.0
10
14.309425
20
5.310247
30
0.0
10
11.825754
20
6.773763
30
0.0
10
9.626275
20
8.680139
30
0.0
10
7.778136
20
10.981058
30
0.0
10
6.491111
20
13.051420
30
0.0
10
7.955677
20
13.359280
30
0.0
10
9.520820
20
13.696543
30
0.0
10
10.955438
20
14.308644
30
0.0
10
12.240323
20
15.173064
30
0.0
10
13.356262
20
16.267283
30
0.0
10
14.284047
20
17.568784
30
0.0
10
15.004467
20
19.055048
30
0.0
10
15.498311
20
20.703554
30
0.0
10
15.746371
20
22.491786
30
0.0
10
15.878673
20
24.553333
30
0.0
10
18.411753
20
24.553333
30
0.0
10
20.479412
20
24.474949
30
0.0
10
20.777677
20
24.336877
30
0.0
10
20.769817
20
24.097248
30
0.0
10
20.420301
20
19.934470
30
0.0
10
20.374513
20
17.201095
30
0.0
10
20.590863
20
15.416642
30
0.0
10
21.135188
20
14.332863
30
0.0
10
22.073324
20
13.701511
30
0.0
10
22.631256
20
13.507231
30
0.0
10
23.135263
20
13.508753
30
0.0
10
24.848734
20
14.279944
30
0.0
10
26.392249
20
15.206031
30
0.0
10
27.658964
20
16.211264
30
0.0
10
28.641593
20
17.280389
30
0.0
10
29.332847
20
18.398150
30
0.0
10
29.725441
20
19.549294
30
0.0
10
29.812086
20
20.718564
30
0.0
10
29.585496
20
21.890707
30
0.0
10
29.038383
20
23.050468
30
0.0
10
27.627369
20
24.702873
30
0.0
10
25.604261
20
26.227291
30
0.0
10
23.185443
20
27.488045
30
0.0
10
20.587296
20
28.349460
30
0.0
10
18.781976
20
28.636927
30
0.0
10
16.702735
20
28.759690
30
0.0
10
14.672597
20
28.711858
30
0.0
10
13.014582
20
28.487541
30
0.0
10
10.576166
20
27.630654
30
0.0
10
8.399577
20
26.263567
30
0.0
10
6.535230
20
24.426257
30
0.0
10
5.033538
20
22.158702
30
0.0
10
4.015798
20
20.230783
30
0.0
10
3.813103
20
21.430521
30
0.0
10
3.711579
20
23.239058
30
0.0
10
3.991852
20
25.074845
30
0.0
10
4.628154
20
26.898150
30
0.0
10
5.594718
20
28.669243
30
0.0
10
6.865778
20
30.348394
30
0.0
10
8.415566
20
31.895872
30
0.0
10
10.218316
20
33.271946
30
0.0
10
12.248261
20
34.436885
30
0.0
10
14.536685
20
35.445109
30
0.0
10
16.634409
20
36.088171
30
0.0
10
18.803939
20
36.426439
30
0.0
10
21.307778
20
36.520280
30
0.0
10
23.803043
20
36.397855
30
0.0
10
25.893536
20
36.004455
30
0.0
10
27.807983
20
35.276011
30
0.0
10
29.775113
20
34.148453
30
0.0
10
31.181915
20
33.323923
30
0.0
10
31.888714
20
33.117669
30
0.0
10
31.968705
20
33.243251
30
0.0
10
31.860608
20
33.519627
30
0.0
10
31.062696
20
34.519732
30
0.0
10
29.843668
20
35.842222
30
0.0
10
30.637175
20
35.842222
30
0.0
10
31.502192
20
35.700415
30
0.0
10
32.460860
20
35.299382
30
0.0
10
34.492795
20
33.865951
30
0.0
10
36.400259
20
31.834566
30
0.0
10
37.203340
20
30.686091
30
0.0
10
37.850532
20
29.497866
30
0.0
10
38.476450
20
27.863174
30
0.0
10
38.906126
20
26.101819
30
0.0
10
39.140576
20
24.248496
30
0.0
10
39.180819
20
22.337899
30
0.0
10
39.027871
20
20.404723
30
0.0
10
38.682749
20
18.483662
30
0.0
10
38.146472
20
16.609412
30
0.0
10
37.420056
20
14.816667
30
0.0
10
36.491946
20
13.069369
30
0.0
10
35.422634
20
11.463519
30
0.0
10
34.210857
20
9.998004
30
0.0
10
32.855352
20
8.671713
30
0.0
10
31.354856
20
7.483532
30
0.0
10
29.708106
20
6.432351
30
0.0
10
27.913837
20
5.517056
30
0.0
10
25.970788
20
4.736536
30
0.0
10
24.012669
20
4.298819
30
0.0
10
21.514762
20
4.070827
30
0.0
10
19.004707
20
4.076034
30
0.0
10
17.010141
20
4.337911
30
0.0
10
17.010141
20
4.337911
30
0.0
  0
ENDSEC
  0
SECTION
  2
OBJECTS
  0
DICTIONARY
  5
C
330
0
100
AcDbDictionary
  3
ACAD_GROUP
350
D
  3
ACAD_MLINESTYLE
350
17
  0
DICTIONARY
  5
D
330
C
100
AcDbDictionary
  0
DICTIONARY
  5
1A
330
C
100
AcDbDictionary
  0
DICTIONARY
  5
17
330
C
100
AcDbDictionary
  3
STANDARD
350
18
  0
DICTIONARY
  5
19
330
C
100
AcDbDictionary
  0
ENDSEC
  0
EOF
