999
Inkscape export via OpenSCAD DXF Export
  0
SECTION
  2
HEADER
  9
$ACADVER
  1
AC1014
  9
$HANDSEED
  5
FFFF
  9
$MEASUREMENT
 70
     1
  0
ENDSEC
  0
SECTION
  2
TABLES
  0
TABLE
  2
VPORT
  5
8
330
0
100
AcDbSymbolTable
 70
     4
  0
VPORT
  5
2E
330
8
100
AcDbSymbolTableRecord
100
AcDbViewportTableRecord
  2
*ACTIVE
 70
     0
 10
0.0
 20
0.0
 11
1.0
 21
1.0
 12
210.0
 22
148.5
 13
0.0
 23
0.0
 14
10.0
 24
10.0
 15
10.0
 25
10.0
 16
0.0
 26
0.0
 36
1.0
 17
0.0
 27
0.0
 37
0.0
 40
341.0
 41
1.24
 42
50.0
 43
0.0
 44
0.0
 50
0.0
 51
0.0
 71
     0
 72
   100
 73
     1
 74
     3
 75
     0
 76
     0
 77
     0
 78
     0
  0
ENDTAB
  0
TABLE
  2
LTYPE
  5
5
330
0
100
AcDbSymbolTable
 70
     1
  0
LTYPE
  5
14
330
5
100
AcDbSymbolTableRecord
100
AcDbLinetypeTableRecord
  2
BYBLOCK
 70
     0
  3

 72
    65
 73
     0
 40
0.0
  0
LTYPE
  5
15
330
5
100
AcDbSymbolTableRecord
100
AcDbLinetypeTableRecord
  2
BYLAYER
 70
     0
  3

 72
    65
 73
     0
 40
0.0
  0
LTYPE
  5
16
330
5
100
AcDbSymbolTableRecord
100
AcDbLinetypeTableRecord
  2
CONTINUOUS
 70
     0
  3
Solid line
 72
    65
 73
     0
 40
0.0
  0
ENDTAB
  0
TABLE
0
TABLE
2
LAYER
5
2
330
0
100
AcDbSymbolTable
70
1
0
LAYER
5
10
330
2
100
AcDbSymbolTableRecord
100
AcDbLayerTableRecord
2
Layer_1
70
0
62
7
6
CONTINUOUS
0
ENDTAB
0
ENDSEC
  0
ENDTAB
  0
TABLE
  2
STYLE
  5
3
330
0
100
AcDbSymbolTable
 70
     1
  0
STYLE
  5
11
330
3
100
AcDbSymbolTableRecord
100
AcDbTextStyleTableRecord
  2
STANDARD
 70
     0
 40
0.0
 41
1.0
 50
0.0
 71
     0
 42
2.5
  3
txt
  4

  0
ENDTAB
  0
TABLE
  2
VIEW
  5
6
330
0
100
AcDbSymbolTable
 70
     0
  0
ENDTAB
  0
TABLE
  2
UCS
  5
7
330
0
100
AcDbSymbolTable
 70
     0
  0
ENDTAB
  0
TABLE
  2
APPID
  5
9
330
0
100
AcDbSymbolTable
 70
     2
  0
APPID
  5
12
330
9
100
AcDbSymbolTableRecord
100
AcDbRegAppTableRecord
  2
ACAD
 70
     0
  0
ENDTAB
  0
TABLE
  2
DIMSTYLE
  5
A
330
0
100
AcDbSymbolTable
 70
     1
  0
DIMSTYLE
105
27
330
A
100
AcDbSymbolTableRecord
100
AcDbDimStyleTableRecord
  2
ISO-25
 70
     0
  3

  4

  5

  6

  7

 40
1.0
 41
2.5
 42
0.625
 43
3.75
 44
1.25
 45
0.0
 46
0.0
 47
0.0
 48
0.0
140
2.5
141
2.5
142
0.0
143
0.03937007874016
144
1.0
145
0.0
146
1.0
147
0.625
 71
     0
 72
     0
 73
     0
 74
     0
 75
     0
 76
     0
 77
     1
 78
     8
170
     0
171
     3
172
     1
173
     0
174
     0
175
     0
176
     0
177
     0
178
     0
270
     2
271
     2
272
     2
273
     2
274
     3
340
11
275
     0
280
     0
281
     0
282
     0
283
     0
284
     8
285
     0
286
     0
287
     3
288
     0
  0
ENDTAB
  0
TABLE
  2
BLOCK_RECORD
  5
1
330
0
100
AcDbSymbolTable
 70
     1
  0
BLOCK_RECORD
  5
1F
330
1
100
AcDbSymbolTableRecord
100
AcDbBlockTableRecord
  2
*MODEL_SPACE
  0
BLOCK_RECORD
  5
1B
330
1
100
AcDbSymbolTableRecord
100
AcDbBlockTableRecord
  2
*PAPER_SPACE
  0
ENDTAB
  0
ENDSEC
  0
SECTION
  2
BLOCKS
  0
BLOCK
  5
20
330
1F
100
AcDbEntity
  8
0
100
AcDbBlockBegin
  2
*MODEL_SPACE
 70
     0
 10
0.0
 20
0.0
 30
0.0
  3
*MODEL_SPACE
  1

  0
ENDBLK
  5
21
330
1F
100
AcDbEntity
  8
0
100
AcDbBlockEnd
  0
BLOCK
  5
1C
330
1B
100
AcDbEntity
 67
     1
  8
0
100
AcDbBlockBegin
  2
*PAPER_SPACE
  1

  0
ENDBLK
  5
1D
330
1B
100
AcDbEntity
 67
     1
  8
0
100
AcDbBlockEnd
  0
ENDSEC
  0
SECTION
  2
ENTITIES
0
DIMENSION
5
83
100
AcDbEntity
62
256
370
-1
6
ByLayer
1
total_width
3
Standard
70
0
71
5
72
1
41
1.0
100
AcDbAlignedDimension
13
1.128889
23
0.000000
33
0.0
14
20.037778
24
0.000000
34
0.0
50
0.000000
100
AcDbRotatedDimension
0
DIMENSION
5
83
100
AcDbEntity
62
256
370
-1
6
ByLayer
1
total_minx
3
Standard
70
0
71
5
72
1
41
1.0
100
AcDbAlignedDimension
13
1.128889
23
0.000000
33
0.0
14
0.000000
24
0.000000
34
0.0
50
0.000000
100
AcDbRotatedDimension
0
DIMENSION
5
83
100
AcDbEntity
62
256
370
-1
6
ByLayer
1
total_maxx
3
Standard
70
0
71
5
72
1
41
1.0
100
AcDbAlignedDimension
13
0.000000
23
0.000000
33
0.0
14
20.037778
24
0.000000
34
0.0
50
0.000000
100
AcDbRotatedDimension
0
DIMENSION
5
83
100
AcDbEntity
62
256
370
-1
6
ByLayer
1
total_height
3
Standard
70
0
71
5
72
1
41
1.0
100
AcDbAlignedDimension
13
0.000000
23
1.128889
33
0.0
14
0.000000
24
20.037778
34
0.0
50
90.000000
100
AcDbRotatedDimension
0
DIMENSION
5
83
100
AcDbEntity
62
256
370
-1
6
ByLayer
1
total_miny
3
Standard
70
0
71
5
72
1
41
1.0
100
AcDbAlignedDimension
13
1.128889
23
0.000000
33
0.0
14
0.000000
24
0.000000
34
0.0
50
0.000000
100
AcDbRotatedDimension
0
DIMENSION
5
83
100
AcDbEntity
62
256
370
-1
6
ByLayer
1
total_maxy
3
Standard
70
0
71
5
72
1
41
1.0
100
AcDbAlignedDimension
13
0.000000
23
0.000000
33
0.0
14
20.037778
24
0.000000
34
0.0
50
0.000000
100
AcDbRotatedDimension
0
DIMENSION
8
Layer_1
5
83
100
AcDbEntity
62
256
370
-1
6
ByLayer
1
Layer_1_width
3
Standard
70
0
71
5
72
1
41
1.0
100
AcDbAlignedDimension
13
1.128889
23
0.000000
33
0.0
14
20.037778
24
0.000000
34
0.0
50
0.000000
100
AcDbRotatedDimension
0
DIMENSION
8
Layer_1
5
83
100
AcDbEntity
62
256
370
-1
6
ByLayer
1
Layer_1_minx
3
Standard
70
0
71
5
72
1
41
1.0
100
AcDbAlignedDimension
13
1.128889
23
0.000000
33
0.0
14
0.000000
24
0.000000
34
0.0
50
0.000000
100
AcDbRotatedDimension
0
DIMENSION
8
Layer_1
5
83
100
AcDbEntity
62
256
370
-1
6
ByLayer
1
Layer_1_maxx
3
Standard
70
0
71
5
72
1
41
1.0
100
AcDbAlignedDimension
13
0.000000
23
0.000000
33
0.0
14
20.037778
24
0.000000
34
0.0
50
0.000000
100
AcDbRotatedDimension
0
DIMENSION
8
Layer_1
5
83
100
AcDbEntity
62
256
370
-1
6
ByLayer
1
Layer_1_height
3
Standard
70
0
71
5
72
1
41
1.0
100
AcDbAlignedDimension
13
0.000000
23
1.128889
33
0.0
14
0.000000
24
20.037778
34
0.0
50
90.000000
100
AcDbRotatedDimension
0
DIMENSION
8
Layer_1
5
83
100
AcDbEntity
62
256
370
-1
6
ByLayer
1
Layer_1_miny
3
Standard
70
0
71
5
72
1
41
1.0
100
AcDbAlignedDimension
13
1.128889
23
0.000000
33
0.0
14
0.000000
24
0.000000
34
0.0
50
0.000000
100
AcDbRotatedDimension
0
DIMENSION
8
Layer_1
5
83
100
AcDbEntity
62
256
370
-1
6
ByLayer
1
Layer_1_maxy
3
Standard
70
0
71
5
72
1
41
1.0
100
AcDbAlignedDimension
13
0.000000
23
0.000000
33
0.0
14
20.037778
24
0.000000
34
0.0
50
0.000000
100
AcDbRotatedDimension
62
0
0
LWPOLYLINE
100
AcDbPolyline
8
Layer_1
90
54
70
0
10
9.313333
20
2.818435
30
0.0
10
9.188424
20
4.330237
30
0.0
10
8.914842
20
4.641481
30
0.0
10
8.396111
20
4.892334
30
0.0
10
7.346760
20
5.461790
30
0.0
10
6.391717
20
6.228144
30
0.0
10
5.595803
20
7.129650
30
0.0
10
5.023838
20
8.104566
30
0.0
10
4.489143
20
9.313333
30
0.0
10
2.809016
20
9.313333
30
0.0
10
1.128889
20
9.313333
30
0.0
10
1.128889
20
10.583333
30
0.0
10
1.128889
20
11.853333
30
0.0
10
2.809016
20
11.853333
30
0.0
10
4.489143
20
11.853333
30
0.0
10
5.030105
20
13.052778
30
0.0
10
5.607813
20
14.072641
30
0.0
10
6.350697
20
14.952487
30
0.0
10
7.239509
20
15.673433
30
0.0
10
8.255000
20
16.216594
30
0.0
10
8.865812
20
16.498696
30
0.0
10
9.180120
20
16.815704
30
0.0
10
9.296451
20
17.366067
30
0.0
10
9.313333
20
18.348232
30
0.0
10
9.313333
20
20.037778
30
0.0
10
10.583333
20
20.037778
30
0.0
10
11.853333
20
20.037778
30
0.0
10
11.853333
20
18.342159
30
0.0
10
11.853333
20
16.646541
30
0.0
10
12.978630
20
16.196287
30
0.0
10
13.941479
20
15.649990
30
0.0
10
14.874353
20
14.834200
30
0.0
10
15.681425
20
13.848153
30
0.0
10
16.266870
20
12.791081
30
0.0
10
16.521609
20
12.258913
30
0.0
10
16.833163
20
11.979411
30
0.0
10
18.348232
20
11.853333
30
0.0
10
20.037778
20
11.853333
30
0.0
10
20.037778
20
10.583333
30
0.0
10
20.037778
20
9.313333
30
0.0
10
18.369620
20
9.313333
30
0.0
10
16.701463
20
9.313333
30
0.0
10
16.089855
20
8.049920
30
0.0
10
15.485383
20
7.052641
30
0.0
10
14.706514
20
6.170965
30
0.0
10
13.789490
20
5.439371
30
0.0
10
12.770556
20
4.892334
30
0.0
10
12.251825
20
4.641481
30
0.0
10
11.978243
20
4.330237
30
0.0
10
11.853333
20
2.818435
30
0.0
10
11.853333
20
1.128889
30
0.0
10
10.583333
20
1.128889
30
0.0
10
9.313333
20
1.128889
30
0.0
10
9.313333
20
2.818435
30
0.0
62
0
0
LWPOLYLINE
100
AcDbPolyline
8
Layer_1
90
27
70
0
10
9.877778
20
6.604000
30
0.0
10
9.577504
20
7.183321
30
0.0
10
8.855567
20
8.021321
30
0.0
10
8.284538
20
8.629100
30
0.0
10
7.994914
20
9.124368
30
0.0
10
7.913237
20
9.723684
30
0.0
10
7.966047
20
10.643604
30
0.0
10
8.234370
20
12.090008
30
0.0
10
8.523483
20
12.544722
30
0.0
10
8.988258
20
12.986280
30
0.0
10
9.742398
20
13.824372
30
0.0
10
9.839650
20
14.123572
30
0.0
10
9.771204
20
14.322392
30
0.0
10
9.199772
20
14.357445
30
0.0
10
8.153197
20
13.806639
30
0.0
10
7.374372
20
13.088235
30
0.0
10
6.832484
20
12.240435
30
0.0
10
6.525682
20
11.306248
30
0.0
10
6.452113
20
10.328685
30
0.0
10
6.609924
20
9.350754
30
0.0
10
6.997261
20
8.415465
30
0.0
10
7.612273
20
7.565826
30
0.0
10
8.453106
20
6.844848
30
0.0
10
9.575003
20
6.241655
30
0.0
10
9.808758
20
6.305520
30
0.0
10
9.877778
20
6.604000
30
0.0
10
9.877778
20
6.604000
30
0.0
62
0
0
LWPOLYLINE
100
AcDbPolyline
8
Layer_1
90
24
70
0
10
12.361237
20
6.605411
30
0.0
10
13.277566
20
7.217733
30
0.0
10
13.979804
20
7.968696
30
0.0
10
14.462724
20
8.823961
30
0.0
10
14.721103
20
9.749186
30
0.0
10
14.749714
20
10.710030
30
0.0
10
14.543332
20
11.672152
30
0.0
10
14.096731
20
12.601212
30
0.0
10
13.404687
20
13.462868
30
0.0
10
12.710211
20
14.014962
30
0.0
10
12.023337
20
14.344589
30
0.0
10
11.498188
20
14.402471
30
0.0
10
11.288889
20
14.139333
30
0.0
10
12.276667
20
12.897556
30
0.0
10
13.098910
20
11.829375
30
0.0
10
13.264444
20
10.442222
30
0.0
10
13.098910
20
9.055069
30
0.0
10
12.276667
20
7.986889
30
0.0
10
11.579049
20
7.173207
30
0.0
10
11.288889
20
6.604000
30
0.0
10
11.322893
20
6.326800
30
0.0
10
11.468928
20
6.234578
30
0.0
10
12.361237
20
6.605411
30
0.0
10
12.361237
20
6.605411
30
0.0
62
0
0
LWPOLYLINE
100
AcDbPolyline
8
Layer_1
90
17
70
0
10
11.696219
20
9.093911
30
0.0
10
12.071579
20
10.124944
30
0.0
10
11.978633
20
11.210670
30
0.0
10
11.500284
20
12.068983
30
0.0
10
11.142491
20
12.324702
30
0.0
10
10.719435
20
12.417778
30
0.0
10
10.139108
20
12.233454
30
0.0
10
9.593916
20
11.762418
30
0.0
10
9.189403
20
11.127567
30
0.0
10
9.031111
20
10.451802
30
0.0
10
9.161008
20
9.709469
30
0.0
10
9.506856
20
9.075096
30
0.0
10
10.002886
20
8.632792
30
0.0
10
10.583333
20
8.466667
30
0.0
10
11.188818
20
8.648948
30
0.0
10
11.696219
20
9.093907
30
0.0
10
11.696219
20
9.093911
30
0.0
  0
ENDSEC
  0
SECTION
  2
OBJECTS
  0
DICTIONARY
  5
C
330
0
100
AcDbDictionary
  3
ACAD_GROUP
350
D
  3
ACAD_MLINESTYLE
350
17
  0
DICTIONARY
  5
D
330
C
100
AcDbDictionary
  0
DICTIONARY
  5
1A
330
C
100
AcDbDictionary
  0
DICTIONARY
  5
17
330
C
100
AcDbDictionary
  3
STANDARD
350
18
  0
DICTIONARY
  5
19
330
C
100
AcDbDictionary
  0
ENDSEC
  0
EOF
