999
Inkscape export via OpenSCAD DXF Export
  0
SECTION
  2
HEADER
  9
$ACADVER
  1
AC1014
  9
$HANDSEED
  5
FFFF
  9
$MEASUREMENT
 70
     1
  0
ENDSEC
  0
SECTION
  2
TABLES
  0
TABLE
  2
VPORT
  5
8
330
0
100
AcDbSymbolTable
 70
     4
  0
VPORT
  5
2E
330
8
100
AcDbSymbolTableRecord
100
AcDbViewportTableRecord
  2
*ACTIVE
 70
     0
 10
0.0
 20
0.0
 11
1.0
 21
1.0
 12
210.0
 22
148.5
 13
0.0
 23
0.0
 14
10.0
 24
10.0
 15
10.0
 25
10.0
 16
0.0
 26
0.0
 36
1.0
 17
0.0
 27
0.0
 37
0.0
 40
341.0
 41
1.24
 42
50.0
 43
0.0
 44
0.0
 50
0.0
 51
0.0
 71
     0
 72
   100
 73
     1
 74
     3
 75
     0
 76
     0
 77
     0
 78
     0
  0
ENDTAB
  0
TABLE
  2
LTYPE
  5
5
330
0
100
AcDbSymbolTable
 70
     1
  0
LTYPE
  5
14
330
5
100
AcDbSymbolTableRecord
100
AcDbLinetypeTableRecord
  2
BYBLOCK
 70
     0
  3

 72
    65
 73
     0
 40
0.0
  0
LTYPE
  5
15
330
5
100
AcDbSymbolTableRecord
100
AcDbLinetypeTableRecord
  2
BYLAYER
 70
     0
  3

 72
    65
 73
     0
 40
0.0
  0
LTYPE
  5
16
330
5
100
AcDbSymbolTableRecord
100
AcDbLinetypeTableRecord
  2
CONTINUOUS
 70
     0
  3
Solid line
 72
    65
 73
     0
 40
0.0
  0
ENDTAB
  0
TABLE
0
TABLE
2
LAYER
5
2
330
0
100
AcDbSymbolTable
70
1
0
LAYER
5
10
330
2
100
AcDbSymbolTableRecord
100
AcDbLayerTableRecord
2
Layer_1
70
0
62
7
6
CONTINUOUS
0
ENDTAB
0
ENDSEC
  0
ENDTAB
  0
TABLE
  2
STYLE
  5
3
330
0
100
AcDbSymbolTable
 70
     1
  0
STYLE
  5
11
330
3
100
AcDbSymbolTableRecord
100
AcDbTextStyleTableRecord
  2
STANDARD
 70
     0
 40
0.0
 41
1.0
 50
0.0
 71
     0
 42
2.5
  3
txt
  4

  0
ENDTAB
  0
TABLE
  2
VIEW
  5
6
330
0
100
AcDbSymbolTable
 70
     0
  0
ENDTAB
  0
TABLE
  2
UCS
  5
7
330
0
100
AcDbSymbolTable
 70
     0
  0
ENDTAB
  0
TABLE
  2
APPID
  5
9
330
0
100
AcDbSymbolTable
 70
     2
  0
APPID
  5
12
330
9
100
AcDbSymbolTableRecord
100
AcDbRegAppTableRecord
  2
ACAD
 70
     0
  0
ENDTAB
  0
TABLE
  2
DIMSTYLE
  5
A
330
0
100
AcDbSymbolTable
 70
     1
  0
DIMSTYLE
105
27
330
A
100
AcDbSymbolTableRecord
100
AcDbDimStyleTableRecord
  2
ISO-25
 70
     0
  3

  4

  5

  6

  7

 40
1.0
 41
2.5
 42
0.625
 43
3.75
 44
1.25
 45
0.0
 46
0.0
 47
0.0
 48
0.0
140
2.5
141
2.5
142
0.0
143
0.03937007874016
144
1.0
145
0.0
146
1.0
147
0.625
 71
     0
 72
     0
 73
     0
 74
     0
 75
     0
 76
     0
 77
     1
 78
     8
170
     0
171
     3
172
     1
173
     0
174
     0
175
     0
176
     0
177
     0
178
     0
270
     2
271
     2
272
     2
273
     2
274
     3
340
11
275
     0
280
     0
281
     0
282
     0
283
     0
284
     8
285
     0
286
     0
287
     3
288
     0
  0
ENDTAB
  0
TABLE
  2
BLOCK_RECORD
  5
1
330
0
100
AcDbSymbolTable
 70
     1
  0
BLOCK_RECORD
  5
1F
330
1
100
AcDbSymbolTableRecord
100
AcDbBlockTableRecord
  2
*MODEL_SPACE
  0
BLOCK_RECORD
  5
1B
330
1
100
AcDbSymbolTableRecord
100
AcDbBlockTableRecord
  2
*PAPER_SPACE
  0
ENDTAB
  0
ENDSEC
  0
SECTION
  2
BLOCKS
  0
BLOCK
  5
20
330
1F
100
AcDbEntity
  8
0
100
AcDbBlockBegin
  2
*MODEL_SPACE
 70
     0
 10
0.0
 20
0.0
 30
0.0
  3
*MODEL_SPACE
  1

  0
ENDBLK
  5
21
330
1F
100
AcDbEntity
  8
0
100
AcDbBlockEnd
  0
BLOCK
  5
1C
330
1B
100
AcDbEntity
 67
     1
  8
0
100
AcDbBlockBegin
  2
*PAPER_SPACE
  1

  0
ENDBLK
  5
1D
330
1B
100
AcDbEntity
 67
     1
  8
0
100
AcDbBlockEnd
  0
ENDSEC
  0
SECTION
  2
ENTITIES
0
DIMENSION
5
83
100
AcDbEntity
62
256
370
-1
6
ByLayer
1
total_width
3
Standard
70
0
71
5
72
1
41
1.0
100
AcDbAlignedDimension
13
4.613668
23
0.000000
33
0.0
14
37.179366
24
0.000000
34
0.0
50
0.000000
100
AcDbRotatedDimension
0
DIMENSION
5
83
100
AcDbEntity
62
256
370
-1
6
ByLayer
1
total_minx
3
Standard
70
0
71
5
72
1
41
1.0
100
AcDbAlignedDimension
13
4.613668
23
0.000000
33
0.0
14
0.000000
24
0.000000
34
0.0
50
0.000000
100
AcDbRotatedDimension
0
DIMENSION
5
83
100
AcDbEntity
62
256
370
-1
6
ByLayer
1
total_maxx
3
Standard
70
0
71
5
72
1
41
1.0
100
AcDbAlignedDimension
13
0.000000
23
0.000000
33
0.0
14
37.179366
24
0.000000
34
0.0
50
0.000000
100
AcDbRotatedDimension
0
DIMENSION
5
83
100
AcDbEntity
62
256
370
-1
6
ByLayer
1
total_height
3
Standard
70
0
71
5
72
1
41
1.0
100
AcDbAlignedDimension
13
0.000000
23
4.532504
33
0.0
14
0.000000
24
38.100000
34
0.0
50
90.000000
100
AcDbRotatedDimension
0
DIMENSION
5
83
100
AcDbEntity
62
256
370
-1
6
ByLayer
1
total_miny
3
Standard
70
0
71
5
72
1
41
1.0
100
AcDbAlignedDimension
13
4.532504
23
0.000000
33
0.0
14
0.000000
24
0.000000
34
0.0
50
0.000000
100
AcDbRotatedDimension
0
DIMENSION
5
83
100
AcDbEntity
62
256
370
-1
6
ByLayer
1
total_maxy
3
Standard
70
0
71
5
72
1
41
1.0
100
AcDbAlignedDimension
13
0.000000
23
0.000000
33
0.0
14
38.100000
24
0.000000
34
0.0
50
0.000000
100
AcDbRotatedDimension
0
DIMENSION
8
Layer_1
5
83
100
AcDbEntity
62
256
370
-1
6
ByLayer
1
Layer_1_width
3
Standard
70
0
71
5
72
1
41
1.0
100
AcDbAlignedDimension
13
4.613668
23
0.000000
33
0.0
14
37.179366
24
0.000000
34
0.0
50
0.000000
100
AcDbRotatedDimension
0
DIMENSION
8
Layer_1
5
83
100
AcDbEntity
62
256
370
-1
6
ByLayer
1
Layer_1_minx
3
Standard
70
0
71
5
72
1
41
1.0
100
AcDbAlignedDimension
13
4.613668
23
0.000000
33
0.0
14
0.000000
24
0.000000
34
0.0
50
0.000000
100
AcDbRotatedDimension
0
DIMENSION
8
Layer_1
5
83
100
AcDbEntity
62
256
370
-1
6
ByLayer
1
Layer_1_maxx
3
Standard
70
0
71
5
72
1
41
1.0
100
AcDbAlignedDimension
13
0.000000
23
0.000000
33
0.0
14
37.179366
24
0.000000
34
0.0
50
0.000000
100
AcDbRotatedDimension
0
DIMENSION
8
Layer_1
5
83
100
AcDbEntity
62
256
370
-1
6
ByLayer
1
Layer_1_height
3
Standard
70
0
71
5
72
1
41
1.0
100
AcDbAlignedDimension
13
0.000000
23
4.532504
33
0.0
14
0.000000
24
38.100000
34
0.0
50
90.000000
100
AcDbRotatedDimension
0
DIMENSION
8
Layer_1
5
83
100
AcDbEntity
62
256
370
-1
6
ByLayer
1
Layer_1_miny
3
Standard
70
0
71
5
72
1
41
1.0
100
AcDbAlignedDimension
13
4.532504
23
0.000000
33
0.0
14
0.000000
24
0.000000
34
0.0
50
0.000000
100
AcDbRotatedDimension
0
DIMENSION
8
Layer_1
5
83
100
AcDbEntity
62
256
370
-1
6
ByLayer
1
Layer_1_maxy
3
Standard
70
0
71
5
72
1
41
1.0
100
AcDbAlignedDimension
13
0.000000
23
0.000000
33
0.0
14
38.100000
24
0.000000
34
0.0
50
0.000000
100
AcDbRotatedDimension
62
0
0
LWPOLYLINE
100
AcDbPolyline
8
Layer_1
90
28
70
0
10
14.441290
20
4.762167
30
0.0
10
14.201060
20
5.163254
30
0.0
10
14.159067
20
5.803609
30
0.0
10
14.259397
20
6.255458
30
0.0
10
14.531755
20
6.548477
30
0.0
10
16.202029
20
7.021294
30
0.0
10
18.062408
20
7.287854
30
0.0
10
19.659251
20
7.119318
30
0.0
10
21.166667
20
6.944246
30
0.0
10
22.674082
20
7.119318
30
0.0
10
24.270931
20
7.287858
30
0.0
10
26.131304
20
7.021356
30
0.0
10
27.823803
20
6.540760
30
0.0
10
28.079312
20
6.224863
30
0.0
10
28.168825
20
5.712178
30
0.0
10
28.108389
20
4.946415
30
0.0
10
27.528040
20
4.634303
30
0.0
10
26.654243
20
4.595642
30
0.0
10
25.576413
20
4.759449
30
0.0
10
24.271634
20
4.924318
30
0.0
10
22.764287
20
4.734134
30
0.0
10
21.165541
20
4.542156
30
0.0
10
19.540004
20
4.738593
30
0.0
10
18.061786
20
4.928700
30
0.0
10
16.927001
20
4.795949
30
0.0
10
15.426994
20
4.532504
30
0.0
10
14.441290
20
4.762156
30
0.0
10
14.441290
20
4.762167
30
0.0
62
0
0
LWPOLYLINE
100
AcDbPolyline
8
Layer_1
90
49
70
0
10
9.498186
20
10.393889
30
0.0
10
9.098083
20
11.209489
30
0.0
10
9.170244
20
12.053542
30
0.0
10
9.638809
20
12.714853
30
0.0
10
10.427915
20
12.982222
30
0.0
10
11.950914
20
13.405556
30
0.0
10
13.000120
20
13.713831
30
0.0
10
14.125919
20
13.808931
30
0.0
10
15.275543
20
13.691377
30
0.0
10
16.396227
20
13.361690
30
0.0
10
17.584979
20
13.035692
30
0.0
10
18.871382
20
13.363101
30
0.0
10
20.076556
20
13.696710
30
0.0
10
21.225425
20
13.807684
30
0.0
10
22.342373
20
13.696014
30
0.0
10
23.451782
20
13.361690
30
0.0
10
24.640534
20
13.035692
30
0.0
10
25.926938
20
13.363101
30
0.0
10
27.120624
20
13.692405
30
0.0
10
28.266281
20
13.809301
30
0.0
10
29.356136
20
13.713715
30
0.0
10
30.382419
20
13.405572
30
0.0
10
31.905420
20
12.982239
30
0.0
10
32.332906
20
12.904686
30
0.0
10
32.694395
20
12.692584
30
0.0
10
33.175192
20
11.988078
30
0.0
10
33.259430
20
11.115415
30
0.0
10
32.858730
20
10.321287
30
0.0
10
32.335901
20
10.000131
30
0.0
10
31.620824
20
9.898689
30
0.0
10
30.700712
20
10.017096
30
0.0
10
29.562778
20
10.355484
30
0.0
10
28.222223
20
10.694853
30
0.0
10
26.881667
20
10.355484
30
0.0
10
25.722963
20
10.014845
30
0.0
10
24.694444
20
9.901298
30
0.0
10
23.665926
20
10.014845
30
0.0
10
22.507222
20
10.355484
30
0.0
10
21.166667
20
10.694853
30
0.0
10
19.826111
20
10.355484
30
0.0
10
17.638889
20
9.875004
30
0.0
10
15.451667
20
10.355484
30
0.0
10
14.111111
20
10.694853
30
0.0
10
12.770556
20
10.355484
30
0.0
10
11.614249
20
10.010224
30
0.0
10
10.706918
20
9.901264
30
0.0
10
10.013314
20
10.029020
30
0.0
10
9.498186
20
10.393906
30
0.0
10
9.498186
20
10.393889
30
0.0
62
0
0
LWPOLYLINE
100
AcDbPolyline
8
Layer_1
90
71
70
0
10
10.724444
20
15.704038
30
0.0
10
8.748889
20
16.219740
30
0.0
10
6.418420
20
16.781943
30
0.0
10
5.683871
20
17.006055
30
0.0
10
5.134492
20
17.370746
30
0.0
10
4.775888
20
17.829573
30
0.0
10
4.613668
20
18.336093
30
0.0
10
4.653437
20
18.843861
30
0.0
10
4.900803
20
19.306433
30
0.0
10
5.361374
20
19.677367
30
0.0
10
6.040755
20
19.910218
30
0.0
10
6.598105
20
20.049145
30
0.0
10
6.930233
20
20.296775
30
0.0
10
7.334043
20
21.689331
30
0.0
10
8.538227
20
26.179229
30
0.0
10
9.934355
20
30.024010
30
0.0
10
10.595063
20
31.131726
30
0.0
10
11.283693
20
31.886704
30
0.0
10
12.035796
20
32.318222
30
0.0
10
12.886921
20
32.455556
30
0.0
10
13.508444
20
32.395382
30
0.0
10
14.075615
20
32.130269
30
0.0
10
15.792527
20
30.477658
30
0.0
10
17.591134
20
28.823775
30
0.0
10
18.275792
20
28.493048
30
0.0
10
18.855843
20
28.506683
30
0.0
10
19.360156
20
28.874845
30
0.0
10
19.817599
20
29.607696
30
0.0
10
20.707347
20
32.208129
30
0.0
10
21.737451
20
35.240380
30
0.0
10
22.273097
20
36.164131
30
0.0
10
22.903740
20
36.865288
30
0.0
10
23.644779
20
37.455852
30
0.0
10
24.365548
20
37.836102
30
0.0
10
25.152805
20
38.039623
30
0.0
10
26.093308
20
38.100000
30
0.0
10
26.810007
20
38.060734
30
0.0
10
27.375696
20
37.901267
30
0.0
10
28.612225
20
36.971702
30
0.0
10
29.473559
20
36.062895
30
0.0
10
30.270348
20
34.952716
30
0.0
10
31.031479
20
33.567807
30
0.0
10
31.785839
20
31.834812
30
0.0
10
33.389799
20
27.031136
30
0.0
10
35.313326
20
19.954833
30
0.0
10
35.688312
20
19.082449
30
0.0
10
36.271889
20
18.624259
30
0.0
10
36.783562
20
18.265156
30
0.0
10
37.097061
20
17.710830
30
0.0
10
37.179366
20
17.061683
30
0.0
10
36.997457
20
16.418115
30
0.0
10
36.527565
20
15.927390
30
0.0
10
35.778712
20
15.690205
30
0.0
10
34.750701
20
15.706535
30
0.0
10
33.443333
20
15.976356
30
0.0
10
31.315443
20
16.518514
30
0.0
10
29.788710
20
16.696464
30
0.0
10
28.227525
20
16.508054
30
0.0
10
25.996279
20
15.951129
30
0.0
10
24.618019
20
15.677458
30
0.0
10
23.313120
20
15.634602
30
0.0
10
21.977765
20
15.828501
30
0.0
10
20.508136
20
16.265093
30
0.0
10
19.271168
20
16.567648
30
0.0
10
17.911037
20
16.666174
30
0.0
10
16.546882
20
16.560962
30
0.0
10
15.297845
20
16.252305
30
0.0
10
12.894504
20
15.721820
30
0.0
10
11.692389
20
15.638300
30
0.0
10
10.724444
20
15.704038
30
0.0
10
10.724444
20
15.704038
30
0.0
  0
ENDSEC
  0
SECTION
  2
OBJECTS
  0
DICTIONARY
  5
C
330
0
100
AcDbDictionary
  3
ACAD_GROUP
350
D
  3
ACAD_MLINESTYLE
350
17
  0
DICTIONARY
  5
D
330
C
100
AcDbDictionary
  0
DICTIONARY
  5
1A
330
C
100
AcDbDictionary
  0
DICTIONARY
  5
17
330
C
100
AcDbDictionary
  3
STANDARD
350
18
  0
DICTIONARY
  5
19
330
C
100
AcDbDictionary
  0
ENDSEC
  0
EOF
