999
Inkscape export via OpenSCAD DXF Export
  0
SECTION
  2
HEADER
  9
$ACADVER
  1
AC1014
  9
$HANDSEED
  5
FFFF
  9
$MEASUREMENT
 70
     1
  0
ENDSEC
  0
SECTION
  2
TABLES
  0
TABLE
  2
VPORT
  5
8
330
0
100
AcDbSymbolTable
 70
     4
  0
VPORT
  5
2E
330
8
100
AcDbSymbolTableRecord
100
AcDbViewportTableRecord
  2
*ACTIVE
 70
     0
 10
0.0
 20
0.0
 11
1.0
 21
1.0
 12
210.0
 22
148.5
 13
0.0
 23
0.0
 14
10.0
 24
10.0
 15
10.0
 25
10.0
 16
0.0
 26
0.0
 36
1.0
 17
0.0
 27
0.0
 37
0.0
 40
341.0
 41
1.24
 42
50.0
 43
0.0
 44
0.0
 50
0.0
 51
0.0
 71
     0
 72
   100
 73
     1
 74
     3
 75
     0
 76
     0
 77
     0
 78
     0
  0
ENDTAB
  0
TABLE
  2
LTYPE
  5
5
330
0
100
AcDbSymbolTable
 70
     1
  0
LTYPE
  5
14
330
5
100
AcDbSymbolTableRecord
100
AcDbLinetypeTableRecord
  2
BYBLOCK
 70
     0
  3

 72
    65
 73
     0
 40
0.0
  0
LTYPE
  5
15
330
5
100
AcDbSymbolTableRecord
100
AcDbLinetypeTableRecord
  2
BYLAYER
 70
     0
  3

 72
    65
 73
     0
 40
0.0
  0
LTYPE
  5
16
330
5
100
AcDbSymbolTableRecord
100
AcDbLinetypeTableRecord
  2
CONTINUOUS
 70
     0
  3
Solid line
 72
    65
 73
     0
 40
0.0
  0
ENDTAB
  0
TABLE
0
TABLE
2
LAYER
5
2
330
0
100
AcDbSymbolTable
70
1
0
LAYER
5
10
330
2
100
AcDbSymbolTableRecord
100
AcDbLayerTableRecord
2
Layer_1
70
0
62
7
6
CONTINUOUS
0
ENDTAB
0
ENDSEC
  0
ENDTAB
  0
TABLE
  2
STYLE
  5
3
330
0
100
AcDbSymbolTable
 70
     1
  0
STYLE
  5
11
330
3
100
AcDbSymbolTableRecord
100
AcDbTextStyleTableRecord
  2
STANDARD
 70
     0
 40
0.0
 41
1.0
 50
0.0
 71
     0
 42
2.5
  3
txt
  4

  0
ENDTAB
  0
TABLE
  2
VIEW
  5
6
330
0
100
AcDbSymbolTable
 70
     0
  0
ENDTAB
  0
TABLE
  2
UCS
  5
7
330
0
100
AcDbSymbolTable
 70
     0
  0
ENDTAB
  0
TABLE
  2
APPID
  5
9
330
0
100
AcDbSymbolTable
 70
     2
  0
APPID
  5
12
330
9
100
AcDbSymbolTableRecord
100
AcDbRegAppTableRecord
  2
ACAD
 70
     0
  0
ENDTAB
  0
TABLE
  2
DIMSTYLE
  5
A
330
0
100
AcDbSymbolTable
 70
     1
  0
DIMSTYLE
105
27
330
A
100
AcDbSymbolTableRecord
100
AcDbDimStyleTableRecord
  2
ISO-25
 70
     0
  3

  4

  5

  6

  7

 40
1.0
 41
2.5
 42
0.625
 43
3.75
 44
1.25
 45
0.0
 46
0.0
 47
0.0
 48
0.0
140
2.5
141
2.5
142
0.0
143
0.03937007874016
144
1.0
145
0.0
146
1.0
147
0.625
 71
     0
 72
     0
 73
     0
 74
     0
 75
     0
 76
     0
 77
     1
 78
     8
170
     0
171
     3
172
     1
173
     0
174
     0
175
     0
176
     0
177
     0
178
     0
270
     2
271
     2
272
     2
273
     2
274
     3
340
11
275
     0
280
     0
281
     0
282
     0
283
     0
284
     8
285
     0
286
     0
287
     3
288
     0
  0
ENDTAB
  0
TABLE
  2
BLOCK_RECORD
  5
1
330
0
100
AcDbSymbolTable
 70
     1
  0
BLOCK_RECORD
  5
1F
330
1
100
AcDbSymbolTableRecord
100
AcDbBlockTableRecord
  2
*MODEL_SPACE
  0
BLOCK_RECORD
  5
1B
330
1
100
AcDbSymbolTableRecord
100
AcDbBlockTableRecord
  2
*PAPER_SPACE
  0
ENDTAB
  0
ENDSEC
  0
SECTION
  2
BLOCKS
  0
BLOCK
  5
20
330
1F
100
AcDbEntity
  8
0
100
AcDbBlockBegin
  2
*MODEL_SPACE
 70
     0
 10
0.0
 20
0.0
 30
0.0
  3
*MODEL_SPACE
  1

  0
ENDBLK
  5
21
330
1F
100
AcDbEntity
  8
0
100
AcDbBlockEnd
  0
BLOCK
  5
1C
330
1B
100
AcDbEntity
 67
     1
  8
0
100
AcDbBlockBegin
  2
*PAPER_SPACE
  1

  0
ENDBLK
  5
1D
330
1B
100
AcDbEntity
 67
     1
  8
0
100
AcDbBlockEnd
  0
ENDSEC
  0
SECTION
  2
ENTITIES
0
DIMENSION
5
83
100
AcDbEntity
62
256
370
-1
6
ByLayer
1
total_width
3
Standard
70
0
71
5
72
1
41
1.0
100
AcDbAlignedDimension
13
2.257778
23
0.000000
33
0.0
14
40.075556
24
0.000000
34
0.0
50
0.000000
100
AcDbRotatedDimension
0
DIMENSION
5
83
100
AcDbEntity
62
256
370
-1
6
ByLayer
1
total_minx
3
Standard
70
0
71
5
72
1
41
1.0
100
AcDbAlignedDimension
13
2.257778
23
0.000000
33
0.0
14
0.000000
24
0.000000
34
0.0
50
0.000000
100
AcDbRotatedDimension
0
DIMENSION
5
83
100
AcDbEntity
62
256
370
-1
6
ByLayer
1
total_maxx
3
Standard
70
0
71
5
72
1
41
1.0
100
AcDbAlignedDimension
13
0.000000
23
0.000000
33
0.0
14
40.075556
24
0.000000
34
0.0
50
0.000000
100
AcDbRotatedDimension
0
DIMENSION
5
83
100
AcDbEntity
62
256
370
-1
6
ByLayer
1
total_height
3
Standard
70
0
71
5
72
1
41
1.0
100
AcDbAlignedDimension
13
0.000000
23
7.337778
33
0.0
14
0.000000
24
34.995556
34
0.0
50
90.000000
100
AcDbRotatedDimension
0
DIMENSION
5
83
100
AcDbEntity
62
256
370
-1
6
ByLayer
1
total_miny
3
Standard
70
0
71
5
72
1
41
1.0
100
AcDbAlignedDimension
13
7.337778
23
0.000000
33
0.0
14
0.000000
24
0.000000
34
0.0
50
0.000000
100
AcDbRotatedDimension
0
DIMENSION
5
83
100
AcDbEntity
62
256
370
-1
6
ByLayer
1
total_maxy
3
Standard
70
0
71
5
72
1
41
1.0
100
AcDbAlignedDimension
13
0.000000
23
0.000000
33
0.0
14
34.995556
24
0.000000
34
0.0
50
0.000000
100
AcDbRotatedDimension
0
DIMENSION
8
Layer_1
5
83
100
AcDbEntity
62
256
370
-1
6
ByLayer
1
Layer_1_width
3
Standard
70
0
71
5
72
1
41
1.0
100
AcDbAlignedDimension
13
2.257778
23
0.000000
33
0.0
14
40.075556
24
0.000000
34
0.0
50
0.000000
100
AcDbRotatedDimension
0
DIMENSION
8
Layer_1
5
83
100
AcDbEntity
62
256
370
-1
6
ByLayer
1
Layer_1_minx
3
Standard
70
0
71
5
72
1
41
1.0
100
AcDbAlignedDimension
13
2.257778
23
0.000000
33
0.0
14
0.000000
24
0.000000
34
0.0
50
0.000000
100
AcDbRotatedDimension
0
DIMENSION
8
Layer_1
5
83
100
AcDbEntity
62
256
370
-1
6
ByLayer
1
Layer_1_maxx
3
Standard
70
0
71
5
72
1
41
1.0
100
AcDbAlignedDimension
13
0.000000
23
0.000000
33
0.0
14
40.075556
24
0.000000
34
0.0
50
0.000000
100
AcDbRotatedDimension
0
DIMENSION
8
Layer_1
5
83
100
AcDbEntity
62
256
370
-1
6
ByLayer
1
Layer_1_height
3
Standard
70
0
71
5
72
1
41
1.0
100
AcDbAlignedDimension
13
0.000000
23
7.337778
33
0.0
14
0.000000
24
34.995556
34
0.0
50
90.000000
100
AcDbRotatedDimension
0
DIMENSION
8
Layer_1
5
83
100
AcDbEntity
62
256
370
-1
6
ByLayer
1
Layer_1_miny
3
Standard
70
0
71
5
72
1
41
1.0
100
AcDbAlignedDimension
13
7.337778
23
0.000000
33
0.0
14
0.000000
24
0.000000
34
0.0
50
0.000000
100
AcDbRotatedDimension
0
DIMENSION
8
Layer_1
5
83
100
AcDbEntity
62
256
370
-1
6
ByLayer
1
Layer_1_maxy
3
Standard
70
0
71
5
72
1
41
1.0
100
AcDbAlignedDimension
13
0.000000
23
0.000000
33
0.0
14
34.995556
24
0.000000
34
0.0
50
0.000000
100
AcDbRotatedDimension
62
0
0
LWPOLYLINE
100
AcDbPolyline
8
Layer_1
90
10
70
0
10
10.724444
20
7.503250
30
0.0
10
11.332389
20
9.761028
30
0.0
10
11.940335
20
11.853333
30
0.0
10
21.166667
20
11.853333
30
0.0
10
30.392999
20
11.853333
30
0.0
10
31.000943
20
9.761028
30
0.0
10
31.608889
20
7.503250
30
0.0
10
21.166667
20
7.337778
30
0.0
10
10.724444
20
7.503250
30
0.0
10
10.724444
20
7.503250
30
0.0
62
0
0
LWPOLYLINE
100
AcDbPolyline
8
Layer_1
90
12
70
0
10
5.997222
20
9.923532
30
0.0
10
3.668889
20
11.812030
30
0.0
10
5.814029
20
13.073225
30
0.0
10
7.959169
20
14.134669
30
0.0
10
8.901245
20
13.416113
30
0.0
10
9.843321
20
12.697556
30
0.0
10
9.198924
20
10.793778
30
0.0
10
8.440041
20
8.562391
30
0.0
10
8.221576
20
8.555373
30
0.0
10
7.704112
20
8.800790
30
0.0
10
5.997222
20
9.923532
30
0.0
10
5.997222
20
9.923532
30
0.0
62
0
0
LWPOLYLINE
100
AcDbPolyline
8
Layer_1
90
10
70
0
10
33.241796
20
10.455904
30
0.0
10
32.503528
20
12.707866
30
0.0
10
33.438846
20
13.421267
30
0.0
10
34.374164
20
14.134669
30
0.0
10
36.519304
20
13.073225
30
0.0
10
38.664444
20
11.815482
30
0.0
10
37.182778
20
10.549478
30
0.0
10
34.840587
20
8.841859
30
0.0
10
33.980064
20
8.203943
30
0.0
10
33.241796
20
10.455904
30
0.0
62
0
0
LWPOLYLINE
100
AcDbPolyline
8
Layer_1
90
12
70
0
10
2.257778
20
21.166667
30
0.0
10
2.315027
20
26.149653
30
0.0
10
2.452670
20
28.222222
30
0.0
10
4.709237
20
27.163889
30
0.0
10
6.770912
20
26.105556
30
0.0
10
6.770912
20
21.166667
30
0.0
10
6.770912
20
16.227778
30
0.0
10
4.709237
20
15.169444
30
0.0
10
2.452670
20
14.111111
30
0.0
10
2.315027
20
16.183681
30
0.0
10
2.257778
20
21.166667
30
0.0
10
2.257778
20
21.166667
30
0.0
62
0
0
LWPOLYLINE
100
AcDbPolyline
8
Layer_1
90
13
70
0
10
37.465770
20
15.206613
30
0.0
10
35.561538
20
16.227778
30
0.0
10
35.562103
20
21.166667
30
0.0
10
35.562667
20
26.105556
30
0.0
10
37.624343
20
27.163889
30
0.0
10
39.880664
20
28.222222
30
0.0
10
40.018306
20
26.149653
30
0.0
10
40.075556
20
21.166667
30
0.0
10
40.001844
20
15.593110
30
0.0
10
39.893411
20
14.462653
30
0.0
10
39.722778
20
14.148280
30
0.0
10
37.465770
20
15.206613
30
0.0
10
37.465770
20
15.206613
30
0.0
62
0
0
LWPOLYLINE
100
AcDbPolyline
8
Layer_1
90
17
70
0
10
10.230556
20
15.301618
30
0.0
10
9.031111
20
16.187540
30
0.0
10
9.031111
20
21.169261
30
0.0
10
9.031111
20
26.150982
30
0.0
10
10.276693
20
27.045491
30
0.0
10
11.522274
20
27.940000
30
0.0
10
21.166667
20
27.940000
30
0.0
10
30.811058
20
27.940000
30
0.0
10
32.056640
20
27.045491
30
0.0
10
33.302222
20
26.150982
30
0.0
10
33.302222
20
21.166667
30
0.0
10
33.302222
20
16.182351
30
0.0
10
32.056640
20
15.287842
30
0.0
10
30.811058
20
14.393333
30
0.0
10
21.120530
20
14.404515
30
0.0
10
11.430000
20
14.415696
30
0.0
10
10.230556
20
15.301618
30
0.0
62
0
0
LWPOLYLINE
100
AcDbPolyline
8
Layer_1
90
14
70
0
10
26.903029
20
19.047611
30
0.0
10
24.694444
20
21.161888
30
0.0
10
26.747694
20
23.069277
30
0.0
10
28.793804
20
25.188333
30
0.0
10
26.490286
20
25.337823
30
0.0
10
20.962063
20
25.400000
30
0.0
10
13.137460
20
25.400000
30
0.0
10
15.240000
20
23.283333
30
0.0
10
17.342540
20
21.166667
30
0.0
10
15.240000
20
19.050000
30
0.0
10
13.137460
20
16.933333
30
0.0
10
21.124537
20
16.933333
30
0.0
10
29.111615
20
16.933333
30
0.0
10
26.903029
20
19.047611
30
0.0
62
0
0
LWPOLYLINE
100
AcDbPolyline
8
Layer_1
90
10
70
0
10
5.715000
20
29.288437
30
0.0
10
3.668889
20
30.521078
30
0.0
10
5.997222
20
32.409681
30
0.0
10
8.325556
20
34.098308
30
0.0
10
9.076843
20
31.936376
30
0.0
10
9.828130
20
29.774444
30
0.0
10
8.946393
20
28.998333
30
0.0
10
7.912883
20
28.238997
30
0.0
10
5.715000
20
29.288437
30
0.0
10
5.715000
20
29.288437
30
0.0
62
0
0
LWPOLYLINE
100
AcDbPolyline
8
Layer_1
90
10
70
0
10
33.386940
20
28.998333
30
0.0
10
32.505204
20
29.774444
30
0.0
10
33.256491
20
31.936376
30
0.0
10
34.007778
20
34.098308
30
0.0
10
36.336111
20
32.409681
30
0.0
10
38.664444
20
30.521303
30
0.0
10
36.616354
20
29.312402
30
0.0
10
34.345225
20
28.222222
30
0.0
10
33.386940
20
28.998333
30
0.0
10
33.386940
20
28.998333
30
0.0
62
0
0
LWPOLYLINE
100
AcDbPolyline
8
Layer_1
90
9
70
0
10
11.332389
20
32.572306
30
0.0
10
10.724444
20
34.830084
30
0.0
10
21.166667
20
34.995556
30
0.0
10
31.608889
20
34.830084
30
0.0
10
31.000943
20
32.572306
30
0.0
10
30.392999
20
30.480000
30
0.0
10
21.166667
20
30.480000
30
0.0
10
11.940335
20
30.480000
30
0.0
10
11.332389
20
32.572306
30
0.0
  0
ENDSEC
  0
SECTION
  2
OBJECTS
  0
DICTIONARY
  5
C
330
0
100
AcDbDictionary
  3
ACAD_GROUP
350
D
  3
ACAD_MLINESTYLE
350
17
  0
DICTIONARY
  5
D
330
C
100
AcDbDictionary
  0
DICTIONARY
  5
1A
330
C
100
AcDbDictionary
  0
DICTIONARY
  5
17
330
C
100
AcDbDictionary
  3
STANDARD
350
18
  0
DICTIONARY
  5
19
330
C
100
AcDbDictionary
  0
ENDSEC
  0
EOF
