999
Inkscape export via OpenSCAD DXF Export
  0
SECTION
  2
HEADER
  9
$ACADVER
  1
AC1014
  9
$HANDSEED
  5
FFFF
  9
$MEASUREMENT
 70
     1
  0
ENDSEC
  0
SECTION
  2
TABLES
  0
TABLE
  2
VPORT
  5
8
330
0
100
AcDbSymbolTable
 70
     4
  0
VPORT
  5
2E
330
8
100
AcDbSymbolTableRecord
100
AcDbViewportTableRecord
  2
*ACTIVE
 70
     0
 10
0.0
 20
0.0
 11
1.0
 21
1.0
 12
210.0
 22
148.5
 13
0.0
 23
0.0
 14
10.0
 24
10.0
 15
10.0
 25
10.0
 16
0.0
 26
0.0
 36
1.0
 17
0.0
 27
0.0
 37
0.0
 40
341.0
 41
1.24
 42
50.0
 43
0.0
 44
0.0
 50
0.0
 51
0.0
 71
     0
 72
   100
 73
     1
 74
     3
 75
     0
 76
     0
 77
     0
 78
     0
  0
ENDTAB
  0
TABLE
  2
LTYPE
  5
5
330
0
100
AcDbSymbolTable
 70
     1
  0
LTYPE
  5
14
330
5
100
AcDbSymbolTableRecord
100
AcDbLinetypeTableRecord
  2
BYBLOCK
 70
     0
  3

 72
    65
 73
     0
 40
0.0
  0
LTYPE
  5
15
330
5
100
AcDbSymbolTableRecord
100
AcDbLinetypeTableRecord
  2
BYLAYER
 70
     0
  3

 72
    65
 73
     0
 40
0.0
  0
LTYPE
  5
16
330
5
100
AcDbSymbolTableRecord
100
AcDbLinetypeTableRecord
  2
CONTINUOUS
 70
     0
  3
Solid line
 72
    65
 73
     0
 40
0.0
  0
ENDTAB
  0
TABLE
0
TABLE
2
LAYER
5
2
330
0
100
AcDbSymbolTable
70
1
0
LAYER
5
10
330
2
100
AcDbSymbolTableRecord
100
AcDbLayerTableRecord
2
Layer_1
70
0
62
7
6
CONTINUOUS
0
ENDTAB
0
ENDSEC
  0
ENDTAB
  0
TABLE
  2
STYLE
  5
3
330
0
100
AcDbSymbolTable
 70
     1
  0
STYLE
  5
11
330
3
100
AcDbSymbolTableRecord
100
AcDbTextStyleTableRecord
  2
STANDARD
 70
     0
 40
0.0
 41
1.0
 50
0.0
 71
     0
 42
2.5
  3
txt
  4

  0
ENDTAB
  0
TABLE
  2
VIEW
  5
6
330
0
100
AcDbSymbolTable
 70
     0
  0
ENDTAB
  0
TABLE
  2
UCS
  5
7
330
0
100
AcDbSymbolTable
 70
     0
  0
ENDTAB
  0
TABLE
  2
APPID
  5
9
330
0
100
AcDbSymbolTable
 70
     2
  0
APPID
  5
12
330
9
100
AcDbSymbolTableRecord
100
AcDbRegAppTableRecord
  2
ACAD
 70
     0
  0
ENDTAB
  0
TABLE
  2
DIMSTYLE
  5
A
330
0
100
AcDbSymbolTable
 70
     1
  0
DIMSTYLE
105
27
330
A
100
AcDbSymbolTableRecord
100
AcDbDimStyleTableRecord
  2
ISO-25
 70
     0
  3

  4

  5

  6

  7

 40
1.0
 41
2.5
 42
0.625
 43
3.75
 44
1.25
 45
0.0
 46
0.0
 47
0.0
 48
0.0
140
2.5
141
2.5
142
0.0
143
0.03937007874016
144
1.0
145
0.0
146
1.0
147
0.625
 71
     0
 72
     0
 73
     0
 74
     0
 75
     0
 76
     0
 77
     1
 78
     8
170
     0
171
     3
172
     1
173
     0
174
     0
175
     0
176
     0
177
     0
178
     0
270
     2
271
     2
272
     2
273
     2
274
     3
340
11
275
     0
280
     0
281
     0
282
     0
283
     0
284
     8
285
     0
286
     0
287
     3
288
     0
  0
ENDTAB
  0
TABLE
  2
BLOCK_RECORD
  5
1
330
0
100
AcDbSymbolTable
 70
     1
  0
BLOCK_RECORD
  5
1F
330
1
100
AcDbSymbolTableRecord
100
AcDbBlockTableRecord
  2
*MODEL_SPACE
  0
BLOCK_RECORD
  5
1B
330
1
100
AcDbSymbolTableRecord
100
AcDbBlockTableRecord
  2
*PAPER_SPACE
  0
ENDTAB
  0
ENDSEC
  0
SECTION
  2
BLOCKS
  0
BLOCK
  5
20
330
1F
100
AcDbEntity
  8
0
100
AcDbBlockBegin
  2
*MODEL_SPACE
 70
     0
 10
0.0
 20
0.0
 30
0.0
  3
*MODEL_SPACE
  1

  0
ENDBLK
  5
21
330
1F
100
AcDbEntity
  8
0
100
AcDbBlockEnd
  0
BLOCK
  5
1C
330
1B
100
AcDbEntity
 67
     1
  8
0
100
AcDbBlockBegin
  2
*PAPER_SPACE
  1

  0
ENDBLK
  5
1D
330
1B
100
AcDbEntity
 67
     1
  8
0
100
AcDbBlockEnd
  0
ENDSEC
  0
SECTION
  2
ENTITIES
0
DIMENSION
5
83
100
AcDbEntity
62
256
370
-1
6
ByLayer
1
total_width
3
Standard
70
0
71
5
72
1
41
1.0
100
AcDbAlignedDimension
13
1.938064
23
0.000000
33
0.0
14
19.228603
24
0.000000
34
0.0
50
0.000000
100
AcDbRotatedDimension
0
DIMENSION
5
83
100
AcDbEntity
62
256
370
-1
6
ByLayer
1
total_minx
3
Standard
70
0
71
5
72
1
41
1.0
100
AcDbAlignedDimension
13
1.938064
23
0.000000
33
0.0
14
0.000000
24
0.000000
34
0.0
50
0.000000
100
AcDbRotatedDimension
0
DIMENSION
5
83
100
AcDbEntity
62
256
370
-1
6
ByLayer
1
total_maxx
3
Standard
70
0
71
5
72
1
41
1.0
100
AcDbAlignedDimension
13
0.000000
23
0.000000
33
0.0
14
19.228603
24
0.000000
34
0.0
50
0.000000
100
AcDbRotatedDimension
0
DIMENSION
5
83
100
AcDbEntity
62
256
370
-1
6
ByLayer
1
total_height
3
Standard
70
0
71
5
72
1
41
1.0
100
AcDbAlignedDimension
13
0.000000
23
2.052821
33
0.0
14
0.000000
24
19.027857
34
0.0
50
90.000000
100
AcDbRotatedDimension
0
DIMENSION
5
83
100
AcDbEntity
62
256
370
-1
6
ByLayer
1
total_miny
3
Standard
70
0
71
5
72
1
41
1.0
100
AcDbAlignedDimension
13
2.052821
23
0.000000
33
0.0
14
0.000000
24
0.000000
34
0.0
50
0.000000
100
AcDbRotatedDimension
0
DIMENSION
5
83
100
AcDbEntity
62
256
370
-1
6
ByLayer
1
total_maxy
3
Standard
70
0
71
5
72
1
41
1.0
100
AcDbAlignedDimension
13
0.000000
23
0.000000
33
0.0
14
19.027857
24
0.000000
34
0.0
50
0.000000
100
AcDbRotatedDimension
0
DIMENSION
8
Layer_1
5
83
100
AcDbEntity
62
256
370
-1
6
ByLayer
1
Layer_1_width
3
Standard
70
0
71
5
72
1
41
1.0
100
AcDbAlignedDimension
13
1.938064
23
0.000000
33
0.0
14
19.228603
24
0.000000
34
0.0
50
0.000000
100
AcDbRotatedDimension
0
DIMENSION
8
Layer_1
5
83
100
AcDbEntity
62
256
370
-1
6
ByLayer
1
Layer_1_minx
3
Standard
70
0
71
5
72
1
41
1.0
100
AcDbAlignedDimension
13
1.938064
23
0.000000
33
0.0
14
0.000000
24
0.000000
34
0.0
50
0.000000
100
AcDbRotatedDimension
0
DIMENSION
8
Layer_1
5
83
100
AcDbEntity
62
256
370
-1
6
ByLayer
1
Layer_1_maxx
3
Standard
70
0
71
5
72
1
41
1.0
100
AcDbAlignedDimension
13
0.000000
23
0.000000
33
0.0
14
19.228603
24
0.000000
34
0.0
50
0.000000
100
AcDbRotatedDimension
0
DIMENSION
8
Layer_1
5
83
100
AcDbEntity
62
256
370
-1
6
ByLayer
1
Layer_1_height
3
Standard
70
0
71
5
72
1
41
1.0
100
AcDbAlignedDimension
13
0.000000
23
2.052821
33
0.0
14
0.000000
24
19.027857
34
0.0
50
90.000000
100
AcDbRotatedDimension
0
DIMENSION
8
Layer_1
5
83
100
AcDbEntity
62
256
370
-1
6
ByLayer
1
Layer_1_miny
3
Standard
70
0
71
5
72
1
41
1.0
100
AcDbAlignedDimension
13
2.052821
23
0.000000
33
0.0
14
0.000000
24
0.000000
34
0.0
50
0.000000
100
AcDbRotatedDimension
0
DIMENSION
8
Layer_1
5
83
100
AcDbEntity
62
256
370
-1
6
ByLayer
1
Layer_1_maxy
3
Standard
70
0
71
5
72
1
41
1.0
100
AcDbAlignedDimension
13
0.000000
23
0.000000
33
0.0
14
19.027857
24
0.000000
34
0.0
50
0.000000
100
AcDbRotatedDimension
62
0
0
LWPOLYLINE
100
AcDbPolyline
8
Layer_1
90
34
70
0
10
8.325556
20
2.351560
30
0.0
10
6.335494
20
3.196314
30
0.0
10
4.703961
20
4.478368
30
0.0
10
3.367399
20
6.052686
30
0.0
10
2.967859
20
6.768511
30
0.0
10
2.822222
20
7.323763
30
0.0
10
3.217925
20
7.534134
30
0.0
10
4.187397
20
7.620000
30
0.0
10
4.946703
20
7.584032
30
0.0
10
5.520487
20
7.430904
30
0.0
10
6.728022
20
6.501821
30
0.0
10
7.794772
20
5.674936
30
0.0
10
8.949477
20
5.133405
30
0.0
10
10.175748
20
4.882680
30
0.0
10
11.457194
20
4.928215
30
0.0
10
12.506084
20
5.256240
30
0.0
10
13.648510
20
5.856046
30
0.0
10
14.616553
20
6.561884
30
0.0
10
15.142292
20
7.208005
30
0.0
10
15.721902
20
7.500581
30
0.0
10
16.813833
20
7.630595
30
0.0
10
17.870533
20
7.578254
30
0.0
10
18.214559
20
7.477514
30
0.0
10
18.344444
20
7.323763
30
0.0
10
18.199344
20
6.771164
30
0.0
10
17.800699
20
6.053687
30
0.0
10
16.462705
20
4.458928
30
0.0
10
15.619611
20
3.759589
30
0.0
10
14.666326
20
3.169139
30
0.0
10
12.550108
20
2.346225
30
0.0
10
10.355901
20
2.052821
30
0.0
10
9.305130
20
2.124258
30
0.0
10
8.325556
20
2.351560
30
0.0
10
8.325556
20
2.351560
30
0.0
62
0
0
LWPOLYLINE
100
AcDbPolyline
8
Layer_1
90
38
70
0
10
9.689511
20
7.386104
30
0.0
10
8.832528
20
7.822971
30
0.0
10
8.027277
20
8.539228
30
0.0
10
7.541553
20
9.057678
30
0.0
10
7.009786
20
9.347485
30
0.0
10
4.687766
20
9.595556
30
0.0
10
2.432604
20
9.817503
30
0.0
10
2.121154
20
10.063772
30
0.0
10
2.027365
20
10.512778
30
0.0
10
1.938064
20
11.288889
30
0.0
10
4.644906
20
11.288889
30
0.0
10
7.004645
20
11.383494
30
0.0
10
7.404633
20
11.583333
30
0.0
10
7.605909
20
11.957382
30
0.0
10
8.092823
20
12.767629
30
0.0
10
8.800402
20
13.346378
30
0.0
10
9.655090
20
13.693626
30
0.0
10
10.583333
20
13.809376
30
0.0
10
11.511577
20
13.693626
30
0.0
10
12.366265
20
13.346378
30
0.0
10
13.073844
20
12.767629
30
0.0
10
13.560758
20
11.957382
30
0.0
10
13.762034
20
11.583333
30
0.0
10
14.162022
20
11.383494
30
0.0
10
16.521760
20
11.288889
30
0.0
10
19.228603
20
11.288889
30
0.0
10
19.139301
20
10.512778
30
0.0
10
19.047817
20
10.063280
30
0.0
10
18.744758
20
9.823788
30
0.0
10
16.529771
20
9.654383
30
0.0
10
14.225263
20
9.454479
30
0.0
10
13.683230
20
9.152406
30
0.0
10
13.143104
20
8.588103
30
0.0
10
12.362600
20
7.874625
30
0.0
10
11.521900
20
7.434748
30
0.0
10
10.628403
20
7.271050
30
0.0
10
9.689511
20
7.386104
30
0.0
10
9.689511
20
7.386104
30
0.0
62
0
0
LWPOLYLINE
100
AcDbPolyline
8
Layer_1
90
29
70
0
10
3.074795
20
14.605000
30
0.0
10
3.778505
20
15.659242
30
0.0
10
4.703308
20
16.707739
30
0.0
10
6.324065
20
17.926543
30
0.0
10
8.128798
20
18.695495
30
0.0
10
10.033064
20
19.027857
30
0.0
10
11.952419
20
18.936892
30
0.0
10
13.802421
20
18.435861
30
0.0
10
15.498626
20
17.538028
30
0.0
10
16.956591
20
16.256653
30
0.0
10
18.091872
20
14.605000
30
0.0
10
18.638138
20
13.546667
30
0.0
10
17.126117
20
13.546667
30
0.0
10
16.280033
20
13.578148
30
0.0
10
15.674449
20
13.720751
30
0.0
10
15.132437
20
14.046720
30
0.0
10
14.477068
20
14.628295
30
0.0
10
13.387814
20
15.457079
30
0.0
10
12.174876
20
16.015029
30
0.0
10
10.901907
20
16.281045
30
0.0
10
9.632562
20
16.234030
30
0.0
10
8.607687
20
15.895539
30
0.0
10
7.487861
20
15.291965
30
0.0
10
6.538339
20
14.590582
30
0.0
10
6.024375
20
13.958662
30
0.0
10
5.519170
20
13.641324
30
0.0
10
4.197403
20
13.546667
30
0.0
10
2.528528
20
13.546667
30
0.0
10
3.074795
20
14.605000
30
0.0
  0
ENDSEC
  0
SECTION
  2
OBJECTS
  0
DICTIONARY
  5
C
330
0
100
AcDbDictionary
  3
ACAD_GROUP
350
D
  3
ACAD_MLINESTYLE
350
17
  0
DICTIONARY
  5
D
330
C
100
AcDbDictionary
  0
DICTIONARY
  5
1A
330
C
100
AcDbDictionary
  0
DICTIONARY
  5
17
330
C
100
AcDbDictionary
  3
STANDARD
350
18
  0
DICTIONARY
  5
19
330
C
100
AcDbDictionary
  0
ENDSEC
  0
EOF
