999
Inkscape export via OpenSCAD DXF Export
  0
SECTION
  2
HEADER
  9
$ACADVER
  1
AC1014
  9
$HANDSEED
  5
FFFF
  9
$MEASUREMENT
 70
     1
  0
ENDSEC
  0
SECTION
  2
TABLES
  0
TABLE
  2
VPORT
  5
8
330
0
100
AcDbSymbolTable
 70
     4
  0
VPORT
  5
2E
330
8
100
AcDbSymbolTableRecord
100
AcDbViewportTableRecord
  2
*ACTIVE
 70
     0
 10
0.0
 20
0.0
 11
1.0
 21
1.0
 12
210.0
 22
148.5
 13
0.0
 23
0.0
 14
10.0
 24
10.0
 15
10.0
 25
10.0
 16
0.0
 26
0.0
 36
1.0
 17
0.0
 27
0.0
 37
0.0
 40
341.0
 41
1.24
 42
50.0
 43
0.0
 44
0.0
 50
0.0
 51
0.0
 71
     0
 72
   100
 73
     1
 74
     3
 75
     0
 76
     0
 77
     0
 78
     0
  0
ENDTAB
  0
TABLE
  2
LTYPE
  5
5
330
0
100
AcDbSymbolTable
 70
     1
  0
LTYPE
  5
14
330
5
100
AcDbSymbolTableRecord
100
AcDbLinetypeTableRecord
  2
BYBLOCK
 70
     0
  3

 72
    65
 73
     0
 40
0.0
  0
LTYPE
  5
15
330
5
100
AcDbSymbolTableRecord
100
AcDbLinetypeTableRecord
  2
BYLAYER
 70
     0
  3

 72
    65
 73
     0
 40
0.0
  0
LTYPE
  5
16
330
5
100
AcDbSymbolTableRecord
100
AcDbLinetypeTableRecord
  2
CONTINUOUS
 70
     0
  3
Solid line
 72
    65
 73
     0
 40
0.0
  0
ENDTAB
  0
TABLE
0
TABLE
2
LAYER
5
2
330
0
100
AcDbSymbolTable
70
1
0
LAYER
5
10
330
2
100
AcDbSymbolTableRecord
100
AcDbLayerTableRecord
2
Layer_1
70
0
62
7
6
CONTINUOUS
0
ENDTAB
0
ENDSEC
  0
ENDTAB
  0
TABLE
  2
STYLE
  5
3
330
0
100
AcDbSymbolTable
 70
     1
  0
STYLE
  5
11
330
3
100
AcDbSymbolTableRecord
100
AcDbTextStyleTableRecord
  2
STANDARD
 70
     0
 40
0.0
 41
1.0
 50
0.0
 71
     0
 42
2.5
  3
txt
  4

  0
ENDTAB
  0
TABLE
  2
VIEW
  5
6
330
0
100
AcDbSymbolTable
 70
     0
  0
ENDTAB
  0
TABLE
  2
UCS
  5
7
330
0
100
AcDbSymbolTable
 70
     0
  0
ENDTAB
  0
TABLE
  2
APPID
  5
9
330
0
100
AcDbSymbolTable
 70
     2
  0
APPID
  5
12
330
9
100
AcDbSymbolTableRecord
100
AcDbRegAppTableRecord
  2
ACAD
 70
     0
  0
ENDTAB
  0
TABLE
  2
DIMSTYLE
  5
A
330
0
100
AcDbSymbolTable
 70
     1
  0
DIMSTYLE
105
27
330
A
100
AcDbSymbolTableRecord
100
AcDbDimStyleTableRecord
  2
ISO-25
 70
     0
  3

  4

  5

  6

  7

 40
1.0
 41
2.5
 42
0.625
 43
3.75
 44
1.25
 45
0.0
 46
0.0
 47
0.0
 48
0.0
140
2.5
141
2.5
142
0.0
143
0.03937007874016
144
1.0
145
0.0
146
1.0
147
0.625
 71
     0
 72
     0
 73
     0
 74
     0
 75
     0
 76
     0
 77
     1
 78
     8
170
     0
171
     3
172
     1
173
     0
174
     0
175
     0
176
     0
177
     0
178
     0
270
     2
271
     2
272
     2
273
     2
274
     3
340
11
275
     0
280
     0
281
     0
282
     0
283
     0
284
     8
285
     0
286
     0
287
     3
288
     0
  0
ENDTAB
  0
TABLE
  2
BLOCK_RECORD
  5
1
330
0
100
AcDbSymbolTable
 70
     1
  0
BLOCK_RECORD
  5
1F
330
1
100
AcDbSymbolTableRecord
100
AcDbBlockTableRecord
  2
*MODEL_SPACE
  0
BLOCK_RECORD
  5
1B
330
1
100
AcDbSymbolTableRecord
100
AcDbBlockTableRecord
  2
*PAPER_SPACE
  0
ENDTAB
  0
ENDSEC
  0
SECTION
  2
BLOCKS
  0
BLOCK
  5
20
330
1F
100
AcDbEntity
  8
0
100
AcDbBlockBegin
  2
*MODEL_SPACE
 70
     0
 10
0.0
 20
0.0
 30
0.0
  3
*MODEL_SPACE
  1

  0
ENDBLK
  5
21
330
1F
100
AcDbEntity
  8
0
100
AcDbBlockEnd
  0
BLOCK
  5
1C
330
1B
100
AcDbEntity
 67
     1
  8
0
100
AcDbBlockBegin
  2
*PAPER_SPACE
  1

  0
ENDBLK
  5
1D
330
1B
100
AcDbEntity
 67
     1
  8
0
100
AcDbBlockEnd
  0
ENDSEC
  0
SECTION
  2
ENTITIES
0
DIMENSION
5
83
100
AcDbEntity
62
256
370
-1
6
ByLayer
1
total_width
3
Standard
70
0
71
5
72
1
41
1.0
100
AcDbAlignedDimension
13
1.693333
23
0.000000
33
0.0
14
19.473333
24
0.000000
34
0.0
50
0.000000
100
AcDbRotatedDimension
0
DIMENSION
5
83
100
AcDbEntity
62
256
370
-1
6
ByLayer
1
total_minx
3
Standard
70
0
71
5
72
1
41
1.0
100
AcDbAlignedDimension
13
1.693333
23
0.000000
33
0.0
14
0.000000
24
0.000000
34
0.0
50
0.000000
100
AcDbRotatedDimension
0
DIMENSION
5
83
100
AcDbEntity
62
256
370
-1
6
ByLayer
1
total_maxx
3
Standard
70
0
71
5
72
1
41
1.0
100
AcDbAlignedDimension
13
0.000000
23
0.000000
33
0.0
14
19.473333
24
0.000000
34
0.0
50
0.000000
100
AcDbRotatedDimension
0
DIMENSION
5
83
100
AcDbEntity
62
256
370
-1
6
ByLayer
1
total_height
3
Standard
70
0
71
5
72
1
41
1.0
100
AcDbAlignedDimension
13
0.000000
23
2.822222
33
0.0
14
0.000000
24
18.626667
34
0.0
50
90.000000
100
AcDbRotatedDimension
0
DIMENSION
5
83
100
AcDbEntity
62
256
370
-1
6
ByLayer
1
total_miny
3
Standard
70
0
71
5
72
1
41
1.0
100
AcDbAlignedDimension
13
2.822222
23
0.000000
33
0.0
14
0.000000
24
0.000000
34
0.0
50
0.000000
100
AcDbRotatedDimension
0
DIMENSION
5
83
100
AcDbEntity
62
256
370
-1
6
ByLayer
1
total_maxy
3
Standard
70
0
71
5
72
1
41
1.0
100
AcDbAlignedDimension
13
0.000000
23
0.000000
33
0.0
14
18.626667
24
0.000000
34
0.0
50
0.000000
100
AcDbRotatedDimension
0
DIMENSION
8
Layer_1
5
83
100
AcDbEntity
62
256
370
-1
6
ByLayer
1
Layer_1_width
3
Standard
70
0
71
5
72
1
41
1.0
100
AcDbAlignedDimension
13
1.693333
23
0.000000
33
0.0
14
19.473333
24
0.000000
34
0.0
50
0.000000
100
AcDbRotatedDimension
0
DIMENSION
8
Layer_1
5
83
100
AcDbEntity
62
256
370
-1
6
ByLayer
1
Layer_1_minx
3
Standard
70
0
71
5
72
1
41
1.0
100
AcDbAlignedDimension
13
1.693333
23
0.000000
33
0.0
14
0.000000
24
0.000000
34
0.0
50
0.000000
100
AcDbRotatedDimension
0
DIMENSION
8
Layer_1
5
83
100
AcDbEntity
62
256
370
-1
6
ByLayer
1
Layer_1_maxx
3
Standard
70
0
71
5
72
1
41
1.0
100
AcDbAlignedDimension
13
0.000000
23
0.000000
33
0.0
14
19.473333
24
0.000000
34
0.0
50
0.000000
100
AcDbRotatedDimension
0
DIMENSION
8
Layer_1
5
83
100
AcDbEntity
62
256
370
-1
6
ByLayer
1
Layer_1_height
3
Standard
70
0
71
5
72
1
41
1.0
100
AcDbAlignedDimension
13
0.000000
23
2.822222
33
0.0
14
0.000000
24
18.626667
34
0.0
50
90.000000
100
AcDbRotatedDimension
0
DIMENSION
8
Layer_1
5
83
100
AcDbEntity
62
256
370
-1
6
ByLayer
1
Layer_1_miny
3
Standard
70
0
71
5
72
1
41
1.0
100
AcDbAlignedDimension
13
2.822222
23
0.000000
33
0.0
14
0.000000
24
0.000000
34
0.0
50
0.000000
100
AcDbRotatedDimension
0
DIMENSION
8
Layer_1
5
83
100
AcDbEntity
62
256
370
-1
6
ByLayer
1
Layer_1_maxy
3
Standard
70
0
71
5
72
1
41
1.0
100
AcDbAlignedDimension
13
0.000000
23
0.000000
33
0.0
14
18.626667
24
0.000000
34
0.0
50
0.000000
100
AcDbRotatedDimension
62
0
0
LWPOLYLINE
100
AcDbPolyline
8
Layer_1
90
18
70
0
10
5.644444
20
3.386667
30
0.0
10
5.245806
20
3.951111
30
0.0
10
5.080000
20
4.515556
30
0.0
10
5.235625
20
5.051767
30
0.0
10
5.621181
20
5.603670
30
0.0
10
6.114687
20
6.034848
30
0.0
10
6.594162
20
6.208889
30
0.0
10
7.155314
20
6.023042
30
0.0
10
7.769146
20
5.570480
30
0.0
10
8.263612
20
5.008668
30
0.0
10
8.466667
20
4.495072
30
0.0
10
8.303076
20
3.934376
30
0.0
10
7.889314
20
3.392591
30
0.0
10
7.340895
20
2.983834
30
0.0
10
6.773333
20
2.822222
30
0.0
10
6.208889
20
2.988028
30
0.0
10
5.644444
20
3.386667
30
0.0
10
5.644444
20
3.386667
30
0.0
62
0
0
LWPOLYLINE
100
AcDbPolyline
8
Layer_1
90
18
70
0
10
13.264444
20
3.386667
30
0.0
10
12.865806
20
3.945094
30
0.0
10
12.700000
20
4.495072
30
0.0
10
12.903055
20
5.008668
30
0.0
10
13.397521
20
5.570480
30
0.0
10
14.011353
20
6.023042
30
0.0
10
14.572505
20
6.208889
30
0.0
10
15.051980
20
6.034848
30
0.0
10
15.545485
20
5.603670
30
0.0
10
15.931041
20
5.051767
30
0.0
10
16.086667
20
4.515556
30
0.0
10
15.920861
20
3.951111
30
0.0
10
15.522222
20
3.386667
30
0.0
10
14.957778
20
2.988028
30
0.0
10
14.393333
20
2.822222
30
0.0
10
13.828889
20
2.988028
30
0.0
10
13.264444
20
3.386667
30
0.0
10
13.264444
20
3.386667
30
0.0
62
0
0
LWPOLYLINE
100
AcDbPolyline
8
Layer_1
90
9
70
0
10
6.910901
20
10.653889
30
0.0
10
8.130650
20
13.687778
30
0.0
10
10.583333
20
13.687778
30
0.0
10
13.036017
20
13.687778
30
0.0
10
14.255766
20
10.653889
30
0.0
10
15.475516
20
7.620000
30
0.0
10
10.583333
20
7.620000
30
0.0
10
5.691151
20
7.620000
30
0.0
10
6.910901
20
10.653889
30
0.0
62
0
0
LWPOLYLINE
100
AcDbPolyline
8
Layer_1
90
18
70
0
10
2.257778
20
9.595556
30
0.0
10
1.859139
20
10.160000
30
0.0
10
1.693333
20
10.724444
30
0.0
10
1.855699
20
11.295681
30
0.0
10
2.267420
20
11.843692
30
0.0
10
2.815430
20
12.255412
30
0.0
10
3.386667
20
12.417778
30
0.0
10
3.957903
20
12.255412
30
0.0
10
4.505914
20
11.843692
30
0.0
10
4.917634
20
11.295681
30
0.0
10
5.080000
20
10.724444
30
0.0
10
4.917634
20
10.153208
30
0.0
10
4.505914
20
9.605197
30
0.0
10
3.957903
20
9.193477
30
0.0
10
3.386667
20
9.031111
30
0.0
10
2.822222
20
9.196917
30
0.0
10
2.257778
20
9.595556
30
0.0
10
2.257778
20
9.595556
30
0.0
62
0
0
LWPOLYLINE
100
AcDbPolyline
8
Layer_1
90
18
70
0
10
16.651111
20
9.595556
30
0.0
10
16.252472
20
10.160000
30
0.0
10
16.086667
20
10.724444
30
0.0
10
16.252472
20
11.288889
30
0.0
10
16.651111
20
11.853333
30
0.0
10
17.215556
20
12.251972
30
0.0
10
17.780000
20
12.417778
30
0.0
10
18.351236
20
12.255412
30
0.0
10
18.899247
20
11.843692
30
0.0
10
19.310968
20
11.295681
30
0.0
10
19.473333
20
10.724444
30
0.0
10
19.307528
20
10.160000
30
0.0
10
18.908889
20
9.595556
30
0.0
10
18.344444
20
9.196917
30
0.0
10
17.780000
20
9.031111
30
0.0
10
17.215556
20
9.196917
30
0.0
10
16.651111
20
9.595556
30
0.0
10
16.651111
20
9.595556
30
0.0
62
0
0
LWPOLYLINE
100
AcDbPolyline
8
Layer_1
90
18
70
0
10
5.644444
20
15.804444
30
0.0
10
5.245806
20
16.368889
30
0.0
10
5.080000
20
16.933333
30
0.0
10
5.242366
20
17.504570
30
0.0
10
5.654086
20
18.052581
30
0.0
10
6.202097
20
18.464301
30
0.0
10
6.773333
20
18.626667
30
0.0
10
7.340895
20
18.465055
30
0.0
10
7.889314
20
18.056298
30
0.0
10
8.303076
20
17.514513
30
0.0
10
8.466667
20
16.953817
30
0.0
10
8.263612
20
16.440221
30
0.0
10
7.769146
20
15.878409
30
0.0
10
7.155314
20
15.425846
30
0.0
10
6.594162
20
15.240000
30
0.0
10
6.156257
20
15.405806
30
0.0
10
5.644444
20
15.804444
30
0.0
10
5.644444
20
15.804444
30
0.0
62
0
0
LWPOLYLINE
100
AcDbPolyline
8
Layer_1
90
17
70
0
10
13.443616
20
15.824928
30
0.0
10
12.918437
20
16.397822
30
0.0
10
12.700000
20
16.953817
30
0.0
10
12.863591
20
17.514513
30
0.0
10
13.277353
20
18.056298
30
0.0
10
13.825772
20
18.465055
30
0.0
10
14.393333
20
18.626667
30
0.0
10
14.964570
20
18.464301
30
0.0
10
15.512581
20
18.052581
30
0.0
10
15.924301
20
17.504570
30
0.0
10
16.086667
20
16.933333
30
0.0
10
15.931041
20
16.397122
30
0.0
10
15.545485
20
15.845219
30
0.0
10
15.051980
20
15.414041
30
0.0
10
14.572505
20
15.240000
30
0.0
10
13.443616
20
15.824928
30
0.0
10
13.443616
20
15.824928
30
0.0
  0
ENDSEC
  0
SECTION
  2
OBJECTS
  0
DICTIONARY
  5
C
330
0
100
AcDbDictionary
  3
ACAD_GROUP
350
D
  3
ACAD_MLINESTYLE
350
17
  0
DICTIONARY
  5
D
330
C
100
AcDbDictionary
  0
DICTIONARY
  5
1A
330
C
100
AcDbDictionary
  0
DICTIONARY
  5
17
330
C
100
AcDbDictionary
  3
STANDARD
350
18
  0
DICTIONARY
  5
19
330
C
100
AcDbDictionary
  0
ENDSEC
  0
EOF
