999
Inkscape export via OpenSCAD DXF Export
  0
SECTION
  2
HEADER
  9
$ACADVER
  1
AC1014
  9
$HANDSEED
  5
FFFF
  9
$MEASUREMENT
 70
     1
  0
ENDSEC
  0
SECTION
  2
TABLES
  0
TABLE
  2
VPORT
  5
8
330
0
100
AcDbSymbolTable
 70
     4
  0
VPORT
  5
2E
330
8
100
AcDbSymbolTableRecord
100
AcDbViewportTableRecord
  2
*ACTIVE
 70
     0
 10
0.0
 20
0.0
 11
1.0
 21
1.0
 12
210.0
 22
148.5
 13
0.0
 23
0.0
 14
10.0
 24
10.0
 15
10.0
 25
10.0
 16
0.0
 26
0.0
 36
1.0
 17
0.0
 27
0.0
 37
0.0
 40
341.0
 41
1.24
 42
50.0
 43
0.0
 44
0.0
 50
0.0
 51
0.0
 71
     0
 72
   100
 73
     1
 74
     3
 75
     0
 76
     0
 77
     0
 78
     0
  0
ENDTAB
  0
TABLE
  2
LTYPE
  5
5
330
0
100
AcDbSymbolTable
 70
     1
  0
LTYPE
  5
14
330
5
100
AcDbSymbolTableRecord
100
AcDbLinetypeTableRecord
  2
BYBLOCK
 70
     0
  3

 72
    65
 73
     0
 40
0.0
  0
LTYPE
  5
15
330
5
100
AcDbSymbolTableRecord
100
AcDbLinetypeTableRecord
  2
BYLAYER
 70
     0
  3

 72
    65
 73
     0
 40
0.0
  0
LTYPE
  5
16
330
5
100
AcDbSymbolTableRecord
100
AcDbLinetypeTableRecord
  2
CONTINUOUS
 70
     0
  3
Solid line
 72
    65
 73
     0
 40
0.0
  0
ENDTAB
  0
TABLE
0
TABLE
2
LAYER
5
2
330
0
100
AcDbSymbolTable
70
1
0
LAYER
5
10
330
2
100
AcDbSymbolTableRecord
100
AcDbLayerTableRecord
2
Layer_1
70
0
62
7
6
CONTINUOUS
0
ENDTAB
0
ENDSEC
  0
ENDTAB
  0
TABLE
  2
STYLE
  5
3
330
0
100
AcDbSymbolTable
 70
     1
  0
STYLE
  5
11
330
3
100
AcDbSymbolTableRecord
100
AcDbTextStyleTableRecord
  2
STANDARD
 70
     0
 40
0.0
 41
1.0
 50
0.0
 71
     0
 42
2.5
  3
txt
  4

  0
ENDTAB
  0
TABLE
  2
VIEW
  5
6
330
0
100
AcDbSymbolTable
 70
     0
  0
ENDTAB
  0
TABLE
  2
UCS
  5
7
330
0
100
AcDbSymbolTable
 70
     0
  0
ENDTAB
  0
TABLE
  2
APPID
  5
9
330
0
100
AcDbSymbolTable
 70
     2
  0
APPID
  5
12
330
9
100
AcDbSymbolTableRecord
100
AcDbRegAppTableRecord
  2
ACAD
 70
     0
  0
ENDTAB
  0
TABLE
  2
DIMSTYLE
  5
A
330
0
100
AcDbSymbolTable
 70
     1
  0
DIMSTYLE
105
27
330
A
100
AcDbSymbolTableRecord
100
AcDbDimStyleTableRecord
  2
ISO-25
 70
     0
  3

  4

  5

  6

  7

 40
1.0
 41
2.5
 42
0.625
 43
3.75
 44
1.25
 45
0.0
 46
0.0
 47
0.0
 48
0.0
140
2.5
141
2.5
142
0.0
143
0.03937007874016
144
1.0
145
0.0
146
1.0
147
0.625
 71
     0
 72
     0
 73
     0
 74
     0
 75
     0
 76
     0
 77
     1
 78
     8
170
     0
171
     3
172
     1
173
     0
174
     0
175
     0
176
     0
177
     0
178
     0
270
     2
271
     2
272
     2
273
     2
274
     3
340
11
275
     0
280
     0
281
     0
282
     0
283
     0
284
     8
285
     0
286
     0
287
     3
288
     0
  0
ENDTAB
  0
TABLE
  2
BLOCK_RECORD
  5
1
330
0
100
AcDbSymbolTable
 70
     1
  0
BLOCK_RECORD
  5
1F
330
1
100
AcDbSymbolTableRecord
100
AcDbBlockTableRecord
  2
*MODEL_SPACE
  0
BLOCK_RECORD
  5
1B
330
1
100
AcDbSymbolTableRecord
100
AcDbBlockTableRecord
  2
*PAPER_SPACE
  0
ENDTAB
  0
ENDSEC
  0
SECTION
  2
BLOCKS
  0
BLOCK
  5
20
330
1F
100
AcDbEntity
  8
0
100
AcDbBlockBegin
  2
*MODEL_SPACE
 70
     0
 10
0.0
 20
0.0
 30
0.0
  3
*MODEL_SPACE
  1

  0
ENDBLK
  5
21
330
1F
100
AcDbEntity
  8
0
100
AcDbBlockEnd
  0
BLOCK
  5
1C
330
1B
100
AcDbEntity
 67
     1
  8
0
100
AcDbBlockBegin
  2
*PAPER_SPACE
  1

  0
ENDBLK
  5
1D
330
1B
100
AcDbEntity
 67
     1
  8
0
100
AcDbBlockEnd
  0
ENDSEC
  0
SECTION
  2
ENTITIES
0
DIMENSION
5
83
100
AcDbEntity
62
256
370
-1
6
ByLayer
1
total_width
3
Standard
70
0
71
5
72
1
41
1.0
100
AcDbAlignedDimension
13
5.695130
23
0.000000
33
0.0
14
36.638201
24
0.000000
34
0.0
50
0.000000
100
AcDbRotatedDimension
0
DIMENSION
5
83
100
AcDbEntity
62
256
370
-1
6
ByLayer
1
total_minx
3
Standard
70
0
71
5
72
1
41
1.0
100
AcDbAlignedDimension
13
5.695130
23
0.000000
33
0.0
14
0.000000
24
0.000000
34
0.0
50
0.000000
100
AcDbRotatedDimension
0
DIMENSION
5
83
100
AcDbEntity
62
256
370
-1
6
ByLayer
1
total_maxx
3
Standard
70
0
71
5
72
1
41
1.0
100
AcDbAlignedDimension
13
0.000000
23
0.000000
33
0.0
14
36.638201
24
0.000000
34
0.0
50
0.000000
100
AcDbRotatedDimension
0
DIMENSION
5
83
100
AcDbEntity
62
256
370
-1
6
ByLayer
1
total_height
3
Standard
70
0
71
5
72
1
41
1.0
100
AcDbAlignedDimension
13
0.000000
23
2.822222
33
0.0
14
0.000000
24
40.001830
34
0.0
50
90.000000
100
AcDbRotatedDimension
0
DIMENSION
5
83
100
AcDbEntity
62
256
370
-1
6
ByLayer
1
total_miny
3
Standard
70
0
71
5
72
1
41
1.0
100
AcDbAlignedDimension
13
2.822222
23
0.000000
33
0.0
14
0.000000
24
0.000000
34
0.0
50
0.000000
100
AcDbRotatedDimension
0
DIMENSION
5
83
100
AcDbEntity
62
256
370
-1
6
ByLayer
1
total_maxy
3
Standard
70
0
71
5
72
1
41
1.0
100
AcDbAlignedDimension
13
0.000000
23
0.000000
33
0.0
14
40.001830
24
0.000000
34
0.0
50
0.000000
100
AcDbRotatedDimension
0
DIMENSION
8
Layer_1
5
83
100
AcDbEntity
62
256
370
-1
6
ByLayer
1
Layer_1_width
3
Standard
70
0
71
5
72
1
41
1.0
100
AcDbAlignedDimension
13
5.695130
23
0.000000
33
0.0
14
36.638201
24
0.000000
34
0.0
50
0.000000
100
AcDbRotatedDimension
0
DIMENSION
8
Layer_1
5
83
100
AcDbEntity
62
256
370
-1
6
ByLayer
1
Layer_1_minx
3
Standard
70
0
71
5
72
1
41
1.0
100
AcDbAlignedDimension
13
5.695130
23
0.000000
33
0.0
14
0.000000
24
0.000000
34
0.0
50
0.000000
100
AcDbRotatedDimension
0
DIMENSION
8
Layer_1
5
83
100
AcDbEntity
62
256
370
-1
6
ByLayer
1
Layer_1_maxx
3
Standard
70
0
71
5
72
1
41
1.0
100
AcDbAlignedDimension
13
0.000000
23
0.000000
33
0.0
14
36.638201
24
0.000000
34
0.0
50
0.000000
100
AcDbRotatedDimension
0
DIMENSION
8
Layer_1
5
83
100
AcDbEntity
62
256
370
-1
6
ByLayer
1
Layer_1_height
3
Standard
70
0
71
5
72
1
41
1.0
100
AcDbAlignedDimension
13
0.000000
23
2.822222
33
0.0
14
0.000000
24
40.001830
34
0.0
50
90.000000
100
AcDbRotatedDimension
0
DIMENSION
8
Layer_1
5
83
100
AcDbEntity
62
256
370
-1
6
ByLayer
1
Layer_1_miny
3
Standard
70
0
71
5
72
1
41
1.0
100
AcDbAlignedDimension
13
2.822222
23
0.000000
33
0.0
14
0.000000
24
0.000000
34
0.0
50
0.000000
100
AcDbRotatedDimension
0
DIMENSION
8
Layer_1
5
83
100
AcDbEntity
62
256
370
-1
6
ByLayer
1
Layer_1_maxy
3
Standard
70
0
71
5
72
1
41
1.0
100
AcDbAlignedDimension
13
0.000000
23
0.000000
33
0.0
14
40.001830
24
0.000000
34
0.0
50
0.000000
100
AcDbRotatedDimension
62
0
0
LWPOLYLINE
100
AcDbPolyline
8
Layer_1
90
41
70
0
10
10.337615
20
3.252196
30
0.0
10
10.349595
20
4.973362
30
0.0
10
10.402179
20
5.884282
30
0.0
10
10.200229
20
6.429830
30
0.0
10
9.665676
20
6.696057
30
0.0
10
8.720447
20
6.769013
30
0.0
10
7.681269
20
6.863260
30
0.0
10
6.784159
20
7.113138
30
0.0
10
6.118653
20
7.483128
30
0.0
10
5.774290
20
7.937712
30
0.0
10
5.695130
20
8.601291
30
0.0
10
5.784875
20
9.529367
30
0.0
10
6.440704
20
12.084723
30
0.0
10
7.681025
20
15.415201
30
0.0
10
9.445086
20
19.332222
30
0.0
10
11.673921
20
23.565556
30
0.0
10
12.141837
20
23.967381
30
0.0
10
12.687258
20
23.424444
30
0.0
10
14.093725
20
21.048350
30
0.0
10
15.804717
20
17.397876
30
0.0
10
17.371858
20
13.504817
30
0.0
10
18.346767
20
10.400967
30
0.0
10
18.551983
20
8.695388
30
0.0
10
18.457509
20
8.067382
30
0.0
10
18.221855
20
7.575693
30
0.0
10
17.837681
20
7.210166
30
0.0
10
17.297644
20
6.960647
30
0.0
10
15.720609
20
6.769013
30
0.0
10
14.711158
20
6.705412
30
0.0
10
14.136896
20
6.478580
30
0.0
10
13.919473
20
6.020757
30
0.0
10
13.980539
20
5.264184
30
0.0
10
14.064473
20
4.330964
30
0.0
10
13.995683
20
3.529632
30
0.0
10
13.855330
20
3.142929
30
0.0
10
13.591691
20
2.930442
30
0.0
10
12.160373
20
2.822222
30
0.0
10
10.835476
20
2.918100
30
0.0
10
10.501632
20
3.051015
30
0.0
10
10.337615
20
3.252196
30
0.0
10
10.337615
20
3.252196
30
0.0
62
0
0
LWPOLYLINE
100
AcDbPolyline
8
Layer_1
90
41
70
0
10
28.337648
20
3.529632
30
0.0
10
28.268860
20
4.330964
30
0.0
10
28.352804
20
5.264184
30
0.0
10
28.413871
20
6.020758
30
0.0
10
28.196448
20
6.478583
30
0.0
10
27.622186
20
6.705415
30
0.0
10
26.612735
20
6.769013
30
0.0
10
25.035700
20
6.960647
30
0.0
10
24.495663
20
7.210166
30
0.0
10
24.111488
20
7.575693
30
0.0
10
23.875835
20
8.067382
30
0.0
10
23.781360
20
8.695388
30
0.0
10
23.986577
20
10.400967
30
0.0
10
24.961479
20
13.504817
30
0.0
10
26.528616
20
17.397876
30
0.0
10
28.239607
20
21.048350
30
0.0
10
29.646073
20
23.424444
30
0.0
10
30.191496
20
23.967381
30
0.0
10
30.659411
20
23.565556
30
0.0
10
32.888247
20
19.332222
30
0.0
10
34.652309
20
15.415201
30
0.0
10
35.892629
20
12.084723
30
0.0
10
36.548456
20
9.529367
30
0.0
10
36.638201
20
8.601291
30
0.0
10
36.559041
20
7.937712
30
0.0
10
36.214679
20
7.483128
30
0.0
10
35.549173
20
7.113138
30
0.0
10
34.652063
20
6.863260
30
0.0
10
33.612887
20
6.769013
30
0.0
10
32.667657
20
6.696061
30
0.0
10
32.133103
20
6.429834
30
0.0
10
31.931153
20
5.884283
30
0.0
10
31.983736
20
4.973362
30
0.0
10
32.083625
20
3.811032
30
0.0
10
31.897884
20
3.163379
30
0.0
10
31.302375
20
2.882933
30
0.0
10
30.172959
20
2.822222
30
0.0
10
28.741642
20
2.930442
30
0.0
10
28.478002
20
3.142929
30
0.0
10
28.337648
20
3.529632
30
0.0
10
28.337648
20
3.529632
30
0.0
62
0
0
LWPOLYLINE
100
AcDbPolyline
8
Layer_1
90
35
70
0
10
19.324595
20
19.544357
30
0.0
10
19.248662
20
21.449357
30
0.0
10
19.332222
20
22.718889
30
0.0
10
17.638889
20
22.895736
30
0.0
10
15.449231
20
23.279643
30
0.0
10
14.967788
20
23.703218
30
0.0
10
14.761115
20
24.480222
30
0.0
10
14.826669
20
25.645638
30
0.0
10
15.161909
20
27.234444
30
0.0
10
16.470043
20
31.081894
30
0.0
10
18.322539
20
35.330247
30
0.0
10
20.119094
20
38.722545
30
0.0
10
20.808799
20
39.704874
30
0.0
10
21.259405
20
40.001830
30
0.0
10
22.058161
20
38.891304
30
0.0
10
23.408153
20
36.364429
30
0.0
10
24.887718
20
33.260339
30
0.0
10
26.075190
20
30.418169
30
0.0
10
26.924192
20
27.889096
30
0.0
10
27.455825
20
25.883010
30
0.0
10
27.622289
20
24.404815
30
0.0
10
27.477603
20
24.015386
30
0.0
10
27.151082
20
23.638984
30
0.0
10
26.272808
20
23.132510
30
0.0
10
24.664502
20
22.909147
30
0.0
10
22.788290
20
22.789678
30
0.0
10
22.947310
20
21.248931
30
0.0
10
23.033593
20
19.950192
30
0.0
10
22.855735
20
19.249481
30
0.0
10
22.272298
20
18.963485
30
0.0
10
21.141849
20
18.908889
30
0.0
10
19.730211
20
19.013279
30
0.0
10
19.460071
20
19.205053
30
0.0
10
19.324595
20
19.544357
30
0.0
10
19.324595
20
19.544357
30
0.0
  0
ENDSEC
  0
SECTION
  2
OBJECTS
  0
DICTIONARY
  5
C
330
0
100
AcDbDictionary
  3
ACAD_GROUP
350
D
  3
ACAD_MLINESTYLE
350
17
  0
DICTIONARY
  5
D
330
C
100
AcDbDictionary
  0
DICTIONARY
  5
1A
330
C
100
AcDbDictionary
  0
DICTIONARY
  5
17
330
C
100
AcDbDictionary
  3
STANDARD
350
18
  0
DICTIONARY
  5
19
330
C
100
AcDbDictionary
  0
ENDSEC
  0
EOF
