999
Inkscape export via OpenSCAD DXF Export
  0
SECTION
  2
HEADER
  9
$ACADVER
  1
AC1014
  9
$HANDSEED
  5
FFFF
  9
$MEASUREMENT
 70
     1
  0
ENDSEC
  0
SECTION
  2
TABLES
  0
TABLE
  2
VPORT
  5
8
330
0
100
AcDbSymbolTable
 70
     4
  0
VPORT
  5
2E
330
8
100
AcDbSymbolTableRecord
100
AcDbViewportTableRecord
  2
*ACTIVE
 70
     0
 10
0.0
 20
0.0
 11
1.0
 21
1.0
 12
210.0
 22
148.5
 13
0.0
 23
0.0
 14
10.0
 24
10.0
 15
10.0
 25
10.0
 16
0.0
 26
0.0
 36
1.0
 17
0.0
 27
0.0
 37
0.0
 40
341.0
 41
1.24
 42
50.0
 43
0.0
 44
0.0
 50
0.0
 51
0.0
 71
     0
 72
   100
 73
     1
 74
     3
 75
     0
 76
     0
 77
     0
 78
     0
  0
ENDTAB
  0
TABLE
  2
LTYPE
  5
5
330
0
100
AcDbSymbolTable
 70
     1
  0
LTYPE
  5
14
330
5
100
AcDbSymbolTableRecord
100
AcDbLinetypeTableRecord
  2
BYBLOCK
 70
     0
  3

 72
    65
 73
     0
 40
0.0
  0
LTYPE
  5
15
330
5
100
AcDbSymbolTableRecord
100
AcDbLinetypeTableRecord
  2
BYLAYER
 70
     0
  3

 72
    65
 73
     0
 40
0.0
  0
LTYPE
  5
16
330
5
100
AcDbSymbolTableRecord
100
AcDbLinetypeTableRecord
  2
CONTINUOUS
 70
     0
  3
Solid line
 72
    65
 73
     0
 40
0.0
  0
ENDTAB
  0
TABLE
0
TABLE
2
LAYER
5
2
330
0
100
AcDbSymbolTable
70
1
0
LAYER
5
10
330
2
100
AcDbSymbolTableRecord
100
AcDbLayerTableRecord
2
Layer_1
70
0
62
7
6
CONTINUOUS
0
ENDTAB
0
ENDSEC
  0
ENDTAB
  0
TABLE
  2
STYLE
  5
3
330
0
100
AcDbSymbolTable
 70
     1
  0
STYLE
  5
11
330
3
100
AcDbSymbolTableRecord
100
AcDbTextStyleTableRecord
  2
STANDARD
 70
     0
 40
0.0
 41
1.0
 50
0.0
 71
     0
 42
2.5
  3
txt
  4

  0
ENDTAB
  0
TABLE
  2
VIEW
  5
6
330
0
100
AcDbSymbolTable
 70
     0
  0
ENDTAB
  0
TABLE
  2
UCS
  5
7
330
0
100
AcDbSymbolTable
 70
     0
  0
ENDTAB
  0
TABLE
  2
APPID
  5
9
330
0
100
AcDbSymbolTable
 70
     2
  0
APPID
  5
12
330
9
100
AcDbSymbolTableRecord
100
AcDbRegAppTableRecord
  2
ACAD
 70
     0
  0
ENDTAB
  0
TABLE
  2
DIMSTYLE
  5
A
330
0
100
AcDbSymbolTable
 70
     1
  0
DIMSTYLE
105
27
330
A
100
AcDbSymbolTableRecord
100
AcDbDimStyleTableRecord
  2
ISO-25
 70
     0
  3

  4

  5

  6

  7

 40
1.0
 41
2.5
 42
0.625
 43
3.75
 44
1.25
 45
0.0
 46
0.0
 47
0.0
 48
0.0
140
2.5
141
2.5
142
0.0
143
0.03937007874016
144
1.0
145
0.0
146
1.0
147
0.625
 71
     0
 72
     0
 73
     0
 74
     0
 75
     0
 76
     0
 77
     1
 78
     8
170
     0
171
     3
172
     1
173
     0
174
     0
175
     0
176
     0
177
     0
178
     0
270
     2
271
     2
272
     2
273
     2
274
     3
340
11
275
     0
280
     0
281
     0
282
     0
283
     0
284
     8
285
     0
286
     0
287
     3
288
     0
  0
ENDTAB
  0
TABLE
  2
BLOCK_RECORD
  5
1
330
0
100
AcDbSymbolTable
 70
     1
  0
BLOCK_RECORD
  5
1F
330
1
100
AcDbSymbolTableRecord
100
AcDbBlockTableRecord
  2
*MODEL_SPACE
  0
BLOCK_RECORD
  5
1B
330
1
100
AcDbSymbolTableRecord
100
AcDbBlockTableRecord
  2
*PAPER_SPACE
  0
ENDTAB
  0
ENDSEC
  0
SECTION
  2
BLOCKS
  0
BLOCK
  5
20
330
1F
100
AcDbEntity
  8
0
100
AcDbBlockBegin
  2
*MODEL_SPACE
 70
     0
 10
0.0
 20
0.0
 30
0.0
  3
*MODEL_SPACE
  1

  0
ENDBLK
  5
21
330
1F
100
AcDbEntity
  8
0
100
AcDbBlockEnd
  0
BLOCK
  5
1C
330
1B
100
AcDbEntity
 67
     1
  8
0
100
AcDbBlockBegin
  2
*PAPER_SPACE
  1

  0
ENDBLK
  5
1D
330
1B
100
AcDbEntity
 67
     1
  8
0
100
AcDbBlockEnd
  0
ENDSEC
  0
SECTION
  2
ENTITIES
0
DIMENSION
5
83
100
AcDbEntity
62
256
370
-1
6
ByLayer
1
total_width
3
Standard
70
0
71
5
72
1
41
1.0
100
AcDbAlignedDimension
13
2.619555
23
0.000000
33
0.0
14
39.713778
24
0.000000
34
0.0
50
0.000000
100
AcDbRotatedDimension
0
DIMENSION
5
83
100
AcDbEntity
62
256
370
-1
6
ByLayer
1
total_minx
3
Standard
70
0
71
5
72
1
41
1.0
100
AcDbAlignedDimension
13
2.619555
23
0.000000
33
0.0
14
0.000000
24
0.000000
34
0.0
50
0.000000
100
AcDbRotatedDimension
0
DIMENSION
5
83
100
AcDbEntity
62
256
370
-1
6
ByLayer
1
total_maxx
3
Standard
70
0
71
5
72
1
41
1.0
100
AcDbAlignedDimension
13
0.000000
23
0.000000
33
0.0
14
39.713778
24
0.000000
34
0.0
50
0.000000
100
AcDbRotatedDimension
0
DIMENSION
5
83
100
AcDbEntity
62
256
370
-1
6
ByLayer
1
total_height
3
Standard
70
0
71
5
72
1
41
1.0
100
AcDbAlignedDimension
13
0.000000
23
2.583696
33
0.0
14
0.000000
24
39.743140
34
0.0
50
90.000000
100
AcDbRotatedDimension
0
DIMENSION
5
83
100
AcDbEntity
62
256
370
-1
6
ByLayer
1
total_miny
3
Standard
70
0
71
5
72
1
41
1.0
100
AcDbAlignedDimension
13
2.583696
23
0.000000
33
0.0
14
0.000000
24
0.000000
34
0.0
50
0.000000
100
AcDbRotatedDimension
0
DIMENSION
5
83
100
AcDbEntity
62
256
370
-1
6
ByLayer
1
total_maxy
3
Standard
70
0
71
5
72
1
41
1.0
100
AcDbAlignedDimension
13
0.000000
23
0.000000
33
0.0
14
39.743140
24
0.000000
34
0.0
50
0.000000
100
AcDbRotatedDimension
0
DIMENSION
8
Layer_1
5
83
100
AcDbEntity
62
256
370
-1
6
ByLayer
1
Layer_1_width
3
Standard
70
0
71
5
72
1
41
1.0
100
AcDbAlignedDimension
13
2.619555
23
0.000000
33
0.0
14
39.713778
24
0.000000
34
0.0
50
0.000000
100
AcDbRotatedDimension
0
DIMENSION
8
Layer_1
5
83
100
AcDbEntity
62
256
370
-1
6
ByLayer
1
Layer_1_minx
3
Standard
70
0
71
5
72
1
41
1.0
100
AcDbAlignedDimension
13
2.619555
23
0.000000
33
0.0
14
0.000000
24
0.000000
34
0.0
50
0.000000
100
AcDbRotatedDimension
0
DIMENSION
8
Layer_1
5
83
100
AcDbEntity
62
256
370
-1
6
ByLayer
1
Layer_1_maxx
3
Standard
70
0
71
5
72
1
41
1.0
100
AcDbAlignedDimension
13
0.000000
23
0.000000
33
0.0
14
39.713778
24
0.000000
34
0.0
50
0.000000
100
AcDbRotatedDimension
0
DIMENSION
8
Layer_1
5
83
100
AcDbEntity
62
256
370
-1
6
ByLayer
1
Layer_1_height
3
Standard
70
0
71
5
72
1
41
1.0
100
AcDbAlignedDimension
13
0.000000
23
2.583696
33
0.0
14
0.000000
24
39.743140
34
0.0
50
90.000000
100
AcDbRotatedDimension
0
DIMENSION
8
Layer_1
5
83
100
AcDbEntity
62
256
370
-1
6
ByLayer
1
Layer_1_miny
3
Standard
70
0
71
5
72
1
41
1.0
100
AcDbAlignedDimension
13
2.583696
23
0.000000
33
0.0
14
0.000000
24
0.000000
34
0.0
50
0.000000
100
AcDbRotatedDimension
0
DIMENSION
8
Layer_1
5
83
100
AcDbEntity
62
256
370
-1
6
ByLayer
1
Layer_1_maxy
3
Standard
70
0
71
5
72
1
41
1.0
100
AcDbAlignedDimension
13
0.000000
23
0.000000
33
0.0
14
39.743140
24
0.000000
34
0.0
50
0.000000
100
AcDbRotatedDimension
62
0
0
LWPOLYLINE
100
AcDbPolyline
8
Layer_1
90
52
70
0
10
16.792222
20
2.994378
30
0.0
10
14.460083
20
3.745170
30
0.0
10
12.196918
20
4.842066
30
0.0
10
10.079460
20
6.241342
30
0.0
10
8.184444
20
7.899273
30
0.0
10
5.832779
20
10.650269
30
0.0
10
4.912744
20
12.063935
30
0.0
10
4.154875
20
13.521332
30
0.0
10
3.552897
20
15.036177
30
0.0
10
3.100534
20
16.622184
30
0.0
10
2.791511
20
18.293070
30
0.0
10
2.619555
20
20.062548
30
0.0
10
2.641651
20
22.675737
30
0.0
10
3.006127
20
25.202156
30
0.0
10
3.700433
20
27.618060
30
0.0
10
4.712023
20
29.899705
30
0.0
10
6.028347
20
32.023344
30
0.0
10
7.636859
20
33.965232
30
0.0
10
9.525011
20
35.701625
30
0.0
10
11.680253
20
37.208777
30
0.0
10
13.675822
20
38.238735
30
0.0
10
15.805016
20
39.005625
30
0.0
10
18.028008
20
39.507682
30
0.0
10
20.304971
20
39.743140
30
0.0
10
22.596077
20
39.710233
30
0.0
10
24.861501
20
39.407195
30
0.0
10
27.061415
20
38.832260
30
0.0
10
29.155991
20
37.983662
30
0.0
10
31.621919
20
36.558606
30
0.0
10
33.798079
20
34.836642
30
0.0
10
35.665613
20
32.849784
30
0.0
10
37.205659
20
30.630045
30
0.0
10
38.399359
20
28.209438
30
0.0
10
39.227852
20
25.619978
30
0.0
10
39.672278
20
22.893676
30
0.0
10
39.713778
20
20.062548
30
0.0
10
39.541172
20
18.290576
30
0.0
10
39.230687
20
16.615574
30
0.0
10
38.776547
20
15.024915
30
0.0
10
38.172976
20
13.505970
30
0.0
10
37.414201
20
12.046112
30
0.0
10
36.494444
20
10.632711
30
0.0
10
34.148889
20
7.894774
30
0.0
10
32.225697
20
6.220690
30
0.0
10
30.082673
20
4.818413
30
0.0
10
27.785536
20
3.724883
30
0.0
10
25.400000
20
2.977038
30
0.0
10
23.411610
20
2.679521
30
0.0
10
21.085953
20
2.583696
30
0.0
10
18.765375
20
2.688875
30
0.0
10
16.792222
20
2.994366
30
0.0
10
16.792222
20
2.994378
30
0.0
62
0
0
LWPOLYLINE
100
AcDbPolyline
8
Layer_1
90
54
70
0
10
17.806706
20
15.353753
30
0.0
10
20.128724
20
20.187776
30
0.0
10
21.191362
20
22.138773
30
0.0
10
24.430360
20
15.251687
30
0.0
10
26.698142
20
10.459766
30
0.0
10
27.834923
20
8.466667
30
0.0
10
28.682256
20
8.877457
30
0.0
10
30.016698
20
9.885294
30
0.0
10
31.431417
20
11.153379
30
0.0
10
32.519580
20
12.344911
30
0.0
10
33.468372
20
13.774517
30
0.0
10
34.272514
20
15.263623
30
0.0
10
34.798444
20
16.751959
30
0.0
10
35.265510
20
18.589724
30
0.0
10
35.548765
20
20.202347
30
0.0
10
35.523263
20
21.015256
30
0.0
10
31.185556
20
21.731111
30
0.0
10
26.898358
20
22.396457
30
0.0
10
30.040258
20
25.275297
30
0.0
10
33.194030
20
28.142268
30
0.0
10
29.390961
20
26.955347
30
0.0
10
25.569904
20
25.682222
30
0.0
10
26.138412
20
27.996061
30
0.0
10
26.811111
20
30.558524
30
0.0
10
26.252668
20
30.230099
30
0.0
10
24.910029
20
29.091352
30
0.0
10
22.863212
20
27.375556
30
0.0
10
22.052148
20
31.820556
30
0.0
10
21.175306
20
36.653468
30
0.0
10
21.031281
20
36.417495
30
0.0
10
20.796692
20
35.477605
30
0.0
10
20.176949
20
32.045201
30
0.0
10
19.390105
20
27.049022
30
0.0
10
17.285765
20
29.117289
30
0.0
10
15.811621
20
30.450287
30
0.0
10
15.426648
20
30.697484
30
0.0
10
15.333573
20
30.621111
30
0.0
10
16.088418
20
27.983521
30
0.0
10
16.579994
20
25.799254
30
0.0
10
12.700000
20
26.952222
30
0.0
10
8.860808
20
28.145993
30
0.0
10
12.135556
20
25.258889
30
0.0
10
15.427477
20
22.388958
30
0.0
10
6.856129
20
21.166667
30
0.0
10
6.759106
20
20.785686
30
0.0
10
6.799790
20
19.848069
30
0.0
10
7.183299
20
17.534869
30
0.0
10
8.074714
20
15.117494
30
0.0
10
9.382483
20
12.859837
30
0.0
10
11.016390
20
10.891505
30
0.0
10
12.886216
20
9.342103
30
0.0
10
14.397869
20
8.466667
30
0.0
10
17.806706
20
15.353753
30
0.0
10
17.806706
20
15.353753
30
0.0
  0
ENDSEC
  0
SECTION
  2
OBJECTS
  0
DICTIONARY
  5
C
330
0
100
AcDbDictionary
  3
ACAD_GROUP
350
D
  3
ACAD_MLINESTYLE
350
17
  0
DICTIONARY
  5
D
330
C
100
AcDbDictionary
  0
DICTIONARY
  5
1A
330
C
100
AcDbDictionary
  0
DICTIONARY
  5
17
330
C
100
AcDbDictionary
  3
STANDARD
350
18
  0
DICTIONARY
  5
19
330
C
100
AcDbDictionary
  0
ENDSEC
  0
EOF
