999
Inkscape export via OpenSCAD DXF Export
  0
SECTION
  2
HEADER
  9
$ACADVER
  1
AC1014
  9
$HANDSEED
  5
FFFF
  9
$MEASUREMENT
 70
     1
  0
ENDSEC
  0
SECTION
  2
TABLES
  0
TABLE
  2
VPORT
  5
8
330
0
100
AcDbSymbolTable
 70
     4
  0
VPORT
  5
2E
330
8
100
AcDbSymbolTableRecord
100
AcDbViewportTableRecord
  2
*ACTIVE
 70
     0
 10
0.0
 20
0.0
 11
1.0
 21
1.0
 12
210.0
 22
148.5
 13
0.0
 23
0.0
 14
10.0
 24
10.0
 15
10.0
 25
10.0
 16
0.0
 26
0.0
 36
1.0
 17
0.0
 27
0.0
 37
0.0
 40
341.0
 41
1.24
 42
50.0
 43
0.0
 44
0.0
 50
0.0
 51
0.0
 71
     0
 72
   100
 73
     1
 74
     3
 75
     0
 76
     0
 77
     0
 78
     0
  0
ENDTAB
  0
TABLE
  2
LTYPE
  5
5
330
0
100
AcDbSymbolTable
 70
     1
  0
LTYPE
  5
14
330
5
100
AcDbSymbolTableRecord
100
AcDbLinetypeTableRecord
  2
BYBLOCK
 70
     0
  3

 72
    65
 73
     0
 40
0.0
  0
LTYPE
  5
15
330
5
100
AcDbSymbolTableRecord
100
AcDbLinetypeTableRecord
  2
BYLAYER
 70
     0
  3

 72
    65
 73
     0
 40
0.0
  0
LTYPE
  5
16
330
5
100
AcDbSymbolTableRecord
100
AcDbLinetypeTableRecord
  2
CONTINUOUS
 70
     0
  3
Solid line
 72
    65
 73
     0
 40
0.0
  0
ENDTAB
  0
TABLE
0
TABLE
2
LAYER
5
2
330
0
100
AcDbSymbolTable
70
1
0
LAYER
5
10
330
2
100
AcDbSymbolTableRecord
100
AcDbLayerTableRecord
2
Layer_1
70
0
62
7
6
CONTINUOUS
0
ENDTAB
0
ENDSEC
  0
ENDTAB
  0
TABLE
  2
STYLE
  5
3
330
0
100
AcDbSymbolTable
 70
     1
  0
STYLE
  5
11
330
3
100
AcDbSymbolTableRecord
100
AcDbTextStyleTableRecord
  2
STANDARD
 70
     0
 40
0.0
 41
1.0
 50
0.0
 71
     0
 42
2.5
  3
txt
  4

  0
ENDTAB
  0
TABLE
  2
VIEW
  5
6
330
0
100
AcDbSymbolTable
 70
     0
  0
ENDTAB
  0
TABLE
  2
UCS
  5
7
330
0
100
AcDbSymbolTable
 70
     0
  0
ENDTAB
  0
TABLE
  2
APPID
  5
9
330
0
100
AcDbSymbolTable
 70
     2
  0
APPID
  5
12
330
9
100
AcDbSymbolTableRecord
100
AcDbRegAppTableRecord
  2
ACAD
 70
     0
  0
ENDTAB
  0
TABLE
  2
DIMSTYLE
  5
A
330
0
100
AcDbSymbolTable
 70
     1
  0
DIMSTYLE
105
27
330
A
100
AcDbSymbolTableRecord
100
AcDbDimStyleTableRecord
  2
ISO-25
 70
     0
  3

  4

  5

  6

  7

 40
1.0
 41
2.5
 42
0.625
 43
3.75
 44
1.25
 45
0.0
 46
0.0
 47
0.0
 48
0.0
140
2.5
141
2.5
142
0.0
143
0.03937007874016
144
1.0
145
0.0
146
1.0
147
0.625
 71
     0
 72
     0
 73
     0
 74
     0
 75
     0
 76
     0
 77
     1
 78
     8
170
     0
171
     3
172
     1
173
     0
174
     0
175
     0
176
     0
177
     0
178
     0
270
     2
271
     2
272
     2
273
     2
274
     3
340
11
275
     0
280
     0
281
     0
282
     0
283
     0
284
     8
285
     0
286
     0
287
     3
288
     0
  0
ENDTAB
  0
TABLE
  2
BLOCK_RECORD
  5
1
330
0
100
AcDbSymbolTable
 70
     1
  0
BLOCK_RECORD
  5
1F
330
1
100
AcDbSymbolTableRecord
100
AcDbBlockTableRecord
  2
*MODEL_SPACE
  0
BLOCK_RECORD
  5
1B
330
1
100
AcDbSymbolTableRecord
100
AcDbBlockTableRecord
  2
*PAPER_SPACE
  0
ENDTAB
  0
ENDSEC
  0
SECTION
  2
BLOCKS
  0
BLOCK
  5
20
330
1F
100
AcDbEntity
  8
0
100
AcDbBlockBegin
  2
*MODEL_SPACE
 70
     0
 10
0.0
 20
0.0
 30
0.0
  3
*MODEL_SPACE
  1

  0
ENDBLK
  5
21
330
1F
100
AcDbEntity
  8
0
100
AcDbBlockEnd
  0
BLOCK
  5
1C
330
1B
100
AcDbEntity
 67
     1
  8
0
100
AcDbBlockBegin
  2
*PAPER_SPACE
  1

  0
ENDBLK
  5
1D
330
1B
100
AcDbEntity
 67
     1
  8
0
100
AcDbBlockEnd
  0
ENDSEC
  0
SECTION
  2
ENTITIES
0
DIMENSION
5
83
100
AcDbEntity
62
256
370
-1
6
ByLayer
1
total_width
3
Standard
70
0
71
5
72
1
41
1.0
100
AcDbAlignedDimension
13
1.693333
23
0.000000
33
0.0
14
19.473333
24
0.000000
34
0.0
50
0.000000
100
AcDbRotatedDimension
0
DIMENSION
5
83
100
AcDbEntity
62
256
370
-1
6
ByLayer
1
total_minx
3
Standard
70
0
71
5
72
1
41
1.0
100
AcDbAlignedDimension
13
1.693333
23
0.000000
33
0.0
14
0.000000
24
0.000000
34
0.0
50
0.000000
100
AcDbRotatedDimension
0
DIMENSION
5
83
100
AcDbEntity
62
256
370
-1
6
ByLayer
1
total_maxx
3
Standard
70
0
71
5
72
1
41
1.0
100
AcDbAlignedDimension
13
0.000000
23
0.000000
33
0.0
14
19.473333
24
0.000000
34
0.0
50
0.000000
100
AcDbRotatedDimension
0
DIMENSION
5
83
100
AcDbEntity
62
256
370
-1
6
ByLayer
1
total_height
3
Standard
70
0
71
5
72
1
41
1.0
100
AcDbAlignedDimension
13
0.000000
23
1.693333
33
0.0
14
0.000000
24
19.473333
34
0.0
50
90.000000
100
AcDbRotatedDimension
0
DIMENSION
5
83
100
AcDbEntity
62
256
370
-1
6
ByLayer
1
total_miny
3
Standard
70
0
71
5
72
1
41
1.0
100
AcDbAlignedDimension
13
1.693333
23
0.000000
33
0.0
14
0.000000
24
0.000000
34
0.0
50
0.000000
100
AcDbRotatedDimension
0
DIMENSION
5
83
100
AcDbEntity
62
256
370
-1
6
ByLayer
1
total_maxy
3
Standard
70
0
71
5
72
1
41
1.0
100
AcDbAlignedDimension
13
0.000000
23
0.000000
33
0.0
14
19.473333
24
0.000000
34
0.0
50
0.000000
100
AcDbRotatedDimension
0
DIMENSION
8
Layer_1
5
83
100
AcDbEntity
62
256
370
-1
6
ByLayer
1
Layer_1_width
3
Standard
70
0
71
5
72
1
41
1.0
100
AcDbAlignedDimension
13
1.693333
23
0.000000
33
0.0
14
19.473333
24
0.000000
34
0.0
50
0.000000
100
AcDbRotatedDimension
0
DIMENSION
8
Layer_1
5
83
100
AcDbEntity
62
256
370
-1
6
ByLayer
1
Layer_1_minx
3
Standard
70
0
71
5
72
1
41
1.0
100
AcDbAlignedDimension
13
1.693333
23
0.000000
33
0.0
14
0.000000
24
0.000000
34
0.0
50
0.000000
100
AcDbRotatedDimension
0
DIMENSION
8
Layer_1
5
83
100
AcDbEntity
62
256
370
-1
6
ByLayer
1
Layer_1_maxx
3
Standard
70
0
71
5
72
1
41
1.0
100
AcDbAlignedDimension
13
0.000000
23
0.000000
33
0.0
14
19.473333
24
0.000000
34
0.0
50
0.000000
100
AcDbRotatedDimension
0
DIMENSION
8
Layer_1
5
83
100
AcDbEntity
62
256
370
-1
6
ByLayer
1
Layer_1_height
3
Standard
70
0
71
5
72
1
41
1.0
100
AcDbAlignedDimension
13
0.000000
23
1.693333
33
0.0
14
0.000000
24
19.473333
34
0.0
50
90.000000
100
AcDbRotatedDimension
0
DIMENSION
8
Layer_1
5
83
100
AcDbEntity
62
256
370
-1
6
ByLayer
1
Layer_1_miny
3
Standard
70
0
71
5
72
1
41
1.0
100
AcDbAlignedDimension
13
1.693333
23
0.000000
33
0.0
14
0.000000
24
0.000000
34
0.0
50
0.000000
100
AcDbRotatedDimension
0
DIMENSION
8
Layer_1
5
83
100
AcDbEntity
62
256
370
-1
6
ByLayer
1
Layer_1_maxy
3
Standard
70
0
71
5
72
1
41
1.0
100
AcDbAlignedDimension
13
0.000000
23
0.000000
33
0.0
14
19.473333
24
0.000000
34
0.0
50
0.000000
100
AcDbRotatedDimension
62
0
0
LWPOLYLINE
100
AcDbPolyline
8
Layer_1
90
12
70
0
10
7.620000
20
1.927613
30
0.0
10
8.299723
20
3.832613
30
0.0
10
8.979445
20
5.503333
30
0.0
10
10.583333
20
5.503333
30
0.0
10
12.187222
20
5.503333
30
0.0
10
12.866944
20
3.832613
30
0.0
10
13.546667
20
1.927613
30
0.0
10
12.676187
20
1.762153
30
0.0
10
10.583333
20
1.693333
30
0.0
10
8.490479
20
1.762153
30
0.0
10
7.620000
20
1.927613
30
0.0
10
7.620000
20
1.927613
30
0.0
62
0
0
LWPOLYLINE
100
AcDbPolyline
8
Layer_1
90
17
70
0
10
5.491703
20
3.398578
30
0.0
10
4.624694
20
4.399470
30
0.0
10
4.683439
20
4.582784
30
0.0
10
5.017507
20
4.699662
30
0.0
10
5.433865
20
4.907396
30
0.0
10
4.754672
20
5.325546
30
0.0
10
4.008283
20
5.825003
30
0.0
10
3.473590
20
6.379854
30
0.0
10
3.293948
20
6.722639
30
0.0
10
3.349501
20
6.971569
30
0.0
10
4.477323
20
7.550843
30
0.0
10
5.864997
20
8.127535
30
0.0
10
6.992949
20
6.956545
30
0.0
10
8.120900
20
5.785556
30
0.0
10
7.360552
20
4.024462
30
0.0
10
6.600205
20
2.263368
30
0.0
10
5.491703
20
3.398578
30
0.0
62
0
0
LWPOLYLINE
100
AcDbPolyline
8
Layer_1
90
9
70
0
10
13.787932
20
4.071124
30
0.0
10
13.041420
20
5.867243
30
0.0
10
14.211265
20
6.994071
30
0.0
10
15.381111
20
8.120900
30
0.0
10
17.137546
20
7.362530
30
0.0
10
18.893981
20
6.604160
30
0.0
10
16.714213
20
4.439583
30
0.0
10
14.534444
20
2.275006
30
0.0
10
13.787932
20
4.071124
30
0.0
62
0
0
LWPOLYLINE
100
AcDbPolyline
8
Layer_1
90
34
70
0
10
7.678761
20
7.701238
30
0.0
10
7.016835
20
8.413907
30
0.0
10
6.661508
20
8.980852
30
0.0
10
6.517896
20
9.634134
30
0.0
10
6.491111
20
10.605811
30
0.0
10
6.517194
20
11.580873
30
0.0
10
6.661508
20
12.228894
30
0.0
10
7.023156
20
12.785897
30
0.0
10
7.701238
20
13.487906
30
0.0
10
8.412570
20
14.148322
30
0.0
10
8.978149
20
14.503816
30
0.0
10
9.625797
20
14.648267
30
0.0
10
10.583333
20
14.675556
30
0.0
10
11.540869
20
14.648267
30
0.0
10
12.188517
20
14.503816
30
0.0
10
12.754097
20
14.148322
30
0.0
10
13.465428
20
13.487906
30
0.0
10
14.143510
20
12.785897
30
0.0
10
14.505158
20
12.228894
30
0.0
10
14.649473
20
11.580873
30
0.0
10
14.675556
20
10.605811
30
0.0
10
14.648771
20
9.634134
30
0.0
10
14.505158
20
8.980852
30
0.0
10
14.149832
20
8.413907
30
0.0
10
13.487906
20
7.701238
30
0.0
10
12.784665
20
7.021686
30
0.0
10
12.226301
20
6.660201
30
0.0
10
11.572596
20
6.516703
30
0.0
10
10.583333
20
6.491111
30
0.0
10
9.594071
20
6.516703
30
0.0
10
8.940366
20
6.660201
30
0.0
10
8.382001
20
7.021686
30
0.0
10
7.678761
20
7.701238
30
0.0
10
7.678761
20
7.701238
30
0.0
62
0
0
LWPOLYLINE
100
AcDbPolyline
8
Layer_1
90
18
70
0
10
1.693333
20
10.583333
30
0.0
10
1.762153
20
12.676187
30
0.0
10
1.927613
20
13.546667
30
0.0
10
3.832613
20
12.866944
30
0.0
10
5.503333
20
12.187222
30
0.0
10
5.503333
20
10.575219
30
0.0
10
5.503333
20
8.963216
30
0.0
10
4.233333
20
8.464040
30
0.0
10
3.129612
20
8.113655
30
0.0
10
2.908443
20
8.188832
30
0.0
10
2.768113
20
8.427432
30
0.0
10
2.573774
20
8.686196
30
0.0
10
2.382419
20
8.255000
30
0.0
10
2.097986
20
7.633990
30
0.0
10
1.980260
20
7.636255
30
0.0
10
1.880753
20
7.840635
30
0.0
10
1.693333
20
10.583333
30
0.0
10
1.693333
20
10.583333
30
0.0
62
0
0
LWPOLYLINE
100
AcDbPolyline
8
Layer_1
90
23
70
0
10
17.215556
20
8.320422
30
0.0
10
15.663333
20
8.971658
30
0.0
10
15.578579
20
10.557449
30
0.0
10
15.611839
20
11.927303
30
0.0
10
15.796309
20
12.209408
30
0.0
10
16.143024
20
12.386090
30
0.0
10
16.646348
20
12.490520
30
0.0
10
16.981711
20
12.286547
30
0.0
10
17.214042
20
11.681656
30
0.0
10
17.408271
20
10.583333
30
0.0
10
17.610133
20
9.172222
30
0.0
10
17.828188
20
10.614502
30
0.0
10
18.353436
20
12.814631
30
0.0
10
18.677528
20
13.363783
30
0.0
10
19.043015
20
13.546667
30
0.0
10
19.261405
20
13.430611
30
0.0
10
19.392532
20
12.990239
30
0.0
10
19.473333
20
10.583333
30
0.0
10
19.394964
20
8.283767
30
0.0
10
19.285949
20
7.787323
30
0.0
10
19.120556
20
7.644593
30
0.0
10
17.215556
20
8.320422
30
0.0
10
17.215556
20
8.320422
30
0.0
62
0
0
LWPOLYLINE
100
AcDbPolyline
8
Layer_1
90
9
70
0
10
4.029120
20
13.804137
30
0.0
10
2.272685
20
14.562506
30
0.0
10
4.452454
20
16.727084
30
0.0
10
6.632222
20
18.891661
30
0.0
10
7.378735
20
17.095543
30
0.0
10
8.125247
20
15.299424
30
0.0
10
6.955401
20
14.172595
30
0.0
10
5.785556
20
13.045767
30
0.0
10
4.029120
20
13.804137
30
0.0
62
0
0
LWPOLYLINE
100
AcDbPolyline
8
Layer_1
90
16
70
0
10
14.163709
20
14.204348
30
0.0
10
13.299888
20
15.244735
30
0.0
10
13.206306
20
15.579626
30
0.0
10
13.294565
20
15.875000
30
0.0
10
13.576944
20
16.245108
30
0.0
10
13.907520
20
16.317203
30
0.0
10
14.382941
20
16.070325
30
0.0
10
15.099853
20
15.483517
30
0.0
10
15.969873
20
14.652680
30
0.0
10
16.388279
20
14.057745
30
0.0
10
16.380146
20
13.636612
30
0.0
10
15.970548
20
13.327183
30
0.0
10
15.586145
20
13.206899
30
0.0
10
15.229715
20
13.277634
30
0.0
10
14.163709
20
14.204348
30
0.0
10
14.163709
20
14.204348
30
0.0
62
0
0
LWPOLYLINE
100
AcDbPolyline
8
Layer_1
90
16
70
0
10
8.775446
20
16.157222
30
0.0
10
8.076876
20
17.885022
30
0.0
10
7.620000
20
19.225577
30
0.0
10
8.490479
20
19.400555
30
0.0
10
10.583333
20
19.473333
30
0.0
10
12.743265
20
19.395985
30
0.0
10
13.546667
20
19.188035
30
0.0
10
13.012758
20
17.706369
30
0.0
10
12.316060
20
16.016111
30
0.0
10
12.165993
20
15.773744
30
0.0
10
11.868445
20
15.622325
30
0.0
10
10.585206
20
15.522222
30
0.0
10
9.246911
20
15.632225
30
0.0
10
8.954924
20
15.824569
30
0.0
10
8.775446
20
16.157222
30
0.0
10
8.775446
20
16.157222
30
0.0
62
0
0
LWPOLYLINE
100
AcDbPolyline
8
Layer_1
90
9
70
0
10
14.130947
20
17.699515
30
0.0
10
14.355905
20
18.442361
30
0.0
10
14.586606
20
18.803978
30
0.0
10
14.918735
20
18.532599
30
0.0
10
15.099395
20
18.124024
30
0.0
10
14.693778
20
17.789752
30
0.0
10
14.288096
20
17.634614
30
0.0
10
14.130947
20
17.699515
30
0.0
10
14.130947
20
17.699515
30
0.0
  0
ENDSEC
  0
SECTION
  2
OBJECTS
  0
DICTIONARY
  5
C
330
0
100
AcDbDictionary
  3
ACAD_GROUP
350
D
  3
ACAD_MLINESTYLE
350
17
  0
DICTIONARY
  5
D
330
C
100
AcDbDictionary
  0
DICTIONARY
  5
1A
330
C
100
AcDbDictionary
  0
DICTIONARY
  5
17
330
C
100
AcDbDictionary
  3
STANDARD
350
18
  0
DICTIONARY
  5
19
330
C
100
AcDbDictionary
  0
ENDSEC
  0
EOF
