999
Inkscape export via OpenSCAD DXF Export
  0
SECTION
  2
HEADER
  9
$ACADVER
  1
AC1014
  9
$HANDSEED
  5
FFFF
  9
$MEASUREMENT
 70
     1
  0
ENDSEC
  0
SECTION
  2
TABLES
  0
TABLE
  2
VPORT
  5
8
330
0
100
AcDbSymbolTable
 70
     4
  0
VPORT
  5
2E
330
8
100
AcDbSymbolTableRecord
100
AcDbViewportTableRecord
  2
*ACTIVE
 70
     0
 10
0.0
 20
0.0
 11
1.0
 21
1.0
 12
210.0
 22
148.5
 13
0.0
 23
0.0
 14
10.0
 24
10.0
 15
10.0
 25
10.0
 16
0.0
 26
0.0
 36
1.0
 17
0.0
 27
0.0
 37
0.0
 40
341.0
 41
1.24
 42
50.0
 43
0.0
 44
0.0
 50
0.0
 51
0.0
 71
     0
 72
   100
 73
     1
 74
     3
 75
     0
 76
     0
 77
     0
 78
     0
  0
ENDTAB
  0
TABLE
  2
LTYPE
  5
5
330
0
100
AcDbSymbolTable
 70
     1
  0
LTYPE
  5
14
330
5
100
AcDbSymbolTableRecord
100
AcDbLinetypeTableRecord
  2
BYBLOCK
 70
     0
  3

 72
    65
 73
     0
 40
0.0
  0
LTYPE
  5
15
330
5
100
AcDbSymbolTableRecord
100
AcDbLinetypeTableRecord
  2
BYLAYER
 70
     0
  3

 72
    65
 73
     0
 40
0.0
  0
LTYPE
  5
16
330
5
100
AcDbSymbolTableRecord
100
AcDbLinetypeTableRecord
  2
CONTINUOUS
 70
     0
  3
Solid line
 72
    65
 73
     0
 40
0.0
  0
ENDTAB
  0
TABLE
0
TABLE
2
LAYER
5
2
330
0
100
AcDbSymbolTable
70
1
0
LAYER
5
10
330
2
100
AcDbSymbolTableRecord
100
AcDbLayerTableRecord
2
Layer_1
70
0
62
7
6
CONTINUOUS
0
ENDTAB
0
ENDSEC
  0
ENDTAB
  0
TABLE
  2
STYLE
  5
3
330
0
100
AcDbSymbolTable
 70
     1
  0
STYLE
  5
11
330
3
100
AcDbSymbolTableRecord
100
AcDbTextStyleTableRecord
  2
STANDARD
 70
     0
 40
0.0
 41
1.0
 50
0.0
 71
     0
 42
2.5
  3
txt
  4

  0
ENDTAB
  0
TABLE
  2
VIEW
  5
6
330
0
100
AcDbSymbolTable
 70
     0
  0
ENDTAB
  0
TABLE
  2
UCS
  5
7
330
0
100
AcDbSymbolTable
 70
     0
  0
ENDTAB
  0
TABLE
  2
APPID
  5
9
330
0
100
AcDbSymbolTable
 70
     2
  0
APPID
  5
12
330
9
100
AcDbSymbolTableRecord
100
AcDbRegAppTableRecord
  2
ACAD
 70
     0
  0
ENDTAB
  0
TABLE
  2
DIMSTYLE
  5
A
330
0
100
AcDbSymbolTable
 70
     1
  0
DIMSTYLE
105
27
330
A
100
AcDbSymbolTableRecord
100
AcDbDimStyleTableRecord
  2
ISO-25
 70
     0
  3

  4

  5

  6

  7

 40
1.0
 41
2.5
 42
0.625
 43
3.75
 44
1.25
 45
0.0
 46
0.0
 47
0.0
 48
0.0
140
2.5
141
2.5
142
0.0
143
0.03937007874016
144
1.0
145
0.0
146
1.0
147
0.625
 71
     0
 72
     0
 73
     0
 74
     0
 75
     0
 76
     0
 77
     1
 78
     8
170
     0
171
     3
172
     1
173
     0
174
     0
175
     0
176
     0
177
     0
178
     0
270
     2
271
     2
272
     2
273
     2
274
     3
340
11
275
     0
280
     0
281
     0
282
     0
283
     0
284
     8
285
     0
286
     0
287
     3
288
     0
  0
ENDTAB
  0
TABLE
  2
BLOCK_RECORD
  5
1
330
0
100
AcDbSymbolTable
 70
     1
  0
BLOCK_RECORD
  5
1F
330
1
100
AcDbSymbolTableRecord
100
AcDbBlockTableRecord
  2
*MODEL_SPACE
  0
BLOCK_RECORD
  5
1B
330
1
100
AcDbSymbolTableRecord
100
AcDbBlockTableRecord
  2
*PAPER_SPACE
  0
ENDTAB
  0
ENDSEC
  0
SECTION
  2
BLOCKS
  0
BLOCK
  5
20
330
1F
100
AcDbEntity
  8
0
100
AcDbBlockBegin
  2
*MODEL_SPACE
 70
     0
 10
0.0
 20
0.0
 30
0.0
  3
*MODEL_SPACE
  1

  0
ENDBLK
  5
21
330
1F
100
AcDbEntity
  8
0
100
AcDbBlockEnd
  0
BLOCK
  5
1C
330
1B
100
AcDbEntity
 67
     1
  8
0
100
AcDbBlockBegin
  2
*PAPER_SPACE
  1

  0
ENDBLK
  5
1D
330
1B
100
AcDbEntity
 67
     1
  8
0
100
AcDbBlockEnd
  0
ENDSEC
  0
SECTION
  2
ENTITIES
0
DIMENSION
5
83
100
AcDbEntity
62
256
370
-1
6
ByLayer
1
total_width
3
Standard
70
0
71
5
72
1
41
1.0
100
AcDbAlignedDimension
13
1.608606
23
0.000000
33
0.0
14
19.425417
24
0.000000
34
0.0
50
0.000000
100
AcDbRotatedDimension
0
DIMENSION
5
83
100
AcDbEntity
62
256
370
-1
6
ByLayer
1
total_minx
3
Standard
70
0
71
5
72
1
41
1.0
100
AcDbAlignedDimension
13
1.608606
23
0.000000
33
0.0
14
0.000000
24
0.000000
34
0.0
50
0.000000
100
AcDbRotatedDimension
0
DIMENSION
5
83
100
AcDbEntity
62
256
370
-1
6
ByLayer
1
total_maxx
3
Standard
70
0
71
5
72
1
41
1.0
100
AcDbAlignedDimension
13
0.000000
23
0.000000
33
0.0
14
19.425417
24
0.000000
34
0.0
50
0.000000
100
AcDbRotatedDimension
0
DIMENSION
5
83
100
AcDbEntity
62
256
370
-1
6
ByLayer
1
total_height
3
Standard
70
0
71
5
72
1
41
1.0
100
AcDbAlignedDimension
13
0.000000
23
1.774215
33
0.0
14
0.000000
24
19.467135
34
0.0
50
90.000000
100
AcDbRotatedDimension
0
DIMENSION
5
83
100
AcDbEntity
62
256
370
-1
6
ByLayer
1
total_miny
3
Standard
70
0
71
5
72
1
41
1.0
100
AcDbAlignedDimension
13
1.774215
23
0.000000
33
0.0
14
0.000000
24
0.000000
34
0.0
50
0.000000
100
AcDbRotatedDimension
0
DIMENSION
5
83
100
AcDbEntity
62
256
370
-1
6
ByLayer
1
total_maxy
3
Standard
70
0
71
5
72
1
41
1.0
100
AcDbAlignedDimension
13
0.000000
23
0.000000
33
0.0
14
19.467135
24
0.000000
34
0.0
50
0.000000
100
AcDbRotatedDimension
0
DIMENSION
8
Layer_1
5
83
100
AcDbEntity
62
256
370
-1
6
ByLayer
1
Layer_1_width
3
Standard
70
0
71
5
72
1
41
1.0
100
AcDbAlignedDimension
13
1.608606
23
0.000000
33
0.0
14
19.425417
24
0.000000
34
0.0
50
0.000000
100
AcDbRotatedDimension
0
DIMENSION
8
Layer_1
5
83
100
AcDbEntity
62
256
370
-1
6
ByLayer
1
Layer_1_minx
3
Standard
70
0
71
5
72
1
41
1.0
100
AcDbAlignedDimension
13
1.608606
23
0.000000
33
0.0
14
0.000000
24
0.000000
34
0.0
50
0.000000
100
AcDbRotatedDimension
0
DIMENSION
8
Layer_1
5
83
100
AcDbEntity
62
256
370
-1
6
ByLayer
1
Layer_1_maxx
3
Standard
70
0
71
5
72
1
41
1.0
100
AcDbAlignedDimension
13
0.000000
23
0.000000
33
0.0
14
19.425417
24
0.000000
34
0.0
50
0.000000
100
AcDbRotatedDimension
0
DIMENSION
8
Layer_1
5
83
100
AcDbEntity
62
256
370
-1
6
ByLayer
1
Layer_1_height
3
Standard
70
0
71
5
72
1
41
1.0
100
AcDbAlignedDimension
13
0.000000
23
1.774215
33
0.0
14
0.000000
24
19.467135
34
0.0
50
90.000000
100
AcDbRotatedDimension
0
DIMENSION
8
Layer_1
5
83
100
AcDbEntity
62
256
370
-1
6
ByLayer
1
Layer_1_miny
3
Standard
70
0
71
5
72
1
41
1.0
100
AcDbAlignedDimension
13
1.774215
23
0.000000
33
0.0
14
0.000000
24
0.000000
34
0.0
50
0.000000
100
AcDbRotatedDimension
0
DIMENSION
8
Layer_1
5
83
100
AcDbEntity
62
256
370
-1
6
ByLayer
1
Layer_1_maxy
3
Standard
70
0
71
5
72
1
41
1.0
100
AcDbAlignedDimension
13
0.000000
23
0.000000
33
0.0
14
19.467135
24
0.000000
34
0.0
50
0.000000
100
AcDbRotatedDimension
62
0
0
LWPOLYLINE
100
AcDbPolyline
8
Layer_1
90
17
70
0
10
13.009395
20
2.179024
30
0.0
10
12.505888
20
2.771645
30
0.0
10
12.610032
20
3.540095
30
0.0
10
12.801445
20
3.999229
30
0.0
10
13.098202
20
4.246237
30
0.0
10
14.696204
20
4.381570
30
0.0
10
17.048640
20
4.649213
30
0.0
10
17.333745
20
4.753011
30
0.0
10
17.470751
20
4.700214
30
0.0
10
17.394558
20
3.928903
30
0.0
10
17.099287
20
3.053998
30
0.0
10
16.600142
20
2.414072
30
0.0
10
15.878444
20
1.992890
30
0.0
10
14.915512
20
1.774215
30
0.0
10
13.801070
20
1.780691
30
0.0
10
13.009395
20
2.179024
30
0.0
10
13.009395
20
2.179024
30
0.0
62
0
0
LWPOLYLINE
100
AcDbPolyline
8
Layer_1
90
21
70
0
10
5.785556
20
2.287352
30
0.0
10
4.412728
20
3.358763
30
0.0
10
3.215629
20
4.812802
30
0.0
10
2.306890
20
6.482397
30
0.0
10
1.799146
20
8.200477
30
0.0
10
1.608606
20
9.392046
30
0.0
10
2.709303
20
9.176587
30
0.0
10
5.570254
20
8.770181
30
0.0
10
6.898799
20
8.493672
30
0.0
10
7.969547
20
7.951584
30
0.0
10
8.853435
20
7.093088
30
0.0
10
9.621402
20
5.867354
30
0.0
10
10.011673
20
4.963888
30
0.0
10
10.126418
20
4.239449
30
0.0
10
9.962227
20
3.599951
30
0.0
10
9.515688
20
2.951307
30
0.0
10
8.756975
20
2.408775
30
0.0
10
7.733433
20
2.090759
30
0.0
10
6.668486
20
2.037028
30
0.0
10
5.785556
20
2.287352
30
0.0
10
5.785556
20
2.287352
30
0.0
62
0
0
LWPOLYLINE
100
AcDbPolyline
8
Layer_1
90
16
70
0
10
13.758333
20
5.521917
30
0.0
10
13.581747
20
5.912848
30
0.0
10
13.556565
20
6.439368
30
0.0
10
13.667545
20
6.922172
30
0.0
10
13.899444
20
7.181958
30
0.0
10
15.875000
20
7.457788
30
0.0
10
17.274723
20
7.509387
30
0.0
10
17.464844
20
7.327986
30
0.0
10
17.497778
20
6.951466
30
0.0
10
17.382201
20
6.379912
30
0.0
10
17.104325
20
5.951465
30
0.0
10
16.419762
20
5.673731
30
0.0
10
15.360815
20
5.474502
30
0.0
10
14.337125
20
5.406369
30
0.0
10
13.758333
20
5.521917
30
0.0
10
13.758333
20
5.521917
30
0.0
62
0
0
LWPOLYLINE
100
AcDbPolyline
8
Layer_1
90
55
70
0
10
13.687778
20
8.748889
30
0.0
10
13.250133
20
8.948208
30
0.0
10
12.442858
20
9.031111
30
0.0
10
11.303725
20
9.212455
30
0.0
10
10.322680
20
9.738665
30
0.0
10
9.534237
20
10.583008
30
0.0
10
8.972908
20
11.718753
30
0.0
10
8.632314
20
13.016063
30
0.0
10
8.499281
20
14.280499
30
0.0
10
8.575136
20
15.455527
30
0.0
10
8.861204
20
16.484612
30
0.0
10
9.433762
20
17.499206
30
0.0
10
9.707398
20
17.688725
30
0.0
10
9.978988
20
17.663256
30
0.0
10
10.535186
20
16.957937
30
0.0
10
11.140659
20
15.364427
30
0.0
10
11.626433
20
14.167470
30
0.0
10
11.853020
20
13.931557
30
0.0
10
12.095904
20
13.895588
30
0.0
10
12.427000
20
14.257716
30
0.0
10
12.496822
20
15.052017
30
0.0
10
12.314307
20
16.129991
30
0.0
10
11.888394
20
17.343137
30
0.0
10
11.579500
20
18.233590
30
0.0
10
11.618179
20
18.801975
30
0.0
10
12.032930
20
19.102934
30
0.0
10
12.852255
20
19.191111
30
0.0
10
13.490690
20
19.089142
30
0.0
10
13.942290
20
18.677348
30
0.0
10
14.307441
20
17.796904
30
0.0
10
14.686529
20
16.288981
30
0.0
10
15.072833
20
15.040952
30
0.0
10
15.281490
20
14.762160
30
0.0
10
15.520095
20
14.675556
30
0.0
10
15.974034
20
14.747505
30
0.0
10
16.156419
20
15.060471
30
0.0
10
15.769178
20
16.992141
30
0.0
10
15.427885
20
18.444723
30
0.0
10
15.381271
20
19.144234
30
0.0
10
15.898151
20
19.119721
30
0.0
10
16.738825
20
18.629157
30
0.0
10
17.648079
20
17.856737
30
0.0
10
18.370700
20
16.986658
30
0.0
10
18.920355
20
15.859368
30
0.0
10
19.281294
20
14.573377
30
0.0
10
19.425417
20
13.272602
30
0.0
10
19.324625
20
12.100963
30
0.0
10
18.798482
20
11.067475
30
0.0
10
17.760921
20
9.831821
30
0.0
10
16.411809
20
8.689291
30
0.0
10
15.847902
20
8.507490
30
0.0
10
15.128984
20
8.466667
30
0.0
10
14.183082
20
8.549569
30
0.0
10
13.687778
20
8.748889
30
0.0
10
13.687778
20
8.748889
30
0.0
62
0
0
LWPOLYLINE
100
AcDbPolyline
8
Layer_1
90
19
70
0
10
2.902612
20
10.576621
30
0.0
10
2.185811
20
11.061060
30
0.0
10
1.810623
20
11.706657
30
0.0
10
1.796350
20
12.541227
30
0.0
10
2.032841
20
13.468473
30
0.0
10
2.415909
20
14.208088
30
0.0
10
2.841365
20
14.479768
30
0.0
10
5.009444
20
14.062418
30
0.0
10
6.047094
20
13.821199
30
0.0
10
6.594238
20
13.544875
30
0.0
10
6.807596
20
13.080884
30
0.0
10
6.843889
20
12.276667
30
0.0
10
6.826663
20
11.024038
30
0.0
10
6.668600
20
10.399870
30
0.0
10
6.210127
20
10.187695
30
0.0
10
5.291667
20
10.171047
30
0.0
10
3.978694
20
10.294741
30
0.0
10
2.902612
20
10.576621
30
0.0
10
2.902612
20
10.576621
30
0.0
62
0
0
LWPOLYLINE
100
AcDbPolyline
8
Layer_1
90
19
70
0
10
5.175407
20
15.281918
30
0.0
10
4.090412
20
15.618622
30
0.0
10
3.593075
20
16.045084
30
0.0
10
3.657986
20
16.620157
30
0.0
10
4.259735
20
17.402693
30
0.0
10
5.095617
20
18.128796
30
0.0
10
6.101448
20
18.790274
30
0.0
10
7.081216
20
19.274073
30
0.0
10
7.838914
20
19.467135
30
0.0
10
7.990464
20
19.429612
30
0.0
10
8.030527
20
19.294644
30
0.0
10
7.768359
20
18.640682
30
0.0
10
7.464261
20
17.794346
30
0.0
10
7.337778
20
16.928795
30
0.0
10
7.075771
20
15.595658
30
0.0
10
6.821947
20
15.140502
30
0.0
10
6.551737
20
14.988002
30
0.0
10
5.175407
20
15.281918
30
0.0
10
5.175407
20
15.281918
30
0.0
  0
ENDSEC
  0
SECTION
  2
OBJECTS
  0
DICTIONARY
  5
C
330
0
100
AcDbDictionary
  3
ACAD_GROUP
350
D
  3
ACAD_MLINESTYLE
350
17
  0
DICTIONARY
  5
D
330
C
100
AcDbDictionary
  0
DICTIONARY
  5
1A
330
C
100
AcDbDictionary
  0
DICTIONARY
  5
17
330
C
100
AcDbDictionary
  3
STANDARD
350
18
  0
DICTIONARY
  5
19
330
C
100
AcDbDictionary
  0
ENDSEC
  0
EOF
