999
Inkscape export via OpenSCAD DXF Export
  0
SECTION
  2
HEADER
  9
$ACADVER
  1
AC1014
  9
$HANDSEED
  5
FFFF
  9
$MEASUREMENT
 70
     1
  0
ENDSEC
  0
SECTION
  2
TABLES
  0
TABLE
  2
VPORT
  5
8
330
0
100
AcDbSymbolTable
 70
     4
  0
VPORT
  5
2E
330
8
100
AcDbSymbolTableRecord
100
AcDbViewportTableRecord
  2
*ACTIVE
 70
     0
 10
0.0
 20
0.0
 11
1.0
 21
1.0
 12
210.0
 22
148.5
 13
0.0
 23
0.0
 14
10.0
 24
10.0
 15
10.0
 25
10.0
 16
0.0
 26
0.0
 36
1.0
 17
0.0
 27
0.0
 37
0.0
 40
341.0
 41
1.24
 42
50.0
 43
0.0
 44
0.0
 50
0.0
 51
0.0
 71
     0
 72
   100
 73
     1
 74
     3
 75
     0
 76
     0
 77
     0
 78
     0
  0
ENDTAB
  0
TABLE
  2
LTYPE
  5
5
330
0
100
AcDbSymbolTable
 70
     1
  0
LTYPE
  5
14
330
5
100
AcDbSymbolTableRecord
100
AcDbLinetypeTableRecord
  2
BYBLOCK
 70
     0
  3

 72
    65
 73
     0
 40
0.0
  0
LTYPE
  5
15
330
5
100
AcDbSymbolTableRecord
100
AcDbLinetypeTableRecord
  2
BYLAYER
 70
     0
  3

 72
    65
 73
     0
 40
0.0
  0
LTYPE
  5
16
330
5
100
AcDbSymbolTableRecord
100
AcDbLinetypeTableRecord
  2
CONTINUOUS
 70
     0
  3
Solid line
 72
    65
 73
     0
 40
0.0
  0
ENDTAB
  0
TABLE
0
TABLE
2
LAYER
5
2
330
0
100
AcDbSymbolTable
70
1
0
LAYER
5
10
330
2
100
AcDbSymbolTableRecord
100
AcDbLayerTableRecord
2
Layer_1
70
0
62
7
6
CONTINUOUS
0
ENDTAB
0
ENDSEC
  0
ENDTAB
  0
TABLE
  2
STYLE
  5
3
330
0
100
AcDbSymbolTable
 70
     1
  0
STYLE
  5
11
330
3
100
AcDbSymbolTableRecord
100
AcDbTextStyleTableRecord
  2
STANDARD
 70
     0
 40
0.0
 41
1.0
 50
0.0
 71
     0
 42
2.5
  3
txt
  4

  0
ENDTAB
  0
TABLE
  2
VIEW
  5
6
330
0
100
AcDbSymbolTable
 70
     0
  0
ENDTAB
  0
TABLE
  2
UCS
  5
7
330
0
100
AcDbSymbolTable
 70
     0
  0
ENDTAB
  0
TABLE
  2
APPID
  5
9
330
0
100
AcDbSymbolTable
 70
     2
  0
APPID
  5
12
330
9
100
AcDbSymbolTableRecord
100
AcDbRegAppTableRecord
  2
ACAD
 70
     0
  0
ENDTAB
  0
TABLE
  2
DIMSTYLE
  5
A
330
0
100
AcDbSymbolTable
 70
     1
  0
DIMSTYLE
105
27
330
A
100
AcDbSymbolTableRecord
100
AcDbDimStyleTableRecord
  2
ISO-25
 70
     0
  3

  4

  5

  6

  7

 40
1.0
 41
2.5
 42
0.625
 43
3.75
 44
1.25
 45
0.0
 46
0.0
 47
0.0
 48
0.0
140
2.5
141
2.5
142
0.0
143
0.03937007874016
144
1.0
145
0.0
146
1.0
147
0.625
 71
     0
 72
     0
 73
     0
 74
     0
 75
     0
 76
     0
 77
     1
 78
     8
170
     0
171
     3
172
     1
173
     0
174
     0
175
     0
176
     0
177
     0
178
     0
270
     2
271
     2
272
     2
273
     2
274
     3
340
11
275
     0
280
     0
281
     0
282
     0
283
     0
284
     8
285
     0
286
     0
287
     3
288
     0
  0
ENDTAB
  0
TABLE
  2
BLOCK_RECORD
  5
1
330
0
100
AcDbSymbolTable
 70
     1
  0
BLOCK_RECORD
  5
1F
330
1
100
AcDbSymbolTableRecord
100
AcDbBlockTableRecord
  2
*MODEL_SPACE
  0
BLOCK_RECORD
  5
1B
330
1
100
AcDbSymbolTableRecord
100
AcDbBlockTableRecord
  2
*PAPER_SPACE
  0
ENDTAB
  0
ENDSEC
  0
SECTION
  2
BLOCKS
  0
BLOCK
  5
20
330
1F
100
AcDbEntity
  8
0
100
AcDbBlockBegin
  2
*MODEL_SPACE
 70
     0
 10
0.0
 20
0.0
 30
0.0
  3
*MODEL_SPACE
  1

  0
ENDBLK
  5
21
330
1F
100
AcDbEntity
  8
0
100
AcDbBlockEnd
  0
BLOCK
  5
1C
330
1B
100
AcDbEntity
 67
     1
  8
0
100
AcDbBlockBegin
  2
*PAPER_SPACE
  1

  0
ENDBLK
  5
1D
330
1B
100
AcDbEntity
 67
     1
  8
0
100
AcDbBlockEnd
  0
ENDSEC
  0
SECTION
  2
ENTITIES
0
DIMENSION
5
83
100
AcDbEntity
62
256
370
-1
6
ByLayer
1
total_width
3
Standard
70
0
71
5
72
1
41
1.0
100
AcDbAlignedDimension
13
-0.024080
23
0.000000
33
0.0
14
32.431474
24
0.000000
34
0.0
50
0.000000
100
AcDbRotatedDimension
0
DIMENSION
5
83
100
AcDbEntity
62
256
370
-1
6
ByLayer
1
total_minx
3
Standard
70
0
71
5
72
1
41
1.0
100
AcDbAlignedDimension
13
-0.024080
23
0.000000
33
0.0
14
0.000000
24
0.000000
34
0.0
50
0.000000
100
AcDbRotatedDimension
0
DIMENSION
5
83
100
AcDbEntity
62
256
370
-1
6
ByLayer
1
total_maxx
3
Standard
70
0
71
5
72
1
41
1.0
100
AcDbAlignedDimension
13
0.000000
23
0.000000
33
0.0
14
32.431474
24
0.000000
34
0.0
50
0.000000
100
AcDbRotatedDimension
0
DIMENSION
5
83
100
AcDbEntity
62
256
370
-1
6
ByLayer
1
total_height
3
Standard
70
0
71
5
72
1
41
1.0
100
AcDbAlignedDimension
13
0.000000
23
0.029695
33
0.0
14
0.000000
24
42.250416
34
0.0
50
90.000000
100
AcDbRotatedDimension
0
DIMENSION
5
83
100
AcDbEntity
62
256
370
-1
6
ByLayer
1
total_miny
3
Standard
70
0
71
5
72
1
41
1.0
100
AcDbAlignedDimension
13
0.029695
23
0.000000
33
0.0
14
0.000000
24
0.000000
34
0.0
50
0.000000
100
AcDbRotatedDimension
0
DIMENSION
5
83
100
AcDbEntity
62
256
370
-1
6
ByLayer
1
total_maxy
3
Standard
70
0
71
5
72
1
41
1.0
100
AcDbAlignedDimension
13
0.000000
23
0.000000
33
0.0
14
42.250416
24
0.000000
34
0.0
50
0.000000
100
AcDbRotatedDimension
0
DIMENSION
8
Layer_1
5
83
100
AcDbEntity
62
256
370
-1
6
ByLayer
1
Layer_1_width
3
Standard
70
0
71
5
72
1
41
1.0
100
AcDbAlignedDimension
13
-0.024080
23
0.000000
33
0.0
14
32.431474
24
0.000000
34
0.0
50
0.000000
100
AcDbRotatedDimension
0
DIMENSION
8
Layer_1
5
83
100
AcDbEntity
62
256
370
-1
6
ByLayer
1
Layer_1_minx
3
Standard
70
0
71
5
72
1
41
1.0
100
AcDbAlignedDimension
13
-0.024080
23
0.000000
33
0.0
14
0.000000
24
0.000000
34
0.0
50
0.000000
100
AcDbRotatedDimension
0
DIMENSION
8
Layer_1
5
83
100
AcDbEntity
62
256
370
-1
6
ByLayer
1
Layer_1_maxx
3
Standard
70
0
71
5
72
1
41
1.0
100
AcDbAlignedDimension
13
0.000000
23
0.000000
33
0.0
14
32.431474
24
0.000000
34
0.0
50
0.000000
100
AcDbRotatedDimension
0
DIMENSION
8
Layer_1
5
83
100
AcDbEntity
62
256
370
-1
6
ByLayer
1
Layer_1_height
3
Standard
70
0
71
5
72
1
41
1.0
100
AcDbAlignedDimension
13
0.000000
23
0.029695
33
0.0
14
0.000000
24
42.250416
34
0.0
50
90.000000
100
AcDbRotatedDimension
0
DIMENSION
8
Layer_1
5
83
100
AcDbEntity
62
256
370
-1
6
ByLayer
1
Layer_1_miny
3
Standard
70
0
71
5
72
1
41
1.0
100
AcDbAlignedDimension
13
0.029695
23
0.000000
33
0.0
14
0.000000
24
0.000000
34
0.0
50
0.000000
100
AcDbRotatedDimension
0
DIMENSION
8
Layer_1
5
83
100
AcDbEntity
62
256
370
-1
6
ByLayer
1
Layer_1_maxy
3
Standard
70
0
71
5
72
1
41
1.0
100
AcDbAlignedDimension
13
0.000000
23
0.000000
33
0.0
14
42.250416
24
0.000000
34
0.0
50
0.000000
100
AcDbRotatedDimension
62
0
0
LWPOLYLINE
100
AcDbPolyline
8
Layer_1
90
115
70
0
10
6.920559
20
0.422337
30
0.0
10
6.749253
20
1.974559
30
0.0
10
6.635153
20
2.895489
30
0.0
10
6.428944
20
3.045593
30
0.0
10
6.066780
20
3.080365
30
0.0
10
4.937891
20
3.251671
30
0.0
10
4.715244
20
3.288327
30
0.0
10
4.578777
20
3.162802
30
0.0
10
4.491475
20
2.263894
30
0.0
10
4.491475
20
1.104810
30
0.0
10
3.262812
20
1.104810
30
0.0
10
2.034149
20
1.104810
30
0.0
10
1.005034
20
4.315172
30
0.0
10
-0.024080
20
7.835702
30
0.0
10
0.211081
20
8.176365
30
0.0
10
0.776470
20
8.559851
30
0.0
10
1.547348
20
8.817449
30
0.0
10
2.183875
20
8.366977
30
0.0
10
2.766340
20
7.909947
30
0.0
10
3.208793
20
8.313022
30
0.0
10
3.521173
20
8.773320
30
0.0
10
3.553056
20
9.161984
30
0.0
10
2.506707
20
10.599081
30
0.0
10
1.764497
20
11.568892
30
0.0
10
1.319735
20
12.365271
30
0.0
10
1.129776
20
13.090449
30
0.0
10
1.151974
20
13.846660
30
0.0
10
1.402983
20
14.382754
30
0.0
10
2.044211
20
14.601806
30
0.0
10
2.635583
20
14.772536
30
0.0
10
2.645038
20
15.166250
30
0.0
10
2.304110
20
16.714679
30
0.0
10
2.394777
20
18.503163
30
0.0
10
2.884047
20
20.326258
30
0.0
10
3.738932
20
21.978521
30
0.0
10
4.390158
20
22.928923
30
0.0
10
3.345667
20
23.872557
30
0.0
10
2.268199
20
25.097722
30
0.0
10
1.530846
20
26.581878
30
0.0
10
1.085084
20
28.463047
30
0.0
10
0.882389
20
30.879253
30
0.0
10
0.902969
20
33.389278
30
0.0
10
1.162397
20
35.589430
30
0.0
10
1.670284
20
37.531588
30
0.0
10
2.436239
20
39.267629
30
0.0
10
3.199383
20
40.427628
30
0.0
10
4.079259
20
41.408452
30
0.0
10
4.922651
20
42.064562
30
0.0
10
5.576342
20
42.250416
30
0.0
10
6.073671
20
41.715070
30
0.0
10
6.670742
20
40.380883
30
0.0
10
7.307543
20
38.408671
30
0.0
10
7.924060
20
35.959253
30
0.0
10
8.300526
20
33.611908
30
0.0
10
8.511008
20
30.909656
30
0.0
10
8.537988
20
28.248205
30
0.0
10
8.363947
20
26.023259
30
0.0
10
8.144197
20
24.553932
30
0.0
10
9.492836
20
24.699721
30
0.0
10
10.517415
20
24.706404
30
0.0
10
11.719096
20
24.551545
30
0.0
10
14.087031
20
23.860700
30
0.0
10
14.320262
20
23.851022
30
0.0
10
14.575686
20
24.029784
30
0.0
10
15.215920
20
25.016961
30
0.0
10
15.939811
20
26.169333
30
0.0
10
16.865235
20
27.286857
30
0.0
10
17.958037
20
28.344909
30
0.0
10
19.184065
20
29.318867
30
0.0
10
21.899185
20
30.916014
30
0.0
10
23.319971
20
31.489958
30
0.0
10
24.737369
20
31.881319
30
0.0
10
27.167983
20
32.100705
30
0.0
10
29.676341
20
31.914595
30
0.0
10
31.638740
20
31.418203
30
0.0
10
32.220296
20
31.083406
30
0.0
10
32.431474
20
30.706744
30
0.0
10
32.006652
20
29.747482
30
0.0
10
30.932270
20
28.274383
30
0.0
10
29.508451
20
26.658538
30
0.0
10
28.035317
20
25.271039
30
0.0
10
26.280715
20
24.035843
30
0.0
10
24.198424
20
22.898173
30
0.0
10
22.005348
20
21.963180
30
0.0
10
19.918392
20
21.336019
30
0.0
10
17.873029
20
20.789325
30
0.0
10
18.068058
20
19.003149
30
0.0
10
18.239222
20
17.508176
30
0.0
10
18.210761
20
16.069145
30
0.0
10
17.994711
20
14.818442
30
0.0
10
17.603105
20
13.888449
30
0.0
10
16.985914
20
13.224669
30
0.0
10
16.138406
20
12.600003
30
0.0
10
15.126884
20
12.003191
30
0.0
10
15.997814
20
11.704557
30
0.0
10
16.694419
20
11.432004
30
0.0
10
17.039442
20
11.171858
30
0.0
10
17.085703
20
10.844862
30
0.0
10
16.886020
20
10.371760
30
0.0
10
16.498286
20
9.782751
30
0.0
10
15.992549
20
9.329135
30
0.0
10
14.228142
20
8.555468
30
0.0
10
13.098007
20
8.140857
30
0.0
10
12.475317
20
7.720043
30
0.0
10
12.179171
20
7.085183
30
0.0
10
12.028664
20
6.028433
30
0.0
10
11.747437
20
4.664981
30
0.0
10
11.195336
20
3.366360
30
0.0
10
10.378748
20
2.144329
30
0.0
10
9.304058
20
1.010649
30
0.0
10
8.457083
20
0.351605
30
0.0
10
7.760588
20
0.029695
30
0.0
10
7.239954
20
0.051184
30
0.0
10
6.920559
20
0.422337
30
0.0
10
6.920559
20
0.422337
30
0.0
  0
ENDSEC
  0
SECTION
  2
OBJECTS
  0
DICTIONARY
  5
C
330
0
100
AcDbDictionary
  3
ACAD_GROUP
350
D
  3
ACAD_MLINESTYLE
350
17
  0
DICTIONARY
  5
D
330
C
100
AcDbDictionary
  0
DICTIONARY
  5
1A
330
C
100
AcDbDictionary
  0
DICTIONARY
  5
17
330
C
100
AcDbDictionary
  3
STANDARD
350
18
  0
DICTIONARY
  5
19
330
C
100
AcDbDictionary
  0
ENDSEC
  0
EOF
