999
Inkscape export via OpenSCAD DXF Export
  0
SECTION
  2
HEADER
  9
$ACADVER
  1
AC1014
  9
$HANDSEED
  5
FFFF
  9
$MEASUREMENT
 70
     1
  0
ENDSEC
  0
SECTION
  2
TABLES
  0
TABLE
  2
VPORT
  5
8
330
0
100
AcDbSymbolTable
 70
     4
  0
VPORT
  5
2E
330
8
100
AcDbSymbolTableRecord
100
AcDbViewportTableRecord
  2
*ACTIVE
 70
     0
 10
0.0
 20
0.0
 11
1.0
 21
1.0
 12
210.0
 22
148.5
 13
0.0
 23
0.0
 14
10.0
 24
10.0
 15
10.0
 25
10.0
 16
0.0
 26
0.0
 36
1.0
 17
0.0
 27
0.0
 37
0.0
 40
341.0
 41
1.24
 42
50.0
 43
0.0
 44
0.0
 50
0.0
 51
0.0
 71
     0
 72
   100
 73
     1
 74
     3
 75
     0
 76
     0
 77
     0
 78
     0
  0
ENDTAB
  0
TABLE
  2
LTYPE
  5
5
330
0
100
AcDbSymbolTable
 70
     1
  0
LTYPE
  5
14
330
5
100
AcDbSymbolTableRecord
100
AcDbLinetypeTableRecord
  2
BYBLOCK
 70
     0
  3

 72
    65
 73
     0
 40
0.0
  0
LTYPE
  5
15
330
5
100
AcDbSymbolTableRecord
100
AcDbLinetypeTableRecord
  2
BYLAYER
 70
     0
  3

 72
    65
 73
     0
 40
0.0
  0
LTYPE
  5
16
330
5
100
AcDbSymbolTableRecord
100
AcDbLinetypeTableRecord
  2
CONTINUOUS
 70
     0
  3
Solid line
 72
    65
 73
     0
 40
0.0
  0
ENDTAB
  0
TABLE
0
TABLE
2
LAYER
5
2
330
0
100
AcDbSymbolTable
70
1
0
LAYER
5
10
330
2
100
AcDbSymbolTableRecord
100
AcDbLayerTableRecord
2
Layer_1
70
0
62
7
6
CONTINUOUS
0
ENDTAB
0
ENDSEC
  0
ENDTAB
  0
TABLE
  2
STYLE
  5
3
330
0
100
AcDbSymbolTable
 70
     1
  0
STYLE
  5
11
330
3
100
AcDbSymbolTableRecord
100
AcDbTextStyleTableRecord
  2
STANDARD
 70
     0
 40
0.0
 41
1.0
 50
0.0
 71
     0
 42
2.5
  3
txt
  4

  0
ENDTAB
  0
TABLE
  2
VIEW
  5
6
330
0
100
AcDbSymbolTable
 70
     0
  0
ENDTAB
  0
TABLE
  2
UCS
  5
7
330
0
100
AcDbSymbolTable
 70
     0
  0
ENDTAB
  0
TABLE
  2
APPID
  5
9
330
0
100
AcDbSymbolTable
 70
     2
  0
APPID
  5
12
330
9
100
AcDbSymbolTableRecord
100
AcDbRegAppTableRecord
  2
ACAD
 70
     0
  0
ENDTAB
  0
TABLE
  2
DIMSTYLE
  5
A
330
0
100
AcDbSymbolTable
 70
     1
  0
DIMSTYLE
105
27
330
A
100
AcDbSymbolTableRecord
100
AcDbDimStyleTableRecord
  2
ISO-25
 70
     0
  3

  4

  5

  6

  7

 40
1.0
 41
2.5
 42
0.625
 43
3.75
 44
1.25
 45
0.0
 46
0.0
 47
0.0
 48
0.0
140
2.5
141
2.5
142
0.0
143
0.03937007874016
144
1.0
145
0.0
146
1.0
147
0.625
 71
     0
 72
     0
 73
     0
 74
     0
 75
     0
 76
     0
 77
     1
 78
     8
170
     0
171
     3
172
     1
173
     0
174
     0
175
     0
176
     0
177
     0
178
     0
270
     2
271
     2
272
     2
273
     2
274
     3
340
11
275
     0
280
     0
281
     0
282
     0
283
     0
284
     8
285
     0
286
     0
287
     3
288
     0
  0
ENDTAB
  0
TABLE
  2
BLOCK_RECORD
  5
1
330
0
100
AcDbSymbolTable
 70
     1
  0
BLOCK_RECORD
  5
1F
330
1
100
AcDbSymbolTableRecord
100
AcDbBlockTableRecord
  2
*MODEL_SPACE
  0
BLOCK_RECORD
  5
1B
330
1
100
AcDbSymbolTableRecord
100
AcDbBlockTableRecord
  2
*PAPER_SPACE
  0
ENDTAB
  0
ENDSEC
  0
SECTION
  2
BLOCKS
  0
BLOCK
  5
20
330
1F
100
AcDbEntity
  8
0
100
AcDbBlockBegin
  2
*MODEL_SPACE
 70
     0
 10
0.0
 20
0.0
 30
0.0
  3
*MODEL_SPACE
  1

  0
ENDBLK
  5
21
330
1F
100
AcDbEntity
  8
0
100
AcDbBlockEnd
  0
BLOCK
  5
1C
330
1B
100
AcDbEntity
 67
     1
  8
0
100
AcDbBlockBegin
  2
*PAPER_SPACE
  1

  0
ENDBLK
  5
1D
330
1B
100
AcDbEntity
 67
     1
  8
0
100
AcDbBlockEnd
  0
ENDSEC
  0
SECTION
  2
ENTITIES
0
DIMENSION
5
83
100
AcDbEntity
62
256
370
-1
6
ByLayer
1
total_width
3
Standard
70
0
71
5
72
1
41
1.0
100
AcDbAlignedDimension
13
3.279337
23
0.000000
33
0.0
14
39.208848
24
0.000000
34
0.0
50
0.000000
100
AcDbRotatedDimension
0
DIMENSION
5
83
100
AcDbEntity
62
256
370
-1
6
ByLayer
1
total_minx
3
Standard
70
0
71
5
72
1
41
1.0
100
AcDbAlignedDimension
13
3.279337
23
0.000000
33
0.0
14
0.000000
24
0.000000
34
0.0
50
0.000000
100
AcDbRotatedDimension
0
DIMENSION
5
83
100
AcDbEntity
62
256
370
-1
6
ByLayer
1
total_maxx
3
Standard
70
0
71
5
72
1
41
1.0
100
AcDbAlignedDimension
13
0.000000
23
0.000000
33
0.0
14
39.208848
24
0.000000
34
0.0
50
0.000000
100
AcDbRotatedDimension
0
DIMENSION
5
83
100
AcDbEntity
62
256
370
-1
6
ByLayer
1
total_height
3
Standard
70
0
71
5
72
1
41
1.0
100
AcDbAlignedDimension
13
0.000000
23
5.693491
33
0.0
14
0.000000
24
36.688889
34
0.0
50
90.000000
100
AcDbRotatedDimension
0
DIMENSION
5
83
100
AcDbEntity
62
256
370
-1
6
ByLayer
1
total_miny
3
Standard
70
0
71
5
72
1
41
1.0
100
AcDbAlignedDimension
13
5.693491
23
0.000000
33
0.0
14
0.000000
24
0.000000
34
0.0
50
0.000000
100
AcDbRotatedDimension
0
DIMENSION
5
83
100
AcDbEntity
62
256
370
-1
6
ByLayer
1
total_maxy
3
Standard
70
0
71
5
72
1
41
1.0
100
AcDbAlignedDimension
13
0.000000
23
0.000000
33
0.0
14
36.688889
24
0.000000
34
0.0
50
0.000000
100
AcDbRotatedDimension
0
DIMENSION
8
Layer_1
5
83
100
AcDbEntity
62
256
370
-1
6
ByLayer
1
Layer_1_width
3
Standard
70
0
71
5
72
1
41
1.0
100
AcDbAlignedDimension
13
3.279337
23
0.000000
33
0.0
14
39.208848
24
0.000000
34
0.0
50
0.000000
100
AcDbRotatedDimension
0
DIMENSION
8
Layer_1
5
83
100
AcDbEntity
62
256
370
-1
6
ByLayer
1
Layer_1_minx
3
Standard
70
0
71
5
72
1
41
1.0
100
AcDbAlignedDimension
13
3.279337
23
0.000000
33
0.0
14
0.000000
24
0.000000
34
0.0
50
0.000000
100
AcDbRotatedDimension
0
DIMENSION
8
Layer_1
5
83
100
AcDbEntity
62
256
370
-1
6
ByLayer
1
Layer_1_maxx
3
Standard
70
0
71
5
72
1
41
1.0
100
AcDbAlignedDimension
13
0.000000
23
0.000000
33
0.0
14
39.208848
24
0.000000
34
0.0
50
0.000000
100
AcDbRotatedDimension
0
DIMENSION
8
Layer_1
5
83
100
AcDbEntity
62
256
370
-1
6
ByLayer
1
Layer_1_height
3
Standard
70
0
71
5
72
1
41
1.0
100
AcDbAlignedDimension
13
0.000000
23
5.693491
33
0.0
14
0.000000
24
36.688889
34
0.0
50
90.000000
100
AcDbRotatedDimension
0
DIMENSION
8
Layer_1
5
83
100
AcDbEntity
62
256
370
-1
6
ByLayer
1
Layer_1_miny
3
Standard
70
0
71
5
72
1
41
1.0
100
AcDbAlignedDimension
13
5.693491
23
0.000000
33
0.0
14
0.000000
24
0.000000
34
0.0
50
0.000000
100
AcDbRotatedDimension
0
DIMENSION
8
Layer_1
5
83
100
AcDbEntity
62
256
370
-1
6
ByLayer
1
Layer_1_maxy
3
Standard
70
0
71
5
72
1
41
1.0
100
AcDbAlignedDimension
13
0.000000
23
0.000000
33
0.0
14
36.688889
24
0.000000
34
0.0
50
0.000000
100
AcDbRotatedDimension
62
0
0
LWPOLYLINE
100
AcDbPolyline
8
Layer_1
90
105
70
0
10
8.607778
20
5.919625
30
0.0
10
5.379113
20
6.493581
30
0.0
10
3.279337
20
6.842435
30
0.0
10
4.109113
20
7.264129
30
0.0
10
5.639698
20
8.332080
30
0.0
10
6.941567
20
9.791969
30
0.0
10
7.892784
20
11.473768
30
0.0
10
8.371413
20
13.207450
30
0.0
10
8.645174
20
14.424327
30
0.0
10
8.921329
20
14.657870
30
0.0
10
9.384596
20
14.788586
30
0.0
10
10.900833
20
14.957778
30
0.0
10
11.571111
20
15.093409
30
0.0
10
10.606741
20
16.736594
30
0.0
10
10.034350
20
17.577576
30
0.0
10
9.541311
20
18.074353
30
0.0
10
8.928349
20
18.369638
30
0.0
10
7.996185
20
18.606142
30
0.0
10
6.556918
20
19.013810
30
0.0
10
5.367810
20
19.535833
30
0.0
10
4.488887
20
20.139537
30
0.0
10
3.980177
20
20.792246
30
0.0
10
3.760117
20
22.120610
30
0.0
10
3.668166
20
24.354946
30
0.0
10
4.100417
20
31.259003
30
0.0
10
4.464287
20
34.679325
30
0.0
10
4.769083
20
36.360238
30
0.0
10
5.434143
20
36.380122
30
0.0
10
6.932163
20
35.968186
30
0.0
10
9.660661
20
35.326536
30
0.0
10
13.422835
20
34.722204
30
0.0
10
18.828452
20
33.994622
30
0.0
10
19.735793
20
33.844798
30
0.0
10
19.732971
20
30.752809
30
0.0
10
19.821518
20
28.050503
30
0.0
10
20.038365
20
25.895410
30
0.0
10
20.889342
20
22.488851
30
0.0
10
21.371631
20
21.111461
30
0.0
10
21.733246
20
20.459786
30
0.0
10
22.160527
20
20.877934
30
0.0
10
22.850255
20
22.091894
30
0.0
10
23.557206
20
23.900408
30
0.0
10
24.184649
20
26.215425
30
0.0
10
24.683209
20
28.821166
30
0.0
10
25.003511
20
31.501854
30
0.0
10
25.191342
20
33.816769
30
0.0
10
27.200667
20
34.005415
30
0.0
10
32.218984
20
34.805316
30
0.0
10
34.656523
20
35.385874
30
0.0
10
36.598290
20
35.992123
30
0.0
10
38.556935
20
36.688889
30
0.0
10
38.664444
20
33.302222
30
0.0
10
38.664444
20
29.915556
30
0.0
10
34.360556
20
29.893274
30
0.0
10
30.056667
20
29.870993
30
0.0
10
34.632759
20
28.320873
30
0.0
10
39.208848
20
26.770753
30
0.0
10
38.505203
20
24.901340
30
0.0
10
37.668931
20
22.899299
30
0.0
10
33.376929
20
23.358038
30
0.0
10
29.138708
20
23.870557
30
0.0
10
32.592151
20
21.451878
30
0.0
10
36.124444
20
18.984769
30
0.0
10
34.932959
20
17.163570
30
0.0
10
33.614109
20
15.531688
30
0.0
10
30.490197
20
17.070588
30
0.0
10
27.460630
20
18.523591
30
0.0
10
29.478786
20
15.894487
30
0.0
10
31.042291
20
13.832497
30
0.0
10
31.296499
20
13.302877
30
0.0
10
31.252462
20
13.020906
30
0.0
10
31.082207
20
12.722634
30
0.0
10
31.299712
20
12.417653
30
0.0
10
33.372778
20
11.431722
30
0.0
10
35.277778
20
10.486856
30
0.0
10
34.107888
20
8.373261
30
0.0
10
32.639158
20
6.244150
30
0.0
10
32.291447
20
6.133923
30
0.0
10
31.648387
20
6.244813
30
0.0
10
28.884078
20
7.295772
30
0.0
10
26.198108
20
8.400361
30
0.0
10
24.716727
20
8.859382
30
0.0
10
23.792411
20
8.773185
30
0.0
10
22.777633
20
8.242122
30
0.0
10
21.302123
20
7.409400
30
0.0
10
19.893839
20
9.340802
30
0.0
10
18.825793
20
10.707307
30
0.0
10
18.235528
20
11.280546
30
0.0
10
18.116175
20
11.115093
30
0.0
10
18.114920
20
10.539584
30
0.0
10
18.496658
20
7.753864
30
0.0
10
18.678559
20
6.617733
30
0.0
10
16.229136
20
6.108638
30
0.0
10
13.666903
20
5.712356
30
0.0
10
13.115780
20
8.204248
30
0.0
10
12.511444
20
11.006667
30
0.0
10
12.398967
20
10.948348
30
0.0
10
12.215447
20
10.476618
30
0.0
10
11.736934
20
8.607778
30
0.0
10
11.302404
20
6.792556
30
0.0
10
10.826172
20
5.902797
30
0.0
10
10.483290
20
5.728400
30
0.0
10
10.023032
20
5.693491
30
0.0
10
8.607778
20
5.919625
30
0.0
10
8.607778
20
5.919625
30
0.0
62
0
0
LWPOLYLINE
100
AcDbPolyline
8
Layer_1
90
16
70
0
10
33.069160
20
8.255505
30
0.0
10
33.915827
20
9.819598
30
0.0
10
33.421824
20
10.345960
30
0.0
10
31.985232
20
11.131649
30
0.0
10
29.962687
20
12.078547
30
0.0
10
29.007381
20
11.429402
30
0.0
10
28.052078
20
10.780254
30
0.0
10
25.299578
20
12.727906
30
0.0
10
22.426516
20
14.675556
30
0.0
10
24.004131
20
12.089376
30
0.0
10
25.702308
20
9.503193
30
0.0
10
28.585041
20
8.303918
30
0.0
10
31.891111
20
7.080603
30
0.0
10
32.411787
20
7.415809
30
0.0
10
33.069160
20
8.255505
30
0.0
10
33.069160
20
8.255505
30
0.0
62
0
0
LWPOLYLINE
100
AcDbPolyline
8
Layer_1
90
55
70
0
10
15.252967
20
16.210997
30
0.0
10
16.972909
20
17.053538
30
0.0
10
18.815393
20
18.154032
30
0.0
10
20.284498
20
19.192204
30
0.0
10
20.884302
20
19.847784
30
0.0
10
20.293444
20
21.731111
30
0.0
10
19.699022
20
23.615288
30
0.0
10
19.265090
20
25.704220
30
0.0
10
18.999197
20
27.951151
30
0.0
10
18.908889
20
30.309319
30
0.0
10
18.908889
20
33.193430
30
0.0
10
14.040556
20
33.796269
30
0.0
10
10.066985
20
34.389181
30
0.0
10
7.349891
20
34.968150
30
0.0
10
5.433296
20
35.442926
30
0.0
10
5.280071
20
33.285267
30
0.0
10
5.221111
20
31.221874
30
0.0
10
6.491111
20
30.844770
30
0.0
10
9.807222
20
30.291310
30
0.0
10
11.412366
20
30.061726
30
0.0
10
11.751912
20
29.901994
30
0.0
10
11.853333
20
29.691620
30
0.0
10
11.773799
20
29.483160
30
0.0
10
11.470732
20
29.379951
30
0.0
10
9.807222
20
29.442124
30
0.0
10
6.363169
20
30.037631
30
0.0
10
4.875860
20
30.369934
30
0.0
10
4.614496
20
28.050148
30
0.0
10
4.442499
20
25.819728
30
0.0
10
6.337515
20
25.314778
30
0.0
10
10.042933
20
24.640770
30
0.0
10
11.451430
20
24.415671
30
0.0
10
11.759195
20
24.256690
30
0.0
10
11.853333
20
24.050216
30
0.0
10
11.778938
20
23.843698
30
0.0
10
11.496195
20
23.743916
30
0.0
10
9.948333
20
23.821688
30
0.0
10
6.378212
20
24.443805
30
0.0
10
5.187739
20
24.683656
30
0.0
10
4.547640
20
24.550900
30
0.0
10
4.329623
20
23.933369
30
0.0
10
4.405396
20
22.718889
30
0.0
10
4.676001
20
21.571845
30
0.0
10
5.236094
20
20.725474
30
0.0
10
6.169332
20
20.097166
30
0.0
10
7.559372
20
19.604309
30
0.0
10
9.086848
20
19.148752
30
0.0
10
10.042054
20
18.705391
30
0.0
10
10.718273
20
18.082552
30
0.0
10
11.408792
20
17.088561
30
0.0
10
12.155584
20
16.047554
30
0.0
10
12.851125
20
15.598598
30
0.0
10
13.786543
20
15.675232
30
0.0
10
15.252967
20
16.210997
30
0.0
10
15.252967
20
16.210997
30
0.0
  0
ENDSEC
  0
SECTION
  2
OBJECTS
  0
DICTIONARY
  5
C
330
0
100
AcDbDictionary
  3
ACAD_GROUP
350
D
  3
ACAD_MLINESTYLE
350
17
  0
DICTIONARY
  5
D
330
C
100
AcDbDictionary
  0
DICTIONARY
  5
1A
330
C
100
AcDbDictionary
  0
DICTIONARY
  5
17
330
C
100
AcDbDictionary
  3
STANDARD
350
18
  0
DICTIONARY
  5
19
330
C
100
AcDbDictionary
  0
ENDSEC
  0
EOF
