999
Inkscape export via OpenSCAD DXF Export
  0
SECTION
  2
HEADER
  9
$ACADVER
  1
AC1014
  9
$HANDSEED
  5
FFFF
  9
$MEASUREMENT
 70
     1
  0
ENDSEC
  0
SECTION
  2
TABLES
  0
TABLE
  2
VPORT
  5
8
330
0
100
AcDbSymbolTable
 70
     4
  0
VPORT
  5
2E
330
8
100
AcDbSymbolTableRecord
100
AcDbViewportTableRecord
  2
*ACTIVE
 70
     0
 10
0.0
 20
0.0
 11
1.0
 21
1.0
 12
210.0
 22
148.5
 13
0.0
 23
0.0
 14
10.0
 24
10.0
 15
10.0
 25
10.0
 16
0.0
 26
0.0
 36
1.0
 17
0.0
 27
0.0
 37
0.0
 40
341.0
 41
1.24
 42
50.0
 43
0.0
 44
0.0
 50
0.0
 51
0.0
 71
     0
 72
   100
 73
     1
 74
     3
 75
     0
 76
     0
 77
     0
 78
     0
  0
ENDTAB
  0
TABLE
  2
LTYPE
  5
5
330
0
100
AcDbSymbolTable
 70
     1
  0
LTYPE
  5
14
330
5
100
AcDbSymbolTableRecord
100
AcDbLinetypeTableRecord
  2
BYBLOCK
 70
     0
  3

 72
    65
 73
     0
 40
0.0
  0
LTYPE
  5
15
330
5
100
AcDbSymbolTableRecord
100
AcDbLinetypeTableRecord
  2
BYLAYER
 70
     0
  3

 72
    65
 73
     0
 40
0.0
  0
LTYPE
  5
16
330
5
100
AcDbSymbolTableRecord
100
AcDbLinetypeTableRecord
  2
CONTINUOUS
 70
     0
  3
Solid line
 72
    65
 73
     0
 40
0.0
  0
ENDTAB
  0
TABLE
0
TABLE
2
LAYER
5
2
330
0
100
AcDbSymbolTable
70
1
0
LAYER
5
10
330
2
100
AcDbSymbolTableRecord
100
AcDbLayerTableRecord
2
Layer_1
70
0
62
7
6
CONTINUOUS
0
ENDTAB
0
ENDSEC
  0
ENDTAB
  0
TABLE
  2
STYLE
  5
3
330
0
100
AcDbSymbolTable
 70
     1
  0
STYLE
  5
11
330
3
100
AcDbSymbolTableRecord
100
AcDbTextStyleTableRecord
  2
STANDARD
 70
     0
 40
0.0
 41
1.0
 50
0.0
 71
     0
 42
2.5
  3
txt
  4

  0
ENDTAB
  0
TABLE
  2
VIEW
  5
6
330
0
100
AcDbSymbolTable
 70
     0
  0
ENDTAB
  0
TABLE
  2
UCS
  5
7
330
0
100
AcDbSymbolTable
 70
     0
  0
ENDTAB
  0
TABLE
  2
APPID
  5
9
330
0
100
AcDbSymbolTable
 70
     2
  0
APPID
  5
12
330
9
100
AcDbSymbolTableRecord
100
AcDbRegAppTableRecord
  2
ACAD
 70
     0
  0
ENDTAB
  0
TABLE
  2
DIMSTYLE
  5
A
330
0
100
AcDbSymbolTable
 70
     1
  0
DIMSTYLE
105
27
330
A
100
AcDbSymbolTableRecord
100
AcDbDimStyleTableRecord
  2
ISO-25
 70
     0
  3

  4

  5

  6

  7

 40
1.0
 41
2.5
 42
0.625
 43
3.75
 44
1.25
 45
0.0
 46
0.0
 47
0.0
 48
0.0
140
2.5
141
2.5
142
0.0
143
0.03937007874016
144
1.0
145
0.0
146
1.0
147
0.625
 71
     0
 72
     0
 73
     0
 74
     0
 75
     0
 76
     0
 77
     1
 78
     8
170
     0
171
     3
172
     1
173
     0
174
     0
175
     0
176
     0
177
     0
178
     0
270
     2
271
     2
272
     2
273
     2
274
     3
340
11
275
     0
280
     0
281
     0
282
     0
283
     0
284
     8
285
     0
286
     0
287
     3
288
     0
  0
ENDTAB
  0
TABLE
  2
BLOCK_RECORD
  5
1
330
0
100
AcDbSymbolTable
 70
     1
  0
BLOCK_RECORD
  5
1F
330
1
100
AcDbSymbolTableRecord
100
AcDbBlockTableRecord
  2
*MODEL_SPACE
  0
BLOCK_RECORD
  5
1B
330
1
100
AcDbSymbolTableRecord
100
AcDbBlockTableRecord
  2
*PAPER_SPACE
  0
ENDTAB
  0
ENDSEC
  0
SECTION
  2
BLOCKS
  0
BLOCK
  5
20
330
1F
100
AcDbEntity
  8
0
100
AcDbBlockBegin
  2
*MODEL_SPACE
 70
     0
 10
0.0
 20
0.0
 30
0.0
  3
*MODEL_SPACE
  1

  0
ENDBLK
  5
21
330
1F
100
AcDbEntity
  8
0
100
AcDbBlockEnd
  0
BLOCK
  5
1C
330
1B
100
AcDbEntity
 67
     1
  8
0
100
AcDbBlockBegin
  2
*PAPER_SPACE
  1

  0
ENDBLK
  5
1D
330
1B
100
AcDbEntity
 67
     1
  8
0
100
AcDbBlockEnd
  0
ENDSEC
  0
SECTION
  2
ENTITIES
0
DIMENSION
5
83
100
AcDbEntity
62
256
370
-1
6
ByLayer
1
total_width
3
Standard
70
0
71
5
72
1
41
1.0
100
AcDbAlignedDimension
13
0.018811
23
0.000000
33
0.0
14
14.102585
24
0.000000
34
0.0
50
0.000000
100
AcDbRotatedDimension
0
DIMENSION
5
83
100
AcDbEntity
62
256
370
-1
6
ByLayer
1
total_minx
3
Standard
70
0
71
5
72
1
41
1.0
100
AcDbAlignedDimension
13
0.018811
23
0.000000
33
0.0
14
0.000000
24
0.000000
34
0.0
50
0.000000
100
AcDbRotatedDimension
0
DIMENSION
5
83
100
AcDbEntity
62
256
370
-1
6
ByLayer
1
total_maxx
3
Standard
70
0
71
5
72
1
41
1.0
100
AcDbAlignedDimension
13
0.000000
23
0.000000
33
0.0
14
14.102585
24
0.000000
34
0.0
50
0.000000
100
AcDbRotatedDimension
0
DIMENSION
5
83
100
AcDbEntity
62
256
370
-1
6
ByLayer
1
total_height
3
Standard
70
0
71
5
72
1
41
1.0
100
AcDbAlignedDimension
13
0.000000
23
0.051091
33
0.0
14
0.000000
24
14.103084
34
0.0
50
90.000000
100
AcDbRotatedDimension
0
DIMENSION
5
83
100
AcDbEntity
62
256
370
-1
6
ByLayer
1
total_miny
3
Standard
70
0
71
5
72
1
41
1.0
100
AcDbAlignedDimension
13
0.051091
23
0.000000
33
0.0
14
0.000000
24
0.000000
34
0.0
50
0.000000
100
AcDbRotatedDimension
0
DIMENSION
5
83
100
AcDbEntity
62
256
370
-1
6
ByLayer
1
total_maxy
3
Standard
70
0
71
5
72
1
41
1.0
100
AcDbAlignedDimension
13
0.000000
23
0.000000
33
0.0
14
14.103084
24
0.000000
34
0.0
50
0.000000
100
AcDbRotatedDimension
0
DIMENSION
8
Layer_1
5
83
100
AcDbEntity
62
256
370
-1
6
ByLayer
1
Layer_1_width
3
Standard
70
0
71
5
72
1
41
1.0
100
AcDbAlignedDimension
13
0.018811
23
0.000000
33
0.0
14
14.102585
24
0.000000
34
0.0
50
0.000000
100
AcDbRotatedDimension
0
DIMENSION
8
Layer_1
5
83
100
AcDbEntity
62
256
370
-1
6
ByLayer
1
Layer_1_minx
3
Standard
70
0
71
5
72
1
41
1.0
100
AcDbAlignedDimension
13
0.018811
23
0.000000
33
0.0
14
0.000000
24
0.000000
34
0.0
50
0.000000
100
AcDbRotatedDimension
0
DIMENSION
8
Layer_1
5
83
100
AcDbEntity
62
256
370
-1
6
ByLayer
1
Layer_1_maxx
3
Standard
70
0
71
5
72
1
41
1.0
100
AcDbAlignedDimension
13
0.000000
23
0.000000
33
0.0
14
14.102585
24
0.000000
34
0.0
50
0.000000
100
AcDbRotatedDimension
0
DIMENSION
8
Layer_1
5
83
100
AcDbEntity
62
256
370
-1
6
ByLayer
1
Layer_1_height
3
Standard
70
0
71
5
72
1
41
1.0
100
AcDbAlignedDimension
13
0.000000
23
0.051091
33
0.0
14
0.000000
24
14.103084
34
0.0
50
90.000000
100
AcDbRotatedDimension
0
DIMENSION
8
Layer_1
5
83
100
AcDbEntity
62
256
370
-1
6
ByLayer
1
Layer_1_miny
3
Standard
70
0
71
5
72
1
41
1.0
100
AcDbAlignedDimension
13
0.051091
23
0.000000
33
0.0
14
0.000000
24
0.000000
34
0.0
50
0.000000
100
AcDbRotatedDimension
0
DIMENSION
8
Layer_1
5
83
100
AcDbEntity
62
256
370
-1
6
ByLayer
1
Layer_1_maxy
3
Standard
70
0
71
5
72
1
41
1.0
100
AcDbAlignedDimension
13
0.000000
23
0.000000
33
0.0
14
14.103084
24
0.000000
34
0.0
50
0.000000
100
AcDbRotatedDimension
62
0
0
LWPOLYLINE
100
AcDbPolyline
8
Layer_1
90
62
70
0
10
4.390498
20
0.665725
30
0.0
10
2.632815
20
1.826604
30
0.0
10
1.247950
20
3.397074
30
0.0
10
0.341437
20
5.220809
30
0.0
10
0.100542
20
6.178799
30
0.0
10
0.018811
20
7.141482
30
0.0
10
0.204217
20
8.368070
30
0.0
10
0.701537
20
9.708035
30
0.0
10
1.430248
20
10.989224
30
0.0
10
2.309826
20
12.039485
30
0.0
10
3.361992
20
12.840524
30
0.0
10
4.613626
20
13.496708
30
0.0
10
5.907644
20
13.940181
30
0.0
10
7.086960
20
14.103084
30
0.0
10
8.107709
20
13.938281
30
0.0
10
9.394498
20
13.517592
30
0.0
10
10.661146
20
12.951602
30
0.0
10
11.621472
20
12.350894
30
0.0
10
12.837175
20
10.849047
30
0.0
10
13.351305
20
9.982446
30
0.0
10
13.562720
20
9.403476
30
0.0
10
13.106755
20
8.928148
30
0.0
10
12.010498
20
8.329500
30
0.0
10
10.681955
20
7.593310
30
0.0
10
10.493649
20
7.201333
30
0.0
10
10.458276
20
6.611504
30
0.0
10
10.256455
20
5.595112
30
0.0
10
9.498720
20
4.620418
30
0.0
10
8.488694
20
3.841694
30
0.0
10
7.311498
20
3.661917
30
0.0
10
6.178848
20
3.815928
30
0.0
10
5.192961
20
4.206188
30
0.0
10
4.371516
20
4.582646
30
0.0
10
3.792503
20
4.376784
30
0.0
10
3.449208
20
3.993538
30
0.0
10
3.638021
20
3.576288
30
0.0
10
4.162734
20
3.101385
30
0.0
10
4.838354
20
2.727809
30
0.0
10
6.468926
20
2.304441
30
0.0
10
8.182969
20
2.345791
30
0.0
10
8.962927
20
2.553113
30
0.0
10
9.633713
20
2.891467
30
0.0
10
10.476251
20
3.600147
30
0.0
10
11.189962
20
4.457889
30
0.0
10
11.684468
20
5.334925
30
0.0
10
11.869387
20
6.101487
30
0.0
10
11.905562
20
6.452558
30
0.0
10
12.059929
20
6.653262
30
0.0
10
12.998276
20
6.765307
30
0.0
10
13.781816
20
6.679684
30
0.0
10
14.102585
20
6.337073
30
0.0
10
13.984983
20
5.608856
30
0.0
10
13.453413
20
4.366418
30
0.0
10
12.700822
20
3.082718
30
0.0
10
11.774838
20
2.007186
30
0.0
10
10.707833
20
1.153038
30
0.0
10
9.532178
20
0.533494
30
0.0
10
8.280245
20
0.161773
30
0.0
10
6.984406
20
0.051091
30
0.0
10
5.677033
20
0.214669
30
0.0
10
4.390498
20
0.665725
30
0.0
10
4.390498
20
0.665725
30
0.0
62
0
0
LWPOLYLINE
100
AcDbPolyline
8
Layer_1
90
29
70
0
10
3.684943
20
7.389067
30
0.0
10
3.813214
20
8.202280
30
0.0
10
4.170237
20
8.919228
30
0.0
10
4.714321
20
9.518536
30
0.0
10
5.403775
20
9.978827
30
0.0
10
6.196911
20
10.278724
30
0.0
10
7.052038
20
10.396853
30
0.0
10
7.927466
20
10.311836
30
0.0
10
8.781506
20
10.002297
30
0.0
10
9.562461
20
9.728270
30
0.0
10
10.196825
20
9.880867
30
0.0
10
10.537703
20
10.185085
30
0.0
10
10.489702
20
10.532945
30
0.0
10
10.046856
20
10.933543
30
0.0
10
9.203198
20
11.395976
30
0.0
10
8.161603
20
11.731357
30
0.0
10
7.025554
20
11.822544
30
0.0
10
5.881218
20
11.671787
30
0.0
10
4.814764
20
11.281338
30
0.0
10
3.848662
20
10.564524
30
0.0
10
3.038448
20
9.549225
30
0.0
10
2.481159
20
8.389760
30
0.0
10
2.273831
20
7.240451
30
0.0
10
2.370761
20
6.398284
30
0.0
10
2.581315
20
6.373887
30
0.0
10
2.979387
20
6.534436
30
0.0
10
3.478475
20
6.917854
30
0.0
10
3.684943
20
7.389067
30
0.0
10
3.684943
20
7.389067
30
0.0
  0
ENDSEC
  0
SECTION
  2
OBJECTS
  0
DICTIONARY
  5
C
330
0
100
AcDbDictionary
  3
ACAD_GROUP
350
D
  3
ACAD_MLINESTYLE
350
17
  0
DICTIONARY
  5
D
330
C
100
AcDbDictionary
  0
DICTIONARY
  5
1A
330
C
100
AcDbDictionary
  0
DICTIONARY
  5
17
330
C
100
AcDbDictionary
  3
STANDARD
350
18
  0
DICTIONARY
  5
19
330
C
100
AcDbDictionary
  0
ENDSEC
  0
EOF
