999
Inkscape export via OpenSCAD DXF Export
  0
SECTION
  2
HEADER
  9
$ACADVER
  1
AC1014
  9
$HANDSEED
  5
FFFF
  9
$MEASUREMENT
 70
     1
  0
ENDSEC
  0
SECTION
  2
TABLES
  0
TABLE
  2
VPORT
  5
8
330
0
100
AcDbSymbolTable
 70
     4
  0
VPORT
  5
2E
330
8
100
AcDbSymbolTableRecord
100
AcDbViewportTableRecord
  2
*ACTIVE
 70
     0
 10
0.0
 20
0.0
 11
1.0
 21
1.0
 12
210.0
 22
148.5
 13
0.0
 23
0.0
 14
10.0
 24
10.0
 15
10.0
 25
10.0
 16
0.0
 26
0.0
 36
1.0
 17
0.0
 27
0.0
 37
0.0
 40
341.0
 41
1.24
 42
50.0
 43
0.0
 44
0.0
 50
0.0
 51
0.0
 71
     0
 72
   100
 73
     1
 74
     3
 75
     0
 76
     0
 77
     0
 78
     0
  0
ENDTAB
  0
TABLE
  2
LTYPE
  5
5
330
0
100
AcDbSymbolTable
 70
     1
  0
LTYPE
  5
14
330
5
100
AcDbSymbolTableRecord
100
AcDbLinetypeTableRecord
  2
BYBLOCK
 70
     0
  3

 72
    65
 73
     0
 40
0.0
  0
LTYPE
  5
15
330
5
100
AcDbSymbolTableRecord
100
AcDbLinetypeTableRecord
  2
BYLAYER
 70
     0
  3

 72
    65
 73
     0
 40
0.0
  0
LTYPE
  5
16
330
5
100
AcDbSymbolTableRecord
100
AcDbLinetypeTableRecord
  2
CONTINUOUS
 70
     0
  3
Solid line
 72
    65
 73
     0
 40
0.0
  0
ENDTAB
  0
TABLE
0
TABLE
2
LAYER
5
2
330
0
100
AcDbSymbolTable
70
1
0
LAYER
5
10
330
2
100
AcDbSymbolTableRecord
100
AcDbLayerTableRecord
2
Layer_1
70
0
62
7
6
CONTINUOUS
0
ENDTAB
0
ENDSEC
  0
ENDTAB
  0
TABLE
  2
STYLE
  5
3
330
0
100
AcDbSymbolTable
 70
     1
  0
STYLE
  5
11
330
3
100
AcDbSymbolTableRecord
100
AcDbTextStyleTableRecord
  2
STANDARD
 70
     0
 40
0.0
 41
1.0
 50
0.0
 71
     0
 42
2.5
  3
txt
  4

  0
ENDTAB
  0
TABLE
  2
VIEW
  5
6
330
0
100
AcDbSymbolTable
 70
     0
  0
ENDTAB
  0
TABLE
  2
UCS
  5
7
330
0
100
AcDbSymbolTable
 70
     0
  0
ENDTAB
  0
TABLE
  2
APPID
  5
9
330
0
100
AcDbSymbolTable
 70
     2
  0
APPID
  5
12
330
9
100
AcDbSymbolTableRecord
100
AcDbRegAppTableRecord
  2
ACAD
 70
     0
  0
ENDTAB
  0
TABLE
  2
DIMSTYLE
  5
A
330
0
100
AcDbSymbolTable
 70
     1
  0
DIMSTYLE
105
27
330
A
100
AcDbSymbolTableRecord
100
AcDbDimStyleTableRecord
  2
ISO-25
 70
     0
  3

  4

  5

  6

  7

 40
1.0
 41
2.5
 42
0.625
 43
3.75
 44
1.25
 45
0.0
 46
0.0
 47
0.0
 48
0.0
140
2.5
141
2.5
142
0.0
143
0.03937007874016
144
1.0
145
0.0
146
1.0
147
0.625
 71
     0
 72
     0
 73
     0
 74
     0
 75
     0
 76
     0
 77
     1
 78
     8
170
     0
171
     3
172
     1
173
     0
174
     0
175
     0
176
     0
177
     0
178
     0
270
     2
271
     2
272
     2
273
     2
274
     3
340
11
275
     0
280
     0
281
     0
282
     0
283
     0
284
     8
285
     0
286
     0
287
     3
288
     0
  0
ENDTAB
  0
TABLE
  2
BLOCK_RECORD
  5
1
330
0
100
AcDbSymbolTable
 70
     1
  0
BLOCK_RECORD
  5
1F
330
1
100
AcDbSymbolTableRecord
100
AcDbBlockTableRecord
  2
*MODEL_SPACE
  0
BLOCK_RECORD
  5
1B
330
1
100
AcDbSymbolTableRecord
100
AcDbBlockTableRecord
  2
*PAPER_SPACE
  0
ENDTAB
  0
ENDSEC
  0
SECTION
  2
BLOCKS
  0
BLOCK
  5
20
330
1F
100
AcDbEntity
  8
0
100
AcDbBlockBegin
  2
*MODEL_SPACE
 70
     0
 10
0.0
 20
0.0
 30
0.0
  3
*MODEL_SPACE
  1

  0
ENDBLK
  5
21
330
1F
100
AcDbEntity
  8
0
100
AcDbBlockEnd
  0
BLOCK
  5
1C
330
1B
100
AcDbEntity
 67
     1
  8
0
100
AcDbBlockBegin
  2
*PAPER_SPACE
  1

  0
ENDBLK
  5
1D
330
1B
100
AcDbEntity
 67
     1
  8
0
100
AcDbBlockEnd
  0
ENDSEC
  0
SECTION
  2
ENTITIES
0
DIMENSION
5
83
100
AcDbEntity
62
256
370
-1
6
ByLayer
1
total_width
3
Standard
70
0
71
5
72
1
41
1.0
100
AcDbAlignedDimension
13
1.552222
23
0.000000
33
0.0
14
34.629484
24
0.000000
34
0.0
50
0.000000
100
AcDbRotatedDimension
0
DIMENSION
5
83
100
AcDbEntity
62
256
370
-1
6
ByLayer
1
total_minx
3
Standard
70
0
71
5
72
1
41
1.0
100
AcDbAlignedDimension
13
1.552222
23
0.000000
33
0.0
14
0.000000
24
0.000000
34
0.0
50
0.000000
100
AcDbRotatedDimension
0
DIMENSION
5
83
100
AcDbEntity
62
256
370
-1
6
ByLayer
1
total_maxx
3
Standard
70
0
71
5
72
1
41
1.0
100
AcDbAlignedDimension
13
0.000000
23
0.000000
33
0.0
14
34.629484
24
0.000000
34
0.0
50
0.000000
100
AcDbRotatedDimension
0
DIMENSION
5
83
100
AcDbEntity
62
256
370
-1
6
ByLayer
1
total_height
3
Standard
70
0
71
5
72
1
41
1.0
100
AcDbAlignedDimension
13
0.000000
23
1.459223
33
0.0
14
0.000000
24
26.811111
34
0.0
50
90.000000
100
AcDbRotatedDimension
0
DIMENSION
5
83
100
AcDbEntity
62
256
370
-1
6
ByLayer
1
total_miny
3
Standard
70
0
71
5
72
1
41
1.0
100
AcDbAlignedDimension
13
1.459223
23
0.000000
33
0.0
14
0.000000
24
0.000000
34
0.0
50
0.000000
100
AcDbRotatedDimension
0
DIMENSION
5
83
100
AcDbEntity
62
256
370
-1
6
ByLayer
1
total_maxy
3
Standard
70
0
71
5
72
1
41
1.0
100
AcDbAlignedDimension
13
0.000000
23
0.000000
33
0.0
14
26.811111
24
0.000000
34
0.0
50
0.000000
100
AcDbRotatedDimension
0
DIMENSION
8
Layer_1
5
83
100
AcDbEntity
62
256
370
-1
6
ByLayer
1
Layer_1_width
3
Standard
70
0
71
5
72
1
41
1.0
100
AcDbAlignedDimension
13
1.552222
23
0.000000
33
0.0
14
34.629484
24
0.000000
34
0.0
50
0.000000
100
AcDbRotatedDimension
0
DIMENSION
8
Layer_1
5
83
100
AcDbEntity
62
256
370
-1
6
ByLayer
1
Layer_1_minx
3
Standard
70
0
71
5
72
1
41
1.0
100
AcDbAlignedDimension
13
1.552222
23
0.000000
33
0.0
14
0.000000
24
0.000000
34
0.0
50
0.000000
100
AcDbRotatedDimension
0
DIMENSION
8
Layer_1
5
83
100
AcDbEntity
62
256
370
-1
6
ByLayer
1
Layer_1_maxx
3
Standard
70
0
71
5
72
1
41
1.0
100
AcDbAlignedDimension
13
0.000000
23
0.000000
33
0.0
14
34.629484
24
0.000000
34
0.0
50
0.000000
100
AcDbRotatedDimension
0
DIMENSION
8
Layer_1
5
83
100
AcDbEntity
62
256
370
-1
6
ByLayer
1
Layer_1_height
3
Standard
70
0
71
5
72
1
41
1.0
100
AcDbAlignedDimension
13
0.000000
23
1.459223
33
0.0
14
0.000000
24
26.811111
34
0.0
50
90.000000
100
AcDbRotatedDimension
0
DIMENSION
8
Layer_1
5
83
100
AcDbEntity
62
256
370
-1
6
ByLayer
1
Layer_1_miny
3
Standard
70
0
71
5
72
1
41
1.0
100
AcDbAlignedDimension
13
1.459223
23
0.000000
33
0.0
14
0.000000
24
0.000000
34
0.0
50
0.000000
100
AcDbRotatedDimension
0
DIMENSION
8
Layer_1
5
83
100
AcDbEntity
62
256
370
-1
6
ByLayer
1
Layer_1_maxy
3
Standard
70
0
71
5
72
1
41
1.0
100
AcDbAlignedDimension
13
0.000000
23
0.000000
33
0.0
14
26.811111
24
0.000000
34
0.0
50
0.000000
100
AcDbRotatedDimension
62
0
0
LWPOLYLINE
100
AcDbPolyline
8
Layer_1
90
59
70
0
10
27.860273
20
1.719178
30
0.0
10
25.969288
20
2.396384
30
0.0
10
24.889335
20
2.700424
30
0.0
10
23.425631
20
2.822222
30
0.0
10
22.017558
20
2.966782
30
0.0
10
21.052533
20
3.418312
30
0.0
10
20.497649
20
4.203590
30
0.0
10
20.320000
20
5.349394
30
0.0
10
20.460288
20
6.342122
30
0.0
10
20.880861
20
7.051760
30
0.0
10
21.581285
20
7.477866
30
0.0
10
22.561122
20
7.620000
30
0.0
10
23.382230
20
7.698518
30
0.0
10
23.808060
20
7.889115
30
0.0
10
23.776220
20
8.124359
30
0.0
10
23.224320
20
8.336814
30
0.0
10
21.613627
20
8.879641
30
0.0
10
21.269975
20
9.233611
30
0.0
10
21.166667
20
9.686875
30
0.0
10
21.305763
20
10.275885
30
0.0
10
21.672724
20
10.788945
30
0.0
10
22.192057
20
11.151473
30
0.0
10
22.788269
20
11.288889
30
0.0
10
24.671047
20
10.734474
30
0.0
10
25.801652
20
10.320988
30
0.0
10
25.943816
20
10.427926
30
0.0
10
25.964444
20
10.745333
30
0.0
10
25.640969
20
11.361902
30
0.0
10
24.703365
20
12.075859
30
0.0
10
23.810107
20
12.694091
30
0.0
10
23.433365
20
13.105869
30
0.0
10
23.623479
20
13.607439
30
0.0
10
24.086494
20
14.330308
30
0.0
10
25.065100
20
15.374695
30
0.0
10
25.553906
20
15.358662
30
0.0
10
26.208627
20
15.118560
30
0.0
10
27.085071
20
14.477703
30
0.0
10
28.103391
20
13.488563
30
0.0
10
28.990341
20
12.442954
30
0.0
10
29.472678
20
11.632689
30
0.0
10
29.826978
20
11.108470
30
0.0
10
30.499084
20
10.570099
30
0.0
10
31.370525
20
10.095337
30
0.0
10
32.322832
20
9.761944
30
0.0
10
33.488157
20
9.215011
30
0.0
10
34.212231
20
8.365482
30
0.0
10
34.406476
20
7.389442
30
0.0
10
34.277233
20
6.909007
30
0.0
10
33.982316
20
6.462977
30
0.0
10
33.585293
20
5.754469
30
0.0
10
33.260970
20
4.747421
30
0.0
10
32.940098
20
3.661178
30
0.0
10
32.507202
20
2.840766
30
0.0
10
31.929115
20
2.239544
30
0.0
10
31.172669
20
1.810872
30
0.0
10
30.428213
20
1.556918
30
0.0
10
29.708887
20
1.459223
30
0.0
10
27.860273
20
1.719178
30
0.0
10
27.860273
20
1.719178
30
0.0
62
0
0
LWPOLYLINE
100
AcDbPolyline
8
Layer_1
90
33
70
0
10
8.880202
20
4.501875
30
0.0
10
8.280056
20
4.848630
30
0.0
10
7.917608
20
5.381526
30
0.0
10
7.740531
20
6.235027
30
0.0
10
7.696497
20
7.543599
30
0.0
10
7.795944
20
9.237588
30
0.0
10
7.952272
20
9.585757
30
0.0
10
8.213611
20
9.745924
30
0.0
10
8.880132
20
9.807440
30
0.0
10
9.789687
20
9.705932
30
0.0
10
11.611727
20
9.142739
30
0.0
10
12.582745
20
8.887343
30
0.0
10
13.869505
20
8.803245
30
0.0
10
15.216852
20
8.704156
30
0.0
10
16.284318
20
8.371676
30
0.0
10
17.139032
20
8.040124
30
0.0
10
17.925650
20
7.902222
30
0.0
10
18.702184
20
7.811683
30
0.0
10
19.276350
20
7.548243
30
0.0
10
19.631561
20
7.124172
30
0.0
10
19.751234
20
6.551737
30
0.0
10
19.541607
20
5.555213
30
0.0
10
18.944395
20
4.913004
30
0.0
10
17.987334
20
4.641415
30
0.0
10
16.698160
20
4.756753
30
0.0
10
14.875185
20
5.113077
30
0.0
10
13.592281
20
5.238149
30
0.0
10
12.602766
20
5.134267
30
0.0
10
11.659956
20
4.803734
30
0.0
10
10.088015
20
4.286384
30
0.0
10
9.499204
20
4.309106
30
0.0
10
8.880202
20
4.501875
30
0.0
10
8.880202
20
4.501875
30
0.0
62
0
0
LWPOLYLINE
100
AcDbPolyline
8
Layer_1
90
18
70
0
10
4.141815
20
6.112259
30
0.0
10
2.754223
20
6.323925
30
0.0
10
1.779407
20
6.449630
30
0.0
10
1.599854
20
6.622183
30
0.0
10
1.552222
20
6.903203
30
0.0
10
1.831513
20
7.486596
30
0.0
10
2.529952
20
8.115297
30
0.0
10
3.599124
20
8.621159
30
0.0
10
4.928841
20
8.690984
30
0.0
10
6.143539
20
8.503145
30
0.0
10
6.351818
20
8.264331
30
0.0
10
6.437652
20
7.848763
30
0.0
10
6.242650
20
6.963753
30
0.0
10
5.621891
20
6.248391
30
0.0
10
4.835053
20
5.899088
30
0.0
10
4.460505
20
5.923088
30
0.0
10
4.141815
20
6.112259
30
0.0
10
4.141815
20
6.112259
30
0.0
62
0
0
LWPOLYLINE
100
AcDbPolyline
8
Layer_1
90
25
70
0
10
17.504528
20
10.013909
30
0.0
10
16.756908
20
10.498593
30
0.0
10
15.800120
20
10.939621
30
0.0
10
12.135556
20
12.134437
30
0.0
10
9.629932
20
12.991670
30
0.0
10
9.228426
20
13.313208
30
0.0
10
9.100501
20
13.716601
30
0.0
10
9.234767
20
14.444274
30
0.0
10
9.697768
20
15.385889
30
0.0
10
10.359549
20
16.324239
30
0.0
10
11.090156
20
17.042116
30
0.0
10
11.670573
20
17.394769
30
0.0
10
12.260921
20
17.348581
30
0.0
10
13.186877
20
16.769187
30
0.0
10
14.774119
20
15.522222
30
0.0
10
18.127002
20
13.252431
30
0.0
10
19.307858
20
12.459620
30
0.0
10
19.931272
20
11.697667
30
0.0
10
20.027911
20
10.900150
30
0.0
10
19.628444
20
10.000647
30
0.0
10
19.224441
20
9.514631
30
0.0
10
18.799173
20
9.354439
30
0.0
10
18.257562
20
9.520668
30
0.0
10
17.504528
20
10.013909
30
0.0
10
17.504528
20
10.013909
30
0.0
62
0
0
LWPOLYLINE
100
AcDbPolyline
8
Layer_1
90
17
70
0
10
31.596409
20
12.291704
30
0.0
10
30.773251
20
14.464151
30
0.0
10
30.214048
20
17.003889
30
0.0
10
30.262069
20
17.305231
30
0.0
10
30.418511
20
17.483017
30
0.0
10
30.986689
20
17.489381
30
0.0
10
31.778642
20
17.065897
30
0.0
10
32.654432
20
16.255482
30
0.0
10
33.673042
20
14.990366
30
0.0
10
34.336049
20
13.921466
30
0.0
10
34.629484
20
13.076731
30
0.0
10
34.539374
20
12.484114
30
0.0
10
33.971624
20
12.079041
30
0.0
10
33.100706
20
11.899450
30
0.0
10
32.213381
20
11.964088
30
0.0
10
31.596409
20
12.291704
30
0.0
10
31.596409
20
12.291704
30
0.0
62
0
0
LWPOLYLINE
100
AcDbPolyline
8
Layer_1
90
31
70
0
10
20.532346
20
13.781624
30
0.0
10
19.262346
20
14.758383
30
0.0
10
16.800224
20
16.956135
30
0.0
10
14.379878
20
18.776272
30
0.0
10
13.640742
20
19.385048
30
0.0
10
13.205024
20
20.051045
30
0.0
10
13.055706
20
20.731609
30
0.0
10
13.175765
20
21.384083
30
0.0
10
13.548182
20
21.965815
30
0.0
10
14.155937
20
22.434148
30
0.0
10
14.982010
20
22.746428
30
0.0
10
16.009379
20
22.860000
30
0.0
10
16.700780
20
22.628994
30
0.0
10
17.467176
20
22.068396
30
0.0
10
18.088440
20
21.376838
30
0.0
10
18.344444
20
20.752952
30
0.0
10
18.737730
20
20.014279
30
0.0
10
19.640198
20
18.920874
30
0.0
10
20.635762
20
17.929715
30
0.0
10
21.308337
20
17.497778
30
0.0
10
21.871550
20
17.305259
30
0.0
10
22.471207
20
16.832989
30
0.0
10
22.947900
20
16.238896
30
0.0
10
23.142222
20
15.680910
30
0.0
10
22.970400
20
15.005521
30
0.0
10
22.557294
20
14.290282
30
0.0
10
22.123636
20
13.845276
30
0.0
10
21.671398
20
13.619651
30
0.0
10
21.155870
20
13.602177
30
0.0
10
20.532346
20
13.781624
30
0.0
10
20.532346
20
13.781624
30
0.0
62
0
0
LWPOLYLINE
100
AcDbPolyline
8
Layer_1
90
19
70
0
10
6.095652
20
15.491421
30
0.0
10
4.358578
20
16.690381
30
0.0
10
3.579245
20
17.207101
30
0.0
10
3.168929
20
17.708286
30
0.0
10
3.151509
20
18.141764
30
0.0
10
3.550860
20
18.455361
30
0.0
10
4.421759
20
18.615506
30
0.0
10
5.552045
20
18.602048
30
0.0
10
6.699024
20
18.434299
30
0.0
10
7.620000
20
18.131572
30
0.0
10
8.423802
20
17.560562
30
0.0
10
8.565318
20
16.713114
30
0.0
10
8.434023
20
15.938303
30
0.0
10
8.177984
20
15.373326
30
0.0
10
7.731577
20
15.058617
30
0.0
10
7.173389
20
14.976931
30
0.0
10
6.596914
20
15.122967
30
0.0
10
6.095652
20
15.491421
30
0.0
10
6.095652
20
15.491421
30
0.0
62
0
0
LWPOLYLINE
100
AcDbPolyline
8
Layer_1
90
18
70
0
10
9.514661
20
24.233124
30
0.0
10
8.349579
20
25.526932
30
0.0
10
7.934719
20
26.314116
30
0.0
10
8.006048
20
26.552293
30
0.0
10
8.261844
20
26.705300
30
0.0
10
9.322716
20
26.811111
30
0.0
10
10.753226
20
26.619525
30
0.0
10
12.119596
20
26.132941
30
0.0
10
13.143514
20
25.483617
30
0.0
10
13.440080
20
25.139259
30
0.0
10
13.546667
20
24.803813
30
0.0
10
13.367500
20
24.079688
30
0.0
10
12.919435
20
23.356301
30
0.0
10
12.336624
20
22.800160
30
0.0
10
11.753220
20
22.577778
30
0.0
10
10.865651
20
23.016569
30
0.0
10
9.514661
20
24.233124
30
0.0
10
9.514661
20
24.233124
30
0.0
  0
ENDSEC
  0
SECTION
  2
OBJECTS
  0
DICTIONARY
  5
C
330
0
100
AcDbDictionary
  3
ACAD_GROUP
350
D
  3
ACAD_MLINESTYLE
350
17
  0
DICTIONARY
  5
D
330
C
100
AcDbDictionary
  0
DICTIONARY
  5
1A
330
C
100
AcDbDictionary
  0
DICTIONARY
  5
17
330
C
100
AcDbDictionary
  3
STANDARD
350
18
  0
DICTIONARY
  5
19
330
C
100
AcDbDictionary
  0
ENDSEC
  0
EOF
