999
Inkscape export via OpenSCAD DXF Export
  0
SECTION
  2
HEADER
  9
$ACADVER
  1
AC1014
  9
$HANDSEED
  5
FFFF
  9
$MEASUREMENT
 70
     1
  0
ENDSEC
  0
SECTION
  2
TABLES
  0
TABLE
  2
VPORT
  5
8
330
0
100
AcDbSymbolTable
 70
     4
  0
VPORT
  5
2E
330
8
100
AcDbSymbolTableRecord
100
AcDbViewportTableRecord
  2
*ACTIVE
 70
     0
 10
0.0
 20
0.0
 11
1.0
 21
1.0
 12
210.0
 22
148.5
 13
0.0
 23
0.0
 14
10.0
 24
10.0
 15
10.0
 25
10.0
 16
0.0
 26
0.0
 36
1.0
 17
0.0
 27
0.0
 37
0.0
 40
341.0
 41
1.24
 42
50.0
 43
0.0
 44
0.0
 50
0.0
 51
0.0
 71
     0
 72
   100
 73
     1
 74
     3
 75
     0
 76
     0
 77
     0
 78
     0
  0
ENDTAB
  0
TABLE
  2
LTYPE
  5
5
330
0
100
AcDbSymbolTable
 70
     1
  0
LTYPE
  5
14
330
5
100
AcDbSymbolTableRecord
100
AcDbLinetypeTableRecord
  2
BYBLOCK
 70
     0
  3

 72
    65
 73
     0
 40
0.0
  0
LTYPE
  5
15
330
5
100
AcDbSymbolTableRecord
100
AcDbLinetypeTableRecord
  2
BYLAYER
 70
     0
  3

 72
    65
 73
     0
 40
0.0
  0
LTYPE
  5
16
330
5
100
AcDbSymbolTableRecord
100
AcDbLinetypeTableRecord
  2
CONTINUOUS
 70
     0
  3
Solid line
 72
    65
 73
     0
 40
0.0
  0
ENDTAB
  0
TABLE
0
TABLE
2
LAYER
5
2
330
0
100
AcDbSymbolTable
70
1
0
LAYER
5
10
330
2
100
AcDbSymbolTableRecord
100
AcDbLayerTableRecord
2
Layer_1
70
0
62
7
6
CONTINUOUS
0
ENDTAB
0
ENDSEC
  0
ENDTAB
  0
TABLE
  2
STYLE
  5
3
330
0
100
AcDbSymbolTable
 70
     1
  0
STYLE
  5
11
330
3
100
AcDbSymbolTableRecord
100
AcDbTextStyleTableRecord
  2
STANDARD
 70
     0
 40
0.0
 41
1.0
 50
0.0
 71
     0
 42
2.5
  3
txt
  4

  0
ENDTAB
  0
TABLE
  2
VIEW
  5
6
330
0
100
AcDbSymbolTable
 70
     0
  0
ENDTAB
  0
TABLE
  2
UCS
  5
7
330
0
100
AcDbSymbolTable
 70
     0
  0
ENDTAB
  0
TABLE
  2
APPID
  5
9
330
0
100
AcDbSymbolTable
 70
     2
  0
APPID
  5
12
330
9
100
AcDbSymbolTableRecord
100
AcDbRegAppTableRecord
  2
ACAD
 70
     0
  0
ENDTAB
  0
TABLE
  2
DIMSTYLE
  5
A
330
0
100
AcDbSymbolTable
 70
     1
  0
DIMSTYLE
105
27
330
A
100
AcDbSymbolTableRecord
100
AcDbDimStyleTableRecord
  2
ISO-25
 70
     0
  3

  4

  5

  6

  7

 40
1.0
 41
2.5
 42
0.625
 43
3.75
 44
1.25
 45
0.0
 46
0.0
 47
0.0
 48
0.0
140
2.5
141
2.5
142
0.0
143
0.03937007874016
144
1.0
145
0.0
146
1.0
147
0.625
 71
     0
 72
     0
 73
     0
 74
     0
 75
     0
 76
     0
 77
     1
 78
     8
170
     0
171
     3
172
     1
173
     0
174
     0
175
     0
176
     0
177
     0
178
     0
270
     2
271
     2
272
     2
273
     2
274
     3
340
11
275
     0
280
     0
281
     0
282
     0
283
     0
284
     8
285
     0
286
     0
287
     3
288
     0
  0
ENDTAB
  0
TABLE
  2
BLOCK_RECORD
  5
1
330
0
100
AcDbSymbolTable
 70
     1
  0
BLOCK_RECORD
  5
1F
330
1
100
AcDbSymbolTableRecord
100
AcDbBlockTableRecord
  2
*MODEL_SPACE
  0
BLOCK_RECORD
  5
1B
330
1
100
AcDbSymbolTableRecord
100
AcDbBlockTableRecord
  2
*PAPER_SPACE
  0
ENDTAB
  0
ENDSEC
  0
SECTION
  2
BLOCKS
  0
BLOCK
  5
20
330
1F
100
AcDbEntity
  8
0
100
AcDbBlockBegin
  2
*MODEL_SPACE
 70
     0
 10
0.0
 20
0.0
 30
0.0
  3
*MODEL_SPACE
  1

  0
ENDBLK
  5
21
330
1F
100
AcDbEntity
  8
0
100
AcDbBlockEnd
  0
BLOCK
  5
1C
330
1B
100
AcDbEntity
 67
     1
  8
0
100
AcDbBlockBegin
  2
*PAPER_SPACE
  1

  0
ENDBLK
  5
1D
330
1B
100
AcDbEntity
 67
     1
  8
0
100
AcDbBlockEnd
  0
ENDSEC
  0
SECTION
  2
ENTITIES
0
DIMENSION
5
83
100
AcDbEntity
62
256
370
-1
6
ByLayer
1
total_width
3
Standard
70
0
71
5
72
1
41
1.0
100
AcDbAlignedDimension
13
2.204683
23
0.000000
33
0.0
14
39.761617
24
0.000000
34
0.0
50
0.000000
100
AcDbRotatedDimension
0
DIMENSION
5
83
100
AcDbEntity
62
256
370
-1
6
ByLayer
1
total_minx
3
Standard
70
0
71
5
72
1
41
1.0
100
AcDbAlignedDimension
13
2.204683
23
0.000000
33
0.0
14
0.000000
24
0.000000
34
0.0
50
0.000000
100
AcDbRotatedDimension
0
DIMENSION
5
83
100
AcDbEntity
62
256
370
-1
6
ByLayer
1
total_maxx
3
Standard
70
0
71
5
72
1
41
1.0
100
AcDbAlignedDimension
13
0.000000
23
0.000000
33
0.0
14
39.761617
24
0.000000
34
0.0
50
0.000000
100
AcDbRotatedDimension
0
DIMENSION
5
83
100
AcDbEntity
62
256
370
-1
6
ByLayer
1
total_height
3
Standard
70
0
71
5
72
1
41
1.0
100
AcDbAlignedDimension
13
0.000000
23
2.866786
33
0.0
14
0.000000
24
23.914058
34
0.0
50
90.000000
100
AcDbRotatedDimension
0
DIMENSION
5
83
100
AcDbEntity
62
256
370
-1
6
ByLayer
1
total_miny
3
Standard
70
0
71
5
72
1
41
1.0
100
AcDbAlignedDimension
13
2.866786
23
0.000000
33
0.0
14
0.000000
24
0.000000
34
0.0
50
0.000000
100
AcDbRotatedDimension
0
DIMENSION
5
83
100
AcDbEntity
62
256
370
-1
6
ByLayer
1
total_maxy
3
Standard
70
0
71
5
72
1
41
1.0
100
AcDbAlignedDimension
13
0.000000
23
0.000000
33
0.0
14
23.914058
24
0.000000
34
0.0
50
0.000000
100
AcDbRotatedDimension
0
DIMENSION
8
Layer_1
5
83
100
AcDbEntity
62
256
370
-1
6
ByLayer
1
Layer_1_width
3
Standard
70
0
71
5
72
1
41
1.0
100
AcDbAlignedDimension
13
2.204683
23
0.000000
33
0.0
14
39.761617
24
0.000000
34
0.0
50
0.000000
100
AcDbRotatedDimension
0
DIMENSION
8
Layer_1
5
83
100
AcDbEntity
62
256
370
-1
6
ByLayer
1
Layer_1_minx
3
Standard
70
0
71
5
72
1
41
1.0
100
AcDbAlignedDimension
13
2.204683
23
0.000000
33
0.0
14
0.000000
24
0.000000
34
0.0
50
0.000000
100
AcDbRotatedDimension
0
DIMENSION
8
Layer_1
5
83
100
AcDbEntity
62
256
370
-1
6
ByLayer
1
Layer_1_maxx
3
Standard
70
0
71
5
72
1
41
1.0
100
AcDbAlignedDimension
13
0.000000
23
0.000000
33
0.0
14
39.761617
24
0.000000
34
0.0
50
0.000000
100
AcDbRotatedDimension
0
DIMENSION
8
Layer_1
5
83
100
AcDbEntity
62
256
370
-1
6
ByLayer
1
Layer_1_height
3
Standard
70
0
71
5
72
1
41
1.0
100
AcDbAlignedDimension
13
0.000000
23
2.866786
33
0.0
14
0.000000
24
23.914058
34
0.0
50
90.000000
100
AcDbRotatedDimension
0
DIMENSION
8
Layer_1
5
83
100
AcDbEntity
62
256
370
-1
6
ByLayer
1
Layer_1_miny
3
Standard
70
0
71
5
72
1
41
1.0
100
AcDbAlignedDimension
13
2.866786
23
0.000000
33
0.0
14
0.000000
24
0.000000
34
0.0
50
0.000000
100
AcDbRotatedDimension
0
DIMENSION
8
Layer_1
5
83
100
AcDbEntity
62
256
370
-1
6
ByLayer
1
Layer_1_maxy
3
Standard
70
0
71
5
72
1
41
1.0
100
AcDbAlignedDimension
13
0.000000
23
0.000000
33
0.0
14
23.914058
24
0.000000
34
0.0
50
0.000000
100
AcDbRotatedDimension
62
0
0
LWPOLYLINE
100
AcDbPolyline
8
Layer_1
90
53
70
0
10
20.204794
20
3.134762
30
0.0
10
19.642596
20
5.093066
30
0.0
10
19.053939
20
6.513587
30
0.0
10
18.196126
20
7.573996
30
0.0
10
17.110812
20
8.237340
30
0.0
10
15.839654
20
8.466667
30
0.0
10
15.196030
20
8.538386
30
0.0
10
14.840196
20
8.710818
30
0.0
10
14.213466
20
8.981666
30
0.0
10
12.918540
20
9.290002
30
0.0
10
9.361544
20
10.194629
30
0.0
10
6.327327
20
11.419869
30
0.0
10
4.027236
20
12.860116
30
0.0
10
3.218533
20
13.627864
30
0.0
10
2.672616
20
14.409761
30
0.0
10
2.327924
20
15.289635
30
0.0
10
2.204683
20
16.153894
30
0.0
10
2.294531
20
16.997694
30
0.0
10
2.589108
20
17.816189
30
0.0
10
3.080056
20
18.604535
30
0.0
10
3.759014
20
19.357887
30
0.0
10
5.647522
20
20.740231
30
0.0
10
8.187753
20
21.924463
30
0.0
10
11.312829
20
22.871825
30
0.0
10
14.955871
20
23.543558
30
0.0
10
19.050000
20
23.900906
30
0.0
10
22.641340
20
23.914058
30
0.0
10
26.106305
20
23.654359
30
0.0
10
29.360400
20
23.147082
30
0.0
10
32.319130
20
22.417498
30
0.0
10
34.897999
20
21.490878
30
0.0
10
37.012511
20
20.392494
30
0.0
10
38.578171
20
19.147615
30
0.0
10
39.128777
20
18.478138
30
0.0
10
39.510485
20
17.781514
30
0.0
10
39.761617
20
16.554991
30
0.0
10
39.690734
20
15.017420
30
0.0
10
39.321303
20
13.340150
30
0.0
10
38.676792
20
11.694530
30
0.0
10
37.941233
20
10.471365
30
0.0
10
36.969107
20
9.296929
30
0.0
10
35.774410
20
8.180644
30
0.0
10
34.371137
20
7.131933
30
0.0
10
32.773287
20
6.160219
30
0.0
10
30.994853
20
5.274924
30
0.0
10
29.049833
20
4.485470
30
0.0
10
26.952222
20
3.801280
30
0.0
10
24.602689
20
3.232708
30
0.0
10
22.474497
20
2.910322
30
0.0
10
20.898312
20
2.866786
30
0.0
10
20.420553
20
2.959794
30
0.0
10
20.204794
20
3.134762
30
0.0
10
20.204794
20
3.134762
30
0.0
62
0
0
LWPOLYLINE
100
AcDbPolyline
8
Layer_1
90
28
70
0
10
26.475004
20
4.830252
30
0.0
10
30.373452
20
6.082355
30
0.0
10
33.519395
20
7.605024
30
0.0
10
34.798276
20
8.460697
30
0.0
10
35.874748
20
9.375462
30
0.0
10
36.744052
20
10.346469
30
0.0
10
37.401427
20
11.370869
30
0.0
10
37.939557
20
12.530564
30
0.0
10
38.073274
20
13.103023
30
0.0
10
37.472758
20
13.039187
30
0.0
10
36.245611
20
12.669067
30
0.0
10
32.532182
20
11.656856
30
0.0
10
27.599795
20
10.659445
30
0.0
10
22.689104
20
9.898467
30
0.0
10
19.040764
20
9.595556
30
0.0
10
18.106680
20
9.526670
30
0.0
10
17.704678
20
9.320303
30
0.0
10
17.834972
20
8.976887
30
0.0
10
18.497775
20
8.496852
30
0.0
10
19.279933
20
7.779575
30
0.0
10
20.052230
20
6.681066
30
0.0
10
20.643278
20
5.489245
30
0.0
10
20.881687
20
4.492037
30
0.0
10
21.041269
20
3.928668
30
0.0
10
21.768636
20
3.781644
30
0.0
10
23.450858
20
4.074370
30
0.0
10
26.475004
20
4.830252
30
0.0
10
26.475004
20
4.830252
30
0.0
62
0
0
LWPOLYLINE
100
AcDbPolyline
8
Layer_1
90
32
70
0
10
16.325223
20
10.812942
30
0.0
10
16.567526
20
12.083621
30
0.0
10
16.712558
20
14.693498
30
0.0
10
16.792222
20
18.203333
30
0.0
10
21.872222
20
19.639405
30
0.0
10
27.728333
20
21.267559
30
0.0
10
28.267062
20
21.467817
30
0.0
10
28.470348
20
21.717480
30
0.0
10
28.337905
20
22.014337
30
0.0
10
27.869444
20
22.356181
30
0.0
10
27.232463
20
22.525047
30
0.0
10
25.928842
20
22.634370
30
0.0
10
20.743333
20
22.702498
30
0.0
10
14.776477
20
22.577617
30
0.0
10
13.151283
20
22.343455
30
0.0
10
11.433224
20
21.909809
30
0.0
10
7.418671
20
20.604661
30
0.0
10
5.558231
20
19.534031
30
0.0
10
4.166337
20
18.234949
30
0.0
10
3.357869
20
16.847668
30
0.0
10
3.208318
20
16.164781
30
0.0
10
3.247704
20
15.512439
30
0.0
10
3.657325
20
14.695132
30
0.0
10
4.500308
20
13.792031
30
0.0
10
5.691376
20
12.879263
30
0.0
10
7.145255
20
12.032957
30
0.0
10
9.543972
20
11.185342
30
0.0
10
12.416753
20
10.627275
30
0.0
10
14.948777
20
10.467045
30
0.0
10
15.832374
20
10.569960
30
0.0
10
16.325223
20
10.812942
30
0.0
10
16.325223
20
10.812942
30
0.0
62
0
0
LWPOLYLINE
100
AcDbPolyline
8
Layer_1
90
19
70
0
10
28.786667
20
12.785748
30
0.0
10
28.611237
20
13.937955
30
0.0
10
27.869444
20
14.888610
30
0.0
10
26.675279
20
15.772169
30
0.0
10
25.046490
20
16.622020
30
0.0
10
23.247346
20
17.318921
30
0.0
10
21.542117
20
17.743627
30
0.0
10
19.881337
20
17.901126
30
0.0
10
19.762188
20
17.813556
30
0.0
10
20.209051
20
17.623391
30
0.0
10
22.414537
20
16.709622
30
0.0
10
24.534431
20
15.463687
30
0.0
10
26.297099
20
14.070244
30
0.0
10
27.430906
20
12.713950
30
0.0
10
28.005798
20
11.871163
30
0.0
10
28.431501
20
11.602630
30
0.0
10
28.695847
20
11.907706
30
0.0
10
28.786667
20
12.785748
30
0.0
10
28.786667
20
12.785748
30
0.0
62
0
0
LWPOLYLINE
100
AcDbPolyline
8
Layer_1
90
21
70
0
10
32.737778
20
13.736155
30
0.0
10
32.701312
20
14.479089
30
0.0
10
32.536918
20
15.034021
30
0.0
10
31.494369
20
16.245929
30
0.0
10
30.378987
20
17.116398
30
0.0
10
28.994586
20
17.870427
30
0.0
10
27.408072
20
18.477367
30
0.0
10
25.686351
20
18.906568
30
0.0
10
24.339133
20
19.070984
30
0.0
10
26.355293
20
17.964668
30
0.0
10
28.127372
20
16.858508
30
0.0
10
29.827606
20
15.434115
30
0.0
10
31.105083
20
14.025365
30
0.0
10
31.475627
20
13.431193
30
0.0
10
31.608889
20
12.966136
30
0.0
10
31.752069
20
12.556878
30
0.0
10
32.173333
20
12.417778
30
0.0
10
32.465670
20
12.464836
30
0.0
10
32.637015
20
12.653131
30
0.0
10
32.737778
20
13.736155
30
0.0
10
32.737778
20
13.736155
30
0.0
62
0
0
LWPOLYLINE
100
AcDbPolyline
8
Layer_1
90
21
70
0
10
35.952486
20
13.947574
30
0.0
10
36.003059
20
14.873596
30
0.0
10
35.503510
20
16.429299
30
0.0
10
35.133248
20
16.997553
30
0.0
10
34.471076
20
17.600891
30
0.0
10
32.548194
20
18.775203
30
0.0
10
30.289242
20
19.677008
30
0.0
10
29.206982
20
19.939712
30
0.0
10
28.248596
20
20.031079
30
0.0
10
27.696206
20
20.015699
30
0.0
10
27.574600
20
19.939621
30
0.0
10
28.834424
20
19.366294
30
0.0
10
30.786508
20
18.394451
30
0.0
10
32.430688
20
17.209667
30
0.0
10
33.772622
20
15.807039
30
0.0
10
34.817967
20
14.181667
30
0.0
10
35.200805
20
13.553757
30
0.0
10
35.509739
20
13.307041
30
0.0
10
35.756417
20
13.439114
30
0.0
10
35.952486
20
13.947574
30
0.0
10
35.952486
20
13.947574
30
0.0
62
0
0
LWPOLYLINE
100
AcDbPolyline
8
Layer_1
90
19
70
0
10
38.664444
20
15.888279
30
0.0
10
38.472373
20
17.067897
30
0.0
10
37.606111
20
18.131307
30
0.0
10
36.348566
20
19.109871
30
0.0
10
34.808149
20
19.936607
30
0.0
10
33.167408
20
20.530021
30
0.0
10
31.608889
20
20.808620
30
0.0
10
30.056667
20
20.908821
30
0.0
10
31.471464
20
20.398194
30
0.0
10
33.652427
20
19.387524
30
0.0
10
35.558724
20
18.091499
30
0.0
10
36.982948
20
16.678805
30
0.0
10
37.449469
20
15.981420
30
0.0
10
37.717693
20
15.318124
30
0.0
10
37.988179
20
14.731543
30
0.0
10
38.300007
20
14.669508
30
0.0
10
38.557367
20
15.074321
30
0.0
10
38.664444
20
15.888279
30
0.0
10
38.664444
20
15.888279
30
0.0
  0
ENDSEC
  0
SECTION
  2
OBJECTS
  0
DICTIONARY
  5
C
330
0
100
AcDbDictionary
  3
ACAD_GROUP
350
D
  3
ACAD_MLINESTYLE
350
17
  0
DICTIONARY
  5
D
330
C
100
AcDbDictionary
  0
DICTIONARY
  5
1A
330
C
100
AcDbDictionary
  0
DICTIONARY
  5
17
330
C
100
AcDbDictionary
  3
STANDARD
350
18
  0
DICTIONARY
  5
19
330
C
100
AcDbDictionary
  0
ENDSEC
  0
EOF
