999
Inkscape export via OpenSCAD DXF Export
  0
SECTION
  2
HEADER
  9
$ACADVER
  1
AC1014
  9
$HANDSEED
  5
FFFF
  9
$MEASUREMENT
 70
     1
  0
ENDSEC
  0
SECTION
  2
TABLES
  0
TABLE
  2
VPORT
  5
8
330
0
100
AcDbSymbolTable
 70
     4
  0
VPORT
  5
2E
330
8
100
AcDbSymbolTableRecord
100
AcDbViewportTableRecord
  2
*ACTIVE
 70
     0
 10
0.0
 20
0.0
 11
1.0
 21
1.0
 12
210.0
 22
148.5
 13
0.0
 23
0.0
 14
10.0
 24
10.0
 15
10.0
 25
10.0
 16
0.0
 26
0.0
 36
1.0
 17
0.0
 27
0.0
 37
0.0
 40
341.0
 41
1.24
 42
50.0
 43
0.0
 44
0.0
 50
0.0
 51
0.0
 71
     0
 72
   100
 73
     1
 74
     3
 75
     0
 76
     0
 77
     0
 78
     0
  0
ENDTAB
  0
TABLE
  2
LTYPE
  5
5
330
0
100
AcDbSymbolTable
 70
     1
  0
LTYPE
  5
14
330
5
100
AcDbSymbolTableRecord
100
AcDbLinetypeTableRecord
  2
BYBLOCK
 70
     0
  3

 72
    65
 73
     0
 40
0.0
  0
LTYPE
  5
15
330
5
100
AcDbSymbolTableRecord
100
AcDbLinetypeTableRecord
  2
BYLAYER
 70
     0
  3

 72
    65
 73
     0
 40
0.0
  0
LTYPE
  5
16
330
5
100
AcDbSymbolTableRecord
100
AcDbLinetypeTableRecord
  2
CONTINUOUS
 70
     0
  3
Solid line
 72
    65
 73
     0
 40
0.0
  0
ENDTAB
  0
TABLE
0
TABLE
2
LAYER
5
2
330
0
100
AcDbSymbolTable
70
1
0
LAYER
5
10
330
2
100
AcDbSymbolTableRecord
100
AcDbLayerTableRecord
2
Layer_1
70
0
62
7
6
CONTINUOUS
0
ENDTAB
0
ENDSEC
  0
ENDTAB
  0
TABLE
  2
STYLE
  5
3
330
0
100
AcDbSymbolTable
 70
     1
  0
STYLE
  5
11
330
3
100
AcDbSymbolTableRecord
100
AcDbTextStyleTableRecord
  2
STANDARD
 70
     0
 40
0.0
 41
1.0
 50
0.0
 71
     0
 42
2.5
  3
txt
  4

  0
ENDTAB
  0
TABLE
  2
VIEW
  5
6
330
0
100
AcDbSymbolTable
 70
     0
  0
ENDTAB
  0
TABLE
  2
UCS
  5
7
330
0
100
AcDbSymbolTable
 70
     0
  0
ENDTAB
  0
TABLE
  2
APPID
  5
9
330
0
100
AcDbSymbolTable
 70
     2
  0
APPID
  5
12
330
9
100
AcDbSymbolTableRecord
100
AcDbRegAppTableRecord
  2
ACAD
 70
     0
  0
ENDTAB
  0
TABLE
  2
DIMSTYLE
  5
A
330
0
100
AcDbSymbolTable
 70
     1
  0
DIMSTYLE
105
27
330
A
100
AcDbSymbolTableRecord
100
AcDbDimStyleTableRecord
  2
ISO-25
 70
     0
  3

  4

  5

  6

  7

 40
1.0
 41
2.5
 42
0.625
 43
3.75
 44
1.25
 45
0.0
 46
0.0
 47
0.0
 48
0.0
140
2.5
141
2.5
142
0.0
143
0.03937007874016
144
1.0
145
0.0
146
1.0
147
0.625
 71
     0
 72
     0
 73
     0
 74
     0
 75
     0
 76
     0
 77
     1
 78
     8
170
     0
171
     3
172
     1
173
     0
174
     0
175
     0
176
     0
177
     0
178
     0
270
     2
271
     2
272
     2
273
     2
274
     3
340
11
275
     0
280
     0
281
     0
282
     0
283
     0
284
     8
285
     0
286
     0
287
     3
288
     0
  0
ENDTAB
  0
TABLE
  2
BLOCK_RECORD
  5
1
330
0
100
AcDbSymbolTable
 70
     1
  0
BLOCK_RECORD
  5
1F
330
1
100
AcDbSymbolTableRecord
100
AcDbBlockTableRecord
  2
*MODEL_SPACE
  0
BLOCK_RECORD
  5
1B
330
1
100
AcDbSymbolTableRecord
100
AcDbBlockTableRecord
  2
*PAPER_SPACE
  0
ENDTAB
  0
ENDSEC
  0
SECTION
  2
BLOCKS
  0
BLOCK
  5
20
330
1F
100
AcDbEntity
  8
0
100
AcDbBlockBegin
  2
*MODEL_SPACE
 70
     0
 10
0.0
 20
0.0
 30
0.0
  3
*MODEL_SPACE
  1

  0
ENDBLK
  5
21
330
1F
100
AcDbEntity
  8
0
100
AcDbBlockEnd
  0
BLOCK
  5
1C
330
1B
100
AcDbEntity
 67
     1
  8
0
100
AcDbBlockBegin
  2
*PAPER_SPACE
  1

  0
ENDBLK
  5
1D
330
1B
100
AcDbEntity
 67
     1
  8
0
100
AcDbBlockEnd
  0
ENDSEC
  0
SECTION
  2
ENTITIES
0
DIMENSION
5
83
100
AcDbEntity
62
256
370
-1
6
ByLayer
1
total_width
3
Standard
70
0
71
5
72
1
41
1.0
100
AcDbAlignedDimension
13
2.597830
23
0.000000
33
0.0
14
40.498889
24
0.000000
34
0.0
50
0.000000
100
AcDbRotatedDimension
0
DIMENSION
5
83
100
AcDbEntity
62
256
370
-1
6
ByLayer
1
total_minx
3
Standard
70
0
71
5
72
1
41
1.0
100
AcDbAlignedDimension
13
2.597830
23
0.000000
33
0.0
14
0.000000
24
0.000000
34
0.0
50
0.000000
100
AcDbRotatedDimension
0
DIMENSION
5
83
100
AcDbEntity
62
256
370
-1
6
ByLayer
1
total_maxx
3
Standard
70
0
71
5
72
1
41
1.0
100
AcDbAlignedDimension
13
0.000000
23
0.000000
33
0.0
14
40.498889
24
0.000000
34
0.0
50
0.000000
100
AcDbRotatedDimension
0
DIMENSION
5
83
100
AcDbEntity
62
256
370
-1
6
ByLayer
1
total_height
3
Standard
70
0
71
5
72
1
41
1.0
100
AcDbAlignedDimension
13
0.000000
23
1.722683
33
0.0
14
0.000000
24
23.631882
34
0.0
50
90.000000
100
AcDbRotatedDimension
0
DIMENSION
5
83
100
AcDbEntity
62
256
370
-1
6
ByLayer
1
total_miny
3
Standard
70
0
71
5
72
1
41
1.0
100
AcDbAlignedDimension
13
1.722683
23
0.000000
33
0.0
14
0.000000
24
0.000000
34
0.0
50
0.000000
100
AcDbRotatedDimension
0
DIMENSION
5
83
100
AcDbEntity
62
256
370
-1
6
ByLayer
1
total_maxy
3
Standard
70
0
71
5
72
1
41
1.0
100
AcDbAlignedDimension
13
0.000000
23
0.000000
33
0.0
14
23.631882
24
0.000000
34
0.0
50
0.000000
100
AcDbRotatedDimension
0
DIMENSION
8
Layer_1
5
83
100
AcDbEntity
62
256
370
-1
6
ByLayer
1
Layer_1_width
3
Standard
70
0
71
5
72
1
41
1.0
100
AcDbAlignedDimension
13
2.597830
23
0.000000
33
0.0
14
40.498889
24
0.000000
34
0.0
50
0.000000
100
AcDbRotatedDimension
0
DIMENSION
8
Layer_1
5
83
100
AcDbEntity
62
256
370
-1
6
ByLayer
1
Layer_1_minx
3
Standard
70
0
71
5
72
1
41
1.0
100
AcDbAlignedDimension
13
2.597830
23
0.000000
33
0.0
14
0.000000
24
0.000000
34
0.0
50
0.000000
100
AcDbRotatedDimension
0
DIMENSION
8
Layer_1
5
83
100
AcDbEntity
62
256
370
-1
6
ByLayer
1
Layer_1_maxx
3
Standard
70
0
71
5
72
1
41
1.0
100
AcDbAlignedDimension
13
0.000000
23
0.000000
33
0.0
14
40.498889
24
0.000000
34
0.0
50
0.000000
100
AcDbRotatedDimension
0
DIMENSION
8
Layer_1
5
83
100
AcDbEntity
62
256
370
-1
6
ByLayer
1
Layer_1_height
3
Standard
70
0
71
5
72
1
41
1.0
100
AcDbAlignedDimension
13
0.000000
23
1.722683
33
0.0
14
0.000000
24
23.631882
34
0.0
50
90.000000
100
AcDbRotatedDimension
0
DIMENSION
8
Layer_1
5
83
100
AcDbEntity
62
256
370
-1
6
ByLayer
1
Layer_1_miny
3
Standard
70
0
71
5
72
1
41
1.0
100
AcDbAlignedDimension
13
1.722683
23
0.000000
33
0.0
14
0.000000
24
0.000000
34
0.0
50
0.000000
100
AcDbRotatedDimension
0
DIMENSION
8
Layer_1
5
83
100
AcDbEntity
62
256
370
-1
6
ByLayer
1
Layer_1_maxy
3
Standard
70
0
71
5
72
1
41
1.0
100
AcDbAlignedDimension
13
0.000000
23
0.000000
33
0.0
14
23.631882
24
0.000000
34
0.0
50
0.000000
100
AcDbRotatedDimension
62
0
0
LWPOLYLINE
100
AcDbPolyline
8
Layer_1
90
55
70
0
10
18.767778
20
2.248872
30
0.0
10
14.918855
20
3.151015
30
0.0
10
11.399312
20
4.419333
30
0.0
10
8.355019
20
5.990719
30
0.0
10
5.931847
20
7.802063
30
0.0
10
4.715987
20
9.127603
30
0.0
10
3.766376
20
10.578013
30
0.0
10
3.091293
20
12.101905
30
0.0
10
2.699018
20
13.647891
30
0.0
10
2.597830
20
15.164584
30
0.0
10
2.796010
20
16.600595
30
0.0
10
3.301838
20
17.904536
30
0.0
10
4.123592
20
19.025019
30
0.0
10
5.226027
20
19.943669
30
0.0
10
6.653858
20
20.773674
30
0.0
10
8.388718
20
21.510047
30
0.0
10
10.412237
20
22.147802
30
0.0
10
12.706049
20
22.681953
30
0.0
10
15.251784
20
23.107515
30
0.0
10
21.025556
20
23.612927
30
0.0
10
24.093633
20
23.631882
30
0.0
10
27.108443
20
23.429798
30
0.0
10
30.009865
20
23.012963
30
0.0
10
32.737778
20
22.387668
30
0.0
10
34.657480
20
21.728450
30
0.0
10
36.535197
20
20.860577
30
0.0
10
38.172260
20
19.888075
30
0.0
10
39.370000
20
18.914967
30
0.0
10
40.001390
20
18.225388
30
0.0
10
40.338890
20
17.661373
30
0.0
10
40.474167
20
16.981803
30
0.0
10
40.498889
20
15.945556
30
0.0
10
40.474254
20
14.909109
30
0.0
10
40.339123
20
14.230450
30
0.0
10
40.001652
20
13.668485
30
0.0
10
39.370000
20
12.982120
30
0.0
10
38.158208
20
11.963015
30
0.0
10
36.830000
20
11.136412
30
0.0
10
35.253240
20
10.544107
30
0.0
10
33.134601
20
9.956328
30
0.0
10
31.009831
20
9.504348
30
0.0
10
29.414682
20
9.319441
30
0.0
10
28.625960
20
9.168865
30
0.0
10
28.222222
20
8.607778
30
0.0
10
27.808432
20
8.040887
30
0.0
10
26.945192
20
7.902222
30
0.0
10
25.479124
20
7.636689
30
0.0
10
24.285118
20
6.863228
30
0.0
10
23.398914
20
5.616546
30
0.0
10
22.856253
20
3.931352
30
0.0
10
22.359349
20
2.278269
30
0.0
10
22.065498
20
1.843723
30
0.0
10
21.767110
20
1.722683
30
0.0
10
18.767778
20
2.248872
30
0.0
10
18.767778
20
2.248872
30
0.0
62
0
0
LWPOLYLINE
100
AcDbPolyline
8
Layer_1
90
22
70
0
10
25.061333
20
10.498667
30
0.0
10
25.303301
20
11.356191
30
0.0
10
25.395476
20
12.890593
30
0.0
10
25.332208
20
14.489559
30
0.0
10
25.107848
20
15.540776
30
0.0
10
24.716739
20
15.911812
30
0.0
10
23.962274
20
16.071480
30
0.0
10
20.797394
20
15.789344
30
0.0
10
18.658519
20
15.366512
30
0.0
10
17.296989
20
14.791797
30
0.0
10
16.865770
20
14.419420
30
0.0
10
16.578536
20
13.975397
30
0.0
10
16.368889
20
12.827510
30
0.0
10
16.513925
20
12.111001
30
0.0
10
16.932039
20
11.465636
30
0.0
10
17.597746
20
10.919436
30
0.0
10
18.485556
20
10.500424
30
0.0
10
19.964397
20
10.262209
30
0.0
10
22.068998
20
10.182374
30
0.0
10
24.025822
20
10.261127
30
0.0
10
25.061333
20
10.498675
30
0.0
10
25.061333
20
10.498667
30
0.0
62
0
0
LWPOLYLINE
100
AcDbPolyline
8
Layer_1
90
25
70
0
10
15.081484
20
13.127664
30
0.0
10
15.826006
20
14.129219
30
0.0
10
16.865752
20
15.144039
30
0.0
10
18.298960
20
16.149720
30
0.0
10
19.974865
20
17.091169
30
0.0
10
21.537694
20
17.788382
30
0.0
10
22.631677
20
18.061353
30
0.0
10
23.227109
20
18.157538
30
0.0
10
23.592208
20
18.387569
30
0.0
10
23.556503
20
18.535048
30
0.0
10
23.252612
20
18.607362
30
0.0
10
22.047307
20
18.551057
30
0.0
10
20.390356
20
18.267778
30
0.0
10
18.695820
20
17.806651
30
0.0
10
16.296856
20
16.795594
30
0.0
10
14.612717
20
15.639553
30
0.0
10
14.046322
20
15.014214
30
0.0
10
13.667771
20
14.361091
30
0.0
10
13.480110
20
13.683004
30
0.0
10
13.486385
20
12.982774
30
0.0
10
13.713771
20
12.339937
30
0.0
10
14.097540
20
12.153632
30
0.0
10
14.574506
20
12.418121
30
0.0
10
15.081484
20
13.127664
30
0.0
10
15.081484
20
13.127664
30
0.0
62
0
0
LWPOLYLINE
100
AcDbPolyline
8
Layer_1
90
20
70
0
10
10.958983
20
13.531194
30
0.0
10
11.341447
20
14.312797
30
0.0
10
11.939581
20
15.132783
30
0.0
10
13.635207
20
16.768986
30
0.0
10
15.750551
20
18.201972
30
0.0
10
17.990304
20
19.193914
30
0.0
10
19.614444
20
19.704068
30
0.0
10
18.474295
20
19.729812
30
0.0
10
16.324129
20
19.489856
30
0.0
10
14.043076
20
18.771614
30
0.0
10
11.964755
20
17.711205
30
0.0
10
10.422791
20
16.444751
30
0.0
10
9.755201
20
15.413977
30
0.0
10
9.595556
20
14.101291
30
0.0
10
9.693141
20
12.954725
30
0.0
10
9.856324
20
12.751732
30
0.0
10
10.132392
20
12.700000
30
0.0
10
10.604461
20
12.917880
30
0.0
10
10.958983
20
13.531194
30
0.0
10
10.958983
20
13.531194
30
0.0
62
0
0
LWPOLYLINE
100
AcDbPolyline
8
Layer_1
90
23
70
0
10
7.794298
20
14.846742
30
0.0
10
8.335176
20
15.717116
30
0.0
10
9.124353
20
16.634024
30
0.0
10
11.176243
20
18.408575
30
0.0
10
13.407243
20
19.772669
30
0.0
10
14.420310
20
20.176506
30
0.0
10
15.274633
20
20.328582
30
0.0
10
15.735066
20
20.385711
30
0.0
10
15.483374
20
20.607084
30
0.0
10
14.816255
20
20.746537
30
0.0
10
13.812177
20
20.654596
30
0.0
10
11.250061
20
19.942431
30
0.0
10
8.710855
20
18.802388
30
0.0
10
7.735415
20
18.175597
30
0.0
10
7.108388
20
17.566261
30
0.0
10
6.521179
20
16.379669
30
0.0
10
6.284045
20
15.161906
30
0.0
10
6.412042
20
14.211977
30
0.0
10
6.617668
20
13.930890
30
0.0
10
6.920222
20
13.828889
30
0.0
10
7.338300
20
14.127883
30
0.0
10
7.794298
20
14.846742
30
0.0
10
7.794298
20
14.846742
30
0.0
62
0
0
LWPOLYLINE
100
AcDbPolyline
8
Layer_1
90
22
70
0
10
5.143850
20
16.361092
30
0.0
10
6.103553
20
17.675514
30
0.0
10
7.330484
20
18.876528
30
0.0
10
8.546721
20
19.686684
30
0.0
10
9.974253
20
20.423661
30
0.0
10
11.333204
20
20.959606
30
0.0
10
12.343698
20
21.166667
30
0.0
10
12.630253
20
21.237222
30
0.0
10
12.517529
20
21.462026
30
0.0
10
11.767559
20
21.615873
30
0.0
10
10.410025
20
21.460262
30
0.0
10
8.792783
20
21.060175
30
0.0
10
7.263692
20
20.480591
30
0.0
10
5.878341
20
19.674353
30
0.0
10
4.699931
20
18.754164
30
0.0
10
3.842051
20
17.686289
30
0.0
10
3.668889
20
16.355303
30
0.0
10
3.758409
20
15.335566
30
0.0
10
4.030522
20
14.996605
30
0.0
10
4.490558
20
15.338440
30
0.0
10
5.143850
20
16.361092
30
0.0
10
5.143850
20
16.361092
30
0.0
  0
ENDSEC
  0
SECTION
  2
OBJECTS
  0
DICTIONARY
  5
C
330
0
100
AcDbDictionary
  3
ACAD_GROUP
350
D
  3
ACAD_MLINESTYLE
350
17
  0
DICTIONARY
  5
D
330
C
100
AcDbDictionary
  0
DICTIONARY
  5
1A
330
C
100
AcDbDictionary
  0
DICTIONARY
  5
17
330
C
100
AcDbDictionary
  3
STANDARD
350
18
  0
DICTIONARY
  5
19
330
C
100
AcDbDictionary
  0
ENDSEC
  0
EOF
