999
Inkscape export via OpenSCAD DXF Export
  0
SECTION
  2
HEADER
  9
$ACADVER
  1
AC1014
  9
$HANDSEED
  5
FFFF
  9
$MEASUREMENT
 70
     1
  0
ENDSEC
  0
SECTION
  2
TABLES
  0
TABLE
  2
VPORT
  5
8
330
0
100
AcDbSymbolTable
 70
     4
  0
VPORT
  5
2E
330
8
100
AcDbSymbolTableRecord
100
AcDbViewportTableRecord
  2
*ACTIVE
 70
     0
 10
0.0
 20
0.0
 11
1.0
 21
1.0
 12
210.0
 22
148.5
 13
0.0
 23
0.0
 14
10.0
 24
10.0
 15
10.0
 25
10.0
 16
0.0
 26
0.0
 36
1.0
 17
0.0
 27
0.0
 37
0.0
 40
341.0
 41
1.24
 42
50.0
 43
0.0
 44
0.0
 50
0.0
 51
0.0
 71
     0
 72
   100
 73
     1
 74
     3
 75
     0
 76
     0
 77
     0
 78
     0
  0
ENDTAB
  0
TABLE
  2
LTYPE
  5
5
330
0
100
AcDbSymbolTable
 70
     1
  0
LTYPE
  5
14
330
5
100
AcDbSymbolTableRecord
100
AcDbLinetypeTableRecord
  2
BYBLOCK
 70
     0
  3

 72
    65
 73
     0
 40
0.0
  0
LTYPE
  5
15
330
5
100
AcDbSymbolTableRecord
100
AcDbLinetypeTableRecord
  2
BYLAYER
 70
     0
  3

 72
    65
 73
     0
 40
0.0
  0
LTYPE
  5
16
330
5
100
AcDbSymbolTableRecord
100
AcDbLinetypeTableRecord
  2
CONTINUOUS
 70
     0
  3
Solid line
 72
    65
 73
     0
 40
0.0
  0
ENDTAB
  0
TABLE
0
TABLE
2
LAYER
5
2
330
0
100
AcDbSymbolTable
70
1
0
LAYER
5
10
330
2
100
AcDbSymbolTableRecord
100
AcDbLayerTableRecord
2
Layer_1
70
0
62
7
6
CONTINUOUS
0
ENDTAB
0
ENDSEC
  0
ENDTAB
  0
TABLE
  2
STYLE
  5
3
330
0
100
AcDbSymbolTable
 70
     1
  0
STYLE
  5
11
330
3
100
AcDbSymbolTableRecord
100
AcDbTextStyleTableRecord
  2
STANDARD
 70
     0
 40
0.0
 41
1.0
 50
0.0
 71
     0
 42
2.5
  3
txt
  4

  0
ENDTAB
  0
TABLE
  2
VIEW
  5
6
330
0
100
AcDbSymbolTable
 70
     0
  0
ENDTAB
  0
TABLE
  2
UCS
  5
7
330
0
100
AcDbSymbolTable
 70
     0
  0
ENDTAB
  0
TABLE
  2
APPID
  5
9
330
0
100
AcDbSymbolTable
 70
     2
  0
APPID
  5
12
330
9
100
AcDbSymbolTableRecord
100
AcDbRegAppTableRecord
  2
ACAD
 70
     0
  0
ENDTAB
  0
TABLE
  2
DIMSTYLE
  5
A
330
0
100
AcDbSymbolTable
 70
     1
  0
DIMSTYLE
105
27
330
A
100
AcDbSymbolTableRecord
100
AcDbDimStyleTableRecord
  2
ISO-25
 70
     0
  3

  4

  5

  6

  7

 40
1.0
 41
2.5
 42
0.625
 43
3.75
 44
1.25
 45
0.0
 46
0.0
 47
0.0
 48
0.0
140
2.5
141
2.5
142
0.0
143
0.03937007874016
144
1.0
145
0.0
146
1.0
147
0.625
 71
     0
 72
     0
 73
     0
 74
     0
 75
     0
 76
     0
 77
     1
 78
     8
170
     0
171
     3
172
     1
173
     0
174
     0
175
     0
176
     0
177
     0
178
     0
270
     2
271
     2
272
     2
273
     2
274
     3
340
11
275
     0
280
     0
281
     0
282
     0
283
     0
284
     8
285
     0
286
     0
287
     3
288
     0
  0
ENDTAB
  0
TABLE
  2
BLOCK_RECORD
  5
1
330
0
100
AcDbSymbolTable
 70
     1
  0
BLOCK_RECORD
  5
1F
330
1
100
AcDbSymbolTableRecord
100
AcDbBlockTableRecord
  2
*MODEL_SPACE
  0
BLOCK_RECORD
  5
1B
330
1
100
AcDbSymbolTableRecord
100
AcDbBlockTableRecord
  2
*PAPER_SPACE
  0
ENDTAB
  0
ENDSEC
  0
SECTION
  2
BLOCKS
  0
BLOCK
  5
20
330
1F
100
AcDbEntity
  8
0
100
AcDbBlockBegin
  2
*MODEL_SPACE
 70
     0
 10
0.0
 20
0.0
 30
0.0
  3
*MODEL_SPACE
  1

  0
ENDBLK
  5
21
330
1F
100
AcDbEntity
  8
0
100
AcDbBlockEnd
  0
BLOCK
  5
1C
330
1B
100
AcDbEntity
 67
     1
  8
0
100
AcDbBlockBegin
  2
*PAPER_SPACE
  1

  0
ENDBLK
  5
1D
330
1B
100
AcDbEntity
 67
     1
  8
0
100
AcDbBlockEnd
  0
ENDSEC
  0
SECTION
  2
ENTITIES
0
DIMENSION
5
83
100
AcDbEntity
62
256
370
-1
6
ByLayer
1
total_width
3
Standard
70
0
71
5
72
1
41
1.0
100
AcDbAlignedDimension
13
4.315483
23
0.000000
33
0.0
14
37.973531
24
0.000000
34
0.0
50
0.000000
100
AcDbRotatedDimension
0
DIMENSION
5
83
100
AcDbEntity
62
256
370
-1
6
ByLayer
1
total_minx
3
Standard
70
0
71
5
72
1
41
1.0
100
AcDbAlignedDimension
13
4.315483
23
0.000000
33
0.0
14
0.000000
24
0.000000
34
0.0
50
0.000000
100
AcDbRotatedDimension
0
DIMENSION
5
83
100
AcDbEntity
62
256
370
-1
6
ByLayer
1
total_maxx
3
Standard
70
0
71
5
72
1
41
1.0
100
AcDbAlignedDimension
13
0.000000
23
0.000000
33
0.0
14
37.973531
24
0.000000
34
0.0
50
0.000000
100
AcDbRotatedDimension
0
DIMENSION
5
83
100
AcDbEntity
62
256
370
-1
6
ByLayer
1
total_height
3
Standard
70
0
71
5
72
1
41
1.0
100
AcDbAlignedDimension
13
0.000000
23
2.296098
33
0.0
14
0.000000
24
37.793930
34
0.0
50
90.000000
100
AcDbRotatedDimension
0
DIMENSION
5
83
100
AcDbEntity
62
256
370
-1
6
ByLayer
1
total_miny
3
Standard
70
0
71
5
72
1
41
1.0
100
AcDbAlignedDimension
13
2.296098
23
0.000000
33
0.0
14
0.000000
24
0.000000
34
0.0
50
0.000000
100
AcDbRotatedDimension
0
DIMENSION
5
83
100
AcDbEntity
62
256
370
-1
6
ByLayer
1
total_maxy
3
Standard
70
0
71
5
72
1
41
1.0
100
AcDbAlignedDimension
13
0.000000
23
0.000000
33
0.0
14
37.793930
24
0.000000
34
0.0
50
0.000000
100
AcDbRotatedDimension
0
DIMENSION
8
Layer_1
5
83
100
AcDbEntity
62
256
370
-1
6
ByLayer
1
Layer_1_width
3
Standard
70
0
71
5
72
1
41
1.0
100
AcDbAlignedDimension
13
4.315483
23
0.000000
33
0.0
14
37.973531
24
0.000000
34
0.0
50
0.000000
100
AcDbRotatedDimension
0
DIMENSION
8
Layer_1
5
83
100
AcDbEntity
62
256
370
-1
6
ByLayer
1
Layer_1_minx
3
Standard
70
0
71
5
72
1
41
1.0
100
AcDbAlignedDimension
13
4.315483
23
0.000000
33
0.0
14
0.000000
24
0.000000
34
0.0
50
0.000000
100
AcDbRotatedDimension
0
DIMENSION
8
Layer_1
5
83
100
AcDbEntity
62
256
370
-1
6
ByLayer
1
Layer_1_maxx
3
Standard
70
0
71
5
72
1
41
1.0
100
AcDbAlignedDimension
13
0.000000
23
0.000000
33
0.0
14
37.973531
24
0.000000
34
0.0
50
0.000000
100
AcDbRotatedDimension
0
DIMENSION
8
Layer_1
5
83
100
AcDbEntity
62
256
370
-1
6
ByLayer
1
Layer_1_height
3
Standard
70
0
71
5
72
1
41
1.0
100
AcDbAlignedDimension
13
0.000000
23
2.296098
33
0.0
14
0.000000
24
37.793930
34
0.0
50
90.000000
100
AcDbRotatedDimension
0
DIMENSION
8
Layer_1
5
83
100
AcDbEntity
62
256
370
-1
6
ByLayer
1
Layer_1_miny
3
Standard
70
0
71
5
72
1
41
1.0
100
AcDbAlignedDimension
13
2.296098
23
0.000000
33
0.0
14
0.000000
24
0.000000
34
0.0
50
0.000000
100
AcDbRotatedDimension
0
DIMENSION
8
Layer_1
5
83
100
AcDbEntity
62
256
370
-1
6
ByLayer
1
Layer_1_maxy
3
Standard
70
0
71
5
72
1
41
1.0
100
AcDbAlignedDimension
13
0.000000
23
0.000000
33
0.0
14
37.793930
24
0.000000
34
0.0
50
0.000000
100
AcDbRotatedDimension
62
0
0
LWPOLYLINE
100
AcDbPolyline
8
Layer_1
90
98
70
0
10
22.711009
20
2.544008
30
0.0
10
19.982071
20
2.979009
30
0.0
10
17.414857
20
3.684248
30
0.0
10
15.026100
20
4.649044
30
0.0
10
12.832535
20
5.862712
30
0.0
10
10.850893
20
7.314570
30
0.0
10
9.097909
20
8.993936
30
0.0
10
7.590315
20
10.890125
30
0.0
10
6.344846
20
12.992456
30
0.0
10
5.385662
20
15.257170
30
0.0
10
4.728554
20
17.617953
30
0.0
10
4.372252
20
20.041106
30
0.0
10
4.315483
20
22.492932
30
0.0
10
4.556979
20
24.939733
30
0.0
10
5.095467
20
27.347812
30
0.0
10
5.929677
20
29.683471
30
0.0
10
7.058339
20
31.913011
30
0.0
10
8.076355
20
33.457226
30
0.0
10
9.269075
20
34.983545
30
0.0
10
10.479853
20
36.306283
30
0.0
10
11.552044
20
37.239756
30
0.0
10
12.330309
20
37.793930
30
0.0
10
11.409856
20
35.336409
30
0.0
10
10.599232
20
32.896306
30
0.0
10
10.034137
20
30.540926
30
0.0
10
9.703327
20
28.211466
30
0.0
10
9.595556
20
25.849123
30
0.0
10
9.818281
20
22.463630
30
0.0
10
10.511443
20
19.601444
30
0.0
10
11.046150
20
18.333782
30
0.0
10
11.712522
20
17.157576
30
0.0
10
12.515243
20
16.059704
30
0.0
10
13.458997
20
15.027041
30
0.0
10
15.098889
20
13.405556
30
0.0
10
15.268401
20
17.215556
30
0.0
10
15.562463
20
20.783015
30
0.0
10
16.294204
20
23.498165
30
0.0
10
17.637341
20
26.623086
30
0.0
10
19.371113
20
29.373686
30
0.0
10
21.491021
20
31.743983
30
0.0
10
23.992561
20
33.727997
30
0.0
10
25.671718
20
34.696172
30
0.0
10
27.641772
20
35.606718
30
0.0
10
29.629146
20
36.345607
30
0.0
10
31.360260
20
36.798814
30
0.0
10
31.964195
20
36.872091
30
0.0
10
32.398364
20
36.726374
30
0.0
10
32.856038
20
36.220442
30
0.0
10
33.530492
20
35.213076
30
0.0
10
35.599094
20
31.553849
30
0.0
10
37.027797
20
27.951465
30
0.0
10
37.502543
20
26.178780
30
0.0
10
37.817740
20
24.428935
30
0.0
10
37.973531
20
22.704805
30
0.0
10
37.970059
20
21.009268
30
0.0
10
37.807465
20
19.345199
30
0.0
10
37.485891
20
17.715476
30
0.0
10
37.005481
20
16.122973
30
0.0
10
36.366375
20
14.570567
30
0.0
10
35.568717
20
13.061135
30
0.0
10
34.612648
20
11.597553
30
0.0
10
33.498310
20
10.182698
30
0.0
10
32.225846
20
8.819444
30
0.0
10
30.196567
20
7.055556
30
0.0
10
30.253729
20
7.573698
30
0.0
10
30.736066
20
8.819444
30
0.0
10
31.529028
20
10.871640
30
0.0
10
32.140232
20
13.036721
30
0.0
10
32.567423
20
15.279468
30
0.0
10
32.808343
20
17.564661
30
0.0
10
32.860736
20
19.857079
30
0.0
10
32.722345
20
22.121502
30
0.0
10
32.390913
20
24.322709
30
0.0
10
31.864184
20
26.425480
30
0.0
10
30.767878
20
29.231045
30
0.0
10
30.243726
20
30.138346
30
0.0
10
29.852343
20
30.480000
30
0.0
10
29.066741
20
30.228112
30
0.0
10
27.941863
20
29.551627
30
0.0
10
26.650691
20
28.569311
30
0.0
10
25.366210
20
27.399929
30
0.0
10
24.292038
20
26.209837
30
0.0
10
23.348504
20
24.926081
30
0.0
10
22.536225
20
23.560994
30
0.0
10
21.855814
20
22.126909
30
0.0
10
20.893060
20
19.101085
30
0.0
10
20.465163
20
15.947279
30
0.0
10
20.577044
20
12.764162
30
0.0
10
21.233622
20
9.650405
30
0.0
10
21.767711
20
8.150371
30
0.0
10
22.439819
20
6.704679
30
0.0
10
23.250562
20
5.325662
30
0.0
10
24.200556
20
4.025654
30
0.0
10
25.311793
20
2.541656
30
0.0
10
25.325290
20
2.317580
30
0.0
10
25.047222
20
2.296098
30
0.0
10
22.711009
20
2.544008
30
0.0
10
22.711009
20
2.544008
30
0.0
  0
ENDSEC
  0
SECTION
  2
OBJECTS
  0
DICTIONARY
  5
C
330
0
100
AcDbDictionary
  3
ACAD_GROUP
350
D
  3
ACAD_MLINESTYLE
350
17
  0
DICTIONARY
  5
D
330
C
100
AcDbDictionary
  0
DICTIONARY
  5
1A
330
C
100
AcDbDictionary
  0
DICTIONARY
  5
17
330
C
100
AcDbDictionary
  3
STANDARD
350
18
  0
DICTIONARY
  5
19
330
C
100
AcDbDictionary
  0
ENDSEC
  0
EOF
