999
Inkscape export via OpenSCAD DXF Export
  0
SECTION
  2
HEADER
  9
$ACADVER
  1
AC1014
  9
$HANDSEED
  5
FFFF
  9
$MEASUREMENT
 70
     1
  0
ENDSEC
  0
SECTION
  2
TABLES
  0
TABLE
  2
VPORT
  5
8
330
0
100
AcDbSymbolTable
 70
     4
  0
VPORT
  5
2E
330
8
100
AcDbSymbolTableRecord
100
AcDbViewportTableRecord
  2
*ACTIVE
 70
     0
 10
0.0
 20
0.0
 11
1.0
 21
1.0
 12
210.0
 22
148.5
 13
0.0
 23
0.0
 14
10.0
 24
10.0
 15
10.0
 25
10.0
 16
0.0
 26
0.0
 36
1.0
 17
0.0
 27
0.0
 37
0.0
 40
341.0
 41
1.24
 42
50.0
 43
0.0
 44
0.0
 50
0.0
 51
0.0
 71
     0
 72
   100
 73
     1
 74
     3
 75
     0
 76
     0
 77
     0
 78
     0
  0
ENDTAB
  0
TABLE
  2
LTYPE
  5
5
330
0
100
AcDbSymbolTable
 70
     1
  0
LTYPE
  5
14
330
5
100
AcDbSymbolTableRecord
100
AcDbLinetypeTableRecord
  2
BYBLOCK
 70
     0
  3

 72
    65
 73
     0
 40
0.0
  0
LTYPE
  5
15
330
5
100
AcDbSymbolTableRecord
100
AcDbLinetypeTableRecord
  2
BYLAYER
 70
     0
  3

 72
    65
 73
     0
 40
0.0
  0
LTYPE
  5
16
330
5
100
AcDbSymbolTableRecord
100
AcDbLinetypeTableRecord
  2
CONTINUOUS
 70
     0
  3
Solid line
 72
    65
 73
     0
 40
0.0
  0
ENDTAB
  0
TABLE
0
TABLE
2
LAYER
5
2
330
0
100
AcDbSymbolTable
70
1
0
LAYER
5
10
330
2
100
AcDbSymbolTableRecord
100
AcDbLayerTableRecord
2
Layer_1
70
0
62
7
6
CONTINUOUS
0
ENDTAB
0
ENDSEC
  0
ENDTAB
  0
TABLE
  2
STYLE
  5
3
330
0
100
AcDbSymbolTable
 70
     1
  0
STYLE
  5
11
330
3
100
AcDbSymbolTableRecord
100
AcDbTextStyleTableRecord
  2
STANDARD
 70
     0
 40
0.0
 41
1.0
 50
0.0
 71
     0
 42
2.5
  3
txt
  4

  0
ENDTAB
  0
TABLE
  2
VIEW
  5
6
330
0
100
AcDbSymbolTable
 70
     0
  0
ENDTAB
  0
TABLE
  2
UCS
  5
7
330
0
100
AcDbSymbolTable
 70
     0
  0
ENDTAB
  0
TABLE
  2
APPID
  5
9
330
0
100
AcDbSymbolTable
 70
     2
  0
APPID
  5
12
330
9
100
AcDbSymbolTableRecord
100
AcDbRegAppTableRecord
  2
ACAD
 70
     0
  0
ENDTAB
  0
TABLE
  2
DIMSTYLE
  5
A
330
0
100
AcDbSymbolTable
 70
     1
  0
DIMSTYLE
105
27
330
A
100
AcDbSymbolTableRecord
100
AcDbDimStyleTableRecord
  2
ISO-25
 70
     0
  3

  4

  5

  6

  7

 40
1.0
 41
2.5
 42
0.625
 43
3.75
 44
1.25
 45
0.0
 46
0.0
 47
0.0
 48
0.0
140
2.5
141
2.5
142
0.0
143
0.03937007874016
144
1.0
145
0.0
146
1.0
147
0.625
 71
     0
 72
     0
 73
     0
 74
     0
 75
     0
 76
     0
 77
     1
 78
     8
170
     0
171
     3
172
     1
173
     0
174
     0
175
     0
176
     0
177
     0
178
     0
270
     2
271
     2
272
     2
273
     2
274
     3
340
11
275
     0
280
     0
281
     0
282
     0
283
     0
284
     8
285
     0
286
     0
287
     3
288
     0
  0
ENDTAB
  0
TABLE
  2
BLOCK_RECORD
  5
1
330
0
100
AcDbSymbolTable
 70
     1
  0
BLOCK_RECORD
  5
1F
330
1
100
AcDbSymbolTableRecord
100
AcDbBlockTableRecord
  2
*MODEL_SPACE
  0
BLOCK_RECORD
  5
1B
330
1
100
AcDbSymbolTableRecord
100
AcDbBlockTableRecord
  2
*PAPER_SPACE
  0
ENDTAB
  0
ENDSEC
  0
SECTION
  2
BLOCKS
  0
BLOCK
  5
20
330
1F
100
AcDbEntity
  8
0
100
AcDbBlockBegin
  2
*MODEL_SPACE
 70
     0
 10
0.0
 20
0.0
 30
0.0
  3
*MODEL_SPACE
  1

  0
ENDBLK
  5
21
330
1F
100
AcDbEntity
  8
0
100
AcDbBlockEnd
  0
BLOCK
  5
1C
330
1B
100
AcDbEntity
 67
     1
  8
0
100
AcDbBlockBegin
  2
*PAPER_SPACE
  1

  0
ENDBLK
  5
1D
330
1B
100
AcDbEntity
 67
     1
  8
0
100
AcDbBlockEnd
  0
ENDSEC
  0
SECTION
  2
ENTITIES
0
DIMENSION
5
83
100
AcDbEntity
62
256
370
-1
6
ByLayer
1
total_width
3
Standard
70
0
71
5
72
1
41
1.0
100
AcDbAlignedDimension
13
0.123201
23
0.000000
33
0.0
14
42.192222
24
0.000000
34
0.0
50
0.000000
100
AcDbRotatedDimension
0
DIMENSION
5
83
100
AcDbEntity
62
256
370
-1
6
ByLayer
1
total_minx
3
Standard
70
0
71
5
72
1
41
1.0
100
AcDbAlignedDimension
13
0.123201
23
0.000000
33
0.0
14
0.000000
24
0.000000
34
0.0
50
0.000000
100
AcDbRotatedDimension
0
DIMENSION
5
83
100
AcDbEntity
62
256
370
-1
6
ByLayer
1
total_maxx
3
Standard
70
0
71
5
72
1
41
1.0
100
AcDbAlignedDimension
13
0.000000
23
0.000000
33
0.0
14
42.192222
24
0.000000
34
0.0
50
0.000000
100
AcDbRotatedDimension
0
DIMENSION
5
83
100
AcDbEntity
62
256
370
-1
6
ByLayer
1
total_height
3
Standard
70
0
71
5
72
1
41
1.0
100
AcDbAlignedDimension
13
0.000000
23
0.043665
33
0.0
14
0.000000
24
38.347673
34
0.0
50
90.000000
100
AcDbRotatedDimension
0
DIMENSION
5
83
100
AcDbEntity
62
256
370
-1
6
ByLayer
1
total_miny
3
Standard
70
0
71
5
72
1
41
1.0
100
AcDbAlignedDimension
13
0.043665
23
0.000000
33
0.0
14
0.000000
24
0.000000
34
0.0
50
0.000000
100
AcDbRotatedDimension
0
DIMENSION
5
83
100
AcDbEntity
62
256
370
-1
6
ByLayer
1
total_maxy
3
Standard
70
0
71
5
72
1
41
1.0
100
AcDbAlignedDimension
13
0.000000
23
0.000000
33
0.0
14
38.347673
24
0.000000
34
0.0
50
0.000000
100
AcDbRotatedDimension
0
DIMENSION
8
Layer_1
5
83
100
AcDbEntity
62
256
370
-1
6
ByLayer
1
Layer_1_width
3
Standard
70
0
71
5
72
1
41
1.0
100
AcDbAlignedDimension
13
0.123201
23
0.000000
33
0.0
14
42.192222
24
0.000000
34
0.0
50
0.000000
100
AcDbRotatedDimension
0
DIMENSION
8
Layer_1
5
83
100
AcDbEntity
62
256
370
-1
6
ByLayer
1
Layer_1_minx
3
Standard
70
0
71
5
72
1
41
1.0
100
AcDbAlignedDimension
13
0.123201
23
0.000000
33
0.0
14
0.000000
24
0.000000
34
0.0
50
0.000000
100
AcDbRotatedDimension
0
DIMENSION
8
Layer_1
5
83
100
AcDbEntity
62
256
370
-1
6
ByLayer
1
Layer_1_maxx
3
Standard
70
0
71
5
72
1
41
1.0
100
AcDbAlignedDimension
13
0.000000
23
0.000000
33
0.0
14
42.192222
24
0.000000
34
0.0
50
0.000000
100
AcDbRotatedDimension
0
DIMENSION
8
Layer_1
5
83
100
AcDbEntity
62
256
370
-1
6
ByLayer
1
Layer_1_height
3
Standard
70
0
71
5
72
1
41
1.0
100
AcDbAlignedDimension
13
0.000000
23
0.043665
33
0.0
14
0.000000
24
38.347673
34
0.0
50
90.000000
100
AcDbRotatedDimension
0
DIMENSION
8
Layer_1
5
83
100
AcDbEntity
62
256
370
-1
6
ByLayer
1
Layer_1_miny
3
Standard
70
0
71
5
72
1
41
1.0
100
AcDbAlignedDimension
13
0.043665
23
0.000000
33
0.0
14
0.000000
24
0.000000
34
0.0
50
0.000000
100
AcDbRotatedDimension
0
DIMENSION
8
Layer_1
5
83
100
AcDbEntity
62
256
370
-1
6
ByLayer
1
Layer_1_maxy
3
Standard
70
0
71
5
72
1
41
1.0
100
AcDbAlignedDimension
13
0.000000
23
0.000000
33
0.0
14
38.347673
24
0.000000
34
0.0
50
0.000000
100
AcDbRotatedDimension
62
0
0
LWPOLYLINE
100
AcDbPolyline
8
Layer_1
90
95
70
0
10
8.029201
20
0.402059
30
0.0
10
8.135422
20
1.253049
30
0.0
10
8.583929
20
2.795770
30
0.0
10
8.999470
20
4.278557
30
0.0
10
9.026429
20
4.985447
30
0.0
10
4.882225
20
6.282151
30
0.0
10
1.984553
20
7.232131
30
0.0
10
0.486608
20
7.911979
30
0.0
10
0.223836
20
8.227434
30
0.0
10
0.123201
20
8.612414
30
0.0
10
0.376842
20
10.266685
30
0.0
10
0.816667
20
11.925522
30
0.0
10
1.379647
20
13.135146
30
0.0
10
2.139975
20
14.012569
30
0.0
10
3.171844
20
14.674805
30
0.0
10
4.462698
20
15.161174
30
0.0
10
5.646349
20
15.142233
30
0.0
10
7.070295
20
14.620062
30
0.0
10
8.236268
20
13.656304
30
0.0
10
9.024027
20
12.388311
30
0.0
10
9.313333
20
10.953431
30
0.0
10
9.428747
20
10.188735
30
0.0
10
9.759749
20
9.810527
30
0.0
10
10.679245
20
9.675840
30
0.0
10
10.962709
20
9.851833
30
0.0
10
11.144884
20
10.194550
30
0.0
10
11.079953
20
10.633365
30
0.0
10
10.624598
20
11.388497
30
0.0
10
8.200569
20
14.327884
30
0.0
10
6.388295
20
16.463236
30
0.0
10
5.415303
20
17.807746
30
0.0
10
5.132194
20
18.617662
30
0.0
10
5.389565
20
19.149231
30
0.0
10
5.400798
20
19.458534
30
0.0
10
4.864863
20
20.023747
30
0.0
10
1.482607
20
22.494646
30
0.0
10
0.355013
20
23.423356
30
0.0
10
0.323324
20
23.721756
30
0.0
10
0.733846
20
23.932671
30
0.0
10
3.143940
20
24.161498
30
0.0
10
8.110129
20
24.248744
30
0.0
10
14.677978
20
24.391625
30
0.0
10
15.723583
20
24.558947
30
0.0
10
16.071128
20
24.850187
30
0.0
10
18.513275
20
31.548442
30
0.0
10
20.770019
20
37.516080
30
0.0
10
21.333574
20
38.337033
30
0.0
10
21.542841
20
38.347673
30
0.0
10
21.729936
20
38.145426
30
0.0
10
24.125819
20
31.372093
30
0.0
10
26.479323
20
24.672194
30
0.0
10
26.981332
20
24.504568
30
0.0
10
28.359936
20
24.384319
30
0.0
10
34.444900
20
24.248860
30
0.0
10
40.754137
20
24.112708
30
0.0
10
41.895044
20
23.978760
30
0.0
10
42.192222
20
23.770076
30
0.0
10
41.363194
20
22.885088
30
0.0
10
39.370000
20
21.324098
30
0.0
10
37.293940
20
19.690943
30
0.0
10
36.778908
20
19.158681
30
0.0
10
36.631166
20
18.832904
30
0.0
10
36.492260
20
18.247090
30
0.0
10
36.041197
20
17.468882
30
0.0
10
34.753584
20
15.524838
30
0.0
10
34.139324
20
14.496009
30
0.0
10
35.536813
20
14.905671
30
0.0
10
36.793264
20
15.118633
30
0.0
10
37.999305
20
15.031794
30
0.0
10
39.118839
20
14.673107
30
0.0
10
40.115768
20
14.070527
30
0.0
10
40.953994
20
13.252006
30
0.0
10
41.597419
20
12.245498
30
0.0
10
42.009946
20
11.078955
30
0.0
10
42.155477
20
9.780332
30
0.0
10
41.911675
20
8.108068
30
0.0
10
41.240402
20
6.700858
30
0.0
10
40.231862
20
5.597303
30
0.0
10
38.976256
20
4.836002
30
0.0
10
37.563786
20
4.455555
30
0.0
10
36.084654
20
4.494562
30
0.0
10
34.629063
20
4.991624
30
0.0
10
33.287214
20
5.985341
30
0.0
10
32.882583
20
6.320602
30
0.0
10
32.786391
20
6.136548
30
0.0
10
33.584444
20
3.712554
30
0.0
10
34.375529
20
1.027359
30
0.0
10
34.410893
20
0.297898
30
0.0
10
34.195075
20
0.043665
30
0.0
10
27.789517
20
4.276999
30
0.0
10
21.359016
20
8.510332
30
0.0
10
14.798187
20
4.276999
30
0.0
10
8.332533
20
0.043665
30
0.0
10
8.029201
20
0.402059
30
0.0
10
8.029201
20
0.402059
30
0.0
62
0
0
LWPOLYLINE
100
AcDbPolyline
8
Layer_1
90
28
70
0
10
39.250993
20
5.765382
30
0.0
10
40.247119
20
6.613884
30
0.0
10
40.958638
20
7.595445
30
0.0
10
41.385549
20
8.665712
30
0.0
10
41.527853
20
9.780333
30
0.0
10
41.385549
20
10.894953
30
0.0
10
40.958638
20
11.965220
30
0.0
10
40.247119
20
12.946781
30
0.0
10
39.250993
20
13.795283
30
0.0
10
38.480729
20
14.200489
30
0.0
10
37.666933
20
14.420689
30
0.0
10
36.831075
20
14.461519
30
0.0
10
35.994625
20
14.328620
30
0.0
10
35.179053
20
14.027631
30
0.0
10
34.405827
20
13.564189
30
0.0
10
33.696418
20
12.943934
30
0.0
10
33.072296
20
12.172505
30
0.0
10
32.551117
20
11.071098
30
0.0
10
32.519417
20
9.564872
30
0.0
10
32.703988
20
8.352193
30
0.0
10
33.099452
20
7.367857
30
0.0
10
33.752660
20
6.530477
30
0.0
10
34.710463
20
5.758665
30
0.0
10
35.774716
20
5.272749
30
0.0
10
36.973888
20
5.112025
30
0.0
10
38.176480
20
5.276301
30
0.0
10
39.250993
20
5.765382
30
0.0
10
39.250993
20
5.765382
30
0.0
62
0
0
LWPOLYLINE
100
AcDbPolyline
8
Layer_1
90
20
70
0
10
36.230334
20
7.944242
30
0.0
10
35.701007
20
8.368306
30
0.0
10
35.330018
20
9.064225
30
0.0
10
35.172533
20
9.874747
30
0.0
10
35.283716
20
10.642620
30
0.0
10
35.566084
20
11.122253
30
0.0
10
35.968881
20
11.463057
30
0.0
10
36.975423
20
11.729609
30
0.0
10
37.982675
20
11.445130
30
0.0
10
38.386358
20
11.097146
30
0.0
10
38.669968
20
10.612474
30
0.0
10
38.823066
20
9.970569
30
0.0
10
38.800514
20
9.367797
30
0.0
10
38.624700
20
8.828644
30
0.0
10
38.318014
20
8.377599
30
0.0
10
37.902845
20
8.039148
30
0.0
10
37.401582
20
7.837780
30
0.0
10
36.836615
20
7.797983
30
0.0
10
36.230334
20
7.944242
30
0.0
10
36.230334
20
7.944242
30
0.0
62
0
0
LWPOLYLINE
100
AcDbPolyline
8
Layer_1
90
28
70
0
10
9.848807
20
6.323110
30
0.0
10
10.283994
20
7.859008
30
0.0
10
10.371322
20
8.366707
30
0.0
10
10.309066
20
8.658753
30
0.0
10
9.473283
20
8.948753
30
0.0
10
8.897236
20
9.081321
30
0.0
10
8.597741
20
9.294484
30
0.0
10
8.484363
20
9.730422
30
0.0
10
8.466667
20
10.531312
30
0.0
10
8.228206
20
12.205831
30
0.0
10
7.934121
20
12.875696
30
0.0
10
7.527016
20
13.430161
30
0.0
10
7.009552
20
13.866375
30
0.0
10
6.384389
20
14.181487
30
0.0
10
4.821613
20
14.436999
30
0.0
10
3.721387
20
14.251798
30
0.0
10
2.708163
20
13.576225
30
0.0
10
2.047628
20
12.878467
30
0.0
10
1.576515
20
12.061733
30
0.0
10
1.243419
20
11.006357
30
0.0
10
0.996933
20
9.592671
30
0.0
10
0.819282
20
8.276124
30
0.0
10
2.314641
20
7.838604
30
0.0
10
6.491111
20
6.576241
30
0.0
10
9.313707
20
5.782732
30
0.0
10
9.673279
20
5.900803
30
0.0
10
9.848807
20
6.323110
30
0.0
10
9.848807
20
6.323110
30
0.0
62
0
0
LWPOLYLINE
100
AcDbPolyline
8
Layer_1
90
15
70
0
10
4.435360
20
10.375785
30
0.0
10
3.643293
20
10.658267
30
0.0
10
3.314731
20
10.943135
30
0.0
10
3.411811
20
11.342269
30
0.0
10
3.896668
20
11.967555
30
0.0
10
4.295135
20
12.282102
30
0.0
10
4.747117
20
12.406823
30
0.0
10
5.652453
20
12.181851
30
0.0
10
6.294325
20
11.482768
30
0.0
10
6.416979
20
11.014852
30
0.0
10
6.354386
20
10.499706
30
0.0
10
6.212766
20
10.121815
30
0.0
10
5.976127
20
9.983618
30
0.0
10
4.435360
20
10.375785
30
0.0
10
4.435360
20
10.375785
30
0.0
62
0
0
LWPOLYLINE
100
AcDbPolyline
8
Layer_1
90
8
70
0
10
31.737946
20
10.184164
30
0.0
10
31.768367
20
10.421784
30
0.0
10
31.613492
20
10.624154
30
0.0
10
31.410922
20
10.620103
30
0.0
10
31.326667
20
10.361433
30
0.0
10
31.441583
20
9.940104
30
0.0
10
31.737946
20
10.184164
30
0.0
10
31.737946
20
10.184164
30
0.0
62
0
0
LWPOLYLINE
100
AcDbPolyline
8
Layer_1
90
34
70
0
10
13.225624
20
12.494093
30
0.0
10
14.174582
20
13.356865
30
0.0
10
13.296180
20
14.263145
30
0.0
10
12.417778
20
15.367657
30
0.0
10
12.765572
20
15.555992
30
0.0
10
13.556895
20
15.558915
30
0.0
10
14.413660
20
15.409933
30
0.0
10
14.957778
20
15.142555
30
0.0
10
15.292119
20
14.822980
30
0.0
10
15.634458
20
14.776596
30
0.0
10
16.819148
20
15.627388
30
0.0
10
17.853493
20
16.535554
30
0.0
10
16.781948
20
17.461832
30
0.0
10
16.085951
20
17.977971
30
0.0
10
15.400961
20
18.298894
30
0.0
10
14.685839
20
18.438123
30
0.0
10
13.899444
20
18.409177
30
0.0
10
13.649985
20
18.525537
30
0.0
10
13.545612
20
18.869627
30
0.0
10
13.363372
20
19.633244
30
0.0
10
12.886662
20
20.407444
30
0.0
10
12.215984
20
21.066665
30
0.0
10
11.451842
20
21.485346
30
0.0
10
10.408080
20
21.657181
30
0.0
10
9.377682
20
21.448712
30
0.0
10
8.296808
20
20.835079
30
0.0
10
7.101616
20
19.791424
30
0.0
10
5.710626
20
18.407729
30
0.0
10
8.570313
20
15.033082
30
0.0
10
10.714321
20
12.645756
30
0.0
10
11.853333
20
11.644879
30
0.0
10
12.431069
20
11.888744
30
0.0
10
13.225624
20
12.494093
30
0.0
10
13.225624
20
12.494093
30
0.0
62
0
0
LWPOLYLINE
100
AcDbPolyline
8
Layer_1
90
14
70
0
10
9.738226
20
17.937646
30
0.0
10
9.286029
20
18.645895
30
0.0
10
9.182351
20
19.137523
30
0.0
10
9.429314
20
19.424050
30
0.0
10
10.029039
20
19.516999
30
0.0
10
10.669899
20
19.309510
30
0.0
10
11.193464
20
18.803970
30
0.0
10
11.475161
20
18.175768
30
0.0
10
11.390415
20
17.600295
30
0.0
10
11.038119
20
17.185075
30
0.0
10
10.676245
20
17.096580
30
0.0
10
10.258408
20
17.344280
30
0.0
10
9.738226
20
17.937646
30
0.0
10
9.738226
20
17.937646
30
0.0
62
0
0
LWPOLYLINE
100
AcDbPolyline
8
Layer_1
90
36
70
0
10
33.430391
20
15.013366
30
0.0
10
34.892614
20
17.396779
30
0.0
10
35.652168
20
18.388110
30
0.0
10
35.754265
20
18.528695
30
0.0
10
35.494567
20
18.872097
30
0.0
10
34.355445
20
19.697238
30
0.0
10
33.874339
20
19.915009
30
0.0
10
33.492635
20
19.952911
30
0.0
10
32.435941
20
19.396407
30
0.0
10
31.187819
20
18.670332
30
0.0
10
31.463990
20
19.692576
30
0.0
10
31.787354
20
20.604854
30
0.0
10
31.843578
20
21.276742
30
0.0
10
31.613413
20
21.845542
30
0.0
10
31.077611
20
22.448556
30
0.0
10
30.264114
20
23.227937
30
0.0
10
27.221060
20
20.293449
30
0.0
10
24.178007
20
17.358961
30
0.0
10
25.179999
20
16.594704
30
0.0
10
26.181992
20
15.830447
30
0.0
10
27.773046
20
17.462056
30
0.0
10
29.364102
20
19.093666
30
0.0
10
28.615473
20
17.037093
30
0.0
10
28.135039
20
15.536358
30
0.0
10
28.031211
20
14.816158
30
0.0
10
28.707775
20
15.054052
30
0.0
10
30.103597
20
15.856820
30
0.0
10
31.293265
20
16.598558
30
0.0
10
31.707236
20
16.716099
30
0.0
10
31.366876
20
16.050307
30
0.0
10
30.293553
20
14.442041
30
0.0
10
29.633333
20
13.182643
30
0.0
10
30.371931
20
12.308378
30
0.0
10
31.326667
20
11.636849
30
0.0
10
33.430391
20
15.013366
30
0.0
10
33.430391
20
15.013366
30
0.0
62
0
0
LWPOLYLINE
100
AcDbPolyline
8
Layer_1
90
28
70
0
10
23.405232
20
17.527763
30
0.0
10
24.030991
20
18.072738
30
0.0
10
24.540102
20
18.721863
30
0.0
10
25.188356
20
20.248823
30
0.0
10
25.309943
20
21.941163
30
0.0
10
25.160721
20
22.797013
30
0.0
10
24.864813
20
23.631404
30
0.0
10
24.241589
20
24.658070
30
0.0
10
23.434945
20
25.459545
30
0.0
10
22.491097
20
26.027119
30
0.0
10
21.456262
20
26.352077
30
0.0
10
20.376659
20
26.425708
30
0.0
10
19.298503
20
26.239300
30
0.0
10
18.268013
20
25.784140
30
0.0
10
17.331406
20
25.051516
30
0.0
10
16.585639
20
24.118977
30
0.0
10
16.104315
20
23.103710
30
0.0
10
15.882360
20
22.040202
30
0.0
10
15.914702
20
20.962941
30
0.0
10
16.196265
20
19.906414
30
0.0
10
16.721978
20
18.905109
30
0.0
10
17.486766
20
17.993513
30
0.0
10
18.485556
20
17.206114
30
0.0
10
19.569930
20
16.809767
30
0.0
10
20.904872
20
16.741298
30
0.0
10
22.260075
20
16.985649
30
0.0
10
23.405232
20
17.527763
30
0.0
10
23.405232
20
17.527763
30
0.0
62
0
0
LWPOLYLINE
100
AcDbPolyline
8
Layer_1
90
22
70
0
10
19.189537
20
20.288656
30
0.0
10
18.866950
20
20.829127
30
0.0
10
18.712558
20
21.387623
30
0.0
10
18.714120
20
21.936378
30
0.0
10
18.859392
20
22.447623
30
0.0
10
19.136135
20
22.893593
30
0.0
10
19.532105
20
23.246522
30
0.0
10
20.035061
20
23.478641
30
0.0
10
20.632762
20
23.562184
30
0.0
10
21.232128
20
23.462735
30
0.0
10
21.740192
20
23.190136
30
0.0
10
22.141636
20
22.783014
30
0.0
10
22.421138
20
22.279994
30
0.0
10
22.563379
20
21.719702
30
0.0
10
22.553038
20
21.140762
30
0.0
10
22.374796
20
20.581801
30
0.0
10
22.013333
20
20.081443
30
0.0
10
21.328533
20
19.634618
30
0.0
10
20.569341
20
19.524636
30
0.0
10
19.826196
20
19.744861
30
0.0
10
19.189537
20
20.288656
30
0.0
10
19.189537
20
20.288656
30
0.0
  0
ENDSEC
  0
SECTION
  2
OBJECTS
  0
DICTIONARY
  5
C
330
0
100
AcDbDictionary
  3
ACAD_GROUP
350
D
  3
ACAD_MLINESTYLE
350
17
  0
DICTIONARY
  5
D
330
C
100
AcDbDictionary
  0
DICTIONARY
  5
1A
330
C
100
AcDbDictionary
  0
DICTIONARY
  5
17
330
C
100
AcDbDictionary
  3
STANDARD
350
18
  0
DICTIONARY
  5
19
330
C
100
AcDbDictionary
  0
ENDSEC
  0
EOF
