999
Inkscape export via OpenSCAD DXF Export
  0
SECTION
  2
HEADER
  9
$ACADVER
  1
AC1014
  9
$HANDSEED
  5
FFFF
  9
$MEASUREMENT
 70
     1
  0
ENDSEC
  0
SECTION
  2
TABLES
  0
TABLE
  2
VPORT
  5
8
330
0
100
AcDbSymbolTable
 70
     4
  0
VPORT
  5
2E
330
8
100
AcDbSymbolTableRecord
100
AcDbViewportTableRecord
  2
*ACTIVE
 70
     0
 10
0.0
 20
0.0
 11
1.0
 21
1.0
 12
210.0
 22
148.5
 13
0.0
 23
0.0
 14
10.0
 24
10.0
 15
10.0
 25
10.0
 16
0.0
 26
0.0
 36
1.0
 17
0.0
 27
0.0
 37
0.0
 40
341.0
 41
1.24
 42
50.0
 43
0.0
 44
0.0
 50
0.0
 51
0.0
 71
     0
 72
   100
 73
     1
 74
     3
 75
     0
 76
     0
 77
     0
 78
     0
  0
ENDTAB
  0
TABLE
  2
LTYPE
  5
5
330
0
100
AcDbSymbolTable
 70
     1
  0
LTYPE
  5
14
330
5
100
AcDbSymbolTableRecord
100
AcDbLinetypeTableRecord
  2
BYBLOCK
 70
     0
  3

 72
    65
 73
     0
 40
0.0
  0
LTYPE
  5
15
330
5
100
AcDbSymbolTableRecord
100
AcDbLinetypeTableRecord
  2
BYLAYER
 70
     0
  3

 72
    65
 73
     0
 40
0.0
  0
LTYPE
  5
16
330
5
100
AcDbSymbolTableRecord
100
AcDbLinetypeTableRecord
  2
CONTINUOUS
 70
     0
  3
Solid line
 72
    65
 73
     0
 40
0.0
  0
ENDTAB
  0
TABLE
0
TABLE
2
LAYER
5
2
330
0
100
AcDbSymbolTable
70
1
0
LAYER
5
10
330
2
100
AcDbSymbolTableRecord
100
AcDbLayerTableRecord
2
Layer_1
70
0
62
7
6
CONTINUOUS
0
ENDTAB
0
ENDSEC
  0
ENDTAB
  0
TABLE
  2
STYLE
  5
3
330
0
100
AcDbSymbolTable
 70
     1
  0
STYLE
  5
11
330
3
100
AcDbSymbolTableRecord
100
AcDbTextStyleTableRecord
  2
STANDARD
 70
     0
 40
0.0
 41
1.0
 50
0.0
 71
     0
 42
2.5
  3
txt
  4

  0
ENDTAB
  0
TABLE
  2
VIEW
  5
6
330
0
100
AcDbSymbolTable
 70
     0
  0
ENDTAB
  0
TABLE
  2
UCS
  5
7
330
0
100
AcDbSymbolTable
 70
     0
  0
ENDTAB
  0
TABLE
  2
APPID
  5
9
330
0
100
AcDbSymbolTable
 70
     2
  0
APPID
  5
12
330
9
100
AcDbSymbolTableRecord
100
AcDbRegAppTableRecord
  2
ACAD
 70
     0
  0
ENDTAB
  0
TABLE
  2
DIMSTYLE
  5
A
330
0
100
AcDbSymbolTable
 70
     1
  0
DIMSTYLE
105
27
330
A
100
AcDbSymbolTableRecord
100
AcDbDimStyleTableRecord
  2
ISO-25
 70
     0
  3

  4

  5

  6

  7

 40
1.0
 41
2.5
 42
0.625
 43
3.75
 44
1.25
 45
0.0
 46
0.0
 47
0.0
 48
0.0
140
2.5
141
2.5
142
0.0
143
0.03937007874016
144
1.0
145
0.0
146
1.0
147
0.625
 71
     0
 72
     0
 73
     0
 74
     0
 75
     0
 76
     0
 77
     1
 78
     8
170
     0
171
     3
172
     1
173
     0
174
     0
175
     0
176
     0
177
     0
178
     0
270
     2
271
     2
272
     2
273
     2
274
     3
340
11
275
     0
280
     0
281
     0
282
     0
283
     0
284
     8
285
     0
286
     0
287
     3
288
     0
  0
ENDTAB
  0
TABLE
  2
BLOCK_RECORD
  5
1
330
0
100
AcDbSymbolTable
 70
     1
  0
BLOCK_RECORD
  5
1F
330
1
100
AcDbSymbolTableRecord
100
AcDbBlockTableRecord
  2
*MODEL_SPACE
  0
BLOCK_RECORD
  5
1B
330
1
100
AcDbSymbolTableRecord
100
AcDbBlockTableRecord
  2
*PAPER_SPACE
  0
ENDTAB
  0
ENDSEC
  0
SECTION
  2
BLOCKS
  0
BLOCK
  5
20
330
1F
100
AcDbEntity
  8
0
100
AcDbBlockBegin
  2
*MODEL_SPACE
 70
     0
 10
0.0
 20
0.0
 30
0.0
  3
*MODEL_SPACE
  1

  0
ENDBLK
  5
21
330
1F
100
AcDbEntity
  8
0
100
AcDbBlockEnd
  0
BLOCK
  5
1C
330
1B
100
AcDbEntity
 67
     1
  8
0
100
AcDbBlockBegin
  2
*PAPER_SPACE
  1

  0
ENDBLK
  5
1D
330
1B
100
AcDbEntity
 67
     1
  8
0
100
AcDbBlockEnd
  0
ENDSEC
  0
SECTION
  2
ENTITIES
0
DIMENSION
5
83
100
AcDbEntity
62
256
370
-1
6
ByLayer
1
total_width
3
Standard
70
0
71
5
72
1
41
1.0
100
AcDbAlignedDimension
13
3.500202
23
0.000000
33
0.0
14
38.883284
24
0.000000
34
0.0
50
0.000000
100
AcDbRotatedDimension
0
DIMENSION
5
83
100
AcDbEntity
62
256
370
-1
6
ByLayer
1
total_minx
3
Standard
70
0
71
5
72
1
41
1.0
100
AcDbAlignedDimension
13
3.500202
23
0.000000
33
0.0
14
0.000000
24
0.000000
34
0.0
50
0.000000
100
AcDbRotatedDimension
0
DIMENSION
5
83
100
AcDbEntity
62
256
370
-1
6
ByLayer
1
total_maxx
3
Standard
70
0
71
5
72
1
41
1.0
100
AcDbAlignedDimension
13
0.000000
23
0.000000
33
0.0
14
38.883284
24
0.000000
34
0.0
50
0.000000
100
AcDbRotatedDimension
0
DIMENSION
5
83
100
AcDbEntity
62
256
370
-1
6
ByLayer
1
total_height
3
Standard
70
0
71
5
72
1
41
1.0
100
AcDbAlignedDimension
13
0.000000
23
3.408148
33
0.0
14
0.000000
24
39.855363
34
0.0
50
90.000000
100
AcDbRotatedDimension
0
DIMENSION
5
83
100
AcDbEntity
62
256
370
-1
6
ByLayer
1
total_miny
3
Standard
70
0
71
5
72
1
41
1.0
100
AcDbAlignedDimension
13
3.408148
23
0.000000
33
0.0
14
0.000000
24
0.000000
34
0.0
50
0.000000
100
AcDbRotatedDimension
0
DIMENSION
5
83
100
AcDbEntity
62
256
370
-1
6
ByLayer
1
total_maxy
3
Standard
70
0
71
5
72
1
41
1.0
100
AcDbAlignedDimension
13
0.000000
23
0.000000
33
0.0
14
39.855363
24
0.000000
34
0.0
50
0.000000
100
AcDbRotatedDimension
0
DIMENSION
8
Layer_1
5
83
100
AcDbEntity
62
256
370
-1
6
ByLayer
1
Layer_1_width
3
Standard
70
0
71
5
72
1
41
1.0
100
AcDbAlignedDimension
13
3.500202
23
0.000000
33
0.0
14
38.883284
24
0.000000
34
0.0
50
0.000000
100
AcDbRotatedDimension
0
DIMENSION
8
Layer_1
5
83
100
AcDbEntity
62
256
370
-1
6
ByLayer
1
Layer_1_minx
3
Standard
70
0
71
5
72
1
41
1.0
100
AcDbAlignedDimension
13
3.500202
23
0.000000
33
0.0
14
0.000000
24
0.000000
34
0.0
50
0.000000
100
AcDbRotatedDimension
0
DIMENSION
8
Layer_1
5
83
100
AcDbEntity
62
256
370
-1
6
ByLayer
1
Layer_1_maxx
3
Standard
70
0
71
5
72
1
41
1.0
100
AcDbAlignedDimension
13
0.000000
23
0.000000
33
0.0
14
38.883284
24
0.000000
34
0.0
50
0.000000
100
AcDbRotatedDimension
0
DIMENSION
8
Layer_1
5
83
100
AcDbEntity
62
256
370
-1
6
ByLayer
1
Layer_1_height
3
Standard
70
0
71
5
72
1
41
1.0
100
AcDbAlignedDimension
13
0.000000
23
3.408148
33
0.0
14
0.000000
24
39.855363
34
0.0
50
90.000000
100
AcDbRotatedDimension
0
DIMENSION
8
Layer_1
5
83
100
AcDbEntity
62
256
370
-1
6
ByLayer
1
Layer_1_miny
3
Standard
70
0
71
5
72
1
41
1.0
100
AcDbAlignedDimension
13
3.408148
23
0.000000
33
0.0
14
0.000000
24
0.000000
34
0.0
50
0.000000
100
AcDbRotatedDimension
0
DIMENSION
8
Layer_1
5
83
100
AcDbEntity
62
256
370
-1
6
ByLayer
1
Layer_1_maxy
3
Standard
70
0
71
5
72
1
41
1.0
100
AcDbAlignedDimension
13
0.000000
23
0.000000
33
0.0
14
39.855363
24
0.000000
34
0.0
50
0.000000
100
AcDbRotatedDimension
62
0
0
LWPOLYLINE
100
AcDbPolyline
8
Layer_1
90
77
70
0
10
22.773207
20
3.943200
30
0.0
10
21.031251
20
4.837161
30
0.0
10
19.723790
20
5.965663
30
0.0
10
18.855381
20
7.293381
30
0.0
10
18.430581
20
8.784989
30
0.0
10
18.453948
20
10.405161
30
0.0
10
18.930039
20
12.118570
30
0.0
10
19.863411
20
13.889893
30
0.0
10
21.258620
20
15.683801
30
0.0
10
22.520716
20
17.074444
30
0.0
10
22.373456
20
15.218763
30
0.0
10
22.374079
20
13.478446
30
0.0
10
22.627601
20
12.949098
30
0.0
10
23.133322
20
12.329922
30
0.0
10
23.789158
20
11.715744
30
0.0
10
24.514501
20
11.269122
30
0.0
10
25.283855
20
10.990844
30
0.0
10
26.071722
20
10.881695
30
0.0
10
26.852608
20
10.942462
30
0.0
10
27.601015
20
11.173931
30
0.0
10
28.291447
20
11.576888
30
0.0
10
28.898407
20
12.152119
30
0.0
10
29.490454
20
13.064040
30
0.0
10
29.808690
20
14.029400
30
0.0
10
29.866646
20
15.007609
30
0.0
10
29.677849
20
15.958074
30
0.0
10
29.255831
20
16.840205
30
0.0
10
28.614119
20
17.613409
30
0.0
10
27.766244
20
18.237096
30
0.0
10
26.725734
20
18.670673
30
0.0
10
25.431103
20
19.093310
30
0.0
10
27.027311
20
20.999894
30
0.0
10
28.514689
20
22.854678
30
0.0
10
29.782807
20
24.957977
30
0.0
10
30.749727
20
27.152236
30
0.0
10
31.333508
20
29.279901
30
0.0
10
31.510996
20
31.105792
30
0.0
10
31.389068
20
32.916701
30
0.0
10
30.968340
20
34.708540
30
0.0
10
30.249427
20
36.477222
30
0.0
10
29.762361
20
37.623309
30
0.0
10
29.717653
20
38.100000
30
0.0
10
30.526929
20
37.796598
30
0.0
10
31.792789
20
37.039470
30
0.0
10
33.166564
20
36.058238
30
0.0
10
34.299584
20
35.082520
30
0.0
10
35.432496
20
33.748833
30
0.0
10
36.349144
20
32.349468
30
0.0
10
36.756697
20
31.491231
30
0.0
10
36.985479
20
30.678301
30
0.0
10
37.102048
20
28.081111
30
0.0
10
36.975814
20
25.856550
30
0.0
10
36.574878
20
23.986250
30
0.0
10
35.840362
20
22.285020
30
0.0
10
34.713387
20
20.567671
30
0.0
10
33.623092
20
19.116626
30
0.0
10
34.996631
20
18.432163
30
0.0
10
35.945258
20
17.876507
30
0.0
10
36.778690
20
17.219836
30
0.0
10
38.061724
20
15.667193
30
0.0
10
38.492203
20
14.803098
30
0.0
10
38.769244
20
13.901735
30
0.0
10
38.883284
20
12.979043
30
0.0
10
38.824764
20
12.050959
30
0.0
10
38.475490
20
10.770571
30
0.0
10
37.855912
20
9.514048
30
0.0
10
36.992330
20
8.305689
30
0.0
10
35.911046
20
7.169798
30
0.0
10
34.638358
20
6.130674
30
0.0
10
33.200569
20
5.212618
30
0.0
10
31.623979
20
4.439933
30
0.0
10
29.934888
20
3.836918
30
0.0
10
28.175008
20
3.500039
30
0.0
10
26.213595
20
3.408148
30
0.0
10
24.322408
20
3.557213
30
0.0
10
22.773207
20
3.943200
30
0.0
10
22.773207
20
3.943200
30
0.0
62
0
0
LWPOLYLINE
100
AcDbPolyline
8
Layer_1
90
84
70
0
10
12.683614
20
7.457894
30
0.0
10
10.782751
20
8.978897
30
0.0
10
8.908515
20
10.784449
30
0.0
10
7.245250
20
12.681598
30
0.0
10
5.977300
20
14.477391
30
0.0
10
4.975858
20
16.402239
30
0.0
10
4.228207
20
18.399650
30
0.0
10
3.735827
20
20.441087
30
0.0
10
3.500202
20
22.498011
30
0.0
10
3.522813
20
24.541884
30
0.0
10
3.805143
20
26.544167
30
0.0
10
4.348676
20
28.476323
30
0.0
10
5.154892
20
30.309812
30
0.0
10
6.568379
20
32.412935
30
0.0
10
8.504200
20
34.517639
30
0.0
10
10.712730
20
36.384696
30
0.0
10
12.944347
20
37.774877
30
0.0
10
15.696013
20
38.946667
30
0.0
10
15.989092
20
38.691864
30
0.0
10
16.086667
20
37.926526
30
0.0
10
16.291724
20
36.938139
30
0.0
10
16.772456
20
35.679333
30
0.0
10
17.327201
20
34.604574
30
0.0
10
17.754298
20
34.168329
30
0.0
10
18.807468
20
34.794426
30
0.0
10
20.592836
20
36.170871
30
0.0
10
22.375672
20
37.699482
30
0.0
10
23.421243
20
38.782078
30
0.0
10
24.123598
20
39.855363
30
0.0
10
25.224409
20
38.624903
30
0.0
10
26.582552
20
36.813641
30
0.0
10
27.509151
20
34.913905
30
0.0
10
28.005752
20
32.947207
30
0.0
10
28.073898
20
30.935056
30
0.0
10
27.715133
20
28.898961
30
0.0
10
26.931003
20
26.860433
30
0.0
10
25.723051
20
24.840981
30
0.0
10
24.092820
20
22.862116
30
0.0
10
22.015507
20
20.884444
30
0.0
10
21.812382
20
21.288711
30
0.0
10
21.621266
20
22.260670
30
0.0
10
21.389393
20
23.365234
30
0.0
10
20.991404
20
24.498500
30
0.0
10
19.759695
20
26.758352
30
0.0
10
18.051377
20
28.854667
30
0.0
10
15.991687
20
30.601881
30
0.0
10
14.642822
20
31.399876
30
0.0
10
14.239960
20
31.469589
30
0.0
10
13.897809
20
31.363552
30
0.0
10
13.125248
20
30.766471
30
0.0
10
12.269745
20
29.811584
30
0.0
10
11.442068
20
28.638902
30
0.0
10
10.752981
20
27.388434
30
0.0
10
10.153311
20
25.644816
30
0.0
10
10.018889
20
23.283333
30
0.0
10
10.167428
20
20.847858
30
0.0
10
10.921283
20
18.838333
30
0.0
10
11.634942
20
17.492927
30
0.0
10
12.083568
20
16.933333
30
0.0
10
12.311377
20
17.263328
30
0.0
10
12.494136
20
18.056719
30
0.0
10
12.867016
20
19.283171
30
0.0
10
13.551926
20
20.654352
30
0.0
10
14.301066
20
21.994945
30
0.0
10
14.827411
20
23.225312
30
0.0
10
15.138031
20
24.365481
30
0.0
10
15.240000
20
25.435483
30
0.0
10
15.312344
20
26.207701
30
0.0
10
15.486278
20
26.528889
30
0.0
10
16.097091
20
26.109201
30
0.0
10
17.033744
20
25.096696
30
0.0
10
17.985546
20
23.861216
30
0.0
10
18.641809
20
22.772598
30
0.0
10
19.117648
20
21.356716
30
0.0
10
19.074657
20
19.991975
30
0.0
10
18.432293
20
18.321698
30
0.0
10
17.110013
20
15.989206
30
0.0
10
15.992181
20
13.976895
30
0.0
10
15.324555
20
12.256117
30
0.0
10
15.022105
20
10.524234
30
0.0
10
14.999802
20
8.478610
30
0.0
10
14.957778
20
5.935495
30
0.0
10
12.683614
20
7.457894
30
0.0
10
12.683614
20
7.457894
30
0.0
  0
ENDSEC
  0
SECTION
  2
OBJECTS
  0
DICTIONARY
  5
C
330
0
100
AcDbDictionary
  3
ACAD_GROUP
350
D
  3
ACAD_MLINESTYLE
350
17
  0
DICTIONARY
  5
D
330
C
100
AcDbDictionary
  0
DICTIONARY
  5
1A
330
C
100
AcDbDictionary
  0
DICTIONARY
  5
17
330
C
100
AcDbDictionary
  3
STANDARD
350
18
  0
DICTIONARY
  5
19
330
C
100
AcDbDictionary
  0
ENDSEC
  0
EOF
