999
Inkscape export via OpenSCAD DXF Export
  0
SECTION
  2
HEADER
  9
$ACADVER
  1
AC1014
  9
$HANDSEED
  5
FFFF
  9
$MEASUREMENT
 70
     1
  0
ENDSEC
  0
SECTION
  2
TABLES
  0
TABLE
  2
VPORT
  5
8
330
0
100
AcDbSymbolTable
 70
     4
  0
VPORT
  5
2E
330
8
100
AcDbSymbolTableRecord
100
AcDbViewportTableRecord
  2
*ACTIVE
 70
     0
 10
0.0
 20
0.0
 11
1.0
 21
1.0
 12
210.0
 22
148.5
 13
0.0
 23
0.0
 14
10.0
 24
10.0
 15
10.0
 25
10.0
 16
0.0
 26
0.0
 36
1.0
 17
0.0
 27
0.0
 37
0.0
 40
341.0
 41
1.24
 42
50.0
 43
0.0
 44
0.0
 50
0.0
 51
0.0
 71
     0
 72
   100
 73
     1
 74
     3
 75
     0
 76
     0
 77
     0
 78
     0
  0
ENDTAB
  0
TABLE
  2
LTYPE
  5
5
330
0
100
AcDbSymbolTable
 70
     1
  0
LTYPE
  5
14
330
5
100
AcDbSymbolTableRecord
100
AcDbLinetypeTableRecord
  2
BYBLOCK
 70
     0
  3

 72
    65
 73
     0
 40
0.0
  0
LTYPE
  5
15
330
5
100
AcDbSymbolTableRecord
100
AcDbLinetypeTableRecord
  2
BYLAYER
 70
     0
  3

 72
    65
 73
     0
 40
0.0
  0
LTYPE
  5
16
330
5
100
AcDbSymbolTableRecord
100
AcDbLinetypeTableRecord
  2
CONTINUOUS
 70
     0
  3
Solid line
 72
    65
 73
     0
 40
0.0
  0
ENDTAB
  0
TABLE
0
TABLE
2
LAYER
5
2
330
0
100
AcDbSymbolTable
70
1
0
LAYER
5
10
330
2
100
AcDbSymbolTableRecord
100
AcDbLayerTableRecord
2
Layer_1
70
0
62
7
6
CONTINUOUS
0
ENDTAB
0
ENDSEC
  0
ENDTAB
  0
TABLE
  2
STYLE
  5
3
330
0
100
AcDbSymbolTable
 70
     1
  0
STYLE
  5
11
330
3
100
AcDbSymbolTableRecord
100
AcDbTextStyleTableRecord
  2
STANDARD
 70
     0
 40
0.0
 41
1.0
 50
0.0
 71
     0
 42
2.5
  3
txt
  4

  0
ENDTAB
  0
TABLE
  2
VIEW
  5
6
330
0
100
AcDbSymbolTable
 70
     0
  0
ENDTAB
  0
TABLE
  2
UCS
  5
7
330
0
100
AcDbSymbolTable
 70
     0
  0
ENDTAB
  0
TABLE
  2
APPID
  5
9
330
0
100
AcDbSymbolTable
 70
     2
  0
APPID
  5
12
330
9
100
AcDbSymbolTableRecord
100
AcDbRegAppTableRecord
  2
ACAD
 70
     0
  0
ENDTAB
  0
TABLE
  2
DIMSTYLE
  5
A
330
0
100
AcDbSymbolTable
 70
     1
  0
DIMSTYLE
105
27
330
A
100
AcDbSymbolTableRecord
100
AcDbDimStyleTableRecord
  2
ISO-25
 70
     0
  3

  4

  5

  6

  7

 40
1.0
 41
2.5
 42
0.625
 43
3.75
 44
1.25
 45
0.0
 46
0.0
 47
0.0
 48
0.0
140
2.5
141
2.5
142
0.0
143
0.03937007874016
144
1.0
145
0.0
146
1.0
147
0.625
 71
     0
 72
     0
 73
     0
 74
     0
 75
     0
 76
     0
 77
     1
 78
     8
170
     0
171
     3
172
     1
173
     0
174
     0
175
     0
176
     0
177
     0
178
     0
270
     2
271
     2
272
     2
273
     2
274
     3
340
11
275
     0
280
     0
281
     0
282
     0
283
     0
284
     8
285
     0
286
     0
287
     3
288
     0
  0
ENDTAB
  0
TABLE
  2
BLOCK_RECORD
  5
1
330
0
100
AcDbSymbolTable
 70
     1
  0
BLOCK_RECORD
  5
1F
330
1
100
AcDbSymbolTableRecord
100
AcDbBlockTableRecord
  2
*MODEL_SPACE
  0
BLOCK_RECORD
  5
1B
330
1
100
AcDbSymbolTableRecord
100
AcDbBlockTableRecord
  2
*PAPER_SPACE
  0
ENDTAB
  0
ENDSEC
  0
SECTION
  2
BLOCKS
  0
BLOCK
  5
20
330
1F
100
AcDbEntity
  8
0
100
AcDbBlockBegin
  2
*MODEL_SPACE
 70
     0
 10
0.0
 20
0.0
 30
0.0
  3
*MODEL_SPACE
  1

  0
ENDBLK
  5
21
330
1F
100
AcDbEntity
  8
0
100
AcDbBlockEnd
  0
BLOCK
  5
1C
330
1B
100
AcDbEntity
 67
     1
  8
0
100
AcDbBlockBegin
  2
*PAPER_SPACE
  1

  0
ENDBLK
  5
1D
330
1B
100
AcDbEntity
 67
     1
  8
0
100
AcDbBlockEnd
  0
ENDSEC
  0
SECTION
  2
ENTITIES
0
DIMENSION
5
83
100
AcDbEntity
62
256
370
-1
6
ByLayer
1
total_width
3
Standard
70
0
71
5
72
1
41
1.0
100
AcDbAlignedDimension
13
2.471782
23
0.000000
33
0.0
14
39.846937
24
0.000000
34
0.0
50
0.000000
100
AcDbRotatedDimension
0
DIMENSION
5
83
100
AcDbEntity
62
256
370
-1
6
ByLayer
1
total_minx
3
Standard
70
0
71
5
72
1
41
1.0
100
AcDbAlignedDimension
13
2.471782
23
0.000000
33
0.0
14
0.000000
24
0.000000
34
0.0
50
0.000000
100
AcDbRotatedDimension
0
DIMENSION
5
83
100
AcDbEntity
62
256
370
-1
6
ByLayer
1
total_maxx
3
Standard
70
0
71
5
72
1
41
1.0
100
AcDbAlignedDimension
13
0.000000
23
0.000000
33
0.0
14
39.846937
24
0.000000
34
0.0
50
0.000000
100
AcDbRotatedDimension
0
DIMENSION
5
83
100
AcDbEntity
62
256
370
-1
6
ByLayer
1
total_height
3
Standard
70
0
71
5
72
1
41
1.0
100
AcDbAlignedDimension
13
0.000000
23
2.525225
33
0.0
14
0.000000
24
39.778119
34
0.0
50
90.000000
100
AcDbRotatedDimension
0
DIMENSION
5
83
100
AcDbEntity
62
256
370
-1
6
ByLayer
1
total_miny
3
Standard
70
0
71
5
72
1
41
1.0
100
AcDbAlignedDimension
13
2.525225
23
0.000000
33
0.0
14
0.000000
24
0.000000
34
0.0
50
0.000000
100
AcDbRotatedDimension
0
DIMENSION
5
83
100
AcDbEntity
62
256
370
-1
6
ByLayer
1
total_maxy
3
Standard
70
0
71
5
72
1
41
1.0
100
AcDbAlignedDimension
13
0.000000
23
0.000000
33
0.0
14
39.778119
24
0.000000
34
0.0
50
0.000000
100
AcDbRotatedDimension
0
DIMENSION
8
Layer_1
5
83
100
AcDbEntity
62
256
370
-1
6
ByLayer
1
Layer_1_width
3
Standard
70
0
71
5
72
1
41
1.0
100
AcDbAlignedDimension
13
2.471782
23
0.000000
33
0.0
14
39.846937
24
0.000000
34
0.0
50
0.000000
100
AcDbRotatedDimension
0
DIMENSION
8
Layer_1
5
83
100
AcDbEntity
62
256
370
-1
6
ByLayer
1
Layer_1_minx
3
Standard
70
0
71
5
72
1
41
1.0
100
AcDbAlignedDimension
13
2.471782
23
0.000000
33
0.0
14
0.000000
24
0.000000
34
0.0
50
0.000000
100
AcDbRotatedDimension
0
DIMENSION
8
Layer_1
5
83
100
AcDbEntity
62
256
370
-1
6
ByLayer
1
Layer_1_maxx
3
Standard
70
0
71
5
72
1
41
1.0
100
AcDbAlignedDimension
13
0.000000
23
0.000000
33
0.0
14
39.846937
24
0.000000
34
0.0
50
0.000000
100
AcDbRotatedDimension
0
DIMENSION
8
Layer_1
5
83
100
AcDbEntity
62
256
370
-1
6
ByLayer
1
Layer_1_height
3
Standard
70
0
71
5
72
1
41
1.0
100
AcDbAlignedDimension
13
0.000000
23
2.525225
33
0.0
14
0.000000
24
39.778119
34
0.0
50
90.000000
100
AcDbRotatedDimension
0
DIMENSION
8
Layer_1
5
83
100
AcDbEntity
62
256
370
-1
6
ByLayer
1
Layer_1_miny
3
Standard
70
0
71
5
72
1
41
1.0
100
AcDbAlignedDimension
13
2.525225
23
0.000000
33
0.0
14
0.000000
24
0.000000
34
0.0
50
0.000000
100
AcDbRotatedDimension
0
DIMENSION
8
Layer_1
5
83
100
AcDbEntity
62
256
370
-1
6
ByLayer
1
Layer_1_maxy
3
Standard
70
0
71
5
72
1
41
1.0
100
AcDbAlignedDimension
13
0.000000
23
0.000000
33
0.0
14
39.778119
24
0.000000
34
0.0
50
0.000000
100
AcDbRotatedDimension
62
0
0
LWPOLYLINE
100
AcDbPolyline
8
Layer_1
90
14
70
0
10
16.147226
20
3.087401
30
0.0
10
12.759585
20
4.427978
30
0.0
10
11.259932
20
5.207780
30
0.0
10
10.425065
20
5.806228
30
0.0
10
10.427513
20
6.124732
30
0.0
10
11.085311
20
6.675906
30
0.0
10
15.576383
20
9.295469
30
0.0
10
17.182767
20
10.195377
30
0.0
10
17.592396
20
9.401576
30
0.0
10
20.602222
20
2.679342
30
0.0
10
20.137479
20
2.542083
30
0.0
10
18.991656
20
2.587093
30
0.0
10
16.147226
20
3.087401
30
0.0
10
16.147226
20
3.087401
30
0.0
62
0
0
LWPOLYLINE
100
AcDbPolyline
8
Layer_1
90
16
70
0
10
21.731111
20
2.651466
30
0.0
10
23.309686
20
6.312377
30
0.0
10
25.067322
20
9.940211
30
0.0
10
26.239606
20
9.489360
30
0.0
10
28.596632
20
8.241610
30
0.0
10
30.920965
20
6.876471
30
0.0
10
31.995169
20
6.073450
30
0.0
10
31.547808
20
5.574839
30
0.0
10
30.352524
20
4.829890
30
0.0
10
28.765769
20
4.035795
30
0.0
10
27.143993
20
3.389746
30
0.0
10
25.512775
20
2.961372
30
0.0
10
23.739370
20
2.650863
30
0.0
10
22.315055
20
2.525225
30
0.0
10
21.731111
20
2.651466
30
0.0
10
21.731111
20
2.651466
30
0.0
62
0
0
LWPOLYLINE
100
AcDbPolyline
8
Layer_1
90
58
70
0
10
7.724147
20
8.127009
30
0.0
10
6.025993
20
10.136959
30
0.0
10
4.646578
20
12.331951
30
0.0
10
3.593676
20
14.676525
30
0.0
10
2.875060
20
17.135219
30
0.0
10
2.498504
20
19.672572
30
0.0
10
2.471782
20
22.253123
30
0.0
10
2.802665
20
24.841411
30
0.0
10
3.498928
20
27.401974
30
0.0
10
4.468212
20
29.698879
30
0.0
10
4.840738
20
29.380735
30
0.0
10
5.677560
20
28.243800
30
0.0
10
8.503144
20
23.862114
30
0.0
10
11.701568
20
18.885463
30
0.0
10
12.413543
20
18.060439
30
0.0
10
12.841111
20
17.923917
30
0.0
10
17.444023
20
19.091339
30
0.0
10
19.056366
20
19.245444
30
0.0
10
21.166667
20
19.267665
30
0.0
10
23.275332
20
19.235107
30
0.0
10
24.909940
20
19.074002
30
0.0
10
29.492222
20
17.925059
30
0.0
10
29.920258
20
18.062721
30
0.0
10
30.633871
20
18.888318
30
0.0
10
33.836088
20
23.857358
30
0.0
10
36.642432
20
28.195960
30
0.0
10
37.493491
20
29.356862
30
0.0
10
37.871019
20
29.692982
30
0.0
10
38.371961
20
28.728440
30
0.0
10
38.951797
20
26.991157
30
0.0
10
39.466438
20
24.975243
30
0.0
10
39.771794
20
23.174812
30
0.0
10
39.846937
20
20.099712
30
0.0
10
39.449838
20
17.128900
30
0.0
10
38.583018
20
14.273990
30
0.0
10
37.248996
20
11.546594
30
0.0
10
36.124052
20
9.930403
30
0.0
10
34.718416
20
8.253911
30
0.0
10
33.463655
20
6.993536
30
0.0
10
33.027718
20
6.668273
30
0.0
10
32.791338
20
6.625697
30
0.0
10
31.148446
20
10.378482
30
0.0
10
29.721211
20
13.535364
30
0.0
10
29.199389
20
14.101204
30
0.0
10
28.505322
20
14.454819
30
0.0
10
25.615628
20
15.350272
30
0.0
10
22.398504
20
15.789701
30
0.0
10
19.137766
20
15.755360
30
0.0
10
16.117228
20
15.229499
30
0.0
10
14.132489
20
14.627236
30
0.0
10
12.959407
20
13.937412
30
0.0
10
12.138601
20
12.720797
30
0.0
10
11.210693
20
10.538158
30
0.0
10
9.621506
20
6.811030
30
0.0
10
9.424394
20
6.712393
30
0.0
10
9.074563
20
6.876578
30
0.0
10
7.724147
20
8.127009
30
0.0
10
7.724147
20
8.127009
30
0.0
62
0
0
LWPOLYLINE
100
AcDbPolyline
8
Layer_1
90
16
70
0
10
9.389040
20
28.029127
30
0.0
10
6.351543
20
29.754050
30
0.0
10
5.085151
20
30.657710
30
0.0
10
5.498044
20
31.481614
30
0.0
10
6.532873
20
32.835044
30
0.0
10
7.863111
20
34.325379
30
0.0
10
9.162227
20
35.560000
30
0.0
10
11.768942
20
37.398289
30
0.0
10
12.834842
20
37.973215
30
0.0
10
13.359266
20
38.087879
30
0.0
10
13.781200
20
32.921072
30
0.0
10
14.112033
20
26.599444
30
0.0
10
14.049205
20
25.957112
30
0.0
10
13.899444
20
25.700794
30
0.0
10
9.389040
20
28.029127
30
0.0
10
9.389040
20
28.029127
30
0.0
62
0
0
LWPOLYLINE
100
AcDbPolyline
8
Layer_1
90
15
70
0
10
28.322930
20
29.139444
30
0.0
10
28.774742
20
36.276930
30
0.0
10
28.954955
20
37.696366
30
0.0
10
29.142871
20
38.100000
30
0.0
10
30.045874
20
37.732491
30
0.0
10
31.486704
20
36.802110
30
0.0
10
33.101041
20
35.567075
30
0.0
10
34.524566
20
34.285606
30
0.0
10
36.610874
20
31.815703
30
0.0
10
37.175009
20
30.877405
30
0.0
10
37.240955
20
30.393148
30
0.0
10
28.319815
20
25.682222
30
0.0
10
28.245537
20
26.697781
30
0.0
10
28.322919
20
29.139444
30
0.0
10
28.322930
20
29.139444
30
0.0
62
0
0
LWPOLYLINE
100
AcDbPolyline
8
Layer_1
90
18
70
0
10
17.428676
20
32.389931
30
0.0
10
15.128178
20
36.169392
30
0.0
10
14.532571
20
37.306135
30
0.0
10
14.292786
20
38.071479
30
0.0
10
14.398367
20
38.563368
30
0.0
10
14.838859
20
38.879748
30
0.0
10
16.682756
20
39.377755
30
0.0
10
19.688659
20
39.778119
30
0.0
10
23.056670
20
39.743200
30
0.0
10
26.082300
20
39.323132
30
0.0
10
27.246569
20
38.984333
30
0.0
10
28.061059
20
38.568046
30
0.0
10
28.166415
20
38.195426
30
0.0
10
27.793083
20
37.271747
30
0.0
10
24.904657
20
32.389931
30
0.0
10
21.166667
20
26.538751
30
0.0
10
17.428676
20
32.389931
30
0.0
10
17.428676
20
32.389931
30
0.0
  0
ENDSEC
  0
SECTION
  2
OBJECTS
  0
DICTIONARY
  5
C
330
0
100
AcDbDictionary
  3
ACAD_GROUP
350
D
  3
ACAD_MLINESTYLE
350
17
  0
DICTIONARY
  5
D
330
C
100
AcDbDictionary
  0
DICTIONARY
  5
1A
330
C
100
AcDbDictionary
  0
DICTIONARY
  5
17
330
C
100
AcDbDictionary
  3
STANDARD
350
18
  0
DICTIONARY
  5
19
330
C
100
AcDbDictionary
  0
ENDSEC
  0
EOF
