999
Inkscape export via OpenSCAD DXF Export
  0
SECTION
  2
HEADER
  9
$ACADVER
  1
AC1014
  9
$HANDSEED
  5
FFFF
  9
$MEASUREMENT
 70
     1
  0
ENDSEC
  0
SECTION
  2
TABLES
  0
TABLE
  2
VPORT
  5
8
330
0
100
AcDbSymbolTable
 70
     4
  0
VPORT
  5
2E
330
8
100
AcDbSymbolTableRecord
100
AcDbViewportTableRecord
  2
*ACTIVE
 70
     0
 10
0.0
 20
0.0
 11
1.0
 21
1.0
 12
210.0
 22
148.5
 13
0.0
 23
0.0
 14
10.0
 24
10.0
 15
10.0
 25
10.0
 16
0.0
 26
0.0
 36
1.0
 17
0.0
 27
0.0
 37
0.0
 40
341.0
 41
1.24
 42
50.0
 43
0.0
 44
0.0
 50
0.0
 51
0.0
 71
     0
 72
   100
 73
     1
 74
     3
 75
     0
 76
     0
 77
     0
 78
     0
  0
ENDTAB
  0
TABLE
  2
LTYPE
  5
5
330
0
100
AcDbSymbolTable
 70
     1
  0
LTYPE
  5
14
330
5
100
AcDbSymbolTableRecord
100
AcDbLinetypeTableRecord
  2
BYBLOCK
 70
     0
  3

 72
    65
 73
     0
 40
0.0
  0
LTYPE
  5
15
330
5
100
AcDbSymbolTableRecord
100
AcDbLinetypeTableRecord
  2
BYLAYER
 70
     0
  3

 72
    65
 73
     0
 40
0.0
  0
LTYPE
  5
16
330
5
100
AcDbSymbolTableRecord
100
AcDbLinetypeTableRecord
  2
CONTINUOUS
 70
     0
  3
Solid line
 72
    65
 73
     0
 40
0.0
  0
ENDTAB
  0
TABLE
0
TABLE
2
LAYER
5
2
330
0
100
AcDbSymbolTable
70
1
0
LAYER
5
10
330
2
100
AcDbSymbolTableRecord
100
AcDbLayerTableRecord
2
Layer_1
70
0
62
7
6
CONTINUOUS
0
ENDTAB
0
ENDSEC
  0
ENDTAB
  0
TABLE
  2
STYLE
  5
3
330
0
100
AcDbSymbolTable
 70
     1
  0
STYLE
  5
11
330
3
100
AcDbSymbolTableRecord
100
AcDbTextStyleTableRecord
  2
STANDARD
 70
     0
 40
0.0
 41
1.0
 50
0.0
 71
     0
 42
2.5
  3
txt
  4

  0
ENDTAB
  0
TABLE
  2
VIEW
  5
6
330
0
100
AcDbSymbolTable
 70
     0
  0
ENDTAB
  0
TABLE
  2
UCS
  5
7
330
0
100
AcDbSymbolTable
 70
     0
  0
ENDTAB
  0
TABLE
  2
APPID
  5
9
330
0
100
AcDbSymbolTable
 70
     2
  0
APPID
  5
12
330
9
100
AcDbSymbolTableRecord
100
AcDbRegAppTableRecord
  2
ACAD
 70
     0
  0
ENDTAB
  0
TABLE
  2
DIMSTYLE
  5
A
330
0
100
AcDbSymbolTable
 70
     1
  0
DIMSTYLE
105
27
330
A
100
AcDbSymbolTableRecord
100
AcDbDimStyleTableRecord
  2
ISO-25
 70
     0
  3

  4

  5

  6

  7

 40
1.0
 41
2.5
 42
0.625
 43
3.75
 44
1.25
 45
0.0
 46
0.0
 47
0.0
 48
0.0
140
2.5
141
2.5
142
0.0
143
0.03937007874016
144
1.0
145
0.0
146
1.0
147
0.625
 71
     0
 72
     0
 73
     0
 74
     0
 75
     0
 76
     0
 77
     1
 78
     8
170
     0
171
     3
172
     1
173
     0
174
     0
175
     0
176
     0
177
     0
178
     0
270
     2
271
     2
272
     2
273
     2
274
     3
340
11
275
     0
280
     0
281
     0
282
     0
283
     0
284
     8
285
     0
286
     0
287
     3
288
     0
  0
ENDTAB
  0
TABLE
  2
BLOCK_RECORD
  5
1
330
0
100
AcDbSymbolTable
 70
     1
  0
BLOCK_RECORD
  5
1F
330
1
100
AcDbSymbolTableRecord
100
AcDbBlockTableRecord
  2
*MODEL_SPACE
  0
BLOCK_RECORD
  5
1B
330
1
100
AcDbSymbolTableRecord
100
AcDbBlockTableRecord
  2
*PAPER_SPACE
  0
ENDTAB
  0
ENDSEC
  0
SECTION
  2
BLOCKS
  0
BLOCK
  5
20
330
1F
100
AcDbEntity
  8
0
100
AcDbBlockBegin
  2
*MODEL_SPACE
 70
     0
 10
0.0
 20
0.0
 30
0.0
  3
*MODEL_SPACE
  1

  0
ENDBLK
  5
21
330
1F
100
AcDbEntity
  8
0
100
AcDbBlockEnd
  0
BLOCK
  5
1C
330
1B
100
AcDbEntity
 67
     1
  8
0
100
AcDbBlockBegin
  2
*PAPER_SPACE
  1

  0
ENDBLK
  5
1D
330
1B
100
AcDbEntity
 67
     1
  8
0
100
AcDbBlockEnd
  0
ENDSEC
  0
SECTION
  2
ENTITIES
0
DIMENSION
5
83
100
AcDbEntity
62
256
370
-1
6
ByLayer
1
total_width
3
Standard
70
0
71
5
72
1
41
1.0
100
AcDbAlignedDimension
13
2.039243
23
0.000000
33
0.0
14
39.918809
24
0.000000
34
0.0
50
0.000000
100
AcDbRotatedDimension
0
DIMENSION
5
83
100
AcDbEntity
62
256
370
-1
6
ByLayer
1
total_minx
3
Standard
70
0
71
5
72
1
41
1.0
100
AcDbAlignedDimension
13
2.039243
23
0.000000
33
0.0
14
0.000000
24
0.000000
34
0.0
50
0.000000
100
AcDbRotatedDimension
0
DIMENSION
5
83
100
AcDbEntity
62
256
370
-1
6
ByLayer
1
total_maxx
3
Standard
70
0
71
5
72
1
41
1.0
100
AcDbAlignedDimension
13
0.000000
23
0.000000
33
0.0
14
39.918809
24
0.000000
34
0.0
50
0.000000
100
AcDbRotatedDimension
0
DIMENSION
5
83
100
AcDbEntity
62
256
370
-1
6
ByLayer
1
total_height
3
Standard
70
0
71
5
72
1
41
1.0
100
AcDbAlignedDimension
13
0.000000
23
1.739443
33
0.0
14
0.000000
24
25.789648
34
0.0
50
90.000000
100
AcDbRotatedDimension
0
DIMENSION
5
83
100
AcDbEntity
62
256
370
-1
6
ByLayer
1
total_miny
3
Standard
70
0
71
5
72
1
41
1.0
100
AcDbAlignedDimension
13
1.739443
23
0.000000
33
0.0
14
0.000000
24
0.000000
34
0.0
50
0.000000
100
AcDbRotatedDimension
0
DIMENSION
5
83
100
AcDbEntity
62
256
370
-1
6
ByLayer
1
total_maxy
3
Standard
70
0
71
5
72
1
41
1.0
100
AcDbAlignedDimension
13
0.000000
23
0.000000
33
0.0
14
25.789648
24
0.000000
34
0.0
50
0.000000
100
AcDbRotatedDimension
0
DIMENSION
8
Layer_1
5
83
100
AcDbEntity
62
256
370
-1
6
ByLayer
1
Layer_1_width
3
Standard
70
0
71
5
72
1
41
1.0
100
AcDbAlignedDimension
13
2.039243
23
0.000000
33
0.0
14
39.918809
24
0.000000
34
0.0
50
0.000000
100
AcDbRotatedDimension
0
DIMENSION
8
Layer_1
5
83
100
AcDbEntity
62
256
370
-1
6
ByLayer
1
Layer_1_minx
3
Standard
70
0
71
5
72
1
41
1.0
100
AcDbAlignedDimension
13
2.039243
23
0.000000
33
0.0
14
0.000000
24
0.000000
34
0.0
50
0.000000
100
AcDbRotatedDimension
0
DIMENSION
8
Layer_1
5
83
100
AcDbEntity
62
256
370
-1
6
ByLayer
1
Layer_1_maxx
3
Standard
70
0
71
5
72
1
41
1.0
100
AcDbAlignedDimension
13
0.000000
23
0.000000
33
0.0
14
39.918809
24
0.000000
34
0.0
50
0.000000
100
AcDbRotatedDimension
0
DIMENSION
8
Layer_1
5
83
100
AcDbEntity
62
256
370
-1
6
ByLayer
1
Layer_1_height
3
Standard
70
0
71
5
72
1
41
1.0
100
AcDbAlignedDimension
13
0.000000
23
1.739443
33
0.0
14
0.000000
24
25.789648
34
0.0
50
90.000000
100
AcDbRotatedDimension
0
DIMENSION
8
Layer_1
5
83
100
AcDbEntity
62
256
370
-1
6
ByLayer
1
Layer_1_miny
3
Standard
70
0
71
5
72
1
41
1.0
100
AcDbAlignedDimension
13
1.739443
23
0.000000
33
0.0
14
0.000000
24
0.000000
34
0.0
50
0.000000
100
AcDbRotatedDimension
0
DIMENSION
8
Layer_1
5
83
100
AcDbEntity
62
256
370
-1
6
ByLayer
1
Layer_1_maxy
3
Standard
70
0
71
5
72
1
41
1.0
100
AcDbAlignedDimension
13
0.000000
23
0.000000
33
0.0
14
25.789648
24
0.000000
34
0.0
50
0.000000
100
AcDbRotatedDimension
62
0
0
LWPOLYLINE
100
AcDbPolyline
8
Layer_1
90
31
70
0
10
18.203333
20
1.964058
30
0.0
10
15.826990
20
2.387543
30
0.0
10
14.001799
20
3.188930
30
0.0
10
13.328145
20
3.710722
30
0.0
10
12.830987
20
4.302250
30
0.0
10
12.523231
20
4.955270
30
0.0
10
12.417778
20
5.661534
30
0.0
10
12.691402
20
6.746388
30
0.0
10
13.382629
20
8.015993
30
0.0
10
14.296985
20
9.176063
30
0.0
10
15.240000
20
9.932310
30
0.0
10
17.435510
20
11.482166
30
0.0
10
18.925465
20
12.671354
30
0.0
10
21.386621
20
12.528454
30
0.0
10
23.510847
20
12.345428
30
0.0
10
25.071951
20
12.043126
30
0.0
10
26.287414
20
11.560031
30
0.0
10
27.374714
20
10.834625
30
0.0
10
28.573070
20
9.663108
30
0.0
10
29.556536
20
8.276599
30
0.0
10
30.224351
20
6.846943
30
0.0
10
30.475750
20
5.545985
30
0.0
10
30.323980
20
4.663430
30
0.0
10
29.891492
20
3.842331
30
0.0
10
29.234230
20
3.159873
30
0.0
10
28.408142
20
2.693243
30
0.0
10
24.366406
20
2.022612
30
0.0
10
21.929691
20
1.769065
30
0.0
10
20.602222
20
1.739443
30
0.0
10
18.203333
20
1.964058
30
0.0
10
18.203333
20
1.964058
30
0.0
62
0
0
LWPOLYLINE
100
AcDbPolyline
8
Layer_1
90
16
70
0
10
22.205135
20
5.258865
30
0.0
10
22.455580
20
5.835840
30
0.0
10
22.146929
20
6.317198
30
0.0
10
21.617434
20
6.656911
30
0.0
10
20.985769
20
6.786381
30
0.0
10
20.321572
20
6.736707
30
0.0
10
19.694478
20
6.538983
30
0.0
10
19.174124
20
6.224307
30
0.0
10
18.830145
20
5.823775
30
0.0
10
18.732177
20
5.368482
30
0.0
10
18.949856
20
4.889527
30
0.0
10
19.610473
20
4.575077
30
0.0
10
20.588958
20
4.556293
30
0.0
10
21.561711
20
4.796461
30
0.0
10
22.205135
20
5.258865
30
0.0
10
22.205135
20
5.258865
30
0.0
62
0
0
LWPOLYLINE
100
AcDbPolyline
8
Layer_1
90
21
70
0
10
28.455744
20
7.147110
30
0.0
10
28.385026
20
7.672379
30
0.0
10
28.055599
20
8.192436
30
0.0
10
27.571203
20
8.590275
30
0.0
10
27.035577
20
8.748889
30
0.0
10
25.704991
20
9.160448
30
0.0
10
24.759447
20
9.450487
30
0.0
10
23.826941
20
9.417325
30
0.0
10
23.075285
20
9.096256
30
0.0
10
22.672287
20
8.522577
30
0.0
10
22.674227
20
7.844214
30
0.0
10
23.161553
20
7.265374
30
0.0
10
23.983031
20
6.862934
30
0.0
10
25.293653
20
6.906577
30
0.0
10
26.434444
20
6.962771
30
0.0
10
26.951740
20
6.774114
30
0.0
10
27.296541
20
6.547591
30
0.0
10
27.773587
20
6.561888
30
0.0
10
28.215710
20
6.775546
30
0.0
10
28.455744
20
7.147110
30
0.0
10
28.455744
20
7.147110
30
0.0
62
0
0
LWPOLYLINE
100
AcDbPolyline
8
Layer_1
90
16
70
0
10
20.613996
20
7.775298
30
0.0
10
20.868293
20
8.367751
30
0.0
10
20.814526
20
9.043148
30
0.0
10
20.490704
20
9.670366
30
0.0
10
19.934834
20
10.118282
30
0.0
10
19.137028
20
10.348717
30
0.0
10
18.382612
20
9.948799
30
0.0
10
17.828595
20
9.318903
30
0.0
10
17.623473
20
8.603972
30
0.0
10
17.772694
20
7.938580
30
0.0
10
18.281710
20
7.457300
30
0.0
10
18.899761
20
7.273837
30
0.0
10
19.561948
20
7.274880
30
0.0
10
20.167087
20
7.446632
30
0.0
10
20.613996
20
7.775298
30
0.0
10
20.613996
20
7.775298
30
0.0
62
0
0
LWPOLYLINE
100
AcDbPolyline
8
Layer_1
90
14
70
0
10
23.421462
20
10.015295
30
0.0
10
23.651643
20
10.484961
30
0.0
10
23.568284
20
10.892685
30
0.0
10
23.208578
20
11.180112
30
0.0
10
22.609717
20
11.288889
30
0.0
10
21.615967
20
11.187125
30
0.0
10
21.030282
20
10.904630
30
0.0
10
20.887663
20
10.475597
30
0.0
10
21.223111
20
9.934222
30
0.0
10
21.706701
20
9.676974
30
0.0
10
22.342148
20
9.608714
30
0.0
10
22.967664
20
9.723477
30
0.0
10
23.421462
20
10.015295
30
0.0
10
23.421462
20
10.015295
30
0.0
62
0
0
LWPOLYLINE
100
AcDbPolyline
8
Layer_1
90
27
70
0
10
33.315049
20
6.985439
30
0.0
10
32.367218
20
7.742860
30
0.0
10
31.468241
20
8.975880
30
0.0
10
30.385169
20
10.410113
30
0.0
10
28.985966
20
11.750412
30
0.0
10
27.848614
20
12.769792
30
0.0
10
27.375556
20
13.426650
30
0.0
10
27.719605
20
13.957459
30
0.0
10
28.546789
20
14.673785
30
0.0
10
29.252438
20
15.139447
30
0.0
10
29.914892
20
15.394086
30
0.0
10
32.192807
20
15.522222
30
0.0
10
34.217550
20
15.417803
30
0.0
10
35.466573
20
15.133399
30
0.0
10
37.357042
20
14.224437
30
0.0
10
38.486990
20
13.511162
30
0.0
10
39.291210
20
12.604161
30
0.0
10
39.768788
20
11.504864
30
0.0
10
39.918809
20
10.214703
30
0.0
10
39.756284
20
8.800803
30
0.0
10
39.486112
20
8.350838
30
0.0
10
39.016632
20
7.882522
30
0.0
10
37.715530
20
7.038813
30
0.0
10
36.229242
20
6.591963
30
0.0
10
34.711254
20
6.566122
30
0.0
10
33.315049
20
6.985439
30
0.0
10
33.315049
20
6.985439
30
0.0
62
0
0
LWPOLYLINE
100
AcDbPolyline
8
Layer_1
90
13
70
0
10
36.198277
20
8.537222
30
0.0
10
36.089446
20
9.543947
30
0.0
10
35.733913
20
10.040922
30
0.0
10
35.070610
20
10.108391
30
0.0
10
34.530938
20
9.922667
30
0.0
10
34.226959
20
9.561686
30
0.0
10
34.187743
20
9.095514
30
0.0
10
34.442363
20
8.594220
30
0.0
10
34.866754
20
8.305524
30
0.0
10
35.407758
20
8.196322
30
0.0
10
35.905043
20
8.271820
30
0.0
10
36.198277
20
8.537222
30
0.0
10
36.198277
20
8.537222
30
0.0
62
0
0
LWPOLYLINE
100
AcDbPolyline
8
Layer_1
90
13
70
0
10
38.523333
20
10.567514
30
0.0
10
38.248875
20
11.165316
30
0.0
10
37.602789
20
11.678351
30
0.0
10
36.851015
20
11.956164
30
0.0
10
36.259488
20
11.848299
30
0.0
10
35.962321
20
11.517529
30
0.0
10
35.829198
20
11.175246
30
0.0
10
35.998034
20
10.532573
30
0.0
10
36.651892
20
10.073137
30
0.0
10
37.676667
20
9.949796
30
0.0
10
38.335007
20
10.125552
30
0.0
10
38.523333
20
10.567514
30
0.0
10
38.523333
20
10.567514
30
0.0
62
0
0
LWPOLYLINE
100
AcDbPolyline
8
Layer_1
90
16
70
0
10
34.284398
20
10.989014
30
0.0
10
34.322713
20
11.393421
30
0.0
10
34.212311
20
11.816817
30
0.0
10
33.661385
20
12.607271
30
0.0
10
32.863681
20
13.133766
30
0.0
10
32.444807
20
13.227213
30
0.0
10
32.051261
20
13.169691
30
0.0
10
31.686023
20
12.853513
30
0.0
10
31.646048
20
12.364778
30
0.0
10
31.915168
20
11.779294
30
0.0
10
32.477210
20
11.172866
30
0.0
10
33.163182
20
10.672364
30
0.0
10
33.680702
20
10.476144
30
0.0
10
34.048273
20
10.582321
30
0.0
10
34.284398
20
10.989014
30
0.0
10
34.284398
20
10.989014
30
0.0
62
0
0
LWPOLYLINE
100
AcDbPolyline
8
Layer_1
90
13
70
0
10
36.245394
20
13.086105
30
0.0
10
36.370842
20
13.564142
30
0.0
10
35.985382
20
13.997181
30
0.0
10
35.401336
20
14.285384
30
0.0
10
34.849661
20
14.315047
30
0.0
10
34.421061
20
14.103042
30
0.0
10
34.206239
20
13.666242
30
0.0
10
34.308432
20
13.150110
30
0.0
10
34.770684
20
12.769222
30
0.0
10
35.660122
20
12.545929
30
0.0
10
35.962371
20
12.714479
30
0.0
10
36.245394
20
13.086105
30
0.0
10
36.245394
20
13.086105
30
0.0
62
0
0
LWPOLYLINE
100
AcDbPolyline
8
Layer_1
90
30
70
0
10
5.816067
20
9.057516
30
0.0
10
4.568484
20
9.660241
30
0.0
10
3.560722
20
10.351249
30
0.0
10
2.799069
20
11.116497
30
0.0
10
2.289813
20
11.941940
30
0.0
10
2.039243
20
12.813535
30
0.0
10
2.053646
20
13.717237
30
0.0
10
2.339310
20
14.639003
30
0.0
10
2.902523
20
15.564790
30
0.0
10
4.055905
20
16.811364
30
0.0
10
5.362791
20
17.728500
30
0.0
10
6.822159
20
18.315641
30
0.0
10
8.432983
20
18.572230
30
0.0
10
10.214035
20
18.527063
30
0.0
10
12.185115
20
18.257331
30
0.0
10
14.044854
20
17.818757
30
0.0
10
15.491884
20
17.267062
30
0.0
10
16.347362
20
16.632085
30
0.0
10
16.595549
20
15.592178
30
0.0
10
16.606897
20
14.950384
30
0.0
10
16.484773
20
14.466602
30
0.0
10
15.587755
20
13.432230
30
0.0
10
13.244429
20
11.589979
30
0.0
10
10.878835
20
9.612996
30
0.0
10
9.735166
20
8.661076
30
0.0
10
9.195854
20
8.510007
30
0.0
10
8.479946
20
8.482057
30
0.0
10
7.168079
20
8.657446
30
0.0
10
5.816067
20
9.057516
30
0.0
10
5.816067
20
9.057516
30
0.0
62
0
0
LWPOLYLINE
100
AcDbPolyline
8
Layer_1
90
21
70
0
10
10.001324
20
10.323864
30
0.0
10
10.239660
20
10.637622
30
0.0
10
10.279693
20
10.954479
30
0.0
10
9.717351
20
11.853333
30
0.0
10
9.437703
20
12.401021
30
0.0
10
9.266390
20
13.123333
30
0.0
10
9.049611
20
13.757754
30
0.0
10
8.609845
20
14.044964
30
0.0
10
7.994424
20
13.975208
30
0.0
10
7.250682
20
13.538733
30
0.0
10
6.687258
20
12.910912
30
0.0
10
6.485544
20
12.271520
30
0.0
10
6.649182
20
11.733179
30
0.0
10
7.181812
20
11.408510
30
0.0
10
7.800249
20
11.086713
30
0.0
10
8.317207
20
10.556466
30
0.0
10
8.709522
20
10.099446
30
0.0
10
9.116773
20
9.908919
30
0.0
10
9.545271
20
9.984016
30
0.0
10
10.001324
20
10.323864
30
0.0
10
10.001324
20
10.323864
30
0.0
62
0
0
LWPOLYLINE
100
AcDbPolyline
8
Layer_1
90
18
70
0
10
13.264444
20
14.509357
30
0.0
10
13.015759
20
15.222600
30
0.0
10
12.388354
20
15.916762
30
0.0
10
11.560208
20
16.442660
30
0.0
10
10.709297
20
16.651111
30
0.0
10
9.969807
20
16.474686
30
0.0
10
9.404611
20
15.909109
30
0.0
10
9.073674
20
15.196985
30
0.0
10
9.565424
20
14.643205
30
0.0
10
10.190351
20
14.292389
30
0.0
10
10.755567
20
14.409990
30
0.0
10
11.316250
20
14.539800
30
0.0
10
11.921045
20
14.264783
30
0.0
10
12.505817
20
13.930160
30
0.0
10
12.925959
20
13.859621
30
0.0
10
13.179494
20
14.052807
30
0.0
10
13.264444
20
14.509357
30
0.0
10
13.264444
20
14.509357
30
0.0
62
0
0
LWPOLYLINE
100
AcDbPolyline
8
Layer_1
90
12
70
0
10
7.908690
20
14.964246
30
0.0
10
8.303824
20
15.532543
30
0.0
10
8.180983
20
16.093135
30
0.0
10
7.933243
20
16.475629
30
0.0
10
7.678368
20
16.618327
30
0.0
10
6.836129
20
16.211775
30
0.0
10
6.329956
20
15.666603
30
0.0
10
6.222264
20
15.106843
30
0.0
10
6.494000
20
14.650508
30
0.0
10
7.126111
20
14.415614
30
0.0
10
7.908690
20
14.964246
30
0.0
10
7.908690
20
14.964246
30
0.0
62
0
0
LWPOLYLINE
100
AcDbPolyline
8
Layer_1
90
42
70
0
10
20.043315
20
13.753802
30
0.0
10
19.045033
20
13.921594
30
0.0
10
18.420537
20
14.165072
30
0.0
10
18.118303
20
14.759724
30
0.0
10
18.072544
20
15.667338
30
0.0
10
18.265582
20
16.659853
30
0.0
10
18.679741
20
17.509206
30
0.0
10
19.271168
20
18.157588
30
0.0
10
19.711848
20
18.351484
30
0.0
10
19.947193
20
18.095878
30
0.0
10
19.922620
20
17.395751
30
0.0
10
19.894268
20
16.650641
30
0.0
10
20.128635
20
16.143812
30
0.0
10
20.619656
20
15.881694
30
0.0
10
21.361267
20
15.870716
30
0.0
10
22.154444
20
15.977772
30
0.0
10
21.378333
20
16.307456
30
0.0
10
20.809313
20
16.701646
30
0.0
10
20.602222
20
17.208570
30
0.0
10
20.678544
20
17.475344
30
0.0
10
20.886284
20
17.664489
30
0.0
10
21.568671
20
17.811064
30
0.0
10
22.394680
20
17.650635
30
0.0
10
23.109613
20
17.185541
30
0.0
10
23.592754
20
16.815286
30
0.0
10
23.957307
20
16.770028
30
0.0
10
24.101420
20
17.010648
30
0.0
10
23.923237
20
17.498027
30
0.0
10
23.733111
20
17.950628
30
0.0
10
23.810522
20
18.223863
30
0.0
10
24.126758
20
18.292776
30
0.0
10
24.653105
20
18.132409
30
0.0
10
25.004322
20
17.855890
30
0.0
10
25.277261
20
17.414562
30
0.0
10
25.569888
20
16.240950
30
0.0
10
25.494150
20
15.018519
30
0.0
10
25.306633
20
14.516167
30
0.0
10
25.013210
20
14.154215
30
0.0
10
24.301948
20
13.936764
30
0.0
10
23.003402
20
13.778760
30
0.0
10
20.043315
20
13.753802
30
0.0
10
20.043315
20
13.753802
30
0.0
62
0
0
LWPOLYLINE
100
AcDbPolyline
8
Layer_1
90
29
70
0
10
36.665781
20
16.229036
30
0.0
10
36.162199
20
16.580950
30
0.0
10
35.448809
20
16.856550
30
0.0
10
33.522420
20
17.169914
30
0.0
10
31.146247
20
17.151340
30
0.0
10
28.579919
20
16.783041
30
0.0
10
27.771845
20
16.746843
30
0.0
10
27.380474
20
17.343729
30
0.0
10
27.153555
20
18.102577
30
0.0
10
27.235616
20
18.674934
30
0.0
10
27.724015
20
19.257988
30
0.0
10
28.716111
20
20.048930
30
0.0
10
30.133766
20
21.003927
30
0.0
10
31.423853
20
21.621751
30
0.0
10
32.653577
20
21.927022
30
0.0
10
33.890139
20
21.944357
30
0.0
10
34.853460
20
21.744791
30
0.0
10
35.788321
20
21.350534
30
0.0
10
36.660661
20
20.796328
30
0.0
10
37.436421
20
20.116914
30
0.0
10
38.081539
20
19.347033
30
0.0
10
38.561956
20
18.521427
30
0.0
10
38.843610
20
17.674838
30
0.0
10
38.892443
20
16.842007
30
0.0
10
38.669206
20
16.091659
30
0.0
10
37.958889
20
15.863231
30
0.0
10
37.224783
20
15.930093
30
0.0
10
36.665781
20
16.229036
30
0.0
10
36.665781
20
16.229036
30
0.0
62
0
0
LWPOLYLINE
100
AcDbPolyline
8
Layer_1
90
15
70
0
10
32.680842
20
19.074696
30
0.0
10
32.619503
20
19.621554
30
0.0
10
32.305776
20
20.023707
30
0.0
10
31.803656
20
20.233178
30
0.0
10
31.177137
20
20.201994
30
0.0
10
30.698435
20
20.008536
30
0.0
10
30.396976
20
19.737519
30
0.0
10
30.262323
20
19.423191
30
0.0
10
30.284043
20
19.099800
30
0.0
10
30.754864
20
18.562827
30
0.0
10
31.183096
20
18.417741
30
0.0
10
31.725963
20
18.400588
30
0.0
10
32.417948
20
18.600116
30
0.0
10
32.680842
20
19.074696
30
0.0
10
32.680842
20
19.074696
30
0.0
62
0
0
LWPOLYLINE
100
AcDbPolyline
8
Layer_1
90
14
70
0
10
35.741542
20
18.771372
30
0.0
10
35.760505
20
19.204098
30
0.0
10
35.542593
20
19.613331
30
0.0
10
35.156250
20
19.918185
30
0.0
10
34.669919
20
20.037778
30
0.0
10
34.271456
20
19.929868
30
0.0
10
34.000763
20
19.644185
30
0.0
10
33.889350
20
19.237799
30
0.0
10
33.968727
20
18.767778
30
0.0
10
34.305188
20
18.458083
30
0.0
10
34.855011
20
18.355739
30
0.0
10
35.404895
20
18.460312
30
0.0
10
35.741542
20
18.771370
30
0.0
10
35.741542
20
18.771372
30
0.0
62
0
0
LWPOLYLINE
100
AcDbPolyline
8
Layer_1
90
32
70
0
10
16.933333
20
19.466033
30
0.0
10
15.904104
20
19.899506
30
0.0
10
14.816667
20
20.192534
30
0.0
10
13.778995
20
20.422267
30
0.0
10
13.129940
20
20.717484
30
0.0
10
12.795082
20
21.131854
30
0.0
10
12.700000
20
21.719049
30
0.0
10
12.992723
20
22.551714
30
0.0
10
13.769599
20
23.453141
30
0.0
10
14.878692
20
24.283791
30
0.0
10
16.168066
20
24.904126
30
0.0
10
17.767101
20
25.346228
30
0.0
10
19.538126
20
25.656752
30
0.0
10
21.131729
20
25.789648
30
0.0
10
22.198499
20
25.698869
30
0.0
10
24.976667
20
25.123297
30
0.0
10
27.781036
20
24.587519
30
0.0
10
28.258652
20
24.336296
30
0.0
10
28.516357
20
23.966631
30
0.0
10
28.642509
20
23.316338
30
0.0
10
28.308358
20
22.638142
30
0.0
10
27.485394
20
21.897070
30
0.0
10
26.145105
20
21.058150
30
0.0
10
24.309997
20
20.214810
30
0.0
10
22.435324
20
20.037778
30
0.0
10
20.795346
20
19.919241
30
0.0
10
19.832566
20
19.473333
30
0.0
10
19.186026
20
19.081351
30
0.0
10
18.530656
20
18.949583
30
0.0
10
17.801433
20
19.077865
30
0.0
10
16.933333
20
19.466033
30
0.0
10
16.933333
20
19.466033
30
0.0
62
0
0
LWPOLYLINE
100
AcDbPolyline
8
Layer_1
90
20
70
0
10
19.085868
20
20.452813
30
0.0
10
19.024609
20
20.966807
30
0.0
10
18.653677
20
21.619763
30
0.0
10
18.235962
20
22.305427
30
0.0
10
18.062222
20
22.898060
30
0.0
10
17.829867
20
23.295607
30
0.0
10
17.253934
20
23.431113
30
0.0
10
16.516125
20
23.303490
30
0.0
10
15.798140
20
22.911646
30
0.0
10
15.338897
20
22.380181
30
0.0
10
15.494582
20
21.782757
30
0.0
10
15.870395
20
21.347643
30
0.0
10
16.310931
20
21.166667
30
0.0
10
16.758159
20
21.000861
30
0.0
10
17.150059
20
20.602222
30
0.0
10
17.593533
20
20.214539
30
0.0
10
18.184752
20
20.051089
30
0.0
10
18.742578
20
20.125854
30
0.0
10
19.085868
20
20.452813
30
0.0
10
19.085868
20
20.452813
30
0.0
62
0
0
LWPOLYLINE
100
AcDbPolyline
8
Layer_1
90
23
70
0
10
23.265665
20
21.612649
30
0.0
10
23.487262
20
21.886654
30
0.0
10
23.530775
20
22.173068
30
0.0
10
23.014339
20
23.227967
30
0.0
10
22.473408
20
24.018938
30
0.0
10
21.924213
20
24.497109
30
0.0
10
21.237497
20
24.737648
30
0.0
10
20.284001
20
24.815719
30
0.0
10
19.659329
20
24.751166
30
0.0
10
19.168126
20
24.557414
30
0.0
10
18.822531
20
24.274281
30
0.0
10
18.634681
20
23.941582
30
0.0
10
18.616714
20
23.599134
30
0.0
10
18.780768
20
23.286755
30
0.0
10
19.138982
20
23.044261
30
0.0
10
19.703493
20
22.911467
30
0.0
10
20.424920
20
22.715896
30
0.0
10
20.803326
20
22.347023
30
0.0
10
21.253985
20
21.588248
30
0.0
10
21.879341
20
21.193617
30
0.0
10
22.582274
20
21.192095
30
0.0
10
23.265665
20
21.612649
30
0.0
10
23.265665
20
21.612649
30
0.0
62
0
0
LWPOLYLINE
100
AcDbPolyline
8
Layer_1
90
14
70
0
10
26.076277
20
22.744357
30
0.0
10
26.160997
20
23.162008
30
0.0
10
26.051737
20
23.463103
30
0.0
10
25.750400
20
23.645402
30
0.0
10
25.258889
20
23.706667
30
0.0
10
24.735726
20
23.627083
30
0.0
10
24.429629
20
23.411098
30
0.0
10
24.364337
20
23.092863
30
0.0
10
24.563594
20
22.706526
30
0.0
10
24.960390
20
22.403655
30
0.0
10
25.408685
20
22.310602
30
0.0
10
25.812604
20
22.424969
30
0.0
10
26.076277
20
22.744357
30
0.0
10
26.076277
20
22.744357
30
0.0
  0
ENDSEC
  0
SECTION
  2
OBJECTS
  0
DICTIONARY
  5
C
330
0
100
AcDbDictionary
  3
ACAD_GROUP
350
D
  3
ACAD_MLINESTYLE
350
17
  0
DICTIONARY
  5
D
330
C
100
AcDbDictionary
  0
DICTIONARY
  5
1A
330
C
100
AcDbDictionary
  0
DICTIONARY
  5
17
330
C
100
AcDbDictionary
  3
STANDARD
350
18
  0
DICTIONARY
  5
19
330
C
100
AcDbDictionary
  0
ENDSEC
  0
EOF
