999
Inkscape export via OpenSCAD DXF Export
  0
SECTION
  2
HEADER
  9
$ACADVER
  1
AC1014
  9
$HANDSEED
  5
FFFF
  9
$MEASUREMENT
 70
     1
  0
ENDSEC
  0
SECTION
  2
TABLES
  0
TABLE
  2
VPORT
  5
8
330
0
100
AcDbSymbolTable
 70
     4
  0
VPORT
  5
2E
330
8
100
AcDbSymbolTableRecord
100
AcDbViewportTableRecord
  2
*ACTIVE
 70
     0
 10
0.0
 20
0.0
 11
1.0
 21
1.0
 12
210.0
 22
148.5
 13
0.0
 23
0.0
 14
10.0
 24
10.0
 15
10.0
 25
10.0
 16
0.0
 26
0.0
 36
1.0
 17
0.0
 27
0.0
 37
0.0
 40
341.0
 41
1.24
 42
50.0
 43
0.0
 44
0.0
 50
0.0
 51
0.0
 71
     0
 72
   100
 73
     1
 74
     3
 75
     0
 76
     0
 77
     0
 78
     0
  0
ENDTAB
  0
TABLE
  2
LTYPE
  5
5
330
0
100
AcDbSymbolTable
 70
     1
  0
LTYPE
  5
14
330
5
100
AcDbSymbolTableRecord
100
AcDbLinetypeTableRecord
  2
BYBLOCK
 70
     0
  3

 72
    65
 73
     0
 40
0.0
  0
LTYPE
  5
15
330
5
100
AcDbSymbolTableRecord
100
AcDbLinetypeTableRecord
  2
BYLAYER
 70
     0
  3

 72
    65
 73
     0
 40
0.0
  0
LTYPE
  5
16
330
5
100
AcDbSymbolTableRecord
100
AcDbLinetypeTableRecord
  2
CONTINUOUS
 70
     0
  3
Solid line
 72
    65
 73
     0
 40
0.0
  0
ENDTAB
  0
TABLE
0
TABLE
2
LAYER
5
2
330
0
100
AcDbSymbolTable
70
1
0
LAYER
5
10
330
2
100
AcDbSymbolTableRecord
100
AcDbLayerTableRecord
2
Layer_1
70
0
62
7
6
CONTINUOUS
0
ENDTAB
0
ENDSEC
  0
ENDTAB
  0
TABLE
  2
STYLE
  5
3
330
0
100
AcDbSymbolTable
 70
     1
  0
STYLE
  5
11
330
3
100
AcDbSymbolTableRecord
100
AcDbTextStyleTableRecord
  2
STANDARD
 70
     0
 40
0.0
 41
1.0
 50
0.0
 71
     0
 42
2.5
  3
txt
  4

  0
ENDTAB
  0
TABLE
  2
VIEW
  5
6
330
0
100
AcDbSymbolTable
 70
     0
  0
ENDTAB
  0
TABLE
  2
UCS
  5
7
330
0
100
AcDbSymbolTable
 70
     0
  0
ENDTAB
  0
TABLE
  2
APPID
  5
9
330
0
100
AcDbSymbolTable
 70
     2
  0
APPID
  5
12
330
9
100
AcDbSymbolTableRecord
100
AcDbRegAppTableRecord
  2
ACAD
 70
     0
  0
ENDTAB
  0
TABLE
  2
DIMSTYLE
  5
A
330
0
100
AcDbSymbolTable
 70
     1
  0
DIMSTYLE
105
27
330
A
100
AcDbSymbolTableRecord
100
AcDbDimStyleTableRecord
  2
ISO-25
 70
     0
  3

  4

  5

  6

  7

 40
1.0
 41
2.5
 42
0.625
 43
3.75
 44
1.25
 45
0.0
 46
0.0
 47
0.0
 48
0.0
140
2.5
141
2.5
142
0.0
143
0.03937007874016
144
1.0
145
0.0
146
1.0
147
0.625
 71
     0
 72
     0
 73
     0
 74
     0
 75
     0
 76
     0
 77
     1
 78
     8
170
     0
171
     3
172
     1
173
     0
174
     0
175
     0
176
     0
177
     0
178
     0
270
     2
271
     2
272
     2
273
     2
274
     3
340
11
275
     0
280
     0
281
     0
282
     0
283
     0
284
     8
285
     0
286
     0
287
     3
288
     0
  0
ENDTAB
  0
TABLE
  2
BLOCK_RECORD
  5
1
330
0
100
AcDbSymbolTable
 70
     1
  0
BLOCK_RECORD
  5
1F
330
1
100
AcDbSymbolTableRecord
100
AcDbBlockTableRecord
  2
*MODEL_SPACE
  0
BLOCK_RECORD
  5
1B
330
1
100
AcDbSymbolTableRecord
100
AcDbBlockTableRecord
  2
*PAPER_SPACE
  0
ENDTAB
  0
ENDSEC
  0
SECTION
  2
BLOCKS
  0
BLOCK
  5
20
330
1F
100
AcDbEntity
  8
0
100
AcDbBlockBegin
  2
*MODEL_SPACE
 70
     0
 10
0.0
 20
0.0
 30
0.0
  3
*MODEL_SPACE
  1

  0
ENDBLK
  5
21
330
1F
100
AcDbEntity
  8
0
100
AcDbBlockEnd
  0
BLOCK
  5
1C
330
1B
100
AcDbEntity
 67
     1
  8
0
100
AcDbBlockBegin
  2
*PAPER_SPACE
  1

  0
ENDBLK
  5
1D
330
1B
100
AcDbEntity
 67
     1
  8
0
100
AcDbBlockEnd
  0
ENDSEC
  0
SECTION
  2
ENTITIES
0
DIMENSION
5
83
100
AcDbEntity
62
256
370
-1
6
ByLayer
1
total_width
3
Standard
70
0
71
5
72
1
41
1.0
100
AcDbAlignedDimension
13
3.669297
23
0.000000
33
0.0
14
38.644474
24
0.000000
34
0.0
50
0.000000
100
AcDbRotatedDimension
0
DIMENSION
5
83
100
AcDbEntity
62
256
370
-1
6
ByLayer
1
total_minx
3
Standard
70
0
71
5
72
1
41
1.0
100
AcDbAlignedDimension
13
3.669297
23
0.000000
33
0.0
14
0.000000
24
0.000000
34
0.0
50
0.000000
100
AcDbRotatedDimension
0
DIMENSION
5
83
100
AcDbEntity
62
256
370
-1
6
ByLayer
1
total_maxx
3
Standard
70
0
71
5
72
1
41
1.0
100
AcDbAlignedDimension
13
0.000000
23
0.000000
33
0.0
14
38.644474
24
0.000000
34
0.0
50
0.000000
100
AcDbRotatedDimension
0
DIMENSION
5
83
100
AcDbEntity
62
256
370
-1
6
ByLayer
1
total_height
3
Standard
70
0
71
5
72
1
41
1.0
100
AcDbAlignedDimension
13
0.000000
23
6.669280
33
0.0
14
0.000000
24
36.971111
34
0.0
50
90.000000
100
AcDbRotatedDimension
0
DIMENSION
5
83
100
AcDbEntity
62
256
370
-1
6
ByLayer
1
total_miny
3
Standard
70
0
71
5
72
1
41
1.0
100
AcDbAlignedDimension
13
6.669280
23
0.000000
33
0.0
14
0.000000
24
0.000000
34
0.0
50
0.000000
100
AcDbRotatedDimension
0
DIMENSION
5
83
100
AcDbEntity
62
256
370
-1
6
ByLayer
1
total_maxy
3
Standard
70
0
71
5
72
1
41
1.0
100
AcDbAlignedDimension
13
0.000000
23
0.000000
33
0.0
14
36.971111
24
0.000000
34
0.0
50
0.000000
100
AcDbRotatedDimension
0
DIMENSION
8
Layer_1
5
83
100
AcDbEntity
62
256
370
-1
6
ByLayer
1
Layer_1_width
3
Standard
70
0
71
5
72
1
41
1.0
100
AcDbAlignedDimension
13
3.669297
23
0.000000
33
0.0
14
38.644474
24
0.000000
34
0.0
50
0.000000
100
AcDbRotatedDimension
0
DIMENSION
8
Layer_1
5
83
100
AcDbEntity
62
256
370
-1
6
ByLayer
1
Layer_1_minx
3
Standard
70
0
71
5
72
1
41
1.0
100
AcDbAlignedDimension
13
3.669297
23
0.000000
33
0.0
14
0.000000
24
0.000000
34
0.0
50
0.000000
100
AcDbRotatedDimension
0
DIMENSION
8
Layer_1
5
83
100
AcDbEntity
62
256
370
-1
6
ByLayer
1
Layer_1_maxx
3
Standard
70
0
71
5
72
1
41
1.0
100
AcDbAlignedDimension
13
0.000000
23
0.000000
33
0.0
14
38.644474
24
0.000000
34
0.0
50
0.000000
100
AcDbRotatedDimension
0
DIMENSION
8
Layer_1
5
83
100
AcDbEntity
62
256
370
-1
6
ByLayer
1
Layer_1_height
3
Standard
70
0
71
5
72
1
41
1.0
100
AcDbAlignedDimension
13
0.000000
23
6.669280
33
0.0
14
0.000000
24
36.971111
34
0.0
50
90.000000
100
AcDbRotatedDimension
0
DIMENSION
8
Layer_1
5
83
100
AcDbEntity
62
256
370
-1
6
ByLayer
1
Layer_1_miny
3
Standard
70
0
71
5
72
1
41
1.0
100
AcDbAlignedDimension
13
6.669280
23
0.000000
33
0.0
14
0.000000
24
0.000000
34
0.0
50
0.000000
100
AcDbRotatedDimension
0
DIMENSION
8
Layer_1
5
83
100
AcDbEntity
62
256
370
-1
6
ByLayer
1
Layer_1_maxy
3
Standard
70
0
71
5
72
1
41
1.0
100
AcDbAlignedDimension
13
0.000000
23
0.000000
33
0.0
14
36.971111
24
0.000000
34
0.0
50
0.000000
100
AcDbRotatedDimension
62
0
0
LWPOLYLINE
100
AcDbPolyline
8
Layer_1
90
25
70
0
10
10.901051
20
7.687843
30
0.0
10
6.936658
20
14.806050
30
0.0
10
3.669297
20
20.722100
30
0.0
10
5.291871
20
21.645368
30
0.0
10
9.941547
20
24.195985
30
0.0
10
12.968649
20
25.823333
30
0.0
10
12.975436
20
31.397222
30
0.0
10
12.982222
20
36.971111
30
0.0
10
21.166667
20
36.971111
30
0.0
10
29.351111
20
36.971111
30
0.0
10
29.356812
20
31.397222
30
0.0
10
29.362513
20
25.823333
30
0.0
10
34.003494
20
23.293618
30
0.0
10
38.644474
20
20.763902
30
0.0
10
37.336939
20
18.354729
30
0.0
10
30.807824
20
6.709382
30
0.0
10
29.277825
20
7.349438
30
0.0
10
25.882552
20
9.176258
30
0.0
10
21.158979
20
11.848197
30
0.0
10
17.000059
20
9.491475
30
0.0
10
12.219626
20
6.810220
30
0.0
10
11.864391
20
6.669280
30
0.0
10
11.586090
20
6.728723
30
0.0
10
10.901079
20
7.687843
30
0.0
10
10.901051
20
7.687843
30
0.0
62
0
0
LWPOLYLINE
100
AcDbPolyline
8
Layer_1
90
73
70
0
10
16.792222
20
12.135556
30
0.0
10
19.730925
20
13.730111
30
0.0
10
21.194175
20
14.393333
30
0.0
10
22.643720
20
13.730780
30
0.0
10
25.549473
20
12.137833
30
0.0
10
29.664567
20
9.880055
30
0.0
10
30.763323
20
11.615897
30
0.0
10
31.362823
20
12.785577
30
0.0
10
31.440513
20
13.182146
30
0.0
10
31.318027
20
13.528429
30
0.0
10
30.316109
20
14.295810
30
0.0
10
28.044242
20
15.539077
30
0.0
10
25.128148
20
17.344171
30
0.0
10
24.935268
20
17.802268
30
0.0
10
24.988843
20
18.328441
30
0.0
10
25.259258
20
18.828853
30
0.0
10
25.716897
20
19.209668
30
0.0
10
26.134237
20
19.289319
30
0.0
10
26.808299
20
19.108936
30
0.0
10
29.642534
20
17.691122
30
0.0
10
32.267934
20
16.379206
30
0.0
10
32.948322
20
16.151968
30
0.0
10
33.253751
20
16.191198
30
0.0
10
34.335268
20
18.080109
30
0.0
10
34.970624
20
19.578464
30
0.0
10
31.326667
20
21.601479
30
0.0
10
27.305000
20
23.940393
30
0.0
10
27.044182
20
24.319369
30
0.0
10
26.894813
20
25.117324
30
0.0
10
26.811111
20
29.253741
30
0.0
10
26.811111
20
34.148889
30
0.0
10
24.694444
20
34.148889
30
0.0
10
22.577778
20
34.148889
30
0.0
10
22.577778
20
30.461446
30
0.0
10
22.528444
20
28.035911
30
0.0
10
22.341239
20
26.579584
30
0.0
10
21.957362
20
25.869382
30
0.0
10
21.318007
20
25.682222
30
0.0
10
20.494549
20
25.834952
30
0.0
10
20.220174
20
26.078205
30
0.0
10
20.021826
20
26.479238
30
0.0
10
19.806580
20
27.894223
30
0.0
10
19.755556
20
30.359048
30
0.0
10
19.755556
20
34.148889
30
0.0
10
17.638889
20
34.148889
30
0.0
10
15.522222
20
34.148889
30
0.0
10
15.522222
20
29.405052
30
0.0
10
15.439502
20
25.664499
30
0.0
10
15.169444
20
24.196082
30
0.0
10
13.842559
20
23.271550
30
0.0
10
11.147778
20
21.701904
30
0.0
10
7.362710
20
19.574511
30
0.0
10
7.999093
20
18.077989
30
0.0
10
9.079583
20
16.191198
30
0.0
10
9.385011
20
16.151968
30
0.0
10
10.065400
20
16.379206
30
0.0
10
12.690798
20
17.691122
30
0.0
10
15.525035
20
19.108936
30
0.0
10
16.199096
20
19.289319
30
0.0
10
16.616436
20
19.209668
30
0.0
10
17.074076
20
18.828853
30
0.0
10
17.344490
20
18.328441
30
0.0
10
17.398065
20
17.802268
30
0.0
10
17.205185
20
17.344171
30
0.0
10
14.289091
20
15.539077
30
0.0
10
12.017224
20
14.295810
30
0.0
10
11.015307
20
13.528429
30
0.0
10
10.892821
20
13.182146
30
0.0
10
10.970512
20
12.785577
30
0.0
10
11.570011
20
11.615897
30
0.0
10
12.649619
20
9.877778
30
0.0
10
16.792222
20
12.135556
30
0.0
10
16.792222
20
12.135556
30
0.0
  0
ENDSEC
  0
SECTION
  2
OBJECTS
  0
DICTIONARY
  5
C
330
0
100
AcDbDictionary
  3
ACAD_GROUP
350
D
  3
ACAD_MLINESTYLE
350
17
  0
DICTIONARY
  5
D
330
C
100
AcDbDictionary
  0
DICTIONARY
  5
1A
330
C
100
AcDbDictionary
  0
DICTIONARY
  5
17
330
C
100
AcDbDictionary
  3
STANDARD
350
18
  0
DICTIONARY
  5
19
330
C
100
AcDbDictionary
  0
ENDSEC
  0
EOF
