999
Inkscape export via OpenSCAD DXF Export
  0
SECTION
  2
HEADER
  9
$ACADVER
  1
AC1014
  9
$HANDSEED
  5
FFFF
  9
$MEASUREMENT
 70
     1
  0
ENDSEC
  0
SECTION
  2
TABLES
  0
TABLE
  2
VPORT
  5
8
330
0
100
AcDbSymbolTable
 70
     4
  0
VPORT
  5
2E
330
8
100
AcDbSymbolTableRecord
100
AcDbViewportTableRecord
  2
*ACTIVE
 70
     0
 10
0.0
 20
0.0
 11
1.0
 21
1.0
 12
210.0
 22
148.5
 13
0.0
 23
0.0
 14
10.0
 24
10.0
 15
10.0
 25
10.0
 16
0.0
 26
0.0
 36
1.0
 17
0.0
 27
0.0
 37
0.0
 40
341.0
 41
1.24
 42
50.0
 43
0.0
 44
0.0
 50
0.0
 51
0.0
 71
     0
 72
   100
 73
     1
 74
     3
 75
     0
 76
     0
 77
     0
 78
     0
  0
ENDTAB
  0
TABLE
  2
LTYPE
  5
5
330
0
100
AcDbSymbolTable
 70
     1
  0
LTYPE
  5
14
330
5
100
AcDbSymbolTableRecord
100
AcDbLinetypeTableRecord
  2
BYBLOCK
 70
     0
  3

 72
    65
 73
     0
 40
0.0
  0
LTYPE
  5
15
330
5
100
AcDbSymbolTableRecord
100
AcDbLinetypeTableRecord
  2
BYLAYER
 70
     0
  3

 72
    65
 73
     0
 40
0.0
  0
LTYPE
  5
16
330
5
100
AcDbSymbolTableRecord
100
AcDbLinetypeTableRecord
  2
CONTINUOUS
 70
     0
  3
Solid line
 72
    65
 73
     0
 40
0.0
  0
ENDTAB
  0
TABLE
0
TABLE
2
LAYER
5
2
330
0
100
AcDbSymbolTable
70
1
0
LAYER
5
10
330
2
100
AcDbSymbolTableRecord
100
AcDbLayerTableRecord
2
Layer_1
70
0
62
7
6
CONTINUOUS
0
ENDTAB
0
ENDSEC
  0
ENDTAB
  0
TABLE
  2
STYLE
  5
3
330
0
100
AcDbSymbolTable
 70
     1
  0
STYLE
  5
11
330
3
100
AcDbSymbolTableRecord
100
AcDbTextStyleTableRecord
  2
STANDARD
 70
     0
 40
0.0
 41
1.0
 50
0.0
 71
     0
 42
2.5
  3
txt
  4

  0
ENDTAB
  0
TABLE
  2
VIEW
  5
6
330
0
100
AcDbSymbolTable
 70
     0
  0
ENDTAB
  0
TABLE
  2
UCS
  5
7
330
0
100
AcDbSymbolTable
 70
     0
  0
ENDTAB
  0
TABLE
  2
APPID
  5
9
330
0
100
AcDbSymbolTable
 70
     2
  0
APPID
  5
12
330
9
100
AcDbSymbolTableRecord
100
AcDbRegAppTableRecord
  2
ACAD
 70
     0
  0
ENDTAB
  0
TABLE
  2
DIMSTYLE
  5
A
330
0
100
AcDbSymbolTable
 70
     1
  0
DIMSTYLE
105
27
330
A
100
AcDbSymbolTableRecord
100
AcDbDimStyleTableRecord
  2
ISO-25
 70
     0
  3

  4

  5

  6

  7

 40
1.0
 41
2.5
 42
0.625
 43
3.75
 44
1.25
 45
0.0
 46
0.0
 47
0.0
 48
0.0
140
2.5
141
2.5
142
0.0
143
0.03937007874016
144
1.0
145
0.0
146
1.0
147
0.625
 71
     0
 72
     0
 73
     0
 74
     0
 75
     0
 76
     0
 77
     1
 78
     8
170
     0
171
     3
172
     1
173
     0
174
     0
175
     0
176
     0
177
     0
178
     0
270
     2
271
     2
272
     2
273
     2
274
     3
340
11
275
     0
280
     0
281
     0
282
     0
283
     0
284
     8
285
     0
286
     0
287
     3
288
     0
  0
ENDTAB
  0
TABLE
  2
BLOCK_RECORD
  5
1
330
0
100
AcDbSymbolTable
 70
     1
  0
BLOCK_RECORD
  5
1F
330
1
100
AcDbSymbolTableRecord
100
AcDbBlockTableRecord
  2
*MODEL_SPACE
  0
BLOCK_RECORD
  5
1B
330
1
100
AcDbSymbolTableRecord
100
AcDbBlockTableRecord
  2
*PAPER_SPACE
  0
ENDTAB
  0
ENDSEC
  0
SECTION
  2
BLOCKS
  0
BLOCK
  5
20
330
1F
100
AcDbEntity
  8
0
100
AcDbBlockBegin
  2
*MODEL_SPACE
 70
     0
 10
0.0
 20
0.0
 30
0.0
  3
*MODEL_SPACE
  1

  0
ENDBLK
  5
21
330
1F
100
AcDbEntity
  8
0
100
AcDbBlockEnd
  0
BLOCK
  5
1C
330
1B
100
AcDbEntity
 67
     1
  8
0
100
AcDbBlockBegin
  2
*PAPER_SPACE
  1

  0
ENDBLK
  5
1D
330
1B
100
AcDbEntity
 67
     1
  8
0
100
AcDbBlockEnd
  0
ENDSEC
  0
SECTION
  2
ENTITIES
0
DIMENSION
5
83
100
AcDbEntity
62
256
370
-1
6
ByLayer
1
total_width
3
Standard
70
0
71
5
72
1
41
1.0
100
AcDbAlignedDimension
13
2.595562
23
0.000000
33
0.0
14
39.768882
24
0.000000
34
0.0
50
0.000000
100
AcDbRotatedDimension
0
DIMENSION
5
83
100
AcDbEntity
62
256
370
-1
6
ByLayer
1
total_minx
3
Standard
70
0
71
5
72
1
41
1.0
100
AcDbAlignedDimension
13
2.595562
23
0.000000
33
0.0
14
0.000000
24
0.000000
34
0.0
50
0.000000
100
AcDbRotatedDimension
0
DIMENSION
5
83
100
AcDbEntity
62
256
370
-1
6
ByLayer
1
total_maxx
3
Standard
70
0
71
5
72
1
41
1.0
100
AcDbAlignedDimension
13
0.000000
23
0.000000
33
0.0
14
39.768882
24
0.000000
34
0.0
50
0.000000
100
AcDbRotatedDimension
0
DIMENSION
5
83
100
AcDbEntity
62
256
370
-1
6
ByLayer
1
total_height
3
Standard
70
0
71
5
72
1
41
1.0
100
AcDbAlignedDimension
13
0.000000
23
2.616406
33
0.0
14
0.000000
24
39.787802
34
0.0
50
90.000000
100
AcDbRotatedDimension
0
DIMENSION
5
83
100
AcDbEntity
62
256
370
-1
6
ByLayer
1
total_miny
3
Standard
70
0
71
5
72
1
41
1.0
100
AcDbAlignedDimension
13
2.616406
23
0.000000
33
0.0
14
0.000000
24
0.000000
34
0.0
50
0.000000
100
AcDbRotatedDimension
0
DIMENSION
5
83
100
AcDbEntity
62
256
370
-1
6
ByLayer
1
total_maxy
3
Standard
70
0
71
5
72
1
41
1.0
100
AcDbAlignedDimension
13
0.000000
23
0.000000
33
0.0
14
39.787802
24
0.000000
34
0.0
50
0.000000
100
AcDbRotatedDimension
0
DIMENSION
8
Layer_1
5
83
100
AcDbEntity
62
256
370
-1
6
ByLayer
1
Layer_1_width
3
Standard
70
0
71
5
72
1
41
1.0
100
AcDbAlignedDimension
13
2.595562
23
0.000000
33
0.0
14
39.768882
24
0.000000
34
0.0
50
0.000000
100
AcDbRotatedDimension
0
DIMENSION
8
Layer_1
5
83
100
AcDbEntity
62
256
370
-1
6
ByLayer
1
Layer_1_minx
3
Standard
70
0
71
5
72
1
41
1.0
100
AcDbAlignedDimension
13
2.595562
23
0.000000
33
0.0
14
0.000000
24
0.000000
34
0.0
50
0.000000
100
AcDbRotatedDimension
0
DIMENSION
8
Layer_1
5
83
100
AcDbEntity
62
256
370
-1
6
ByLayer
1
Layer_1_maxx
3
Standard
70
0
71
5
72
1
41
1.0
100
AcDbAlignedDimension
13
0.000000
23
0.000000
33
0.0
14
39.768882
24
0.000000
34
0.0
50
0.000000
100
AcDbRotatedDimension
0
DIMENSION
8
Layer_1
5
83
100
AcDbEntity
62
256
370
-1
6
ByLayer
1
Layer_1_height
3
Standard
70
0
71
5
72
1
41
1.0
100
AcDbAlignedDimension
13
0.000000
23
2.616406
33
0.0
14
0.000000
24
39.787802
34
0.0
50
90.000000
100
AcDbRotatedDimension
0
DIMENSION
8
Layer_1
5
83
100
AcDbEntity
62
256
370
-1
6
ByLayer
1
Layer_1_miny
3
Standard
70
0
71
5
72
1
41
1.0
100
AcDbAlignedDimension
13
2.616406
23
0.000000
33
0.0
14
0.000000
24
0.000000
34
0.0
50
0.000000
100
AcDbRotatedDimension
0
DIMENSION
8
Layer_1
5
83
100
AcDbEntity
62
256
370
-1
6
ByLayer
1
Layer_1_maxy
3
Standard
70
0
71
5
72
1
41
1.0
100
AcDbAlignedDimension
13
0.000000
23
0.000000
33
0.0
14
39.787802
24
0.000000
34
0.0
50
0.000000
100
AcDbRotatedDimension
62
0
0
LWPOLYLINE
100
AcDbPolyline
8
Layer_1
90
19
70
0
10
17.316470
20
2.961852
30
0.0
10
14.368872
20
3.868251
30
0.0
10
13.154804
20
4.397669
30
0.0
10
14.409069
20
5.129603
30
0.0
10
16.026990
20
5.967099
30
0.0
10
17.567011
20
6.505020
30
0.0
10
19.217461
20
6.792061
30
0.0
10
21.166667
20
6.876920
30
0.0
10
23.115872
20
6.792061
30
0.0
10
24.766322
20
6.505020
30
0.0
10
26.306344
20
5.967099
30
0.0
10
27.924265
20
5.129603
30
0.0
10
29.178529
20
4.397669
30
0.0
10
27.976918
20
3.873681
30
0.0
10
25.556039
20
3.092107
30
0.0
10
22.818121
20
2.666420
30
0.0
10
19.994489
20
2.616406
30
0.0
10
17.316470
20
2.961852
30
0.0
10
17.316470
20
2.961852
30
0.0
62
0
0
LWPOLYLINE
100
AcDbPolyline
8
Layer_1
90
28
70
0
10
9.654702
20
6.612560
30
0.0
10
8.443848
20
7.575197
30
0.0
10
10.219146
20
8.833220
30
0.0
10
12.851726
20
10.461027
30
0.0
10
15.472989
20
11.574584
30
0.0
10
18.204211
20
12.213597
30
0.0
10
21.166667
20
12.417778
30
0.0
10
24.132611
20
12.213495
30
0.0
10
26.865301
20
11.573190
30
0.0
10
29.490262
20
10.455680
30
0.0
10
32.133021
20
8.819780
30
0.0
10
33.927150
20
7.548321
30
0.0
10
33.120798
20
6.895939
30
0.0
10
32.089414
20
6.116341
30
0.0
10
31.346405
20
5.838389
30
0.0
10
30.580184
20
6.047965
30
0.0
10
29.479164
20
6.730955
30
0.0
10
27.543490
20
7.858683
30
0.0
10
25.630476
20
8.601059
30
0.0
10
23.563681
20
9.009084
30
0.0
10
21.166667
20
9.133758
30
0.0
10
18.773693
20
9.009349
30
0.0
10
16.709273
20
8.603177
30
0.0
10
14.801761
20
7.865823
30
0.0
10
12.879507
20
6.747871
30
0.0
10
11.045062
20
5.647185
30
0.0
10
9.654702
20
6.612560
30
0.0
10
9.654702
20
6.612560
30
0.0
62
0
0
LWPOLYLINE
100
AcDbPolyline
8
Layer_1
90
51
70
0
10
6.113255
20
10.230556
30
0.0
10
5.106085
20
11.765920
30
0.0
10
4.255939
20
13.462153
30
0.0
10
3.571317
20
15.280287
30
0.0
10
3.060715
20
17.181351
30
0.0
10
2.732631
20
19.126379
30
0.0
10
2.595562
20
21.076401
30
0.0
10
2.658006
20
22.992449
30
0.0
10
2.928460
20
24.835556
30
0.0
10
3.482593
20
26.881252
30
0.0
10
4.258753
20
28.838958
30
0.0
10
5.242242
20
30.689487
30
0.0
10
6.418362
20
32.413654
30
0.0
10
7.772417
20
33.992273
30
0.0
10
9.289707
20
35.406157
30
0.0
10
10.955535
20
36.636121
30
0.0
10
12.755204
20
37.662979
30
0.0
10
14.888854
20
38.591764
30
0.0
10
16.995320
20
39.255493
30
0.0
10
19.083474
20
39.654171
30
0.0
10
21.162187
20
39.787802
30
0.0
10
23.240329
20
39.656392
30
0.0
10
25.326771
20
39.259945
30
0.0
10
27.430385
20
38.598466
30
0.0
10
29.560040
20
37.671959
30
0.0
10
32.172189
20
36.088069
30
0.0
10
34.450549
20
34.111310
30
0.0
10
36.364644
20
31.804133
30
0.0
10
37.883999
20
29.228989
30
0.0
10
38.978141
20
26.448331
30
0.0
10
39.616594
20
23.524608
30
0.0
10
39.768882
20
20.520273
30
0.0
10
39.404533
20
17.497778
30
0.0
10
38.788844
20
15.470035
30
0.0
10
37.821580
20
13.119610
30
0.0
10
36.768131
20
11.029682
30
0.0
10
35.893891
20
9.783425
30
0.0
10
35.541407
20
9.536651
30
0.0
10
35.124442
20
9.570834
30
0.0
10
33.193347
20
10.833453
30
0.0
10
30.399174
20
12.518252
30
0.0
10
27.423754
20
13.722188
30
0.0
10
24.327665
20
14.445231
30
0.0
10
21.171483
20
14.687348
30
0.0
10
18.015787
20
14.448508
30
0.0
10
14.921153
20
13.728680
30
0.0
10
11.948159
20
12.527832
30
0.0
10
9.157382
20
10.845933
30
0.0
10
6.911658
20
9.313333
30
0.0
10
6.113255
20
10.230556
30
0.0
10
6.113255
20
10.230556
30
0.0
62
0
0
LWPOLYLINE
100
AcDbPolyline
8
Layer_1
90
66
70
0
10
13.491572
20
16.663503
30
0.0
10
15.553143
20
17.391782
30
0.0
10
11.657127
20
19.067558
30
0.0
10
7.761111
20
20.743333
30
0.0
10
11.571111
20
20.986894
30
0.0
10
15.461464
20
21.302432
30
0.0
10
13.415353
20
25.458191
30
0.0
10
11.288889
20
29.747877
30
0.0
10
12.321587
20
29.098881
30
0.0
10
14.804455
20
27.249386
30
0.0
10
18.721056
20
24.391099
30
0.0
10
18.960374
20
24.538985
30
0.0
10
19.234160
20
25.276748
30
0.0
10
20.073823
20
29.191462
30
0.0
10
21.166667
20
34.145716
30
0.0
10
22.259511
20
29.191462
30
0.0
10
23.099173
20
25.276748
30
0.0
10
23.372959
20
24.538985
30
0.0
10
23.612277
20
24.391099
30
0.0
10
27.528878
20
27.249386
30
0.0
10
30.011747
20
29.098881
30
0.0
10
31.044444
20
29.747877
30
0.0
10
28.917982
20
25.458191
30
0.0
10
26.871870
20
21.302432
30
0.0
10
30.762222
20
20.986894
30
0.0
10
34.572222
20
20.743333
30
0.0
10
30.676207
20
19.067558
30
0.0
10
26.780190
20
17.391782
30
0.0
10
28.841762
20
16.663503
30
0.0
10
32.804839
20
14.889317
30
0.0
10
34.706348
20
13.843409
30
0.0
10
35.105862
20
14.615985
30
0.0
10
35.605937
20
15.775153
30
0.0
10
35.996008
20
17.081913
30
0.0
10
36.434764
20
19.972540
30
0.0
10
36.399381
20
22.956538
30
0.0
10
35.867106
20
25.702579
30
0.0
10
35.202324
20
27.418487
30
0.0
10
34.318963
20
29.052706
30
0.0
10
33.239772
20
30.582484
30
0.0
10
31.987500
20
31.985070
30
0.0
10
30.584895
20
33.237711
30
0.0
10
29.054707
20
34.317655
30
0.0
10
27.419685
20
35.202149
30
0.0
10
25.702579
20
35.868442
30
0.0
10
23.568343
20
36.318512
30
0.0
10
21.166667
20
36.468535
30
0.0
10
18.764990
20
36.318512
30
0.0
10
16.630754
20
35.868442
30
0.0
10
14.913648
20
35.202149
30
0.0
10
13.278627
20
34.317655
30
0.0
10
11.748439
20
33.237711
30
0.0
10
10.345834
20
31.985070
30
0.0
10
9.093562
20
30.582484
30
0.0
10
8.014370
20
29.052706
30
0.0
10
7.131010
20
27.418487
30
0.0
10
6.466229
20
25.702579
30
0.0
10
5.933954
20
22.956538
30
0.0
10
5.898569
20
19.972540
30
0.0
10
6.337325
20
17.081913
30
0.0
10
6.727397
20
15.775153
30
0.0
10
7.227472
20
14.615985
30
0.0
10
7.626986
20
13.843409
30
0.0
10
9.528493
20
14.889317
30
0.0
10
13.491572
20
16.663503
30
0.0
10
13.491572
20
16.663503
30
0.0
  0
ENDSEC
  0
SECTION
  2
OBJECTS
  0
DICTIONARY
  5
C
330
0
100
AcDbDictionary
  3
ACAD_GROUP
350
D
  3
ACAD_MLINESTYLE
350
17
  0
DICTIONARY
  5
D
330
C
100
AcDbDictionary
  0
DICTIONARY
  5
1A
330
C
100
AcDbDictionary
  0
DICTIONARY
  5
17
330
C
100
AcDbDictionary
  3
STANDARD
350
18
  0
DICTIONARY
  5
19
330
C
100
AcDbDictionary
  0
ENDSEC
  0
EOF
