999
Inkscape export via OpenSCAD DXF Export
  0
SECTION
  2
HEADER
  9
$ACADVER
  1
AC1014
  9
$HANDSEED
  5
FFFF
  9
$MEASUREMENT
 70
     1
  0
ENDSEC
  0
SECTION
  2
TABLES
  0
TABLE
  2
VPORT
  5
8
330
0
100
AcDbSymbolTable
 70
     4
  0
VPORT
  5
2E
330
8
100
AcDbSymbolTableRecord
100
AcDbViewportTableRecord
  2
*ACTIVE
 70
     0
 10
0.0
 20
0.0
 11
1.0
 21
1.0
 12
210.0
 22
148.5
 13
0.0
 23
0.0
 14
10.0
 24
10.0
 15
10.0
 25
10.0
 16
0.0
 26
0.0
 36
1.0
 17
0.0
 27
0.0
 37
0.0
 40
341.0
 41
1.24
 42
50.0
 43
0.0
 44
0.0
 50
0.0
 51
0.0
 71
     0
 72
   100
 73
     1
 74
     3
 75
     0
 76
     0
 77
     0
 78
     0
  0
ENDTAB
  0
TABLE
  2
LTYPE
  5
5
330
0
100
AcDbSymbolTable
 70
     1
  0
LTYPE
  5
14
330
5
100
AcDbSymbolTableRecord
100
AcDbLinetypeTableRecord
  2
BYBLOCK
 70
     0
  3

 72
    65
 73
     0
 40
0.0
  0
LTYPE
  5
15
330
5
100
AcDbSymbolTableRecord
100
AcDbLinetypeTableRecord
  2
BYLAYER
 70
     0
  3

 72
    65
 73
     0
 40
0.0
  0
LTYPE
  5
16
330
5
100
AcDbSymbolTableRecord
100
AcDbLinetypeTableRecord
  2
CONTINUOUS
 70
     0
  3
Solid line
 72
    65
 73
     0
 40
0.0
  0
ENDTAB
  0
TABLE
0
TABLE
2
LAYER
5
2
330
0
100
AcDbSymbolTable
70
1
0
LAYER
5
10
330
2
100
AcDbSymbolTableRecord
100
AcDbLayerTableRecord
2
Layer_1
70
0
62
7
6
CONTINUOUS
0
ENDTAB
0
ENDSEC
  0
ENDTAB
  0
TABLE
  2
STYLE
  5
3
330
0
100
AcDbSymbolTable
 70
     1
  0
STYLE
  5
11
330
3
100
AcDbSymbolTableRecord
100
AcDbTextStyleTableRecord
  2
STANDARD
 70
     0
 40
0.0
 41
1.0
 50
0.0
 71
     0
 42
2.5
  3
txt
  4

  0
ENDTAB
  0
TABLE
  2
VIEW
  5
6
330
0
100
AcDbSymbolTable
 70
     0
  0
ENDTAB
  0
TABLE
  2
UCS
  5
7
330
0
100
AcDbSymbolTable
 70
     0
  0
ENDTAB
  0
TABLE
  2
APPID
  5
9
330
0
100
AcDbSymbolTable
 70
     2
  0
APPID
  5
12
330
9
100
AcDbSymbolTableRecord
100
AcDbRegAppTableRecord
  2
ACAD
 70
     0
  0
ENDTAB
  0
TABLE
  2
DIMSTYLE
  5
A
330
0
100
AcDbSymbolTable
 70
     1
  0
DIMSTYLE
105
27
330
A
100
AcDbSymbolTableRecord
100
AcDbDimStyleTableRecord
  2
ISO-25
 70
     0
  3

  4

  5

  6

  7

 40
1.0
 41
2.5
 42
0.625
 43
3.75
 44
1.25
 45
0.0
 46
0.0
 47
0.0
 48
0.0
140
2.5
141
2.5
142
0.0
143
0.03937007874016
144
1.0
145
0.0
146
1.0
147
0.625
 71
     0
 72
     0
 73
     0
 74
     0
 75
     0
 76
     0
 77
     1
 78
     8
170
     0
171
     3
172
     1
173
     0
174
     0
175
     0
176
     0
177
     0
178
     0
270
     2
271
     2
272
     2
273
     2
274
     3
340
11
275
     0
280
     0
281
     0
282
     0
283
     0
284
     8
285
     0
286
     0
287
     3
288
     0
  0
ENDTAB
  0
TABLE
  2
BLOCK_RECORD
  5
1
330
0
100
AcDbSymbolTable
 70
     1
  0
BLOCK_RECORD
  5
1F
330
1
100
AcDbSymbolTableRecord
100
AcDbBlockTableRecord
  2
*MODEL_SPACE
  0
BLOCK_RECORD
  5
1B
330
1
100
AcDbSymbolTableRecord
100
AcDbBlockTableRecord
  2
*PAPER_SPACE
  0
ENDTAB
  0
ENDSEC
  0
SECTION
  2
BLOCKS
  0
BLOCK
  5
20
330
1F
100
AcDbEntity
  8
0
100
AcDbBlockBegin
  2
*MODEL_SPACE
 70
     0
 10
0.0
 20
0.0
 30
0.0
  3
*MODEL_SPACE
  1

  0
ENDBLK
  5
21
330
1F
100
AcDbEntity
  8
0
100
AcDbBlockEnd
  0
BLOCK
  5
1C
330
1B
100
AcDbEntity
 67
     1
  8
0
100
AcDbBlockBegin
  2
*PAPER_SPACE
  1

  0
ENDBLK
  5
1D
330
1B
100
AcDbEntity
 67
     1
  8
0
100
AcDbBlockEnd
  0
ENDSEC
  0
SECTION
  2
ENTITIES
0
DIMENSION
5
83
100
AcDbEntity
62
256
370
-1
6
ByLayer
1
total_width
3
Standard
70
0
71
5
72
1
41
1.0
100
AcDbAlignedDimension
13
2.519057
23
0.000000
33
0.0
14
40.018066
24
0.000000
34
0.0
50
0.000000
100
AcDbRotatedDimension
0
DIMENSION
5
83
100
AcDbEntity
62
256
370
-1
6
ByLayer
1
total_minx
3
Standard
70
0
71
5
72
1
41
1.0
100
AcDbAlignedDimension
13
2.519057
23
0.000000
33
0.0
14
0.000000
24
0.000000
34
0.0
50
0.000000
100
AcDbRotatedDimension
0
DIMENSION
5
83
100
AcDbEntity
62
256
370
-1
6
ByLayer
1
total_maxx
3
Standard
70
0
71
5
72
1
41
1.0
100
AcDbAlignedDimension
13
0.000000
23
0.000000
33
0.0
14
40.018066
24
0.000000
34
0.0
50
0.000000
100
AcDbRotatedDimension
0
DIMENSION
5
83
100
AcDbEntity
62
256
370
-1
6
ByLayer
1
total_height
3
Standard
70
0
71
5
72
1
41
1.0
100
AcDbAlignedDimension
13
0.000000
23
2.257778
33
0.0
14
0.000000
24
36.830000
34
0.0
50
90.000000
100
AcDbRotatedDimension
0
DIMENSION
5
83
100
AcDbEntity
62
256
370
-1
6
ByLayer
1
total_miny
3
Standard
70
0
71
5
72
1
41
1.0
100
AcDbAlignedDimension
13
2.257778
23
0.000000
33
0.0
14
0.000000
24
0.000000
34
0.0
50
0.000000
100
AcDbRotatedDimension
0
DIMENSION
5
83
100
AcDbEntity
62
256
370
-1
6
ByLayer
1
total_maxy
3
Standard
70
0
71
5
72
1
41
1.0
100
AcDbAlignedDimension
13
0.000000
23
0.000000
33
0.0
14
36.830000
24
0.000000
34
0.0
50
0.000000
100
AcDbRotatedDimension
0
DIMENSION
8
Layer_1
5
83
100
AcDbEntity
62
256
370
-1
6
ByLayer
1
Layer_1_width
3
Standard
70
0
71
5
72
1
41
1.0
100
AcDbAlignedDimension
13
2.519057
23
0.000000
33
0.0
14
40.018066
24
0.000000
34
0.0
50
0.000000
100
AcDbRotatedDimension
0
DIMENSION
8
Layer_1
5
83
100
AcDbEntity
62
256
370
-1
6
ByLayer
1
Layer_1_minx
3
Standard
70
0
71
5
72
1
41
1.0
100
AcDbAlignedDimension
13
2.519057
23
0.000000
33
0.0
14
0.000000
24
0.000000
34
0.0
50
0.000000
100
AcDbRotatedDimension
0
DIMENSION
8
Layer_1
5
83
100
AcDbEntity
62
256
370
-1
6
ByLayer
1
Layer_1_maxx
3
Standard
70
0
71
5
72
1
41
1.0
100
AcDbAlignedDimension
13
0.000000
23
0.000000
33
0.0
14
40.018066
24
0.000000
34
0.0
50
0.000000
100
AcDbRotatedDimension
0
DIMENSION
8
Layer_1
5
83
100
AcDbEntity
62
256
370
-1
6
ByLayer
1
Layer_1_height
3
Standard
70
0
71
5
72
1
41
1.0
100
AcDbAlignedDimension
13
0.000000
23
2.257778
33
0.0
14
0.000000
24
36.830000
34
0.0
50
90.000000
100
AcDbRotatedDimension
0
DIMENSION
8
Layer_1
5
83
100
AcDbEntity
62
256
370
-1
6
ByLayer
1
Layer_1_miny
3
Standard
70
0
71
5
72
1
41
1.0
100
AcDbAlignedDimension
13
2.257778
23
0.000000
33
0.0
14
0.000000
24
0.000000
34
0.0
50
0.000000
100
AcDbRotatedDimension
0
DIMENSION
8
Layer_1
5
83
100
AcDbEntity
62
256
370
-1
6
ByLayer
1
Layer_1_maxy
3
Standard
70
0
71
5
72
1
41
1.0
100
AcDbAlignedDimension
13
0.000000
23
0.000000
33
0.0
14
36.830000
24
0.000000
34
0.0
50
0.000000
100
AcDbRotatedDimension
62
0
0
LWPOLYLINE
100
AcDbPolyline
8
Layer_1
90
40
70
0
10
2.600084
20
15.592778
30
0.0
10
2.681111
20
28.927778
30
0.0
10
3.490610
20
30.577808
30
0.0
10
4.480914
20
32.172255
30
0.0
10
5.809194
20
33.701917
30
0.0
10
7.338856
20
35.030197
30
0.0
10
8.933303
20
36.020501
30
0.0
10
9.914131
20
36.460068
30
0.0
10
10.810531
20
36.703546
30
0.0
10
13.687778
20
36.830000
30
0.0
10
16.574208
20
36.702153
30
0.0
10
17.479944
20
36.453438
30
0.0
10
18.485556
20
36.002500
30
0.0
10
19.741725
20
35.279453
30
0.0
10
20.895714
20
34.398231
30
0.0
10
21.931022
20
33.382280
30
0.0
10
22.831146
20
32.255047
30
0.0
10
23.579585
20
31.039976
30
0.0
10
24.159837
20
29.760514
30
0.0
10
24.555401
20
28.440108
30
0.0
10
24.749774
20
27.102202
30
0.0
10
24.871313
20
25.258889
30
0.0
10
24.321600
20
26.416316
30
0.0
10
23.197383
20
28.154071
30
0.0
10
21.695307
20
29.465122
30
0.0
10
19.852755
20
30.325200
30
0.0
10
17.707116
20
30.710036
30
0.0
10
15.864781
20
30.670981
30
0.0
10
14.257161
20
30.071445
30
0.0
10
12.873520
20
29.194750
30
0.0
10
11.713132
20
28.146793
30
0.0
10
10.685126
20
26.669178
30
0.0
10
10.360298
20
25.747895
30
0.0
10
10.136582
20
24.501512
30
0.0
10
9.917475
20
20.423093
30
0.0
10
9.877778
20
13.213221
30
0.0
10
9.877778
20
2.257778
30
0.0
10
6.198417
20
2.257778
30
0.0
10
2.519057
20
2.257778
30
0.0
10
2.600084
20
15.592778
30
0.0
62
0
0
LWPOLYLINE
100
AcDbPolyline
8
Layer_1
90
17
70
0
10
17.558041
20
12.254262
30
0.0
10
17.638889
20
22.250747
30
0.0
10
18.344444
20
23.015079
30
0.0
10
19.499466
20
23.939927
30
0.0
10
20.769155
20
24.381057
30
0.0
10
22.081421
20
24.327641
30
0.0
10
23.364174
20
23.768856
30
0.0
10
23.837119
20
23.424545
30
0.0
10
24.196117
20
23.009317
30
0.0
10
24.456853
20
22.397812
30
0.0
10
24.635011
20
21.464668
30
0.0
10
24.806332
20
18.132013
30
0.0
10
24.835556
20
12.008460
30
0.0
10
24.835556
20
2.257778
30
0.0
10
21.156374
20
2.257778
30
0.0
10
17.477192
20
2.257778
30
0.0
10
17.558041
20
12.254262
30
0.0
62
0
0
LWPOLYLINE
100
AcDbPolyline
8
Layer_1
90
38
70
0
10
32.651725
20
2.437906
30
0.0
10
32.512871
20
5.402052
30
0.0
10
32.454500
20
12.253148
30
0.0
10
32.372813
20
20.537774
30
0.0
10
32.213462
20
22.016306
30
0.0
10
31.923375
20
22.741477
30
0.0
10
31.343822
20
23.410388
30
0.0
10
30.536328
20
23.990346
30
0.0
10
29.642890
20
24.398833
30
0.0
10
28.805505
20
24.553333
30
0.0
10
28.000067
20
24.426886
30
0.0
10
27.141999
20
24.086467
30
0.0
10
26.346710
20
23.590460
30
0.0
10
25.729607
20
22.997251
30
0.0
10
25.117778
20
22.219435
30
0.0
10
25.117778
20
23.424197
30
0.0
10
25.223093
20
24.736275
30
0.0
10
25.546734
20
25.934254
30
0.0
10
26.100242
20
27.048557
30
0.0
10
26.895158
20
28.109611
30
0.0
10
28.107375
20
29.297309
30
0.0
10
29.343271
20
30.067939
30
0.0
10
30.745211
20
30.485634
30
0.0
10
32.455556
20
30.614526
30
0.0
10
34.462107
20
30.472859
30
0.0
10
36.068178
20
29.792326
30
0.0
10
37.372720
20
28.870181
30
0.0
10
38.408466
20
27.816814
30
0.0
10
39.345606
20
26.260102
30
0.0
10
39.640036
20
25.318069
30
0.0
10
39.839628
20
24.071540
30
0.0
10
40.018066
20
20.078862
30
0.0
10
40.008449
20
13.109800
30
0.0
10
39.934444
20
2.398889
30
0.0
10
36.391170
20
2.320313
30
0.0
10
33.831105
20
2.322446
30
0.0
10
32.651725
20
2.437906
30
0.0
10
32.651725
20
2.437906
30
0.0
  0
ENDSEC
  0
SECTION
  2
OBJECTS
  0
DICTIONARY
  5
C
330
0
100
AcDbDictionary
  3
ACAD_GROUP
350
D
  3
ACAD_MLINESTYLE
350
17
  0
DICTIONARY
  5
D
330
C
100
AcDbDictionary
  0
DICTIONARY
  5
1A
330
C
100
AcDbDictionary
  0
DICTIONARY
  5
17
330
C
100
AcDbDictionary
  3
STANDARD
350
18
  0
DICTIONARY
  5
19
330
C
100
AcDbDictionary
  0
ENDSEC
  0
EOF
