999
Inkscape export via OpenSCAD DXF Export
  0
SECTION
  2
HEADER
  9
$ACADVER
  1
AC1014
  9
$HANDSEED
  5
FFFF
  9
$MEASUREMENT
 70
     1
  0
ENDSEC
  0
SECTION
  2
TABLES
  0
TABLE
  2
VPORT
  5
8
330
0
100
AcDbSymbolTable
 70
     4
  0
VPORT
  5
2E
330
8
100
AcDbSymbolTableRecord
100
AcDbViewportTableRecord
  2
*ACTIVE
 70
     0
 10
0.0
 20
0.0
 11
1.0
 21
1.0
 12
210.0
 22
148.5
 13
0.0
 23
0.0
 14
10.0
 24
10.0
 15
10.0
 25
10.0
 16
0.0
 26
0.0
 36
1.0
 17
0.0
 27
0.0
 37
0.0
 40
341.0
 41
1.24
 42
50.0
 43
0.0
 44
0.0
 50
0.0
 51
0.0
 71
     0
 72
   100
 73
     1
 74
     3
 75
     0
 76
     0
 77
     0
 78
     0
  0
ENDTAB
  0
TABLE
  2
LTYPE
  5
5
330
0
100
AcDbSymbolTable
 70
     1
  0
LTYPE
  5
14
330
5
100
AcDbSymbolTableRecord
100
AcDbLinetypeTableRecord
  2
BYBLOCK
 70
     0
  3

 72
    65
 73
     0
 40
0.0
  0
LTYPE
  5
15
330
5
100
AcDbSymbolTableRecord
100
AcDbLinetypeTableRecord
  2
BYLAYER
 70
     0
  3

 72
    65
 73
     0
 40
0.0
  0
LTYPE
  5
16
330
5
100
AcDbSymbolTableRecord
100
AcDbLinetypeTableRecord
  2
CONTINUOUS
 70
     0
  3
Solid line
 72
    65
 73
     0
 40
0.0
  0
ENDTAB
  0
TABLE
0
TABLE
2
LAYER
5
2
330
0
100
AcDbSymbolTable
70
1
0
LAYER
5
10
330
2
100
AcDbSymbolTableRecord
100
AcDbLayerTableRecord
2
Layer_1
70
0
62
7
6
CONTINUOUS
0
ENDTAB
0
ENDSEC
  0
ENDTAB
  0
TABLE
  2
STYLE
  5
3
330
0
100
AcDbSymbolTable
 70
     1
  0
STYLE
  5
11
330
3
100
AcDbSymbolTableRecord
100
AcDbTextStyleTableRecord
  2
STANDARD
 70
     0
 40
0.0
 41
1.0
 50
0.0
 71
     0
 42
2.5
  3
txt
  4

  0
ENDTAB
  0
TABLE
  2
VIEW
  5
6
330
0
100
AcDbSymbolTable
 70
     0
  0
ENDTAB
  0
TABLE
  2
UCS
  5
7
330
0
100
AcDbSymbolTable
 70
     0
  0
ENDTAB
  0
TABLE
  2
APPID
  5
9
330
0
100
AcDbSymbolTable
 70
     2
  0
APPID
  5
12
330
9
100
AcDbSymbolTableRecord
100
AcDbRegAppTableRecord
  2
ACAD
 70
     0
  0
ENDTAB
  0
TABLE
  2
DIMSTYLE
  5
A
330
0
100
AcDbSymbolTable
 70
     1
  0
DIMSTYLE
105
27
330
A
100
AcDbSymbolTableRecord
100
AcDbDimStyleTableRecord
  2
ISO-25
 70
     0
  3

  4

  5

  6

  7

 40
1.0
 41
2.5
 42
0.625
 43
3.75
 44
1.25
 45
0.0
 46
0.0
 47
0.0
 48
0.0
140
2.5
141
2.5
142
0.0
143
0.03937007874016
144
1.0
145
0.0
146
1.0
147
0.625
 71
     0
 72
     0
 73
     0
 74
     0
 75
     0
 76
     0
 77
     1
 78
     8
170
     0
171
     3
172
     1
173
     0
174
     0
175
     0
176
     0
177
     0
178
     0
270
     2
271
     2
272
     2
273
     2
274
     3
340
11
275
     0
280
     0
281
     0
282
     0
283
     0
284
     8
285
     0
286
     0
287
     3
288
     0
  0
ENDTAB
  0
TABLE
  2
BLOCK_RECORD
  5
1
330
0
100
AcDbSymbolTable
 70
     1
  0
BLOCK_RECORD
  5
1F
330
1
100
AcDbSymbolTableRecord
100
AcDbBlockTableRecord
  2
*MODEL_SPACE
  0
BLOCK_RECORD
  5
1B
330
1
100
AcDbSymbolTableRecord
100
AcDbBlockTableRecord
  2
*PAPER_SPACE
  0
ENDTAB
  0
ENDSEC
  0
SECTION
  2
BLOCKS
  0
BLOCK
  5
20
330
1F
100
AcDbEntity
  8
0
100
AcDbBlockBegin
  2
*MODEL_SPACE
 70
     0
 10
0.0
 20
0.0
 30
0.0
  3
*MODEL_SPACE
  1

  0
ENDBLK
  5
21
330
1F
100
AcDbEntity
  8
0
100
AcDbBlockEnd
  0
BLOCK
  5
1C
330
1B
100
AcDbEntity
 67
     1
  8
0
100
AcDbBlockBegin
  2
*PAPER_SPACE
  1

  0
ENDBLK
  5
1D
330
1B
100
AcDbEntity
 67
     1
  8
0
100
AcDbBlockEnd
  0
ENDSEC
  0
SECTION
  2
ENTITIES
0
DIMENSION
5
83
100
AcDbEntity
62
256
370
-1
6
ByLayer
1
total_width
3
Standard
70
0
71
5
72
1
41
1.0
100
AcDbAlignedDimension
13
2.822222
23
0.000000
33
0.0
14
39.511111
24
0.000000
34
0.0
50
0.000000
100
AcDbRotatedDimension
0
DIMENSION
5
83
100
AcDbEntity
62
256
370
-1
6
ByLayer
1
total_minx
3
Standard
70
0
71
5
72
1
41
1.0
100
AcDbAlignedDimension
13
2.822222
23
0.000000
33
0.0
14
0.000000
24
0.000000
34
0.0
50
0.000000
100
AcDbRotatedDimension
0
DIMENSION
5
83
100
AcDbEntity
62
256
370
-1
6
ByLayer
1
total_maxx
3
Standard
70
0
71
5
72
1
41
1.0
100
AcDbAlignedDimension
13
0.000000
23
0.000000
33
0.0
14
39.511111
24
0.000000
34
0.0
50
0.000000
100
AcDbRotatedDimension
0
DIMENSION
5
83
100
AcDbEntity
62
256
370
-1
6
ByLayer
1
total_height
3
Standard
70
0
71
5
72
1
41
1.0
100
AcDbAlignedDimension
13
0.000000
23
2.822222
33
0.0
14
0.000000
24
39.356642
34
0.0
50
90.000000
100
AcDbRotatedDimension
0
DIMENSION
5
83
100
AcDbEntity
62
256
370
-1
6
ByLayer
1
total_miny
3
Standard
70
0
71
5
72
1
41
1.0
100
AcDbAlignedDimension
13
2.822222
23
0.000000
33
0.0
14
0.000000
24
0.000000
34
0.0
50
0.000000
100
AcDbRotatedDimension
0
DIMENSION
5
83
100
AcDbEntity
62
256
370
-1
6
ByLayer
1
total_maxy
3
Standard
70
0
71
5
72
1
41
1.0
100
AcDbAlignedDimension
13
0.000000
23
0.000000
33
0.0
14
39.356642
24
0.000000
34
0.0
50
0.000000
100
AcDbRotatedDimension
0
DIMENSION
8
Layer_1
5
83
100
AcDbEntity
62
256
370
-1
6
ByLayer
1
Layer_1_width
3
Standard
70
0
71
5
72
1
41
1.0
100
AcDbAlignedDimension
13
2.822222
23
0.000000
33
0.0
14
39.511111
24
0.000000
34
0.0
50
0.000000
100
AcDbRotatedDimension
0
DIMENSION
8
Layer_1
5
83
100
AcDbEntity
62
256
370
-1
6
ByLayer
1
Layer_1_minx
3
Standard
70
0
71
5
72
1
41
1.0
100
AcDbAlignedDimension
13
2.822222
23
0.000000
33
0.0
14
0.000000
24
0.000000
34
0.0
50
0.000000
100
AcDbRotatedDimension
0
DIMENSION
8
Layer_1
5
83
100
AcDbEntity
62
256
370
-1
6
ByLayer
1
Layer_1_maxx
3
Standard
70
0
71
5
72
1
41
1.0
100
AcDbAlignedDimension
13
0.000000
23
0.000000
33
0.0
14
39.511111
24
0.000000
34
0.0
50
0.000000
100
AcDbRotatedDimension
0
DIMENSION
8
Layer_1
5
83
100
AcDbEntity
62
256
370
-1
6
ByLayer
1
Layer_1_height
3
Standard
70
0
71
5
72
1
41
1.0
100
AcDbAlignedDimension
13
0.000000
23
2.822222
33
0.0
14
0.000000
24
39.356642
34
0.0
50
90.000000
100
AcDbRotatedDimension
0
DIMENSION
8
Layer_1
5
83
100
AcDbEntity
62
256
370
-1
6
ByLayer
1
Layer_1_miny
3
Standard
70
0
71
5
72
1
41
1.0
100
AcDbAlignedDimension
13
2.822222
23
0.000000
33
0.0
14
0.000000
24
0.000000
34
0.0
50
0.000000
100
AcDbRotatedDimension
0
DIMENSION
8
Layer_1
5
83
100
AcDbEntity
62
256
370
-1
6
ByLayer
1
Layer_1_maxy
3
Standard
70
0
71
5
72
1
41
1.0
100
AcDbAlignedDimension
13
0.000000
23
0.000000
33
0.0
14
39.356642
24
0.000000
34
0.0
50
0.000000
100
AcDbRotatedDimension
62
0
0
LWPOLYLINE
100
AcDbPolyline
8
Layer_1
90
12
70
0
10
18.283234
20
2.977507
30
0.0
10
18.622914
20
4.086553
30
0.0
10
19.562623
20
6.353176
30
0.0
10
20.583496
20
8.586477
30
0.0
10
21.166667
20
9.595556
30
0.0
10
21.749837
20
8.586477
30
0.0
10
22.770710
20
6.353176
30
0.0
10
23.710420
20
4.086553
30
0.0
10
24.050099
20
2.977507
30
0.0
10
21.166667
20
2.822222
30
0.0
10
18.283234
20
2.977507
30
0.0
10
18.283234
20
2.977507
30
0.0
62
0
0
LWPOLYLINE
100
AcDbPolyline
8
Layer_1
90
11
70
0
10
12.863256
20
4.826313
30
0.0
10
10.239891
20
6.415828
30
0.0
10
9.287716
20
7.142088
30
0.0
10
12.757747
20
9.186130
30
0.0
10
16.404440
20
11.123399
30
0.0
10
15.945863
20
8.063607
30
0.0
10
15.100911
20
4.303889
30
0.0
10
14.942731
20
4.040233
30
0.0
10
14.624192
20
4.014407
30
0.0
10
12.863256
20
4.826313
30
0.0
10
12.863256
20
4.826313
30
0.0
62
0
0
LWPOLYLINE
100
AcDbPolyline
8
Layer_1
90
11
70
0
10
27.244565
20
4.303889
30
0.0
10
25.872346
20
10.724444
30
0.0
10
25.934088
20
11.035023
30
0.0
10
26.412709
20
10.944889
30
0.0
10
29.725180
20
9.095461
30
0.0
10
33.046331
20
7.142632
30
0.0
10
32.084958
20
6.409357
30
0.0
10
29.608620
20
4.914854
30
0.0
10
27.543452
20
3.951111
30
0.0
10
27.244565
20
4.303889
30
0.0
10
27.244565
20
4.303889
30
0.0
62
0
0
LWPOLYLINE
100
AcDbPolyline
8
Layer_1
90
14
70
0
10
6.713954
20
9.804936
30
0.0
10
5.311761
20
11.906321
30
0.0
10
4.056014
20
14.603482
30
0.0
10
3.366444
20
16.435500
30
0.0
10
4.293778
20
16.276570
30
0.0
10
9.031111
20
15.779764
30
0.0
10
13.210526
20
15.249859
30
0.0
10
13.212956
20
15.019677
30
0.0
10
12.841269
20
14.519265
30
0.0
10
10.950685
20
12.679471
30
0.0
10
7.488344
20
9.636607
30
0.0
10
7.014595
20
9.488612
30
0.0
10
6.713954
20
9.804936
30
0.0
10
6.713954
20
9.804936
30
0.0
62
0
0
LWPOLYLINE
100
AcDbPolyline
8
Layer_1
90
15
70
0
10
31.900602
20
12.189401
30
0.0
10
29.420737
20
14.551874
30
0.0
10
29.105006
20
15.040149
30
0.0
10
29.245340
20
15.251016
30
0.0
10
33.443333
20
15.781459
30
0.0
10
38.024745
20
16.275603
30
0.0
10
38.937271
20
16.429944
30
0.0
10
38.385891
20
14.827328
30
0.0
10
36.965781
20
11.822704
30
0.0
10
36.126087
20
10.449688
30
0.0
10
35.464722
20
9.633593
30
0.0
10
35.133134
20
9.612487
30
0.0
10
34.506603
20
9.975473
30
0.0
10
31.900602
20
12.189401
30
0.0
10
31.900602
20
12.189401
30
0.0
62
0
0
LWPOLYLINE
100
AcDbPolyline
8
Layer_1
90
13
70
0
10
2.822222
20
21.384006
30
0.0
10
2.955785
20
23.351580
30
0.0
10
3.292542
20
25.480675
30
0.0
10
3.736595
20
27.287845
30
0.0
10
4.192046
20
28.289643
30
0.0
10
5.685662
20
27.227280
30
0.0
10
8.989735
20
24.380253
30
0.0
10
12.189932
20
21.428123
30
0.0
10
13.433804
20
20.113063
30
0.0
10
3.033889
20
18.916482
30
0.0
10
2.884399
20
19.638185
30
0.0
10
2.822222
20
21.384006
30
0.0
10
2.822222
20
21.384006
30
0.0
62
0
0
LWPOLYLINE
100
AcDbPolyline
8
Layer_1
90
15
70
0
10
33.651678
20
19.464760
30
0.0
10
28.906256
20
20.106338
30
0.0
10
30.145378
20
21.426148
30
0.0
10
33.343599
20
24.380253
30
0.0
10
36.647671
20
27.227280
30
0.0
10
38.141286
20
28.289643
30
0.0
10
38.596737
20
27.287845
30
0.0
10
39.040791
20
25.480675
30
0.0
10
39.377548
20
23.351580
30
0.0
10
39.511111
20
21.384006
30
0.0
10
39.423460
20
19.255404
30
0.0
10
39.233910
20
18.975007
30
0.0
10
38.876111
20
18.944033
30
0.0
10
33.651678
20
19.464760
30
0.0
10
33.651678
20
19.464760
30
0.0
62
0
0
LWPOLYLINE
100
AcDbPolyline
8
Layer_1
90
18
70
0
10
10.863496
20
27.229659
30
0.0
10
5.504910
20
30.286541
30
0.0
10
5.432273
20
30.432612
30
0.0
10
5.525355
20
30.738652
30
0.0
10
6.128742
20
31.719418
30
0.0
10
7.155201
20
33.006400
30
0.0
10
8.444863
20
34.377156
30
0.0
10
9.969361
20
35.707188
30
0.0
10
11.545252
20
36.838208
30
0.0
10
12.840908
20
37.556628
30
0.0
10
13.280015
20
37.694366
30
0.0
10
13.524703
20
37.648860
30
0.0
10
15.036915
20
31.404783
30
0.0
10
16.368889
20
24.736257
30
0.0
10
16.306107
20
24.407748
30
0.0
10
16.155163
20
24.271111
30
0.0
10
10.863496
20
27.229659
30
0.0
10
10.863496
20
27.229659
30
0.0
62
0
0
LWPOLYLINE
100
AcDbPolyline
8
Layer_1
90
15
70
0
10
25.964444
20
24.674401
30
0.0
10
27.299476
20
31.369329
30
0.0
10
28.812634
20
37.648860
30
0.0
10
29.055792
20
37.694428
30
0.0
10
29.494168
20
37.556365
30
0.0
10
30.789753
20
36.836876
30
0.0
10
32.365738
20
35.705453
30
0.0
10
33.888471
20
34.377156
30
0.0
10
36.088288
20
31.882083
30
0.0
10
36.785973
20
30.872837
30
0.0
10
36.941856
20
30.380633
30
0.0
10
26.457291
20
24.399845
30
0.0
10
26.081216
20
24.365392
30
0.0
10
25.964444
20
24.674401
30
0.0
10
25.964444
20
24.674401
30
0.0
62
0
0
LWPOLYLINE
100
AcDbPolyline
8
Layer_1
90
15
70
0
10
20.168222
20
27.564325
30
0.0
10
17.392118
20
33.866667
30
0.0
10
15.335961
20
38.523333
30
0.0
10
16.346314
20
38.931163
30
0.0
10
18.247663
20
39.250272
30
0.0
10
21.166507
20
39.356642
30
0.0
10
24.087272
20
39.250272
30
0.0
10
25.994382
20
38.931163
30
0.0
10
27.012098
20
38.523333
30
0.0
10
24.275033
20
32.329291
30
0.0
10
22.246542
20
27.922936
30
0.0
10
21.213069
20
26.026949
30
0.0
10
20.772125
20
26.433879
30
0.0
10
20.168222
20
27.564325
30
0.0
10
20.168222
20
27.564325
30
0.0
  0
ENDSEC
  0
SECTION
  2
OBJECTS
  0
DICTIONARY
  5
C
330
0
100
AcDbDictionary
  3
ACAD_GROUP
350
D
  3
ACAD_MLINESTYLE
350
17
  0
DICTIONARY
  5
D
330
C
100
AcDbDictionary
  0
DICTIONARY
  5
1A
330
C
100
AcDbDictionary
  0
DICTIONARY
  5
17
330
C
100
AcDbDictionary
  3
STANDARD
350
18
  0
DICTIONARY
  5
19
330
C
100
AcDbDictionary
  0
ENDSEC
  0
EOF
