999
Inkscape export via OpenSCAD DXF Export
  0
SECTION
  2
HEADER
  9
$ACADVER
  1
AC1014
  9
$HANDSEED
  5
FFFF
  9
$MEASUREMENT
 70
     1
  0
ENDSEC
  0
SECTION
  2
TABLES
  0
TABLE
  2
VPORT
  5
8
330
0
100
AcDbSymbolTable
 70
     4
  0
VPORT
  5
2E
330
8
100
AcDbSymbolTableRecord
100
AcDbViewportTableRecord
  2
*ACTIVE
 70
     0
 10
0.0
 20
0.0
 11
1.0
 21
1.0
 12
210.0
 22
148.5
 13
0.0
 23
0.0
 14
10.0
 24
10.0
 15
10.0
 25
10.0
 16
0.0
 26
0.0
 36
1.0
 17
0.0
 27
0.0
 37
0.0
 40
341.0
 41
1.24
 42
50.0
 43
0.0
 44
0.0
 50
0.0
 51
0.0
 71
     0
 72
   100
 73
     1
 74
     3
 75
     0
 76
     0
 77
     0
 78
     0
  0
ENDTAB
  0
TABLE
  2
LTYPE
  5
5
330
0
100
AcDbSymbolTable
 70
     1
  0
LTYPE
  5
14
330
5
100
AcDbSymbolTableRecord
100
AcDbLinetypeTableRecord
  2
BYBLOCK
 70
     0
  3

 72
    65
 73
     0
 40
0.0
  0
LTYPE
  5
15
330
5
100
AcDbSymbolTableRecord
100
AcDbLinetypeTableRecord
  2
BYLAYER
 70
     0
  3

 72
    65
 73
     0
 40
0.0
  0
LTYPE
  5
16
330
5
100
AcDbSymbolTableRecord
100
AcDbLinetypeTableRecord
  2
CONTINUOUS
 70
     0
  3
Solid line
 72
    65
 73
     0
 40
0.0
  0
ENDTAB
  0
TABLE
0
TABLE
2
LAYER
5
2
330
0
100
AcDbSymbolTable
70
1
0
LAYER
5
10
330
2
100
AcDbSymbolTableRecord
100
AcDbLayerTableRecord
2
Layer_1
70
0
62
7
6
CONTINUOUS
0
ENDTAB
0
ENDSEC
  0
ENDTAB
  0
TABLE
  2
STYLE
  5
3
330
0
100
AcDbSymbolTable
 70
     1
  0
STYLE
  5
11
330
3
100
AcDbSymbolTableRecord
100
AcDbTextStyleTableRecord
  2
STANDARD
 70
     0
 40
0.0
 41
1.0
 50
0.0
 71
     0
 42
2.5
  3
txt
  4

  0
ENDTAB
  0
TABLE
  2
VIEW
  5
6
330
0
100
AcDbSymbolTable
 70
     0
  0
ENDTAB
  0
TABLE
  2
UCS
  5
7
330
0
100
AcDbSymbolTable
 70
     0
  0
ENDTAB
  0
TABLE
  2
APPID
  5
9
330
0
100
AcDbSymbolTable
 70
     2
  0
APPID
  5
12
330
9
100
AcDbSymbolTableRecord
100
AcDbRegAppTableRecord
  2
ACAD
 70
     0
  0
ENDTAB
  0
TABLE
  2
DIMSTYLE
  5
A
330
0
100
AcDbSymbolTable
 70
     1
  0
DIMSTYLE
105
27
330
A
100
AcDbSymbolTableRecord
100
AcDbDimStyleTableRecord
  2
ISO-25
 70
     0
  3

  4

  5

  6

  7

 40
1.0
 41
2.5
 42
0.625
 43
3.75
 44
1.25
 45
0.0
 46
0.0
 47
0.0
 48
0.0
140
2.5
141
2.5
142
0.0
143
0.03937007874016
144
1.0
145
0.0
146
1.0
147
0.625
 71
     0
 72
     0
 73
     0
 74
     0
 75
     0
 76
     0
 77
     1
 78
     8
170
     0
171
     3
172
     1
173
     0
174
     0
175
     0
176
     0
177
     0
178
     0
270
     2
271
     2
272
     2
273
     2
274
     3
340
11
275
     0
280
     0
281
     0
282
     0
283
     0
284
     8
285
     0
286
     0
287
     3
288
     0
  0
ENDTAB
  0
TABLE
  2
BLOCK_RECORD
  5
1
330
0
100
AcDbSymbolTable
 70
     1
  0
BLOCK_RECORD
  5
1F
330
1
100
AcDbSymbolTableRecord
100
AcDbBlockTableRecord
  2
*MODEL_SPACE
  0
BLOCK_RECORD
  5
1B
330
1
100
AcDbSymbolTableRecord
100
AcDbBlockTableRecord
  2
*PAPER_SPACE
  0
ENDTAB
  0
ENDSEC
  0
SECTION
  2
BLOCKS
  0
BLOCK
  5
20
330
1F
100
AcDbEntity
  8
0
100
AcDbBlockBegin
  2
*MODEL_SPACE
 70
     0
 10
0.0
 20
0.0
 30
0.0
  3
*MODEL_SPACE
  1

  0
ENDBLK
  5
21
330
1F
100
AcDbEntity
  8
0
100
AcDbBlockEnd
  0
BLOCK
  5
1C
330
1B
100
AcDbEntity
 67
     1
  8
0
100
AcDbBlockBegin
  2
*PAPER_SPACE
  1

  0
ENDBLK
  5
1D
330
1B
100
AcDbEntity
 67
     1
  8
0
100
AcDbBlockEnd
  0
ENDSEC
  0
SECTION
  2
ENTITIES
0
DIMENSION
5
83
100
AcDbEntity
62
256
370
-1
6
ByLayer
1
total_width
3
Standard
70
0
71
5
72
1
41
1.0
100
AcDbAlignedDimension
13
2.540000
23
0.000000
33
0.0
14
40.504956
24
0.000000
34
0.0
50
0.000000
100
AcDbRotatedDimension
0
DIMENSION
5
83
100
AcDbEntity
62
256
370
-1
6
ByLayer
1
total_minx
3
Standard
70
0
71
5
72
1
41
1.0
100
AcDbAlignedDimension
13
2.540000
23
0.000000
33
0.0
14
0.000000
24
0.000000
34
0.0
50
0.000000
100
AcDbRotatedDimension
0
DIMENSION
5
83
100
AcDbEntity
62
256
370
-1
6
ByLayer
1
total_maxx
3
Standard
70
0
71
5
72
1
41
1.0
100
AcDbAlignedDimension
13
0.000000
23
0.000000
33
0.0
14
40.504956
24
0.000000
34
0.0
50
0.000000
100
AcDbRotatedDimension
0
DIMENSION
5
83
100
AcDbEntity
62
256
370
-1
6
ByLayer
1
total_height
3
Standard
70
0
71
5
72
1
41
1.0
100
AcDbAlignedDimension
13
0.000000
23
2.682826
33
0.0
14
0.000000
24
25.302274
34
0.0
50
90.000000
100
AcDbRotatedDimension
0
DIMENSION
5
83
100
AcDbEntity
62
256
370
-1
6
ByLayer
1
total_miny
3
Standard
70
0
71
5
72
1
41
1.0
100
AcDbAlignedDimension
13
2.682826
23
0.000000
33
0.0
14
0.000000
24
0.000000
34
0.0
50
0.000000
100
AcDbRotatedDimension
0
DIMENSION
5
83
100
AcDbEntity
62
256
370
-1
6
ByLayer
1
total_maxy
3
Standard
70
0
71
5
72
1
41
1.0
100
AcDbAlignedDimension
13
0.000000
23
0.000000
33
0.0
14
25.302274
24
0.000000
34
0.0
50
0.000000
100
AcDbRotatedDimension
0
DIMENSION
8
Layer_1
5
83
100
AcDbEntity
62
256
370
-1
6
ByLayer
1
Layer_1_width
3
Standard
70
0
71
5
72
1
41
1.0
100
AcDbAlignedDimension
13
2.540000
23
0.000000
33
0.0
14
40.504956
24
0.000000
34
0.0
50
0.000000
100
AcDbRotatedDimension
0
DIMENSION
8
Layer_1
5
83
100
AcDbEntity
62
256
370
-1
6
ByLayer
1
Layer_1_minx
3
Standard
70
0
71
5
72
1
41
1.0
100
AcDbAlignedDimension
13
2.540000
23
0.000000
33
0.0
14
0.000000
24
0.000000
34
0.0
50
0.000000
100
AcDbRotatedDimension
0
DIMENSION
8
Layer_1
5
83
100
AcDbEntity
62
256
370
-1
6
ByLayer
1
Layer_1_maxx
3
Standard
70
0
71
5
72
1
41
1.0
100
AcDbAlignedDimension
13
0.000000
23
0.000000
33
0.0
14
40.504956
24
0.000000
34
0.0
50
0.000000
100
AcDbRotatedDimension
0
DIMENSION
8
Layer_1
5
83
100
AcDbEntity
62
256
370
-1
6
ByLayer
1
Layer_1_height
3
Standard
70
0
71
5
72
1
41
1.0
100
AcDbAlignedDimension
13
0.000000
23
2.682826
33
0.0
14
0.000000
24
25.302274
34
0.0
50
90.000000
100
AcDbRotatedDimension
0
DIMENSION
8
Layer_1
5
83
100
AcDbEntity
62
256
370
-1
6
ByLayer
1
Layer_1_miny
3
Standard
70
0
71
5
72
1
41
1.0
100
AcDbAlignedDimension
13
2.682826
23
0.000000
33
0.0
14
0.000000
24
0.000000
34
0.0
50
0.000000
100
AcDbRotatedDimension
0
DIMENSION
8
Layer_1
5
83
100
AcDbEntity
62
256
370
-1
6
ByLayer
1
Layer_1_maxy
3
Standard
70
0
71
5
72
1
41
1.0
100
AcDbAlignedDimension
13
0.000000
23
0.000000
33
0.0
14
25.302274
24
0.000000
34
0.0
50
0.000000
100
AcDbRotatedDimension
62
0
0
LWPOLYLINE
100
AcDbPolyline
8
Layer_1
90
56
70
0
10
17.922078
20
2.854216
30
0.0
10
15.475844
20
3.224322
30
0.0
10
13.315806
20
3.703209
30
0.0
10
11.454282
20
4.284473
30
0.0
10
9.903592
20
4.961710
30
0.0
10
8.676055
20
5.728518
30
0.0
10
7.783990
20
6.578494
30
0.0
10
7.239717
20
7.505234
30
0.0
10
7.055556
20
8.502335
30
0.0
10
7.161777
20
9.473871
30
0.0
10
7.446904
20
10.294344
30
0.0
10
7.860631
20
10.933338
30
0.0
10
8.352651
20
11.360438
30
0.0
10
8.872660
20
11.545227
30
0.0
10
9.370351
20
11.457290
30
0.0
10
9.795419
20
11.066212
30
0.0
10
10.097557
20
10.341576
30
0.0
10
10.587384
20
9.527631
30
0.0
10
11.591543
20
8.817307
30
0.0
10
13.049208
20
8.242362
30
0.0
10
14.899554
20
7.834551
30
0.0
10
16.721914
20
7.679441
30
0.0
10
17.278600
20
7.867533
30
0.0
10
17.938740
20
8.282843
30
0.0
10
18.603797
20
8.683259
30
0.0
10
19.273112
20
8.908976
30
0.0
10
21.569788
20
9.031111
30
0.0
10
23.866311
20
8.909215
30
0.0
10
24.528953
20
8.682046
30
0.0
10
25.187014
20
8.277575
30
0.0
10
25.837978
20
7.859969
30
0.0
10
26.386117
20
7.669679
30
0.0
10
28.165517
20
7.818070
30
0.0
10
30.020409
20
8.222568
30
0.0
10
31.483168
20
8.780920
30
0.0
10
32.478427
20
9.455326
30
0.0
10
32.930821
20
10.207989
30
0.0
10
33.109116
20
10.748533
30
0.0
10
33.381133
20
11.132423
30
0.0
10
33.723956
20
11.360008
30
0.0
10
34.114672
20
11.431641
30
0.0
10
34.948128
20
11.108448
30
0.0
10
35.698190
20
10.165649
30
0.0
10
36.031173
20
9.280435
30
0.0
10
36.107956
20
8.420721
30
0.0
10
35.934213
20
7.594517
30
0.0
10
35.515617
20
6.809835
30
0.0
10
34.857842
20
6.074685
30
0.0
10
33.966561
20
5.397080
30
0.0
10
32.847448
20
4.785029
30
0.0
10
31.506177
20
4.246545
30
0.0
10
28.369818
20
3.415046
30
0.0
10
24.825830
20
2.881788
30
0.0
10
21.225991
20
2.682826
30
0.0
10
17.922078
20
2.854216
30
0.0
10
17.922078
20
2.854216
30
0.0
62
0
0
LWPOLYLINE
100
AcDbPolyline
8
Layer_1
90
20
70
0
10
7.872229
20
14.484517
30
0.0
10
3.234039
20
17.345910
30
0.0
10
2.633632
20
17.994687
30
0.0
10
2.540000
20
18.617482
30
0.0
10
2.671214
20
19.270959
30
0.0
10
3.050488
20
19.815484
30
0.0
10
3.656266
20
20.230070
30
0.0
10
4.466995
20
20.493732
30
0.0
10
5.406539
20
20.481805
30
0.0
10
6.452179
20
19.923647
30
0.0
10
8.260874
20
18.347678
30
0.0
10
10.621807
20
15.956082
30
0.0
10
12.671547
20
13.665447
30
0.0
10
13.546667
20
12.392360
30
0.0
10
13.487314
20
12.089001
30
0.0
10
13.292507
20
11.928510
30
0.0
10
12.396039
20
12.073184
30
0.0
10
10.656274
20
12.900485
30
0.0
10
7.872229
20
14.484517
30
0.0
10
7.872229
20
14.484517
30
0.0
62
0
0
LWPOLYLINE
100
AcDbPolyline
8
Layer_1
90
19
70
0
10
29.558705
20
12.022036
30
0.0
10
29.500531
20
12.435755
30
0.0
10
29.998163
20
13.229556
30
0.0
10
33.255393
20
16.711650
30
0.0
10
35.552530
20
18.955214
30
0.0
10
37.072623
20
20.158419
30
0.0
10
37.647842
20
20.434209
30
0.0
10
38.156680
20
20.527098
30
0.0
10
39.145712
20
20.267090
30
0.0
10
39.791027
20
19.797396
30
0.0
10
40.269092
20
19.155358
30
0.0
10
40.504956
20
18.479354
30
0.0
10
40.423665
20
17.907758
30
0.0
10
38.781308
20
16.730158
30
0.0
10
35.421058
20
14.674683
30
0.0
10
32.001912
20
12.722139
30
0.0
10
30.182862
20
11.853333
30
0.0
10
29.558705
20
12.022036
30
0.0
10
29.558705
20
12.022036
30
0.0
62
0
0
LWPOLYLINE
100
AcDbPolyline
8
Layer_1
90
17
70
0
10
15.522222
20
12.982222
30
0.0
10
14.957778
20
13.774948
30
0.0
10
15.101047
20
14.202148
30
0.0
10
15.496810
20
14.588309
30
0.0
10
16.094002
20
14.897662
30
0.0
10
16.841556
20
15.094438
30
0.0
10
17.906838
20
15.134981
30
0.0
10
18.605445
20
14.696777
30
0.0
10
19.016435
20
14.221280
30
0.0
10
19.156278
20
13.832813
30
0.0
10
19.026010
20
13.447690
30
0.0
10
18.626667
20
12.982222
30
0.0
10
17.948829
20
12.568968
30
0.0
10
17.074444
20
12.417778
30
0.0
10
16.200059
20
12.568968
30
0.0
10
15.522222
20
12.982222
30
0.0
10
15.522222
20
12.982222
30
0.0
62
0
0
LWPOLYLINE
100
AcDbPolyline
8
Layer_1
90
15
70
0
10
24.623889
20
12.708795
30
0.0
10
24.166746
20
13.075331
30
0.0
10
23.997706
20
13.619892
30
0.0
10
24.121082
20
14.233124
30
0.0
10
24.541188
20
14.805675
30
0.0
10
25.243703
20
15.165603
30
0.0
10
26.446188
20
15.059909
30
0.0
10
27.608208
20
14.713170
30
0.0
10
27.804537
20
14.407381
30
0.0
10
27.887339
20
13.898089
30
0.0
10
27.821850
20
13.099443
30
0.0
10
27.233967
20
12.699818
30
0.0
10
25.916457
20
12.447968
30
0.0
10
24.623889
20
12.708795
30
0.0
10
24.623889
20
12.708795
30
0.0
62
0
0
LWPOLYLINE
100
AcDbPolyline
8
Layer_1
90
20
70
0
10
20.614346
20
13.806236
30
0.0
10
20.040301
20
16.351097
30
0.0
10
19.480562
20
19.548749
30
0.0
10
19.198010
20
22.334845
30
0.0
10
19.301617
20
23.579465
30
0.0
10
19.649414
20
24.453138
30
0.0
10
20.278039
20
25.009522
30
0.0
10
21.224130
20
25.302274
30
0.0
10
22.243703
20
25.285117
30
0.0
10
23.166511
20
24.572464
30
0.0
10
23.667961
20
24.031307
30
0.0
10
23.916154
20
23.557345
30
0.0
10
23.896775
20
21.927106
30
0.0
10
23.177392
20
17.073348
30
0.0
10
22.434610
20
13.543338
30
0.0
10
22.067332
20
13.301016
30
0.0
10
21.526964
20
13.280604
30
0.0
10
20.985353
20
13.457284
30
0.0
10
20.614346
20
13.806236
30
0.0
10
20.614346
20
13.806236
30
0.0
  0
ENDSEC
  0
SECTION
  2
OBJECTS
  0
DICTIONARY
  5
C
330
0
100
AcDbDictionary
  3
ACAD_GROUP
350
D
  3
ACAD_MLINESTYLE
350
17
  0
DICTIONARY
  5
D
330
C
100
AcDbDictionary
  0
DICTIONARY
  5
1A
330
C
100
AcDbDictionary
  0
DICTIONARY
  5
17
330
C
100
AcDbDictionary
  3
STANDARD
350
18
  0
DICTIONARY
  5
19
330
C
100
AcDbDictionary
  0
ENDSEC
  0
EOF
