999
Inkscape export via OpenSCAD DXF Export
  0
SECTION
  2
HEADER
  9
$ACADVER
  1
AC1014
  9
$HANDSEED
  5
FFFF
  9
$MEASUREMENT
 70
     1
  0
ENDSEC
  0
SECTION
  2
TABLES
  0
TABLE
  2
VPORT
  5
8
330
0
100
AcDbSymbolTable
 70
     4
  0
VPORT
  5
2E
330
8
100
AcDbSymbolTableRecord
100
AcDbViewportTableRecord
  2
*ACTIVE
 70
     0
 10
0.0
 20
0.0
 11
1.0
 21
1.0
 12
210.0
 22
148.5
 13
0.0
 23
0.0
 14
10.0
 24
10.0
 15
10.0
 25
10.0
 16
0.0
 26
0.0
 36
1.0
 17
0.0
 27
0.0
 37
0.0
 40
341.0
 41
1.24
 42
50.0
 43
0.0
 44
0.0
 50
0.0
 51
0.0
 71
     0
 72
   100
 73
     1
 74
     3
 75
     0
 76
     0
 77
     0
 78
     0
  0
ENDTAB
  0
TABLE
  2
LTYPE
  5
5
330
0
100
AcDbSymbolTable
 70
     1
  0
LTYPE
  5
14
330
5
100
AcDbSymbolTableRecord
100
AcDbLinetypeTableRecord
  2
BYBLOCK
 70
     0
  3

 72
    65
 73
     0
 40
0.0
  0
LTYPE
  5
15
330
5
100
AcDbSymbolTableRecord
100
AcDbLinetypeTableRecord
  2
BYLAYER
 70
     0
  3

 72
    65
 73
     0
 40
0.0
  0
LTYPE
  5
16
330
5
100
AcDbSymbolTableRecord
100
AcDbLinetypeTableRecord
  2
CONTINUOUS
 70
     0
  3
Solid line
 72
    65
 73
     0
 40
0.0
  0
ENDTAB
  0
TABLE
0
TABLE
2
LAYER
5
2
330
0
100
AcDbSymbolTable
70
1
0
LAYER
5
10
330
2
100
AcDbSymbolTableRecord
100
AcDbLayerTableRecord
2
Layer_1
70
0
62
7
6
CONTINUOUS
0
ENDTAB
0
ENDSEC
  0
ENDTAB
  0
TABLE
  2
STYLE
  5
3
330
0
100
AcDbSymbolTable
 70
     1
  0
STYLE
  5
11
330
3
100
AcDbSymbolTableRecord
100
AcDbTextStyleTableRecord
  2
STANDARD
 70
     0
 40
0.0
 41
1.0
 50
0.0
 71
     0
 42
2.5
  3
txt
  4

  0
ENDTAB
  0
TABLE
  2
VIEW
  5
6
330
0
100
AcDbSymbolTable
 70
     0
  0
ENDTAB
  0
TABLE
  2
UCS
  5
7
330
0
100
AcDbSymbolTable
 70
     0
  0
ENDTAB
  0
TABLE
  2
APPID
  5
9
330
0
100
AcDbSymbolTable
 70
     2
  0
APPID
  5
12
330
9
100
AcDbSymbolTableRecord
100
AcDbRegAppTableRecord
  2
ACAD
 70
     0
  0
ENDTAB
  0
TABLE
  2
DIMSTYLE
  5
A
330
0
100
AcDbSymbolTable
 70
     1
  0
DIMSTYLE
105
27
330
A
100
AcDbSymbolTableRecord
100
AcDbDimStyleTableRecord
  2
ISO-25
 70
     0
  3

  4

  5

  6

  7

 40
1.0
 41
2.5
 42
0.625
 43
3.75
 44
1.25
 45
0.0
 46
0.0
 47
0.0
 48
0.0
140
2.5
141
2.5
142
0.0
143
0.03937007874016
144
1.0
145
0.0
146
1.0
147
0.625
 71
     0
 72
     0
 73
     0
 74
     0
 75
     0
 76
     0
 77
     1
 78
     8
170
     0
171
     3
172
     1
173
     0
174
     0
175
     0
176
     0
177
     0
178
     0
270
     2
271
     2
272
     2
273
     2
274
     3
340
11
275
     0
280
     0
281
     0
282
     0
283
     0
284
     8
285
     0
286
     0
287
     3
288
     0
  0
ENDTAB
  0
TABLE
  2
BLOCK_RECORD
  5
1
330
0
100
AcDbSymbolTable
 70
     1
  0
BLOCK_RECORD
  5
1F
330
1
100
AcDbSymbolTableRecord
100
AcDbBlockTableRecord
  2
*MODEL_SPACE
  0
BLOCK_RECORD
  5
1B
330
1
100
AcDbSymbolTableRecord
100
AcDbBlockTableRecord
  2
*PAPER_SPACE
  0
ENDTAB
  0
ENDSEC
  0
SECTION
  2
BLOCKS
  0
BLOCK
  5
20
330
1F
100
AcDbEntity
  8
0
100
AcDbBlockBegin
  2
*MODEL_SPACE
 70
     0
 10
0.0
 20
0.0
 30
0.0
  3
*MODEL_SPACE
  1

  0
ENDBLK
  5
21
330
1F
100
AcDbEntity
  8
0
100
AcDbBlockEnd
  0
BLOCK
  5
1C
330
1B
100
AcDbEntity
 67
     1
  8
0
100
AcDbBlockBegin
  2
*PAPER_SPACE
  1

  0
ENDBLK
  5
1D
330
1B
100
AcDbEntity
 67
     1
  8
0
100
AcDbBlockEnd
  0
ENDSEC
  0
SECTION
  2
ENTITIES
0
DIMENSION
5
83
100
AcDbEntity
62
256
370
-1
6
ByLayer
1
total_width
3
Standard
70
0
71
5
72
1
41
1.0
100
AcDbAlignedDimension
13
2.433336
23
0.000000
33
0.0
14
39.899997
24
0.000000
34
0.0
50
0.000000
100
AcDbRotatedDimension
0
DIMENSION
5
83
100
AcDbEntity
62
256
370
-1
6
ByLayer
1
total_minx
3
Standard
70
0
71
5
72
1
41
1.0
100
AcDbAlignedDimension
13
2.433336
23
0.000000
33
0.0
14
0.000000
24
0.000000
34
0.0
50
0.000000
100
AcDbRotatedDimension
0
DIMENSION
5
83
100
AcDbEntity
62
256
370
-1
6
ByLayer
1
total_maxx
3
Standard
70
0
71
5
72
1
41
1.0
100
AcDbAlignedDimension
13
0.000000
23
0.000000
33
0.0
14
39.899997
24
0.000000
34
0.0
50
0.000000
100
AcDbRotatedDimension
0
DIMENSION
5
83
100
AcDbEntity
62
256
370
-1
6
ByLayer
1
total_height
3
Standard
70
0
71
5
72
1
41
1.0
100
AcDbAlignedDimension
13
0.000000
23
6.208889
33
0.0
14
0.000000
24
38.096847
34
0.0
50
90.000000
100
AcDbRotatedDimension
0
DIMENSION
5
83
100
AcDbEntity
62
256
370
-1
6
ByLayer
1
total_miny
3
Standard
70
0
71
5
72
1
41
1.0
100
AcDbAlignedDimension
13
6.208889
23
0.000000
33
0.0
14
0.000000
24
0.000000
34
0.0
50
0.000000
100
AcDbRotatedDimension
0
DIMENSION
5
83
100
AcDbEntity
62
256
370
-1
6
ByLayer
1
total_maxy
3
Standard
70
0
71
5
72
1
41
1.0
100
AcDbAlignedDimension
13
0.000000
23
0.000000
33
0.0
14
38.096847
24
0.000000
34
0.0
50
0.000000
100
AcDbRotatedDimension
0
DIMENSION
8
Layer_1
5
83
100
AcDbEntity
62
256
370
-1
6
ByLayer
1
Layer_1_width
3
Standard
70
0
71
5
72
1
41
1.0
100
AcDbAlignedDimension
13
2.433336
23
0.000000
33
0.0
14
39.899997
24
0.000000
34
0.0
50
0.000000
100
AcDbRotatedDimension
0
DIMENSION
8
Layer_1
5
83
100
AcDbEntity
62
256
370
-1
6
ByLayer
1
Layer_1_minx
3
Standard
70
0
71
5
72
1
41
1.0
100
AcDbAlignedDimension
13
2.433336
23
0.000000
33
0.0
14
0.000000
24
0.000000
34
0.0
50
0.000000
100
AcDbRotatedDimension
0
DIMENSION
8
Layer_1
5
83
100
AcDbEntity
62
256
370
-1
6
ByLayer
1
Layer_1_maxx
3
Standard
70
0
71
5
72
1
41
1.0
100
AcDbAlignedDimension
13
0.000000
23
0.000000
33
0.0
14
39.899997
24
0.000000
34
0.0
50
0.000000
100
AcDbRotatedDimension
0
DIMENSION
8
Layer_1
5
83
100
AcDbEntity
62
256
370
-1
6
ByLayer
1
Layer_1_height
3
Standard
70
0
71
5
72
1
41
1.0
100
AcDbAlignedDimension
13
0.000000
23
6.208889
33
0.0
14
0.000000
24
38.096847
34
0.0
50
90.000000
100
AcDbRotatedDimension
0
DIMENSION
8
Layer_1
5
83
100
AcDbEntity
62
256
370
-1
6
ByLayer
1
Layer_1_miny
3
Standard
70
0
71
5
72
1
41
1.0
100
AcDbAlignedDimension
13
6.208889
23
0.000000
33
0.0
14
0.000000
24
0.000000
34
0.0
50
0.000000
100
AcDbRotatedDimension
0
DIMENSION
8
Layer_1
5
83
100
AcDbEntity
62
256
370
-1
6
ByLayer
1
Layer_1_maxy
3
Standard
70
0
71
5
72
1
41
1.0
100
AcDbAlignedDimension
13
0.000000
23
0.000000
33
0.0
14
38.096847
24
0.000000
34
0.0
50
0.000000
100
AcDbRotatedDimension
62
0
0
LWPOLYLINE
100
AcDbPolyline
8
Layer_1
90
136
70
0
10
19.755556
20
8.748889
30
0.0
10
18.385073
20
11.288889
30
0.0
10
16.679241
20
10.512778
30
0.0
10
15.759095
20
10.104086
30
0.0
10
14.910868
20
9.869234
30
0.0
10
12.417778
20
9.736667
30
0.0
10
9.928935
20
9.868835
30
0.0
10
8.142686
20
10.483980
30
0.0
10
6.744624
20
11.294803
30
0.0
10
5.478145
20
12.337407
30
0.0
10
4.395431
20
13.561442
30
0.0
10
3.548665
20
14.916558
30
0.0
10
3.016558
20
16.253659
30
0.0
10
2.630707
20
17.785160
30
0.0
10
2.433336
20
19.291160
30
0.0
10
2.466666
20
20.551759
30
0.0
10
2.609962
20
21.489075
30
0.0
10
3.414302
20
20.080727
30
0.0
10
4.376312
20
18.661778
30
0.0
10
5.557278
20
17.361062
30
0.0
10
6.919594
20
16.200449
30
0.0
10
8.425650
20
15.201811
30
0.0
10
10.037837
20
14.387020
30
0.0
10
11.718547
20
13.777948
30
0.0
10
13.430171
20
13.396466
30
0.0
10
15.135101
20
13.264444
30
0.0
10
16.443246
20
13.302551
30
0.0
10
17.114671
20
13.469677
30
0.0
10
17.270111
20
13.845032
30
0.0
10
17.030300
20
14.507828
30
0.0
10
16.747744
20
14.995509
30
0.0
10
16.389268
20
15.319094
30
0.0
10
14.986384
20
15.753134
30
0.0
10
13.169563
20
16.279407
30
0.0
10
11.484787
20
17.068610
30
0.0
10
9.952652
20
18.098750
30
0.0
10
8.593756
20
19.347831
30
0.0
10
7.428695
20
20.793861
30
0.0
10
6.478068
20
22.414845
30
0.0
10
5.762471
20
24.188789
30
0.0
10
5.302501
20
26.093700
30
0.0
10
5.164122
20
27.491889
30
0.0
10
5.202547
20
28.908698
30
0.0
10
5.411067
20
30.323696
30
0.0
10
5.782977
20
31.716456
30
0.0
10
6.311570
20
33.066548
30
0.0
10
6.990138
20
34.353543
30
0.0
10
7.811975
20
35.557014
30
0.0
10
8.770373
20
36.656531
30
0.0
10
10.355105
20
38.018938
30
0.0
10
10.658466
20
38.043516
30
0.0
10
10.589402
20
37.606111
30
0.0
10
9.999663
20
35.277778
30
0.0
10
9.692298
20
33.227700
30
0.0
10
9.646738
20
31.184810
30
0.0
10
9.857451
20
29.167499
30
0.0
10
10.318907
20
27.194158
30
0.0
10
11.025574
20
25.283179
30
0.0
10
11.971923
20
23.452955
30
0.0
10
13.152422
20
21.721875
30
0.0
10
14.561540
20
20.108333
30
0.0
10
16.061485
20
18.663267
30
0.0
10
16.844678
20
18.062222
30
0.0
10
17.611330
20
19.261200
30
0.0
10
19.071506
20
22.143850
30
0.0
10
21.166667
20
26.225478
30
0.0
10
23.261827
20
22.143850
30
0.0
10
24.722004
20
19.261200
30
0.0
10
25.488655
20
18.062222
30
0.0
10
26.271848
20
18.663267
30
0.0
10
27.771794
20
20.108333
30
0.0
10
29.180911
20
21.721875
30
0.0
10
30.361410
20
23.452955
30
0.0
10
31.307758
20
25.283179
30
0.0
10
32.014426
20
27.194158
30
0.0
10
32.475882
20
29.167499
30
0.0
10
32.686595
20
31.184810
30
0.0
10
32.641035
20
33.227700
30
0.0
10
32.333669
20
35.277778
30
0.0
10
31.743932
20
37.606111
30
0.0
10
31.656040
20
38.071198
30
0.0
10
31.901385
20
38.096847
30
0.0
10
33.065900
20
37.154064
30
0.0
10
34.585700
20
35.426216
30
0.0
10
35.809005
20
33.561760
30
0.0
10
36.403720
20
32.173378
30
0.0
10
36.820191
20
30.761870
30
0.0
10
37.064509
20
29.340060
30
0.0
10
37.142767
20
27.920769
30
0.0
10
37.061058
20
26.516821
30
0.0
10
36.825475
20
25.141036
30
0.0
10
36.442110
20
23.806238
30
0.0
10
35.917056
20
22.525249
30
0.0
10
35.256406
20
21.310892
30
0.0
10
34.466252
20
20.175987
30
0.0
10
33.552688
20
19.133359
30
0.0
10
32.521805
20
18.195828
30
0.0
10
31.379698
20
17.376218
30
0.0
10
30.132457
20
16.687351
30
0.0
10
28.786177
20
16.142049
30
0.0
10
27.346950
20
15.753134
30
0.0
10
25.944065
20
15.319094
30
0.0
10
25.585590
20
14.995509
30
0.0
10
25.303034
20
14.507828
30
0.0
10
25.063222
20
13.845032
30
0.0
10
25.218662
20
13.469677
30
0.0
10
25.890087
20
13.302551
30
0.0
10
27.198232
20
13.264444
30
0.0
10
28.903162
20
13.396466
30
0.0
10
30.614786
20
13.777948
30
0.0
10
32.295496
20
14.387020
30
0.0
10
33.907683
20
15.201811
30
0.0
10
35.413739
20
16.200449
30
0.0
10
36.776055
20
17.361062
30
0.0
10
37.957022
20
18.661778
30
0.0
10
38.919031
20
20.080727
30
0.0
10
39.723370
20
21.489075
30
0.0
10
39.866666
20
20.551759
30
0.0
10
39.899997
20
19.291160
30
0.0
10
39.702626
20
17.785160
30
0.0
10
39.316776
20
16.253659
30
0.0
10
38.784668
20
14.916558
30
0.0
10
37.937903
20
13.561442
30
0.0
10
36.855188
20
12.337407
30
0.0
10
35.588708
20
11.294803
30
0.0
10
34.190646
20
10.483980
30
0.0
10
32.404399
20
9.868835
30
0.0
10
29.915556
20
9.736667
30
0.0
10
27.422465
20
9.869234
30
0.0
10
26.574238
20
10.104086
30
0.0
10
25.654093
20
10.512778
30
0.0
10
23.948260
20
11.288889
30
0.0
10
22.577778
20
8.748889
30
0.0
10
21.166667
20
6.208889
30
0.0
10
19.755556
20
8.748889
30
0.0
10
19.755556
20
8.748889
30
0.0
  0
ENDSEC
  0
SECTION
  2
OBJECTS
  0
DICTIONARY
  5
C
330
0
100
AcDbDictionary
  3
ACAD_GROUP
350
D
  3
ACAD_MLINESTYLE
350
17
  0
DICTIONARY
  5
D
330
C
100
AcDbDictionary
  0
DICTIONARY
  5
1A
330
C
100
AcDbDictionary
  0
DICTIONARY
  5
17
330
C
100
AcDbDictionary
  3
STANDARD
350
18
  0
DICTIONARY
  5
19
330
C
100
AcDbDictionary
  0
ENDSEC
  0
EOF
