999
Inkscape export via OpenSCAD DXF Export
  0
SECTION
  2
HEADER
  9
$ACADVER
  1
AC1014
  9
$HANDSEED
  5
FFFF
  9
$MEASUREMENT
 70
     1
  0
ENDSEC
  0
SECTION
  2
TABLES
  0
TABLE
  2
VPORT
  5
8
330
0
100
AcDbSymbolTable
 70
     4
  0
VPORT
  5
2E
330
8
100
AcDbSymbolTableRecord
100
AcDbViewportTableRecord
  2
*ACTIVE
 70
     0
 10
0.0
 20
0.0
 11
1.0
 21
1.0
 12
210.0
 22
148.5
 13
0.0
 23
0.0
 14
10.0
 24
10.0
 15
10.0
 25
10.0
 16
0.0
 26
0.0
 36
1.0
 17
0.0
 27
0.0
 37
0.0
 40
341.0
 41
1.24
 42
50.0
 43
0.0
 44
0.0
 50
0.0
 51
0.0
 71
     0
 72
   100
 73
     1
 74
     3
 75
     0
 76
     0
 77
     0
 78
     0
  0
ENDTAB
  0
TABLE
  2
LTYPE
  5
5
330
0
100
AcDbSymbolTable
 70
     1
  0
LTYPE
  5
14
330
5
100
AcDbSymbolTableRecord
100
AcDbLinetypeTableRecord
  2
BYBLOCK
 70
     0
  3

 72
    65
 73
     0
 40
0.0
  0
LTYPE
  5
15
330
5
100
AcDbSymbolTableRecord
100
AcDbLinetypeTableRecord
  2
BYLAYER
 70
     0
  3

 72
    65
 73
     0
 40
0.0
  0
LTYPE
  5
16
330
5
100
AcDbSymbolTableRecord
100
AcDbLinetypeTableRecord
  2
CONTINUOUS
 70
     0
  3
Solid line
 72
    65
 73
     0
 40
0.0
  0
ENDTAB
  0
TABLE
0
TABLE
2
LAYER
5
2
330
0
100
AcDbSymbolTable
70
1
0
LAYER
5
10
330
2
100
AcDbSymbolTableRecord
100
AcDbLayerTableRecord
2
Layer_1
70
0
62
7
6
CONTINUOUS
0
ENDTAB
0
ENDSEC
  0
ENDTAB
  0
TABLE
  2
STYLE
  5
3
330
0
100
AcDbSymbolTable
 70
     1
  0
STYLE
  5
11
330
3
100
AcDbSymbolTableRecord
100
AcDbTextStyleTableRecord
  2
STANDARD
 70
     0
 40
0.0
 41
1.0
 50
0.0
 71
     0
 42
2.5
  3
txt
  4

  0
ENDTAB
  0
TABLE
  2
VIEW
  5
6
330
0
100
AcDbSymbolTable
 70
     0
  0
ENDTAB
  0
TABLE
  2
UCS
  5
7
330
0
100
AcDbSymbolTable
 70
     0
  0
ENDTAB
  0
TABLE
  2
APPID
  5
9
330
0
100
AcDbSymbolTable
 70
     2
  0
APPID
  5
12
330
9
100
AcDbSymbolTableRecord
100
AcDbRegAppTableRecord
  2
ACAD
 70
     0
  0
ENDTAB
  0
TABLE
  2
DIMSTYLE
  5
A
330
0
100
AcDbSymbolTable
 70
     1
  0
DIMSTYLE
105
27
330
A
100
AcDbSymbolTableRecord
100
AcDbDimStyleTableRecord
  2
ISO-25
 70
     0
  3

  4

  5

  6

  7

 40
1.0
 41
2.5
 42
0.625
 43
3.75
 44
1.25
 45
0.0
 46
0.0
 47
0.0
 48
0.0
140
2.5
141
2.5
142
0.0
143
0.03937007874016
144
1.0
145
0.0
146
1.0
147
0.625
 71
     0
 72
     0
 73
     0
 74
     0
 75
     0
 76
     0
 77
     1
 78
     8
170
     0
171
     3
172
     1
173
     0
174
     0
175
     0
176
     0
177
     0
178
     0
270
     2
271
     2
272
     2
273
     2
274
     3
340
11
275
     0
280
     0
281
     0
282
     0
283
     0
284
     8
285
     0
286
     0
287
     3
288
     0
  0
ENDTAB
  0
TABLE
  2
BLOCK_RECORD
  5
1
330
0
100
AcDbSymbolTable
 70
     1
  0
BLOCK_RECORD
  5
1F
330
1
100
AcDbSymbolTableRecord
100
AcDbBlockTableRecord
  2
*MODEL_SPACE
  0
BLOCK_RECORD
  5
1B
330
1
100
AcDbSymbolTableRecord
100
AcDbBlockTableRecord
  2
*PAPER_SPACE
  0
ENDTAB
  0
ENDSEC
  0
SECTION
  2
BLOCKS
  0
BLOCK
  5
20
330
1F
100
AcDbEntity
  8
0
100
AcDbBlockBegin
  2
*MODEL_SPACE
 70
     0
 10
0.0
 20
0.0
 30
0.0
  3
*MODEL_SPACE
  1

  0
ENDBLK
  5
21
330
1F
100
AcDbEntity
  8
0
100
AcDbBlockEnd
  0
BLOCK
  5
1C
330
1B
100
AcDbEntity
 67
     1
  8
0
100
AcDbBlockBegin
  2
*PAPER_SPACE
  1

  0
ENDBLK
  5
1D
330
1B
100
AcDbEntity
 67
     1
  8
0
100
AcDbBlockEnd
  0
ENDSEC
  0
SECTION
  2
ENTITIES
0
DIMENSION
5
83
100
AcDbEntity
62
256
370
-1
6
ByLayer
1
total_width
3
Standard
70
0
71
5
72
1
41
1.0
100
AcDbAlignedDimension
13
0.953252
23
0.000000
33
0.0
14
53.177073
24
0.000000
34
0.0
50
0.000000
100
AcDbRotatedDimension
0
DIMENSION
5
83
100
AcDbEntity
62
256
370
-1
6
ByLayer
1
total_minx
3
Standard
70
0
71
5
72
1
41
1.0
100
AcDbAlignedDimension
13
0.953252
23
0.000000
33
0.0
14
0.000000
24
0.000000
34
0.0
50
0.000000
100
AcDbRotatedDimension
0
DIMENSION
5
83
100
AcDbEntity
62
256
370
-1
6
ByLayer
1
total_maxx
3
Standard
70
0
71
5
72
1
41
1.0
100
AcDbAlignedDimension
13
0.000000
23
0.000000
33
0.0
14
53.177073
24
0.000000
34
0.0
50
0.000000
100
AcDbRotatedDimension
0
DIMENSION
5
83
100
AcDbEntity
62
256
370
-1
6
ByLayer
1
total_height
3
Standard
70
0
71
5
72
1
41
1.0
100
AcDbAlignedDimension
13
0.000000
23
-0.010070
33
0.0
14
0.000000
24
56.036041
34
0.0
50
90.000000
100
AcDbRotatedDimension
0
DIMENSION
5
83
100
AcDbEntity
62
256
370
-1
6
ByLayer
1
total_miny
3
Standard
70
0
71
5
72
1
41
1.0
100
AcDbAlignedDimension
13
-0.010070
23
0.000000
33
0.0
14
0.000000
24
0.000000
34
0.0
50
0.000000
100
AcDbRotatedDimension
0
DIMENSION
5
83
100
AcDbEntity
62
256
370
-1
6
ByLayer
1
total_maxy
3
Standard
70
0
71
5
72
1
41
1.0
100
AcDbAlignedDimension
13
0.000000
23
0.000000
33
0.0
14
56.036041
24
0.000000
34
0.0
50
0.000000
100
AcDbRotatedDimension
0
DIMENSION
8
Layer_1
5
83
100
AcDbEntity
62
256
370
-1
6
ByLayer
1
Layer_1_width
3
Standard
70
0
71
5
72
1
41
1.0
100
AcDbAlignedDimension
13
0.953252
23
0.000000
33
0.0
14
53.177073
24
0.000000
34
0.0
50
0.000000
100
AcDbRotatedDimension
0
DIMENSION
8
Layer_1
5
83
100
AcDbEntity
62
256
370
-1
6
ByLayer
1
Layer_1_minx
3
Standard
70
0
71
5
72
1
41
1.0
100
AcDbAlignedDimension
13
0.953252
23
0.000000
33
0.0
14
0.000000
24
0.000000
34
0.0
50
0.000000
100
AcDbRotatedDimension
0
DIMENSION
8
Layer_1
5
83
100
AcDbEntity
62
256
370
-1
6
ByLayer
1
Layer_1_maxx
3
Standard
70
0
71
5
72
1
41
1.0
100
AcDbAlignedDimension
13
0.000000
23
0.000000
33
0.0
14
53.177073
24
0.000000
34
0.0
50
0.000000
100
AcDbRotatedDimension
0
DIMENSION
8
Layer_1
5
83
100
AcDbEntity
62
256
370
-1
6
ByLayer
1
Layer_1_height
3
Standard
70
0
71
5
72
1
41
1.0
100
AcDbAlignedDimension
13
0.000000
23
-0.010070
33
0.0
14
0.000000
24
56.036041
34
0.0
50
90.000000
100
AcDbRotatedDimension
0
DIMENSION
8
Layer_1
5
83
100
AcDbEntity
62
256
370
-1
6
ByLayer
1
Layer_1_miny
3
Standard
70
0
71
5
72
1
41
1.0
100
AcDbAlignedDimension
13
-0.010070
23
0.000000
33
0.0
14
0.000000
24
0.000000
34
0.0
50
0.000000
100
AcDbRotatedDimension
0
DIMENSION
8
Layer_1
5
83
100
AcDbEntity
62
256
370
-1
6
ByLayer
1
Layer_1_maxy
3
Standard
70
0
71
5
72
1
41
1.0
100
AcDbAlignedDimension
13
0.000000
23
0.000000
33
0.0
14
56.036041
24
0.000000
34
0.0
50
0.000000
100
AcDbRotatedDimension
62
0
0
LWPOLYLINE
100
AcDbPolyline
8
Layer_1
90
60
70
0
10
22.808397
20
1.677501
30
0.0
10
19.979039
20
3.306742
30
0.0
10
17.609339
20
4.885030
30
0.0
10
15.154254
20
6.948964
30
0.0
10
12.482674
20
9.542485
30
0.0
10
9.893901
20
12.357841
30
0.0
10
7.687236
20
15.087281
30
0.0
10
6.245389
20
17.186081
30
0.0
10
4.888096
20
19.449478
30
0.0
10
2.608124
20
24.047680
30
0.0
10
1.775918
20
26.171289
30
0.0
10
1.209215
20
28.037108
30
0.0
10
0.953252
20
29.539540
30
0.0
10
1.053266
20
30.572988
30
0.0
10
1.368225
20
30.901776
30
0.0
10
2.222965
20
31.091840
30
0.0
10
6.899894
20
31.200485
30
0.0
10
12.505728
20
31.200485
30
0.0
10
13.275680
20
33.364189
30
0.0
10
15.442467
20
39.479004
30
0.0
10
16.899692
20
43.301097
30
0.0
10
18.470851
20
46.890087
30
0.0
10
20.060469
20
50.042342
30
0.0
10
21.573069
20
52.554231
30
0.0
10
22.876923
20
54.397861
30
0.0
10
23.813879
20
55.450334
30
0.0
10
24.628906
20
55.925207
30
0.0
10
25.566972
20
56.036041
30
0.0
10
26.322360
20
55.920291
30
0.0
10
27.150916
20
55.458928
30
0.0
10
29.961575
20
52.814687
30
0.0
10
32.492488
20
50.087486
30
0.0
10
34.149634
20
48.054204
30
0.0
10
35.899697
20
44.999940
30
0.0
10
37.160511
20
41.777846
30
0.0
10
37.925524
20
38.409244
30
0.0
10
38.188183
20
34.915450
30
0.0
10
38.331051
20
32.855659
30
0.0
10
38.525871
20
32.276105
30
0.0
10
38.822263
20
31.905079
30
0.0
10
39.453391
20
31.657511
30
0.0
10
40.764111
20
31.498524
30
0.0
10
46.254114
20
31.388633
30
0.0
10
53.058421
20
31.388633
30
0.0
10
53.177073
20
30.155773
30
0.0
10
53.095798
20
29.309728
30
0.0
10
52.629490
20
28.085964
30
0.0
10
50.064374
20
23.481665
30
0.0
10
46.990972
20
18.569739
30
0.0
10
43.985604
20
14.324217
30
0.0
10
40.945526
20
10.609819
30
0.0
10
37.767994
20
7.291262
30
0.0
10
34.563878
20
4.434010
30
0.0
10
31.489360
20
2.106861
30
0.0
10
28.890011
20
0.546579
30
0.0
10
27.876514
20
0.128003
30
0.0
10
27.111398
20
-0.010070
30
0.0
10
25.374538
20
0.494740
30
0.0
10
22.808397
20
1.677501
30
0.0
10
22.808397
20
1.677501
30
0.0
62
0
0
LWPOLYLINE
100
AcDbPolyline
8
Layer_1
90
51
70
0
10
32.173977
20
5.266896
30
0.0
10
34.721533
20
7.364131
30
0.0
10
37.486670
20
10.043651
30
0.0
10
40.221520
20
13.049242
30
0.0
10
42.678212
20
16.124693
30
0.0
10
44.851120
20
19.326075
30
0.0
10
47.610728
20
23.674243
30
0.0
10
49.981722
20
27.596933
30
0.0
10
50.988790
20
29.521876
30
0.0
10
49.282649
20
29.589686
30
0.0
10
45.180651
20
29.466552
30
0.0
10
40.367815
20
29.383747
30
0.0
10
38.805262
20
29.542732
30
0.0
10
37.701139
20
29.887387
30
0.0
10
36.977332
20
30.456773
30
0.0
10
36.555732
20
31.289946
30
0.0
10
36.358225
20
32.425968
30
0.0
10
36.306701
20
33.903895
30
0.0
10
36.197995
20
36.215123
30
0.0
10
35.881060
20
38.428123
30
0.0
10
35.350172
20
40.556340
30
0.0
10
34.599608
20
42.613219
30
0.0
10
33.623645
20
44.612203
30
0.0
10
32.416561
20
46.566738
30
0.0
10
30.972633
20
48.490268
30
0.0
10
29.286138
20
50.396238
30
0.0
10
26.857643
20
52.784793
30
0.0
10
25.538427
20
53.778263
30
0.0
10
25.144898
20
53.555101
30
0.0
10
24.572712
20
52.931961
30
0.0
10
23.066918
20
50.763818
30
0.0
10
21.370145
20
47.829983
30
0.0
10
19.831493
20
44.686605
30
0.0
10
18.140031
20
40.479481
30
0.0
10
16.250663
20
35.329154
30
0.0
10
14.220360
20
29.507152
30
0.0
10
8.664787
20
29.402761
30
0.0
10
3.109213
20
29.298370
30
0.0
10
3.337951
20
28.085723
30
0.0
10
4.139902
20
25.822677
30
0.0
10
5.704386
20
22.592277
30
0.0
10
7.632707
20
19.155558
30
0.0
10
9.526171
20
16.273554
30
0.0
10
12.797461
20
12.285715
30
0.0
10
16.305640
20
8.825387
30
0.0
10
20.046542
20
5.896241
30
0.0
10
24.016000
20
3.501949
30
0.0
10
27.089588
20
1.901563
30
0.0
10
28.408819
20
2.691099
30
0.0
10
32.173977
20
5.266896
30
0.0
10
32.173977
20
5.266896
30
0.0
62
0
0
LWPOLYLINE
100
AcDbPolyline
8
Layer_1
90
21
70
0
10
29.163605
20
9.199660
30
0.0
10
30.059605
20
11.175215
30
0.0
10
32.510973
20
16.901225
30
0.0
10
33.985177
20
20.202098
30
0.0
10
35.345401
20
22.589871
30
0.0
10
36.795874
20
24.129134
30
0.0
10
38.563351
20
25.300990
30
0.0
10
40.533882
20
26.046977
30
0.0
10
42.593522
20
26.308631
30
0.0
10
44.586782
20
26.308631
30
0.0
10
43.294145
20
24.615188
30
0.0
10
41.683927
20
22.132508
30
0.0
10
39.627742
20
18.541543
30
0.0
10
37.695543
20
15.287416
30
0.0
10
35.811542
20
12.755694
30
0.0
10
33.951567
20
10.918169
30
0.0
10
32.091447
20
9.746632
30
0.0
10
30.044457
20
9.052796
30
0.0
10
29.402430
20
9.010710
30
0.0
10
29.163605
20
9.199660
30
0.0
10
29.163605
20
9.199660
30
0.0
62
0
0
LWPOLYLINE
100
AcDbPolyline
8
Layer_1
90
28
70
0
10
17.716139
20
11.369926
30
0.0
10
16.091201
20
13.502104
30
0.0
10
14.339626
20
16.355850
30
0.0
10
12.701975
20
19.205499
30
0.0
10
11.282841
20
21.362815
30
0.0
10
10.071154
20
22.843102
30
0.0
10
9.055847
20
23.661664
30
0.0
10
8.374433
20
24.115365
30
0.0
10
8.091013
20
24.481073
30
0.0
10
8.471629
20
24.966596
30
0.0
10
9.433602
20
25.436716
30
0.0
10
10.707115
20
25.791831
30
0.0
10
12.022353
20
25.932336
30
0.0
10
12.962538
20
25.851113
30
0.0
10
13.829503
20
25.585513
30
0.0
10
14.654210
20
25.102642
30
0.0
10
15.467626
20
24.369605
30
0.0
10
17.184437
20
22.021456
30
0.0
10
19.227654
20
18.277908
30
0.0
10
21.268992
20
14.414407
30
0.0
10
22.662680
20
12.078733
30
0.0
10
23.463088
20
10.718594
30
0.0
10
22.112926
20
10.038602
30
0.0
10
20.469025
20
9.751596
30
0.0
10
19.807262
20
9.827616
30
0.0
10
19.184847
20
10.089177
30
0.0
10
17.716139
20
11.369926
30
0.0
10
17.716139
20
11.369926
30
0.0
62
0
0
LWPOLYLINE
100
AcDbPolyline
8
Layer_1
90
43
70
0
10
23.747488
20
19.708354
30
0.0
10
22.366897
20
21.406856
30
0.0
10
21.269427
20
23.435792
30
0.0
10
20.460358
20
25.756488
30
0.0
10
19.944968
20
28.330267
30
0.0
10
19.728536
20
31.118452
30
0.0
10
19.816340
20
34.082368
30
0.0
10
20.213659
20
37.183339
30
0.0
10
20.925771
20
40.382688
30
0.0
10
21.339542
20
41.919314
30
0.0
10
22.096466
20
40.416937
30
0.0
10
22.866326
20
39.080919
30
0.0
10
23.651080
20
38.075359
30
0.0
10
24.411696
20
37.441660
30
0.0
10
25.109141
20
37.221226
30
0.0
10
25.498044
20
37.329510
30
0.0
10
25.857856
20
37.642042
30
0.0
10
26.464431
20
38.805933
30
0.0
10
26.877306
20
40.565063
30
0.0
10
27.044921
20
42.771597
30
0.0
10
27.141397
20
44.698351
30
0.0
10
27.328613
20
45.499744
30
0.0
10
28.025092
20
45.004285
30
0.0
10
29.062087
20
43.754056
30
0.0
10
30.176862
20
42.103277
30
0.0
10
31.106677
20
40.406170
30
0.0
10
32.033130
20
37.919689
30
0.0
10
32.744560
20
35.181170
30
0.0
10
33.109463
20
32.176528
30
0.0
10
33.286746
20
28.626982
30
0.0
10
33.251652
20
25.666025
30
0.0
10
33.146727
20
24.760485
30
0.0
10
32.979425
20
24.427152
30
0.0
10
30.428297
20
25.576059
30
0.0
10
28.679793
20
26.320246
30
0.0
10
27.604186
20
26.496100
30
0.0
10
27.004447
20
26.023445
30
0.0
10
26.508459
20
25.070129
30
0.0
10
26.093144
20
23.574125
30
0.0
10
25.735424
20
21.473406
30
0.0
10
25.217605
20
18.475396
30
0.0
10
23.747488
20
19.708354
30
0.0
10
23.747488
20
19.708354
30
0.0
  0
ENDSEC
  0
SECTION
  2
OBJECTS
  0
DICTIONARY
  5
C
330
0
100
AcDbDictionary
  3
ACAD_GROUP
350
D
  3
ACAD_MLINESTYLE
350
17
  0
DICTIONARY
  5
D
330
C
100
AcDbDictionary
  0
DICTIONARY
  5
1A
330
C
100
AcDbDictionary
  0
DICTIONARY
  5
17
330
C
100
AcDbDictionary
  3
STANDARD
350
18
  0
DICTIONARY
  5
19
330
C
100
AcDbDictionary
  0
ENDSEC
  0
EOF
