999
Inkscape export via OpenSCAD DXF Export
  0
SECTION
  2
HEADER
  9
$ACADVER
  1
AC1014
  9
$HANDSEED
  5
FFFF
  9
$MEASUREMENT
 70
     1
  0
ENDSEC
  0
SECTION
  2
TABLES
  0
TABLE
  2
VPORT
  5
8
330
0
100
AcDbSymbolTable
 70
     4
  0
VPORT
  5
2E
330
8
100
AcDbSymbolTableRecord
100
AcDbViewportTableRecord
  2
*ACTIVE
 70
     0
 10
0.0
 20
0.0
 11
1.0
 21
1.0
 12
210.0
 22
148.5
 13
0.0
 23
0.0
 14
10.0
 24
10.0
 15
10.0
 25
10.0
 16
0.0
 26
0.0
 36
1.0
 17
0.0
 27
0.0
 37
0.0
 40
341.0
 41
1.24
 42
50.0
 43
0.0
 44
0.0
 50
0.0
 51
0.0
 71
     0
 72
   100
 73
     1
 74
     3
 75
     0
 76
     0
 77
     0
 78
     0
  0
ENDTAB
  0
TABLE
  2
LTYPE
  5
5
330
0
100
AcDbSymbolTable
 70
     1
  0
LTYPE
  5
14
330
5
100
AcDbSymbolTableRecord
100
AcDbLinetypeTableRecord
  2
BYBLOCK
 70
     0
  3

 72
    65
 73
     0
 40
0.0
  0
LTYPE
  5
15
330
5
100
AcDbSymbolTableRecord
100
AcDbLinetypeTableRecord
  2
BYLAYER
 70
     0
  3

 72
    65
 73
     0
 40
0.0
  0
LTYPE
  5
16
330
5
100
AcDbSymbolTableRecord
100
AcDbLinetypeTableRecord
  2
CONTINUOUS
 70
     0
  3
Solid line
 72
    65
 73
     0
 40
0.0
  0
ENDTAB
  0
TABLE
0
TABLE
2
LAYER
5
2
330
0
100
AcDbSymbolTable
70
1
0
LAYER
5
10
330
2
100
AcDbSymbolTableRecord
100
AcDbLayerTableRecord
2
Layer_1
70
0
62
7
6
CONTINUOUS
0
ENDTAB
0
ENDSEC
  0
ENDTAB
  0
TABLE
  2
STYLE
  5
3
330
0
100
AcDbSymbolTable
 70
     1
  0
STYLE
  5
11
330
3
100
AcDbSymbolTableRecord
100
AcDbTextStyleTableRecord
  2
STANDARD
 70
     0
 40
0.0
 41
1.0
 50
0.0
 71
     0
 42
2.5
  3
txt
  4

  0
ENDTAB
  0
TABLE
  2
VIEW
  5
6
330
0
100
AcDbSymbolTable
 70
     0
  0
ENDTAB
  0
TABLE
  2
UCS
  5
7
330
0
100
AcDbSymbolTable
 70
     0
  0
ENDTAB
  0
TABLE
  2
APPID
  5
9
330
0
100
AcDbSymbolTable
 70
     2
  0
APPID
  5
12
330
9
100
AcDbSymbolTableRecord
100
AcDbRegAppTableRecord
  2
ACAD
 70
     0
  0
ENDTAB
  0
TABLE
  2
DIMSTYLE
  5
A
330
0
100
AcDbSymbolTable
 70
     1
  0
DIMSTYLE
105
27
330
A
100
AcDbSymbolTableRecord
100
AcDbDimStyleTableRecord
  2
ISO-25
 70
     0
  3

  4

  5

  6

  7

 40
1.0
 41
2.5
 42
0.625
 43
3.75
 44
1.25
 45
0.0
 46
0.0
 47
0.0
 48
0.0
140
2.5
141
2.5
142
0.0
143
0.03937007874016
144
1.0
145
0.0
146
1.0
147
0.625
 71
     0
 72
     0
 73
     0
 74
     0
 75
     0
 76
     0
 77
     1
 78
     8
170
     0
171
     3
172
     1
173
     0
174
     0
175
     0
176
     0
177
     0
178
     0
270
     2
271
     2
272
     2
273
     2
274
     3
340
11
275
     0
280
     0
281
     0
282
     0
283
     0
284
     8
285
     0
286
     0
287
     3
288
     0
  0
ENDTAB
  0
TABLE
  2
BLOCK_RECORD
  5
1
330
0
100
AcDbSymbolTable
 70
     1
  0
BLOCK_RECORD
  5
1F
330
1
100
AcDbSymbolTableRecord
100
AcDbBlockTableRecord
  2
*MODEL_SPACE
  0
BLOCK_RECORD
  5
1B
330
1
100
AcDbSymbolTableRecord
100
AcDbBlockTableRecord
  2
*PAPER_SPACE
  0
ENDTAB
  0
ENDSEC
  0
SECTION
  2
BLOCKS
  0
BLOCK
  5
20
330
1F
100
AcDbEntity
  8
0
100
AcDbBlockBegin
  2
*MODEL_SPACE
 70
     0
 10
0.0
 20
0.0
 30
0.0
  3
*MODEL_SPACE
  1

  0
ENDBLK
  5
21
330
1F
100
AcDbEntity
  8
0
100
AcDbBlockEnd
  0
BLOCK
  5
1C
330
1B
100
AcDbEntity
 67
     1
  8
0
100
AcDbBlockBegin
  2
*PAPER_SPACE
  1

  0
ENDBLK
  5
1D
330
1B
100
AcDbEntity
 67
     1
  8
0
100
AcDbBlockEnd
  0
ENDSEC
  0
SECTION
  2
ENTITIES
0
DIMENSION
5
83
100
AcDbEntity
62
256
370
-1
6
ByLayer
1
total_width
3
Standard
70
0
71
5
72
1
41
1.0
100
AcDbAlignedDimension
13
1.583800
23
0.000000
33
0.0
14
40.574087
24
0.000000
34
0.0
50
0.000000
100
AcDbRotatedDimension
0
DIMENSION
5
83
100
AcDbEntity
62
256
370
-1
6
ByLayer
1
total_minx
3
Standard
70
0
71
5
72
1
41
1.0
100
AcDbAlignedDimension
13
1.583800
23
0.000000
33
0.0
14
0.000000
24
0.000000
34
0.0
50
0.000000
100
AcDbRotatedDimension
0
DIMENSION
5
83
100
AcDbEntity
62
256
370
-1
6
ByLayer
1
total_maxx
3
Standard
70
0
71
5
72
1
41
1.0
100
AcDbAlignedDimension
13
0.000000
23
0.000000
33
0.0
14
40.574087
24
0.000000
34
0.0
50
0.000000
100
AcDbRotatedDimension
0
DIMENSION
5
83
100
AcDbEntity
62
256
370
-1
6
ByLayer
1
total_height
3
Standard
70
0
71
5
72
1
41
1.0
100
AcDbAlignedDimension
13
0.000000
23
1.797872
33
0.0
14
0.000000
24
24.735588
34
0.0
50
90.000000
100
AcDbRotatedDimension
0
DIMENSION
5
83
100
AcDbEntity
62
256
370
-1
6
ByLayer
1
total_miny
3
Standard
70
0
71
5
72
1
41
1.0
100
AcDbAlignedDimension
13
1.797872
23
0.000000
33
0.0
14
0.000000
24
0.000000
34
0.0
50
0.000000
100
AcDbRotatedDimension
0
DIMENSION
5
83
100
AcDbEntity
62
256
370
-1
6
ByLayer
1
total_maxy
3
Standard
70
0
71
5
72
1
41
1.0
100
AcDbAlignedDimension
13
0.000000
23
0.000000
33
0.0
14
24.735588
24
0.000000
34
0.0
50
0.000000
100
AcDbRotatedDimension
0
DIMENSION
8
Layer_1
5
83
100
AcDbEntity
62
256
370
-1
6
ByLayer
1
Layer_1_width
3
Standard
70
0
71
5
72
1
41
1.0
100
AcDbAlignedDimension
13
1.583800
23
0.000000
33
0.0
14
40.574087
24
0.000000
34
0.0
50
0.000000
100
AcDbRotatedDimension
0
DIMENSION
8
Layer_1
5
83
100
AcDbEntity
62
256
370
-1
6
ByLayer
1
Layer_1_minx
3
Standard
70
0
71
5
72
1
41
1.0
100
AcDbAlignedDimension
13
1.583800
23
0.000000
33
0.0
14
0.000000
24
0.000000
34
0.0
50
0.000000
100
AcDbRotatedDimension
0
DIMENSION
8
Layer_1
5
83
100
AcDbEntity
62
256
370
-1
6
ByLayer
1
Layer_1_maxx
3
Standard
70
0
71
5
72
1
41
1.0
100
AcDbAlignedDimension
13
0.000000
23
0.000000
33
0.0
14
40.574087
24
0.000000
34
0.0
50
0.000000
100
AcDbRotatedDimension
0
DIMENSION
8
Layer_1
5
83
100
AcDbEntity
62
256
370
-1
6
ByLayer
1
Layer_1_height
3
Standard
70
0
71
5
72
1
41
1.0
100
AcDbAlignedDimension
13
0.000000
23
1.797872
33
0.0
14
0.000000
24
24.735588
34
0.0
50
90.000000
100
AcDbRotatedDimension
0
DIMENSION
8
Layer_1
5
83
100
AcDbEntity
62
256
370
-1
6
ByLayer
1
Layer_1_miny
3
Standard
70
0
71
5
72
1
41
1.0
100
AcDbAlignedDimension
13
1.797872
23
0.000000
33
0.0
14
0.000000
24
0.000000
34
0.0
50
0.000000
100
AcDbRotatedDimension
0
DIMENSION
8
Layer_1
5
83
100
AcDbEntity
62
256
370
-1
6
ByLayer
1
Layer_1_maxy
3
Standard
70
0
71
5
72
1
41
1.0
100
AcDbAlignedDimension
13
0.000000
23
0.000000
33
0.0
14
24.735588
24
0.000000
34
0.0
50
0.000000
100
AcDbRotatedDimension
62
0
0
LWPOLYLINE
100
AcDbPolyline
8
Layer_1
90
38
70
0
10
10.737230
20
2.001623
30
0.0
10
9.216153
20
2.446148
30
0.0
10
7.674574
20
3.164193
30
0.0
10
6.210618
20
4.101706
30
0.0
10
4.922414
20
5.204636
30
0.0
10
3.461770
20
6.992758
30
0.0
10
2.418454
20
8.975306
30
0.0
10
1.792464
20
11.087471
30
0.0
10
1.583800
20
13.264444
30
0.0
10
1.792464
20
15.441418
30
0.0
10
2.418454
20
17.553583
30
0.0
10
3.461770
20
19.536131
30
0.0
10
4.922414
20
21.324253
30
0.0
10
6.799363
20
22.860459
30
0.0
10
8.858282
20
23.940052
30
0.0
10
11.036366
20
24.564579
30
0.0
10
13.270809
20
24.735588
30
0.0
10
15.498805
20
24.454625
30
0.0
10
17.657549
20
23.723239
30
0.0
10
19.684236
20
22.542977
30
0.0
10
21.516061
20
20.915386
30
0.0
10
22.892258
20
19.207407
30
0.0
10
23.777206
20
17.503471
30
0.0
10
24.250098
20
15.592758
30
0.0
10
24.390130
20
13.264444
30
0.0
10
24.250400
20
10.949611
30
0.0
10
23.783168
20
9.043549
30
0.0
10
22.916365
20
7.351905
30
0.0
10
21.577926
20
5.680324
30
0.0
10
20.438699
20
4.583163
30
0.0
10
19.219603
20
3.661920
30
0.0
10
17.929735
20
2.919682
30
0.0
10
16.578192
20
2.359537
30
0.0
10
15.174073
20
1.984571
30
0.0
10
13.726475
20
1.797872
30
0.0
10
12.244494
20
1.802527
30
0.0
10
10.737230
20
2.001623
30
0.0
10
10.737230
20
2.001623
30
0.0
62
0
0
LWPOLYLINE
100
AcDbPolyline
8
Layer_1
90
35
70
0
10
15.489631
20
3.934484
30
0.0
10
16.286996
20
4.436824
30
0.0
10
17.049188
20
5.100375
30
0.0
10
18.401124
20
6.805234
30
0.0
10
19.411579
20
8.837319
30
0.0
10
19.946695
20
10.984886
30
0.0
10
20.116400
20
12.417778
30
0.0
10
18.684996
20
12.417778
30
0.0
10
17.470822
20
12.306431
30
0.0
10
17.210838
20
12.113918
30
0.0
10
17.061026
20
11.782778
30
0.0
10
16.265896
20
10.485963
30
0.0
10
15.448319
20
9.773837
30
0.0
10
14.539071
20
9.301007
30
0.0
10
13.577514
20
9.063135
30
0.0
10
12.603008
20
9.055887
30
0.0
10
11.654916
20
9.274925
30
0.0
10
10.772600
20
9.715914
30
0.0
10
9.995422
20
10.374518
30
0.0
10
9.362744
20
11.246401
30
0.0
10
8.706598
20
12.417778
30
0.0
10
5.874113
20
12.417778
30
0.0
10
3.041627
20
12.417778
30
0.0
10
3.228965
20
11.359444
30
0.0
10
3.526495
20
10.234211
30
0.0
10
4.007957
20
9.108341
30
0.0
10
5.424572
20
6.972193
30
0.0
10
7.282606
20
5.186012
30
0.0
10
8.315841
20
4.497599
30
0.0
10
9.385854
20
3.984807
30
0.0
10
10.971127
20
3.553999
30
0.0
10
12.640989
20
3.400986
30
0.0
10
14.209227
20
3.527303
30
0.0
10
15.489631
20
3.934484
30
0.0
10
15.489631
20
3.934484
30
0.0
62
0
0
LWPOLYLINE
100
AcDbPolyline
8
Layer_1
90
22
70
0
10
14.200220
20
10.757476
30
0.0
10
15.043048
20
11.382948
30
0.0
10
15.559064
20
12.172750
30
0.0
10
15.767411
20
13.050527
30
0.0
10
15.687232
20
13.939927
30
0.0
10
15.337670
20
14.764595
30
0.0
10
14.737868
20
15.448177
30
0.0
10
13.906970
20
15.914318
30
0.0
10
12.864117
20
16.086667
30
0.0
10
12.087002
20
15.846442
30
0.0
10
11.229200
20
15.268881
30
0.0
10
10.487538
20
14.381133
30
0.0
10
10.313940
20
13.264444
30
0.0
10
10.408688
20
12.534964
30
0.0
10
10.673490
20
11.886745
30
0.0
10
11.079181
20
11.338602
30
0.0
10
11.596597
20
10.909346
30
0.0
10
12.196573
20
10.617792
30
0.0
10
12.849945
20
10.482754
30
0.0
10
13.527549
20
10.523044
30
0.0
10
14.200220
20
10.757476
30
0.0
10
14.200220
20
10.757476
30
0.0
62
0
0
LWPOLYLINE
100
AcDbPolyline
8
Layer_1
90
18
70
0
10
12.014603
20
12.296826
30
0.0
10
11.667269
20
12.847974
30
0.0
10
11.590199
20
13.466344
30
0.0
10
11.774790
20
14.055327
30
0.0
10
12.212439
20
14.518313
30
0.0
10
12.866775
20
14.779145
30
0.0
10
13.507723
20
14.746514
30
0.0
10
14.053541
20
14.443536
30
0.0
10
14.422484
20
13.893328
30
0.0
10
14.527543
20
13.351231
30
0.0
10
14.442741
20
12.858036
30
0.0
10
14.205000
20
12.438227
30
0.0
10
13.851248
20
12.116284
30
0.0
10
13.418407
20
11.916690
30
0.0
10
12.943403
20
11.863928
30
0.0
10
12.463160
20
11.982479
30
0.0
10
12.014603
20
12.296826
30
0.0
10
12.014603
20
12.296826
30
0.0
62
0
0
LWPOLYLINE
100
AcDbPolyline
8
Layer_1
90
20
70
0
10
6.198888
20
15.868058
30
0.0
10
6.778252
20
17.955767
30
0.0
10
7.632043
20
19.741433
30
0.0
10
8.752673
20
21.212542
30
0.0
10
10.132556
20
22.356580
30
0.0
10
10.921589
20
22.935274
30
0.0
10
10.947138
20
23.035059
30
0.0
10
10.724444
20
23.005987
30
0.0
10
9.365560
20
22.526991
30
0.0
10
8.083157
20
21.858567
30
0.0
10
6.899406
20
21.023919
30
0.0
10
5.836480
20
20.046251
30
0.0
10
4.916550
20
18.948766
30
0.0
10
4.161787
20
17.754667
30
0.0
10
3.594363
20
16.487159
30
0.0
10
3.236449
20
15.169444
30
0.0
10
3.041627
20
14.111111
30
0.0
10
4.447428
20
14.111111
30
0.0
10
5.853230
20
14.111111
30
0.0
10
6.198888
20
15.868058
30
0.0
62
0
0
LWPOLYLINE
100
AcDbPolyline
8
Layer_1
90
53
70
0
10
25.588148
20
5.268148
30
0.0
10
25.400000
20
7.667037
30
0.0
10
25.400000
20
9.877778
30
0.0
10
29.316556
20
9.877778
30
0.0
10
31.775915
20
9.924685
30
0.0
10
33.185535
20
10.104864
30
0.0
10
33.757566
20
10.477495
30
0.0
10
33.704160
20
11.101763
30
0.0
10
33.504263
20
11.325828
30
0.0
10
33.043940
20
11.476163
30
0.0
10
30.947625
20
11.631424
30
0.0
10
28.363333
20
11.712222
30
0.0
10
28.279601
20
13.464931
30
0.0
10
28.195869
20
15.217640
30
0.0
10
30.678490
20
15.299376
30
0.0
10
32.823818
20
15.464736
30
0.0
10
33.149089
20
15.675866
30
0.0
10
33.256358
20
16.054750
30
0.0
10
33.212745
20
16.600791
30
0.0
10
32.974136
20
16.967651
30
0.0
10
31.733441
20
17.137899
30
0.0
10
29.280556
20
17.211234
30
0.0
10
25.964444
20
17.215556
30
0.0
10
25.964444
20
19.332222
30
0.0
10
25.964444
20
21.448889
30
0.0
10
31.820556
20
21.447845
30
0.0
10
36.880778
20
21.358923
30
0.0
10
37.922399
20
21.193575
30
0.0
10
38.575877
20
20.898502
30
0.0
10
39.348279
20
20.310525
30
0.0
10
39.818303
20
19.627332
30
0.0
10
40.026579
20
18.755798
30
0.0
10
40.013735
20
17.602799
30
0.0
10
39.828279
20
16.523683
30
0.0
10
39.462775
20
15.684234
30
0.0
10
38.903433
20
15.062668
30
0.0
10
38.136463
20
14.637201
30
0.0
10
37.771746
20
14.476626
30
0.0
10
37.697541
20
14.310175
30
0.0
10
38.582631
20
13.573499
30
0.0
10
39.563386
20
12.681661
30
0.0
10
40.214473
20
11.654036
30
0.0
10
40.547504
20
10.464467
30
0.0
10
40.574087
20
9.086796
30
0.0
10
40.290580
20
7.639583
30
0.0
10
39.440129
20
6.606358
30
0.0
10
38.411911
20
5.867646
30
0.0
10
37.350536
20
5.384431
30
0.0
10
35.062334
20
5.185430
30
0.0
10
31.146674
20
5.087930
30
0.0
10
27.392348
20
5.109612
30
0.0
10
25.588148
20
5.268159
30
0.0
10
25.588148
20
5.268148
30
0.0
  0
ENDSEC
  0
SECTION
  2
OBJECTS
  0
DICTIONARY
  5
C
330
0
100
AcDbDictionary
  3
ACAD_GROUP
350
D
  3
ACAD_MLINESTYLE
350
17
  0
DICTIONARY
  5
D
330
C
100
AcDbDictionary
  0
DICTIONARY
  5
1A
330
C
100
AcDbDictionary
  0
DICTIONARY
  5
17
330
C
100
AcDbDictionary
  3
STANDARD
350
18
  0
DICTIONARY
  5
19
330
C
100
AcDbDictionary
  0
ENDSEC
  0
EOF
