999
Inkscape export via OpenSCAD DXF Export
  0
SECTION
  2
HEADER
  9
$ACADVER
  1
AC1014
  9
$HANDSEED
  5
FFFF
  9
$MEASUREMENT
 70
     1
  0
ENDSEC
  0
SECTION
  2
TABLES
  0
TABLE
  2
VPORT
  5
8
330
0
100
AcDbSymbolTable
 70
     4
  0
VPORT
  5
2E
330
8
100
AcDbSymbolTableRecord
100
AcDbViewportTableRecord
  2
*ACTIVE
 70
     0
 10
0.0
 20
0.0
 11
1.0
 21
1.0
 12
210.0
 22
148.5
 13
0.0
 23
0.0
 14
10.0
 24
10.0
 15
10.0
 25
10.0
 16
0.0
 26
0.0
 36
1.0
 17
0.0
 27
0.0
 37
0.0
 40
341.0
 41
1.24
 42
50.0
 43
0.0
 44
0.0
 50
0.0
 51
0.0
 71
     0
 72
   100
 73
     1
 74
     3
 75
     0
 76
     0
 77
     0
 78
     0
  0
ENDTAB
  0
TABLE
  2
LTYPE
  5
5
330
0
100
AcDbSymbolTable
 70
     1
  0
LTYPE
  5
14
330
5
100
AcDbSymbolTableRecord
100
AcDbLinetypeTableRecord
  2
BYBLOCK
 70
     0
  3

 72
    65
 73
     0
 40
0.0
  0
LTYPE
  5
15
330
5
100
AcDbSymbolTableRecord
100
AcDbLinetypeTableRecord
  2
BYLAYER
 70
     0
  3

 72
    65
 73
     0
 40
0.0
  0
LTYPE
  5
16
330
5
100
AcDbSymbolTableRecord
100
AcDbLinetypeTableRecord
  2
CONTINUOUS
 70
     0
  3
Solid line
 72
    65
 73
     0
 40
0.0
  0
ENDTAB
  0
TABLE
0
TABLE
2
LAYER
5
2
330
0
100
AcDbSymbolTable
70
1
0
LAYER
5
10
330
2
100
AcDbSymbolTableRecord
100
AcDbLayerTableRecord
2
Layer_1
70
0
62
7
6
CONTINUOUS
0
ENDTAB
0
ENDSEC
  0
ENDTAB
  0
TABLE
  2
STYLE
  5
3
330
0
100
AcDbSymbolTable
 70
     1
  0
STYLE
  5
11
330
3
100
AcDbSymbolTableRecord
100
AcDbTextStyleTableRecord
  2
STANDARD
 70
     0
 40
0.0
 41
1.0
 50
0.0
 71
     0
 42
2.5
  3
txt
  4

  0
ENDTAB
  0
TABLE
  2
VIEW
  5
6
330
0
100
AcDbSymbolTable
 70
     0
  0
ENDTAB
  0
TABLE
  2
UCS
  5
7
330
0
100
AcDbSymbolTable
 70
     0
  0
ENDTAB
  0
TABLE
  2
APPID
  5
9
330
0
100
AcDbSymbolTable
 70
     2
  0
APPID
  5
12
330
9
100
AcDbSymbolTableRecord
100
AcDbRegAppTableRecord
  2
ACAD
 70
     0
  0
ENDTAB
  0
TABLE
  2
DIMSTYLE
  5
A
330
0
100
AcDbSymbolTable
 70
     1
  0
DIMSTYLE
105
27
330
A
100
AcDbSymbolTableRecord
100
AcDbDimStyleTableRecord
  2
ISO-25
 70
     0
  3

  4

  5

  6

  7

 40
1.0
 41
2.5
 42
0.625
 43
3.75
 44
1.25
 45
0.0
 46
0.0
 47
0.0
 48
0.0
140
2.5
141
2.5
142
0.0
143
0.03937007874016
144
1.0
145
0.0
146
1.0
147
0.625
 71
     0
 72
     0
 73
     0
 74
     0
 75
     0
 76
     0
 77
     1
 78
     8
170
     0
171
     3
172
     1
173
     0
174
     0
175
     0
176
     0
177
     0
178
     0
270
     2
271
     2
272
     2
273
     2
274
     3
340
11
275
     0
280
     0
281
     0
282
     0
283
     0
284
     8
285
     0
286
     0
287
     3
288
     0
  0
ENDTAB
  0
TABLE
  2
BLOCK_RECORD
  5
1
330
0
100
AcDbSymbolTable
 70
     1
  0
BLOCK_RECORD
  5
1F
330
1
100
AcDbSymbolTableRecord
100
AcDbBlockTableRecord
  2
*MODEL_SPACE
  0
BLOCK_RECORD
  5
1B
330
1
100
AcDbSymbolTableRecord
100
AcDbBlockTableRecord
  2
*PAPER_SPACE
  0
ENDTAB
  0
ENDSEC
  0
SECTION
  2
BLOCKS
  0
BLOCK
  5
20
330
1F
100
AcDbEntity
  8
0
100
AcDbBlockBegin
  2
*MODEL_SPACE
 70
     0
 10
0.0
 20
0.0
 30
0.0
  3
*MODEL_SPACE
  1

  0
ENDBLK
  5
21
330
1F
100
AcDbEntity
  8
0
100
AcDbBlockEnd
  0
BLOCK
  5
1C
330
1B
100
AcDbEntity
 67
     1
  8
0
100
AcDbBlockBegin
  2
*PAPER_SPACE
  1

  0
ENDBLK
  5
1D
330
1B
100
AcDbEntity
 67
     1
  8
0
100
AcDbBlockEnd
  0
ENDSEC
  0
SECTION
  2
ENTITIES
0
DIMENSION
5
83
100
AcDbEntity
62
256
370
-1
6
ByLayer
1
total_width
3
Standard
70
0
71
5
72
1
41
1.0
100
AcDbAlignedDimension
13
-0.016214
23
0.000000
33
0.0
14
42.262620
24
0.000000
34
0.0
50
0.000000
100
AcDbRotatedDimension
0
DIMENSION
5
83
100
AcDbEntity
62
256
370
-1
6
ByLayer
1
total_minx
3
Standard
70
0
71
5
72
1
41
1.0
100
AcDbAlignedDimension
13
-0.016214
23
0.000000
33
0.0
14
0.000000
24
0.000000
34
0.0
50
0.000000
100
AcDbRotatedDimension
0
DIMENSION
5
83
100
AcDbEntity
62
256
370
-1
6
ByLayer
1
total_maxx
3
Standard
70
0
71
5
72
1
41
1.0
100
AcDbAlignedDimension
13
0.000000
23
0.000000
33
0.0
14
42.262620
24
0.000000
34
0.0
50
0.000000
100
AcDbRotatedDimension
0
DIMENSION
5
83
100
AcDbEntity
62
256
370
-1
6
ByLayer
1
total_height
3
Standard
70
0
71
5
72
1
41
1.0
100
AcDbAlignedDimension
13
0.000000
23
0.032427
33
0.0
14
0.000000
24
28.417822
34
0.0
50
90.000000
100
AcDbRotatedDimension
0
DIMENSION
5
83
100
AcDbEntity
62
256
370
-1
6
ByLayer
1
total_miny
3
Standard
70
0
71
5
72
1
41
1.0
100
AcDbAlignedDimension
13
0.032427
23
0.000000
33
0.0
14
0.000000
24
0.000000
34
0.0
50
0.000000
100
AcDbRotatedDimension
0
DIMENSION
5
83
100
AcDbEntity
62
256
370
-1
6
ByLayer
1
total_maxy
3
Standard
70
0
71
5
72
1
41
1.0
100
AcDbAlignedDimension
13
0.000000
23
0.000000
33
0.0
14
28.417822
24
0.000000
34
0.0
50
0.000000
100
AcDbRotatedDimension
0
DIMENSION
8
Layer_1
5
83
100
AcDbEntity
62
256
370
-1
6
ByLayer
1
Layer_1_width
3
Standard
70
0
71
5
72
1
41
1.0
100
AcDbAlignedDimension
13
-0.016214
23
0.000000
33
0.0
14
42.262620
24
0.000000
34
0.0
50
0.000000
100
AcDbRotatedDimension
0
DIMENSION
8
Layer_1
5
83
100
AcDbEntity
62
256
370
-1
6
ByLayer
1
Layer_1_minx
3
Standard
70
0
71
5
72
1
41
1.0
100
AcDbAlignedDimension
13
-0.016214
23
0.000000
33
0.0
14
0.000000
24
0.000000
34
0.0
50
0.000000
100
AcDbRotatedDimension
0
DIMENSION
8
Layer_1
5
83
100
AcDbEntity
62
256
370
-1
6
ByLayer
1
Layer_1_maxx
3
Standard
70
0
71
5
72
1
41
1.0
100
AcDbAlignedDimension
13
0.000000
23
0.000000
33
0.0
14
42.262620
24
0.000000
34
0.0
50
0.000000
100
AcDbRotatedDimension
0
DIMENSION
8
Layer_1
5
83
100
AcDbEntity
62
256
370
-1
6
ByLayer
1
Layer_1_height
3
Standard
70
0
71
5
72
1
41
1.0
100
AcDbAlignedDimension
13
0.000000
23
0.032427
33
0.0
14
0.000000
24
28.417822
34
0.0
50
90.000000
100
AcDbRotatedDimension
0
DIMENSION
8
Layer_1
5
83
100
AcDbEntity
62
256
370
-1
6
ByLayer
1
Layer_1_miny
3
Standard
70
0
71
5
72
1
41
1.0
100
AcDbAlignedDimension
13
0.032427
23
0.000000
33
0.0
14
0.000000
24
0.000000
34
0.0
50
0.000000
100
AcDbRotatedDimension
0
DIMENSION
8
Layer_1
5
83
100
AcDbEntity
62
256
370
-1
6
ByLayer
1
Layer_1_maxy
3
Standard
70
0
71
5
72
1
41
1.0
100
AcDbAlignedDimension
13
0.000000
23
0.000000
33
0.0
14
28.417822
24
0.000000
34
0.0
50
0.000000
100
AcDbRotatedDimension
62
0
0
LWPOLYLINE
100
AcDbPolyline
8
Layer_1
90
122
70
0
10
30.704333
20
1.937428
30
0.0
10
28.158148
20
4.882684
30
0.0
10
27.472945
20
5.922939
30
0.0
10
26.216699
20
4.925537
30
0.0
10
24.901461
20
3.973743
30
0.0
10
23.714489
20
3.325416
30
0.0
10
22.584389
20
2.948979
30
0.0
10
21.439768
20
2.812859
30
0.0
10
20.033060
20
2.781166
30
0.0
10
20.506365
20
1.979925
30
0.0
10
20.797605
20
1.371016
30
0.0
10
20.833180
20
1.032193
30
0.0
10
19.216181
20
1.403560
30
0.0
10
17.890644
20
2.059766
30
0.0
10
16.915466
20
3.050323
30
0.0
10
16.013206
20
3.937322
30
0.0
10
14.701392
20
4.889156
30
0.0
10
13.376114
20
5.648767
30
0.0
10
12.433465
20
5.959095
30
0.0
10
11.594398
20
5.371657
30
0.0
10
10.015786
20
3.959306
30
0.0
10
8.763780
20
2.841097
30
0.0
10
7.929978
20
2.278368
30
0.0
10
7.465525
20
2.248830
30
0.0
10
7.321564
20
2.730195
30
0.0
10
7.147450
20
3.018247
30
0.0
10
6.724661
20
3.136873
30
0.0
10
6.277968
20
3.235421
30
0.0
10
6.577821
20
3.823755
30
0.0
10
7.027883
20
4.510637
30
0.0
10
6.032822
20
4.349161
30
0.0
10
5.275791
20
4.306086
30
0.0
10
5.133261
20
4.394598
30
0.0
10
5.121329
20
4.562740
30
0.0
10
5.014543
20
4.858125
30
0.0
10
4.640452
20
5.041635
30
0.0
10
3.872401
20
5.220512
30
0.0
10
3.612893
20
5.408044
30
0.0
10
3.860814
20
5.645020
30
0.0
10
4.615052
20
5.972228
30
0.0
10
7.524619
20
6.844294
30
0.0
10
8.806888
20
7.260131
30
0.0
10
9.068797
20
7.540515
30
0.0
10
9.201576
20
7.950825
30
0.0
10
9.756725
20
8.932931
30
0.0
10
10.876450
20
10.219201
30
0.0
10
12.078593
20
11.564849
30
0.0
10
12.584273
20
12.670175
30
0.0
10
12.587557
20
13.205417
30
0.0
10
12.430668
20
13.767818
30
0.0
10
11.654960
20
15.090416
30
0.0
10
7.989300
20
19.566335
30
0.0
10
6.039689
20
21.665462
30
0.0
10
4.668664
20
22.934954
30
0.0
10
3.723104
20
23.502878
30
0.0
10
2.995370
20
23.739095
30
0.0
10
2.318872
20
24.036145
30
0.0
10
1.496497
20
24.750330
30
0.0
10
0.756194
20
25.411281
30
0.0
10
0.277014
20
25.580341
30
0.0
10
0.069922
20
25.540147
30
0.0
10
-0.016214
20
25.697995
30
0.0
10
0.233670
20
25.909077
30
0.0
10
0.834457
20
25.996873
30
0.0
10
1.685128
20
25.996873
30
0.0
10
0.934268
20
27.131499
30
0.0
10
0.448534
20
27.977389
30
0.0
10
0.335105
20
28.417822
30
0.0
10
1.449989
20
27.780390
30
0.0
10
4.082904
20
25.845713
30
0.0
10
11.554897
20
19.872813
30
0.0
10
15.513734
20
16.717011
30
0.0
10
16.366216
20
16.339552
30
0.0
10
17.131011
20
16.342217
30
0.0
10
18.555438
20
16.285033
30
0.0
10
20.292674
20
15.980707
30
0.0
10
22.252668
20
15.500386
30
0.0
10
23.390451
20
16.444740
30
0.0
10
27.395906
20
20.572148
30
0.0
10
29.682678
20
23.020868
30
0.0
10
31.464546
20
24.737596
30
0.0
10
32.691715
20
25.678353
30
0.0
10
33.081726
20
25.843999
30
0.0
10
33.314389
20
25.799160
30
0.0
10
33.411028
20
25.500186
30
0.0
10
33.156858
20
25.160133
30
0.0
10
32.721564
20
24.473080
30
0.0
10
33.311194
20
23.645689
30
0.0
10
34.641400
20
22.249608
30
0.0
10
36.054153
20
20.935100
30
0.0
10
36.891426
20
20.352428
30
0.0
10
37.147359
20
20.682188
30
0.0
10
37.237120
20
21.622428
30
0.0
10
37.325183
20
22.537535
30
0.0
10
37.552257
20
22.892428
30
0.0
10
37.733042
20
23.056309
30
0.0
10
37.719790
20
23.456873
30
0.0
10
37.662991
20
23.975597
30
0.0
10
37.947108
20
23.816717
30
0.0
10
39.588674
20
21.410762
30
0.0
10
40.827830
20
19.197454
30
0.0
10
41.686793
20
17.148175
30
0.0
10
42.165183
20
15.264045
30
0.0
10
42.262620
20
13.546185
30
0.0
10
42.176009
20
12.026873
30
0.0
10
40.200453
20
11.818613
30
0.0
10
34.968716
20
11.066730
30
0.0
10
30.816564
20
10.146935
30
0.0
10
29.352912
20
9.576947
30
0.0
10
29.110143
20
9.288142
30
0.0
10
29.052675
20
8.897073
30
0.0
10
28.929889
20
8.159442
30
0.0
10
28.634679
20
7.380525
30
0.0
10
28.216679
20
6.572207
30
0.0
10
30.229065
20
4.788094
30
0.0
10
31.762279
20
3.260086
30
0.0
10
32.622617
20
2.091714
30
0.0
10
32.989222
20
0.684751
30
0.0
10
32.962350
20
0.212696
30
0.0
10
32.784550
20
0.032427
30
0.0
10
30.704333
20
1.937428
30
0.0
10
30.704333
20
1.937428
30
0.0
62
0
0
LWPOLYLINE
100
AcDbPolyline
8
Layer_1
90
20
70
0
10
27.782675
20
14.142337
30
0.0
10
30.300841
20
14.745907
30
0.0
10
32.008360
20
15.472483
30
0.0
10
32.581138
20
15.895825
30
0.0
10
32.978869
20
16.366630
30
0.0
10
33.210758
20
16.890470
30
0.0
10
33.286009
20
17.472915
30
0.0
10
33.070527
20
18.344344
30
0.0
10
32.552454
20
19.437888
30
0.0
10
32.032904
20
20.583233
30
0.0
10
31.940246
20
21.516391
30
0.0
10
31.970985
20
22.077352
30
0.0
10
31.874491
20
22.265025
30
0.0
10
29.228024
20
19.130674
30
0.0
10
25.971775
20
14.889814
30
0.0
10
25.323343
20
13.820357
30
0.0
10
25.339591
20
13.654529
30
0.0
10
25.561366
20
13.670933
30
0.0
10
27.782675
20
14.142337
30
0.0
10
27.782675
20
14.142337
30
0.0
  0
ENDSEC
  0
SECTION
  2
OBJECTS
  0
DICTIONARY
  5
C
330
0
100
AcDbDictionary
  3
ACAD_GROUP
350
D
  3
ACAD_MLINESTYLE
350
17
  0
DICTIONARY
  5
D
330
C
100
AcDbDictionary
  0
DICTIONARY
  5
1A
330
C
100
AcDbDictionary
  0
DICTIONARY
  5
17
330
C
100
AcDbDictionary
  3
STANDARD
350
18
  0
DICTIONARY
  5
19
330
C
100
AcDbDictionary
  0
ENDSEC
  0
EOF
