999
Inkscape export via OpenSCAD DXF Export
  0
SECTION
  2
HEADER
  9
$ACADVER
  1
AC1014
  9
$HANDSEED
  5
FFFF
  9
$MEASUREMENT
 70
     1
  0
ENDSEC
  0
SECTION
  2
TABLES
  0
TABLE
  2
VPORT
  5
8
330
0
100
AcDbSymbolTable
 70
     4
  0
VPORT
  5
2E
330
8
100
AcDbSymbolTableRecord
100
AcDbViewportTableRecord
  2
*ACTIVE
 70
     0
 10
0.0
 20
0.0
 11
1.0
 21
1.0
 12
210.0
 22
148.5
 13
0.0
 23
0.0
 14
10.0
 24
10.0
 15
10.0
 25
10.0
 16
0.0
 26
0.0
 36
1.0
 17
0.0
 27
0.0
 37
0.0
 40
341.0
 41
1.24
 42
50.0
 43
0.0
 44
0.0
 50
0.0
 51
0.0
 71
     0
 72
   100
 73
     1
 74
     3
 75
     0
 76
     0
 77
     0
 78
     0
  0
ENDTAB
  0
TABLE
  2
LTYPE
  5
5
330
0
100
AcDbSymbolTable
 70
     1
  0
LTYPE
  5
14
330
5
100
AcDbSymbolTableRecord
100
AcDbLinetypeTableRecord
  2
BYBLOCK
 70
     0
  3

 72
    65
 73
     0
 40
0.0
  0
LTYPE
  5
15
330
5
100
AcDbSymbolTableRecord
100
AcDbLinetypeTableRecord
  2
BYLAYER
 70
     0
  3

 72
    65
 73
     0
 40
0.0
  0
LTYPE
  5
16
330
5
100
AcDbSymbolTableRecord
100
AcDbLinetypeTableRecord
  2
CONTINUOUS
 70
     0
  3
Solid line
 72
    65
 73
     0
 40
0.0
  0
ENDTAB
  0
TABLE
0
TABLE
2
LAYER
5
2
330
0
100
AcDbSymbolTable
70
1
0
LAYER
5
10
330
2
100
AcDbSymbolTableRecord
100
AcDbLayerTableRecord
2
Layer_1
70
0
62
7
6
CONTINUOUS
0
ENDTAB
0
ENDSEC
  0
ENDTAB
  0
TABLE
  2
STYLE
  5
3
330
0
100
AcDbSymbolTable
 70
     1
  0
STYLE
  5
11
330
3
100
AcDbSymbolTableRecord
100
AcDbTextStyleTableRecord
  2
STANDARD
 70
     0
 40
0.0
 41
1.0
 50
0.0
 71
     0
 42
2.5
  3
txt
  4

  0
ENDTAB
  0
TABLE
  2
VIEW
  5
6
330
0
100
AcDbSymbolTable
 70
     0
  0
ENDTAB
  0
TABLE
  2
UCS
  5
7
330
0
100
AcDbSymbolTable
 70
     0
  0
ENDTAB
  0
TABLE
  2
APPID
  5
9
330
0
100
AcDbSymbolTable
 70
     2
  0
APPID
  5
12
330
9
100
AcDbSymbolTableRecord
100
AcDbRegAppTableRecord
  2
ACAD
 70
     0
  0
ENDTAB
  0
TABLE
  2
DIMSTYLE
  5
A
330
0
100
AcDbSymbolTable
 70
     1
  0
DIMSTYLE
105
27
330
A
100
AcDbSymbolTableRecord
100
AcDbDimStyleTableRecord
  2
ISO-25
 70
     0
  3

  4

  5

  6

  7

 40
1.0
 41
2.5
 42
0.625
 43
3.75
 44
1.25
 45
0.0
 46
0.0
 47
0.0
 48
0.0
140
2.5
141
2.5
142
0.0
143
0.03937007874016
144
1.0
145
0.0
146
1.0
147
0.625
 71
     0
 72
     0
 73
     0
 74
     0
 75
     0
 76
     0
 77
     1
 78
     8
170
     0
171
     3
172
     1
173
     0
174
     0
175
     0
176
     0
177
     0
178
     0
270
     2
271
     2
272
     2
273
     2
274
     3
340
11
275
     0
280
     0
281
     0
282
     0
283
     0
284
     8
285
     0
286
     0
287
     3
288
     0
  0
ENDTAB
  0
TABLE
  2
BLOCK_RECORD
  5
1
330
0
100
AcDbSymbolTable
 70
     1
  0
BLOCK_RECORD
  5
1F
330
1
100
AcDbSymbolTableRecord
100
AcDbBlockTableRecord
  2
*MODEL_SPACE
  0
BLOCK_RECORD
  5
1B
330
1
100
AcDbSymbolTableRecord
100
AcDbBlockTableRecord
  2
*PAPER_SPACE
  0
ENDTAB
  0
ENDSEC
  0
SECTION
  2
BLOCKS
  0
BLOCK
  5
20
330
1F
100
AcDbEntity
  8
0
100
AcDbBlockBegin
  2
*MODEL_SPACE
 70
     0
 10
0.0
 20
0.0
 30
0.0
  3
*MODEL_SPACE
  1

  0
ENDBLK
  5
21
330
1F
100
AcDbEntity
  8
0
100
AcDbBlockEnd
  0
BLOCK
  5
1C
330
1B
100
AcDbEntity
 67
     1
  8
0
100
AcDbBlockBegin
  2
*PAPER_SPACE
  1

  0
ENDBLK
  5
1D
330
1B
100
AcDbEntity
 67
     1
  8
0
100
AcDbBlockEnd
  0
ENDSEC
  0
SECTION
  2
ENTITIES
0
DIMENSION
5
83
100
AcDbEntity
62
256
370
-1
6
ByLayer
1
total_width
3
Standard
70
0
71
5
72
1
41
1.0
100
AcDbAlignedDimension
13
0.145034
23
0.000000
33
0.0
14
42.214055
24
0.000000
34
0.0
50
0.000000
100
AcDbRotatedDimension
0
DIMENSION
5
83
100
AcDbEntity
62
256
370
-1
6
ByLayer
1
total_minx
3
Standard
70
0
71
5
72
1
41
1.0
100
AcDbAlignedDimension
13
0.145034
23
0.000000
33
0.0
14
0.000000
24
0.000000
34
0.0
50
0.000000
100
AcDbRotatedDimension
0
DIMENSION
5
83
100
AcDbEntity
62
256
370
-1
6
ByLayer
1
total_maxx
3
Standard
70
0
71
5
72
1
41
1.0
100
AcDbAlignedDimension
13
0.000000
23
0.000000
33
0.0
14
42.214055
24
0.000000
34
0.0
50
0.000000
100
AcDbRotatedDimension
0
DIMENSION
5
83
100
AcDbEntity
62
256
370
-1
6
ByLayer
1
total_height
3
Standard
70
0
71
5
72
1
41
1.0
100
AcDbAlignedDimension
13
0.000000
23
0.065498
33
0.0
14
0.000000
24
38.369506
34
0.0
50
90.000000
100
AcDbRotatedDimension
0
DIMENSION
5
83
100
AcDbEntity
62
256
370
-1
6
ByLayer
1
total_miny
3
Standard
70
0
71
5
72
1
41
1.0
100
AcDbAlignedDimension
13
0.065498
23
0.000000
33
0.0
14
0.000000
24
0.000000
34
0.0
50
0.000000
100
AcDbRotatedDimension
0
DIMENSION
5
83
100
AcDbEntity
62
256
370
-1
6
ByLayer
1
total_maxy
3
Standard
70
0
71
5
72
1
41
1.0
100
AcDbAlignedDimension
13
0.000000
23
0.000000
33
0.0
14
38.369506
24
0.000000
34
0.0
50
0.000000
100
AcDbRotatedDimension
0
DIMENSION
8
Layer_1
5
83
100
AcDbEntity
62
256
370
-1
6
ByLayer
1
Layer_1_width
3
Standard
70
0
71
5
72
1
41
1.0
100
AcDbAlignedDimension
13
0.145034
23
0.000000
33
0.0
14
42.214055
24
0.000000
34
0.0
50
0.000000
100
AcDbRotatedDimension
0
DIMENSION
8
Layer_1
5
83
100
AcDbEntity
62
256
370
-1
6
ByLayer
1
Layer_1_minx
3
Standard
70
0
71
5
72
1
41
1.0
100
AcDbAlignedDimension
13
0.145034
23
0.000000
33
0.0
14
0.000000
24
0.000000
34
0.0
50
0.000000
100
AcDbRotatedDimension
0
DIMENSION
8
Layer_1
5
83
100
AcDbEntity
62
256
370
-1
6
ByLayer
1
Layer_1_maxx
3
Standard
70
0
71
5
72
1
41
1.0
100
AcDbAlignedDimension
13
0.000000
23
0.000000
33
0.0
14
42.214055
24
0.000000
34
0.0
50
0.000000
100
AcDbRotatedDimension
0
DIMENSION
8
Layer_1
5
83
100
AcDbEntity
62
256
370
-1
6
ByLayer
1
Layer_1_height
3
Standard
70
0
71
5
72
1
41
1.0
100
AcDbAlignedDimension
13
0.000000
23
0.065498
33
0.0
14
0.000000
24
38.369506
34
0.0
50
90.000000
100
AcDbRotatedDimension
0
DIMENSION
8
Layer_1
5
83
100
AcDbEntity
62
256
370
-1
6
ByLayer
1
Layer_1_miny
3
Standard
70
0
71
5
72
1
41
1.0
100
AcDbAlignedDimension
13
0.065498
23
0.000000
33
0.0
14
0.000000
24
0.000000
34
0.0
50
0.000000
100
AcDbRotatedDimension
0
DIMENSION
8
Layer_1
5
83
100
AcDbEntity
62
256
370
-1
6
ByLayer
1
Layer_1_maxy
3
Standard
70
0
71
5
72
1
41
1.0
100
AcDbAlignedDimension
13
0.000000
23
0.000000
33
0.0
14
38.369506
24
0.000000
34
0.0
50
0.000000
100
AcDbRotatedDimension
62
0
0
LWPOLYLINE
100
AcDbPolyline
8
Layer_1
90
95
70
0
10
8.051034
20
0.423892
30
0.0
10
8.157255
20
1.274882
30
0.0
10
8.605762
20
2.817602
30
0.0
10
9.021302
20
4.300390
30
0.0
10
9.048261
20
5.007280
30
0.0
10
4.904057
20
6.303984
30
0.0
10
2.006386
20
7.253964
30
0.0
10
0.508441
20
7.933811
30
0.0
10
0.245669
20
8.249266
30
0.0
10
0.145034
20
8.634247
30
0.0
10
0.398675
20
10.288518
30
0.0
10
0.838500
20
11.947355
30
0.0
10
1.401480
20
13.156979
30
0.0
10
2.161808
20
14.034402
30
0.0
10
3.193677
20
14.696638
30
0.0
10
4.484531
20
15.183007
30
0.0
10
5.668182
20
15.164066
30
0.0
10
7.092128
20
14.641895
30
0.0
10
8.258101
20
13.678137
30
0.0
10
9.045860
20
12.410144
30
0.0
10
9.335166
20
10.975264
30
0.0
10
9.450579
20
10.210568
30
0.0
10
9.781581
20
9.832360
30
0.0
10
10.701078
20
9.697673
30
0.0
10
10.984542
20
9.873666
30
0.0
10
11.166717
20
10.216383
30
0.0
10
11.101786
20
10.655198
30
0.0
10
10.646431
20
11.410330
30
0.0
10
8.222402
20
14.349717
30
0.0
10
6.410128
20
16.485069
30
0.0
10
5.437136
20
17.829579
30
0.0
10
5.154026
20
18.639495
30
0.0
10
5.411398
20
19.171064
30
0.0
10
5.422631
20
19.480367
30
0.0
10
4.886696
20
20.045580
30
0.0
10
1.504440
20
22.516479
30
0.0
10
0.376846
20
23.445189
30
0.0
10
0.345157
20
23.743589
30
0.0
10
0.755678
20
23.954504
30
0.0
10
3.165772
20
24.183331
30
0.0
10
8.131962
20
24.270577
30
0.0
10
14.699811
20
24.413458
30
0.0
10
15.745415
20
24.580780
30
0.0
10
16.092961
20
24.872020
30
0.0
10
18.535108
20
31.570275
30
0.0
10
20.791852
20
37.537913
30
0.0
10
21.355407
20
38.358866
30
0.0
10
21.564674
20
38.369506
30
0.0
10
21.751768
20
38.167259
30
0.0
10
24.147652
20
31.393926
30
0.0
10
26.501156
20
24.694027
30
0.0
10
27.003165
20
24.526401
30
0.0
10
28.381769
20
24.406152
30
0.0
10
34.466733
20
24.270693
30
0.0
10
40.775969
20
24.134541
30
0.0
10
41.916877
20
24.000593
30
0.0
10
42.214055
20
23.791909
30
0.0
10
41.385027
20
22.906921
30
0.0
10
39.391833
20
21.345931
30
0.0
10
37.315773
20
19.712776
30
0.0
10
36.800741
20
19.180514
30
0.0
10
36.652999
20
18.854737
30
0.0
10
36.514093
20
18.268923
30
0.0
10
36.063030
20
17.490715
30
0.0
10
34.775417
20
15.546671
30
0.0
10
34.161157
20
14.517842
30
0.0
10
35.558645
20
14.927504
30
0.0
10
36.815096
20
15.140466
30
0.0
10
38.021138
20
15.053627
30
0.0
10
39.140672
20
14.694940
30
0.0
10
40.137601
20
14.092360
30
0.0
10
40.975827
20
13.273839
30
0.0
10
41.619252
20
12.267331
30
0.0
10
42.031779
20
11.100788
30
0.0
10
42.177310
20
9.802165
30
0.0
10
41.933507
20
8.129901
30
0.0
10
41.262235
20
6.722691
30
0.0
10
40.253694
20
5.619135
30
0.0
10
38.998088
20
4.857834
30
0.0
10
37.585618
20
4.477387
30
0.0
10
36.106487
20
4.516395
30
0.0
10
34.650895
20
5.013457
30
0.0
10
33.309046
20
6.007173
30
0.0
10
32.904416
20
6.342434
30
0.0
10
32.808224
20
6.158380
30
0.0
10
33.606277
20
3.734387
30
0.0
10
34.397362
20
1.049192
30
0.0
10
34.432726
20
0.319730
30
0.0
10
34.216907
20
0.065498
30
0.0
10
27.811350
20
4.298831
30
0.0
10
21.380848
20
8.532165
30
0.0
10
14.820020
20
4.298831
30
0.0
10
8.354366
20
0.065498
30
0.0
10
8.051034
20
0.423892
30
0.0
10
8.051034
20
0.423892
30
0.0
62
0
0
LWPOLYLINE
100
AcDbPolyline
8
Layer_1
90
28
70
0
10
39.272825
20
5.787215
30
0.0
10
40.268952
20
6.635717
30
0.0
10
40.980470
20
7.617278
30
0.0
10
41.407382
20
8.687545
30
0.0
10
41.549685
20
9.802166
30
0.0
10
41.407382
20
10.916786
30
0.0
10
40.980470
20
11.987053
30
0.0
10
40.268952
20
12.968614
30
0.0
10
39.272825
20
13.817116
30
0.0
10
38.502561
20
14.222322
30
0.0
10
37.688766
20
14.442522
30
0.0
10
36.852908
20
14.483352
30
0.0
10
36.016458
20
14.350453
30
0.0
10
35.200885
20
14.049464
30
0.0
10
34.427660
20
13.586022
30
0.0
10
33.718251
20
12.965767
30
0.0
10
33.094128
20
12.194338
30
0.0
10
32.572949
20
11.092931
30
0.0
10
32.541250
20
9.586705
30
0.0
10
32.725821
20
8.374025
30
0.0
10
33.121285
20
7.389690
30
0.0
10
33.774493
20
6.552310
30
0.0
10
34.732296
20
5.780498
30
0.0
10
35.796548
20
5.294581
30
0.0
10
36.995721
20
5.133858
30
0.0
10
38.198313
20
5.298134
30
0.0
10
39.272825
20
5.787215
30
0.0
10
39.272825
20
5.787215
30
0.0
62
0
0
LWPOLYLINE
100
AcDbPolyline
8
Layer_1
90
20
70
0
10
36.252167
20
7.966075
30
0.0
10
35.722840
20
8.390138
30
0.0
10
35.351851
20
9.086057
30
0.0
10
35.194365
20
9.896579
30
0.0
10
35.305548
20
10.664453
30
0.0
10
35.587917
20
11.144086
30
0.0
10
35.990713
20
11.484890
30
0.0
10
36.997256
20
11.751442
30
0.0
10
38.004508
20
11.466963
30
0.0
10
38.408191
20
11.118979
30
0.0
10
38.691800
20
10.634307
30
0.0
10
38.844899
20
9.992402
30
0.0
10
38.822347
20
9.389630
30
0.0
10
38.646533
20
8.850477
30
0.0
10
38.339847
20
8.399431
30
0.0
10
37.924677
20
8.060981
30
0.0
10
37.423415
20
7.859613
30
0.0
10
36.858448
20
7.819815
30
0.0
10
36.252167
20
7.966075
30
0.0
10
36.252167
20
7.966075
30
0.0
62
0
0
LWPOLYLINE
100
AcDbPolyline
8
Layer_1
90
28
70
0
10
9.870640
20
6.344943
30
0.0
10
10.305827
20
7.880841
30
0.0
10
10.393155
20
8.388540
30
0.0
10
10.330898
20
8.680585
30
0.0
10
9.495116
20
8.970586
30
0.0
10
8.919069
20
9.103153
30
0.0
10
8.619574
20
9.316317
30
0.0
10
8.506196
20
9.752255
30
0.0
10
8.488499
20
10.553145
30
0.0
10
8.250038
20
12.227664
30
0.0
10
7.955954
20
12.897529
30
0.0
10
7.548849
20
13.451994
30
0.0
10
7.031384
20
13.888208
30
0.0
10
6.406222
20
14.203320
30
0.0
10
4.843446
20
14.458832
30
0.0
10
3.743220
20
14.273631
30
0.0
10
2.729996
20
13.598058
30
0.0
10
2.069461
20
12.900300
30
0.0
10
1.598348
20
12.083566
30
0.0
10
1.265252
20
11.028190
30
0.0
10
1.018766
20
9.614504
30
0.0
10
0.841114
20
8.297957
30
0.0
10
2.336474
20
7.860436
30
0.0
10
6.512944
20
6.598073
30
0.0
10
9.335540
20
5.804564
30
0.0
10
9.695112
20
5.922636
30
0.0
10
9.870640
20
6.344943
30
0.0
10
9.870640
20
6.344943
30
0.0
62
0
0
LWPOLYLINE
100
AcDbPolyline
8
Layer_1
90
15
70
0
10
4.457192
20
10.397618
30
0.0
10
3.665126
20
10.680100
30
0.0
10
3.336564
20
10.964968
30
0.0
10
3.433644
20
11.364102
30
0.0
10
3.918501
20
11.989388
30
0.0
10
4.316968
20
12.303935
30
0.0
10
4.768950
20
12.428656
30
0.0
10
5.674286
20
12.203684
30
0.0
10
6.316158
20
11.504601
30
0.0
10
6.438812
20
11.036685
30
0.0
10
6.376218
20
10.521539
30
0.0
10
6.234599
20
10.143648
30
0.0
10
5.997959
20
10.005451
30
0.0
10
4.457192
20
10.397618
30
0.0
10
4.457192
20
10.397618
30
0.0
62
0
0
LWPOLYLINE
100
AcDbPolyline
8
Layer_1
90
8
70
0
10
31.759779
20
10.205997
30
0.0
10
31.790199
20
10.443617
30
0.0
10
31.635325
20
10.645987
30
0.0
10
31.432754
20
10.641936
30
0.0
10
31.348499
20
10.383266
30
0.0
10
31.463416
20
9.961937
30
0.0
10
31.759779
20
10.205997
30
0.0
10
31.759779
20
10.205997
30
0.0
62
0
0
LWPOLYLINE
100
AcDbPolyline
8
Layer_1
90
34
70
0
10
13.247457
20
12.515926
30
0.0
10
14.196414
20
13.378698
30
0.0
10
13.318012
20
14.284978
30
0.0
10
12.439610
20
15.389490
30
0.0
10
12.787404
20
15.577825
30
0.0
10
13.578728
20
15.580748
30
0.0
10
14.435492
20
15.431766
30
0.0
10
14.979610
20
15.164388
30
0.0
10
15.313952
20
14.844813
30
0.0
10
15.656291
20
14.798429
30
0.0
10
16.840981
20
15.649221
30
0.0
10
17.875326
20
16.557387
30
0.0
10
16.803781
20
17.483665
30
0.0
10
16.107783
20
17.999804
30
0.0
10
15.422794
20
18.320727
30
0.0
10
14.707672
20
18.459956
30
0.0
10
13.921277
20
18.431010
30
0.0
10
13.671818
20
18.547370
30
0.0
10
13.567444
20
18.891460
30
0.0
10
13.385205
20
19.655077
30
0.0
10
12.908494
20
20.429277
30
0.0
10
12.237817
20
21.088498
30
0.0
10
11.473675
20
21.507179
30
0.0
10
10.429913
20
21.679014
30
0.0
10
9.399515
20
21.470545
30
0.0
10
8.318640
20
20.856912
30
0.0
10
7.123448
20
19.813257
30
0.0
10
5.732459
20
18.429562
30
0.0
10
8.592146
20
15.054915
30
0.0
10
10.736154
20
12.667589
30
0.0
10
11.875166
20
11.666712
30
0.0
10
12.452902
20
11.910577
30
0.0
10
13.247457
20
12.515926
30
0.0
10
13.247457
20
12.515926
30
0.0
62
0
0
LWPOLYLINE
100
AcDbPolyline
8
Layer_1
90
14
70
0
10
9.760059
20
17.959479
30
0.0
10
9.307862
20
18.667728
30
0.0
10
9.204184
20
19.159356
30
0.0
10
9.451147
20
19.445883
30
0.0
10
10.050871
20
19.538832
30
0.0
10
10.691732
20
19.331343
30
0.0
10
11.215297
20
18.825803
30
0.0
10
11.496994
20
18.197601
30
0.0
10
11.412248
20
17.622128
30
0.0
10
11.059952
20
17.206908
30
0.0
10
10.698077
20
17.118413
30
0.0
10
10.280241
20
17.366113
30
0.0
10
9.760059
20
17.959479
30
0.0
10
9.760059
20
17.959479
30
0.0
62
0
0
LWPOLYLINE
100
AcDbPolyline
8
Layer_1
90
36
70
0
10
33.452223
20
15.035199
30
0.0
10
34.914447
20
17.418612
30
0.0
10
35.674001
20
18.409943
30
0.0
10
35.776098
20
18.550528
30
0.0
10
35.516400
20
18.893930
30
0.0
10
34.377277
20
19.719071
30
0.0
10
33.896171
20
19.936842
30
0.0
10
33.514468
20
19.974744
30
0.0
10
32.457774
20
19.418240
30
0.0
10
31.209652
20
18.692165
30
0.0
10
31.485823
20
19.714409
30
0.0
10
31.809187
20
20.626687
30
0.0
10
31.865411
20
21.298575
30
0.0
10
31.635246
20
21.867375
30
0.0
10
31.099444
20
22.470389
30
0.0
10
30.285947
20
23.249770
30
0.0
10
27.242893
20
20.315282
30
0.0
10
24.199839
20
17.380794
30
0.0
10
25.201832
20
16.616537
30
0.0
10
26.203825
20
15.852280
30
0.0
10
27.794879
20
17.483889
30
0.0
10
29.385935
20
19.115499
30
0.0
10
28.637306
20
17.058926
30
0.0
10
28.156872
20
15.558191
30
0.0
10
28.053044
20
14.837991
30
0.0
10
28.729608
20
15.075885
30
0.0
10
30.125430
20
15.878653
30
0.0
10
31.315098
20
16.620391
30
0.0
10
31.729068
20
16.737932
30
0.0
10
31.388709
20
16.072140
30
0.0
10
30.315385
20
14.463874
30
0.0
10
29.655166
20
13.204476
30
0.0
10
30.393764
20
12.330211
30
0.0
10
31.348499
20
11.658682
30
0.0
10
33.452223
20
15.035199
30
0.0
10
33.452223
20
15.035199
30
0.0
62
0
0
LWPOLYLINE
100
AcDbPolyline
8
Layer_1
90
28
70
0
10
23.427065
20
17.549596
30
0.0
10
24.052824
20
18.094571
30
0.0
10
24.561935
20
18.743696
30
0.0
10
25.210188
20
20.270656
30
0.0
10
25.331775
20
21.962996
30
0.0
10
25.182553
20
22.818846
30
0.0
10
24.886646
20
23.653237
30
0.0
10
24.263422
20
24.679903
30
0.0
10
23.456778
20
25.481378
30
0.0
10
22.512929
20
26.048952
30
0.0
10
21.478095
20
26.373910
30
0.0
10
20.398492
20
26.447541
30
0.0
10
19.320336
20
26.261133
30
0.0
10
18.289846
20
25.805973
30
0.0
10
17.353239
20
25.073349
30
0.0
10
16.607472
20
24.140810
30
0.0
10
16.126148
20
23.125543
30
0.0
10
15.904193
20
22.062035
30
0.0
10
15.936534
20
20.984774
30
0.0
10
16.218098
20
19.928247
30
0.0
10
16.743811
20
18.926942
30
0.0
10
17.508598
20
18.015346
30
0.0
10
18.507388
20
17.227947
30
0.0
10
19.591762
20
16.831600
30
0.0
10
20.926705
20
16.763131
30
0.0
10
22.281908
20
17.007482
30
0.0
10
23.427065
20
17.549596
30
0.0
10
23.427065
20
17.549596
30
0.0
62
0
0
LWPOLYLINE
100
AcDbPolyline
8
Layer_1
90
22
70
0
10
19.211370
20
20.310489
30
0.0
10
18.888783
20
20.850960
30
0.0
10
18.734391
20
21.409456
30
0.0
10
18.735952
20
21.958211
30
0.0
10
18.881225
20
22.469456
30
0.0
10
19.157967
20
22.915426
30
0.0
10
19.553938
20
23.268355
30
0.0
10
20.056894
20
23.500474
30
0.0
10
20.654595
20
23.584017
30
0.0
10
21.253961
20
23.484568
30
0.0
10
21.762025
20
23.211969
30
0.0
10
22.163468
20
22.804847
30
0.0
10
22.442970
20
22.301827
30
0.0
10
22.585211
20
21.741535
30
0.0
10
22.574871
20
21.162595
30
0.0
10
22.396629
20
20.603634
30
0.0
10
22.035166
20
20.103276
30
0.0
10
21.350365
20
19.656451
30
0.0
10
20.591173
20
19.546469
30
0.0
10
19.848029
20
19.766694
30
0.0
10
19.211370
20
20.310489
30
0.0
10
19.211370
20
20.310489
30
0.0
  0
ENDSEC
  0
SECTION
  2
OBJECTS
  0
DICTIONARY
  5
C
330
0
100
AcDbDictionary
  3
ACAD_GROUP
350
D
  3
ACAD_MLINESTYLE
350
17
  0
DICTIONARY
  5
D
330
C
100
AcDbDictionary
  0
DICTIONARY
  5
1A
330
C
100
AcDbDictionary
  0
DICTIONARY
  5
17
330
C
100
AcDbDictionary
  3
STANDARD
350
18
  0
DICTIONARY
  5
19
330
C
100
AcDbDictionary
  0
ENDSEC
  0
EOF
