999
Inkscape export via OpenSCAD DXF Export
  0
SECTION
  2
HEADER
  9
$ACADVER
  1
AC1014
  9
$HANDSEED
  5
FFFF
  9
$MEASUREMENT
 70
     1
  0
ENDSEC
  0
SECTION
  2
TABLES
  0
TABLE
  2
VPORT
  5
8
330
0
100
AcDbSymbolTable
 70
     4
  0
VPORT
  5
2E
330
8
100
AcDbSymbolTableRecord
100
AcDbViewportTableRecord
  2
*ACTIVE
 70
     0
 10
0.0
 20
0.0
 11
1.0
 21
1.0
 12
210.0
 22
148.5
 13
0.0
 23
0.0
 14
10.0
 24
10.0
 15
10.0
 25
10.0
 16
0.0
 26
0.0
 36
1.0
 17
0.0
 27
0.0
 37
0.0
 40
341.0
 41
1.24
 42
50.0
 43
0.0
 44
0.0
 50
0.0
 51
0.0
 71
     0
 72
   100
 73
     1
 74
     3
 75
     0
 76
     0
 77
     0
 78
     0
  0
ENDTAB
  0
TABLE
  2
LTYPE
  5
5
330
0
100
AcDbSymbolTable
 70
     1
  0
LTYPE
  5
14
330
5
100
AcDbSymbolTableRecord
100
AcDbLinetypeTableRecord
  2
BYBLOCK
 70
     0
  3

 72
    65
 73
     0
 40
0.0
  0
LTYPE
  5
15
330
5
100
AcDbSymbolTableRecord
100
AcDbLinetypeTableRecord
  2
BYLAYER
 70
     0
  3

 72
    65
 73
     0
 40
0.0
  0
LTYPE
  5
16
330
5
100
AcDbSymbolTableRecord
100
AcDbLinetypeTableRecord
  2
CONTINUOUS
 70
     0
  3
Solid line
 72
    65
 73
     0
 40
0.0
  0
ENDTAB
  0
TABLE
0
TABLE
2
LAYER
5
2
330
0
100
AcDbSymbolTable
70
1
0
LAYER
5
10
330
2
100
AcDbSymbolTableRecord
100
AcDbLayerTableRecord
2
Layer_1
70
0
62
7
6
CONTINUOUS
0
ENDTAB
0
ENDSEC
  0
ENDTAB
  0
TABLE
  2
STYLE
  5
3
330
0
100
AcDbSymbolTable
 70
     1
  0
STYLE
  5
11
330
3
100
AcDbSymbolTableRecord
100
AcDbTextStyleTableRecord
  2
STANDARD
 70
     0
 40
0.0
 41
1.0
 50
0.0
 71
     0
 42
2.5
  3
txt
  4

  0
ENDTAB
  0
TABLE
  2
VIEW
  5
6
330
0
100
AcDbSymbolTable
 70
     0
  0
ENDTAB
  0
TABLE
  2
UCS
  5
7
330
0
100
AcDbSymbolTable
 70
     0
  0
ENDTAB
  0
TABLE
  2
APPID
  5
9
330
0
100
AcDbSymbolTable
 70
     2
  0
APPID
  5
12
330
9
100
AcDbSymbolTableRecord
100
AcDbRegAppTableRecord
  2
ACAD
 70
     0
  0
ENDTAB
  0
TABLE
  2
DIMSTYLE
  5
A
330
0
100
AcDbSymbolTable
 70
     1
  0
DIMSTYLE
105
27
330
A
100
AcDbSymbolTableRecord
100
AcDbDimStyleTableRecord
  2
ISO-25
 70
     0
  3

  4

  5

  6

  7

 40
1.0
 41
2.5
 42
0.625
 43
3.75
 44
1.25
 45
0.0
 46
0.0
 47
0.0
 48
0.0
140
2.5
141
2.5
142
0.0
143
0.03937007874016
144
1.0
145
0.0
146
1.0
147
0.625
 71
     0
 72
     0
 73
     0
 74
     0
 75
     0
 76
     0
 77
     1
 78
     8
170
     0
171
     3
172
     1
173
     0
174
     0
175
     0
176
     0
177
     0
178
     0
270
     2
271
     2
272
     2
273
     2
274
     3
340
11
275
     0
280
     0
281
     0
282
     0
283
     0
284
     8
285
     0
286
     0
287
     3
288
     0
  0
ENDTAB
  0
TABLE
  2
BLOCK_RECORD
  5
1
330
0
100
AcDbSymbolTable
 70
     1
  0
BLOCK_RECORD
  5
1F
330
1
100
AcDbSymbolTableRecord
100
AcDbBlockTableRecord
  2
*MODEL_SPACE
  0
BLOCK_RECORD
  5
1B
330
1
100
AcDbSymbolTableRecord
100
AcDbBlockTableRecord
  2
*PAPER_SPACE
  0
ENDTAB
  0
ENDSEC
  0
SECTION
  2
BLOCKS
  0
BLOCK
  5
20
330
1F
100
AcDbEntity
  8
0
100
AcDbBlockBegin
  2
*MODEL_SPACE
 70
     0
 10
0.0
 20
0.0
 30
0.0
  3
*MODEL_SPACE
  1

  0
ENDBLK
  5
21
330
1F
100
AcDbEntity
  8
0
100
AcDbBlockEnd
  0
BLOCK
  5
1C
330
1B
100
AcDbEntity
 67
     1
  8
0
100
AcDbBlockBegin
  2
*PAPER_SPACE
  1

  0
ENDBLK
  5
1D
330
1B
100
AcDbEntity
 67
     1
  8
0
100
AcDbBlockEnd
  0
ENDSEC
  0
SECTION
  2
ENTITIES
0
DIMENSION
5
83
100
AcDbEntity
62
256
370
-1
6
ByLayer
1
total_width
3
Standard
70
0
71
5
72
1
41
1.0
100
AcDbAlignedDimension
13
1.244772
23
0.000000
33
0.0
14
41.047757
24
0.000000
34
0.0
50
0.000000
100
AcDbRotatedDimension
0
DIMENSION
5
83
100
AcDbEntity
62
256
370
-1
6
ByLayer
1
total_minx
3
Standard
70
0
71
5
72
1
41
1.0
100
AcDbAlignedDimension
13
1.244772
23
0.000000
33
0.0
14
0.000000
24
0.000000
34
0.0
50
0.000000
100
AcDbRotatedDimension
0
DIMENSION
5
83
100
AcDbEntity
62
256
370
-1
6
ByLayer
1
total_maxx
3
Standard
70
0
71
5
72
1
41
1.0
100
AcDbAlignedDimension
13
0.000000
23
0.000000
33
0.0
14
41.047757
24
0.000000
34
0.0
50
0.000000
100
AcDbRotatedDimension
0
DIMENSION
5
83
100
AcDbEntity
62
256
370
-1
6
ByLayer
1
total_height
3
Standard
70
0
71
5
72
1
41
1.0
100
AcDbAlignedDimension
13
0.000000
23
1.181574
33
0.0
14
0.000000
24
26.104766
34
0.0
50
90.000000
100
AcDbRotatedDimension
0
DIMENSION
5
83
100
AcDbEntity
62
256
370
-1
6
ByLayer
1
total_miny
3
Standard
70
0
71
5
72
1
41
1.0
100
AcDbAlignedDimension
13
1.181574
23
0.000000
33
0.0
14
0.000000
24
0.000000
34
0.0
50
0.000000
100
AcDbRotatedDimension
0
DIMENSION
5
83
100
AcDbEntity
62
256
370
-1
6
ByLayer
1
total_maxy
3
Standard
70
0
71
5
72
1
41
1.0
100
AcDbAlignedDimension
13
0.000000
23
0.000000
33
0.0
14
26.104766
24
0.000000
34
0.0
50
0.000000
100
AcDbRotatedDimension
0
DIMENSION
8
Layer_1
5
83
100
AcDbEntity
62
256
370
-1
6
ByLayer
1
Layer_1_width
3
Standard
70
0
71
5
72
1
41
1.0
100
AcDbAlignedDimension
13
1.244772
23
0.000000
33
0.0
14
41.047757
24
0.000000
34
0.0
50
0.000000
100
AcDbRotatedDimension
0
DIMENSION
8
Layer_1
5
83
100
AcDbEntity
62
256
370
-1
6
ByLayer
1
Layer_1_minx
3
Standard
70
0
71
5
72
1
41
1.0
100
AcDbAlignedDimension
13
1.244772
23
0.000000
33
0.0
14
0.000000
24
0.000000
34
0.0
50
0.000000
100
AcDbRotatedDimension
0
DIMENSION
8
Layer_1
5
83
100
AcDbEntity
62
256
370
-1
6
ByLayer
1
Layer_1_maxx
3
Standard
70
0
71
5
72
1
41
1.0
100
AcDbAlignedDimension
13
0.000000
23
0.000000
33
0.0
14
41.047757
24
0.000000
34
0.0
50
0.000000
100
AcDbRotatedDimension
0
DIMENSION
8
Layer_1
5
83
100
AcDbEntity
62
256
370
-1
6
ByLayer
1
Layer_1_height
3
Standard
70
0
71
5
72
1
41
1.0
100
AcDbAlignedDimension
13
0.000000
23
1.181574
33
0.0
14
0.000000
24
26.104766
34
0.0
50
90.000000
100
AcDbRotatedDimension
0
DIMENSION
8
Layer_1
5
83
100
AcDbEntity
62
256
370
-1
6
ByLayer
1
Layer_1_miny
3
Standard
70
0
71
5
72
1
41
1.0
100
AcDbAlignedDimension
13
1.181574
23
0.000000
33
0.0
14
0.000000
24
0.000000
34
0.0
50
0.000000
100
AcDbRotatedDimension
0
DIMENSION
8
Layer_1
5
83
100
AcDbEntity
62
256
370
-1
6
ByLayer
1
Layer_1_maxy
3
Standard
70
0
71
5
72
1
41
1.0
100
AcDbAlignedDimension
13
0.000000
23
0.000000
33
0.0
14
26.104766
24
0.000000
34
0.0
50
0.000000
100
AcDbRotatedDimension
62
0
0
LWPOLYLINE
100
AcDbPolyline
8
Layer_1
90
45
70
0
10
11.120064
20
1.548195
30
0.0
10
8.814028
20
2.294044
30
0.0
10
6.738421
20
3.444739
30
0.0
10
4.934042
20
4.941437
30
0.0
10
3.441689
20
6.725292
30
0.0
10
2.302161
20
8.737461
30
0.0
10
1.556256
20
10.919099
30
0.0
10
1.244772
20
13.211362
30
0.0
10
1.408507
20
15.555406
30
0.0
10
1.911230
20
17.539573
30
0.0
10
2.680626
20
19.366060
30
0.0
10
3.697879
20
21.016098
30
0.0
10
4.944173
20
22.470924
30
0.0
10
6.400693
20
23.711771
30
0.0
10
8.048623
20
24.719872
30
0.0
10
9.869147
20
25.476463
30
0.0
10
11.843450
20
25.962777
30
0.0
10
13.259594
20
26.104766
30
0.0
10
14.695575
20
26.063776
30
0.0
10
16.129299
20
25.847220
30
0.0
10
17.538674
20
25.462512
30
0.0
10
18.901605
20
24.917063
30
0.0
10
20.195999
20
24.218287
30
0.0
10
21.399763
20
23.373597
30
0.0
10
22.490803
20
22.390405
30
0.0
10
23.653711
20
21.025125
30
0.0
10
24.578579
20
19.568371
30
0.0
10
25.271894
20
18.041527
30
0.0
10
25.740144
20
16.465977
30
0.0
10
25.989817
20
14.863106
30
0.0
10
26.027402
20
13.254298
30
0.0
10
25.859387
20
11.660937
30
0.0
10
25.492260
20
10.104406
30
0.0
10
24.932510
20
8.606091
30
0.0
10
24.186623
20
7.187375
30
0.0
10
23.261090
20
5.869642
30
0.0
10
22.162397
20
4.674278
30
0.0
10
20.897034
20
3.622664
30
0.0
10
19.471488
20
2.736187
30
0.0
10
17.892247
20
2.036230
30
0.0
10
16.165800
20
1.544177
30
0.0
10
13.626845
20
1.181574
30
0.0
10
12.533223
20
1.273601
30
0.0
10
11.120064
20
1.548195
30
0.0
10
11.120064
20
1.548195
30
0.0
62
0
0
LWPOLYLINE
100
AcDbPolyline
8
Layer_1
90
32
70
0
10
16.406080
20
3.612496
30
0.0
10
17.303968
20
4.179661
30
0.0
10
18.136484
20
4.902868
30
0.0
10
19.573794
20
6.764822
30
0.0
10
20.654802
20
9.093183
30
0.0
10
21.316301
20
11.782778
30
0.0
10
21.498502
20
12.982222
30
0.0
10
19.946649
20
12.982222
30
0.0
10
18.394797
20
12.982222
30
0.0
10
17.785152
20
11.722865
30
0.0
10
17.024896
20
10.588429
30
0.0
10
16.045482
20
9.773771
30
0.0
10
14.919580
20
9.279612
30
0.0
10
13.719858
20
9.106678
30
0.0
10
12.518987
20
9.255692
30
0.0
10
11.389636
20
9.727379
30
0.0
10
10.404473
20
10.522462
30
0.0
10
9.636169
20
11.641667
30
0.0
10
8.971227
20
12.982222
30
0.0
10
5.871918
20
12.982222
30
0.0
10
2.772609
20
12.982222
30
0.0
10
2.963712
20
11.782778
30
0.0
10
3.623639
20
9.500374
30
0.0
10
4.777401
20
7.455331
30
0.0
10
6.323849
20
5.709127
30
0.0
10
8.161830
20
4.323243
30
0.0
10
10.190195
20
3.359158
30
0.0
10
12.307793
20
2.878352
30
0.0
10
14.413471
20
2.942305
30
0.0
10
15.430231
20
3.197778
30
0.0
10
16.406080
20
3.612496
30
0.0
10
16.406080
20
3.612496
30
0.0
62
0
0
LWPOLYLINE
100
AcDbPolyline
8
Layer_1
90
20
70
0
10
15.782735
20
11.592820
30
0.0
10
16.356883
20
12.363705
30
0.0
10
16.645561
20
13.194808
30
0.0
10
16.670426
20
14.036108
30
0.0
10
16.453133
20
14.837585
30
0.0
10
16.015339
20
15.549218
30
0.0
10
15.378701
20
16.120984
30
0.0
10
14.564873
20
16.502864
30
0.0
10
13.595513
20
16.644836
30
0.0
10
12.402623
20
16.443421
30
0.0
10
11.498391
20
15.854509
30
0.0
10
10.924954
20
14.921495
30
0.0
10
10.724444
20
13.687778
30
0.0
10
10.883632
20
12.468615
30
0.0
10
11.549402
20
11.549402
30
0.0
10
12.461871
20
10.886662
30
0.0
10
13.644359
20
10.724444
30
0.0
10
14.837102
20
10.891486
30
0.0
10
15.782735
20
11.592820
30
0.0
10
15.782735
20
11.592820
30
0.0
62
0
0
LWPOLYLINE
100
AcDbPolyline
8
Layer_1
90
18
70
0
10
12.602630
20
12.651667
30
0.0
10
12.283977
20
13.189770
30
0.0
10
12.151950
20
13.821297
30
0.0
10
12.213162
20
14.430426
30
0.0
10
12.474222
20
14.901333
30
0.0
10
13.046293
20
15.189611
30
0.0
10
13.792261
20
15.239187
30
0.0
10
14.497616
20
15.068029
30
0.0
10
14.947848
20
14.694109
30
0.0
10
15.178016
20
14.097616
30
0.0
10
15.216276
20
13.539596
30
0.0
10
15.064332
20
13.035963
30
0.0
10
14.723889
20
12.602630
30
0.0
10
14.188477
20
12.261526
30
0.0
10
13.627171
20
12.156674
30
0.0
10
13.083909
20
12.287060
30
0.0
10
12.602630
20
12.651667
30
0.0
10
12.602630
20
12.651667
30
0.0
62
0
0
LWPOLYLINE
100
AcDbPolyline
8
Layer_1
90
23
70
0
10
5.931567
20
14.605000
30
0.0
10
6.333900
20
16.691746
30
0.0
10
6.963120
20
18.876744
30
0.0
10
7.853947
20
20.731493
30
0.0
10
9.005019
20
22.253736
30
0.0
10
10.414972
20
23.441218
30
0.0
10
11.163300
20
24.035087
30
0.0
10
11.243942
20
24.197546
30
0.0
10
11.144245
20
24.268338
30
0.0
10
10.449867
20
24.128870
30
0.0
10
9.172222
20
23.604582
30
0.0
10
8.035121
20
22.975117
30
0.0
10
6.965805
20
22.193530
30
0.0
10
5.101518
20
20.265656
30
0.0
10
4.342045
20
19.165202
30
0.0
10
3.721351
20
18.004293
30
0.0
10
3.257183
20
16.805846
30
0.0
10
2.967290
20
15.592778
30
0.0
10
2.772609
20
14.393333
30
0.0
10
4.349638
20
14.393333
30
0.0
10
5.464854
20
14.455510
30
0.0
10
5.931567
20
14.605000
30
0.0
10
5.931567
20
14.605000
30
0.0
62
0
0
LWPOLYLINE
100
AcDbPolyline
8
Layer_1
90
39
70
0
10
28.010556
20
6.114344
30
0.0
10
27.093333
20
6.244651
30
0.0
10
27.093333
20
8.335245
30
0.0
10
27.093333
20
10.425839
30
0.0
10
30.832778
20
10.504586
30
0.0
10
34.064850
20
10.657966
30
0.0
10
34.532612
20
10.851184
30
0.0
10
34.659903
20
11.199238
30
0.0
10
34.542622
20
11.828940
30
0.0
10
33.875567
20
12.208094
30
0.0
10
32.513923
20
12.375729
30
0.0
10
30.312874
20
12.370878
30
0.0
10
27.092595
20
12.276667
30
0.0
10
27.092964
20
17.003889
30
0.0
10
27.093333
20
21.731111
30
0.0
10
33.584444
20
21.731111
30
0.0
10
40.075556
20
21.731111
30
0.0
10
40.075556
20
19.614444
30
0.0
10
40.075556
20
17.497778
30
0.0
10
36.547778
20
17.497778
30
0.0
10
33.020000
20
17.497778
30
0.0
10
33.021411
20
16.721667
30
0.0
10
33.022822
20
15.945556
30
0.0
10
35.408080
20
15.904107
30
0.0
10
37.199426
20
15.774225
30
0.0
10
38.592072
20
15.436625
30
0.0
10
39.658938
20
14.864329
30
0.0
10
40.472941
20
14.030360
30
0.0
10
40.931391
20
12.978860
30
0.0
10
41.047757
20
11.147778
30
0.0
10
40.942817
20
9.545781
30
0.0
10
40.557468
20
8.406703
30
0.0
10
39.785916
20
7.547842
30
0.0
10
38.522368
20
6.786496
30
0.0
10
37.659303
20
6.411151
30
0.0
10
36.706493
20
6.195462
30
0.0
10
33.033702
20
6.039070
30
0.0
10
28.010660
20
6.114344
30
0.0
10
28.010556
20
6.114344
30
0.0
  0
ENDSEC
  0
SECTION
  2
OBJECTS
  0
DICTIONARY
  5
C
330
0
100
AcDbDictionary
  3
ACAD_GROUP
350
D
  3
ACAD_MLINESTYLE
350
17
  0
DICTIONARY
  5
D
330
C
100
AcDbDictionary
  0
DICTIONARY
  5
1A
330
C
100
AcDbDictionary
  0
DICTIONARY
  5
17
330
C
100
AcDbDictionary
  3
STANDARD
350
18
  0
DICTIONARY
  5
19
330
C
100
AcDbDictionary
  0
ENDSEC
  0
EOF
