999
Inkscape export via OpenSCAD DXF Export
  0
SECTION
  2
HEADER
  9
$ACADVER
  1
AC1014
  9
$HANDSEED
  5
FFFF
  9
$MEASUREMENT
 70
     1
  0
ENDSEC
  0
SECTION
  2
TABLES
  0
TABLE
  2
VPORT
  5
8
330
0
100
AcDbSymbolTable
 70
     4
  0
VPORT
  5
2E
330
8
100
AcDbSymbolTableRecord
100
AcDbViewportTableRecord
  2
*ACTIVE
 70
     0
 10
0.0
 20
0.0
 11
1.0
 21
1.0
 12
210.0
 22
148.5
 13
0.0
 23
0.0
 14
10.0
 24
10.0
 15
10.0
 25
10.0
 16
0.0
 26
0.0
 36
1.0
 17
0.0
 27
0.0
 37
0.0
 40
341.0
 41
1.24
 42
50.0
 43
0.0
 44
0.0
 50
0.0
 51
0.0
 71
     0
 72
   100
 73
     1
 74
     3
 75
     0
 76
     0
 77
     0
 78
     0
  0
ENDTAB
  0
TABLE
  2
LTYPE
  5
5
330
0
100
AcDbSymbolTable
 70
     1
  0
LTYPE
  5
14
330
5
100
AcDbSymbolTableRecord
100
AcDbLinetypeTableRecord
  2
BYBLOCK
 70
     0
  3

 72
    65
 73
     0
 40
0.0
  0
LTYPE
  5
15
330
5
100
AcDbSymbolTableRecord
100
AcDbLinetypeTableRecord
  2
BYLAYER
 70
     0
  3

 72
    65
 73
     0
 40
0.0
  0
LTYPE
  5
16
330
5
100
AcDbSymbolTableRecord
100
AcDbLinetypeTableRecord
  2
CONTINUOUS
 70
     0
  3
Solid line
 72
    65
 73
     0
 40
0.0
  0
ENDTAB
  0
TABLE
0
TABLE
2
LAYER
5
2
330
0
100
AcDbSymbolTable
70
1
0
LAYER
5
10
330
2
100
AcDbSymbolTableRecord
100
AcDbLayerTableRecord
2
Layer_1
70
0
62
7
6
CONTINUOUS
0
ENDTAB
0
ENDSEC
  0
ENDTAB
  0
TABLE
  2
STYLE
  5
3
330
0
100
AcDbSymbolTable
 70
     1
  0
STYLE
  5
11
330
3
100
AcDbSymbolTableRecord
100
AcDbTextStyleTableRecord
  2
STANDARD
 70
     0
 40
0.0
 41
1.0
 50
0.0
 71
     0
 42
2.5
  3
txt
  4

  0
ENDTAB
  0
TABLE
  2
VIEW
  5
6
330
0
100
AcDbSymbolTable
 70
     0
  0
ENDTAB
  0
TABLE
  2
UCS
  5
7
330
0
100
AcDbSymbolTable
 70
     0
  0
ENDTAB
  0
TABLE
  2
APPID
  5
9
330
0
100
AcDbSymbolTable
 70
     2
  0
APPID
  5
12
330
9
100
AcDbSymbolTableRecord
100
AcDbRegAppTableRecord
  2
ACAD
 70
     0
  0
ENDTAB
  0
TABLE
  2
DIMSTYLE
  5
A
330
0
100
AcDbSymbolTable
 70
     1
  0
DIMSTYLE
105
27
330
A
100
AcDbSymbolTableRecord
100
AcDbDimStyleTableRecord
  2
ISO-25
 70
     0
  3

  4

  5

  6

  7

 40
1.0
 41
2.5
 42
0.625
 43
3.75
 44
1.25
 45
0.0
 46
0.0
 47
0.0
 48
0.0
140
2.5
141
2.5
142
0.0
143
0.03937007874016
144
1.0
145
0.0
146
1.0
147
0.625
 71
     0
 72
     0
 73
     0
 74
     0
 75
     0
 76
     0
 77
     1
 78
     8
170
     0
171
     3
172
     1
173
     0
174
     0
175
     0
176
     0
177
     0
178
     0
270
     2
271
     2
272
     2
273
     2
274
     3
340
11
275
     0
280
     0
281
     0
282
     0
283
     0
284
     8
285
     0
286
     0
287
     3
288
     0
  0
ENDTAB
  0
TABLE
  2
BLOCK_RECORD
  5
1
330
0
100
AcDbSymbolTable
 70
     1
  0
BLOCK_RECORD
  5
1F
330
1
100
AcDbSymbolTableRecord
100
AcDbBlockTableRecord
  2
*MODEL_SPACE
  0
BLOCK_RECORD
  5
1B
330
1
100
AcDbSymbolTableRecord
100
AcDbBlockTableRecord
  2
*PAPER_SPACE
  0
ENDTAB
  0
ENDSEC
  0
SECTION
  2
BLOCKS
  0
BLOCK
  5
20
330
1F
100
AcDbEntity
  8
0
100
AcDbBlockBegin
  2
*MODEL_SPACE
 70
     0
 10
0.0
 20
0.0
 30
0.0
  3
*MODEL_SPACE
  1

  0
ENDBLK
  5
21
330
1F
100
AcDbEntity
  8
0
100
AcDbBlockEnd
  0
BLOCK
  5
1C
330
1B
100
AcDbEntity
 67
     1
  8
0
100
AcDbBlockBegin
  2
*PAPER_SPACE
  1

  0
ENDBLK
  5
1D
330
1B
100
AcDbEntity
 67
     1
  8
0
100
AcDbBlockEnd
  0
ENDSEC
  0
SECTION
  2
ENTITIES
0
DIMENSION
5
83
100
AcDbEntity
62
256
370
-1
6
ByLayer
1
total_width
3
Standard
70
0
71
5
72
1
41
1.0
100
AcDbAlignedDimension
13
1.834444
23
0.000000
33
0.0
14
40.357778
24
0.000000
34
0.0
50
0.000000
100
AcDbRotatedDimension
0
DIMENSION
5
83
100
AcDbEntity
62
256
370
-1
6
ByLayer
1
total_minx
3
Standard
70
0
71
5
72
1
41
1.0
100
AcDbAlignedDimension
13
1.834444
23
0.000000
33
0.0
14
0.000000
24
0.000000
34
0.0
50
0.000000
100
AcDbRotatedDimension
0
DIMENSION
5
83
100
AcDbEntity
62
256
370
-1
6
ByLayer
1
total_maxx
3
Standard
70
0
71
5
72
1
41
1.0
100
AcDbAlignedDimension
13
0.000000
23
0.000000
33
0.0
14
40.357778
24
0.000000
34
0.0
50
0.000000
100
AcDbRotatedDimension
0
DIMENSION
5
83
100
AcDbEntity
62
256
370
-1
6
ByLayer
1
total_height
3
Standard
70
0
71
5
72
1
41
1.0
100
AcDbAlignedDimension
13
0.000000
23
1.855002
33
0.0
14
0.000000
24
24.653255
34
0.0
50
90.000000
100
AcDbRotatedDimension
0
DIMENSION
5
83
100
AcDbEntity
62
256
370
-1
6
ByLayer
1
total_miny
3
Standard
70
0
71
5
72
1
41
1.0
100
AcDbAlignedDimension
13
1.855002
23
0.000000
33
0.0
14
0.000000
24
0.000000
34
0.0
50
0.000000
100
AcDbRotatedDimension
0
DIMENSION
5
83
100
AcDbEntity
62
256
370
-1
6
ByLayer
1
total_maxy
3
Standard
70
0
71
5
72
1
41
1.0
100
AcDbAlignedDimension
13
0.000000
23
0.000000
33
0.0
14
24.653255
24
0.000000
34
0.0
50
0.000000
100
AcDbRotatedDimension
0
DIMENSION
8
Layer_1
5
83
100
AcDbEntity
62
256
370
-1
6
ByLayer
1
Layer_1_width
3
Standard
70
0
71
5
72
1
41
1.0
100
AcDbAlignedDimension
13
1.834444
23
0.000000
33
0.0
14
40.357778
24
0.000000
34
0.0
50
0.000000
100
AcDbRotatedDimension
0
DIMENSION
8
Layer_1
5
83
100
AcDbEntity
62
256
370
-1
6
ByLayer
1
Layer_1_minx
3
Standard
70
0
71
5
72
1
41
1.0
100
AcDbAlignedDimension
13
1.834444
23
0.000000
33
0.0
14
0.000000
24
0.000000
34
0.0
50
0.000000
100
AcDbRotatedDimension
0
DIMENSION
8
Layer_1
5
83
100
AcDbEntity
62
256
370
-1
6
ByLayer
1
Layer_1_maxx
3
Standard
70
0
71
5
72
1
41
1.0
100
AcDbAlignedDimension
13
0.000000
23
0.000000
33
0.0
14
40.357778
24
0.000000
34
0.0
50
0.000000
100
AcDbRotatedDimension
0
DIMENSION
8
Layer_1
5
83
100
AcDbEntity
62
256
370
-1
6
ByLayer
1
Layer_1_height
3
Standard
70
0
71
5
72
1
41
1.0
100
AcDbAlignedDimension
13
0.000000
23
1.855002
33
0.0
14
0.000000
24
24.653255
34
0.0
50
90.000000
100
AcDbRotatedDimension
0
DIMENSION
8
Layer_1
5
83
100
AcDbEntity
62
256
370
-1
6
ByLayer
1
Layer_1_miny
3
Standard
70
0
71
5
72
1
41
1.0
100
AcDbAlignedDimension
13
1.855002
23
0.000000
33
0.0
14
0.000000
24
0.000000
34
0.0
50
0.000000
100
AcDbRotatedDimension
0
DIMENSION
8
Layer_1
5
83
100
AcDbEntity
62
256
370
-1
6
ByLayer
1
Layer_1_maxy
3
Standard
70
0
71
5
72
1
41
1.0
100
AcDbAlignedDimension
13
0.000000
23
0.000000
33
0.0
14
24.653255
24
0.000000
34
0.0
50
0.000000
100
AcDbRotatedDimension
62
0
0
LWPOLYLINE
100
AcDbPolyline
8
Layer_1
90
44
70
0
10
11.059157
20
2.002877
30
0.0
10
9.757596
20
2.313205
30
0.0
10
8.492250
20
2.787658
30
0.0
10
7.281032
20
3.412745
30
0.0
10
6.141853
20
4.174977
30
0.0
10
5.092626
20
5.060864
30
0.0
10
4.151262
20
6.056916
30
0.0
10
3.335675
20
7.149643
30
0.0
10
2.663775
20
8.325556
30
0.0
10
2.208764
20
9.337201
30
0.0
10
1.959841
20
10.253587
30
0.0
10
1.834444
20
13.264444
30
0.0
10
1.959841
20
16.275302
30
0.0
10
2.208764
20
17.191688
30
0.0
10
2.663775
20
18.203333
30
0.0
10
3.659565
20
19.867069
30
0.0
10
4.892411
20
21.312458
30
0.0
10
6.326891
20
22.522043
30
0.0
10
7.927581
20
23.478370
30
0.0
10
9.659057
20
24.163984
30
0.0
10
11.485898
20
24.561431
30
0.0
10
13.372678
20
24.653255
30
0.0
10
15.283976
20
24.422001
30
0.0
10
17.075264
20
23.905126
30
0.0
10
18.683176
20
23.157153
30
0.0
10
20.102686
20
22.205274
30
0.0
10
21.328766
20
21.076682
30
0.0
10
22.356391
20
19.798569
30
0.0
10
23.180532
20
18.398127
30
0.0
10
23.796163
20
16.902548
30
0.0
10
24.198257
20
15.339025
30
0.0
10
24.381787
20
13.734750
30
0.0
10
24.341726
20
12.116915
30
0.0
10
24.073047
20
10.512713
30
0.0
10
23.570723
20
8.949336
30
0.0
10
22.829727
20
7.453976
30
0.0
10
21.845032
20
6.053825
30
0.0
10
20.611610
20
4.776075
30
0.0
10
19.124436
20
3.647920
30
0.0
10
17.275403
20
2.697718
30
0.0
10
15.248841
20
2.093347
30
0.0
10
13.143758
20
1.855002
30
0.0
10
11.059157
20
2.002877
30
0.0
10
11.059157
20
2.002877
30
0.0
62
0
0
LWPOLYLINE
100
AcDbPolyline
8
Layer_1
90
33
70
0
10
15.445036
20
3.862386
30
0.0
10
16.212177
20
4.326454
30
0.0
10
16.958560
20
4.971773
30
0.0
10
18.311652
20
6.683745
30
0.0
10
19.349515
20
8.753469
30
0.0
10
19.917358
20
10.936111
30
0.0
10
20.110495
20
12.417778
30
0.0
10
18.676267
20
12.417778
30
0.0
10
17.866414
20
12.395341
30
0.0
10
17.380273
20
12.275167
30
0.0
10
17.065729
20
11.977965
30
0.0
10
16.770669
20
11.424442
30
0.0
10
16.182287
20
10.517627
30
0.0
10
15.388559
20
9.816957
30
0.0
10
14.417956
20
9.341409
30
0.0
10
13.298943
20
9.109963
30
0.0
10
12.085549
20
9.163884
30
0.0
10
11.015261
20
9.543244
30
0.0
10
10.102764
20
10.240073
30
0.0
10
9.362744
20
11.246401
30
0.0
10
8.706598
20
12.417778
30
0.0
10
5.869451
20
12.417778
30
0.0
10
3.032304
20
12.417778
30
0.0
10
3.216550
20
11.265565
30
0.0
10
3.805104
20
9.282565
30
0.0
10
4.849920
20
7.488109
30
0.0
10
6.257155
20
5.939012
30
0.0
10
7.932963
20
4.692086
30
0.0
10
9.783499
20
3.804147
30
0.0
10
11.714920
20
3.332008
30
0.0
10
13.633380
20
3.332483
30
0.0
10
15.445036
20
3.862386
30
0.0
10
15.445036
20
3.862386
30
0.0
62
0
0
LWPOLYLINE
100
AcDbPolyline
8
Layer_1
90
22
70
0
10
14.352404
20
10.844390
30
0.0
10
14.974880
20
11.301703
30
0.0
10
15.414356
20
11.902059
30
0.0
10
15.671758
20
12.596198
30
0.0
10
15.748014
20
13.334858
30
0.0
10
15.644050
20
14.068779
30
0.0
10
15.360793
20
14.748700
30
0.0
10
14.899170
20
15.325361
30
0.0
10
14.260108
20
15.749500
30
0.0
10
13.165844
20
16.036307
30
0.0
10
12.119980
20
15.926564
30
0.0
10
11.219695
20
15.449572
30
0.0
10
10.562168
20
14.634626
30
0.0
10
10.239606
20
13.681914
30
0.0
10
10.235259
20
12.775351
30
0.0
10
10.503782
20
11.960283
30
0.0
10
10.999830
20
11.282052
30
0.0
10
11.678061
20
10.786004
30
0.0
10
12.493129
20
10.517481
30
0.0
10
13.399692
20
10.521829
30
0.0
10
14.352404
20
10.844390
30
0.0
10
14.352404
20
10.844390
30
0.0
62
0
0
LWPOLYLINE
100
AcDbPolyline
8
Layer_1
90
18
70
0
10
12.014603
20
12.296826
30
0.0
10
11.709383
20
12.770858
30
0.0
10
11.586715
20
13.336150
30
0.0
10
11.651785
20
13.891796
30
0.0
10
11.909778
20
14.336889
30
0.0
10
12.367703
20
14.582462
30
0.0
10
12.982222
20
14.664320
30
0.0
10
13.596741
20
14.582462
30
0.0
10
14.054667
20
14.336889
30
0.0
10
14.335685
20
13.814651
30
0.0
10
14.384303
20
13.164116
30
0.0
10
14.216297
20
12.552116
30
0.0
10
13.847442
20
12.145485
30
0.0
10
13.310544
20
11.923755
30
0.0
10
12.837234
20
11.874149
30
0.0
10
12.410818
20
11.998046
30
0.0
10
12.014603
20
12.296826
30
0.0
10
12.014603
20
12.296826
30
0.0
62
0
0
LWPOLYLINE
100
AcDbPolyline
8
Layer_1
90
20
70
0
10
6.076678
20
15.310556
30
0.0
10
6.704284
20
17.660361
30
0.0
10
7.715187
20
19.754786
30
0.0
10
9.012007
20
21.434565
30
0.0
10
9.737204
20
22.069193
30
0.0
10
10.497362
20
22.540435
30
0.0
10
11.323480
20
23.036400
30
0.0
10
11.340365
20
23.134914
30
0.0
10
11.139104
20
23.139957
30
0.0
10
10.220062
20
22.888162
30
0.0
10
8.842181
20
22.318070
30
0.0
10
6.794329
20
21.033929
30
0.0
10
5.104527
20
19.342837
30
0.0
10
3.877144
20
17.375674
30
0.0
10
3.469476
20
16.329467
30
0.0
10
3.216550
20
15.263324
30
0.0
10
3.032304
20
14.111111
30
0.0
10
4.454679
20
14.111111
30
0.0
10
5.877053
20
14.111111
30
0.0
10
6.076678
20
15.310556
30
0.0
62
0
0
LWPOLYLINE
100
AcDbPolyline
8
Layer_1
90
43
70
0
10
25.964444
20
8.848264
30
0.0
10
26.064577
20
12.171797
30
0.0
10
26.255957
20
12.944368
30
0.0
10
26.600403
20
13.560228
30
0.0
10
27.439514
20
14.540691
30
0.0
10
28.484967
20
15.200965
30
0.0
10
29.875538
20
15.601479
30
0.0
10
31.750000
20
15.802664
30
0.0
10
33.884083
20
16.012924
30
0.0
10
34.217156
20
16.201687
30
0.0
10
34.290000
20
16.510000
30
0.0
10
34.194837
20
16.825853
30
0.0
10
33.689335
20
17.004268
30
0.0
10
30.127222
20
17.152545
30
0.0
10
25.964444
20
17.230645
30
0.0
10
25.964444
20
19.339767
30
0.0
10
25.964444
20
21.448889
30
0.0
10
31.731627
20
21.448889
30
0.0
10
35.332731
20
21.411147
30
0.0
10
37.535015
20
21.248503
30
0.0
10
38.833392
20
20.886831
30
0.0
10
39.722778
20
20.252005
30
0.0
10
40.066259
20
19.848694
30
0.0
10
40.257400
20
19.291247
30
0.0
10
40.357778
20
16.747480
30
0.0
10
40.246768
20
14.123855
30
0.0
10
40.011483
20
13.513160
30
0.0
10
39.570547
20
12.956731
30
0.0
10
39.070709
20
12.466542
30
0.0
10
38.499066
20
12.169573
30
0.0
10
36.113325
20
11.816590
30
0.0
10
33.176039
20
11.412579
30
0.0
10
32.798392
20
11.125140
30
0.0
10
32.788538
20
10.655151
30
0.0
10
32.912438
20
10.293066
30
0.0
10
33.372164
20
10.094252
30
0.0
10
36.618333
20
9.940142
30
0.0
10
40.357778
20
9.861395
30
0.0
10
40.357778
20
7.470697
30
0.0
10
40.357778
20
5.080000
30
0.0
10
33.161111
20
5.080000
30
0.0
10
25.964444
20
5.080000
30
0.0
10
25.964444
20
8.848264
30
0.0
  0
ENDSEC
  0
SECTION
  2
OBJECTS
  0
DICTIONARY
  5
C
330
0
100
AcDbDictionary
  3
ACAD_GROUP
350
D
  3
ACAD_MLINESTYLE
350
17
  0
DICTIONARY
  5
D
330
C
100
AcDbDictionary
  0
DICTIONARY
  5
1A
330
C
100
AcDbDictionary
  0
DICTIONARY
  5
17
330
C
100
AcDbDictionary
  3
STANDARD
350
18
  0
DICTIONARY
  5
19
330
C
100
AcDbDictionary
  0
ENDSEC
  0
EOF
