999
Inkscape export via OpenSCAD DXF Export
  0
SECTION
  2
HEADER
  9
$ACADVER
  1
AC1014
  9
$HANDSEED
  5
FFFF
  9
$MEASUREMENT
 70
     1
  0
ENDSEC
  0
SECTION
  2
TABLES
  0
TABLE
  2
VPORT
  5
8
330
0
100
AcDbSymbolTable
 70
     4
  0
VPORT
  5
2E
330
8
100
AcDbSymbolTableRecord
100
AcDbViewportTableRecord
  2
*ACTIVE
 70
     0
 10
0.0
 20
0.0
 11
1.0
 21
1.0
 12
210.0
 22
148.5
 13
0.0
 23
0.0
 14
10.0
 24
10.0
 15
10.0
 25
10.0
 16
0.0
 26
0.0
 36
1.0
 17
0.0
 27
0.0
 37
0.0
 40
341.0
 41
1.24
 42
50.0
 43
0.0
 44
0.0
 50
0.0
 51
0.0
 71
     0
 72
   100
 73
     1
 74
     3
 75
     0
 76
     0
 77
     0
 78
     0
  0
ENDTAB
  0
TABLE
  2
LTYPE
  5
5
330
0
100
AcDbSymbolTable
 70
     1
  0
LTYPE
  5
14
330
5
100
AcDbSymbolTableRecord
100
AcDbLinetypeTableRecord
  2
BYBLOCK
 70
     0
  3

 72
    65
 73
     0
 40
0.0
  0
LTYPE
  5
15
330
5
100
AcDbSymbolTableRecord
100
AcDbLinetypeTableRecord
  2
BYLAYER
 70
     0
  3

 72
    65
 73
     0
 40
0.0
  0
LTYPE
  5
16
330
5
100
AcDbSymbolTableRecord
100
AcDbLinetypeTableRecord
  2
CONTINUOUS
 70
     0
  3
Solid line
 72
    65
 73
     0
 40
0.0
  0
ENDTAB
  0
TABLE
0
TABLE
2
LAYER
5
2
330
0
100
AcDbSymbolTable
70
1
0
LAYER
5
10
330
2
100
AcDbSymbolTableRecord
100
AcDbLayerTableRecord
2
Layer_1
70
0
62
7
6
CONTINUOUS
0
ENDTAB
0
ENDSEC
  0
ENDTAB
  0
TABLE
  2
STYLE
  5
3
330
0
100
AcDbSymbolTable
 70
     1
  0
STYLE
  5
11
330
3
100
AcDbSymbolTableRecord
100
AcDbTextStyleTableRecord
  2
STANDARD
 70
     0
 40
0.0
 41
1.0
 50
0.0
 71
     0
 42
2.5
  3
txt
  4

  0
ENDTAB
  0
TABLE
  2
VIEW
  5
6
330
0
100
AcDbSymbolTable
 70
     0
  0
ENDTAB
  0
TABLE
  2
UCS
  5
7
330
0
100
AcDbSymbolTable
 70
     0
  0
ENDTAB
  0
TABLE
  2
APPID
  5
9
330
0
100
AcDbSymbolTable
 70
     2
  0
APPID
  5
12
330
9
100
AcDbSymbolTableRecord
100
AcDbRegAppTableRecord
  2
ACAD
 70
     0
  0
ENDTAB
  0
TABLE
  2
DIMSTYLE
  5
A
330
0
100
AcDbSymbolTable
 70
     1
  0
DIMSTYLE
105
27
330
A
100
AcDbSymbolTableRecord
100
AcDbDimStyleTableRecord
  2
ISO-25
 70
     0
  3

  4

  5

  6

  7

 40
1.0
 41
2.5
 42
0.625
 43
3.75
 44
1.25
 45
0.0
 46
0.0
 47
0.0
 48
0.0
140
2.5
141
2.5
142
0.0
143
0.03937007874016
144
1.0
145
0.0
146
1.0
147
0.625
 71
     0
 72
     0
 73
     0
 74
     0
 75
     0
 76
     0
 77
     1
 78
     8
170
     0
171
     3
172
     1
173
     0
174
     0
175
     0
176
     0
177
     0
178
     0
270
     2
271
     2
272
     2
273
     2
274
     3
340
11
275
     0
280
     0
281
     0
282
     0
283
     0
284
     8
285
     0
286
     0
287
     3
288
     0
  0
ENDTAB
  0
TABLE
  2
BLOCK_RECORD
  5
1
330
0
100
AcDbSymbolTable
 70
     1
  0
BLOCK_RECORD
  5
1F
330
1
100
AcDbSymbolTableRecord
100
AcDbBlockTableRecord
  2
*MODEL_SPACE
  0
BLOCK_RECORD
  5
1B
330
1
100
AcDbSymbolTableRecord
100
AcDbBlockTableRecord
  2
*PAPER_SPACE
  0
ENDTAB
  0
ENDSEC
  0
SECTION
  2
BLOCKS
  0
BLOCK
  5
20
330
1F
100
AcDbEntity
  8
0
100
AcDbBlockBegin
  2
*MODEL_SPACE
 70
     0
 10
0.0
 20
0.0
 30
0.0
  3
*MODEL_SPACE
  1

  0
ENDBLK
  5
21
330
1F
100
AcDbEntity
  8
0
100
AcDbBlockEnd
  0
BLOCK
  5
1C
330
1B
100
AcDbEntity
 67
     1
  8
0
100
AcDbBlockBegin
  2
*PAPER_SPACE
  1

  0
ENDBLK
  5
1D
330
1B
100
AcDbEntity
 67
     1
  8
0
100
AcDbBlockEnd
  0
ENDSEC
  0
SECTION
  2
ENTITIES
0
DIMENSION
5
83
100
AcDbEntity
62
256
370
-1
6
ByLayer
1
total_width
3
Standard
70
0
71
5
72
1
41
1.0
100
AcDbAlignedDimension
13
1.199413
23
0.000000
33
0.0
14
41.106200
24
0.000000
34
0.0
50
0.000000
100
AcDbRotatedDimension
0
DIMENSION
5
83
100
AcDbEntity
62
256
370
-1
6
ByLayer
1
total_minx
3
Standard
70
0
71
5
72
1
41
1.0
100
AcDbAlignedDimension
13
1.199413
23
0.000000
33
0.0
14
0.000000
24
0.000000
34
0.0
50
0.000000
100
AcDbRotatedDimension
0
DIMENSION
5
83
100
AcDbEntity
62
256
370
-1
6
ByLayer
1
total_maxx
3
Standard
70
0
71
5
72
1
41
1.0
100
AcDbAlignedDimension
13
0.000000
23
0.000000
33
0.0
14
41.106200
24
0.000000
34
0.0
50
0.000000
100
AcDbRotatedDimension
0
DIMENSION
5
83
100
AcDbEntity
62
256
370
-1
6
ByLayer
1
total_height
3
Standard
70
0
71
5
72
1
41
1.0
100
AcDbAlignedDimension
13
0.000000
23
1.211044
33
0.0
14
0.000000
24
24.469583
34
0.0
50
90.000000
100
AcDbRotatedDimension
0
DIMENSION
5
83
100
AcDbEntity
62
256
370
-1
6
ByLayer
1
total_miny
3
Standard
70
0
71
5
72
1
41
1.0
100
AcDbAlignedDimension
13
1.211044
23
0.000000
33
0.0
14
0.000000
24
0.000000
34
0.0
50
0.000000
100
AcDbRotatedDimension
0
DIMENSION
5
83
100
AcDbEntity
62
256
370
-1
6
ByLayer
1
total_maxy
3
Standard
70
0
71
5
72
1
41
1.0
100
AcDbAlignedDimension
13
0.000000
23
0.000000
33
0.0
14
24.469583
24
0.000000
34
0.0
50
0.000000
100
AcDbRotatedDimension
0
DIMENSION
8
Layer_1
5
83
100
AcDbEntity
62
256
370
-1
6
ByLayer
1
Layer_1_width
3
Standard
70
0
71
5
72
1
41
1.0
100
AcDbAlignedDimension
13
1.199413
23
0.000000
33
0.0
14
41.106200
24
0.000000
34
0.0
50
0.000000
100
AcDbRotatedDimension
0
DIMENSION
8
Layer_1
5
83
100
AcDbEntity
62
256
370
-1
6
ByLayer
1
Layer_1_minx
3
Standard
70
0
71
5
72
1
41
1.0
100
AcDbAlignedDimension
13
1.199413
23
0.000000
33
0.0
14
0.000000
24
0.000000
34
0.0
50
0.000000
100
AcDbRotatedDimension
0
DIMENSION
8
Layer_1
5
83
100
AcDbEntity
62
256
370
-1
6
ByLayer
1
Layer_1_maxx
3
Standard
70
0
71
5
72
1
41
1.0
100
AcDbAlignedDimension
13
0.000000
23
0.000000
33
0.0
14
41.106200
24
0.000000
34
0.0
50
0.000000
100
AcDbRotatedDimension
0
DIMENSION
8
Layer_1
5
83
100
AcDbEntity
62
256
370
-1
6
ByLayer
1
Layer_1_height
3
Standard
70
0
71
5
72
1
41
1.0
100
AcDbAlignedDimension
13
0.000000
23
1.211044
33
0.0
14
0.000000
24
24.469583
34
0.0
50
90.000000
100
AcDbRotatedDimension
0
DIMENSION
8
Layer_1
5
83
100
AcDbEntity
62
256
370
-1
6
ByLayer
1
Layer_1_miny
3
Standard
70
0
71
5
72
1
41
1.0
100
AcDbAlignedDimension
13
1.211044
23
0.000000
33
0.0
14
0.000000
24
0.000000
34
0.0
50
0.000000
100
AcDbRotatedDimension
0
DIMENSION
8
Layer_1
5
83
100
AcDbEntity
62
256
370
-1
6
ByLayer
1
Layer_1_maxy
3
Standard
70
0
71
5
72
1
41
1.0
100
AcDbAlignedDimension
13
0.000000
23
0.000000
33
0.0
14
24.469583
24
0.000000
34
0.0
50
0.000000
100
AcDbRotatedDimension
62
0
0
LWPOLYLINE
100
AcDbPolyline
8
Layer_1
90
44
70
0
10
9.948524
20
1.564963
30
0.0
10
8.404229
20
2.070538
30
0.0
10
7.060943
20
2.721444
30
0.0
10
5.822849
20
3.573468
30
0.0
10
4.594126
20
4.682396
30
0.0
10
3.104205
20
6.502531
30
0.0
10
2.041893
20
8.513271
30
0.0
10
1.407019
20
10.651465
30
0.0
10
1.199413
20
12.853962
30
0.0
10
1.418904
20
15.057611
30
0.0
10
2.065323
20
17.199262
30
0.0
10
3.138499
20
19.215762
30
0.0
10
4.638261
20
21.043961
30
0.0
10
5.765622
20
22.041955
30
0.0
10
6.966196
20
22.865634
30
0.0
10
8.225788
20
23.517617
30
0.0
10
9.530206
20
24.000523
30
0.0
10
10.865257
20
24.316973
30
0.0
10
12.216748
20
24.469583
30
0.0
10
13.570486
20
24.460975
30
0.0
10
14.912276
20
24.293767
30
0.0
10
16.227927
20
23.970579
30
0.0
10
17.503246
20
23.494028
30
0.0
10
18.724038
20
22.866736
30
0.0
10
19.876111
20
22.091320
30
0.0
10
20.945272
20
21.170400
30
0.0
10
21.917327
20
20.106594
30
0.0
10
22.778085
20
18.902524
30
0.0
10
23.513350
20
17.560806
30
0.0
10
24.001392
20
16.453386
30
0.0
10
24.271758
20
15.518825
30
0.0
10
24.412222
20
12.841111
30
0.0
10
24.271758
20
10.163397
30
0.0
10
24.001392
20
9.228836
30
0.0
10
23.513350
20
8.121416
30
0.0
10
22.433524
20
6.261816
30
0.0
10
21.098887
20
4.661247
30
0.0
10
19.548876
20
3.338773
30
0.0
10
17.822930
20
2.313454
30
0.0
10
15.960484
20
1.604351
30
0.0
10
14.000976
20
1.230528
30
0.0
10
11.983844
20
1.211044
30
0.0
10
9.948524
20
1.564963
30
0.0
10
9.948524
20
1.564963
30
0.0
62
0
0
LWPOLYLINE
100
AcDbPolyline
8
Layer_1
90
34
70
0
10
15.114583
20
3.209911
30
0.0
10
16.030560
20
3.733284
30
0.0
10
16.878992
20
4.411117
30
0.0
10
18.330804
20
6.163745
30
0.0
10
19.385177
20
8.334962
30
0.0
10
19.957268
20
10.791934
30
0.0
10
20.116400
20
12.135556
30
0.0
10
18.669765
20
12.135556
30
0.0
10
17.376508
20
12.000662
30
0.0
10
17.083833
20
11.722126
30
0.0
10
16.834385
20
11.205156
30
0.0
10
16.320873
20
10.346272
30
0.0
10
15.575926
20
9.565988
30
0.0
10
14.705008
20
8.955103
30
0.0
10
13.813587
20
8.604417
30
0.0
10
12.310841
20
8.560963
30
0.0
10
10.882052
20
9.032438
30
0.0
10
9.677593
20
9.940088
30
0.0
10
8.847838
20
11.205156
30
0.0
10
8.459092
20
12.135556
30
0.0
10
5.640657
20
12.135556
30
0.0
10
2.822222
20
12.135556
30
0.0
10
2.822445
20
11.218333
30
0.0
10
3.070980
20
9.984864
30
0.0
10
3.717442
20
8.454101
30
0.0
10
4.613811
20
6.920076
30
0.0
10
5.612069
20
5.676820
30
0.0
10
7.136732
20
4.436119
30
0.0
10
8.909510
20
3.468462
30
0.0
10
10.805550
20
2.828556
30
0.0
10
12.700000
20
2.571107
30
0.0
10
13.816742
20
2.748198
30
0.0
10
15.114583
20
3.209911
30
0.0
10
15.114583
20
3.209911
30
0.0
62
0
0
LWPOLYLINE
100
AcDbPolyline
8
Layer_1
90
24
70
0
10
14.274713
20
10.409899
30
0.0
10
14.833440
20
10.835642
30
0.0
10
15.257298
20
11.337057
30
0.0
10
15.690503
20
12.487962
30
0.0
10
15.554508
20
13.704735
30
0.0
10
15.266867
20
14.288484
30
0.0
10
14.829495
20
14.829495
30
0.0
10
14.132403
20
15.380218
30
0.0
10
13.402237
20
15.657684
30
0.0
10
12.613863
20
15.666632
30
0.0
10
11.742148
20
15.411803
30
0.0
10
11.010398
20
14.973720
30
0.0
10
10.478769
20
14.385812
30
0.0
10
10.148807
20
13.695580
30
0.0
10
10.022058
20
12.950525
30
0.0
10
10.100068
20
12.198149
30
0.0
10
10.384383
20
11.485953
30
0.0
10
10.876549
20
10.861438
30
0.0
10
11.578113
20
10.372105
30
0.0
10
12.371000
20
10.022733
30
0.0
10
12.987758
20
9.911215
30
0.0
10
13.573843
20
10.039591
30
0.0
10
14.274713
20
10.409899
30
0.0
10
14.274713
20
10.409899
30
0.0
62
0
0
LWPOLYLINE
100
AcDbPolyline
8
Layer_1
90
17
70
0
10
12.214554
20
11.595604
30
0.0
10
11.681907
20
11.982910
30
0.0
10
11.403212
20
12.573431
30
0.0
10
11.407179
20
13.236203
30
0.0
10
11.722514
20
13.840261
30
0.0
10
12.255074
20
14.240197
30
0.0
10
12.846221
20
14.369856
30
0.0
10
13.439320
20
14.229737
30
0.0
10
13.977734
20
13.820342
30
0.0
10
14.255577
20
13.378432
30
0.0
10
14.340585
20
12.919633
30
0.0
10
14.257999
20
12.475792
30
0.0
10
14.033059
20
12.078755
30
0.0
10
13.257075
20
11.552486
30
0.0
10
12.756512
20
11.486947
30
0.0
10
12.214554
20
11.595603
30
0.0
10
12.214554
20
11.595604
30
0.0
62
0
0
LWPOLYLINE
100
AcDbPolyline
8
Layer_1
90
20
70
0
10
5.862161
20
15.253100
30
0.0
10
6.552195
20
17.653087
30
0.0
10
7.627912
20
19.751811
30
0.0
10
8.993344
20
21.401893
30
0.0
10
9.754712
20
22.012637
30
0.0
10
10.552519
20
22.455954
30
0.0
10
11.110986
20
22.755797
30
0.0
10
10.865556
20
22.848731
30
0.0
10
9.803506
20
22.588766
30
0.0
10
8.343236
20
21.909710
30
0.0
10
6.846942
20
21.005520
30
0.0
10
5.676820
20
20.070153
30
0.0
10
4.715923
20
18.930917
30
0.0
10
3.883790
20
17.598521
30
0.0
10
3.240951
20
16.185623
30
0.0
10
2.847933
20
14.804883
30
0.0
10
2.612873
20
13.546667
30
0.0
10
4.078845
20
13.546667
30
0.0
10
5.544817
20
13.546667
30
0.0
10
5.862161
20
15.253100
30
0.0
62
0
0
LWPOLYLINE
100
AcDbPolyline
8
Layer_1
90
43
70
0
10
29.508540
20
6.051270
30
0.0
10
27.728527
20
6.951221
30
0.0
10
27.088948
20
7.526396
30
0.0
10
26.594339
20
8.224600
30
0.0
10
26.228214
20
9.075502
30
0.0
10
25.974087
20
10.108774
30
0.0
10
25.735884
20
12.841111
30
0.0
10
25.776557
20
15.718827
30
0.0
10
26.003328
20
16.561234
30
0.0
10
26.441439
20
17.491930
30
0.0
10
27.353745
20
18.874759
30
0.0
10
28.636530
20
19.749707
30
0.0
10
29.517065
20
20.143383
30
0.0
10
30.476869
20
20.356537
30
0.0
10
34.422086
20
20.461111
30
0.0
10
38.805556
20
20.461111
30
0.0
10
38.887950
20
18.440984
30
0.0
10
38.970345
20
16.420858
30
0.0
10
36.148363
20
16.576358
30
0.0
10
34.238907
20
16.609055
30
0.0
10
32.965222
20
16.432683
30
0.0
10
32.202681
20
16.010614
30
0.0
10
31.826654
20
15.306221
30
0.0
10
31.816629
20
15.012761
30
0.0
10
32.126888
20
14.868321
30
0.0
10
34.562344
20
14.899533
30
0.0
10
37.426049
20
14.812716
30
0.0
10
38.508913
20
14.577336
30
0.0
10
39.381546
20
14.200916
30
0.0
10
40.060770
20
13.673658
30
0.0
10
40.563406
20
12.985769
30
0.0
10
40.906276
20
12.127453
30
0.0
10
41.106200
20
11.088913
30
0.0
10
41.097535
20
9.586078
30
0.0
10
40.698288
20
8.300851
30
0.0
10
39.918789
20
7.253667
30
0.0
10
38.769363
20
6.464963
30
0.0
10
37.936337
20
6.112969
30
0.0
10
37.035660
20
5.897605
30
0.0
10
34.007778
20
5.715699
30
0.0
10
31.147353
20
5.753037
30
0.0
10
29.508540
20
6.051270
30
0.0
10
29.508540
20
6.051270
30
0.0
62
0
0
LWPOLYLINE
100
AcDbPolyline
8
Layer_1
90
18
70
0
10
34.939111
20
9.652000
30
0.0
10
35.178294
20
10.065279
30
0.0
10
35.277778
20
10.583333
30
0.0
10
35.171893
20
11.157169
30
0.0
10
34.842549
20
11.552021
30
0.0
10
34.272208
20
11.780029
30
0.0
10
33.443333
20
11.853333
30
0.0
10
32.526640
20
11.753850
30
0.0
10
31.947556
20
11.514667
30
0.0
10
31.681539
20
11.054230
30
0.0
10
31.625413
20
10.503093
30
0.0
10
31.769164
20
9.983617
30
0.0
10
32.102778
20
9.618161
30
0.0
10
32.776074
20
9.398084
30
0.0
10
33.622888
20
9.332150
30
0.0
10
34.418731
20
9.417682
30
0.0
10
34.939111
20
9.652000
30
0.0
10
34.939111
20
9.652000
30
0.0
  0
ENDSEC
  0
SECTION
  2
OBJECTS
  0
DICTIONARY
  5
C
330
0
100
AcDbDictionary
  3
ACAD_GROUP
350
D
  3
ACAD_MLINESTYLE
350
17
  0
DICTIONARY
  5
D
330
C
100
AcDbDictionary
  0
DICTIONARY
  5
1A
330
C
100
AcDbDictionary
  0
DICTIONARY
  5
17
330
C
100
AcDbDictionary
  3
STANDARD
350
18
  0
DICTIONARY
  5
19
330
C
100
AcDbDictionary
  0
ENDSEC
  0
EOF
