999
Inkscape export via OpenSCAD DXF Export
  0
SECTION
  2
HEADER
  9
$ACADVER
  1
AC1014
  9
$HANDSEED
  5
FFFF
  9
$MEASUREMENT
 70
     1
  0
ENDSEC
  0
SECTION
  2
TABLES
  0
TABLE
  2
VPORT
  5
8
330
0
100
AcDbSymbolTable
 70
     4
  0
VPORT
  5
2E
330
8
100
AcDbSymbolTableRecord
100
AcDbViewportTableRecord
  2
*ACTIVE
 70
     0
 10
0.0
 20
0.0
 11
1.0
 21
1.0
 12
210.0
 22
148.5
 13
0.0
 23
0.0
 14
10.0
 24
10.0
 15
10.0
 25
10.0
 16
0.0
 26
0.0
 36
1.0
 17
0.0
 27
0.0
 37
0.0
 40
341.0
 41
1.24
 42
50.0
 43
0.0
 44
0.0
 50
0.0
 51
0.0
 71
     0
 72
   100
 73
     1
 74
     3
 75
     0
 76
     0
 77
     0
 78
     0
  0
ENDTAB
  0
TABLE
  2
LTYPE
  5
5
330
0
100
AcDbSymbolTable
 70
     1
  0
LTYPE
  5
14
330
5
100
AcDbSymbolTableRecord
100
AcDbLinetypeTableRecord
  2
BYBLOCK
 70
     0
  3

 72
    65
 73
     0
 40
0.0
  0
LTYPE
  5
15
330
5
100
AcDbSymbolTableRecord
100
AcDbLinetypeTableRecord
  2
BYLAYER
 70
     0
  3

 72
    65
 73
     0
 40
0.0
  0
LTYPE
  5
16
330
5
100
AcDbSymbolTableRecord
100
AcDbLinetypeTableRecord
  2
CONTINUOUS
 70
     0
  3
Solid line
 72
    65
 73
     0
 40
0.0
  0
ENDTAB
  0
TABLE
0
TABLE
2
LAYER
5
2
330
0
100
AcDbSymbolTable
70
1
0
LAYER
5
10
330
2
100
AcDbSymbolTableRecord
100
AcDbLayerTableRecord
2
Layer_1
70
0
62
7
6
CONTINUOUS
0
ENDTAB
0
ENDSEC
  0
ENDTAB
  0
TABLE
  2
STYLE
  5
3
330
0
100
AcDbSymbolTable
 70
     1
  0
STYLE
  5
11
330
3
100
AcDbSymbolTableRecord
100
AcDbTextStyleTableRecord
  2
STANDARD
 70
     0
 40
0.0
 41
1.0
 50
0.0
 71
     0
 42
2.5
  3
txt
  4

  0
ENDTAB
  0
TABLE
  2
VIEW
  5
6
330
0
100
AcDbSymbolTable
 70
     0
  0
ENDTAB
  0
TABLE
  2
UCS
  5
7
330
0
100
AcDbSymbolTable
 70
     0
  0
ENDTAB
  0
TABLE
  2
APPID
  5
9
330
0
100
AcDbSymbolTable
 70
     2
  0
APPID
  5
12
330
9
100
AcDbSymbolTableRecord
100
AcDbRegAppTableRecord
  2
ACAD
 70
     0
  0
ENDTAB
  0
TABLE
  2
DIMSTYLE
  5
A
330
0
100
AcDbSymbolTable
 70
     1
  0
DIMSTYLE
105
27
330
A
100
AcDbSymbolTableRecord
100
AcDbDimStyleTableRecord
  2
ISO-25
 70
     0
  3

  4

  5

  6

  7

 40
1.0
 41
2.5
 42
0.625
 43
3.75
 44
1.25
 45
0.0
 46
0.0
 47
0.0
 48
0.0
140
2.5
141
2.5
142
0.0
143
0.03937007874016
144
1.0
145
0.0
146
1.0
147
0.625
 71
     0
 72
     0
 73
     0
 74
     0
 75
     0
 76
     0
 77
     1
 78
     8
170
     0
171
     3
172
     1
173
     0
174
     0
175
     0
176
     0
177
     0
178
     0
270
     2
271
     2
272
     2
273
     2
274
     3
340
11
275
     0
280
     0
281
     0
282
     0
283
     0
284
     8
285
     0
286
     0
287
     3
288
     0
  0
ENDTAB
  0
TABLE
  2
BLOCK_RECORD
  5
1
330
0
100
AcDbSymbolTable
 70
     1
  0
BLOCK_RECORD
  5
1F
330
1
100
AcDbSymbolTableRecord
100
AcDbBlockTableRecord
  2
*MODEL_SPACE
  0
BLOCK_RECORD
  5
1B
330
1
100
AcDbSymbolTableRecord
100
AcDbBlockTableRecord
  2
*PAPER_SPACE
  0
ENDTAB
  0
ENDSEC
  0
SECTION
  2
BLOCKS
  0
BLOCK
  5
20
330
1F
100
AcDbEntity
  8
0
100
AcDbBlockBegin
  2
*MODEL_SPACE
 70
     0
 10
0.0
 20
0.0
 30
0.0
  3
*MODEL_SPACE
  1

  0
ENDBLK
  5
21
330
1F
100
AcDbEntity
  8
0
100
AcDbBlockEnd
  0
BLOCK
  5
1C
330
1B
100
AcDbEntity
 67
     1
  8
0
100
AcDbBlockBegin
  2
*PAPER_SPACE
  1

  0
ENDBLK
  5
1D
330
1B
100
AcDbEntity
 67
     1
  8
0
100
AcDbBlockEnd
  0
ENDSEC
  0
SECTION
  2
ENTITIES
0
DIMENSION
5
83
100
AcDbEntity
62
256
370
-1
6
ByLayer
1
total_width
3
Standard
70
0
71
5
72
1
41
1.0
100
AcDbAlignedDimension
13
1.217363
23
0.000000
33
0.0
14
41.204444
24
0.000000
34
0.0
50
0.000000
100
AcDbRotatedDimension
0
DIMENSION
5
83
100
AcDbEntity
62
256
370
-1
6
ByLayer
1
total_minx
3
Standard
70
0
71
5
72
1
41
1.0
100
AcDbAlignedDimension
13
1.217363
23
0.000000
33
0.0
14
0.000000
24
0.000000
34
0.0
50
0.000000
100
AcDbRotatedDimension
0
DIMENSION
5
83
100
AcDbEntity
62
256
370
-1
6
ByLayer
1
total_maxx
3
Standard
70
0
71
5
72
1
41
1.0
100
AcDbAlignedDimension
13
0.000000
23
0.000000
33
0.0
14
41.204444
24
0.000000
34
0.0
50
0.000000
100
AcDbRotatedDimension
0
DIMENSION
5
83
100
AcDbEntity
62
256
370
-1
6
ByLayer
1
total_height
3
Standard
70
0
71
5
72
1
41
1.0
100
AcDbAlignedDimension
13
0.000000
23
1.214003
33
0.0
14
0.000000
24
25.591742
34
0.0
50
90.000000
100
AcDbRotatedDimension
0
DIMENSION
5
83
100
AcDbEntity
62
256
370
-1
6
ByLayer
1
total_miny
3
Standard
70
0
71
5
72
1
41
1.0
100
AcDbAlignedDimension
13
1.214003
23
0.000000
33
0.0
14
0.000000
24
0.000000
34
0.0
50
0.000000
100
AcDbRotatedDimension
0
DIMENSION
5
83
100
AcDbEntity
62
256
370
-1
6
ByLayer
1
total_maxy
3
Standard
70
0
71
5
72
1
41
1.0
100
AcDbAlignedDimension
13
0.000000
23
0.000000
33
0.0
14
25.591742
24
0.000000
34
0.0
50
0.000000
100
AcDbRotatedDimension
0
DIMENSION
8
Layer_1
5
83
100
AcDbEntity
62
256
370
-1
6
ByLayer
1
Layer_1_width
3
Standard
70
0
71
5
72
1
41
1.0
100
AcDbAlignedDimension
13
1.217363
23
0.000000
33
0.0
14
41.204444
24
0.000000
34
0.0
50
0.000000
100
AcDbRotatedDimension
0
DIMENSION
8
Layer_1
5
83
100
AcDbEntity
62
256
370
-1
6
ByLayer
1
Layer_1_minx
3
Standard
70
0
71
5
72
1
41
1.0
100
AcDbAlignedDimension
13
1.217363
23
0.000000
33
0.0
14
0.000000
24
0.000000
34
0.0
50
0.000000
100
AcDbRotatedDimension
0
DIMENSION
8
Layer_1
5
83
100
AcDbEntity
62
256
370
-1
6
ByLayer
1
Layer_1_maxx
3
Standard
70
0
71
5
72
1
41
1.0
100
AcDbAlignedDimension
13
0.000000
23
0.000000
33
0.0
14
41.204444
24
0.000000
34
0.0
50
0.000000
100
AcDbRotatedDimension
0
DIMENSION
8
Layer_1
5
83
100
AcDbEntity
62
256
370
-1
6
ByLayer
1
Layer_1_height
3
Standard
70
0
71
5
72
1
41
1.0
100
AcDbAlignedDimension
13
0.000000
23
1.214003
33
0.0
14
0.000000
24
25.591742
34
0.0
50
90.000000
100
AcDbRotatedDimension
0
DIMENSION
8
Layer_1
5
83
100
AcDbEntity
62
256
370
-1
6
ByLayer
1
Layer_1_miny
3
Standard
70
0
71
5
72
1
41
1.0
100
AcDbAlignedDimension
13
1.214003
23
0.000000
33
0.0
14
0.000000
24
0.000000
34
0.0
50
0.000000
100
AcDbRotatedDimension
0
DIMENSION
8
Layer_1
5
83
100
AcDbEntity
62
256
370
-1
6
ByLayer
1
Layer_1_maxy
3
Standard
70
0
71
5
72
1
41
1.0
100
AcDbAlignedDimension
13
0.000000
23
0.000000
33
0.0
14
25.591742
24
0.000000
34
0.0
50
0.000000
100
AcDbRotatedDimension
62
0
0
LWPOLYLINE
100
AcDbPolyline
8
Layer_1
90
40
70
0
10
11.037240
20
1.434142
30
0.0
10
8.786243
20
2.127570
30
0.0
10
6.742423
20
3.245786
30
0.0
10
4.951104
20
4.724030
30
0.0
10
3.457613
20
6.497540
30
0.0
10
2.307276
20
8.501553
30
0.0
10
1.545417
20
10.671309
30
0.0
10
1.217363
20
12.942045
30
0.0
10
1.368439
20
15.249001
30
0.0
10
1.867599
20
17.206657
30
0.0
10
2.636997
20
19.009592
30
0.0
10
3.656403
20
20.637979
30
0.0
10
4.905584
20
22.071989
30
0.0
10
6.364308
20
23.291796
30
0.0
10
8.012345
20
24.277572
30
0.0
10
9.829462
20
25.009490
30
0.0
10
11.795429
20
25.467721
30
0.0
10
13.693344
20
25.591742
30
0.0
10
15.566390
20
25.388742
30
0.0
10
17.380474
20
24.877934
30
0.0
10
19.101503
20
24.078533
30
0.0
10
20.695385
20
23.009752
30
0.0
10
22.128026
20
21.690805
30
0.0
10
23.365334
20
20.140904
30
0.0
10
24.373217
20
18.379264
30
0.0
10
24.859980
20
17.273894
30
0.0
10
25.125721
20
16.324281
30
0.0
10
25.258889
20
13.405556
30
0.0
10
25.125721
20
10.486830
30
0.0
10
24.859980
20
9.537217
30
0.0
10
24.373217
20
8.431847
30
0.0
10
23.313141
20
6.588535
30
0.0
10
22.010914
20
4.985893
30
0.0
10
20.500908
20
3.641957
30
0.0
10
18.817495
20
2.574764
30
0.0
10
16.995049
20
1.802350
30
0.0
10
15.067943
20
1.342751
30
0.0
10
13.070549
20
1.214003
30
0.0
10
11.037240
20
1.434142
30
0.0
10
11.037240
20
1.434142
30
0.0
62
0
0
LWPOLYLINE
100
AcDbPolyline
8
Layer_1
90
38
70
0
10
16.540710
20
3.758080
30
0.0
10
18.030506
20
5.108543
30
0.0
10
19.290134
20
6.939099
30
0.0
10
20.237113
20
9.100532
30
0.0
10
20.788960
20
11.443623
30
0.0
10
20.961166
20
12.700000
30
0.0
10
19.440833
20
12.700000
30
0.0
10
18.559275
20
12.679915
30
0.0
10
18.043980
20
12.548997
30
0.0
10
17.705993
20
12.201247
30
0.0
10
17.356362
20
11.530669
30
0.0
10
16.740500
20
10.542589
30
0.0
10
16.052009
20
9.809033
30
0.0
10
15.145294
20
9.293745
30
0.0
10
14.167863
20
9.019765
30
0.0
10
13.161063
20
8.975298
30
0.0
10
12.166242
20
9.148546
30
0.0
10
11.224746
20
9.527713
30
0.0
10
10.377921
20
10.101005
30
0.0
10
9.667116
20
10.856626
30
0.0
10
9.133676
20
11.782778
30
0.0
10
8.741314
20
12.700000
30
0.0
10
5.745698
20
12.700000
30
0.0
10
2.750082
20
12.700000
30
0.0
10
2.940502
20
11.500556
30
0.0
10
3.472731
20
9.602266
30
0.0
10
4.412918
20
7.739277
30
0.0
10
5.663958
20
6.068205
30
0.0
10
7.128745
20
4.745663
30
0.0
10
8.281626
20
4.040138
30
0.0
10
9.514985
20
3.493185
30
0.0
10
10.791957
20
3.108671
30
0.0
10
12.075676
20
2.890465
30
0.0
10
13.329276
20
2.842434
30
0.0
10
14.515893
20
2.968448
30
0.0
10
15.598659
20
3.272374
30
0.0
10
16.540710
20
3.758080
30
0.0
10
16.540710
20
3.758080
30
0.0
62
0
0
LWPOLYLINE
100
AcDbPolyline
8
Layer_1
90
22
70
0
10
15.306103
20
11.265738
30
0.0
10
16.063678
20
12.176993
30
0.0
10
16.227778
20
13.405556
30
0.0
10
16.063678
20
14.634118
30
0.0
10
15.306103
20
15.545373
30
0.0
10
14.532375
20
16.066269
30
0.0
10
13.717479
20
16.322673
30
0.0
10
12.905900
20
16.334205
30
0.0
10
12.142124
20
16.120487
30
0.0
10
11.470637
20
15.701141
30
0.0
10
10.935926
20
15.095789
30
0.0
10
10.582476
20
14.324054
30
0.0
10
10.454773
20
13.405556
30
0.0
10
10.582384
20
12.486124
30
0.0
10
10.935613
20
11.713790
30
0.0
10
11.470050
20
11.108142
30
0.0
10
12.141289
20
10.688766
30
0.0
10
12.904922
20
10.475251
30
0.0
10
13.716541
20
10.487183
30
0.0
10
14.531737
20
10.744149
30
0.0
10
15.306103
20
11.265738
30
0.0
10
15.306103
20
11.265738
30
0.0
62
0
0
LWPOLYLINE
100
AcDbPolyline
8
Layer_1
90
18
70
0
10
12.320408
20
12.369445
30
0.0
10
12.001755
20
12.907548
30
0.0
10
11.869728
20
13.539075
30
0.0
10
11.930940
20
14.148204
30
0.0
10
12.192000
20
14.619111
30
0.0
10
12.550997
20
14.857959
30
0.0
10
12.977033
20
14.957109
30
0.0
10
13.888560
20
14.795993
30
0.0
10
14.643252
20
14.255131
30
0.0
10
14.873244
20
13.879597
30
0.0
10
14.957778
20
13.453889
30
0.0
10
14.791357
20
12.937962
30
0.0
10
14.376523
20
12.417309
30
0.0
10
13.839919
20
12.014807
30
0.0
10
13.308186
20
11.853333
30
0.0
10
12.803236
20
12.004941
30
0.0
10
12.320408
20
12.369445
30
0.0
10
12.320408
20
12.369445
30
0.0
62
0
0
LWPOLYLINE
100
AcDbPolyline
8
Layer_1
90
20
70
0
10
6.007177
20
15.454733
30
0.0
10
6.548447
20
17.849939
30
0.0
10
7.537384
20
20.024056
30
0.0
10
8.896332
20
21.844952
30
0.0
10
10.547635
20
23.180492
30
0.0
10
11.546922
20
23.834207
30
0.0
10
11.509804
20
23.909531
30
0.0
10
11.147778
20
23.854130
30
0.0
10
9.870929
20
23.455932
30
0.0
10
8.509571
20
22.824125
30
0.0
10
7.202593
20
22.032786
30
0.0
10
6.088884
20
21.155990
30
0.0
10
5.031987
20
19.947412
30
0.0
10
4.080995
20
18.435471
30
0.0
10
3.345090
20
16.822430
30
0.0
10
2.933458
20
15.310556
30
0.0
10
2.750082
20
14.111111
30
0.0
10
4.299063
20
14.111111
30
0.0
10
5.848045
20
14.111111
30
0.0
10
6.007177
20
15.454733
30
0.0
62
0
0
LWPOLYLINE
100
AcDbPolyline
8
Layer_1
90
18
70
0
10
28.537368
20
6.561667
30
0.0
10
31.493085
20
11.712222
30
0.0
10
34.302646
20
16.721667
30
0.0
10
34.300498
20
16.991193
30
0.0
10
33.850120
20
17.139594
30
0.0
10
30.510195
20
17.215556
30
0.0
10
26.528889
20
17.215556
30
0.0
10
26.528889
20
19.332222
30
0.0
10
26.528889
20
21.448889
30
0.0
10
33.866667
20
21.448889
30
0.0
10
41.204444
20
21.448889
30
0.0
10
41.204444
20
19.169001
30
0.0
10
41.204444
20
16.889113
30
0.0
10
38.029444
20
11.410328
30
0.0
10
34.854444
20
5.931543
30
0.0
10
31.528405
20
5.929116
30
0.0
10
28.202363
20
5.926667
30
0.0
10
28.537368
20
6.561667
30
0.0
  0
ENDSEC
  0
SECTION
  2
OBJECTS
  0
DICTIONARY
  5
C
330
0
100
AcDbDictionary
  3
ACAD_GROUP
350
D
  3
ACAD_MLINESTYLE
350
17
  0
DICTIONARY
  5
D
330
C
100
AcDbDictionary
  0
DICTIONARY
  5
1A
330
C
100
AcDbDictionary
  0
DICTIONARY
  5
17
330
C
100
AcDbDictionary
  3
STANDARD
350
18
  0
DICTIONARY
  5
19
330
C
100
AcDbDictionary
  0
ENDSEC
  0
EOF
