999
Inkscape export via OpenSCAD DXF Export
  0
SECTION
  2
HEADER
  9
$ACADVER
  1
AC1014
  9
$HANDSEED
  5
FFFF
  9
$MEASUREMENT
 70
     1
  0
ENDSEC
  0
SECTION
  2
TABLES
  0
TABLE
  2
VPORT
  5
8
330
0
100
AcDbSymbolTable
 70
     4
  0
VPORT
  5
2E
330
8
100
AcDbSymbolTableRecord
100
AcDbViewportTableRecord
  2
*ACTIVE
 70
     0
 10
0.0
 20
0.0
 11
1.0
 21
1.0
 12
210.0
 22
148.5
 13
0.0
 23
0.0
 14
10.0
 24
10.0
 15
10.0
 25
10.0
 16
0.0
 26
0.0
 36
1.0
 17
0.0
 27
0.0
 37
0.0
 40
341.0
 41
1.24
 42
50.0
 43
0.0
 44
0.0
 50
0.0
 51
0.0
 71
     0
 72
   100
 73
     1
 74
     3
 75
     0
 76
     0
 77
     0
 78
     0
  0
ENDTAB
  0
TABLE
  2
LTYPE
  5
5
330
0
100
AcDbSymbolTable
 70
     1
  0
LTYPE
  5
14
330
5
100
AcDbSymbolTableRecord
100
AcDbLinetypeTableRecord
  2
BYBLOCK
 70
     0
  3

 72
    65
 73
     0
 40
0.0
  0
LTYPE
  5
15
330
5
100
AcDbSymbolTableRecord
100
AcDbLinetypeTableRecord
  2
BYLAYER
 70
     0
  3

 72
    65
 73
     0
 40
0.0
  0
LTYPE
  5
16
330
5
100
AcDbSymbolTableRecord
100
AcDbLinetypeTableRecord
  2
CONTINUOUS
 70
     0
  3
Solid line
 72
    65
 73
     0
 40
0.0
  0
ENDTAB
  0
TABLE
0
TABLE
2
LAYER
5
2
330
0
100
AcDbSymbolTable
70
1
0
LAYER
5
10
330
2
100
AcDbSymbolTableRecord
100
AcDbLayerTableRecord
2
Layer_1
70
0
62
7
6
CONTINUOUS
0
ENDTAB
0
ENDSEC
  0
ENDTAB
  0
TABLE
  2
STYLE
  5
3
330
0
100
AcDbSymbolTable
 70
     1
  0
STYLE
  5
11
330
3
100
AcDbSymbolTableRecord
100
AcDbTextStyleTableRecord
  2
STANDARD
 70
     0
 40
0.0
 41
1.0
 50
0.0
 71
     0
 42
2.5
  3
txt
  4

  0
ENDTAB
  0
TABLE
  2
VIEW
  5
6
330
0
100
AcDbSymbolTable
 70
     0
  0
ENDTAB
  0
TABLE
  2
UCS
  5
7
330
0
100
AcDbSymbolTable
 70
     0
  0
ENDTAB
  0
TABLE
  2
APPID
  5
9
330
0
100
AcDbSymbolTable
 70
     2
  0
APPID
  5
12
330
9
100
AcDbSymbolTableRecord
100
AcDbRegAppTableRecord
  2
ACAD
 70
     0
  0
ENDTAB
  0
TABLE
  2
DIMSTYLE
  5
A
330
0
100
AcDbSymbolTable
 70
     1
  0
DIMSTYLE
105
27
330
A
100
AcDbSymbolTableRecord
100
AcDbDimStyleTableRecord
  2
ISO-25
 70
     0
  3

  4

  5

  6

  7

 40
1.0
 41
2.5
 42
0.625
 43
3.75
 44
1.25
 45
0.0
 46
0.0
 47
0.0
 48
0.0
140
2.5
141
2.5
142
0.0
143
0.03937007874016
144
1.0
145
0.0
146
1.0
147
0.625
 71
     0
 72
     0
 73
     0
 74
     0
 75
     0
 76
     0
 77
     1
 78
     8
170
     0
171
     3
172
     1
173
     0
174
     0
175
     0
176
     0
177
     0
178
     0
270
     2
271
     2
272
     2
273
     2
274
     3
340
11
275
     0
280
     0
281
     0
282
     0
283
     0
284
     8
285
     0
286
     0
287
     3
288
     0
  0
ENDTAB
  0
TABLE
  2
BLOCK_RECORD
  5
1
330
0
100
AcDbSymbolTable
 70
     1
  0
BLOCK_RECORD
  5
1F
330
1
100
AcDbSymbolTableRecord
100
AcDbBlockTableRecord
  2
*MODEL_SPACE
  0
BLOCK_RECORD
  5
1B
330
1
100
AcDbSymbolTableRecord
100
AcDbBlockTableRecord
  2
*PAPER_SPACE
  0
ENDTAB
  0
ENDSEC
  0
SECTION
  2
BLOCKS
  0
BLOCK
  5
20
330
1F
100
AcDbEntity
  8
0
100
AcDbBlockBegin
  2
*MODEL_SPACE
 70
     0
 10
0.0
 20
0.0
 30
0.0
  3
*MODEL_SPACE
  1

  0
ENDBLK
  5
21
330
1F
100
AcDbEntity
  8
0
100
AcDbBlockEnd
  0
BLOCK
  5
1C
330
1B
100
AcDbEntity
 67
     1
  8
0
100
AcDbBlockBegin
  2
*PAPER_SPACE
  1

  0
ENDBLK
  5
1D
330
1B
100
AcDbEntity
 67
     1
  8
0
100
AcDbBlockEnd
  0
ENDSEC
  0
SECTION
  2
ENTITIES
0
DIMENSION
5
83
100
AcDbEntity
62
256
370
-1
6
ByLayer
1
total_width
3
Standard
70
0
71
5
72
1
41
1.0
100
AcDbAlignedDimension
13
1.213085
23
0.000000
33
0.0
14
41.204444
24
0.000000
34
0.0
50
0.000000
100
AcDbRotatedDimension
0
DIMENSION
5
83
100
AcDbEntity
62
256
370
-1
6
ByLayer
1
total_minx
3
Standard
70
0
71
5
72
1
41
1.0
100
AcDbAlignedDimension
13
1.213085
23
0.000000
33
0.0
14
0.000000
24
0.000000
34
0.0
50
0.000000
100
AcDbRotatedDimension
0
DIMENSION
5
83
100
AcDbEntity
62
256
370
-1
6
ByLayer
1
total_maxx
3
Standard
70
0
71
5
72
1
41
1.0
100
AcDbAlignedDimension
13
0.000000
23
0.000000
33
0.0
14
41.204444
24
0.000000
34
0.0
50
0.000000
100
AcDbRotatedDimension
0
DIMENSION
5
83
100
AcDbEntity
62
256
370
-1
6
ByLayer
1
total_height
3
Standard
70
0
71
5
72
1
41
1.0
100
AcDbAlignedDimension
13
0.000000
23
1.218248
33
0.0
14
0.000000
24
24.782345
34
0.0
50
90.000000
100
AcDbRotatedDimension
0
DIMENSION
5
83
100
AcDbEntity
62
256
370
-1
6
ByLayer
1
total_miny
3
Standard
70
0
71
5
72
1
41
1.0
100
AcDbAlignedDimension
13
1.218248
23
0.000000
33
0.0
14
0.000000
24
0.000000
34
0.0
50
0.000000
100
AcDbRotatedDimension
0
DIMENSION
5
83
100
AcDbEntity
62
256
370
-1
6
ByLayer
1
total_maxy
3
Standard
70
0
71
5
72
1
41
1.0
100
AcDbAlignedDimension
13
0.000000
23
0.000000
33
0.0
14
24.782345
24
0.000000
34
0.0
50
0.000000
100
AcDbRotatedDimension
0
DIMENSION
8
Layer_1
5
83
100
AcDbEntity
62
256
370
-1
6
ByLayer
1
Layer_1_width
3
Standard
70
0
71
5
72
1
41
1.0
100
AcDbAlignedDimension
13
1.213085
23
0.000000
33
0.0
14
41.204444
24
0.000000
34
0.0
50
0.000000
100
AcDbRotatedDimension
0
DIMENSION
8
Layer_1
5
83
100
AcDbEntity
62
256
370
-1
6
ByLayer
1
Layer_1_minx
3
Standard
70
0
71
5
72
1
41
1.0
100
AcDbAlignedDimension
13
1.213085
23
0.000000
33
0.0
14
0.000000
24
0.000000
34
0.0
50
0.000000
100
AcDbRotatedDimension
0
DIMENSION
8
Layer_1
5
83
100
AcDbEntity
62
256
370
-1
6
ByLayer
1
Layer_1_maxx
3
Standard
70
0
71
5
72
1
41
1.0
100
AcDbAlignedDimension
13
0.000000
23
0.000000
33
0.0
14
41.204444
24
0.000000
34
0.0
50
0.000000
100
AcDbRotatedDimension
0
DIMENSION
8
Layer_1
5
83
100
AcDbEntity
62
256
370
-1
6
ByLayer
1
Layer_1_height
3
Standard
70
0
71
5
72
1
41
1.0
100
AcDbAlignedDimension
13
0.000000
23
1.218248
33
0.0
14
0.000000
24
24.782345
34
0.0
50
90.000000
100
AcDbRotatedDimension
0
DIMENSION
8
Layer_1
5
83
100
AcDbEntity
62
256
370
-1
6
ByLayer
1
Layer_1_miny
3
Standard
70
0
71
5
72
1
41
1.0
100
AcDbAlignedDimension
13
1.218248
23
0.000000
33
0.0
14
0.000000
24
0.000000
34
0.0
50
0.000000
100
AcDbRotatedDimension
0
DIMENSION
8
Layer_1
5
83
100
AcDbEntity
62
256
370
-1
6
ByLayer
1
Layer_1_maxy
3
Standard
70
0
71
5
72
1
41
1.0
100
AcDbAlignedDimension
13
0.000000
23
0.000000
33
0.0
14
24.782345
24
0.000000
34
0.0
50
0.000000
100
AcDbRotatedDimension
62
0
0
LWPOLYLINE
100
AcDbPolyline
8
Layer_1
90
46
70
0
10
10.455007
20
1.437178
30
0.0
10
8.940145
20
1.878035
30
0.0
10
7.420802
20
2.589891
30
0.0
10
5.970510
20
3.531796
30
0.0
10
4.662802
20
4.662802
30
0.0
10
3.519544
20
5.978199
30
0.0
10
2.612523
20
7.383093
30
0.0
10
1.935052
20
8.856351
30
0.0
10
1.480446
20
10.376839
30
0.0
10
1.242019
20
11.923427
30
0.0
10
1.213085
20
13.474979
30
0.0
10
1.386957
20
15.010364
30
0.0
10
1.756951
20
16.508449
30
0.0
10
2.316380
20
17.948101
30
0.0
10
3.058559
20
19.308186
30
0.0
10
3.976801
20
20.567573
30
0.0
10
5.064421
20
21.705129
30
0.0
10
6.314732
20
22.699720
30
0.0
10
7.721050
20
23.530214
30
0.0
10
9.276687
20
24.175477
30
0.0
10
10.974959
20
24.614378
30
0.0
10
12.601464
20
24.782345
30
0.0
10
14.238857
20
24.695672
30
0.0
10
15.857257
20
24.367341
30
0.0
10
17.426782
20
23.810337
30
0.0
10
18.917550
20
23.037642
30
0.0
10
20.299681
20
22.062242
30
0.0
10
21.543292
20
20.897118
30
0.0
10
22.618501
20
19.555255
30
0.0
10
23.471177
20
18.060894
30
0.0
10
24.080231
20
16.438906
30
0.0
10
24.445664
20
14.731835
30
0.0
10
24.567475
20
12.982222
30
0.0
10
24.445664
20
11.232609
30
0.0
10
24.080231
20
9.525538
30
0.0
10
23.471177
20
7.903551
30
0.0
10
22.618501
20
6.409189
30
0.0
10
21.499359
20
5.006245
30
0.0
10
20.224329
20
3.809716
30
0.0
10
18.814029
20
2.828030
30
0.0
10
17.289073
20
2.069613
30
0.0
10
15.670078
20
1.542892
30
0.0
10
13.977658
20
1.256295
30
0.0
10
12.232429
20
1.218248
30
0.0
10
10.455007
20
1.437178
30
0.0
10
10.455007
20
1.437178
30
0.0
62
0
0
LWPOLYLINE
100
AcDbPolyline
8
Layer_1
90
32
70
0
10
15.479290
20
3.364765
30
0.0
10
16.336921
20
3.888092
30
0.0
10
17.116444
20
4.543017
30
0.0
10
18.440414
20
6.246390
30
0.0
10
19.449689
20
8.472342
30
0.0
10
20.142761
20
11.218333
30
0.0
10
20.305889
20
12.135556
30
0.0
10
18.753737
20
12.135556
30
0.0
10
17.394839
20
12.016340
30
0.0
10
17.108621
20
11.783302
30
0.0
10
16.906705
20
11.359961
30
0.0
10
16.264561
20
10.240686
30
0.0
10
15.358623
20
9.421200
30
0.0
10
14.273457
20
8.905286
30
0.0
10
13.093631
20
8.696726
30
0.0
10
11.903710
20
8.799301
30
0.0
10
10.788260
20
9.216794
30
0.0
10
9.831850
20
9.952988
30
0.0
10
9.119044
20
11.011664
30
0.0
10
8.607778
20
12.120994
30
0.0
10
5.603888
20
12.128275
30
0.0
10
2.599999
20
12.135556
30
0.0
10
2.868743
20
10.939461
30
0.0
10
3.606392
20
8.790061
30
0.0
10
4.750647
20
6.883947
30
0.0
10
6.218016
20
5.271271
30
0.0
10
7.925006
20
4.002185
30
0.0
10
9.788121
20
3.126839
30
0.0
10
11.723869
20
2.695386
30
0.0
10
13.648757
20
2.757978
30
0.0
10
15.479290
20
3.364765
30
0.0
10
15.479290
20
3.364765
30
0.0
62
0
0
LWPOLYLINE
100
AcDbPolyline
8
Layer_1
90
24
70
0
10
14.818018
20
10.841250
30
0.0
10
15.379232
20
11.588099
30
0.0
10
15.681071
20
12.400795
30
0.0
10
15.741618
20
13.228350
30
0.0
10
15.578954
20
14.019777
30
0.0
10
15.211162
20
14.724087
30
0.0
10
14.656326
20
15.290294
30
0.0
10
13.932526
20
15.667409
30
0.0
10
13.057847
20
15.804444
30
0.0
10
12.131998
20
15.686875
30
0.0
10
11.357110
20
15.334981
30
0.0
10
10.735006
20
14.749987
30
0.0
10
10.267512
20
13.933116
30
0.0
10
10.081412
20
13.246270
30
0.0
10
10.083903
20
12.572550
30
0.0
10
10.257103
20
11.936136
30
0.0
10
10.583130
20
11.361210
30
0.0
10
11.044100
20
10.871952
30
0.0
10
11.622131
20
10.492544
30
0.0
10
12.299341
20
10.247166
30
0.0
10
13.057847
20
10.160000
30
0.0
10
14.043571
20
10.319656
30
0.0
10
14.818018
20
10.841250
30
0.0
10
14.818018
20
10.841250
30
0.0
62
0
0
LWPOLYLINE
100
AcDbPolyline
8
Layer_1
90
16
70
0
10
11.711230
20
12.238573
30
0.0
10
11.468293
20
12.907097
30
0.0
10
11.528960
20
13.591590
30
0.0
10
11.856811
20
14.173356
30
0.0
10
12.415429
20
14.533699
30
0.0
10
13.075228
20
14.546457
30
0.0
10
13.716161
20
14.253418
30
0.0
10
14.201203
20
13.751341
30
0.0
10
14.393333
20
13.136986
30
0.0
10
14.311210
20
12.616293
30
0.0
10
14.087821
20
12.189191
30
0.0
10
13.355125
20
11.661943
30
0.0
10
12.471007
20
11.647614
30
0.0
10
12.058341
20
11.861659
30
0.0
10
11.711230
20
12.238573
30
0.0
10
11.711230
20
12.238573
30
0.0
62
0
0
LWPOLYLINE
100
AcDbPolyline
8
Layer_1
90
19
70
0
10
5.915815
20
15.581512
30
0.0
10
6.593687
20
17.866482
30
0.0
10
7.642889
20
19.879213
30
0.0
10
8.995433
20
21.516385
30
0.0
10
10.583333
20
22.674678
30
0.0
10
11.132106
20
23.020661
30
0.0
10
11.024696
20
23.111754
30
0.0
10
9.183752
20
22.557853
30
0.0
10
8.086368
20
22.049280
30
0.0
10
7.040458
20
21.373872
30
0.0
10
6.064170
20
20.553244
30
0.0
10
5.175651
20
19.609012
30
0.0
10
3.734510
20
17.436192
30
0.0
10
3.218183
20
16.250835
30
0.0
10
2.862214
20
15.028333
30
0.0
10
2.599999
20
13.828889
30
0.0
10
4.085503
20
13.828889
30
0.0
10
5.571007
20
13.828889
30
0.0
10
5.915815
20
15.581512
30
0.0
62
0
0
LWPOLYLINE
100
AcDbPolyline
8
Layer_1
90
38
70
0
10
33.866667
20
6.773333
30
0.0
10
33.866667
20
7.902222
30
0.0
10
29.633333
20
7.902222
30
0.0
10
25.400000
20
7.902222
30
0.0
10
25.400000
20
10.144025
30
0.0
10
25.400000
20
12.385827
30
0.0
10
28.084956
20
16.494025
30
0.0
10
30.769913
20
20.602222
30
0.0
10
34.011622
20
20.602222
30
0.0
10
37.253333
20
20.450285
30
0.0
10
35.607086
20
17.839730
30
0.0
10
32.929480
20
13.758333
30
0.0
10
31.898122
20
12.135556
30
0.0
10
32.882394
20
12.135556
30
0.0
10
33.431372
20
12.157698
30
0.0
10
33.725806
20
12.276918
30
0.0
10
33.844602
20
12.572401
30
0.0
10
33.866667
20
13.123333
30
0.0
10
33.866667
20
14.111111
30
0.0
10
36.830000
20
14.111111
30
0.0
10
39.793333
20
14.111111
30
0.0
10
39.793333
20
13.123333
30
0.0
10
39.914285
20
12.304889
30
0.0
10
40.127842
20
12.168187
30
0.0
10
40.498889
20
12.135556
30
0.0
10
40.900173
20
12.095868
30
0.0
10
41.110370
20
11.853333
30
0.0
10
41.204444
20
10.018889
30
0.0
10
41.110366
20
8.184444
30
0.0
10
40.900168
20
7.941910
30
0.0
10
40.498889
20
7.902222
30
0.0
10
40.120755
20
7.868708
30
0.0
10
39.907986
20
7.718778
30
0.0
10
39.793333
20
6.773333
30
0.0
10
39.793333
20
5.644444
30
0.0
10
36.830000
20
5.644444
30
0.0
10
33.866667
20
5.644444
30
0.0
10
33.866667
20
6.773333
30
0.0
  0
ENDSEC
  0
SECTION
  2
OBJECTS
  0
DICTIONARY
  5
C
330
0
100
AcDbDictionary
  3
ACAD_GROUP
350
D
  3
ACAD_MLINESTYLE
350
17
  0
DICTIONARY
  5
D
330
C
100
AcDbDictionary
  0
DICTIONARY
  5
1A
330
C
100
AcDbDictionary
  0
DICTIONARY
  5
17
330
C
100
AcDbDictionary
  3
STANDARD
350
18
  0
DICTIONARY
  5
19
330
C
100
AcDbDictionary
  0
ENDSEC
  0
EOF
