999
Inkscape export via OpenSCAD DXF Export
  0
SECTION
  2
HEADER
  9
$ACADVER
  1
AC1014
  9
$HANDSEED
  5
FFFF
  9
$MEASUREMENT
 70
     1
  0
ENDSEC
  0
SECTION
  2
TABLES
  0
TABLE
  2
VPORT
  5
8
330
0
100
AcDbSymbolTable
 70
     4
  0
VPORT
  5
2E
330
8
100
AcDbSymbolTableRecord
100
AcDbViewportTableRecord
  2
*ACTIVE
 70
     0
 10
0.0
 20
0.0
 11
1.0
 21
1.0
 12
210.0
 22
148.5
 13
0.0
 23
0.0
 14
10.0
 24
10.0
 15
10.0
 25
10.0
 16
0.0
 26
0.0
 36
1.0
 17
0.0
 27
0.0
 37
0.0
 40
341.0
 41
1.24
 42
50.0
 43
0.0
 44
0.0
 50
0.0
 51
0.0
 71
     0
 72
   100
 73
     1
 74
     3
 75
     0
 76
     0
 77
     0
 78
     0
  0
ENDTAB
  0
TABLE
  2
LTYPE
  5
5
330
0
100
AcDbSymbolTable
 70
     1
  0
LTYPE
  5
14
330
5
100
AcDbSymbolTableRecord
100
AcDbLinetypeTableRecord
  2
BYBLOCK
 70
     0
  3

 72
    65
 73
     0
 40
0.0
  0
LTYPE
  5
15
330
5
100
AcDbSymbolTableRecord
100
AcDbLinetypeTableRecord
  2
BYLAYER
 70
     0
  3

 72
    65
 73
     0
 40
0.0
  0
LTYPE
  5
16
330
5
100
AcDbSymbolTableRecord
100
AcDbLinetypeTableRecord
  2
CONTINUOUS
 70
     0
  3
Solid line
 72
    65
 73
     0
 40
0.0
  0
ENDTAB
  0
TABLE
0
TABLE
2
LAYER
5
2
330
0
100
AcDbSymbolTable
70
1
0
LAYER
5
10
330
2
100
AcDbSymbolTableRecord
100
AcDbLayerTableRecord
2
Layer_1
70
0
62
7
6
CONTINUOUS
0
ENDTAB
0
ENDSEC
  0
ENDTAB
  0
TABLE
  2
STYLE
  5
3
330
0
100
AcDbSymbolTable
 70
     1
  0
STYLE
  5
11
330
3
100
AcDbSymbolTableRecord
100
AcDbTextStyleTableRecord
  2
STANDARD
 70
     0
 40
0.0
 41
1.0
 50
0.0
 71
     0
 42
2.5
  3
txt
  4

  0
ENDTAB
  0
TABLE
  2
VIEW
  5
6
330
0
100
AcDbSymbolTable
 70
     0
  0
ENDTAB
  0
TABLE
  2
UCS
  5
7
330
0
100
AcDbSymbolTable
 70
     0
  0
ENDTAB
  0
TABLE
  2
APPID
  5
9
330
0
100
AcDbSymbolTable
 70
     2
  0
APPID
  5
12
330
9
100
AcDbSymbolTableRecord
100
AcDbRegAppTableRecord
  2
ACAD
 70
     0
  0
ENDTAB
  0
TABLE
  2
DIMSTYLE
  5
A
330
0
100
AcDbSymbolTable
 70
     1
  0
DIMSTYLE
105
27
330
A
100
AcDbSymbolTableRecord
100
AcDbDimStyleTableRecord
  2
ISO-25
 70
     0
  3

  4

  5

  6

  7

 40
1.0
 41
2.5
 42
0.625
 43
3.75
 44
1.25
 45
0.0
 46
0.0
 47
0.0
 48
0.0
140
2.5
141
2.5
142
0.0
143
0.03937007874016
144
1.0
145
0.0
146
1.0
147
0.625
 71
     0
 72
     0
 73
     0
 74
     0
 75
     0
 76
     0
 77
     1
 78
     8
170
     0
171
     3
172
     1
173
     0
174
     0
175
     0
176
     0
177
     0
178
     0
270
     2
271
     2
272
     2
273
     2
274
     3
340
11
275
     0
280
     0
281
     0
282
     0
283
     0
284
     8
285
     0
286
     0
287
     3
288
     0
  0
ENDTAB
  0
TABLE
  2
BLOCK_RECORD
  5
1
330
0
100
AcDbSymbolTable
 70
     1
  0
BLOCK_RECORD
  5
1F
330
1
100
AcDbSymbolTableRecord
100
AcDbBlockTableRecord
  2
*MODEL_SPACE
  0
BLOCK_RECORD
  5
1B
330
1
100
AcDbSymbolTableRecord
100
AcDbBlockTableRecord
  2
*PAPER_SPACE
  0
ENDTAB
  0
ENDSEC
  0
SECTION
  2
BLOCKS
  0
BLOCK
  5
20
330
1F
100
AcDbEntity
  8
0
100
AcDbBlockBegin
  2
*MODEL_SPACE
 70
     0
 10
0.0
 20
0.0
 30
0.0
  3
*MODEL_SPACE
  1

  0
ENDBLK
  5
21
330
1F
100
AcDbEntity
  8
0
100
AcDbBlockEnd
  0
BLOCK
  5
1C
330
1B
100
AcDbEntity
 67
     1
  8
0
100
AcDbBlockBegin
  2
*PAPER_SPACE
  1

  0
ENDBLK
  5
1D
330
1B
100
AcDbEntity
 67
     1
  8
0
100
AcDbBlockEnd
  0
ENDSEC
  0
SECTION
  2
ENTITIES
0
DIMENSION
5
83
100
AcDbEntity
62
256
370
-1
6
ByLayer
1
total_width
3
Standard
70
0
71
5
72
1
41
1.0
100
AcDbAlignedDimension
13
1.212414
23
0.000000
33
0.0
14
41.062554
24
0.000000
34
0.0
50
0.000000
100
AcDbRotatedDimension
0
DIMENSION
5
83
100
AcDbEntity
62
256
370
-1
6
ByLayer
1
total_minx
3
Standard
70
0
71
5
72
1
41
1.0
100
AcDbAlignedDimension
13
1.212414
23
0.000000
33
0.0
14
0.000000
24
0.000000
34
0.0
50
0.000000
100
AcDbRotatedDimension
0
DIMENSION
5
83
100
AcDbEntity
62
256
370
-1
6
ByLayer
1
total_maxx
3
Standard
70
0
71
5
72
1
41
1.0
100
AcDbAlignedDimension
13
0.000000
23
0.000000
33
0.0
14
41.062554
24
0.000000
34
0.0
50
0.000000
100
AcDbRotatedDimension
0
DIMENSION
5
83
100
AcDbEntity
62
256
370
-1
6
ByLayer
1
total_height
3
Standard
70
0
71
5
72
1
41
1.0
100
AcDbAlignedDimension
13
0.000000
23
1.207742
33
0.0
14
0.000000
24
24.741908
34
0.0
50
90.000000
100
AcDbRotatedDimension
0
DIMENSION
5
83
100
AcDbEntity
62
256
370
-1
6
ByLayer
1
total_miny
3
Standard
70
0
71
5
72
1
41
1.0
100
AcDbAlignedDimension
13
1.207742
23
0.000000
33
0.0
14
0.000000
24
0.000000
34
0.0
50
0.000000
100
AcDbRotatedDimension
0
DIMENSION
5
83
100
AcDbEntity
62
256
370
-1
6
ByLayer
1
total_maxy
3
Standard
70
0
71
5
72
1
41
1.0
100
AcDbAlignedDimension
13
0.000000
23
0.000000
33
0.0
14
24.741908
24
0.000000
34
0.0
50
0.000000
100
AcDbRotatedDimension
0
DIMENSION
8
Layer_1
5
83
100
AcDbEntity
62
256
370
-1
6
ByLayer
1
Layer_1_width
3
Standard
70
0
71
5
72
1
41
1.0
100
AcDbAlignedDimension
13
1.212414
23
0.000000
33
0.0
14
41.062554
24
0.000000
34
0.0
50
0.000000
100
AcDbRotatedDimension
0
DIMENSION
8
Layer_1
5
83
100
AcDbEntity
62
256
370
-1
6
ByLayer
1
Layer_1_minx
3
Standard
70
0
71
5
72
1
41
1.0
100
AcDbAlignedDimension
13
1.212414
23
0.000000
33
0.0
14
0.000000
24
0.000000
34
0.0
50
0.000000
100
AcDbRotatedDimension
0
DIMENSION
8
Layer_1
5
83
100
AcDbEntity
62
256
370
-1
6
ByLayer
1
Layer_1_maxx
3
Standard
70
0
71
5
72
1
41
1.0
100
AcDbAlignedDimension
13
0.000000
23
0.000000
33
0.0
14
41.062554
24
0.000000
34
0.0
50
0.000000
100
AcDbRotatedDimension
0
DIMENSION
8
Layer_1
5
83
100
AcDbEntity
62
256
370
-1
6
ByLayer
1
Layer_1_height
3
Standard
70
0
71
5
72
1
41
1.0
100
AcDbAlignedDimension
13
0.000000
23
1.207742
33
0.0
14
0.000000
24
24.741908
34
0.0
50
90.000000
100
AcDbRotatedDimension
0
DIMENSION
8
Layer_1
5
83
100
AcDbEntity
62
256
370
-1
6
ByLayer
1
Layer_1_miny
3
Standard
70
0
71
5
72
1
41
1.0
100
AcDbAlignedDimension
13
1.207742
23
0.000000
33
0.0
14
0.000000
24
0.000000
34
0.0
50
0.000000
100
AcDbRotatedDimension
0
DIMENSION
8
Layer_1
5
83
100
AcDbEntity
62
256
370
-1
6
ByLayer
1
Layer_1_maxy
3
Standard
70
0
71
5
72
1
41
1.0
100
AcDbAlignedDimension
13
0.000000
23
0.000000
33
0.0
14
24.741908
24
0.000000
34
0.0
50
0.000000
100
AcDbRotatedDimension
62
0
0
LWPOLYLINE
100
AcDbPolyline
8
Layer_1
90
42
70
0
10
10.289412
20
1.522556
30
0.0
10
8.689324
20
2.018724
30
0.0
10
7.232841
20
2.700012
30
0.0
10
5.895577
20
3.580047
30
0.0
10
4.653147
20
4.672456
30
0.0
10
3.146786
20
6.516691
30
0.0
10
2.071235
20
8.561352
30
0.0
10
1.426458
20
10.739713
30
0.0
10
1.212414
20
12.985049
30
0.0
10
1.429065
20
15.230635
30
0.0
10
2.076373
20
17.409747
30
0.0
10
3.154298
20
19.455657
30
0.0
10
4.662802
20
21.301643
30
0.0
10
5.981616
20
22.448079
30
0.0
10
7.388427
20
23.356247
30
0.0
10
8.862279
20
24.032931
30
0.0
10
10.382218
20
24.484913
30
0.0
10
11.927289
20
24.718978
30
0.0
10
13.476537
20
24.741908
30
0.0
10
15.009008
20
24.560488
30
0.0
10
16.503748
20
24.181500
30
0.0
10
17.939800
20
23.611729
30
0.0
10
19.296211
20
22.857957
30
0.0
10
20.552026
20
21.926969
30
0.0
10
21.686291
20
20.825547
30
0.0
10
22.678050
20
19.560475
30
0.0
10
23.506350
20
18.138536
30
0.0
10
24.150234
20
16.566515
30
0.0
10
24.588749
20
14.851194
30
0.0
10
24.756048
20
13.041474
30
0.0
10
24.611369
20
11.226019
30
0.0
10
24.175897
20
9.446758
30
0.0
10
23.470821
20
7.745620
30
0.0
10
22.517328
20
6.164531
30
0.0
10
21.336603
20
4.745420
30
0.0
10
19.949836
20
3.530214
30
0.0
10
18.378211
20
2.560843
30
0.0
10
16.345641
20
1.722764
30
0.0
10
14.341395
20
1.273104
30
0.0
10
12.333357
20
1.207742
30
0.0
10
10.289412
20
1.522556
30
0.0
10
10.289412
20
1.522556
30
0.0
62
0
0
LWPOLYLINE
100
AcDbPolyline
8
Layer_1
90
39
70
0
10
14.277723
20
2.858084
30
0.0
10
15.597218
20
3.437464
30
0.0
10
16.934559
20
4.443714
30
0.0
10
18.124933
20
5.727518
30
0.0
10
19.003526
20
7.139556
30
0.0
10
19.883223
20
9.654194
30
0.0
10
20.320000
20
11.867225
30
0.0
10
19.865614
20
12.056733
30
0.0
10
18.773155
20
12.135556
30
0.0
10
17.449756
20
12.026679
30
0.0
10
17.193862
20
11.824187
30
0.0
10
17.057753
20
11.463973
30
0.0
10
16.639764
20
10.658914
30
0.0
10
15.875673
20
9.836591
30
0.0
10
14.939303
20
9.151132
30
0.0
10
14.004478
20
8.756665
30
0.0
10
12.982222
20
8.661561
30
0.0
10
11.959966
20
8.756665
30
0.0
10
11.022294
20
9.158186
30
0.0
10
10.063479
20
9.860984
30
0.0
10
9.274953
20
10.696525
30
0.0
10
8.848148
20
11.496273
30
0.0
10
8.695350
20
11.854737
30
0.0
10
8.298295
20
12.045760
30
0.0
10
5.754960
20
12.135556
30
0.0
10
3.190519
20
12.048281
30
0.0
10
2.868686
20
11.841911
30
0.0
10
2.822222
20
11.440587
30
0.0
10
3.026889
20
10.234405
30
0.0
10
3.582735
20
8.818166
30
0.0
10
4.402534
20
7.373293
30
0.0
10
5.399056
20
6.081205
30
0.0
10
6.622715
20
4.937767
30
0.0
10
8.001114
20
3.998372
30
0.0
10
9.483583
20
3.292164
30
0.0
10
11.019452
20
2.848289
30
0.0
10
12.780907
20
2.590260
30
0.0
10
14.277723
20
2.858085
30
0.0
10
14.277723
20
2.858084
30
0.0
62
0
0
LWPOLYLINE
100
AcDbPolyline
8
Layer_1
90
20
70
0
10
14.979487
20
10.984957
30
0.0
10
15.521080
20
11.713993
30
0.0
10
15.795951
20
12.504946
30
0.0
10
15.824426
20
13.308773
30
0.0
10
15.626829
20
14.076429
30
0.0
10
15.223485
20
14.758869
30
0.0
10
14.634720
20
15.307048
30
0.0
10
13.880857
20
15.671921
30
0.0
10
12.982222
20
15.804444
30
0.0
10
11.845034
20
15.595544
30
0.0
10
10.952253
20
15.012192
30
0.0
10
10.368900
20
14.119410
30
0.0
10
10.160000
20
12.982222
30
0.0
10
10.329856
20
11.881433
30
0.0
10
10.984957
20
10.984957
30
0.0
10
11.881433
20
10.329856
30
0.0
10
12.982222
20
10.160000
30
0.0
10
14.083012
20
10.329856
30
0.0
10
14.979487
20
10.984957
30
0.0
10
14.979487
20
10.984957
30
0.0
62
0
0
LWPOLYLINE
100
AcDbPolyline
8
Layer_1
90
15
70
0
10
11.909778
20
11.909778
30
0.0
10
11.606687
20
12.461318
30
0.0
10
11.580664
20
13.129364
30
0.0
10
11.810920
20
13.779716
30
0.0
10
12.276667
20
14.278175
30
0.0
10
12.982222
20
14.599361
30
0.0
10
13.687778
20
14.278175
30
0.0
10
14.200353
20
13.718024
30
0.0
10
14.405185
20
13.017458
30
0.0
10
14.291230
20
12.343522
30
0.0
10
13.847442
20
11.863263
30
0.0
10
12.762313
20
11.584753
30
0.0
10
12.285945
20
11.672329
30
0.0
10
11.909778
20
11.909778
30
0.0
10
11.909778
20
11.909778
30
0.0
62
0
0
LWPOLYLINE
100
AcDbPolyline
8
Layer_1
90
23
70
0
10
5.796533
20
14.887222
30
0.0
10
6.447906
20
17.417263
30
0.0
10
7.469913
20
19.606085
30
0.0
10
8.809620
20
21.365203
30
0.0
10
10.414094
20
22.606133
30
0.0
10
11.187804
20
23.073925
30
0.0
10
10.583333
20
23.001368
30
0.0
10
9.252752
20
22.586422
30
0.0
10
7.876096
20
21.886868
30
0.0
10
6.556990
20
20.965032
30
0.0
10
5.399056
20
19.883239
30
0.0
10
4.402534
20
18.591152
30
0.0
10
3.582735
20
17.146278
30
0.0
10
3.026889
20
15.730040
30
0.0
10
2.822222
20
14.523857
30
0.0
10
2.858219
20
14.143173
30
0.0
10
3.034740
20
13.934511
30
0.0
10
4.220545
20
13.828889
30
0.0
10
5.030831
20
13.845660
30
0.0
10
5.465560
20
13.961805
30
0.0
10
5.671778
20
14.276076
30
0.0
10
5.796533
20
14.887222
30
0.0
10
5.796533
20
14.887222
30
0.0
62
0
0
LWPOLYLINE
100
AcDbPolyline
8
Layer_1
90
45
70
0
10
27.587222
20
5.838988
30
0.0
10
27.336909
20
5.981409
30
0.0
10
27.186373
20
6.312000
30
0.0
10
27.093333
20
7.922916
30
0.0
10
27.093333
20
9.877778
30
0.0
10
30.605109
20
9.877778
30
0.0
10
33.666313
20
9.969762
30
0.0
10
34.229547
20
10.157672
30
0.0
10
34.556220
20
10.505018
30
0.0
10
34.995556
20
11.281674
30
0.0
10
31.679444
20
11.430545
30
0.0
10
28.741938
20
11.536144
30
0.0
10
27.984125
20
11.729445
30
0.0
10
27.333475
20
12.070419
30
0.0
10
26.762031
20
12.521974
30
0.0
10
26.280782
20
13.095986
30
0.0
10
25.618352
20
14.509913
30
0.0
10
25.405159
20
16.109257
30
0.0
10
25.700177
20
17.691072
30
0.0
10
26.081974
20
18.473010
30
0.0
10
26.597308
20
19.137385
30
0.0
10
27.255579
20
19.688296
30
0.0
10
28.066187
20
20.129846
30
0.0
10
30.182017
20
20.701263
30
0.0
10
33.020000
20
20.884444
30
0.0
10
35.139203
20
20.795393
30
0.0
10
36.882924
20
20.509830
30
0.0
10
38.279777
20
20.000141
30
0.0
10
39.358377
20
19.238712
30
0.0
10
40.147340
20
18.197931
30
0.0
10
40.675281
20
16.850183
30
0.0
10
40.970814
20
15.167855
30
0.0
10
41.062554
20
13.123333
30
0.0
10
40.940619
20
10.566690
30
0.0
10
40.737326
20
9.745197
30
0.0
10
40.393363
20
8.941933
30
0.0
10
39.711196
20
7.877135
30
0.0
10
38.816408
20
7.020902
30
0.0
10
37.713423
20
6.376558
30
0.0
10
36.406667
20
5.947427
30
0.0
10
34.642102
20
5.775219
30
0.0
10
31.897840
20
5.691307
30
0.0
10
29.203131
20
5.708345
30
0.0
10
27.587222
20
5.838988
30
0.0
10
27.587222
20
5.838988
30
0.0
62
0
0
LWPOLYLINE
100
AcDbPolyline
8
Layer_1
90
17
70
0
10
34.656889
20
14.732000
30
0.0
10
34.937908
20
15.254238
30
0.0
10
34.986526
20
15.904773
30
0.0
10
34.818519
20
16.516772
30
0.0
10
34.449664
20
16.923404
30
0.0
10
33.381288
20
17.236439
30
0.0
10
32.372247
20
17.116571
30
0.0
10
31.621166
20
16.632009
30
0.0
10
31.404429
20
16.274282
30
0.0
10
31.326667
20
15.850959
30
0.0
10
31.422741
20
15.168960
30
0.0
10
31.735734
20
14.718373
30
0.0
10
32.302805
20
14.469672
30
0.0
10
33.161111
20
14.393333
30
0.0
10
34.077804
20
14.492817
30
0.0
10
34.656889
20
14.732000
30
0.0
10
34.656889
20
14.732000
30
0.0
  0
ENDSEC
  0
SECTION
  2
OBJECTS
  0
DICTIONARY
  5
C
330
0
100
AcDbDictionary
  3
ACAD_GROUP
350
D
  3
ACAD_MLINESTYLE
350
17
  0
DICTIONARY
  5
D
330
C
100
AcDbDictionary
  0
DICTIONARY
  5
1A
330
C
100
AcDbDictionary
  0
DICTIONARY
  5
17
330
C
100
AcDbDictionary
  3
STANDARD
350
18
  0
DICTIONARY
  5
19
330
C
100
AcDbDictionary
  0
ENDSEC
  0
EOF
