999
Inkscape export via OpenSCAD DXF Export
  0
SECTION
  2
HEADER
  9
$ACADVER
  1
AC1014
  9
$HANDSEED
  5
FFFF
  9
$MEASUREMENT
 70
     1
  0
ENDSEC
  0
SECTION
  2
TABLES
  0
TABLE
  2
VPORT
  5
8
330
0
100
AcDbSymbolTable
 70
     4
  0
VPORT
  5
2E
330
8
100
AcDbSymbolTableRecord
100
AcDbViewportTableRecord
  2
*ACTIVE
 70
     0
 10
0.0
 20
0.0
 11
1.0
 21
1.0
 12
210.0
 22
148.5
 13
0.0
 23
0.0
 14
10.0
 24
10.0
 15
10.0
 25
10.0
 16
0.0
 26
0.0
 36
1.0
 17
0.0
 27
0.0
 37
0.0
 40
341.0
 41
1.24
 42
50.0
 43
0.0
 44
0.0
 50
0.0
 51
0.0
 71
     0
 72
   100
 73
     1
 74
     3
 75
     0
 76
     0
 77
     0
 78
     0
  0
ENDTAB
  0
TABLE
  2
LTYPE
  5
5
330
0
100
AcDbSymbolTable
 70
     1
  0
LTYPE
  5
14
330
5
100
AcDbSymbolTableRecord
100
AcDbLinetypeTableRecord
  2
BYBLOCK
 70
     0
  3

 72
    65
 73
     0
 40
0.0
  0
LTYPE
  5
15
330
5
100
AcDbSymbolTableRecord
100
AcDbLinetypeTableRecord
  2
BYLAYER
 70
     0
  3

 72
    65
 73
     0
 40
0.0
  0
LTYPE
  5
16
330
5
100
AcDbSymbolTableRecord
100
AcDbLinetypeTableRecord
  2
CONTINUOUS
 70
     0
  3
Solid line
 72
    65
 73
     0
 40
0.0
  0
ENDTAB
  0
TABLE
0
TABLE
2
LAYER
5
2
330
0
100
AcDbSymbolTable
70
1
0
LAYER
5
10
330
2
100
AcDbSymbolTableRecord
100
AcDbLayerTableRecord
2
Layer_1
70
0
62
7
6
CONTINUOUS
0
ENDTAB
0
ENDSEC
  0
ENDTAB
  0
TABLE
  2
STYLE
  5
3
330
0
100
AcDbSymbolTable
 70
     1
  0
STYLE
  5
11
330
3
100
AcDbSymbolTableRecord
100
AcDbTextStyleTableRecord
  2
STANDARD
 70
     0
 40
0.0
 41
1.0
 50
0.0
 71
     0
 42
2.5
  3
txt
  4

  0
ENDTAB
  0
TABLE
  2
VIEW
  5
6
330
0
100
AcDbSymbolTable
 70
     0
  0
ENDTAB
  0
TABLE
  2
UCS
  5
7
330
0
100
AcDbSymbolTable
 70
     0
  0
ENDTAB
  0
TABLE
  2
APPID
  5
9
330
0
100
AcDbSymbolTable
 70
     2
  0
APPID
  5
12
330
9
100
AcDbSymbolTableRecord
100
AcDbRegAppTableRecord
  2
ACAD
 70
     0
  0
ENDTAB
  0
TABLE
  2
DIMSTYLE
  5
A
330
0
100
AcDbSymbolTable
 70
     1
  0
DIMSTYLE
105
27
330
A
100
AcDbSymbolTableRecord
100
AcDbDimStyleTableRecord
  2
ISO-25
 70
     0
  3

  4

  5

  6

  7

 40
1.0
 41
2.5
 42
0.625
 43
3.75
 44
1.25
 45
0.0
 46
0.0
 47
0.0
 48
0.0
140
2.5
141
2.5
142
0.0
143
0.03937007874016
144
1.0
145
0.0
146
1.0
147
0.625
 71
     0
 72
     0
 73
     0
 74
     0
 75
     0
 76
     0
 77
     1
 78
     8
170
     0
171
     3
172
     1
173
     0
174
     0
175
     0
176
     0
177
     0
178
     0
270
     2
271
     2
272
     2
273
     2
274
     3
340
11
275
     0
280
     0
281
     0
282
     0
283
     0
284
     8
285
     0
286
     0
287
     3
288
     0
  0
ENDTAB
  0
TABLE
  2
BLOCK_RECORD
  5
1
330
0
100
AcDbSymbolTable
 70
     1
  0
BLOCK_RECORD
  5
1F
330
1
100
AcDbSymbolTableRecord
100
AcDbBlockTableRecord
  2
*MODEL_SPACE
  0
BLOCK_RECORD
  5
1B
330
1
100
AcDbSymbolTableRecord
100
AcDbBlockTableRecord
  2
*PAPER_SPACE
  0
ENDTAB
  0
ENDSEC
  0
SECTION
  2
BLOCKS
  0
BLOCK
  5
20
330
1F
100
AcDbEntity
  8
0
100
AcDbBlockBegin
  2
*MODEL_SPACE
 70
     0
 10
0.0
 20
0.0
 30
0.0
  3
*MODEL_SPACE
  1

  0
ENDBLK
  5
21
330
1F
100
AcDbEntity
  8
0
100
AcDbBlockEnd
  0
BLOCK
  5
1C
330
1B
100
AcDbEntity
 67
     1
  8
0
100
AcDbBlockBegin
  2
*PAPER_SPACE
  1

  0
ENDBLK
  5
1D
330
1B
100
AcDbEntity
 67
     1
  8
0
100
AcDbBlockEnd
  0
ENDSEC
  0
SECTION
  2
ENTITIES
0
DIMENSION
5
83
100
AcDbEntity
62
256
370
-1
6
ByLayer
1
total_width
3
Standard
70
0
71
5
72
1
41
1.0
100
AcDbAlignedDimension
13
1.199413
23
0.000000
33
0.0
14
41.134911
24
0.000000
34
0.0
50
0.000000
100
AcDbRotatedDimension
0
DIMENSION
5
83
100
AcDbEntity
62
256
370
-1
6
ByLayer
1
total_minx
3
Standard
70
0
71
5
72
1
41
1.0
100
AcDbAlignedDimension
13
1.199413
23
0.000000
33
0.0
14
0.000000
24
0.000000
34
0.0
50
0.000000
100
AcDbRotatedDimension
0
DIMENSION
5
83
100
AcDbEntity
62
256
370
-1
6
ByLayer
1
total_maxx
3
Standard
70
0
71
5
72
1
41
1.0
100
AcDbAlignedDimension
13
0.000000
23
0.000000
33
0.0
14
41.134911
24
0.000000
34
0.0
50
0.000000
100
AcDbRotatedDimension
0
DIMENSION
5
83
100
AcDbEntity
62
256
370
-1
6
ByLayer
1
total_height
3
Standard
70
0
71
5
72
1
41
1.0
100
AcDbAlignedDimension
13
0.000000
23
1.174367
33
0.0
14
0.000000
24
24.491241
34
0.0
50
90.000000
100
AcDbRotatedDimension
0
DIMENSION
5
83
100
AcDbEntity
62
256
370
-1
6
ByLayer
1
total_miny
3
Standard
70
0
71
5
72
1
41
1.0
100
AcDbAlignedDimension
13
1.174367
23
0.000000
33
0.0
14
0.000000
24
0.000000
34
0.0
50
0.000000
100
AcDbRotatedDimension
0
DIMENSION
5
83
100
AcDbEntity
62
256
370
-1
6
ByLayer
1
total_maxy
3
Standard
70
0
71
5
72
1
41
1.0
100
AcDbAlignedDimension
13
0.000000
23
0.000000
33
0.0
14
24.491241
24
0.000000
34
0.0
50
0.000000
100
AcDbRotatedDimension
0
DIMENSION
8
Layer_1
5
83
100
AcDbEntity
62
256
370
-1
6
ByLayer
1
Layer_1_width
3
Standard
70
0
71
5
72
1
41
1.0
100
AcDbAlignedDimension
13
1.199413
23
0.000000
33
0.0
14
41.134911
24
0.000000
34
0.0
50
0.000000
100
AcDbRotatedDimension
0
DIMENSION
8
Layer_1
5
83
100
AcDbEntity
62
256
370
-1
6
ByLayer
1
Layer_1_minx
3
Standard
70
0
71
5
72
1
41
1.0
100
AcDbAlignedDimension
13
1.199413
23
0.000000
33
0.0
14
0.000000
24
0.000000
34
0.0
50
0.000000
100
AcDbRotatedDimension
0
DIMENSION
8
Layer_1
5
83
100
AcDbEntity
62
256
370
-1
6
ByLayer
1
Layer_1_maxx
3
Standard
70
0
71
5
72
1
41
1.0
100
AcDbAlignedDimension
13
0.000000
23
0.000000
33
0.0
14
41.134911
24
0.000000
34
0.0
50
0.000000
100
AcDbRotatedDimension
0
DIMENSION
8
Layer_1
5
83
100
AcDbEntity
62
256
370
-1
6
ByLayer
1
Layer_1_height
3
Standard
70
0
71
5
72
1
41
1.0
100
AcDbAlignedDimension
13
0.000000
23
1.174367
33
0.0
14
0.000000
24
24.491241
34
0.0
50
90.000000
100
AcDbRotatedDimension
0
DIMENSION
8
Layer_1
5
83
100
AcDbEntity
62
256
370
-1
6
ByLayer
1
Layer_1_miny
3
Standard
70
0
71
5
72
1
41
1.0
100
AcDbAlignedDimension
13
1.174367
23
0.000000
33
0.0
14
0.000000
24
0.000000
34
0.0
50
0.000000
100
AcDbRotatedDimension
0
DIMENSION
8
Layer_1
5
83
100
AcDbEntity
62
256
370
-1
6
ByLayer
1
Layer_1_maxy
3
Standard
70
0
71
5
72
1
41
1.0
100
AcDbAlignedDimension
13
0.000000
23
0.000000
33
0.0
14
24.491241
24
0.000000
34
0.0
50
0.000000
100
AcDbRotatedDimension
62
0
0
LWPOLYLINE
100
AcDbPolyline
8
Layer_1
90
46
70
0
10
9.948524
20
1.564963
30
0.0
10
8.404229
20
2.070538
30
0.0
10
7.060943
20
2.721444
30
0.0
10
5.822849
20
3.573468
30
0.0
10
4.594126
20
4.682396
30
0.0
10
3.104205
20
6.502531
30
0.0
10
2.041893
20
8.513271
30
0.0
10
1.407019
20
10.651465
30
0.0
10
1.199413
20
12.853962
30
0.0
10
1.418904
20
15.057611
30
0.0
10
2.065323
20
17.199262
30
0.0
10
3.138499
20
19.215762
30
0.0
10
4.638261
20
21.043961
30
0.0
10
5.681722
20
21.971944
30
0.0
10
6.812786
20
22.763702
30
0.0
10
8.015391
20
23.413868
30
0.0
10
9.273472
20
23.917074
30
0.0
10
10.570967
20
24.267950
30
0.0
10
11.891814
20
24.461128
30
0.0
10
13.219948
20
24.491241
30
0.0
10
14.539306
20
24.352920
30
0.0
10
16.281243
20
23.933578
30
0.0
10
17.896386
20
23.300661
30
0.0
10
19.371076
20
22.466446
30
0.0
10
20.691654
20
21.443210
30
0.0
10
21.844459
20
20.243231
30
0.0
10
22.815834
20
18.878787
30
0.0
10
23.592119
20
17.362155
30
0.0
10
24.159654
20
15.705613
30
0.0
10
24.462787
20
14.132096
30
0.0
10
24.539767
20
12.583566
30
0.0
10
24.405016
20
11.074376
30
0.0
10
24.072959
20
9.618878
30
0.0
10
23.558019
20
8.231423
30
0.0
10
22.874619
20
6.926363
30
0.0
10
22.037183
20
5.718052
30
0.0
10
21.060135
20
4.620839
30
0.0
10
19.957898
20
3.649078
30
0.0
10
18.744896
20
2.817121
30
0.0
10
17.435551
20
2.139319
30
0.0
10
16.044288
20
1.630025
30
0.0
10
14.585531
20
1.303590
30
0.0
10
13.073702
20
1.174367
30
0.0
10
11.523225
20
1.256707
30
0.0
10
9.948524
20
1.564963
30
0.0
10
9.948524
20
1.564963
30
0.0
62
0
0
LWPOLYLINE
100
AcDbPolyline
8
Layer_1
90
32
70
0
10
15.114583
20
3.209911
30
0.0
10
16.030560
20
3.733284
30
0.0
10
16.878992
20
4.411117
30
0.0
10
18.330804
20
6.163745
30
0.0
10
19.385177
20
8.334962
30
0.0
10
19.957268
20
10.791934
30
0.0
10
20.116400
20
12.135556
30
0.0
10
18.669765
20
12.135556
30
0.0
10
17.376508
20
12.000662
30
0.0
10
17.083833
20
11.722126
30
0.0
10
16.834385
20
11.205156
30
0.0
10
16.320873
20
10.346272
30
0.0
10
15.575926
20
9.565988
30
0.0
10
14.705008
20
8.955103
30
0.0
10
13.813587
20
8.604417
30
0.0
10
12.310841
20
8.560963
30
0.0
10
10.882052
20
9.032438
30
0.0
10
9.677593
20
9.940088
30
0.0
10
8.847838
20
11.205156
30
0.0
10
8.459092
20
12.135556
30
0.0
10
5.535982
20
12.135556
30
0.0
10
2.612873
20
12.135556
30
0.0
10
2.847933
20
10.877339
30
0.0
10
3.534343
20
8.741486
30
0.0
10
4.716324
20
6.765627
30
0.0
10
6.295540
20
5.080157
30
0.0
10
8.173655
20
3.815467
30
0.0
10
10.126890
20
2.994680
30
0.0
10
11.893506
20
2.623759
30
0.0
10
13.535428
20
2.697304
30
0.0
10
15.114583
20
3.209911
30
0.0
10
15.114583
20
3.209911
30
0.0
62
0
0
LWPOLYLINE
100
AcDbPolyline
8
Layer_1
90
24
70
0
10
14.274713
20
10.409899
30
0.0
10
14.833440
20
10.835642
30
0.0
10
15.257298
20
11.337057
30
0.0
10
15.690503
20
12.487962
30
0.0
10
15.554508
20
13.704735
30
0.0
10
15.266867
20
14.288484
30
0.0
10
14.829495
20
14.829495
30
0.0
10
14.099016
20
15.399871
30
0.0
10
13.329866
20
15.687528
30
0.0
10
12.519867
20
15.692872
30
0.0
10
11.666840
20
15.416307
30
0.0
10
10.989566
20
14.970121
30
0.0
10
10.491223
20
14.389827
30
0.0
10
10.174131
20
13.717025
30
0.0
10
10.040606
20
12.993317
30
0.0
10
10.092966
20
12.260303
30
0.0
10
10.333530
20
11.559584
30
0.0
10
10.764615
20
10.932761
30
0.0
10
11.388540
20
10.421435
30
0.0
10
12.155185
20
10.038398
30
0.0
10
12.837097
20
9.909015
30
0.0
10
13.516273
20
10.032958
30
0.0
10
14.274713
20
10.409898
30
0.0
10
14.274713
20
10.409899
30
0.0
62
0
0
LWPOLYLINE
100
AcDbPolyline
8
Layer_1
90
17
70
0
10
12.214554
20
11.595604
30
0.0
10
11.681907
20
11.982910
30
0.0
10
11.403212
20
12.573431
30
0.0
10
11.407179
20
13.236203
30
0.0
10
11.722514
20
13.840261
30
0.0
10
12.255074
20
14.240197
30
0.0
10
12.846221
20
14.369856
30
0.0
10
13.439320
20
14.229737
30
0.0
10
13.977734
20
13.820342
30
0.0
10
14.255577
20
13.378432
30
0.0
10
14.340585
20
12.919633
30
0.0
10
14.257999
20
12.475792
30
0.0
10
14.033059
20
12.078755
30
0.0
10
13.257075
20
11.552486
30
0.0
10
12.756512
20
11.486947
30
0.0
10
12.214554
20
11.595603
30
0.0
10
12.214554
20
11.595604
30
0.0
62
0
0
LWPOLYLINE
100
AcDbPolyline
8
Layer_1
90
20
70
0
10
5.862161
20
15.253100
30
0.0
10
6.552195
20
17.653087
30
0.0
10
7.627912
20
19.751811
30
0.0
10
8.993344
20
21.401893
30
0.0
10
9.754712
20
22.012637
30
0.0
10
10.552519
20
22.455954
30
0.0
10
11.110986
20
22.755797
30
0.0
10
10.865556
20
22.848731
30
0.0
10
9.803506
20
22.588766
30
0.0
10
8.343236
20
21.909710
30
0.0
10
6.846942
20
21.005520
30
0.0
10
5.676820
20
20.070153
30
0.0
10
4.715923
20
18.930917
30
0.0
10
3.883790
20
17.598521
30
0.0
10
3.240951
20
16.185623
30
0.0
10
2.847933
20
14.804883
30
0.0
10
2.612873
20
13.546667
30
0.0
10
4.078845
20
13.546667
30
0.0
10
5.544817
20
13.546667
30
0.0
10
5.862161
20
15.253100
30
0.0
62
0
0
LWPOLYLINE
100
AcDbPolyline
8
Layer_1
90
45
70
0
10
28.504444
20
6.089809
30
0.0
10
27.069513
20
6.710160
30
0.0
10
26.107901
20
7.535031
30
0.0
10
25.568449
20
8.629847
30
0.0
10
25.400000
20
10.060032
30
0.0
10
25.546082
20
11.402764
30
0.0
10
26.117951
20
12.381040
30
0.0
10
26.795067
20
13.037614
30
0.0
10
27.414841
20
13.418024
30
0.0
10
27.713743
20
13.537590
30
0.0
10
27.777225
20
13.684890
30
0.0
10
27.101151
20
14.350331
30
0.0
10
26.393442
20
15.215798
30
0.0
10
26.025514
20
16.275277
30
0.0
10
26.016868
20
17.414892
30
0.0
10
26.387004
20
18.520768
30
0.0
10
27.170051
20
19.487421
30
0.0
10
28.366456
20
20.174573
30
0.0
10
30.050170
20
20.611076
30
0.0
10
32.295140
20
20.825781
30
0.0
10
34.749360
20
20.834281
30
0.0
10
36.712741
20
20.611138
30
0.0
10
38.238097
20
20.145931
30
0.0
10
39.378241
20
19.428240
30
0.0
10
39.908133
20
18.865689
30
0.0
10
40.292563
20
18.248035
30
0.0
10
40.623047
20
16.919805
30
0.0
10
40.365709
20
15.588341
30
0.0
10
40.015362
20
14.966642
30
0.0
10
39.516566
20
14.398430
30
0.0
10
38.707687
20
13.642822
30
0.0
10
39.534177
20
13.154602
30
0.0
10
40.315012
20
12.521337
30
0.0
10
40.846012
20
11.698193
30
0.0
10
41.121278
20
10.698509
30
0.0
10
41.134911
20
9.535624
30
0.0
10
40.845427
20
8.333501
30
0.0
10
40.227313
20
7.356581
30
0.0
10
39.276676
20
6.600562
30
0.0
10
37.989620
20
6.061143
30
0.0
10
35.973482
20
5.755037
30
0.0
10
33.210421
20
5.659321
30
0.0
10
30.465666
20
5.771682
30
0.0
10
28.504444
20
6.089809
30
0.0
10
28.504444
20
6.089809
30
0.0
62
0
0
LWPOLYLINE
100
AcDbPolyline
8
Layer_1
90
18
70
0
10
34.834285
20
9.756826
30
0.0
10
35.216862
20
10.336375
30
0.0
10
35.273781
20
10.917208
30
0.0
10
35.061781
20
11.455562
30
0.0
10
34.637604
20
11.907674
30
0.0
10
34.057987
20
12.229782
30
0.0
10
33.379673
20
12.378121
30
0.0
10
32.659400
20
12.308928
30
0.0
10
31.953908
20
11.978441
30
0.0
10
31.527063
20
11.504657
30
0.0
10
31.349006
20
10.914181
30
0.0
10
31.427462
20
10.300430
30
0.0
10
31.770159
20
9.756826
30
0.0
10
32.411014
20
9.432654
30
0.0
10
33.302222
20
9.324597
30
0.0
10
34.193430
20
9.432654
30
0.0
10
34.834285
20
9.756826
30
0.0
10
34.834285
20
9.756826
30
0.0
62
0
0
LWPOLYLINE
100
AcDbPolyline
8
Layer_1
90
18
70
0
10
34.545084
20
15.044146
30
0.0
10
34.912450
20
15.535546
30
0.0
10
34.939535
20
16.131219
30
0.0
10
34.652707
20
16.711758
30
0.0
10
34.078333
20
17.157756
30
0.0
10
33.302222
20
17.387466
30
0.0
10
32.526111
20
17.157756
30
0.0
10
32.048352
20
16.841338
30
0.0
10
31.755131
20
16.461691
30
0.0
10
31.636291
20
16.051309
30
0.0
10
31.681672
20
15.642682
30
0.0
10
31.881115
20
15.268301
30
0.0
10
32.224460
20
14.960659
30
0.0
10
32.701549
20
14.752247
30
0.0
10
33.302222
20
14.675556
30
0.0
10
33.972062
20
14.783829
30
0.0
10
34.545084
20
15.044146
30
0.0
10
34.545084
20
15.044146
30
0.0
  0
ENDSEC
  0
SECTION
  2
OBJECTS
  0
DICTIONARY
  5
C
330
0
100
AcDbDictionary
  3
ACAD_GROUP
350
D
  3
ACAD_MLINESTYLE
350
17
  0
DICTIONARY
  5
D
330
C
100
AcDbDictionary
  0
DICTIONARY
  5
1A
330
C
100
AcDbDictionary
  0
DICTIONARY
  5
17
330
C
100
AcDbDictionary
  3
STANDARD
350
18
  0
DICTIONARY
  5
19
330
C
100
AcDbDictionary
  0
ENDSEC
  0
EOF
