999
Inkscape export via OpenSCAD DXF Export
  0
SECTION
  2
HEADER
  9
$ACADVER
  1
AC1014
  9
$HANDSEED
  5
FFFF
  9
$MEASUREMENT
 70
     1
  0
ENDSEC
  0
SECTION
  2
TABLES
  0
TABLE
  2
VPORT
  5
8
330
0
100
AcDbSymbolTable
 70
     4
  0
VPORT
  5
2E
330
8
100
AcDbSymbolTableRecord
100
AcDbViewportTableRecord
  2
*ACTIVE
 70
     0
 10
0.0
 20
0.0
 11
1.0
 21
1.0
 12
210.0
 22
148.5
 13
0.0
 23
0.0
 14
10.0
 24
10.0
 15
10.0
 25
10.0
 16
0.0
 26
0.0
 36
1.0
 17
0.0
 27
0.0
 37
0.0
 40
341.0
 41
1.24
 42
50.0
 43
0.0
 44
0.0
 50
0.0
 51
0.0
 71
     0
 72
   100
 73
     1
 74
     3
 75
     0
 76
     0
 77
     0
 78
     0
  0
ENDTAB
  0
TABLE
  2
LTYPE
  5
5
330
0
100
AcDbSymbolTable
 70
     1
  0
LTYPE
  5
14
330
5
100
AcDbSymbolTableRecord
100
AcDbLinetypeTableRecord
  2
BYBLOCK
 70
     0
  3

 72
    65
 73
     0
 40
0.0
  0
LTYPE
  5
15
330
5
100
AcDbSymbolTableRecord
100
AcDbLinetypeTableRecord
  2
BYLAYER
 70
     0
  3

 72
    65
 73
     0
 40
0.0
  0
LTYPE
  5
16
330
5
100
AcDbSymbolTableRecord
100
AcDbLinetypeTableRecord
  2
CONTINUOUS
 70
     0
  3
Solid line
 72
    65
 73
     0
 40
0.0
  0
ENDTAB
  0
TABLE
0
TABLE
2
LAYER
5
2
330
0
100
AcDbSymbolTable
70
1
0
LAYER
5
10
330
2
100
AcDbSymbolTableRecord
100
AcDbLayerTableRecord
2
Layer_1
70
0
62
7
6
CONTINUOUS
0
ENDTAB
0
ENDSEC
  0
ENDTAB
  0
TABLE
  2
STYLE
  5
3
330
0
100
AcDbSymbolTable
 70
     1
  0
STYLE
  5
11
330
3
100
AcDbSymbolTableRecord
100
AcDbTextStyleTableRecord
  2
STANDARD
 70
     0
 40
0.0
 41
1.0
 50
0.0
 71
     0
 42
2.5
  3
txt
  4

  0
ENDTAB
  0
TABLE
  2
VIEW
  5
6
330
0
100
AcDbSymbolTable
 70
     0
  0
ENDTAB
  0
TABLE
  2
UCS
  5
7
330
0
100
AcDbSymbolTable
 70
     0
  0
ENDTAB
  0
TABLE
  2
APPID
  5
9
330
0
100
AcDbSymbolTable
 70
     2
  0
APPID
  5
12
330
9
100
AcDbSymbolTableRecord
100
AcDbRegAppTableRecord
  2
ACAD
 70
     0
  0
ENDTAB
  0
TABLE
  2
DIMSTYLE
  5
A
330
0
100
AcDbSymbolTable
 70
     1
  0
DIMSTYLE
105
27
330
A
100
AcDbSymbolTableRecord
100
AcDbDimStyleTableRecord
  2
ISO-25
 70
     0
  3

  4

  5

  6

  7

 40
1.0
 41
2.5
 42
0.625
 43
3.75
 44
1.25
 45
0.0
 46
0.0
 47
0.0
 48
0.0
140
2.5
141
2.5
142
0.0
143
0.03937007874016
144
1.0
145
0.0
146
1.0
147
0.625
 71
     0
 72
     0
 73
     0
 74
     0
 75
     0
 76
     0
 77
     1
 78
     8
170
     0
171
     3
172
     1
173
     0
174
     0
175
     0
176
     0
177
     0
178
     0
270
     2
271
     2
272
     2
273
     2
274
     3
340
11
275
     0
280
     0
281
     0
282
     0
283
     0
284
     8
285
     0
286
     0
287
     3
288
     0
  0
ENDTAB
  0
TABLE
  2
BLOCK_RECORD
  5
1
330
0
100
AcDbSymbolTable
 70
     1
  0
BLOCK_RECORD
  5
1F
330
1
100
AcDbSymbolTableRecord
100
AcDbBlockTableRecord
  2
*MODEL_SPACE
  0
BLOCK_RECORD
  5
1B
330
1
100
AcDbSymbolTableRecord
100
AcDbBlockTableRecord
  2
*PAPER_SPACE
  0
ENDTAB
  0
ENDSEC
  0
SECTION
  2
BLOCKS
  0
BLOCK
  5
20
330
1F
100
AcDbEntity
  8
0
100
AcDbBlockBegin
  2
*MODEL_SPACE
 70
     0
 10
0.0
 20
0.0
 30
0.0
  3
*MODEL_SPACE
  1

  0
ENDBLK
  5
21
330
1F
100
AcDbEntity
  8
0
100
AcDbBlockEnd
  0
BLOCK
  5
1C
330
1B
100
AcDbEntity
 67
     1
  8
0
100
AcDbBlockBegin
  2
*PAPER_SPACE
  1

  0
ENDBLK
  5
1D
330
1B
100
AcDbEntity
 67
     1
  8
0
100
AcDbBlockEnd
  0
ENDSEC
  0
SECTION
  2
ENTITIES
0
DIMENSION
5
83
100
AcDbEntity
62
256
370
-1
6
ByLayer
1
total_width
3
Standard
70
0
71
5
72
1
41
1.0
100
AcDbAlignedDimension
13
-0.018943
23
0.000000
33
0.0
14
42.314391
24
0.000000
34
0.0
50
0.000000
100
AcDbRotatedDimension
0
DIMENSION
5
83
100
AcDbEntity
62
256
370
-1
6
ByLayer
1
total_minx
3
Standard
70
0
71
5
72
1
41
1.0
100
AcDbAlignedDimension
13
-0.018943
23
0.000000
33
0.0
14
0.000000
24
0.000000
34
0.0
50
0.000000
100
AcDbRotatedDimension
0
DIMENSION
5
83
100
AcDbEntity
62
256
370
-1
6
ByLayer
1
total_maxx
3
Standard
70
0
71
5
72
1
41
1.0
100
AcDbAlignedDimension
13
0.000000
23
0.000000
33
0.0
14
42.314391
24
0.000000
34
0.0
50
0.000000
100
AcDbRotatedDimension
0
DIMENSION
5
83
100
AcDbEntity
62
256
370
-1
6
ByLayer
1
total_height
3
Standard
70
0
71
5
72
1
41
1.0
100
AcDbAlignedDimension
13
0.000000
23
0.043423
33
0.0
14
0.000000
24
33.302222
34
0.0
50
90.000000
100
AcDbRotatedDimension
0
DIMENSION
5
83
100
AcDbEntity
62
256
370
-1
6
ByLayer
1
total_miny
3
Standard
70
0
71
5
72
1
41
1.0
100
AcDbAlignedDimension
13
0.043423
23
0.000000
33
0.0
14
0.000000
24
0.000000
34
0.0
50
0.000000
100
AcDbRotatedDimension
0
DIMENSION
5
83
100
AcDbEntity
62
256
370
-1
6
ByLayer
1
total_maxy
3
Standard
70
0
71
5
72
1
41
1.0
100
AcDbAlignedDimension
13
0.000000
23
0.000000
33
0.0
14
33.302222
24
0.000000
34
0.0
50
0.000000
100
AcDbRotatedDimension
0
DIMENSION
8
Layer_1
5
83
100
AcDbEntity
62
256
370
-1
6
ByLayer
1
Layer_1_width
3
Standard
70
0
71
5
72
1
41
1.0
100
AcDbAlignedDimension
13
-0.018943
23
0.000000
33
0.0
14
42.314391
24
0.000000
34
0.0
50
0.000000
100
AcDbRotatedDimension
0
DIMENSION
8
Layer_1
5
83
100
AcDbEntity
62
256
370
-1
6
ByLayer
1
Layer_1_minx
3
Standard
70
0
71
5
72
1
41
1.0
100
AcDbAlignedDimension
13
-0.018943
23
0.000000
33
0.0
14
0.000000
24
0.000000
34
0.0
50
0.000000
100
AcDbRotatedDimension
0
DIMENSION
8
Layer_1
5
83
100
AcDbEntity
62
256
370
-1
6
ByLayer
1
Layer_1_maxx
3
Standard
70
0
71
5
72
1
41
1.0
100
AcDbAlignedDimension
13
0.000000
23
0.000000
33
0.0
14
42.314391
24
0.000000
34
0.0
50
0.000000
100
AcDbRotatedDimension
0
DIMENSION
8
Layer_1
5
83
100
AcDbEntity
62
256
370
-1
6
ByLayer
1
Layer_1_height
3
Standard
70
0
71
5
72
1
41
1.0
100
AcDbAlignedDimension
13
0.000000
23
0.043423
33
0.0
14
0.000000
24
33.302222
34
0.0
50
90.000000
100
AcDbRotatedDimension
0
DIMENSION
8
Layer_1
5
83
100
AcDbEntity
62
256
370
-1
6
ByLayer
1
Layer_1_miny
3
Standard
70
0
71
5
72
1
41
1.0
100
AcDbAlignedDimension
13
0.043423
23
0.000000
33
0.0
14
0.000000
24
0.000000
34
0.0
50
0.000000
100
AcDbRotatedDimension
0
DIMENSION
8
Layer_1
5
83
100
AcDbEntity
62
256
370
-1
6
ByLayer
1
Layer_1_maxy
3
Standard
70
0
71
5
72
1
41
1.0
100
AcDbAlignedDimension
13
0.000000
23
0.000000
33
0.0
14
33.302222
24
0.000000
34
0.0
50
0.000000
100
AcDbRotatedDimension
62
0
0
LWPOLYLINE
100
AcDbPolyline
8
Layer_1
90
19
70
0
10
12.681057
20
0.305446
30
0.0
10
10.794825
20
0.698525
30
0.0
10
10.178594
20
0.847999
30
0.0
10
10.827772
20
2.752333
30
0.0
10
11.408515
20
4.140945
30
0.0
10
11.867337
20
4.610780
30
0.0
10
13.777911
20
4.258002
30
0.0
10
16.388466
20
3.951111
30
0.0
10
17.009258
20
3.931289
30
0.0
10
17.337669
20
3.810056
30
0.0
10
17.471880
20
3.494768
30
0.0
10
17.510074
20
2.892778
30
0.0
10
17.452278
20
1.000664
30
0.0
10
17.314823
20
0.488944
30
0.0
10
17.097161
20
0.215987
30
0.0
10
16.457369
20
0.072802
30
0.0
10
15.338276
20
0.043423
30
0.0
10
12.681057
20
0.305446
30
0.0
10
12.681057
20
0.305446
30
0.0
62
0
0
LWPOLYLINE
100
AcDbPolyline
8
Layer_1
90
97
70
0
10
33.142795
20
5.856111
30
0.0
10
31.555708
20
9.389934
30
0.0
10
29.502134
20
12.942736
30
0.0
10
27.274700
20
16.058676
30
0.0
10
25.166034
20
18.281913
30
0.0
10
23.630780
20
19.465460
30
0.0
10
22.259090
20
20.121675
30
0.0
10
20.477715
20
20.425009
30
0.0
10
17.713405
20
20.549915
30
0.0
10
14.461465
20
20.547444
30
0.0
10
11.670190
20
20.251200
30
0.0
10
8.596423
20
19.532593
30
0.0
10
4.497005
20
18.263030
30
0.0
10
0.742112
20
17.121854
30
0.0
10
0.125329
20
17.074007
30
0.0
10
-0.018943
20
17.295854
30
0.0
10
0.193410
20
17.897435
30
0.0
10
0.785501
20
18.687278
30
0.0
10
2.839074
20
20.611101
30
0.0
10
5.602134
20
22.626037
30
0.0
10
8.535041
20
24.290799
30
0.0
10
10.411177
20
24.973860
30
0.0
10
12.772306
20
25.117555
30
0.0
10
14.811119
20
25.198860
30
0.0
10
15.133385
20
25.339526
30
0.0
10
15.171195
20
25.581757
30
0.0
10
14.873019
20
26.084034
30
0.0
10
14.284264
20
26.640090
30
0.0
10
13.748353
20
26.953380
30
0.0
10
13.013439
20
27.146724
30
0.0
10
9.980375
20
27.328017
30
0.0
10
7.502704
20
27.468115
30
0.0
10
6.472168
20
27.673547
30
0.0
10
6.735380
20
28.019666
30
0.0
10
7.515087
20
28.424285
30
0.0
10
10.564390
20
29.384119
30
0.0
10
13.177921
20
29.879023
30
0.0
10
15.832688
20
30.079543
30
0.0
10
18.094065
20
29.977016
30
0.0
10
18.941413
20
29.809402
30
0.0
10
19.527428
20
29.562778
30
0.0
10
20.163535
20
29.178439
30
0.0
10
20.388476
20
29.173127
30
0.0
10
19.631236
20
30.550556
30
0.0
10
18.507302
20
32.628064
30
0.0
10
18.439749
20
33.135403
30
0.0
10
18.697136
20
33.302222
30
0.0
10
19.875630
20
32.923648
30
0.0
10
21.649758
20
32.010235
30
0.0
10
23.434403
20
30.895452
30
0.0
10
24.644450
20
29.912763
30
0.0
10
25.471792
20
28.761613
30
0.0
10
25.663279
20
27.532666
30
0.0
10
25.663279
20
26.280292
30
0.0
10
27.709390
20
26.989026
30
0.0
10
29.847808
20
27.571535
30
0.0
10
31.965366
20
27.863923
30
0.0
10
33.880301
20
27.853482
30
0.0
10
35.410851
20
27.527502
30
0.0
10
36.407040
20
26.978343
30
0.0
10
37.243391
20
26.178761
30
0.0
10
37.873587
20
25.185380
30
0.0
10
38.251313
20
24.054826
30
0.0
10
38.356782
20
23.454890
30
0.0
10
38.265673
20
23.207358
30
0.0
10
36.952168
20
23.565556
30
0.0
10
35.724862
20
23.839937
30
0.0
10
34.250858
20
23.975615
30
0.0
10
32.971212
20
23.954276
30
0.0
10
32.326984
20
23.757607
30
0.0
10
32.738008
20
23.410052
30
0.0
10
33.926938
20
22.899222
30
0.0
10
35.746643
20
22.159123
30
0.0
10
37.381765
20
21.321421
30
0.0
10
38.814413
20
20.402605
30
0.0
10
40.026697
20
19.419162
30
0.0
10
41.000728
20
18.387583
30
0.0
10
41.718613
20
17.324354
30
0.0
10
42.162465
20
16.245966
30
0.0
10
42.314391
20
15.168907
30
0.0
10
42.036271
20
13.435413
30
0.0
10
41.790038
20
12.713418
30
0.0
10
41.562505
20
12.417778
30
0.0
10
38.614337
20
14.493061
30
0.0
10
35.191223
20
17.159666
30
0.0
10
34.599086
20
17.622287
30
0.0
10
34.261160
20
17.723065
30
0.0
10
34.319929
20
16.964827
30
0.0
10
34.681549
20
15.362154
30
0.0
10
35.143453
20
12.768302
30
0.0
10
35.241030
20
10.073891
30
0.0
10
34.981277
20
7.505991
30
0.0
10
34.371193
20
5.291667
30
0.0
10
33.851827
20
4.515556
30
0.0
10
33.557072
20
4.909344
30
0.0
10
33.142795
20
5.856111
30
0.0
10
33.142795
20
5.856111
30
0.0
62
0
0
LWPOLYLINE
100
AcDbPolyline
8
Layer_1
90
14
70
0
10
14.550203
20
5.518669
30
0.0
10
12.469705
20
6.043945
30
0.0
10
12.608847
20
6.643863
30
0.0
10
13.203463
20
7.696425
30
0.0
10
13.918933
20
8.681248
30
0.0
10
14.420640
20
9.077946
30
0.0
10
18.286749
20
8.027953
30
0.0
10
18.046933
20
6.506345
30
0.0
10
17.779048
20
5.577995
30
0.0
10
17.599833
20
5.314203
30
0.0
10
17.333743
20
5.167987
30
0.0
10
16.370851
20
5.180239
30
0.0
10
14.550203
20
5.518669
30
0.0
10
14.550203
20
5.518669
30
0.0
62
0
0
LWPOLYLINE
100
AcDbPolyline
8
Layer_1
90
13
70
0
10
16.916861
20
9.766880
30
0.0
10
15.644334
20
10.144459
30
0.0
10
15.120182
20
10.539607
30
0.0
10
15.253278
20
11.197782
30
0.0
10
15.952491
20
12.364445
30
0.0
10
17.751281
20
12.092173
30
0.0
10
19.494468
20
11.732123
30
0.0
10
19.307697
20
10.736544
30
0.0
10
19.119111
20
9.813408
30
0.0
10
18.834781
20
9.415874
30
0.0
10
18.189201
20
9.436259
30
0.0
10
16.916861
20
9.766880
30
0.0
10
16.916861
20
9.766880
30
0.0
62
0
0
LWPOLYLINE
100
AcDbPolyline
8
Layer_1
90
13
70
0
10
17.690501
20
13.310244
30
0.0
10
17.115515
20
13.567727
30
0.0
10
16.949461
20
13.917997
30
0.0
10
17.212985
20
14.574279
30
0.0
10
17.926737
20
15.749802
30
0.0
10
19.425025
20
15.361693
30
0.0
10
20.865501
20
14.770167
30
0.0
10
20.434920
20
13.814874
30
0.0
10
20.018352
20
13.279442
30
0.0
10
19.444976
20
13.021068
30
0.0
10
18.680468
20
13.033439
30
0.0
10
17.690501
20
13.310244
30
0.0
10
17.690501
20
13.310244
30
0.0
62
0
0
LWPOLYLINE
100
AcDbPolyline
8
Layer_1
90
13
70
0
10
19.827423
20
16.460915
30
0.0
10
18.757621
20
16.968320
30
0.0
10
18.822538
20
17.403232
30
0.0
10
19.188133
20
18.157583
30
0.0
10
19.652129
20
18.873000
30
0.0
10
20.012245
20
19.191111
30
0.0
10
22.500375
20
18.208614
30
0.0
10
22.095326
20
17.109385
30
0.0
10
21.723769
20
16.475782
30
0.0
10
21.303763
20
16.179901
30
0.0
10
20.712563
20
16.186644
30
0.0
10
19.827423
20
16.460915
30
0.0
10
19.827423
20
16.460915
30
0.0
  0
ENDSEC
  0
SECTION
  2
OBJECTS
  0
DICTIONARY
  5
C
330
0
100
AcDbDictionary
  3
ACAD_GROUP
350
D
  3
ACAD_MLINESTYLE
350
17
  0
DICTIONARY
  5
D
330
C
100
AcDbDictionary
  0
DICTIONARY
  5
1A
330
C
100
AcDbDictionary
  0
DICTIONARY
  5
17
330
C
100
AcDbDictionary
  3
STANDARD
350
18
  0
DICTIONARY
  5
19
330
C
100
AcDbDictionary
  0
ENDSEC
  0
EOF
