999
Inkscape export via OpenSCAD DXF Export
  0
SECTION
  2
HEADER
  9
$ACADVER
  1
AC1014
  9
$HANDSEED
  5
FFFF
  9
$MEASUREMENT
 70
     1
  0
ENDSEC
  0
SECTION
  2
TABLES
  0
TABLE
  2
VPORT
  5
8
330
0
100
AcDbSymbolTable
 70
     4
  0
VPORT
  5
2E
330
8
100
AcDbSymbolTableRecord
100
AcDbViewportTableRecord
  2
*ACTIVE
 70
     0
 10
0.0
 20
0.0
 11
1.0
 21
1.0
 12
210.0
 22
148.5
 13
0.0
 23
0.0
 14
10.0
 24
10.0
 15
10.0
 25
10.0
 16
0.0
 26
0.0
 36
1.0
 17
0.0
 27
0.0
 37
0.0
 40
341.0
 41
1.24
 42
50.0
 43
0.0
 44
0.0
 50
0.0
 51
0.0
 71
     0
 72
   100
 73
     1
 74
     3
 75
     0
 76
     0
 77
     0
 78
     0
  0
ENDTAB
  0
TABLE
  2
LTYPE
  5
5
330
0
100
AcDbSymbolTable
 70
     1
  0
LTYPE
  5
14
330
5
100
AcDbSymbolTableRecord
100
AcDbLinetypeTableRecord
  2
BYBLOCK
 70
     0
  3

 72
    65
 73
     0
 40
0.0
  0
LTYPE
  5
15
330
5
100
AcDbSymbolTableRecord
100
AcDbLinetypeTableRecord
  2
BYLAYER
 70
     0
  3

 72
    65
 73
     0
 40
0.0
  0
LTYPE
  5
16
330
5
100
AcDbSymbolTableRecord
100
AcDbLinetypeTableRecord
  2
CONTINUOUS
 70
     0
  3
Solid line
 72
    65
 73
     0
 40
0.0
  0
ENDTAB
  0
TABLE
0
TABLE
2
LAYER
5
2
330
0
100
AcDbSymbolTable
70
1
0
LAYER
5
10
330
2
100
AcDbSymbolTableRecord
100
AcDbLayerTableRecord
2
Layer_1
70
0
62
7
6
CONTINUOUS
0
ENDTAB
0
ENDSEC
  0
ENDTAB
  0
TABLE
  2
STYLE
  5
3
330
0
100
AcDbSymbolTable
 70
     1
  0
STYLE
  5
11
330
3
100
AcDbSymbolTableRecord
100
AcDbTextStyleTableRecord
  2
STANDARD
 70
     0
 40
0.0
 41
1.0
 50
0.0
 71
     0
 42
2.5
  3
txt
  4

  0
ENDTAB
  0
TABLE
  2
VIEW
  5
6
330
0
100
AcDbSymbolTable
 70
     0
  0
ENDTAB
  0
TABLE
  2
UCS
  5
7
330
0
100
AcDbSymbolTable
 70
     0
  0
ENDTAB
  0
TABLE
  2
APPID
  5
9
330
0
100
AcDbSymbolTable
 70
     2
  0
APPID
  5
12
330
9
100
AcDbSymbolTableRecord
100
AcDbRegAppTableRecord
  2
ACAD
 70
     0
  0
ENDTAB
  0
TABLE
  2
DIMSTYLE
  5
A
330
0
100
AcDbSymbolTable
 70
     1
  0
DIMSTYLE
105
27
330
A
100
AcDbSymbolTableRecord
100
AcDbDimStyleTableRecord
  2
ISO-25
 70
     0
  3

  4

  5

  6

  7

 40
1.0
 41
2.5
 42
0.625
 43
3.75
 44
1.25
 45
0.0
 46
0.0
 47
0.0
 48
0.0
140
2.5
141
2.5
142
0.0
143
0.03937007874016
144
1.0
145
0.0
146
1.0
147
0.625
 71
     0
 72
     0
 73
     0
 74
     0
 75
     0
 76
     0
 77
     1
 78
     8
170
     0
171
     3
172
     1
173
     0
174
     0
175
     0
176
     0
177
     0
178
     0
270
     2
271
     2
272
     2
273
     2
274
     3
340
11
275
     0
280
     0
281
     0
282
     0
283
     0
284
     8
285
     0
286
     0
287
     3
288
     0
  0
ENDTAB
  0
TABLE
  2
BLOCK_RECORD
  5
1
330
0
100
AcDbSymbolTable
 70
     1
  0
BLOCK_RECORD
  5
1F
330
1
100
AcDbSymbolTableRecord
100
AcDbBlockTableRecord
  2
*MODEL_SPACE
  0
BLOCK_RECORD
  5
1B
330
1
100
AcDbSymbolTableRecord
100
AcDbBlockTableRecord
  2
*PAPER_SPACE
  0
ENDTAB
  0
ENDSEC
  0
SECTION
  2
BLOCKS
  0
BLOCK
  5
20
330
1F
100
AcDbEntity
  8
0
100
AcDbBlockBegin
  2
*MODEL_SPACE
 70
     0
 10
0.0
 20
0.0
 30
0.0
  3
*MODEL_SPACE
  1

  0
ENDBLK
  5
21
330
1F
100
AcDbEntity
  8
0
100
AcDbBlockEnd
  0
BLOCK
  5
1C
330
1B
100
AcDbEntity
 67
     1
  8
0
100
AcDbBlockBegin
  2
*PAPER_SPACE
  1

  0
ENDBLK
  5
1D
330
1B
100
AcDbEntity
 67
     1
  8
0
100
AcDbBlockEnd
  0
ENDSEC
  0
SECTION
  2
ENTITIES
0
DIMENSION
5
83
100
AcDbEntity
62
256
370
-1
6
ByLayer
1
total_width
3
Standard
70
0
71
5
72
1
41
1.0
100
AcDbAlignedDimension
13
1.834444
23
0.000000
33
0.0
14
40.640000
24
0.000000
34
0.0
50
0.000000
100
AcDbRotatedDimension
0
DIMENSION
5
83
100
AcDbEntity
62
256
370
-1
6
ByLayer
1
total_minx
3
Standard
70
0
71
5
72
1
41
1.0
100
AcDbAlignedDimension
13
1.834444
23
0.000000
33
0.0
14
0.000000
24
0.000000
34
0.0
50
0.000000
100
AcDbRotatedDimension
0
DIMENSION
5
83
100
AcDbEntity
62
256
370
-1
6
ByLayer
1
total_maxx
3
Standard
70
0
71
5
72
1
41
1.0
100
AcDbAlignedDimension
13
0.000000
23
0.000000
33
0.0
14
40.640000
24
0.000000
34
0.0
50
0.000000
100
AcDbRotatedDimension
0
DIMENSION
5
83
100
AcDbEntity
62
256
370
-1
6
ByLayer
1
total_height
3
Standard
70
0
71
5
72
1
41
1.0
100
AcDbAlignedDimension
13
0.000000
23
2.020168
33
0.0
14
0.000000
24
26.173789
34
0.0
50
90.000000
100
AcDbRotatedDimension
0
DIMENSION
5
83
100
AcDbEntity
62
256
370
-1
6
ByLayer
1
total_miny
3
Standard
70
0
71
5
72
1
41
1.0
100
AcDbAlignedDimension
13
2.020168
23
0.000000
33
0.0
14
0.000000
24
0.000000
34
0.0
50
0.000000
100
AcDbRotatedDimension
0
DIMENSION
5
83
100
AcDbEntity
62
256
370
-1
6
ByLayer
1
total_maxy
3
Standard
70
0
71
5
72
1
41
1.0
100
AcDbAlignedDimension
13
0.000000
23
0.000000
33
0.0
14
26.173789
24
0.000000
34
0.0
50
0.000000
100
AcDbRotatedDimension
0
DIMENSION
8
Layer_1
5
83
100
AcDbEntity
62
256
370
-1
6
ByLayer
1
Layer_1_width
3
Standard
70
0
71
5
72
1
41
1.0
100
AcDbAlignedDimension
13
1.834444
23
0.000000
33
0.0
14
40.640000
24
0.000000
34
0.0
50
0.000000
100
AcDbRotatedDimension
0
DIMENSION
8
Layer_1
5
83
100
AcDbEntity
62
256
370
-1
6
ByLayer
1
Layer_1_minx
3
Standard
70
0
71
5
72
1
41
1.0
100
AcDbAlignedDimension
13
1.834444
23
0.000000
33
0.0
14
0.000000
24
0.000000
34
0.0
50
0.000000
100
AcDbRotatedDimension
0
DIMENSION
8
Layer_1
5
83
100
AcDbEntity
62
256
370
-1
6
ByLayer
1
Layer_1_maxx
3
Standard
70
0
71
5
72
1
41
1.0
100
AcDbAlignedDimension
13
0.000000
23
0.000000
33
0.0
14
40.640000
24
0.000000
34
0.0
50
0.000000
100
AcDbRotatedDimension
0
DIMENSION
8
Layer_1
5
83
100
AcDbEntity
62
256
370
-1
6
ByLayer
1
Layer_1_height
3
Standard
70
0
71
5
72
1
41
1.0
100
AcDbAlignedDimension
13
0.000000
23
2.020168
33
0.0
14
0.000000
24
26.173789
34
0.0
50
90.000000
100
AcDbRotatedDimension
0
DIMENSION
8
Layer_1
5
83
100
AcDbEntity
62
256
370
-1
6
ByLayer
1
Layer_1_miny
3
Standard
70
0
71
5
72
1
41
1.0
100
AcDbAlignedDimension
13
2.020168
23
0.000000
33
0.0
14
0.000000
24
0.000000
34
0.0
50
0.000000
100
AcDbRotatedDimension
0
DIMENSION
8
Layer_1
5
83
100
AcDbEntity
62
256
370
-1
6
ByLayer
1
Layer_1_maxy
3
Standard
70
0
71
5
72
1
41
1.0
100
AcDbAlignedDimension
13
0.000000
23
0.000000
33
0.0
14
26.173789
24
0.000000
34
0.0
50
0.000000
100
AcDbRotatedDimension
62
0
0
LWPOLYLINE
100
AcDbPolyline
8
Layer_1
90
40
70
0
10
10.065863
20
2.542517
30
0.0
10
7.717783
20
3.608391
30
0.0
10
5.765075
20
5.015774
30
0.0
10
4.158793
20
6.808677
30
0.0
10
2.849992
20
9.031111
30
0.0
10
2.283341
20
10.278365
30
0.0
10
1.979577
20
11.268775
30
0.0
10
1.834444
20
14.111111
30
0.0
10
1.979524
20
16.953264
30
0.0
10
2.282197
20
17.945205
30
0.0
10
2.846135
20
19.192744
30
0.0
10
3.791319
20
20.875520
30
0.0
10
4.910066
20
22.341455
30
0.0
10
6.190085
20
23.583234
30
0.0
10
7.619081
20
24.593543
30
0.0
10
9.184761
20
25.365067
30
0.0
10
10.874833
20
25.890493
30
0.0
10
12.677003
20
26.162505
30
0.0
10
14.578978
20
26.173789
30
0.0
10
16.637648
20
25.867656
30
0.0
10
18.566808
20
25.231024
30
0.0
10
20.336736
20
24.290977
30
0.0
10
21.917712
20
23.074596
30
0.0
10
23.280017
20
21.608964
30
0.0
10
24.393930
20
19.921162
30
0.0
10
25.229731
20
18.038272
30
0.0
10
25.757700
20
15.987376
30
0.0
10
25.917988
20
14.027606
30
0.0
10
25.741286
20
12.090969
30
0.0
10
25.247866
20
10.214838
30
0.0
10
24.458002
20
8.436586
30
0.0
10
23.391967
20
6.793584
30
0.0
10
22.070034
20
5.323207
30
0.0
10
20.512477
20
4.062826
30
0.0
10
18.739569
20
3.049815
30
0.0
10
16.670600
20
2.347223
30
0.0
10
14.393293
20
2.020168
30
0.0
10
12.120697
20
2.081113
30
0.0
10
10.065863
20
2.542517
30
0.0
10
10.065863
20
2.542517
30
0.0
62
0
0
LWPOLYLINE
100
AcDbPolyline
8
Layer_1
90
37
70
0
10
16.406080
20
4.176940
30
0.0
10
17.301609
20
4.736794
30
0.0
10
18.125902
20
5.439774
30
0.0
10
19.540891
20
7.242452
30
0.0
10
20.611262
20
9.519667
30
0.0
10
21.297231
20
12.206111
30
0.0
10
21.474466
20
13.264444
30
0.0
10
19.825039
20
13.264444
30
0.0
10
18.875781
20
13.247148
30
0.0
10
18.345164
20
13.137170
30
0.0
10
18.054095
20
12.847376
30
0.0
10
17.823478
20
12.290633
30
0.0
10
17.168160
20
11.132518
30
0.0
10
16.222782
20
10.307842
30
0.0
10
15.080832
20
9.816106
30
0.0
10
13.835795
20
9.656810
30
0.0
10
12.581157
20
9.829456
30
0.0
10
11.410405
20
10.333543
30
0.0
10
10.417026
20
11.168572
30
0.0
10
9.694504
20
12.334045
30
0.0
10
9.305758
20
13.264444
30
0.0
10
6.199725
20
13.264444
30
0.0
10
3.093691
20
13.264444
30
0.0
10
3.263620
20
12.488333
30
0.0
10
3.711662
20
10.911462
30
0.0
10
4.334123
20
9.447103
30
0.0
10
5.118058
20
8.109727
30
0.0
10
6.050517
20
6.913806
30
0.0
10
7.118555
20
5.873809
30
0.0
10
8.309224
20
5.004208
30
0.0
10
9.609577
20
4.319474
30
0.0
10
11.006667
20
3.834077
30
0.0
10
12.621404
20
3.494266
30
0.0
10
13.963370
20
3.432032
30
0.0
10
15.176837
20
3.656536
30
0.0
10
16.406080
20
4.176940
30
0.0
10
16.406080
20
4.176940
30
0.0
62
0
0
LWPOLYLINE
100
AcDbPolyline
8
Layer_1
90
22
70
0
10
15.913485
20
12.115411
30
0.0
10
16.542535
20
13.024479
30
0.0
10
16.762185
20
13.997230
30
0.0
10
16.627994
20
14.955429
30
0.0
10
16.195518
20
15.820842
30
0.0
10
15.520316
20
16.515234
30
0.0
10
14.657945
20
16.960369
30
0.0
10
13.663962
20
17.078014
30
0.0
10
12.593926
20
16.789933
30
0.0
10
11.921140
20
16.312336
30
0.0
10
11.320803
20
15.614251
30
0.0
10
10.889658
20
14.834302
30
0.0
10
10.724444
20
14.111111
30
0.0
10
10.887268
20
13.411318
30
0.0
10
11.307301
20
12.632573
30
0.0
10
11.881886
20
11.927976
30
0.0
10
12.508367
20
11.450625
30
0.0
10
13.392108
20
11.159605
30
0.0
10
14.267118
20
11.175916
30
0.0
10
15.114031
20
11.495778
30
0.0
10
15.913485
20
12.115411
30
0.0
10
15.913485
20
12.115411
30
0.0
62
0
0
LWPOLYLINE
100
AcDbPolyline
8
Layer_1
90
18
70
0
10
12.574892
20
13.327241
30
0.0
10
12.253959
20
13.880308
30
0.0
10
12.164975
20
14.339753
30
0.0
10
12.312225
20
14.771132
30
0.0
10
12.700000
20
15.240000
30
0.0
10
13.228661
20
15.629860
30
0.0
10
13.775989
20
15.781224
30
0.0
10
14.309450
20
15.692213
30
0.0
10
14.796508
20
15.360952
30
0.0
10
15.101732
20
14.844110
30
0.0
10
15.225548
20
14.182809
30
0.0
10
15.161050
20
13.530009
30
0.0
10
14.901333
20
13.038667
30
0.0
10
14.369070
20
12.749761
30
0.0
10
13.709109
20
12.713314
30
0.0
10
13.063650
20
12.911686
30
0.0
10
12.574892
20
13.327241
30
0.0
10
12.574892
20
13.327241
30
0.0
62
0
0
LWPOLYLINE
100
AcDbPolyline
8
Layer_1
90
20
70
0
10
6.566071
20
16.651111
30
0.0
10
7.197318
20
18.991783
30
0.0
10
8.319732
20
21.191801
30
0.0
10
9.773595
20
23.002514
30
0.0
10
10.574907
20
23.684177
30
0.0
10
11.399186
20
24.175271
30
0.0
10
12.276667
20
24.583207
30
0.0
10
11.295661
20
24.421458
30
0.0
10
9.905449
20
24.053901
30
0.0
10
8.582190
20
23.433900
30
0.0
10
7.347447
20
22.584792
30
0.0
10
6.222781
20
21.529917
30
0.0
10
5.229756
20
20.292615
30
0.0
10
4.389934
20
18.896225
30
0.0
10
3.724878
20
17.364086
30
0.0
10
3.256150
20
15.719537
30
0.0
10
3.086486
20
14.929074
30
0.0
10
4.715461
20
15.013981
30
0.0
10
6.344435
20
15.098889
30
0.0
10
6.566071
20
16.651111
30
0.0
62
0
0
LWPOLYLINE
100
AcDbPolyline
8
Layer_1
90
25
70
0
10
26.811111
20
7.761111
30
0.0
10
26.811111
20
10.160000
30
0.0
10
28.081111
20
10.160000
30
0.0
10
29.351111
20
10.160000
30
0.0
10
29.351111
20
13.405556
30
0.0
10
29.351111
20
16.651111
30
0.0
10
28.222222
20
16.651111
30
0.0
10
27.093333
20
16.651111
30
0.0
10
27.093333
20
18.876844
30
0.0
10
27.093333
20
21.102577
30
0.0
10
28.427265
20
21.302613
30
0.0
10
29.678882
20
21.601798
30
0.0
10
30.814910
20
22.040213
30
0.0
10
32.255609
20
22.469478
30
0.0
10
34.843201
20
22.577778
30
0.0
10
37.817778
20
22.577778
30
0.0
10
37.817778
20
16.368889
30
0.0
10
37.817778
20
10.160000
30
0.0
10
39.228889
20
10.160000
30
0.0
10
40.640000
20
10.160000
30
0.0
10
40.640000
20
7.761111
30
0.0
10
40.640000
20
5.362222
30
0.0
10
33.725556
20
5.362222
30
0.0
10
26.811111
20
5.362222
30
0.0
10
26.811111
20
7.761111
30
0.0
  0
ENDSEC
  0
SECTION
  2
OBJECTS
  0
DICTIONARY
  5
C
330
0
100
AcDbDictionary
  3
ACAD_GROUP
350
D
  3
ACAD_MLINESTYLE
350
17
  0
DICTIONARY
  5
D
330
C
100
AcDbDictionary
  0
DICTIONARY
  5
1A
330
C
100
AcDbDictionary
  0
DICTIONARY
  5
17
330
C
100
AcDbDictionary
  3
STANDARD
350
18
  0
DICTIONARY
  5
19
330
C
100
AcDbDictionary
  0
ENDSEC
  0
EOF
