999
Inkscape export via OpenSCAD DXF Export
  0
SECTION
  2
HEADER
  9
$ACADVER
  1
AC1014
  9
$HANDSEED
  5
FFFF
  9
$MEASUREMENT
 70
     1
  0
ENDSEC
  0
SECTION
  2
TABLES
  0
TABLE
  2
VPORT
  5
8
330
0
100
AcDbSymbolTable
 70
     4
  0
VPORT
  5
2E
330
8
100
AcDbSymbolTableRecord
100
AcDbViewportTableRecord
  2
*ACTIVE
 70
     0
 10
0.0
 20
0.0
 11
1.0
 21
1.0
 12
210.0
 22
148.5
 13
0.0
 23
0.0
 14
10.0
 24
10.0
 15
10.0
 25
10.0
 16
0.0
 26
0.0
 36
1.0
 17
0.0
 27
0.0
 37
0.0
 40
341.0
 41
1.24
 42
50.0
 43
0.0
 44
0.0
 50
0.0
 51
0.0
 71
     0
 72
   100
 73
     1
 74
     3
 75
     0
 76
     0
 77
     0
 78
     0
  0
ENDTAB
  0
TABLE
  2
LTYPE
  5
5
330
0
100
AcDbSymbolTable
 70
     1
  0
LTYPE
  5
14
330
5
100
AcDbSymbolTableRecord
100
AcDbLinetypeTableRecord
  2
BYBLOCK
 70
     0
  3

 72
    65
 73
     0
 40
0.0
  0
LTYPE
  5
15
330
5
100
AcDbSymbolTableRecord
100
AcDbLinetypeTableRecord
  2
BYLAYER
 70
     0
  3

 72
    65
 73
     0
 40
0.0
  0
LTYPE
  5
16
330
5
100
AcDbSymbolTableRecord
100
AcDbLinetypeTableRecord
  2
CONTINUOUS
 70
     0
  3
Solid line
 72
    65
 73
     0
 40
0.0
  0
ENDTAB
  0
TABLE
0
TABLE
2
LAYER
5
2
330
0
100
AcDbSymbolTable
70
1
0
LAYER
5
10
330
2
100
AcDbSymbolTableRecord
100
AcDbLayerTableRecord
2
Layer_1
70
0
62
7
6
CONTINUOUS
0
ENDTAB
0
ENDSEC
  0
ENDTAB
  0
TABLE
  2
STYLE
  5
3
330
0
100
AcDbSymbolTable
 70
     1
  0
STYLE
  5
11
330
3
100
AcDbSymbolTableRecord
100
AcDbTextStyleTableRecord
  2
STANDARD
 70
     0
 40
0.0
 41
1.0
 50
0.0
 71
     0
 42
2.5
  3
txt
  4

  0
ENDTAB
  0
TABLE
  2
VIEW
  5
6
330
0
100
AcDbSymbolTable
 70
     0
  0
ENDTAB
  0
TABLE
  2
UCS
  5
7
330
0
100
AcDbSymbolTable
 70
     0
  0
ENDTAB
  0
TABLE
  2
APPID
  5
9
330
0
100
AcDbSymbolTable
 70
     2
  0
APPID
  5
12
330
9
100
AcDbSymbolTableRecord
100
AcDbRegAppTableRecord
  2
ACAD
 70
     0
  0
ENDTAB
  0
TABLE
  2
DIMSTYLE
  5
A
330
0
100
AcDbSymbolTable
 70
     1
  0
DIMSTYLE
105
27
330
A
100
AcDbSymbolTableRecord
100
AcDbDimStyleTableRecord
  2
ISO-25
 70
     0
  3

  4

  5

  6

  7

 40
1.0
 41
2.5
 42
0.625
 43
3.75
 44
1.25
 45
0.0
 46
0.0
 47
0.0
 48
0.0
140
2.5
141
2.5
142
0.0
143
0.03937007874016
144
1.0
145
0.0
146
1.0
147
0.625
 71
     0
 72
     0
 73
     0
 74
     0
 75
     0
 76
     0
 77
     1
 78
     8
170
     0
171
     3
172
     1
173
     0
174
     0
175
     0
176
     0
177
     0
178
     0
270
     2
271
     2
272
     2
273
     2
274
     3
340
11
275
     0
280
     0
281
     0
282
     0
283
     0
284
     8
285
     0
286
     0
287
     3
288
     0
  0
ENDTAB
  0
TABLE
  2
BLOCK_RECORD
  5
1
330
0
100
AcDbSymbolTable
 70
     1
  0
BLOCK_RECORD
  5
1F
330
1
100
AcDbSymbolTableRecord
100
AcDbBlockTableRecord
  2
*MODEL_SPACE
  0
BLOCK_RECORD
  5
1B
330
1
100
AcDbSymbolTableRecord
100
AcDbBlockTableRecord
  2
*PAPER_SPACE
  0
ENDTAB
  0
ENDSEC
  0
SECTION
  2
BLOCKS
  0
BLOCK
  5
20
330
1F
100
AcDbEntity
  8
0
100
AcDbBlockBegin
  2
*MODEL_SPACE
 70
     0
 10
0.0
 20
0.0
 30
0.0
  3
*MODEL_SPACE
  1

  0
ENDBLK
  5
21
330
1F
100
AcDbEntity
  8
0
100
AcDbBlockEnd
  0
BLOCK
  5
1C
330
1B
100
AcDbEntity
 67
     1
  8
0
100
AcDbBlockBegin
  2
*PAPER_SPACE
  1

  0
ENDBLK
  5
1D
330
1B
100
AcDbEntity
 67
     1
  8
0
100
AcDbBlockEnd
  0
ENDSEC
  0
SECTION
  2
ENTITIES
0
DIMENSION
5
83
100
AcDbEntity
62
256
370
-1
6
ByLayer
1
total_width
3
Standard
70
0
71
5
72
1
41
1.0
100
AcDbAlignedDimension
13
3.754421
23
0.000000
33
0.0
14
38.473340
24
0.000000
34
0.0
50
0.000000
100
AcDbRotatedDimension
0
DIMENSION
5
83
100
AcDbEntity
62
256
370
-1
6
ByLayer
1
total_minx
3
Standard
70
0
71
5
72
1
41
1.0
100
AcDbAlignedDimension
13
3.754421
23
0.000000
33
0.0
14
0.000000
24
0.000000
34
0.0
50
0.000000
100
AcDbRotatedDimension
0
DIMENSION
5
83
100
AcDbEntity
62
256
370
-1
6
ByLayer
1
total_maxx
3
Standard
70
0
71
5
72
1
41
1.0
100
AcDbAlignedDimension
13
0.000000
23
0.000000
33
0.0
14
38.473340
24
0.000000
34
0.0
50
0.000000
100
AcDbRotatedDimension
0
DIMENSION
5
83
100
AcDbEntity
62
256
370
-1
6
ByLayer
1
total_height
3
Standard
70
0
71
5
72
1
41
1.0
100
AcDbAlignedDimension
13
0.000000
23
4.542449
33
0.0
14
0.000000
24
38.099734
34
0.0
50
90.000000
100
AcDbRotatedDimension
0
DIMENSION
5
83
100
AcDbEntity
62
256
370
-1
6
ByLayer
1
total_miny
3
Standard
70
0
71
5
72
1
41
1.0
100
AcDbAlignedDimension
13
4.542449
23
0.000000
33
0.0
14
0.000000
24
0.000000
34
0.0
50
0.000000
100
AcDbRotatedDimension
0
DIMENSION
5
83
100
AcDbEntity
62
256
370
-1
6
ByLayer
1
total_maxy
3
Standard
70
0
71
5
72
1
41
1.0
100
AcDbAlignedDimension
13
0.000000
23
0.000000
33
0.0
14
38.099734
24
0.000000
34
0.0
50
0.000000
100
AcDbRotatedDimension
0
DIMENSION
8
Layer_1
5
83
100
AcDbEntity
62
256
370
-1
6
ByLayer
1
Layer_1_width
3
Standard
70
0
71
5
72
1
41
1.0
100
AcDbAlignedDimension
13
3.754421
23
0.000000
33
0.0
14
38.473340
24
0.000000
34
0.0
50
0.000000
100
AcDbRotatedDimension
0
DIMENSION
8
Layer_1
5
83
100
AcDbEntity
62
256
370
-1
6
ByLayer
1
Layer_1_minx
3
Standard
70
0
71
5
72
1
41
1.0
100
AcDbAlignedDimension
13
3.754421
23
0.000000
33
0.0
14
0.000000
24
0.000000
34
0.0
50
0.000000
100
AcDbRotatedDimension
0
DIMENSION
8
Layer_1
5
83
100
AcDbEntity
62
256
370
-1
6
ByLayer
1
Layer_1_maxx
3
Standard
70
0
71
5
72
1
41
1.0
100
AcDbAlignedDimension
13
0.000000
23
0.000000
33
0.0
14
38.473340
24
0.000000
34
0.0
50
0.000000
100
AcDbRotatedDimension
0
DIMENSION
8
Layer_1
5
83
100
AcDbEntity
62
256
370
-1
6
ByLayer
1
Layer_1_height
3
Standard
70
0
71
5
72
1
41
1.0
100
AcDbAlignedDimension
13
0.000000
23
4.542449
33
0.0
14
0.000000
24
38.099734
34
0.0
50
90.000000
100
AcDbRotatedDimension
0
DIMENSION
8
Layer_1
5
83
100
AcDbEntity
62
256
370
-1
6
ByLayer
1
Layer_1_miny
3
Standard
70
0
71
5
72
1
41
1.0
100
AcDbAlignedDimension
13
4.542449
23
0.000000
33
0.0
14
0.000000
24
0.000000
34
0.0
50
0.000000
100
AcDbRotatedDimension
0
DIMENSION
8
Layer_1
5
83
100
AcDbEntity
62
256
370
-1
6
ByLayer
1
Layer_1_maxy
3
Standard
70
0
71
5
72
1
41
1.0
100
AcDbAlignedDimension
13
0.000000
23
0.000000
33
0.0
14
38.099734
24
0.000000
34
0.0
50
0.000000
100
AcDbRotatedDimension
62
0
0
LWPOLYLINE
100
AcDbPolyline
8
Layer_1
90
108
70
0
10
13.687778
20
5.323075
30
0.0
10
11.991289
20
6.250645
30
0.0
10
10.409124
20
7.354559
30
0.0
10
8.956287
20
8.616938
30
0.0
10
7.647779
20
10.019906
30
0.0
10
6.498603
20
11.545585
30
0.0
10
5.523761
20
13.176099
30
0.0
10
4.738255
20
14.893570
30
0.0
10
4.157088
20
16.680121
30
0.0
10
3.754421
20
18.222101
30
0.0
10
5.193322
20
16.792043
30
0.0
10
6.283643
20
15.883474
30
0.0
10
7.459940
20
15.220247
30
0.0
10
8.691973
20
14.803444
30
0.0
10
9.949501
20
14.634150
30
0.0
10
11.202281
20
14.713449
30
0.0
10
12.420074
20
15.042426
30
0.0
10
13.572638
20
15.622164
30
0.0
10
14.629731
20
16.453748
30
0.0
10
15.401462
20
17.309154
30
0.0
10
16.004141
20
18.219825
30
0.0
10
16.443737
20
19.170481
30
0.0
10
16.726219
20
20.145843
30
0.0
10
16.843720
20
22.109577
30
0.0
10
16.404401
20
23.988797
30
0.0
10
15.456016
20
25.661280
30
0.0
10
14.046323
20
27.004796
30
0.0
10
13.183409
20
27.514996
30
0.0
10
12.223076
20
27.897120
30
0.0
10
11.171294
20
28.135888
30
0.0
10
10.034032
20
28.216024
30
0.0
10
8.533945
20
28.084014
30
0.0
10
7.229397
20
27.681910
30
0.0
10
6.060358
20
26.982991
30
0.0
10
4.966798
20
25.960538
30
0.0
10
4.046820
20
25.023168
30
0.0
10
3.977910
20
25.125243
30
0.0
10
4.069889
20
25.563649
30
0.0
10
4.873967
20
27.927227
30
0.0
10
6.078117
20
30.248557
30
0.0
10
7.613993
20
32.415683
30
0.0
10
9.413251
20
34.316649
30
0.0
10
11.050284
20
35.563319
30
0.0
10
13.063364
20
36.791048
30
0.0
10
14.960172
20
37.727349
30
0.0
10
16.248389
20
38.099734
30
0.0
10
16.627381
20
37.915421
30
0.0
10
17.226353
20
37.373177
30
0.0
10
19.022683
20
35.277512
30
0.0
10
21.445504
20
32.455556
30
0.0
10
24.012822
20
35.154465
30
0.0
10
25.637619
20
36.921483
30
0.0
10
26.234184
20
37.410097
30
0.0
10
26.776787
20
37.657584
30
0.0
10
27.332873
20
37.680545
30
0.0
10
27.969889
20
37.495582
30
0.0
10
29.756492
20
36.568295
30
0.0
10
31.390105
20
35.536052
30
0.0
10
32.872569
20
34.347825
30
0.0
10
34.217802
20
32.991088
30
0.0
10
35.439725
20
31.453311
30
0.0
10
37.203993
20
28.382330
30
0.0
10
37.847131
20
26.906390
30
0.0
10
38.100000
20
25.948061
30
0.0
10
37.756327
20
26.023420
30
0.0
10
36.930051
20
26.639673
30
0.0
10
35.833059
20
27.445963
30
0.0
10
34.733654
20
27.944269
30
0.0
10
33.508478
20
28.173182
30
0.0
10
32.034172
20
28.171293
30
0.0
10
30.390767
20
27.884357
30
0.0
10
28.937946
20
27.251457
30
0.0
10
27.694061
20
26.283486
30
0.0
10
26.677461
20
24.991338
30
0.0
10
26.225187
20
24.191589
30
0.0
10
25.967788
20
23.482579
30
0.0
10
25.828936
20
21.471021
30
0.0
10
25.913710
20
19.925247
30
0.0
10
26.207404
20
18.729458
30
0.0
10
26.783087
20
17.696314
30
0.0
10
27.713830
20
16.638477
30
0.0
10
28.819121
20
15.756879
30
0.0
10
30.068788
20
15.142201
30
0.0
10
31.410410
20
14.792731
30
0.0
10
32.791570
20
14.706757
30
0.0
10
34.159848
20
14.882566
30
0.0
10
35.462825
20
15.318444
30
0.0
10
36.648083
20
16.012680
30
0.0
10
37.663202
20
16.963560
30
0.0
10
38.473340
20
17.921111
30
0.0
10
38.278407
20
17.133505
30
0.0
10
37.717978
20
15.308792
30
0.0
10
36.964208
20
13.561454
30
0.0
10
36.028280
20
11.905537
30
0.0
10
34.921378
20
10.355090
30
0.0
10
33.654687
20
8.924159
30
0.0
10
32.239390
20
7.626793
30
0.0
10
30.686671
20
6.477040
30
0.0
10
29.007714
20
5.488946
30
0.0
10
27.248549
20
4.797778
30
0.0
10
26.187598
20
5.745620
30
0.0
10
24.237813
20
8.024475
30
0.0
10
21.655069
20
11.251176
30
0.0
10
20.211423
20
9.652785
30
0.0
10
17.215556
20
6.311646
30
0.0
10
15.522222
20
4.542449
30
0.0
10
13.687778
20
5.323075
30
0.0
10
13.687778
20
5.323075
30
0.0
  0
ENDSEC
  0
SECTION
  2
OBJECTS
  0
DICTIONARY
  5
C
330
0
100
AcDbDictionary
  3
ACAD_GROUP
350
D
  3
ACAD_MLINESTYLE
350
17
  0
DICTIONARY
  5
D
330
C
100
AcDbDictionary
  0
DICTIONARY
  5
1A
330
C
100
AcDbDictionary
  0
DICTIONARY
  5
17
330
C
100
AcDbDictionary
  3
STANDARD
350
18
  0
DICTIONARY
  5
19
330
C
100
AcDbDictionary
  0
ENDSEC
  0
EOF
