999
Inkscape export via OpenSCAD DXF Export
  0
SECTION
  2
HEADER
  9
$ACADVER
  1
AC1014
  9
$HANDSEED
  5
FFFF
  9
$MEASUREMENT
 70
     1
  0
ENDSEC
  0
SECTION
  2
TABLES
  0
TABLE
  2
VPORT
  5
8
330
0
100
AcDbSymbolTable
 70
     4
  0
VPORT
  5
2E
330
8
100
AcDbSymbolTableRecord
100
AcDbViewportTableRecord
  2
*ACTIVE
 70
     0
 10
0.0
 20
0.0
 11
1.0
 21
1.0
 12
210.0
 22
148.5
 13
0.0
 23
0.0
 14
10.0
 24
10.0
 15
10.0
 25
10.0
 16
0.0
 26
0.0
 36
1.0
 17
0.0
 27
0.0
 37
0.0
 40
341.0
 41
1.24
 42
50.0
 43
0.0
 44
0.0
 50
0.0
 51
0.0
 71
     0
 72
   100
 73
     1
 74
     3
 75
     0
 76
     0
 77
     0
 78
     0
  0
ENDTAB
  0
TABLE
  2
LTYPE
  5
5
330
0
100
AcDbSymbolTable
 70
     1
  0
LTYPE
  5
14
330
5
100
AcDbSymbolTableRecord
100
AcDbLinetypeTableRecord
  2
BYBLOCK
 70
     0
  3

 72
    65
 73
     0
 40
0.0
  0
LTYPE
  5
15
330
5
100
AcDbSymbolTableRecord
100
AcDbLinetypeTableRecord
  2
BYLAYER
 70
     0
  3

 72
    65
 73
     0
 40
0.0
  0
LTYPE
  5
16
330
5
100
AcDbSymbolTableRecord
100
AcDbLinetypeTableRecord
  2
CONTINUOUS
 70
     0
  3
Solid line
 72
    65
 73
     0
 40
0.0
  0
ENDTAB
  0
TABLE
0
TABLE
2
LAYER
5
2
330
0
100
AcDbSymbolTable
70
1
0
LAYER
5
10
330
2
100
AcDbSymbolTableRecord
100
AcDbLayerTableRecord
2
Layer_1
70
0
62
7
6
CONTINUOUS
0
ENDTAB
0
ENDSEC
  0
ENDTAB
  0
TABLE
  2
STYLE
  5
3
330
0
100
AcDbSymbolTable
 70
     1
  0
STYLE
  5
11
330
3
100
AcDbSymbolTableRecord
100
AcDbTextStyleTableRecord
  2
STANDARD
 70
     0
 40
0.0
 41
1.0
 50
0.0
 71
     0
 42
2.5
  3
txt
  4

  0
ENDTAB
  0
TABLE
  2
VIEW
  5
6
330
0
100
AcDbSymbolTable
 70
     0
  0
ENDTAB
  0
TABLE
  2
UCS
  5
7
330
0
100
AcDbSymbolTable
 70
     0
  0
ENDTAB
  0
TABLE
  2
APPID
  5
9
330
0
100
AcDbSymbolTable
 70
     2
  0
APPID
  5
12
330
9
100
AcDbSymbolTableRecord
100
AcDbRegAppTableRecord
  2
ACAD
 70
     0
  0
ENDTAB
  0
TABLE
  2
DIMSTYLE
  5
A
330
0
100
AcDbSymbolTable
 70
     1
  0
DIMSTYLE
105
27
330
A
100
AcDbSymbolTableRecord
100
AcDbDimStyleTableRecord
  2
ISO-25
 70
     0
  3

  4

  5

  6

  7

 40
1.0
 41
2.5
 42
0.625
 43
3.75
 44
1.25
 45
0.0
 46
0.0
 47
0.0
 48
0.0
140
2.5
141
2.5
142
0.0
143
0.03937007874016
144
1.0
145
0.0
146
1.0
147
0.625
 71
     0
 72
     0
 73
     0
 74
     0
 75
     0
 76
     0
 77
     1
 78
     8
170
     0
171
     3
172
     1
173
     0
174
     0
175
     0
176
     0
177
     0
178
     0
270
     2
271
     2
272
     2
273
     2
274
     3
340
11
275
     0
280
     0
281
     0
282
     0
283
     0
284
     8
285
     0
286
     0
287
     3
288
     0
  0
ENDTAB
  0
TABLE
  2
BLOCK_RECORD
  5
1
330
0
100
AcDbSymbolTable
 70
     1
  0
BLOCK_RECORD
  5
1F
330
1
100
AcDbSymbolTableRecord
100
AcDbBlockTableRecord
  2
*MODEL_SPACE
  0
BLOCK_RECORD
  5
1B
330
1
100
AcDbSymbolTableRecord
100
AcDbBlockTableRecord
  2
*PAPER_SPACE
  0
ENDTAB
  0
ENDSEC
  0
SECTION
  2
BLOCKS
  0
BLOCK
  5
20
330
1F
100
AcDbEntity
  8
0
100
AcDbBlockBegin
  2
*MODEL_SPACE
 70
     0
 10
0.0
 20
0.0
 30
0.0
  3
*MODEL_SPACE
  1

  0
ENDBLK
  5
21
330
1F
100
AcDbEntity
  8
0
100
AcDbBlockEnd
  0
BLOCK
  5
1C
330
1B
100
AcDbEntity
 67
     1
  8
0
100
AcDbBlockBegin
  2
*PAPER_SPACE
  1

  0
ENDBLK
  5
1D
330
1B
100
AcDbEntity
 67
     1
  8
0
100
AcDbBlockEnd
  0
ENDSEC
  0
SECTION
  2
ENTITIES
0
DIMENSION
5
83
100
AcDbEntity
62
256
370
-1
6
ByLayer
1
total_width
3
Standard
70
0
71
5
72
1
41
1.0
100
AcDbAlignedDimension
13
4.004848
23
0.000000
33
0.0
14
38.369575
24
0.000000
34
0.0
50
0.000000
100
AcDbRotatedDimension
0
DIMENSION
5
83
100
AcDbEntity
62
256
370
-1
6
ByLayer
1
total_minx
3
Standard
70
0
71
5
72
1
41
1.0
100
AcDbAlignedDimension
13
4.004848
23
0.000000
33
0.0
14
0.000000
24
0.000000
34
0.0
50
0.000000
100
AcDbRotatedDimension
0
DIMENSION
5
83
100
AcDbEntity
62
256
370
-1
6
ByLayer
1
total_maxx
3
Standard
70
0
71
5
72
1
41
1.0
100
AcDbAlignedDimension
13
0.000000
23
0.000000
33
0.0
14
38.369575
24
0.000000
34
0.0
50
0.000000
100
AcDbRotatedDimension
0
DIMENSION
5
83
100
AcDbEntity
62
256
370
-1
6
ByLayer
1
total_height
3
Standard
70
0
71
5
72
1
41
1.0
100
AcDbAlignedDimension
13
0.000000
23
3.155178
33
0.0
14
0.000000
24
39.181309
34
0.0
50
90.000000
100
AcDbRotatedDimension
0
DIMENSION
5
83
100
AcDbEntity
62
256
370
-1
6
ByLayer
1
total_miny
3
Standard
70
0
71
5
72
1
41
1.0
100
AcDbAlignedDimension
13
3.155178
23
0.000000
33
0.0
14
0.000000
24
0.000000
34
0.0
50
0.000000
100
AcDbRotatedDimension
0
DIMENSION
5
83
100
AcDbEntity
62
256
370
-1
6
ByLayer
1
total_maxy
3
Standard
70
0
71
5
72
1
41
1.0
100
AcDbAlignedDimension
13
0.000000
23
0.000000
33
0.0
14
39.181309
24
0.000000
34
0.0
50
0.000000
100
AcDbRotatedDimension
0
DIMENSION
8
Layer_1
5
83
100
AcDbEntity
62
256
370
-1
6
ByLayer
1
Layer_1_width
3
Standard
70
0
71
5
72
1
41
1.0
100
AcDbAlignedDimension
13
4.004848
23
0.000000
33
0.0
14
38.369575
24
0.000000
34
0.0
50
0.000000
100
AcDbRotatedDimension
0
DIMENSION
8
Layer_1
5
83
100
AcDbEntity
62
256
370
-1
6
ByLayer
1
Layer_1_minx
3
Standard
70
0
71
5
72
1
41
1.0
100
AcDbAlignedDimension
13
4.004848
23
0.000000
33
0.0
14
0.000000
24
0.000000
34
0.0
50
0.000000
100
AcDbRotatedDimension
0
DIMENSION
8
Layer_1
5
83
100
AcDbEntity
62
256
370
-1
6
ByLayer
1
Layer_1_maxx
3
Standard
70
0
71
5
72
1
41
1.0
100
AcDbAlignedDimension
13
0.000000
23
0.000000
33
0.0
14
38.369575
24
0.000000
34
0.0
50
0.000000
100
AcDbRotatedDimension
0
DIMENSION
8
Layer_1
5
83
100
AcDbEntity
62
256
370
-1
6
ByLayer
1
Layer_1_height
3
Standard
70
0
71
5
72
1
41
1.0
100
AcDbAlignedDimension
13
0.000000
23
3.155178
33
0.0
14
0.000000
24
39.181309
34
0.0
50
90.000000
100
AcDbRotatedDimension
0
DIMENSION
8
Layer_1
5
83
100
AcDbEntity
62
256
370
-1
6
ByLayer
1
Layer_1_miny
3
Standard
70
0
71
5
72
1
41
1.0
100
AcDbAlignedDimension
13
3.155178
23
0.000000
33
0.0
14
0.000000
24
0.000000
34
0.0
50
0.000000
100
AcDbRotatedDimension
0
DIMENSION
8
Layer_1
5
83
100
AcDbEntity
62
256
370
-1
6
ByLayer
1
Layer_1_maxy
3
Standard
70
0
71
5
72
1
41
1.0
100
AcDbAlignedDimension
13
0.000000
23
0.000000
33
0.0
14
39.181309
24
0.000000
34
0.0
50
0.000000
100
AcDbRotatedDimension
62
0
0
LWPOLYLINE
100
AcDbPolyline
8
Layer_1
90
110
70
0
10
13.444850
20
3.814555
30
0.0
10
11.475451
20
4.966766
30
0.0
10
9.705850
20
6.361092
30
0.0
10
8.149484
20
7.976375
30
0.0
10
6.819793
20
9.791459
30
0.0
10
5.730215
20
11.785187
30
0.0
10
4.894188
20
13.936402
30
0.0
10
4.325150
20
16.223947
30
0.0
10
4.036539
20
18.626667
30
0.0
10
4.004848
20
20.879014
30
0.0
10
4.223496
20
22.825803
30
0.0
10
4.728697
20
24.655994
30
0.0
10
5.556664
20
26.558549
30
0.0
10
6.499143
20
28.159655
30
0.0
10
7.650050
20
29.631899
30
0.0
10
8.986371
20
30.959450
30
0.0
10
10.485092
20
32.126478
30
0.0
10
12.123199
20
33.117153
30
0.0
10
13.877680
20
33.915645
30
0.0
10
15.725521
20
34.506123
30
0.0
10
17.643708
20
34.872759
30
0.0
10
18.982538
20
35.094389
30
0.0
10
18.887344
20
35.195096
30
0.0
10
18.368008
20
35.344859
30
0.0
10
17.045474
20
35.442422
30
0.0
10
15.142716
20
35.293460
30
0.0
10
13.067349
20
34.948573
30
0.0
10
11.226988
20
34.458364
30
0.0
10
8.596122
20
33.362263
30
0.0
10
6.404307
20
32.105691
30
0.0
10
5.661050
20
31.657475
30
0.0
10
5.522561
20
31.645165
30
0.0
10
5.533692
20
31.761813
30
0.0
10
6.987287
20
33.334380
30
0.0
10
9.413956
20
35.225938
30
0.0
10
12.017551
20
36.544664
30
0.0
10
14.874748
20
37.319962
30
0.0
10
18.062222
20
37.581234
30
0.0
10
21.398615
20
37.327828
30
0.0
10
22.932279
20
36.998769
30
0.0
10
24.379327
20
36.533639
30
0.0
10
25.742063
20
35.931562
30
0.0
10
27.022792
20
35.191664
30
0.0
10
28.223818
20
34.313070
30
0.0
10
29.347445
20
33.294903
30
0.0
10
30.747644
20
31.676102
30
0.0
10
31.843706
20
29.944426
30
0.0
10
32.631758
20
28.123118
30
0.0
10
33.107923
20
26.235419
30
0.0
10
33.268328
20
24.304571
30
0.0
10
33.109099
20
22.353817
30
0.0
10
32.626360
20
20.406398
30
0.0
10
31.816238
20
18.485556
30
0.0
10
30.642471
20
16.720334
30
0.0
10
29.158386
20
15.293199
30
0.0
10
27.453225
20
14.227131
30
0.0
10
25.616230
20
13.545108
30
0.0
10
23.736642
20
13.270112
30
0.0
10
21.903702
20
13.425120
30
0.0
10
20.206654
20
14.033114
30
0.0
10
18.734739
20
15.117074
30
0.0
10
17.790422
20
16.328452
30
0.0
10
17.213773
20
17.681255
30
0.0
10
17.019101
20
19.123639
30
0.0
10
17.220710
20
20.603756
30
0.0
10
17.567014
20
21.872222
30
0.0
10
17.927196
20
20.472215
30
0.0
10
18.620677
20
18.880676
30
0.0
10
19.695738
20
17.728774
30
0.0
10
21.041601
20
17.019392
30
0.0
10
22.547485
20
16.755413
30
0.0
10
24.102610
20
16.939721
30
0.0
10
25.596198
20
17.575199
30
0.0
10
26.917468
20
18.664730
30
0.0
10
27.955641
20
20.211198
30
0.0
10
28.501724
20
21.840805
30
0.0
10
28.640694
20
23.587328
30
0.0
10
28.374811
20
25.387634
30
0.0
10
27.706334
20
27.178588
30
0.0
10
26.902412
20
28.546572
30
0.0
10
25.936606
20
29.661921
30
0.0
10
24.737883
20
30.591748
30
0.0
10
23.235215
20
31.403167
30
0.0
10
22.414236
20
31.727207
30
0.0
10
21.531473
20
31.918361
30
0.0
10
18.626667
20
32.032222
30
0.0
10
15.584187
20
31.902137
30
0.0
10
14.641904
20
31.631648
30
0.0
10
13.546667
20
31.128301
30
0.0
10
11.972844
20
30.249765
30
0.0
10
10.580781
20
29.253546
30
0.0
10
9.368484
20
28.136902
30
0.0
10
8.333961
20
26.897091
30
0.0
10
7.475220
20
25.531371
30
0.0
10
6.790269
20
24.037001
30
0.0
10
6.277115
20
22.411238
30
0.0
10
5.933767
20
20.651342
30
0.0
10
5.809052
20
18.385488
30
0.0
10
6.054798
20
16.090715
30
0.0
10
6.649548
20
13.810364
30
0.0
10
7.571844
20
11.587775
30
0.0
10
8.800229
20
9.466290
30
0.0
10
10.313246
20
7.489250
30
0.0
10
12.089436
20
5.699994
30
0.0
10
14.107344
20
4.141865
30
0.0
10
15.032299
20
3.452063
30
0.0
10
15.205105
20
3.155178
30
0.0
10
14.663406
20
3.269809
30
0.0
10
13.444850
20
3.814555
30
0.0
10
13.444850
20
3.814555
30
0.0
62
0
0
LWPOLYLINE
100
AcDbPolyline
8
Layer_1
90
106
70
0
10
22.013333
20
4.817141
30
0.0
10
19.757292
20
5.229617
30
0.0
10
17.646425
20
5.933796
30
0.0
10
15.706338
20
6.908679
30
0.0
10
13.962634
20
8.133269
30
0.0
10
12.440917
20
9.586569
30
0.0
10
11.166791
20
11.247582
30
0.0
10
10.165862
20
13.095310
30
0.0
10
9.463732
20
15.108756
30
0.0
10
9.079319
20
17.599280
30
0.0
10
9.201044
20
20.015965
30
0.0
10
9.784866
20
22.287938
30
0.0
10
10.786742
20
24.344328
30
0.0
10
12.162632
20
26.114262
30
0.0
10
13.868495
20
27.526870
30
0.0
10
15.860289
20
28.511279
30
0.0
10
18.093972
20
28.996617
30
0.0
10
19.743616
20
29.010754
30
0.0
10
21.188327
20
28.726052
30
0.0
10
22.462015
20
28.131544
30
0.0
10
23.598594
20
27.216260
30
0.0
10
24.542912
20
26.004882
30
0.0
10
25.119560
20
24.652078
30
0.0
10
25.314233
20
23.209695
30
0.0
10
25.112623
20
21.729577
30
0.0
10
24.766319
20
20.461111
30
0.0
10
24.406137
20
21.861118
30
0.0
10
23.712656
20
23.452657
30
0.0
10
22.637595
20
24.604559
30
0.0
10
21.291733
20
25.313942
30
0.0
10
19.785849
20
25.577920
30
0.0
10
18.230723
20
25.393613
30
0.0
10
16.737135
20
24.758135
30
0.0
10
15.415865
20
23.668603
30
0.0
10
14.377693
20
22.122135
30
0.0
10
13.831610
20
20.492529
30
0.0
10
13.692639
20
18.746005
30
0.0
10
13.958522
20
16.945699
30
0.0
10
14.626999
20
15.154746
30
0.0
10
15.430921
20
13.786761
30
0.0
10
16.396728
20
12.671413
30
0.0
10
17.595450
20
11.741586
30
0.0
10
19.098119
20
10.930168
30
0.0
10
19.919098
20
10.606127
30
0.0
10
20.801861
20
10.414972
30
0.0
10
23.706667
20
10.301111
30
0.0
10
26.749146
20
10.431197
30
0.0
10
27.691429
20
10.701685
30
0.0
10
28.786667
20
11.205032
30
0.0
10
30.360508
20
12.083603
30
0.0
10
31.752629
20
13.079917
30
0.0
10
32.965004
20
14.196690
30
0.0
10
33.999606
20
15.436639
30
0.0
10
34.858410
20
16.802480
30
0.0
10
35.543388
20
18.296931
30
0.0
10
36.056516
20
19.922708
30
0.0
10
36.399766
20
21.682527
30
0.0
10
36.524333
20
23.948299
30
0.0
10
36.278465
20
26.243006
30
0.0
10
35.683625
20
28.523300
30
0.0
10
34.761274
20
30.745837
30
0.0
10
33.532874
20
32.867268
30
0.0
10
32.019885
20
34.844248
30
0.0
10
30.243770
20
36.633431
30
0.0
10
28.225990
20
38.191469
30
0.0
10
27.283883
20
38.871526
30
0.0
10
27.031316
20
39.181309
30
0.0
10
28.576840
20
38.665765
30
0.0
10
30.836297
20
37.360719
30
0.0
10
33.008976
20
35.543711
30
0.0
10
34.923156
20
33.381923
30
0.0
10
36.407113
20
31.042537
30
0.0
10
37.464245
20
28.329271
30
0.0
10
38.135497
20
25.251190
30
0.0
10
38.369575
20
22.157955
30
0.0
10
38.115181
20
19.399227
30
0.0
10
37.440403
20
17.155430
30
0.0
10
36.402530
20
15.058395
30
0.0
10
35.039764
20
13.142093
30
0.0
10
33.390308
20
11.440495
30
0.0
10
31.492364
20
9.987573
30
0.0
10
29.384133
20
8.817298
30
0.0
10
27.103820
20
7.963642
30
0.0
10
24.689625
20
7.460575
30
0.0
10
23.350795
20
7.238945
30
0.0
10
23.445989
20
7.138236
30
0.0
10
23.965326
20
6.988474
30
0.0
10
25.287859
20
6.890911
30
0.0
10
27.190617
20
7.039874
30
0.0
10
29.265984
20
7.384761
30
0.0
10
31.106344
20
7.874971
30
0.0
10
33.737211
20
8.971072
30
0.0
10
35.929028
20
10.227643
30
0.0
10
36.676947
20
10.678728
30
0.0
10
36.812940
20
10.688652
30
0.0
10
36.796423
20
10.567206
30
0.0
10
35.297293
20
8.953362
30
0.0
10
33.926864
20
7.818202
30
0.0
10
32.456598
20
6.854370
30
0.0
10
30.894975
20
6.064507
30
0.0
10
29.250477
20
5.451253
30
0.0
10
27.531583
20
5.017249
30
0.0
10
25.746774
20
4.765135
30
0.0
10
23.904531
20
4.697553
30
0.0
10
22.013333
20
4.817141
30
0.0
10
22.013333
20
4.817141
30
0.0
  0
ENDSEC
  0
SECTION
  2
OBJECTS
  0
DICTIONARY
  5
C
330
0
100
AcDbDictionary
  3
ACAD_GROUP
350
D
  3
ACAD_MLINESTYLE
350
17
  0
DICTIONARY
  5
D
330
C
100
AcDbDictionary
  0
DICTIONARY
  5
1A
330
C
100
AcDbDictionary
  0
DICTIONARY
  5
17
330
C
100
AcDbDictionary
  3
STANDARD
350
18
  0
DICTIONARY
  5
19
330
C
100
AcDbDictionary
  0
ENDSEC
  0
EOF
