999
Inkscape export via OpenSCAD DXF Export
  0
SECTION
  2
HEADER
  9
$ACADVER
  1
AC1014
  9
$HANDSEED
  5
FFFF
  9
$MEASUREMENT
 70
     1
  0
ENDSEC
  0
SECTION
  2
TABLES
  0
TABLE
  2
VPORT
  5
8
330
0
100
AcDbSymbolTable
 70
     4
  0
VPORT
  5
2E
330
8
100
AcDbSymbolTableRecord
100
AcDbViewportTableRecord
  2
*ACTIVE
 70
     0
 10
0.0
 20
0.0
 11
1.0
 21
1.0
 12
210.0
 22
148.5
 13
0.0
 23
0.0
 14
10.0
 24
10.0
 15
10.0
 25
10.0
 16
0.0
 26
0.0
 36
1.0
 17
0.0
 27
0.0
 37
0.0
 40
341.0
 41
1.24
 42
50.0
 43
0.0
 44
0.0
 50
0.0
 51
0.0
 71
     0
 72
   100
 73
     1
 74
     3
 75
     0
 76
     0
 77
     0
 78
     0
  0
ENDTAB
  0
TABLE
  2
LTYPE
  5
5
330
0
100
AcDbSymbolTable
 70
     1
  0
LTYPE
  5
14
330
5
100
AcDbSymbolTableRecord
100
AcDbLinetypeTableRecord
  2
BYBLOCK
 70
     0
  3

 72
    65
 73
     0
 40
0.0
  0
LTYPE
  5
15
330
5
100
AcDbSymbolTableRecord
100
AcDbLinetypeTableRecord
  2
BYLAYER
 70
     0
  3

 72
    65
 73
     0
 40
0.0
  0
LTYPE
  5
16
330
5
100
AcDbSymbolTableRecord
100
AcDbLinetypeTableRecord
  2
CONTINUOUS
 70
     0
  3
Solid line
 72
    65
 73
     0
 40
0.0
  0
ENDTAB
  0
TABLE
0
TABLE
2
LAYER
5
2
330
0
100
AcDbSymbolTable
70
1
0
LAYER
5
10
330
2
100
AcDbSymbolTableRecord
100
AcDbLayerTableRecord
2
Layer_1
70
0
62
7
6
CONTINUOUS
0
ENDTAB
0
ENDSEC
  0
ENDTAB
  0
TABLE
  2
STYLE
  5
3
330
0
100
AcDbSymbolTable
 70
     1
  0
STYLE
  5
11
330
3
100
AcDbSymbolTableRecord
100
AcDbTextStyleTableRecord
  2
STANDARD
 70
     0
 40
0.0
 41
1.0
 50
0.0
 71
     0
 42
2.5
  3
txt
  4

  0
ENDTAB
  0
TABLE
  2
VIEW
  5
6
330
0
100
AcDbSymbolTable
 70
     0
  0
ENDTAB
  0
TABLE
  2
UCS
  5
7
330
0
100
AcDbSymbolTable
 70
     0
  0
ENDTAB
  0
TABLE
  2
APPID
  5
9
330
0
100
AcDbSymbolTable
 70
     2
  0
APPID
  5
12
330
9
100
AcDbSymbolTableRecord
100
AcDbRegAppTableRecord
  2
ACAD
 70
     0
  0
ENDTAB
  0
TABLE
  2
DIMSTYLE
  5
A
330
0
100
AcDbSymbolTable
 70
     1
  0
DIMSTYLE
105
27
330
A
100
AcDbSymbolTableRecord
100
AcDbDimStyleTableRecord
  2
ISO-25
 70
     0
  3

  4

  5

  6

  7

 40
1.0
 41
2.5
 42
0.625
 43
3.75
 44
1.25
 45
0.0
 46
0.0
 47
0.0
 48
0.0
140
2.5
141
2.5
142
0.0
143
0.03937007874016
144
1.0
145
0.0
146
1.0
147
0.625
 71
     0
 72
     0
 73
     0
 74
     0
 75
     0
 76
     0
 77
     1
 78
     8
170
     0
171
     3
172
     1
173
     0
174
     0
175
     0
176
     0
177
     0
178
     0
270
     2
271
     2
272
     2
273
     2
274
     3
340
11
275
     0
280
     0
281
     0
282
     0
283
     0
284
     8
285
     0
286
     0
287
     3
288
     0
  0
ENDTAB
  0
TABLE
  2
BLOCK_RECORD
  5
1
330
0
100
AcDbSymbolTable
 70
     1
  0
BLOCK_RECORD
  5
1F
330
1
100
AcDbSymbolTableRecord
100
AcDbBlockTableRecord
  2
*MODEL_SPACE
  0
BLOCK_RECORD
  5
1B
330
1
100
AcDbSymbolTableRecord
100
AcDbBlockTableRecord
  2
*PAPER_SPACE
  0
ENDTAB
  0
ENDSEC
  0
SECTION
  2
BLOCKS
  0
BLOCK
  5
20
330
1F
100
AcDbEntity
  8
0
100
AcDbBlockBegin
  2
*MODEL_SPACE
 70
     0
 10
0.0
 20
0.0
 30
0.0
  3
*MODEL_SPACE
  1

  0
ENDBLK
  5
21
330
1F
100
AcDbEntity
  8
0
100
AcDbBlockEnd
  0
BLOCK
  5
1C
330
1B
100
AcDbEntity
 67
     1
  8
0
100
AcDbBlockBegin
  2
*PAPER_SPACE
  1

  0
ENDBLK
  5
1D
330
1B
100
AcDbEntity
 67
     1
  8
0
100
AcDbBlockEnd
  0
ENDSEC
  0
SECTION
  2
ENTITIES
0
DIMENSION
5
83
100
AcDbEntity
62
256
370
-1
6
ByLayer
1
total_width
3
Standard
70
0
71
5
72
1
41
1.0
100
AcDbAlignedDimension
13
3.705287
23
0.000000
33
0.0
14
38.627110
24
0.000000
34
0.0
50
0.000000
100
AcDbRotatedDimension
0
DIMENSION
5
83
100
AcDbEntity
62
256
370
-1
6
ByLayer
1
total_minx
3
Standard
70
0
71
5
72
1
41
1.0
100
AcDbAlignedDimension
13
3.705287
23
0.000000
33
0.0
14
0.000000
24
0.000000
34
0.0
50
0.000000
100
AcDbRotatedDimension
0
DIMENSION
5
83
100
AcDbEntity
62
256
370
-1
6
ByLayer
1
total_maxx
3
Standard
70
0
71
5
72
1
41
1.0
100
AcDbAlignedDimension
13
0.000000
23
0.000000
33
0.0
14
38.627110
24
0.000000
34
0.0
50
0.000000
100
AcDbRotatedDimension
0
DIMENSION
5
83
100
AcDbEntity
62
256
370
-1
6
ByLayer
1
total_height
3
Standard
70
0
71
5
72
1
41
1.0
100
AcDbAlignedDimension
13
0.000000
23
5.361192
33
0.0
14
0.000000
24
36.971111
34
0.0
50
90.000000
100
AcDbRotatedDimension
0
DIMENSION
5
83
100
AcDbEntity
62
256
370
-1
6
ByLayer
1
total_miny
3
Standard
70
0
71
5
72
1
41
1.0
100
AcDbAlignedDimension
13
5.361192
23
0.000000
33
0.0
14
0.000000
24
0.000000
34
0.0
50
0.000000
100
AcDbRotatedDimension
0
DIMENSION
5
83
100
AcDbEntity
62
256
370
-1
6
ByLayer
1
total_maxy
3
Standard
70
0
71
5
72
1
41
1.0
100
AcDbAlignedDimension
13
0.000000
23
0.000000
33
0.0
14
36.971111
24
0.000000
34
0.0
50
0.000000
100
AcDbRotatedDimension
0
DIMENSION
8
Layer_1
5
83
100
AcDbEntity
62
256
370
-1
6
ByLayer
1
Layer_1_width
3
Standard
70
0
71
5
72
1
41
1.0
100
AcDbAlignedDimension
13
3.705287
23
0.000000
33
0.0
14
38.627110
24
0.000000
34
0.0
50
0.000000
100
AcDbRotatedDimension
0
DIMENSION
8
Layer_1
5
83
100
AcDbEntity
62
256
370
-1
6
ByLayer
1
Layer_1_minx
3
Standard
70
0
71
5
72
1
41
1.0
100
AcDbAlignedDimension
13
3.705287
23
0.000000
33
0.0
14
0.000000
24
0.000000
34
0.0
50
0.000000
100
AcDbRotatedDimension
0
DIMENSION
8
Layer_1
5
83
100
AcDbEntity
62
256
370
-1
6
ByLayer
1
Layer_1_maxx
3
Standard
70
0
71
5
72
1
41
1.0
100
AcDbAlignedDimension
13
0.000000
23
0.000000
33
0.0
14
38.627110
24
0.000000
34
0.0
50
0.000000
100
AcDbRotatedDimension
0
DIMENSION
8
Layer_1
5
83
100
AcDbEntity
62
256
370
-1
6
ByLayer
1
Layer_1_height
3
Standard
70
0
71
5
72
1
41
1.0
100
AcDbAlignedDimension
13
0.000000
23
5.361192
33
0.0
14
0.000000
24
36.971111
34
0.0
50
90.000000
100
AcDbRotatedDimension
0
DIMENSION
8
Layer_1
5
83
100
AcDbEntity
62
256
370
-1
6
ByLayer
1
Layer_1_miny
3
Standard
70
0
71
5
72
1
41
1.0
100
AcDbAlignedDimension
13
5.361192
23
0.000000
33
0.0
14
0.000000
24
0.000000
34
0.0
50
0.000000
100
AcDbRotatedDimension
0
DIMENSION
8
Layer_1
5
83
100
AcDbEntity
62
256
370
-1
6
ByLayer
1
Layer_1_maxy
3
Standard
70
0
71
5
72
1
41
1.0
100
AcDbAlignedDimension
13
0.000000
23
0.000000
33
0.0
14
36.971111
24
0.000000
34
0.0
50
0.000000
100
AcDbRotatedDimension
62
0
0
LWPOLYLINE
100
AcDbPolyline
8
Layer_1
90
105
70
0
10
17.906473
20
6.765900
30
0.0
10
15.379302
20
8.185994
30
0.0
10
13.060646
20
9.809280
30
0.0
10
10.963160
20
11.620752
30
0.0
10
9.099498
20
13.605405
30
0.0
10
7.482317
20
15.748231
30
0.0
10
6.124270
20
18.034227
30
0.0
10
5.038012
20
20.448385
30
0.0
10
4.236199
20
22.975701
30
0.0
10
3.737140
20
26.074254
30
0.0
10
3.705287
20
29.403000
30
0.0
10
4.126296
20
32.717087
30
0.0
10
4.985824
20
35.771667
30
0.0
10
5.531964
20
36.971111
30
0.0
10
8.030759
20
35.402972
30
0.0
10
10.436496
20
33.834833
30
0.0
10
9.986959
20
32.792417
30
0.0
10
8.882667
20
29.766238
30
0.0
10
8.226352
20
26.952222
30
0.0
10
8.094945
20
25.737071
30
0.0
10
8.150850
20
25.622911
30
0.0
10
8.290102
20
25.796483
30
0.0
10
10.280803
20
28.817776
30
0.0
10
12.124956
20
31.253749
30
0.0
10
12.970045
20
32.168610
30
0.0
10
15.354921
20
30.614069
30
0.0
10
17.739797
20
29.059529
30
0.0
10
15.920361
20
26.647183
30
0.0
10
14.499889
20
24.621588
30
0.0
10
13.361890
20
22.685050
30
0.0
10
12.505787
20
20.835291
30
0.0
10
11.931007
20
19.070029
30
0.0
10
11.636977
20
17.386985
30
0.0
10
11.623120
20
15.783879
30
0.0
10
11.888863
20
14.258432
30
0.0
10
12.433631
20
12.808362
30
0.0
10
13.286936
20
11.550403
30
0.0
10
14.612105
20
9.985372
30
0.0
10
15.877759
20
8.698246
30
0.0
10
16.552522
20
8.274002
30
0.0
10
15.955559
20
9.625677
30
0.0
10
15.447356
20
10.836616
30
0.0
10
15.258065
20
12.144113
30
0.0
10
15.387321
20
13.564754
30
0.0
10
15.834758
20
15.115127
30
0.0
10
16.605748
20
16.688470
30
0.0
10
17.838350
20
18.746927
30
0.0
10
19.224537
20
20.806165
30
0.0
10
20.456280
20
22.381849
30
0.0
10
21.166667
20
23.173698
30
0.0
10
21.877053
20
22.381849
30
0.0
10
23.108796
20
20.806165
30
0.0
10
24.494983
20
18.746927
30
0.0
10
25.727586
20
16.688470
30
0.0
10
26.498575
20
15.115127
30
0.0
10
26.946012
20
13.564754
30
0.0
10
27.075268
20
12.144113
30
0.0
10
26.885977
20
10.836616
30
0.0
10
26.377775
20
9.625677
30
0.0
10
25.780812
20
8.274002
30
0.0
10
26.455574
20
8.698246
30
0.0
10
27.721229
20
9.985372
30
0.0
10
29.046398
20
11.550403
30
0.0
10
29.899703
20
12.808362
30
0.0
10
30.444471
20
14.258432
30
0.0
10
30.710213
20
15.783879
30
0.0
10
30.696356
20
17.386985
30
0.0
10
30.402325
20
19.070029
30
0.0
10
29.827546
20
20.835291
30
0.0
10
28.971443
20
22.685050
30
0.0
10
27.833443
20
24.621588
30
0.0
10
26.412972
20
26.647183
30
0.0
10
24.593536
20
29.059529
30
0.0
10
26.978412
20
30.614069
30
0.0
10
29.363289
20
32.168610
30
0.0
10
30.208378
20
31.253749
30
0.0
10
32.052530
20
28.817776
30
0.0
10
34.043231
20
25.796483
30
0.0
10
34.182483
20
25.622911
30
0.0
10
34.238389
20
25.737071
30
0.0
10
34.106982
20
26.952222
30
0.0
10
33.450666
20
29.766238
30
0.0
10
32.346375
20
32.792417
30
0.0
10
31.896837
20
33.834833
30
0.0
10
34.302573
20
35.402972
30
0.0
10
36.801369
20
36.971111
30
0.0
10
37.347511
20
35.771667
30
0.0
10
38.205737
20
32.721518
30
0.0
10
38.627110
20
29.409105
30
0.0
10
38.597218
20
26.078981
30
0.0
10
38.101648
20
22.975701
30
0.0
10
37.551307
20
21.151035
30
0.0
10
36.831073
20
19.351220
30
0.0
10
35.951898
20
17.592872
30
0.0
10
34.924730
20
15.892611
30
0.0
10
33.760521
20
14.267055
30
0.0
10
32.470220
20
12.732823
30
0.0
10
31.064776
20
11.306533
30
0.0
10
29.555141
20
10.004803
30
0.0
10
27.448750
20
8.545105
30
0.0
10
24.885148
20
7.029878
30
0.0
10
22.555764
20
5.841211
30
0.0
10
21.152029
20
5.361192
30
0.0
10
17.906473
20
6.765900
30
0.0
10
17.906473
20
6.765900
30
0.0
  0
ENDSEC
  0
SECTION
  2
OBJECTS
  0
DICTIONARY
  5
C
330
0
100
AcDbDictionary
  3
ACAD_GROUP
350
D
  3
ACAD_MLINESTYLE
350
17
  0
DICTIONARY
  5
D
330
C
100
AcDbDictionary
  0
DICTIONARY
  5
1A
330
C
100
AcDbDictionary
  0
DICTIONARY
  5
17
330
C
100
AcDbDictionary
  3
STANDARD
350
18
  0
DICTIONARY
  5
19
330
C
100
AcDbDictionary
  0
ENDSEC
  0
EOF
