999
Inkscape export via OpenSCAD DXF Export
  0
SECTION
  2
HEADER
  9
$ACADVER
  1
AC1014
  9
$HANDSEED
  5
FFFF
  9
$MEASUREMENT
 70
     1
  0
ENDSEC
  0
SECTION
  2
TABLES
  0
TABLE
  2
VPORT
  5
8
330
0
100
AcDbSymbolTable
 70
     4
  0
VPORT
  5
2E
330
8
100
AcDbSymbolTableRecord
100
AcDbViewportTableRecord
  2
*ACTIVE
 70
     0
 10
0.0
 20
0.0
 11
1.0
 21
1.0
 12
210.0
 22
148.5
 13
0.0
 23
0.0
 14
10.0
 24
10.0
 15
10.0
 25
10.0
 16
0.0
 26
0.0
 36
1.0
 17
0.0
 27
0.0
 37
0.0
 40
341.0
 41
1.24
 42
50.0
 43
0.0
 44
0.0
 50
0.0
 51
0.0
 71
     0
 72
   100
 73
     1
 74
     3
 75
     0
 76
     0
 77
     0
 78
     0
  0
ENDTAB
  0
TABLE
  2
LTYPE
  5
5
330
0
100
AcDbSymbolTable
 70
     1
  0
LTYPE
  5
14
330
5
100
AcDbSymbolTableRecord
100
AcDbLinetypeTableRecord
  2
BYBLOCK
 70
     0
  3

 72
    65
 73
     0
 40
0.0
  0
LTYPE
  5
15
330
5
100
AcDbSymbolTableRecord
100
AcDbLinetypeTableRecord
  2
BYLAYER
 70
     0
  3

 72
    65
 73
     0
 40
0.0
  0
LTYPE
  5
16
330
5
100
AcDbSymbolTableRecord
100
AcDbLinetypeTableRecord
  2
CONTINUOUS
 70
     0
  3
Solid line
 72
    65
 73
     0
 40
0.0
  0
ENDTAB
  0
TABLE
0
TABLE
2
LAYER
5
2
330
0
100
AcDbSymbolTable
70
1
0
LAYER
5
10
330
2
100
AcDbSymbolTableRecord
100
AcDbLayerTableRecord
2
Layer_1
70
0
62
7
6
CONTINUOUS
0
ENDTAB
0
ENDSEC
  0
ENDTAB
  0
TABLE
  2
STYLE
  5
3
330
0
100
AcDbSymbolTable
 70
     1
  0
STYLE
  5
11
330
3
100
AcDbSymbolTableRecord
100
AcDbTextStyleTableRecord
  2
STANDARD
 70
     0
 40
0.0
 41
1.0
 50
0.0
 71
     0
 42
2.5
  3
txt
  4

  0
ENDTAB
  0
TABLE
  2
VIEW
  5
6
330
0
100
AcDbSymbolTable
 70
     0
  0
ENDTAB
  0
TABLE
  2
UCS
  5
7
330
0
100
AcDbSymbolTable
 70
     0
  0
ENDTAB
  0
TABLE
  2
APPID
  5
9
330
0
100
AcDbSymbolTable
 70
     2
  0
APPID
  5
12
330
9
100
AcDbSymbolTableRecord
100
AcDbRegAppTableRecord
  2
ACAD
 70
     0
  0
ENDTAB
  0
TABLE
  2
DIMSTYLE
  5
A
330
0
100
AcDbSymbolTable
 70
     1
  0
DIMSTYLE
105
27
330
A
100
AcDbSymbolTableRecord
100
AcDbDimStyleTableRecord
  2
ISO-25
 70
     0
  3

  4

  5

  6

  7

 40
1.0
 41
2.5
 42
0.625
 43
3.75
 44
1.25
 45
0.0
 46
0.0
 47
0.0
 48
0.0
140
2.5
141
2.5
142
0.0
143
0.03937007874016
144
1.0
145
0.0
146
1.0
147
0.625
 71
     0
 72
     0
 73
     0
 74
     0
 75
     0
 76
     0
 77
     1
 78
     8
170
     0
171
     3
172
     1
173
     0
174
     0
175
     0
176
     0
177
     0
178
     0
270
     2
271
     2
272
     2
273
     2
274
     3
340
11
275
     0
280
     0
281
     0
282
     0
283
     0
284
     8
285
     0
286
     0
287
     3
288
     0
  0
ENDTAB
  0
TABLE
  2
BLOCK_RECORD
  5
1
330
0
100
AcDbSymbolTable
 70
     1
  0
BLOCK_RECORD
  5
1F
330
1
100
AcDbSymbolTableRecord
100
AcDbBlockTableRecord
  2
*MODEL_SPACE
  0
BLOCK_RECORD
  5
1B
330
1
100
AcDbSymbolTableRecord
100
AcDbBlockTableRecord
  2
*PAPER_SPACE
  0
ENDTAB
  0
ENDSEC
  0
SECTION
  2
BLOCKS
  0
BLOCK
  5
20
330
1F
100
AcDbEntity
  8
0
100
AcDbBlockBegin
  2
*MODEL_SPACE
 70
     0
 10
0.0
 20
0.0
 30
0.0
  3
*MODEL_SPACE
  1

  0
ENDBLK
  5
21
330
1F
100
AcDbEntity
  8
0
100
AcDbBlockEnd
  0
BLOCK
  5
1C
330
1B
100
AcDbEntity
 67
     1
  8
0
100
AcDbBlockBegin
  2
*PAPER_SPACE
  1

  0
ENDBLK
  5
1D
330
1B
100
AcDbEntity
 67
     1
  8
0
100
AcDbBlockEnd
  0
ENDSEC
  0
SECTION
  2
ENTITIES
0
DIMENSION
5
83
100
AcDbEntity
62
256
370
-1
6
ByLayer
1
total_width
3
Standard
70
0
71
5
72
1
41
1.0
100
AcDbAlignedDimension
13
2.167505
23
0.000000
33
0.0
14
40.165827
24
0.000000
34
0.0
50
0.000000
100
AcDbRotatedDimension
0
DIMENSION
5
83
100
AcDbEntity
62
256
370
-1
6
ByLayer
1
total_minx
3
Standard
70
0
71
5
72
1
41
1.0
100
AcDbAlignedDimension
13
2.167505
23
0.000000
33
0.0
14
0.000000
24
0.000000
34
0.0
50
0.000000
100
AcDbRotatedDimension
0
DIMENSION
5
83
100
AcDbEntity
62
256
370
-1
6
ByLayer
1
total_maxx
3
Standard
70
0
71
5
72
1
41
1.0
100
AcDbAlignedDimension
13
0.000000
23
0.000000
33
0.0
14
40.165827
24
0.000000
34
0.0
50
0.000000
100
AcDbRotatedDimension
0
DIMENSION
5
83
100
AcDbEntity
62
256
370
-1
6
ByLayer
1
total_height
3
Standard
70
0
71
5
72
1
41
1.0
100
AcDbAlignedDimension
13
0.000000
23
2.137659
33
0.0
14
0.000000
24
40.165828
34
0.0
50
90.000000
100
AcDbRotatedDimension
0
DIMENSION
5
83
100
AcDbEntity
62
256
370
-1
6
ByLayer
1
total_miny
3
Standard
70
0
71
5
72
1
41
1.0
100
AcDbAlignedDimension
13
2.137659
23
0.000000
33
0.0
14
0.000000
24
0.000000
34
0.0
50
0.000000
100
AcDbRotatedDimension
0
DIMENSION
5
83
100
AcDbEntity
62
256
370
-1
6
ByLayer
1
total_maxy
3
Standard
70
0
71
5
72
1
41
1.0
100
AcDbAlignedDimension
13
0.000000
23
0.000000
33
0.0
14
40.165828
24
0.000000
34
0.0
50
0.000000
100
AcDbRotatedDimension
0
DIMENSION
8
Layer_1
5
83
100
AcDbEntity
62
256
370
-1
6
ByLayer
1
Layer_1_width
3
Standard
70
0
71
5
72
1
41
1.0
100
AcDbAlignedDimension
13
2.167505
23
0.000000
33
0.0
14
40.165827
24
0.000000
34
0.0
50
0.000000
100
AcDbRotatedDimension
0
DIMENSION
8
Layer_1
5
83
100
AcDbEntity
62
256
370
-1
6
ByLayer
1
Layer_1_minx
3
Standard
70
0
71
5
72
1
41
1.0
100
AcDbAlignedDimension
13
2.167505
23
0.000000
33
0.0
14
0.000000
24
0.000000
34
0.0
50
0.000000
100
AcDbRotatedDimension
0
DIMENSION
8
Layer_1
5
83
100
AcDbEntity
62
256
370
-1
6
ByLayer
1
Layer_1_maxx
3
Standard
70
0
71
5
72
1
41
1.0
100
AcDbAlignedDimension
13
0.000000
23
0.000000
33
0.0
14
40.165827
24
0.000000
34
0.0
50
0.000000
100
AcDbRotatedDimension
0
DIMENSION
8
Layer_1
5
83
100
AcDbEntity
62
256
370
-1
6
ByLayer
1
Layer_1_height
3
Standard
70
0
71
5
72
1
41
1.0
100
AcDbAlignedDimension
13
0.000000
23
2.137659
33
0.0
14
0.000000
24
40.165828
34
0.0
50
90.000000
100
AcDbRotatedDimension
0
DIMENSION
8
Layer_1
5
83
100
AcDbEntity
62
256
370
-1
6
ByLayer
1
Layer_1_miny
3
Standard
70
0
71
5
72
1
41
1.0
100
AcDbAlignedDimension
13
2.137659
23
0.000000
33
0.0
14
0.000000
24
0.000000
34
0.0
50
0.000000
100
AcDbRotatedDimension
0
DIMENSION
8
Layer_1
5
83
100
AcDbEntity
62
256
370
-1
6
ByLayer
1
Layer_1_maxy
3
Standard
70
0
71
5
72
1
41
1.0
100
AcDbAlignedDimension
13
0.000000
23
0.000000
33
0.0
14
40.165828
24
0.000000
34
0.0
50
0.000000
100
AcDbRotatedDimension
62
0
0
LWPOLYLINE
100
AcDbPolyline
8
Layer_1
90
63
70
0
10
18.495639
20
2.276430
30
0.0
10
15.465029
20
2.972214
30
0.0
10
12.694678
20
4.100926
30
0.0
10
10.135261
20
5.687697
30
0.0
10
7.737454
20
7.757660
30
0.0
10
6.430045
20
9.180094
30
0.0
10
5.297734
20
10.673861
30
0.0
10
4.340279
20
12.239535
30
0.0
10
3.557443
20
13.877694
30
0.0
10
2.948987
20
15.588911
30
0.0
10
2.514671
20
17.373762
30
0.0
10
2.254257
20
19.232822
30
0.0
10
2.167505
20
21.166667
30
0.0
10
2.254102
20
23.098451
30
0.0
10
2.514172
20
24.955772
30
0.0
10
2.948134
20
26.739637
30
0.0
10
3.556405
20
28.451053
30
0.0
10
4.339405
20
30.091028
30
0.0
10
5.297550
20
31.660569
30
0.0
10
6.431260
20
33.160684
30
0.0
10
7.740952
20
34.592381
30
0.0
10
9.172649
20
35.902074
30
0.0
10
10.672764
20
37.035783
30
0.0
10
12.242306
20
37.993929
30
0.0
10
13.882280
20
38.776928
30
0.0
10
15.593696
20
39.385199
30
0.0
10
17.377561
20
39.819161
30
0.0
10
19.234882
20
40.079231
30
0.0
10
21.166667
20
40.165828
30
0.0
10
23.098451
20
40.079231
30
0.0
10
24.955772
20
39.819161
30
0.0
10
26.739637
20
39.385199
30
0.0
10
28.451053
20
38.776928
30
0.0
10
30.091028
20
37.993929
30
0.0
10
31.660569
20
37.035783
30
0.0
10
33.160685
20
35.902074
30
0.0
10
34.592381
20
34.592381
30
0.0
10
35.902074
20
33.160684
30
0.0
10
37.035784
20
31.660569
30
0.0
10
37.993929
20
30.091028
30
0.0
10
38.776928
20
28.451053
30
0.0
10
39.385199
20
26.739637
30
0.0
10
39.819160
20
24.955772
30
0.0
10
40.079230
20
23.098451
30
0.0
10
40.165827
20
21.166667
30
0.0
10
40.079230
20
19.234882
30
0.0
10
39.819160
20
17.377561
30
0.0
10
39.385199
20
15.593696
30
0.0
10
38.776928
20
13.882280
30
0.0
10
37.993929
20
12.242305
30
0.0
10
37.035784
20
10.672764
30
0.0
10
35.902074
20
9.172649
30
0.0
10
34.592381
20
7.740952
30
0.0
10
33.279687
20
6.530360
30
0.0
10
31.912331
20
5.471159
30
0.0
10
30.485251
20
4.561058
30
0.0
10
28.993383
20
3.797765
30
0.0
10
27.431666
20
3.178989
30
0.0
10
25.795035
20
2.702438
30
0.0
10
22.276780
20
2.166846
30
0.0
10
20.300690
20
2.137659
30
0.0
10
18.495639
20
2.276430
30
0.0
10
18.495639
20
2.276430
30
0.0
62
0
0
LWPOLYLINE
100
AcDbPolyline
8
Layer_1
90
50
70
0
10
26.082773
20
7.028064
30
0.0
10
27.597161
20
7.663009
30
0.0
10
29.022269
20
8.454715
30
0.0
10
30.349327
20
9.394544
30
0.0
10
31.569563
20
10.473857
30
0.0
10
32.674204
20
11.684016
30
0.0
10
33.654479
20
13.016384
30
0.0
10
34.501616
20
14.462320
30
0.0
10
35.206844
20
16.013189
30
0.0
10
35.603360
20
17.124549
30
0.0
10
35.831089
20
18.149300
30
0.0
10
35.959483
20
21.166667
30
0.0
10
35.831089
20
24.184033
30
0.0
10
35.603360
20
25.208785
30
0.0
10
35.206844
20
26.320145
30
0.0
10
34.520425
20
27.844196
30
0.0
10
33.709542
20
29.253388
30
0.0
10
32.775796
20
30.546119
30
0.0
10
31.720788
20
31.720789
30
0.0
10
30.546118
20
32.775797
30
0.0
10
29.253387
20
33.709543
30
0.0
10
27.844196
20
34.520426
30
0.0
10
26.320145
20
35.206845
30
0.0
10
25.208785
20
35.603360
30
0.0
10
24.184033
20
35.831089
30
0.0
10
21.166667
20
35.959483
30
0.0
10
18.149300
20
35.831089
30
0.0
10
17.124549
20
35.603360
30
0.0
10
16.013189
20
35.206845
30
0.0
10
13.963173
20
34.236508
30
0.0
10
12.123782
20
33.034810
30
0.0
10
10.508808
20
31.620451
30
0.0
10
9.132044
20
30.012135
30
0.0
10
8.007282
20
28.228563
30
0.0
10
7.148316
20
26.288437
30
0.0
10
6.568939
20
24.210460
30
0.0
10
6.282943
20
22.013333
30
0.0
10
6.352778
20
19.384520
30
0.0
10
6.862728
20
16.876148
30
0.0
10
7.783025
20
14.529025
30
0.0
10
9.083899
20
12.383957
30
0.0
10
10.735580
20
10.481751
30
0.0
10
12.708300
20
8.863214
30
0.0
10
14.972289
20
7.569152
30
0.0
10
17.497778
20
6.640373
30
0.0
10
19.430977
20
6.339521
30
0.0
10
21.760998
20
6.315359
30
0.0
10
24.105657
20
6.550626
30
0.0
10
26.082773
20
7.028064
30
0.0
10
26.082773
20
7.028064
30
0.0
62
0
0
LWPOLYLINE
100
AcDbPolyline
8
Layer_1
90
27
70
0
10
19.755556
20
10.548304
30
0.0
10
23.304511
20
15.267093
30
0.0
10
26.761733
20
19.875928
30
0.0
10
24.130000
20
21.717889
30
0.0
10
21.345823
20
23.716109
30
0.0
10
21.915978
20
24.912593
30
0.0
10
23.451521
20
27.316451
30
0.0
10
25.114696
20
29.679269
30
0.0
10
26.067744
20
30.752635
30
0.0
10
26.806861
20
30.414016
30
0.0
10
27.917126
20
29.544914
30
0.0
10
29.086629
20
28.418366
30
0.0
10
30.003459
20
27.307411
30
0.0
10
30.942601
20
25.706128
30
0.0
10
31.537457
20
24.125476
30
0.0
10
31.823869
20
22.432305
30
0.0
10
31.837681
20
20.493462
30
0.0
10
31.578372
20
18.475317
30
0.0
10
31.004496
20
16.699763
30
0.0
10
30.081099
20
15.087719
30
0.0
10
28.773227
20
13.560106
30
0.0
10
27.268148
20
12.272937
30
0.0
10
25.671471
20
11.350262
30
0.0
10
23.927845
20
10.767128
30
0.0
10
21.981915
20
10.498582
30
0.0
10
19.755556
20
10.548304
30
0.0
10
19.755556
20
10.548304
30
0.0
62
0
0
LWPOLYLINE
100
AcDbPolyline
8
Layer_1
90
28
70
0
10
14.615477
20
12.586739
30
0.0
10
13.365652
20
13.751079
30
0.0
10
12.212139
20
15.231038
30
0.0
10
11.286839
20
16.831185
30
0.0
10
10.721651
20
18.356090
30
0.0
10
10.466581
20
20.214671
30
0.0
10
10.509541
20
22.220849
30
0.0
10
10.830462
20
24.157186
30
0.0
10
11.409276
20
25.806243
30
0.0
10
12.132909
20
27.072589
30
0.0
10
12.995837
20
28.210416
30
0.0
10
13.984716
20
29.210729
30
0.0
10
15.086206
20
30.064532
30
0.0
10
16.286963
20
30.762831
30
0.0
10
17.573646
20
31.296631
30
0.0
10
18.932912
20
31.656936
30
0.0
10
20.351419
20
31.834752
30
0.0
10
22.577778
20
31.785028
30
0.0
10
19.028822
20
27.066241
30
0.0
10
15.571600
20
22.448223
30
0.0
10
18.203333
20
20.597079
30
0.0
10
20.987511
20
18.608042
30
0.0
10
20.421535
20
17.409241
30
0.0
10
18.875668
20
15.008281
30
0.0
10
17.195789
20
12.652508
30
0.0
10
16.227778
20
11.589269
30
0.0
10
14.615477
20
12.586739
30
0.0
10
14.615477
20
12.586739
30
0.0
  0
ENDSEC
  0
SECTION
  2
OBJECTS
  0
DICTIONARY
  5
C
330
0
100
AcDbDictionary
  3
ACAD_GROUP
350
D
  3
ACAD_MLINESTYLE
350
17
  0
DICTIONARY
  5
D
330
C
100
AcDbDictionary
  0
DICTIONARY
  5
1A
330
C
100
AcDbDictionary
  0
DICTIONARY
  5
17
330
C
100
AcDbDictionary
  3
STANDARD
350
18
  0
DICTIONARY
  5
19
330
C
100
AcDbDictionary
  0
ENDSEC
  0
EOF
