999
Inkscape export via OpenSCAD DXF Export
  0
SECTION
  2
HEADER
  9
$ACADVER
  1
AC1014
  9
$HANDSEED
  5
FFFF
  9
$MEASUREMENT
 70
     1
  0
ENDSEC
  0
SECTION
  2
TABLES
  0
TABLE
  2
VPORT
  5
8
330
0
100
AcDbSymbolTable
 70
     4
  0
VPORT
  5
2E
330
8
100
AcDbSymbolTableRecord
100
AcDbViewportTableRecord
  2
*ACTIVE
 70
     0
 10
0.0
 20
0.0
 11
1.0
 21
1.0
 12
210.0
 22
148.5
 13
0.0
 23
0.0
 14
10.0
 24
10.0
 15
10.0
 25
10.0
 16
0.0
 26
0.0
 36
1.0
 17
0.0
 27
0.0
 37
0.0
 40
341.0
 41
1.24
 42
50.0
 43
0.0
 44
0.0
 50
0.0
 51
0.0
 71
     0
 72
   100
 73
     1
 74
     3
 75
     0
 76
     0
 77
     0
 78
     0
  0
ENDTAB
  0
TABLE
  2
LTYPE
  5
5
330
0
100
AcDbSymbolTable
 70
     1
  0
LTYPE
  5
14
330
5
100
AcDbSymbolTableRecord
100
AcDbLinetypeTableRecord
  2
BYBLOCK
 70
     0
  3

 72
    65
 73
     0
 40
0.0
  0
LTYPE
  5
15
330
5
100
AcDbSymbolTableRecord
100
AcDbLinetypeTableRecord
  2
BYLAYER
 70
     0
  3

 72
    65
 73
     0
 40
0.0
  0
LTYPE
  5
16
330
5
100
AcDbSymbolTableRecord
100
AcDbLinetypeTableRecord
  2
CONTINUOUS
 70
     0
  3
Solid line
 72
    65
 73
     0
 40
0.0
  0
ENDTAB
  0
TABLE
0
TABLE
2
LAYER
5
2
330
0
100
AcDbSymbolTable
70
1
0
LAYER
5
10
330
2
100
AcDbSymbolTableRecord
100
AcDbLayerTableRecord
2
Layer_1
70
0
62
7
6
CONTINUOUS
0
ENDTAB
0
ENDSEC
  0
ENDTAB
  0
TABLE
  2
STYLE
  5
3
330
0
100
AcDbSymbolTable
 70
     1
  0
STYLE
  5
11
330
3
100
AcDbSymbolTableRecord
100
AcDbTextStyleTableRecord
  2
STANDARD
 70
     0
 40
0.0
 41
1.0
 50
0.0
 71
     0
 42
2.5
  3
txt
  4

  0
ENDTAB
  0
TABLE
  2
VIEW
  5
6
330
0
100
AcDbSymbolTable
 70
     0
  0
ENDTAB
  0
TABLE
  2
UCS
  5
7
330
0
100
AcDbSymbolTable
 70
     0
  0
ENDTAB
  0
TABLE
  2
APPID
  5
9
330
0
100
AcDbSymbolTable
 70
     2
  0
APPID
  5
12
330
9
100
AcDbSymbolTableRecord
100
AcDbRegAppTableRecord
  2
ACAD
 70
     0
  0
ENDTAB
  0
TABLE
  2
DIMSTYLE
  5
A
330
0
100
AcDbSymbolTable
 70
     1
  0
DIMSTYLE
105
27
330
A
100
AcDbSymbolTableRecord
100
AcDbDimStyleTableRecord
  2
ISO-25
 70
     0
  3

  4

  5

  6

  7

 40
1.0
 41
2.5
 42
0.625
 43
3.75
 44
1.25
 45
0.0
 46
0.0
 47
0.0
 48
0.0
140
2.5
141
2.5
142
0.0
143
0.03937007874016
144
1.0
145
0.0
146
1.0
147
0.625
 71
     0
 72
     0
 73
     0
 74
     0
 75
     0
 76
     0
 77
     1
 78
     8
170
     0
171
     3
172
     1
173
     0
174
     0
175
     0
176
     0
177
     0
178
     0
270
     2
271
     2
272
     2
273
     2
274
     3
340
11
275
     0
280
     0
281
     0
282
     0
283
     0
284
     8
285
     0
286
     0
287
     3
288
     0
  0
ENDTAB
  0
TABLE
  2
BLOCK_RECORD
  5
1
330
0
100
AcDbSymbolTable
 70
     1
  0
BLOCK_RECORD
  5
1F
330
1
100
AcDbSymbolTableRecord
100
AcDbBlockTableRecord
  2
*MODEL_SPACE
  0
BLOCK_RECORD
  5
1B
330
1
100
AcDbSymbolTableRecord
100
AcDbBlockTableRecord
  2
*PAPER_SPACE
  0
ENDTAB
  0
ENDSEC
  0
SECTION
  2
BLOCKS
  0
BLOCK
  5
20
330
1F
100
AcDbEntity
  8
0
100
AcDbBlockBegin
  2
*MODEL_SPACE
 70
     0
 10
0.0
 20
0.0
 30
0.0
  3
*MODEL_SPACE
  1

  0
ENDBLK
  5
21
330
1F
100
AcDbEntity
  8
0
100
AcDbBlockEnd
  0
BLOCK
  5
1C
330
1B
100
AcDbEntity
 67
     1
  8
0
100
AcDbBlockBegin
  2
*PAPER_SPACE
  1

  0
ENDBLK
  5
1D
330
1B
100
AcDbEntity
 67
     1
  8
0
100
AcDbBlockEnd
  0
ENDSEC
  0
SECTION
  2
ENTITIES
0
DIMENSION
5
83
100
AcDbEntity
62
256
370
-1
6
ByLayer
1
total_width
3
Standard
70
0
71
5
72
1
41
1.0
100
AcDbAlignedDimension
13
10.160000
23
0.000000
33
0.0
14
32.173333
24
0.000000
34
0.0
50
0.000000
100
AcDbRotatedDimension
0
DIMENSION
5
83
100
AcDbEntity
62
256
370
-1
6
ByLayer
1
total_minx
3
Standard
70
0
71
5
72
1
41
1.0
100
AcDbAlignedDimension
13
10.160000
23
0.000000
33
0.0
14
0.000000
24
0.000000
34
0.0
50
0.000000
100
AcDbRotatedDimension
0
DIMENSION
5
83
100
AcDbEntity
62
256
370
-1
6
ByLayer
1
total_maxx
3
Standard
70
0
71
5
72
1
41
1.0
100
AcDbAlignedDimension
13
0.000000
23
0.000000
33
0.0
14
32.173333
24
0.000000
34
0.0
50
0.000000
100
AcDbRotatedDimension
0
DIMENSION
5
83
100
AcDbEntity
62
256
370
-1
6
ByLayer
1
total_height
3
Standard
70
0
71
5
72
1
41
1.0
100
AcDbAlignedDimension
13
0.000000
23
3.674488
33
0.0
14
0.000000
24
38.727307
34
0.0
50
90.000000
100
AcDbRotatedDimension
0
DIMENSION
5
83
100
AcDbEntity
62
256
370
-1
6
ByLayer
1
total_miny
3
Standard
70
0
71
5
72
1
41
1.0
100
AcDbAlignedDimension
13
3.674488
23
0.000000
33
0.0
14
0.000000
24
0.000000
34
0.0
50
0.000000
100
AcDbRotatedDimension
0
DIMENSION
5
83
100
AcDbEntity
62
256
370
-1
6
ByLayer
1
total_maxy
3
Standard
70
0
71
5
72
1
41
1.0
100
AcDbAlignedDimension
13
0.000000
23
0.000000
33
0.0
14
38.727307
24
0.000000
34
0.0
50
0.000000
100
AcDbRotatedDimension
0
DIMENSION
8
Layer_1
5
83
100
AcDbEntity
62
256
370
-1
6
ByLayer
1
Layer_1_width
3
Standard
70
0
71
5
72
1
41
1.0
100
AcDbAlignedDimension
13
10.160000
23
0.000000
33
0.0
14
32.173333
24
0.000000
34
0.0
50
0.000000
100
AcDbRotatedDimension
0
DIMENSION
8
Layer_1
5
83
100
AcDbEntity
62
256
370
-1
6
ByLayer
1
Layer_1_minx
3
Standard
70
0
71
5
72
1
41
1.0
100
AcDbAlignedDimension
13
10.160000
23
0.000000
33
0.0
14
0.000000
24
0.000000
34
0.0
50
0.000000
100
AcDbRotatedDimension
0
DIMENSION
8
Layer_1
5
83
100
AcDbEntity
62
256
370
-1
6
ByLayer
1
Layer_1_maxx
3
Standard
70
0
71
5
72
1
41
1.0
100
AcDbAlignedDimension
13
0.000000
23
0.000000
33
0.0
14
32.173333
24
0.000000
34
0.0
50
0.000000
100
AcDbRotatedDimension
0
DIMENSION
8
Layer_1
5
83
100
AcDbEntity
62
256
370
-1
6
ByLayer
1
Layer_1_height
3
Standard
70
0
71
5
72
1
41
1.0
100
AcDbAlignedDimension
13
0.000000
23
3.674488
33
0.0
14
0.000000
24
38.727307
34
0.0
50
90.000000
100
AcDbRotatedDimension
0
DIMENSION
8
Layer_1
5
83
100
AcDbEntity
62
256
370
-1
6
ByLayer
1
Layer_1_miny
3
Standard
70
0
71
5
72
1
41
1.0
100
AcDbAlignedDimension
13
3.674488
23
0.000000
33
0.0
14
0.000000
24
0.000000
34
0.0
50
0.000000
100
AcDbRotatedDimension
0
DIMENSION
8
Layer_1
5
83
100
AcDbEntity
62
256
370
-1
6
ByLayer
1
Layer_1_maxy
3
Standard
70
0
71
5
72
1
41
1.0
100
AcDbAlignedDimension
13
0.000000
23
0.000000
33
0.0
14
38.727307
24
0.000000
34
0.0
50
0.000000
100
AcDbRotatedDimension
62
0
0
LWPOLYLINE
100
AcDbPolyline
8
Layer_1
90
13
70
0
10
18.387052
20
5.678540
30
0.0
10
16.593996
20
7.151171
30
0.0
10
15.988163
20
7.885413
30
0.0
10
18.697222
20
9.997008
30
0.0
10
21.166667
20
11.900185
30
0.0
10
23.636111
20
9.997008
30
0.0
10
26.346416
20
7.884168
30
0.0
10
25.670482
20
7.151511
30
0.0
10
23.962589
20
5.708113
30
0.0
10
22.145472
20
4.300323
30
0.0
10
21.141860
20
3.674488
30
0.0
10
18.387052
20
5.678540
30
0.0
10
18.387052
20
5.678540
30
0.0
62
0
0
LWPOLYLINE
100
AcDbPolyline
8
Layer_1
90
27
70
0
10
12.578496
20
10.047834
30
0.0
10
11.269970
20
11.046968
30
0.0
10
14.807207
20
13.730232
30
0.0
10
18.332296
20
16.602861
30
0.0
10
14.240074
20
19.829371
30
0.0
10
10.160000
20
22.866520
30
0.0
10
10.160000
20
24.841410
30
0.0
10
10.160000
20
26.816300
30
0.0
10
15.663333
20
22.686672
30
0.0
10
21.166667
20
18.557044
30
0.0
10
26.670000
20
22.686672
30
0.0
10
32.173333
20
26.816300
30
0.0
10
32.173333
20
24.841410
30
0.0
10
32.173333
20
22.866520
30
0.0
10
28.093259
20
19.829371
30
0.0
10
24.001037
20
16.614932
30
0.0
10
27.525503
20
13.741829
30
0.0
10
31.062117
20
11.046017
30
0.0
10
29.761109
20
10.052623
30
0.0
10
28.460105
20
9.059232
30
0.0
10
24.980003
20
11.726283
30
0.0
10
22.424488
20
13.609887
30
0.0
10
21.167327
20
14.393333
30
0.0
10
19.911998
20
13.608340
30
0.0
10
17.360887
20
11.721016
30
0.0
10
13.887022
20
9.048699
30
0.0
10
12.578496
20
10.047834
30
0.0
62
0
0
LWPOLYLINE
100
AcDbPolyline
8
Layer_1
90
8
70
0
10
10.160000
20
16.520822
30
0.0
10
10.160000
20
19.790628
30
0.0
10
11.411488
20
18.891877
30
0.0
10
13.563204
20
17.241582
30
0.0
10
14.463433
20
16.490039
30
0.0
10
12.311716
20
14.870527
30
0.0
10
10.160000
20
13.251016
30
0.0
10
10.160000
20
16.520822
30
0.0
62
0
0
LWPOLYLINE
100
AcDbPolyline
8
Layer_1
90
9
70
0
10
29.951418
20
14.895196
30
0.0
10
27.870611
20
16.490632
30
0.0
10
28.770484
20
17.241879
30
0.0
10
30.921844
20
18.891877
30
0.0
10
32.173333
20
19.790628
30
0.0
10
32.173333
20
16.527536
30
0.0
10
32.102778
20
13.282103
30
0.0
10
29.951418
20
14.895196
30
0.0
10
29.951418
20
14.895196
30
0.0
62
0
0
LWPOLYLINE
100
AcDbPolyline
8
Layer_1
90
24
70
0
10
15.592936
20
25.463091
30
0.0
10
11.667405
20
28.516174
30
0.0
10
10.564969
20
29.485874
30
0.0
10
10.171480
20
29.971749
30
0.0
10
10.421167
20
30.441683
30
0.0
10
11.012316
20
31.082571
30
0.0
10
11.686349
20
31.647889
30
0.0
10
12.184688
20
31.891111
30
0.0
10
16.661479
20
28.637783
30
0.0
10
19.832606
20
26.380843
30
0.0
10
21.362578
20
25.523088
30
0.0
10
25.608036
20
28.581878
30
0.0
10
29.857198
20
31.720767
30
0.0
10
30.421257
20
31.658055
30
0.0
10
31.194614
20
31.192791
30
0.0
10
31.875240
20
30.554260
30
0.0
10
32.161107
20
29.971749
30
0.0
10
30.612770
20
28.539154
30
0.0
10
27.139213
20
25.762501
30
0.0
10
23.473809
20
22.989316
30
0.0
10
21.349930
20
21.567123
30
0.0
10
19.515668
20
22.656634
30
0.0
10
15.592936
20
25.463091
30
0.0
10
15.592936
20
25.463091
30
0.0
62
0
0
LWPOLYLINE
100
AcDbPolyline
8
Layer_1
90
15
70
0
10
17.780000
20
30.513995
30
0.0
10
14.464734
20
33.115758
30
0.0
10
14.449281
20
33.403132
30
0.0
10
14.898045
20
33.924236
30
0.0
10
17.643851
20
36.094554
30
0.0
10
21.174900
20
38.727307
30
0.0
10
24.486895
20
36.258593
30
0.0
10
28.037763
20
33.575288
30
0.0
10
27.148215
20
32.634384
30
0.0
10
24.883427
20
30.805513
30
0.0
10
22.463272
20
29.027769
30
0.0
10
21.107622
20
28.240250
30
0.0
10
19.979864
20
28.915599
30
0.0
10
17.780000
20
30.513995
30
0.0
10
17.780000
20
30.513995
30
0.0
  0
ENDSEC
  0
SECTION
  2
OBJECTS
  0
DICTIONARY
  5
C
330
0
100
AcDbDictionary
  3
ACAD_GROUP
350
D
  3
ACAD_MLINESTYLE
350
17
  0
DICTIONARY
  5
D
330
C
100
AcDbDictionary
  0
DICTIONARY
  5
1A
330
C
100
AcDbDictionary
  0
DICTIONARY
  5
17
330
C
100
AcDbDictionary
  3
STANDARD
350
18
  0
DICTIONARY
  5
19
330
C
100
AcDbDictionary
  0
ENDSEC
  0
EOF
