999
Inkscape export via OpenSCAD DXF Export
  0
SECTION
  2
HEADER
  9
$ACADVER
  1
AC1014
  9
$HANDSEED
  5
FFFF
  9
$MEASUREMENT
 70
     1
  0
ENDSEC
  0
SECTION
  2
TABLES
  0
TABLE
  2
VPORT
  5
8
330
0
100
AcDbSymbolTable
 70
     4
  0
VPORT
  5
2E
330
8
100
AcDbSymbolTableRecord
100
AcDbViewportTableRecord
  2
*ACTIVE
 70
     0
 10
0.0
 20
0.0
 11
1.0
 21
1.0
 12
210.0
 22
148.5
 13
0.0
 23
0.0
 14
10.0
 24
10.0
 15
10.0
 25
10.0
 16
0.0
 26
0.0
 36
1.0
 17
0.0
 27
0.0
 37
0.0
 40
341.0
 41
1.24
 42
50.0
 43
0.0
 44
0.0
 50
0.0
 51
0.0
 71
     0
 72
   100
 73
     1
 74
     3
 75
     0
 76
     0
 77
     0
 78
     0
  0
ENDTAB
  0
TABLE
  2
LTYPE
  5
5
330
0
100
AcDbSymbolTable
 70
     1
  0
LTYPE
  5
14
330
5
100
AcDbSymbolTableRecord
100
AcDbLinetypeTableRecord
  2
BYBLOCK
 70
     0
  3

 72
    65
 73
     0
 40
0.0
  0
LTYPE
  5
15
330
5
100
AcDbSymbolTableRecord
100
AcDbLinetypeTableRecord
  2
BYLAYER
 70
     0
  3

 72
    65
 73
     0
 40
0.0
  0
LTYPE
  5
16
330
5
100
AcDbSymbolTableRecord
100
AcDbLinetypeTableRecord
  2
CONTINUOUS
 70
     0
  3
Solid line
 72
    65
 73
     0
 40
0.0
  0
ENDTAB
  0
TABLE
0
TABLE
2
LAYER
5
2
330
0
100
AcDbSymbolTable
70
1
0
LAYER
5
10
330
2
100
AcDbSymbolTableRecord
100
AcDbLayerTableRecord
2
Layer_1
70
0
62
7
6
CONTINUOUS
0
ENDTAB
0
ENDSEC
  0
ENDTAB
  0
TABLE
  2
STYLE
  5
3
330
0
100
AcDbSymbolTable
 70
     1
  0
STYLE
  5
11
330
3
100
AcDbSymbolTableRecord
100
AcDbTextStyleTableRecord
  2
STANDARD
 70
     0
 40
0.0
 41
1.0
 50
0.0
 71
     0
 42
2.5
  3
txt
  4

  0
ENDTAB
  0
TABLE
  2
VIEW
  5
6
330
0
100
AcDbSymbolTable
 70
     0
  0
ENDTAB
  0
TABLE
  2
UCS
  5
7
330
0
100
AcDbSymbolTable
 70
     0
  0
ENDTAB
  0
TABLE
  2
APPID
  5
9
330
0
100
AcDbSymbolTable
 70
     2
  0
APPID
  5
12
330
9
100
AcDbSymbolTableRecord
100
AcDbRegAppTableRecord
  2
ACAD
 70
     0
  0
ENDTAB
  0
TABLE
  2
DIMSTYLE
  5
A
330
0
100
AcDbSymbolTable
 70
     1
  0
DIMSTYLE
105
27
330
A
100
AcDbSymbolTableRecord
100
AcDbDimStyleTableRecord
  2
ISO-25
 70
     0
  3

  4

  5

  6

  7

 40
1.0
 41
2.5
 42
0.625
 43
3.75
 44
1.25
 45
0.0
 46
0.0
 47
0.0
 48
0.0
140
2.5
141
2.5
142
0.0
143
0.03937007874016
144
1.0
145
0.0
146
1.0
147
0.625
 71
     0
 72
     0
 73
     0
 74
     0
 75
     0
 76
     0
 77
     1
 78
     8
170
     0
171
     3
172
     1
173
     0
174
     0
175
     0
176
     0
177
     0
178
     0
270
     2
271
     2
272
     2
273
     2
274
     3
340
11
275
     0
280
     0
281
     0
282
     0
283
     0
284
     8
285
     0
286
     0
287
     3
288
     0
  0
ENDTAB
  0
TABLE
  2
BLOCK_RECORD
  5
1
330
0
100
AcDbSymbolTable
 70
     1
  0
BLOCK_RECORD
  5
1F
330
1
100
AcDbSymbolTableRecord
100
AcDbBlockTableRecord
  2
*MODEL_SPACE
  0
BLOCK_RECORD
  5
1B
330
1
100
AcDbSymbolTableRecord
100
AcDbBlockTableRecord
  2
*PAPER_SPACE
  0
ENDTAB
  0
ENDSEC
  0
SECTION
  2
BLOCKS
  0
BLOCK
  5
20
330
1F
100
AcDbEntity
  8
0
100
AcDbBlockBegin
  2
*MODEL_SPACE
 70
     0
 10
0.0
 20
0.0
 30
0.0
  3
*MODEL_SPACE
  1

  0
ENDBLK
  5
21
330
1F
100
AcDbEntity
  8
0
100
AcDbBlockEnd
  0
BLOCK
  5
1C
330
1B
100
AcDbEntity
 67
     1
  8
0
100
AcDbBlockBegin
  2
*PAPER_SPACE
  1

  0
ENDBLK
  5
1D
330
1B
100
AcDbEntity
 67
     1
  8
0
100
AcDbBlockEnd
  0
ENDSEC
  0
SECTION
  2
ENTITIES
0
DIMENSION
5
83
100
AcDbEntity
62
256
370
-1
6
ByLayer
1
total_width
3
Standard
70
0
71
5
72
1
41
1.0
100
AcDbAlignedDimension
13
2.963333
23
0.000000
33
0.0
14
39.434833
24
0.000000
34
0.0
50
0.000000
100
AcDbRotatedDimension
0
DIMENSION
5
83
100
AcDbEntity
62
256
370
-1
6
ByLayer
1
total_minx
3
Standard
70
0
71
5
72
1
41
1.0
100
AcDbAlignedDimension
13
2.963333
23
0.000000
33
0.0
14
0.000000
24
0.000000
34
0.0
50
0.000000
100
AcDbRotatedDimension
0
DIMENSION
5
83
100
AcDbEntity
62
256
370
-1
6
ByLayer
1
total_maxx
3
Standard
70
0
71
5
72
1
41
1.0
100
AcDbAlignedDimension
13
0.000000
23
0.000000
33
0.0
14
39.434833
24
0.000000
34
0.0
50
0.000000
100
AcDbRotatedDimension
0
DIMENSION
5
83
100
AcDbEntity
62
256
370
-1
6
ByLayer
1
total_height
3
Standard
70
0
71
5
72
1
41
1.0
100
AcDbAlignedDimension
13
0.000000
23
2.665470
33
0.0
14
0.000000
24
39.489261
34
0.0
50
90.000000
100
AcDbRotatedDimension
0
DIMENSION
5
83
100
AcDbEntity
62
256
370
-1
6
ByLayer
1
total_miny
3
Standard
70
0
71
5
72
1
41
1.0
100
AcDbAlignedDimension
13
2.665470
23
0.000000
33
0.0
14
0.000000
24
0.000000
34
0.0
50
0.000000
100
AcDbRotatedDimension
0
DIMENSION
5
83
100
AcDbEntity
62
256
370
-1
6
ByLayer
1
total_maxy
3
Standard
70
0
71
5
72
1
41
1.0
100
AcDbAlignedDimension
13
0.000000
23
0.000000
33
0.0
14
39.489261
24
0.000000
34
0.0
50
0.000000
100
AcDbRotatedDimension
0
DIMENSION
8
Layer_1
5
83
100
AcDbEntity
62
256
370
-1
6
ByLayer
1
Layer_1_width
3
Standard
70
0
71
5
72
1
41
1.0
100
AcDbAlignedDimension
13
2.963333
23
0.000000
33
0.0
14
39.434833
24
0.000000
34
0.0
50
0.000000
100
AcDbRotatedDimension
0
DIMENSION
8
Layer_1
5
83
100
AcDbEntity
62
256
370
-1
6
ByLayer
1
Layer_1_minx
3
Standard
70
0
71
5
72
1
41
1.0
100
AcDbAlignedDimension
13
2.963333
23
0.000000
33
0.0
14
0.000000
24
0.000000
34
0.0
50
0.000000
100
AcDbRotatedDimension
0
DIMENSION
8
Layer_1
5
83
100
AcDbEntity
62
256
370
-1
6
ByLayer
1
Layer_1_maxx
3
Standard
70
0
71
5
72
1
41
1.0
100
AcDbAlignedDimension
13
0.000000
23
0.000000
33
0.0
14
39.434833
24
0.000000
34
0.0
50
0.000000
100
AcDbRotatedDimension
0
DIMENSION
8
Layer_1
5
83
100
AcDbEntity
62
256
370
-1
6
ByLayer
1
Layer_1_height
3
Standard
70
0
71
5
72
1
41
1.0
100
AcDbAlignedDimension
13
0.000000
23
2.665470
33
0.0
14
0.000000
24
39.489261
34
0.0
50
90.000000
100
AcDbRotatedDimension
0
DIMENSION
8
Layer_1
5
83
100
AcDbEntity
62
256
370
-1
6
ByLayer
1
Layer_1_miny
3
Standard
70
0
71
5
72
1
41
1.0
100
AcDbAlignedDimension
13
2.665470
23
0.000000
33
0.0
14
0.000000
24
0.000000
34
0.0
50
0.000000
100
AcDbRotatedDimension
0
DIMENSION
8
Layer_1
5
83
100
AcDbEntity
62
256
370
-1
6
ByLayer
1
Layer_1_maxy
3
Standard
70
0
71
5
72
1
41
1.0
100
AcDbAlignedDimension
13
0.000000
23
0.000000
33
0.0
14
39.489261
24
0.000000
34
0.0
50
0.000000
100
AcDbRotatedDimension
62
0
0
LWPOLYLINE
100
AcDbPolyline
8
Layer_1
90
60
70
0
10
17.636040
20
2.808532
30
0.0
10
14.975581
20
3.566914
30
0.0
10
12.542553
20
4.656997
30
0.0
10
10.300076
20
6.098752
30
0.0
10
8.211274
20
7.912148
30
0.0
10
6.785039
20
9.471381
30
0.0
10
5.591371
20
11.108570
30
0.0
10
4.586435
20
12.891912
30
0.0
10
3.726395
20
14.889607
30
0.0
10
3.349190
20
16.009950
30
0.0
10
3.128789
20
17.093418
30
0.0
10
2.986178
20
20.441466
30
0.0
10
2.963333
20
24.090710
30
0.0
10
9.448778
20
25.715281
30
0.0
10
16.032001
20
27.242073
30
0.0
10
13.268804
20
22.866518
30
0.0
10
11.274016
20
19.770944
30
0.0
10
10.495580
20
18.335484
30
0.0
10
11.785724
20
18.991176
30
0.0
10
14.764332
20
20.923263
30
0.0
10
19.035666
20
23.664927
30
0.0
10
20.005988
20
16.792222
30
0.0
10
21.008675
20
9.388608
30
0.0
10
21.228559
20
8.367013
30
0.0
10
21.416063
20
8.184444
30
0.0
10
21.889912
20
10.443545
30
0.0
10
22.714865
20
15.875000
30
0.0
10
23.962604
20
23.765792
30
0.0
10
25.150128
20
23.122990
30
0.0
10
27.762645
20
21.296347
30
0.0
10
31.081748
20
18.957233
30
0.0
10
31.716615
20
18.651778
30
0.0
10
31.891111
20
18.786996
30
0.0
10
29.610152
20
23.185295
30
0.0
10
27.455351
20
27.549425
30
0.0
10
29.366084
20
27.166210
30
0.0
10
33.372504
20
26.081593
30
0.0
10
37.382513
20
24.889692
30
0.0
10
39.304016
20
24.184622
30
0.0
10
39.434833
20
22.951892
30
0.0
10
39.426571
20
20.461111
30
0.0
10
39.298902
20
18.528875
30
0.0
10
39.037228
20
16.745546
30
0.0
10
38.632104
20
15.088791
30
0.0
10
38.074087
20
13.536277
30
0.0
10
37.353732
20
12.065669
30
0.0
10
36.461595
20
10.654635
30
0.0
10
35.388232
20
9.280841
30
0.0
10
34.124200
20
7.921952
30
0.0
10
32.790047
20
6.689994
30
0.0
10
31.430154
20
5.635439
30
0.0
10
30.029200
20
4.751714
30
0.0
10
28.571861
20
4.032247
30
0.0
10
27.042817
20
3.470462
30
0.0
10
25.426744
20
3.059787
30
0.0
10
23.708319
20
2.793648
30
0.0
10
21.872222
20
2.665470
30
0.0
10
19.347260
20
2.666116
30
0.0
10
17.636040
20
2.808532
30
0.0
10
17.636040
20
2.808532
30
0.0
62
0
0
LWPOLYLINE
100
AcDbPolyline
8
Layer_1
90
19
70
0
10
3.431799
20
26.176111
30
0.0
10
4.051377
20
27.894109
30
0.0
10
4.994129
20
29.765663
30
0.0
10
6.141788
20
31.582115
30
0.0
10
7.376084
20
33.134813
30
0.0
10
8.947079
20
34.714555
30
0.0
10
10.406191
20
35.948241
30
0.0
10
11.549979
20
36.682092
30
0.0
10
11.940053
20
36.813523
30
0.0
10
12.175006
20
36.762328
30
0.0
10
14.395648
20
34.114017
30
0.0
10
15.970954
20
32.046913
30
0.0
10
16.018314
20
31.684998
30
0.0
10
15.715442
20
31.485441
30
0.0
10
10.520905
20
29.008472
30
0.0
10
5.525716
20
26.408137
30
0.0
10
3.220132
20
25.117778
30
0.0
10
3.431799
20
26.176111
30
0.0
10
3.431799
20
26.176111
30
0.0
62
0
0
LWPOLYLINE
100
AcDbPolyline
8
Layer_1
90
19
70
0
10
37.112222
20
26.846833
30
0.0
10
35.191893
20
27.989032
30
0.0
10
32.745810
20
29.259075
30
0.0
10
30.260433
20
30.417415
30
0.0
10
28.222222
20
31.224505
30
0.0
10
26.562211
20
31.807080
30
0.0
10
28.082126
20
34.557667
30
0.0
10
29.818660
20
37.253333
30
0.0
10
31.112116
20
36.505059
30
0.0
10
32.575609
20
35.429840
30
0.0
10
34.054637
20
34.074455
30
0.0
10
35.419640
20
32.569218
30
0.0
10
36.541061
20
31.044444
30
0.0
10
38.234604
20
27.940055
30
0.0
10
38.761469
20
26.662067
30
0.0
10
38.892788
20
25.960892
30
0.0
10
38.333763
20
26.120190
30
0.0
10
37.112222
20
26.846833
30
0.0
10
37.112222
20
26.846833
30
0.0
62
0
0
LWPOLYLINE
100
AcDbPolyline
8
Layer_1
90
11
70
0
10
16.090523
20
35.479567
30
0.0
10
12.712030
20
37.147229
30
0.0
10
12.743887
20
37.360549
30
0.0
10
13.210059
20
37.648829
30
0.0
10
15.522222
20
38.486914
30
0.0
10
19.040720
20
39.294296
30
0.0
10
20.360617
20
39.425939
30
0.0
10
20.884444
20
39.299926
30
0.0
10
19.421744
20
34.020723
30
0.0
10
16.090523
20
35.479567
30
0.0
10
16.090523
20
35.479567
30
0.0
62
0
0
LWPOLYLINE
100
AcDbPolyline
8
Layer_1
90
11
70
0
10
22.317599
20
36.053889
30
0.0
10
21.845269
20
38.724075
30
0.0
10
21.691062
20
39.489261
30
0.0
10
23.192753
20
39.321374
30
0.0
10
26.764239
20
38.501714
30
0.0
10
28.387525
20
37.966476
30
0.0
10
29.065542
20
37.593833
30
0.0
10
26.045239
20
35.802871
30
0.0
10
22.779592
20
34.148889
30
0.0
10
22.317599
20
36.053889
30
0.0
10
22.317599
20
36.053889
30
0.0
  0
ENDSEC
  0
SECTION
  2
OBJECTS
  0
DICTIONARY
  5
C
330
0
100
AcDbDictionary
  3
ACAD_GROUP
350
D
  3
ACAD_MLINESTYLE
350
17
  0
DICTIONARY
  5
D
330
C
100
AcDbDictionary
  0
DICTIONARY
  5
1A
330
C
100
AcDbDictionary
  0
DICTIONARY
  5
17
330
C
100
AcDbDictionary
  3
STANDARD
350
18
  0
DICTIONARY
  5
19
330
C
100
AcDbDictionary
  0
ENDSEC
  0
EOF
