999
Inkscape export via OpenSCAD DXF Export
  0
SECTION
  2
HEADER
  9
$ACADVER
  1
AC1014
  9
$HANDSEED
  5
FFFF
  9
$MEASUREMENT
 70
     1
  0
ENDSEC
  0
SECTION
  2
TABLES
  0
TABLE
  2
VPORT
  5
8
330
0
100
AcDbSymbolTable
 70
     4
  0
VPORT
  5
2E
330
8
100
AcDbSymbolTableRecord
100
AcDbViewportTableRecord
  2
*ACTIVE
 70
     0
 10
0.0
 20
0.0
 11
1.0
 21
1.0
 12
210.0
 22
148.5
 13
0.0
 23
0.0
 14
10.0
 24
10.0
 15
10.0
 25
10.0
 16
0.0
 26
0.0
 36
1.0
 17
0.0
 27
0.0
 37
0.0
 40
341.0
 41
1.24
 42
50.0
 43
0.0
 44
0.0
 50
0.0
 51
0.0
 71
     0
 72
   100
 73
     1
 74
     3
 75
     0
 76
     0
 77
     0
 78
     0
  0
ENDTAB
  0
TABLE
  2
LTYPE
  5
5
330
0
100
AcDbSymbolTable
 70
     1
  0
LTYPE
  5
14
330
5
100
AcDbSymbolTableRecord
100
AcDbLinetypeTableRecord
  2
BYBLOCK
 70
     0
  3

 72
    65
 73
     0
 40
0.0
  0
LTYPE
  5
15
330
5
100
AcDbSymbolTableRecord
100
AcDbLinetypeTableRecord
  2
BYLAYER
 70
     0
  3

 72
    65
 73
     0
 40
0.0
  0
LTYPE
  5
16
330
5
100
AcDbSymbolTableRecord
100
AcDbLinetypeTableRecord
  2
CONTINUOUS
 70
     0
  3
Solid line
 72
    65
 73
     0
 40
0.0
  0
ENDTAB
  0
TABLE
0
TABLE
2
LAYER
5
2
330
0
100
AcDbSymbolTable
70
1
0
LAYER
5
10
330
2
100
AcDbSymbolTableRecord
100
AcDbLayerTableRecord
2
Layer_1
70
0
62
7
6
CONTINUOUS
0
ENDTAB
0
ENDSEC
  0
ENDTAB
  0
TABLE
  2
STYLE
  5
3
330
0
100
AcDbSymbolTable
 70
     1
  0
STYLE
  5
11
330
3
100
AcDbSymbolTableRecord
100
AcDbTextStyleTableRecord
  2
STANDARD
 70
     0
 40
0.0
 41
1.0
 50
0.0
 71
     0
 42
2.5
  3
txt
  4

  0
ENDTAB
  0
TABLE
  2
VIEW
  5
6
330
0
100
AcDbSymbolTable
 70
     0
  0
ENDTAB
  0
TABLE
  2
UCS
  5
7
330
0
100
AcDbSymbolTable
 70
     0
  0
ENDTAB
  0
TABLE
  2
APPID
  5
9
330
0
100
AcDbSymbolTable
 70
     2
  0
APPID
  5
12
330
9
100
AcDbSymbolTableRecord
100
AcDbRegAppTableRecord
  2
ACAD
 70
     0
  0
ENDTAB
  0
TABLE
  2
DIMSTYLE
  5
A
330
0
100
AcDbSymbolTable
 70
     1
  0
DIMSTYLE
105
27
330
A
100
AcDbSymbolTableRecord
100
AcDbDimStyleTableRecord
  2
ISO-25
 70
     0
  3

  4

  5

  6

  7

 40
1.0
 41
2.5
 42
0.625
 43
3.75
 44
1.25
 45
0.0
 46
0.0
 47
0.0
 48
0.0
140
2.5
141
2.5
142
0.0
143
0.03937007874016
144
1.0
145
0.0
146
1.0
147
0.625
 71
     0
 72
     0
 73
     0
 74
     0
 75
     0
 76
     0
 77
     1
 78
     8
170
     0
171
     3
172
     1
173
     0
174
     0
175
     0
176
     0
177
     0
178
     0
270
     2
271
     2
272
     2
273
     2
274
     3
340
11
275
     0
280
     0
281
     0
282
     0
283
     0
284
     8
285
     0
286
     0
287
     3
288
     0
  0
ENDTAB
  0
TABLE
  2
BLOCK_RECORD
  5
1
330
0
100
AcDbSymbolTable
 70
     1
  0
BLOCK_RECORD
  5
1F
330
1
100
AcDbSymbolTableRecord
100
AcDbBlockTableRecord
  2
*MODEL_SPACE
  0
BLOCK_RECORD
  5
1B
330
1
100
AcDbSymbolTableRecord
100
AcDbBlockTableRecord
  2
*PAPER_SPACE
  0
ENDTAB
  0
ENDSEC
  0
SECTION
  2
BLOCKS
  0
BLOCK
  5
20
330
1F
100
AcDbEntity
  8
0
100
AcDbBlockBegin
  2
*MODEL_SPACE
 70
     0
 10
0.0
 20
0.0
 30
0.0
  3
*MODEL_SPACE
  1

  0
ENDBLK
  5
21
330
1F
100
AcDbEntity
  8
0
100
AcDbBlockEnd
  0
BLOCK
  5
1C
330
1B
100
AcDbEntity
 67
     1
  8
0
100
AcDbBlockBegin
  2
*PAPER_SPACE
  1

  0
ENDBLK
  5
1D
330
1B
100
AcDbEntity
 67
     1
  8
0
100
AcDbBlockEnd
  0
ENDSEC
  0
SECTION
  2
ENTITIES
0
DIMENSION
5
83
100
AcDbEntity
62
256
370
-1
6
ByLayer
1
total_width
3
Standard
70
0
71
5
72
1
41
1.0
100
AcDbAlignedDimension
13
2.822222
23
0.000000
33
0.0
14
38.694126
24
0.000000
34
0.0
50
0.000000
100
AcDbRotatedDimension
0
DIMENSION
5
83
100
AcDbEntity
62
256
370
-1
6
ByLayer
1
total_minx
3
Standard
70
0
71
5
72
1
41
1.0
100
AcDbAlignedDimension
13
2.822222
23
0.000000
33
0.0
14
0.000000
24
0.000000
34
0.0
50
0.000000
100
AcDbRotatedDimension
0
DIMENSION
5
83
100
AcDbEntity
62
256
370
-1
6
ByLayer
1
total_maxx
3
Standard
70
0
71
5
72
1
41
1.0
100
AcDbAlignedDimension
13
0.000000
23
0.000000
33
0.0
14
38.694126
24
0.000000
34
0.0
50
0.000000
100
AcDbRotatedDimension
0
DIMENSION
5
83
100
AcDbEntity
62
256
370
-1
6
ByLayer
1
total_height
3
Standard
70
0
71
5
72
1
41
1.0
100
AcDbAlignedDimension
13
0.000000
23
2.822222
33
0.0
14
0.000000
24
39.511111
34
0.0
50
90.000000
100
AcDbRotatedDimension
0
DIMENSION
5
83
100
AcDbEntity
62
256
370
-1
6
ByLayer
1
total_miny
3
Standard
70
0
71
5
72
1
41
1.0
100
AcDbAlignedDimension
13
2.822222
23
0.000000
33
0.0
14
0.000000
24
0.000000
34
0.0
50
0.000000
100
AcDbRotatedDimension
0
DIMENSION
5
83
100
AcDbEntity
62
256
370
-1
6
ByLayer
1
total_maxy
3
Standard
70
0
71
5
72
1
41
1.0
100
AcDbAlignedDimension
13
0.000000
23
0.000000
33
0.0
14
39.511111
24
0.000000
34
0.0
50
0.000000
100
AcDbRotatedDimension
0
DIMENSION
8
Layer_1
5
83
100
AcDbEntity
62
256
370
-1
6
ByLayer
1
Layer_1_width
3
Standard
70
0
71
5
72
1
41
1.0
100
AcDbAlignedDimension
13
2.822222
23
0.000000
33
0.0
14
38.694126
24
0.000000
34
0.0
50
0.000000
100
AcDbRotatedDimension
0
DIMENSION
8
Layer_1
5
83
100
AcDbEntity
62
256
370
-1
6
ByLayer
1
Layer_1_minx
3
Standard
70
0
71
5
72
1
41
1.0
100
AcDbAlignedDimension
13
2.822222
23
0.000000
33
0.0
14
0.000000
24
0.000000
34
0.0
50
0.000000
100
AcDbRotatedDimension
0
DIMENSION
8
Layer_1
5
83
100
AcDbEntity
62
256
370
-1
6
ByLayer
1
Layer_1_maxx
3
Standard
70
0
71
5
72
1
41
1.0
100
AcDbAlignedDimension
13
0.000000
23
0.000000
33
0.0
14
38.694126
24
0.000000
34
0.0
50
0.000000
100
AcDbRotatedDimension
0
DIMENSION
8
Layer_1
5
83
100
AcDbEntity
62
256
370
-1
6
ByLayer
1
Layer_1_height
3
Standard
70
0
71
5
72
1
41
1.0
100
AcDbAlignedDimension
13
0.000000
23
2.822222
33
0.0
14
0.000000
24
39.511111
34
0.0
50
90.000000
100
AcDbRotatedDimension
0
DIMENSION
8
Layer_1
5
83
100
AcDbEntity
62
256
370
-1
6
ByLayer
1
Layer_1_miny
3
Standard
70
0
71
5
72
1
41
1.0
100
AcDbAlignedDimension
13
2.822222
23
0.000000
33
0.0
14
0.000000
24
0.000000
34
0.0
50
0.000000
100
AcDbRotatedDimension
0
DIMENSION
8
Layer_1
5
83
100
AcDbEntity
62
256
370
-1
6
ByLayer
1
Layer_1_maxy
3
Standard
70
0
71
5
72
1
41
1.0
100
AcDbAlignedDimension
13
0.000000
23
0.000000
33
0.0
14
39.511111
24
0.000000
34
0.0
50
0.000000
100
AcDbRotatedDimension
62
0
0
LWPOLYLINE
100
AcDbPolyline
8
Layer_1
90
52
70
0
10
19.663610
20
6.445860
30
0.0
10
18.312206
20
10.069497
30
0.0
10
16.825563
20
10.685676
30
0.0
10
15.338919
20
11.301854
30
0.0
10
13.102238
20
10.277675
30
0.0
10
9.411733
20
8.605703
30
0.0
10
7.957911
20
7.957910
30
0.0
10
8.605703
20
9.411733
30
0.0
10
10.277675
20
13.102237
30
0.0
10
11.301855
20
15.338919
30
0.0
10
10.685676
20
16.825563
30
0.0
10
10.069497
20
18.312206
30
0.0
10
6.445859
20
19.663610
30
0.0
10
2.822222
20
21.166667
30
0.0
10
6.445859
20
22.669723
30
0.0
10
10.069497
20
24.021128
30
0.0
10
10.685676
20
25.507771
30
0.0
10
11.301855
20
26.994414
30
0.0
10
10.277675
20
29.231096
30
0.0
10
8.605703
20
32.921600
30
0.0
10
7.957911
20
34.375422
30
0.0
10
9.411733
20
33.727630
30
0.0
10
13.102238
20
32.055659
30
0.0
10
15.338919
20
31.031478
30
0.0
10
16.825563
20
31.647657
30
0.0
10
18.312206
20
32.263837
30
0.0
10
19.663610
20
35.887474
30
0.0
10
21.165824
20
39.511111
30
0.0
10
21.836725
20
38.044656
30
0.0
10
23.904023
20
32.562451
30
0.0
10
23.626950
20
32.128015
30
0.0
10
22.795984
20
31.527879
30
0.0
10
21.429736
20
30.529196
30
0.0
10
20.096300
20
29.194892
30
0.0
10
18.907040
20
27.651980
30
0.0
10
17.973317
20
26.027473
30
0.0
10
17.481529
20
24.912403
30
0.0
10
17.211580
20
23.967388
30
0.0
10
17.074444
20
21.166667
30
0.0
10
17.211580
20
18.365945
30
0.0
10
17.481529
20
17.420930
30
0.0
10
17.973317
20
16.305860
30
0.0
10
18.907040
20
14.681353
30
0.0
10
20.096300
20
13.138441
30
0.0
10
21.429736
20
11.804137
30
0.0
10
22.795984
20
10.805454
30
0.0
10
23.626950
20
10.205319
30
0.0
10
23.904023
20
9.770883
30
0.0
10
21.836725
20
4.288677
30
0.0
10
21.165824
20
2.822222
30
0.0
10
19.663610
20
6.445860
30
0.0
10
19.663610
20
6.445860
30
0.0
62
0
0
LWPOLYLINE
100
AcDbPolyline
8
Layer_1
90
54
70
0
10
25.931222
20
11.960741
30
0.0
10
24.363851
20
12.711101
30
0.0
10
22.852731
20
13.772818
30
0.0
10
21.556613
20
15.015572
30
0.0
10
20.634251
20
16.309042
30
0.0
10
20.510003
20
16.723525
30
0.0
10
21.376188
20
16.334010
30
0.0
10
22.350371
20
15.985696
30
0.0
10
23.460986
20
15.826722
30
0.0
10
24.583479
20
15.863884
30
0.0
10
25.593294
20
16.103975
30
0.0
10
26.433718
20
16.579869
30
0.0
10
27.338653
20
17.303420
30
0.0
10
28.084408
20
18.147350
30
0.0
10
28.626682
20
19.061019
30
0.0
10
28.964808
20
20.022841
30
0.0
10
29.098120
20
21.011226
30
0.0
10
29.025953
20
22.004588
30
0.0
10
28.747640
20
22.981338
30
0.0
10
28.262515
20
23.919889
30
0.0
10
27.569912
20
24.798652
30
0.0
10
26.186513
20
25.874311
30
0.0
10
24.612556
20
26.447848
30
0.0
10
22.967384
20
26.496209
30
0.0
10
21.370336
20
25.996337
30
0.0
10
20.325769
20
25.463787
30
0.0
10
20.816773
20
26.303554
30
0.0
10
21.533569
20
27.258662
30
0.0
10
22.554877
20
28.278734
30
0.0
10
23.722454
20
29.221841
30
0.0
10
24.878055
20
29.946057
30
0.0
10
26.558712
20
30.510036
30
0.0
10
28.598120
20
30.742673
30
0.0
10
30.706628
20
30.635225
30
0.0
10
32.594587
20
30.178952
30
0.0
10
34.296189
20
29.283267
30
0.0
10
35.867966
20
27.986182
30
0.0
10
37.167932
20
26.428826
30
0.0
10
38.054102
20
24.752331
30
0.0
10
38.470421
20
23.355667
30
0.0
10
38.682595
20
21.954048
30
0.0
10
38.694126
20
20.564088
30
0.0
10
38.508520
20
19.202404
30
0.0
10
38.129280
20
17.885613
30
0.0
10
37.559911
20
16.630330
30
0.0
10
36.803916
20
15.453172
30
0.0
10
35.864800
20
14.370754
30
0.0
10
34.350888
20
13.084760
30
0.0
10
32.762166
20
12.216718
30
0.0
10
31.005499
20
11.728880
30
0.0
10
28.987747
20
11.583498
30
0.0
10
27.250239
20
11.699419
30
0.0
10
25.931222
20
11.960741
30
0.0
10
25.931222
20
11.960741
30
0.0
  0
ENDSEC
  0
SECTION
  2
OBJECTS
  0
DICTIONARY
  5
C
330
0
100
AcDbDictionary
  3
ACAD_GROUP
350
D
  3
ACAD_MLINESTYLE
350
17
  0
DICTIONARY
  5
D
330
C
100
AcDbDictionary
  0
DICTIONARY
  5
1A
330
C
100
AcDbDictionary
  0
DICTIONARY
  5
17
330
C
100
AcDbDictionary
  3
STANDARD
350
18
  0
DICTIONARY
  5
19
330
C
100
AcDbDictionary
  0
ENDSEC
  0
EOF
