999
Inkscape export via OpenSCAD DXF Export
  0
SECTION
  2
HEADER
  9
$ACADVER
  1
AC1014
  9
$HANDSEED
  5
FFFF
  9
$MEASUREMENT
 70
     1
  0
ENDSEC
  0
SECTION
  2
TABLES
  0
TABLE
  2
VPORT
  5
8
330
0
100
AcDbSymbolTable
 70
     4
  0
VPORT
  5
2E
330
8
100
AcDbSymbolTableRecord
100
AcDbViewportTableRecord
  2
*ACTIVE
 70
     0
 10
0.0
 20
0.0
 11
1.0
 21
1.0
 12
210.0
 22
148.5
 13
0.0
 23
0.0
 14
10.0
 24
10.0
 15
10.0
 25
10.0
 16
0.0
 26
0.0
 36
1.0
 17
0.0
 27
0.0
 37
0.0
 40
341.0
 41
1.24
 42
50.0
 43
0.0
 44
0.0
 50
0.0
 51
0.0
 71
     0
 72
   100
 73
     1
 74
     3
 75
     0
 76
     0
 77
     0
 78
     0
  0
ENDTAB
  0
TABLE
  2
LTYPE
  5
5
330
0
100
AcDbSymbolTable
 70
     1
  0
LTYPE
  5
14
330
5
100
AcDbSymbolTableRecord
100
AcDbLinetypeTableRecord
  2
BYBLOCK
 70
     0
  3

 72
    65
 73
     0
 40
0.0
  0
LTYPE
  5
15
330
5
100
AcDbSymbolTableRecord
100
AcDbLinetypeTableRecord
  2
BYLAYER
 70
     0
  3

 72
    65
 73
     0
 40
0.0
  0
LTYPE
  5
16
330
5
100
AcDbSymbolTableRecord
100
AcDbLinetypeTableRecord
  2
CONTINUOUS
 70
     0
  3
Solid line
 72
    65
 73
     0
 40
0.0
  0
ENDTAB
  0
TABLE
0
TABLE
2
LAYER
5
2
330
0
100
AcDbSymbolTable
70
1
0
LAYER
5
10
330
2
100
AcDbSymbolTableRecord
100
AcDbLayerTableRecord
2
Layer_1
70
0
62
7
6
CONTINUOUS
0
ENDTAB
0
ENDSEC
  0
ENDTAB
  0
TABLE
  2
STYLE
  5
3
330
0
100
AcDbSymbolTable
 70
     1
  0
STYLE
  5
11
330
3
100
AcDbSymbolTableRecord
100
AcDbTextStyleTableRecord
  2
STANDARD
 70
     0
 40
0.0
 41
1.0
 50
0.0
 71
     0
 42
2.5
  3
txt
  4

  0
ENDTAB
  0
TABLE
  2
VIEW
  5
6
330
0
100
AcDbSymbolTable
 70
     0
  0
ENDTAB
  0
TABLE
  2
UCS
  5
7
330
0
100
AcDbSymbolTable
 70
     0
  0
ENDTAB
  0
TABLE
  2
APPID
  5
9
330
0
100
AcDbSymbolTable
 70
     2
  0
APPID
  5
12
330
9
100
AcDbSymbolTableRecord
100
AcDbRegAppTableRecord
  2
ACAD
 70
     0
  0
ENDTAB
  0
TABLE
  2
DIMSTYLE
  5
A
330
0
100
AcDbSymbolTable
 70
     1
  0
DIMSTYLE
105
27
330
A
100
AcDbSymbolTableRecord
100
AcDbDimStyleTableRecord
  2
ISO-25
 70
     0
  3

  4

  5

  6

  7

 40
1.0
 41
2.5
 42
0.625
 43
3.75
 44
1.25
 45
0.0
 46
0.0
 47
0.0
 48
0.0
140
2.5
141
2.5
142
0.0
143
0.03937007874016
144
1.0
145
0.0
146
1.0
147
0.625
 71
     0
 72
     0
 73
     0
 74
     0
 75
     0
 76
     0
 77
     1
 78
     8
170
     0
171
     3
172
     1
173
     0
174
     0
175
     0
176
     0
177
     0
178
     0
270
     2
271
     2
272
     2
273
     2
274
     3
340
11
275
     0
280
     0
281
     0
282
     0
283
     0
284
     8
285
     0
286
     0
287
     3
288
     0
  0
ENDTAB
  0
TABLE
  2
BLOCK_RECORD
  5
1
330
0
100
AcDbSymbolTable
 70
     1
  0
BLOCK_RECORD
  5
1F
330
1
100
AcDbSymbolTableRecord
100
AcDbBlockTableRecord
  2
*MODEL_SPACE
  0
BLOCK_RECORD
  5
1B
330
1
100
AcDbSymbolTableRecord
100
AcDbBlockTableRecord
  2
*PAPER_SPACE
  0
ENDTAB
  0
ENDSEC
  0
SECTION
  2
BLOCKS
  0
BLOCK
  5
20
330
1F
100
AcDbEntity
  8
0
100
AcDbBlockBegin
  2
*MODEL_SPACE
 70
     0
 10
0.0
 20
0.0
 30
0.0
  3
*MODEL_SPACE
  1

  0
ENDBLK
  5
21
330
1F
100
AcDbEntity
  8
0
100
AcDbBlockEnd
  0
BLOCK
  5
1C
330
1B
100
AcDbEntity
 67
     1
  8
0
100
AcDbBlockBegin
  2
*PAPER_SPACE
  1

  0
ENDBLK
  5
1D
330
1B
100
AcDbEntity
 67
     1
  8
0
100
AcDbBlockEnd
  0
ENDSEC
  0
SECTION
  2
ENTITIES
0
DIMENSION
5
83
100
AcDbEntity
62
256
370
-1
6
ByLayer
1
total_width
3
Standard
70
0
71
5
72
1
41
1.0
100
AcDbAlignedDimension
13
2.479737
23
0.000000
33
0.0
14
39.853597
24
0.000000
34
0.0
50
0.000000
100
AcDbRotatedDimension
0
DIMENSION
5
83
100
AcDbEntity
62
256
370
-1
6
ByLayer
1
total_minx
3
Standard
70
0
71
5
72
1
41
1.0
100
AcDbAlignedDimension
13
2.479737
23
0.000000
33
0.0
14
0.000000
24
0.000000
34
0.0
50
0.000000
100
AcDbRotatedDimension
0
DIMENSION
5
83
100
AcDbEntity
62
256
370
-1
6
ByLayer
1
total_maxx
3
Standard
70
0
71
5
72
1
41
1.0
100
AcDbAlignedDimension
13
0.000000
23
0.000000
33
0.0
14
39.853597
24
0.000000
34
0.0
50
0.000000
100
AcDbRotatedDimension
0
DIMENSION
5
83
100
AcDbEntity
62
256
370
-1
6
ByLayer
1
total_height
3
Standard
70
0
71
5
72
1
41
1.0
100
AcDbAlignedDimension
13
0.000000
23
2.443651
33
0.0
14
0.000000
24
39.853523
34
0.0
50
90.000000
100
AcDbRotatedDimension
0
DIMENSION
5
83
100
AcDbEntity
62
256
370
-1
6
ByLayer
1
total_miny
3
Standard
70
0
71
5
72
1
41
1.0
100
AcDbAlignedDimension
13
2.443651
23
0.000000
33
0.0
14
0.000000
24
0.000000
34
0.0
50
0.000000
100
AcDbRotatedDimension
0
DIMENSION
5
83
100
AcDbEntity
62
256
370
-1
6
ByLayer
1
total_maxy
3
Standard
70
0
71
5
72
1
41
1.0
100
AcDbAlignedDimension
13
0.000000
23
0.000000
33
0.0
14
39.853523
24
0.000000
34
0.0
50
0.000000
100
AcDbRotatedDimension
0
DIMENSION
8
Layer_1
5
83
100
AcDbEntity
62
256
370
-1
6
ByLayer
1
Layer_1_width
3
Standard
70
0
71
5
72
1
41
1.0
100
AcDbAlignedDimension
13
2.479737
23
0.000000
33
0.0
14
39.853597
24
0.000000
34
0.0
50
0.000000
100
AcDbRotatedDimension
0
DIMENSION
8
Layer_1
5
83
100
AcDbEntity
62
256
370
-1
6
ByLayer
1
Layer_1_minx
3
Standard
70
0
71
5
72
1
41
1.0
100
AcDbAlignedDimension
13
2.479737
23
0.000000
33
0.0
14
0.000000
24
0.000000
34
0.0
50
0.000000
100
AcDbRotatedDimension
0
DIMENSION
8
Layer_1
5
83
100
AcDbEntity
62
256
370
-1
6
ByLayer
1
Layer_1_maxx
3
Standard
70
0
71
5
72
1
41
1.0
100
AcDbAlignedDimension
13
0.000000
23
0.000000
33
0.0
14
39.853597
24
0.000000
34
0.0
50
0.000000
100
AcDbRotatedDimension
0
DIMENSION
8
Layer_1
5
83
100
AcDbEntity
62
256
370
-1
6
ByLayer
1
Layer_1_height
3
Standard
70
0
71
5
72
1
41
1.0
100
AcDbAlignedDimension
13
0.000000
23
2.443651
33
0.0
14
0.000000
24
39.853523
34
0.0
50
90.000000
100
AcDbRotatedDimension
0
DIMENSION
8
Layer_1
5
83
100
AcDbEntity
62
256
370
-1
6
ByLayer
1
Layer_1_miny
3
Standard
70
0
71
5
72
1
41
1.0
100
AcDbAlignedDimension
13
2.443651
23
0.000000
33
0.0
14
0.000000
24
0.000000
34
0.0
50
0.000000
100
AcDbRotatedDimension
0
DIMENSION
8
Layer_1
5
83
100
AcDbEntity
62
256
370
-1
6
ByLayer
1
Layer_1_maxy
3
Standard
70
0
71
5
72
1
41
1.0
100
AcDbAlignedDimension
13
0.000000
23
0.000000
33
0.0
14
39.853523
24
0.000000
34
0.0
50
0.000000
100
AcDbRotatedDimension
62
0
0
LWPOLYLINE
100
AcDbPolyline
8
Layer_1
90
24
70
0
10
18.796334
20
2.563884
30
0.0
10
17.347468
20
2.828022
30
0.0
10
16.613434
20
3.155744
30
0.0
10
16.445559
20
3.863401
30
0.0
10
16.373211
20
5.042360
30
0.0
10
16.460481
20
6.312152
30
0.0
10
16.649925
20
6.437039
30
0.0
10
17.003889
20
6.362864
30
0.0
10
18.460046
20
6.138152
30
0.0
10
20.603502
20
6.019322
30
0.0
10
22.763956
20
6.024131
30
0.0
10
24.271111
20
6.170337
30
0.0
10
25.541111
20
6.466016
30
0.0
10
26.881272
20
5.149006
30
0.0
10
27.710756
20
4.280751
30
0.0
10
27.882256
20
3.991454
30
0.0
10
27.875461
20
3.766224
30
0.0
10
27.278587
20
3.410503
30
0.0
10
25.823333
20
3.018666
30
0.0
10
24.094050
20
2.672071
30
0.0
10
22.335865
20
2.480056
30
0.0
10
20.564665
20
2.443651
30
0.0
10
18.796334
20
2.563884
30
0.0
10
18.796334
20
2.563884
30
0.0
62
0
0
LWPOLYLINE
100
AcDbPolyline
8
Layer_1
90
23
70
0
10
11.539290
20
5.073983
30
0.0
10
9.932642
20
6.186674
30
0.0
10
8.309425
20
7.566224
30
0.0
10
6.854943
20
9.040788
30
0.0
10
5.754504
20
10.438522
30
0.0
10
5.017546
20
11.552143
30
0.0
10
5.884776
20
12.647109
30
0.0
10
6.742101
20
13.682760
30
0.0
10
7.272400
20
14.121309
30
0.0
10
7.629903
20
14.021626
30
0.0
10
7.968842
20
13.442577
30
0.0
10
8.756011
20
12.255539
30
0.0
10
10.006551
20
10.808623
30
0.0
10
11.407560
20
9.434706
30
0.0
10
12.646137
20
8.466667
30
0.0
10
13.299084
20
8.029322
30
0.0
10
13.647402
20
7.606104
30
0.0
10
13.802550
20
6.960369
30
0.0
10
13.875984
20
5.855476
30
0.0
10
13.866720
20
4.473552
30
0.0
10
13.687778
20
3.952017
30
0.0
10
11.539290
20
5.073983
30
0.0
10
11.539290
20
5.073983
30
0.0
62
0
0
LWPOLYLINE
100
AcDbPolyline
8
Layer_1
90
22
70
0
10
29.249508
20
6.259209
30
0.0
10
27.877904
20
7.434772
30
0.0
10
28.876983
20
7.947333
30
0.0
10
30.104655
20
8.777690
30
0.0
10
31.553390
20
10.033387
30
0.0
10
32.911342
20
11.420758
30
0.0
10
33.866667
20
12.646138
30
0.0
10
34.304011
20
13.299084
30
0.0
10
34.727230
20
13.647403
30
0.0
10
35.372964
20
13.802551
30
0.0
10
36.477857
20
13.875983
30
0.0
10
37.831982
20
13.865904
30
0.0
10
38.382857
20
13.704195
30
0.0
10
38.003013
20
12.793634
30
0.0
10
37.072317
20
11.277405
30
0.0
10
35.900849
20
9.623154
30
0.0
10
34.798686
20
8.298533
30
0.0
10
32.451960
20
6.183690
30
0.0
10
31.395011
20
5.393352
30
0.0
10
30.790433
20
5.081823
30
0.0
10
29.249508
20
6.259209
30
0.0
10
29.249508
20
6.259209
30
0.0
62
0
0
LWPOLYLINE
100
AcDbPolyline
8
Layer_1
90
18
70
0
10
19.473333
20
8.366506
30
0.0
10
17.136063
20
8.981575
30
0.0
10
16.744773
20
9.337883
30
0.0
10
16.651111
20
9.842046
30
0.0
10
16.951671
20
11.517986
30
0.0
10
17.708055
20
13.716029
30
0.0
10
18.702322
20
15.891687
30
0.0
10
19.716532
20
17.500471
30
0.0
10
20.301221
20
18.203333
30
0.0
10
20.310611
20
17.456950
30
0.0
10
20.512247
20
16.184555
30
0.0
10
21.028063
20
14.453713
30
0.0
10
21.760201
20
12.549465
30
0.0
10
22.610806
20
10.756852
30
0.0
10
23.622139
20
8.570287
30
0.0
10
21.748555
20
8.346224
30
0.0
10
19.473333
20
8.366506
30
0.0
10
19.473333
20
8.366506
30
0.0
62
0
0
LWPOLYLINE
100
AcDbPolyline
8
Layer_1
90
17
70
0
10
25.443163
20
10.660874
30
0.0
10
24.024656
20
13.348285
30
0.0
10
23.005318
20
16.352654
30
0.0
10
22.577778
20
18.157292
30
0.0
10
24.054482
20
17.339474
30
0.0
10
25.568668
20
16.468364
30
0.0
10
27.359888
20
15.621120
30
0.0
10
29.123204
20
14.929739
30
0.0
10
30.553674
20
14.526216
30
0.0
10
31.349415
20
14.312597
30
0.0
10
31.772036
20
14.075458
30
0.0
10
31.384633
20
13.361963
30
0.0
10
30.203708
20
12.110930
30
0.0
10
28.728511
20
10.803293
30
0.0
10
27.458295
20
9.919987
30
0.0
10
26.296541
20
9.327306
30
0.0
10
25.443163
20
10.660874
30
0.0
62
0
0
LWPOLYLINE
100
AcDbPolyline
8
Layer_1
90
20
70
0
10
12.167120
20
12.058836
30
0.0
10
10.825455
20
13.566811
30
0.0
10
9.923018
20
14.869100
30
0.0
10
9.333365
20
16.024916
30
0.0
10
10.387992
20
16.722835
30
0.0
10
12.020086
20
17.688162
30
0.0
10
13.761132
20
18.502143
30
0.0
10
15.574990
20
19.149916
30
0.0
10
17.425521
20
19.616623
30
0.0
10
18.341042
20
19.799656
30
0.0
10
17.353995
20
18.300902
30
0.0
10
16.475476
20
16.776214
30
0.0
10
15.624155
20
14.980051
30
0.0
10
14.930810
20
13.214003
30
0.0
10
14.526216
20
11.779659
30
0.0
10
14.312597
20
10.983918
30
0.0
10
14.075458
20
10.561297
30
0.0
10
13.410154
20
10.936474
30
0.0
10
12.167120
20
12.058836
30
0.0
10
12.167120
20
12.058836
30
0.0
62
0
0
LWPOLYLINE
100
AcDbPolyline
8
Layer_1
90
19
70
0
10
3.255407
20
15.549398
30
0.0
10
2.688281
20
18.438302
30
0.0
10
2.479737
20
21.640442
30
0.0
10
2.636869
20
24.341388
30
0.0
10
2.854780
20
25.249405
30
0.0
10
3.166769
20
25.726713
30
0.0
10
3.866640
20
25.889776
30
0.0
10
5.042360
20
25.960123
30
0.0
10
6.312151
20
25.872852
30
0.0
10
6.437038
20
25.683408
30
0.0
10
6.362864
20
25.329444
30
0.0
10
6.137798
20
23.871596
30
0.0
10
6.019340
20
21.727897
30
0.0
10
6.025042
20
19.568167
30
0.0
10
6.172452
20
18.062222
30
0.0
10
6.470247
20
16.792222
30
0.0
10
5.093384
20
15.408287
30
0.0
10
3.716521
20
14.024350
30
0.0
10
3.255407
20
15.549398
30
0.0
62
0
0
LWPOLYLINE
100
AcDbPolyline
8
Layer_1
90
20
70
0
10
35.970470
20
17.003889
30
0.0
10
36.195536
20
18.461737
30
0.0
10
36.313994
20
20.605436
30
0.0
10
36.308292
20
22.765167
30
0.0
10
36.160882
20
24.271111
30
0.0
10
35.863087
20
25.541111
30
0.0
10
37.239950
20
26.925046
30
0.0
10
38.616814
20
28.308982
30
0.0
10
39.077928
20
26.783935
30
0.0
10
39.645053
20
23.895031
30
0.0
10
39.853597
20
20.692892
30
0.0
10
39.696465
20
17.991945
30
0.0
10
39.478555
20
17.083928
30
0.0
10
39.166566
20
16.606620
30
0.0
10
38.466693
20
16.443557
30
0.0
10
37.290973
20
16.373211
30
0.0
10
36.021182
20
16.460481
30
0.0
10
35.896295
20
16.649925
30
0.0
10
35.970470
20
17.003889
30
0.0
10
35.970470
20
17.003889
30
0.0
62
0
0
LWPOLYLINE
100
AcDbPolyline
8
Layer_1
90
22
70
0
10
29.617506
20
17.325822
30
0.0
10
26.486674
20
18.678579
30
0.0
10
25.231596
20
19.385854
30
0.0
10
24.513910
20
19.944169
30
0.0
10
24.411184
20
20.243096
30
0.0
10
24.912382
20
20.320000
30
0.0
10
26.157191
20
20.513907
30
0.0
10
27.879587
20
21.027987
30
0.0
10
29.784406
20
21.760774
30
0.0
10
31.576481
20
22.610806
30
0.0
10
33.098371
20
23.347432
30
0.0
10
33.830545
20
23.554639
30
0.0
10
33.973817
20
22.712329
30
0.0
10
33.971455
20
21.056952
30
0.0
10
33.846645
20
19.224398
30
0.0
10
33.622573
20
17.850556
30
0.0
10
33.191892
20
16.842000
30
0.0
10
32.874942
20
16.691817
30
0.0
10
32.374123
20
16.667667
30
0.0
10
31.190499
20
16.867830
30
0.0
10
29.617506
20
17.325822
30
0.0
10
29.617506
20
17.325822
30
0.0
62
0
0
LWPOLYLINE
100
AcDbPolyline
8
Layer_1
90
19
70
0
10
8.336774
20
19.920229
30
0.0
10
8.297471
20
22.017817
30
0.0
10
8.782490
20
24.623889
30
0.0
10
9.145686
20
25.492875
30
0.0
10
9.423974
20
25.644290
30
0.0
10
9.842045
20
25.682222
30
0.0
10
11.517985
20
25.381663
30
0.0
10
13.716029
20
24.625279
30
0.0
10
15.891687
20
23.631011
30
0.0
10
17.500471
20
22.616801
30
0.0
10
18.203333
20
22.032112
30
0.0
10
17.456950
20
22.022723
30
0.0
10
16.186584
20
21.821416
30
0.0
10
14.457925
20
21.306859
30
0.0
10
12.557873
20
20.577406
30
0.0
10
10.773330
20
19.731416
30
0.0
10
8.618152
20
18.626667
30
0.0
10
8.336774
20
19.920229
30
0.0
10
8.336774
20
19.920229
30
0.0
62
0
0
LWPOLYLINE
100
AcDbPolyline
8
Layer_1
90
18
70
0
10
24.993860
20
24.054482
30
0.0
10
25.864969
20
25.568667
30
0.0
10
26.712213
20
27.359888
30
0.0
10
27.403595
20
29.123203
30
0.0
10
27.807117
20
30.553673
30
0.0
10
28.020736
20
31.349415
30
0.0
10
28.257875
20
31.772035
30
0.0
10
28.971370
20
31.384633
30
0.0
10
30.222403
20
30.203708
30
0.0
10
31.530040
20
28.728511
30
0.0
10
32.413346
20
27.458295
30
0.0
10
33.006027
20
26.296541
30
0.0
10
31.672459
20
25.443163
30
0.0
10
28.985048
20
24.024656
30
0.0
10
25.980679
20
23.005318
30
0.0
10
24.176041
20
22.577778
30
0.0
10
24.993860
20
24.054482
30
0.0
10
24.993860
20
24.054482
30
0.0
62
0
0
LWPOLYLINE
100
AcDbPolyline
8
Layer_1
90
19
70
0
10
19.210192
20
24.389232
30
0.0
10
18.130485
20
25.117006
30
0.0
10
16.145502
20
26.131796
30
0.0
10
13.959484
20
27.098965
30
0.0
10
12.276667
20
27.683875
30
0.0
10
10.614378
20
28.243660
30
0.0
10
10.638909
20
28.484337
30
0.0
10
10.933881
20
28.927774
30
0.0
10
12.084579
20
30.177714
30
0.0
10
13.565343
20
31.503048
30
0.0
10
14.875038
20
32.413345
30
0.0
10
16.036792
20
33.006027
30
0.0
10
16.890170
20
31.672458
30
0.0
10
18.314246
20
28.971216
30
0.0
10
19.343832
20
25.919641
30
0.0
10
19.664534
20
24.222027
30
0.0
10
19.535506
20
24.086986
30
0.0
10
19.210192
20
24.389232
30
0.0
10
19.210192
20
24.389232
30
0.0
62
0
0
LWPOLYLINE
100
AcDbPolyline
8
Layer_1
90
20
70
0
10
22.022723
20
24.876383
30
0.0
10
21.821086
20
26.148778
30
0.0
10
21.305271
20
27.879619
30
0.0
10
20.573132
20
29.783868
30
0.0
10
19.722528
20
31.576482
30
0.0
10
18.985901
20
33.098371
30
0.0
10
18.778694
20
33.830546
30
0.0
10
19.621005
20
33.973816
30
0.0
10
21.276381
20
33.971454
30
0.0
10
23.108935
20
33.846645
30
0.0
10
24.482778
20
33.622572
30
0.0
10
25.473846
20
33.202798
30
0.0
10
25.641564
20
32.915867
30
0.0
10
25.682222
20
32.491288
30
0.0
10
25.381663
20
30.815348
30
0.0
10
24.625279
20
28.617305
30
0.0
10
23.631011
20
26.441646
30
0.0
10
22.616801
20
24.832862
30
0.0
10
22.032112
20
24.130000
30
0.0
10
22.022723
20
24.876383
30
0.0
62
0
0
LWPOLYLINE
100
AcDbPolyline
8
Layer_1
90
23
70
0
10
34.364490
20
28.890757
30
0.0
10
33.577323
20
30.077794
30
0.0
10
32.326783
20
31.524711
30
0.0
10
30.925773
20
32.898628
30
0.0
10
29.687195
20
33.866667
30
0.0
10
29.034249
20
34.304012
30
0.0
10
28.685930
20
34.727230
30
0.0
10
28.530783
20
35.372965
30
0.0
10
28.457350
20
36.477858
30
0.0
10
28.466407
20
37.870037
30
0.0
10
28.651976
20
38.382858
30
0.0
10
30.721091
20
37.328942
30
0.0
10
32.311447
20
36.228799
30
0.0
10
33.962625
20
34.823019
30
0.0
10
35.455407
20
33.314784
30
0.0
10
36.570579
20
31.907279
30
0.0
10
37.315786
20
30.781192
30
0.0
10
36.448557
20
29.686225
30
0.0
10
35.591232
20
28.650574
30
0.0
10
35.060934
20
28.212024
30
0.0
10
34.703430
20
28.311708
30
0.0
10
34.364490
20
28.890757
30
0.0
10
34.364490
20
28.890757
30
0.0
62
0
0
LWPOLYLINE
100
AcDbPolyline
8
Layer_1
90
23
70
0
10
3.950475
20
28.629140
30
0.0
10
5.065252
20
30.770323
30
0.0
10
6.172537
20
32.379796
30
0.0
10
7.552548
20
34.009087
30
0.0
10
9.032229
20
35.471122
30
0.0
10
10.438523
20
36.578829
30
0.0
10
11.552142
20
37.315787
30
0.0
10
12.647108
20
36.448557
30
0.0
10
13.682760
20
35.591232
30
0.0
10
14.121309
20
35.060934
30
0.0
10
14.021625
20
34.703430
30
0.0
10
13.442577
20
34.364491
30
0.0
10
12.255539
20
33.577323
30
0.0
10
10.808623
20
32.326783
30
0.0
10
9.434706
20
30.925773
30
0.0
10
8.466667
20
29.687196
30
0.0
10
8.029321
20
29.034250
30
0.0
10
7.606103
20
28.685931
30
0.0
10
6.960369
20
28.530783
30
0.0
10
5.855475
20
28.457349
30
0.0
10
4.501352
20
28.467435
30
0.0
10
3.950475
20
28.629140
30
0.0
10
3.950475
20
28.629140
30
0.0
62
0
0
LWPOLYLINE
100
AcDbPolyline
8
Layer_1
90
19
70
0
10
15.387338
20
37.247011
30
0.0
10
14.035015
20
38.619979
30
0.0
10
15.554730
20
39.079510
30
0.0
10
18.440736
20
39.645651
30
0.0
10
21.641405
20
39.853523
30
0.0
10
24.341732
20
39.696153
30
0.0
10
25.249578
20
39.478322
30
0.0
10
25.726713
20
39.166564
30
0.0
10
25.889776
20
38.472606
30
0.0
10
25.960123
20
37.311101
30
0.0
10
25.964444
20
35.816646
30
0.0
10
24.906111
20
36.041101
30
0.0
10
21.216459
20
36.259038
30
0.0
10
19.070434
20
36.216628
30
0.0
10
17.612608
20
36.069799
30
0.0
10
17.105358
20
36.006794
30
0.0
10
16.661014
20
36.131411
30
0.0
10
15.387338
20
37.247011
30
0.0
10
15.387338
20
37.247011
30
0.0
  0
ENDSEC
  0
SECTION
  2
OBJECTS
  0
DICTIONARY
  5
C
330
0
100
AcDbDictionary
  3
ACAD_GROUP
350
D
  3
ACAD_MLINESTYLE
350
17
  0
DICTIONARY
  5
D
330
C
100
AcDbDictionary
  0
DICTIONARY
  5
1A
330
C
100
AcDbDictionary
  0
DICTIONARY
  5
17
330
C
100
AcDbDictionary
  3
STANDARD
350
18
  0
DICTIONARY
  5
19
330
C
100
AcDbDictionary
  0
ENDSEC
  0
EOF
