999
Inkscape export via OpenSCAD DXF Export
  0
SECTION
  2
HEADER
  9
$ACADVER
  1
AC1014
  9
$HANDSEED
  5
FFFF
  9
$MEASUREMENT
 70
     1
  0
ENDSEC
  0
SECTION
  2
TABLES
  0
TABLE
  2
VPORT
  5
8
330
0
100
AcDbSymbolTable
 70
     4
  0
VPORT
  5
2E
330
8
100
AcDbSymbolTableRecord
100
AcDbViewportTableRecord
  2
*ACTIVE
 70
     0
 10
0.0
 20
0.0
 11
1.0
 21
1.0
 12
210.0
 22
148.5
 13
0.0
 23
0.0
 14
10.0
 24
10.0
 15
10.0
 25
10.0
 16
0.0
 26
0.0
 36
1.0
 17
0.0
 27
0.0
 37
0.0
 40
341.0
 41
1.24
 42
50.0
 43
0.0
 44
0.0
 50
0.0
 51
0.0
 71
     0
 72
   100
 73
     1
 74
     3
 75
     0
 76
     0
 77
     0
 78
     0
  0
ENDTAB
  0
TABLE
  2
LTYPE
  5
5
330
0
100
AcDbSymbolTable
 70
     1
  0
LTYPE
  5
14
330
5
100
AcDbSymbolTableRecord
100
AcDbLinetypeTableRecord
  2
BYBLOCK
 70
     0
  3

 72
    65
 73
     0
 40
0.0
  0
LTYPE
  5
15
330
5
100
AcDbSymbolTableRecord
100
AcDbLinetypeTableRecord
  2
BYLAYER
 70
     0
  3

 72
    65
 73
     0
 40
0.0
  0
LTYPE
  5
16
330
5
100
AcDbSymbolTableRecord
100
AcDbLinetypeTableRecord
  2
CONTINUOUS
 70
     0
  3
Solid line
 72
    65
 73
     0
 40
0.0
  0
ENDTAB
  0
TABLE
0
TABLE
2
LAYER
5
2
330
0
100
AcDbSymbolTable
70
1
0
LAYER
5
10
330
2
100
AcDbSymbolTableRecord
100
AcDbLayerTableRecord
2
Layer_1
70
0
62
7
6
CONTINUOUS
0
ENDTAB
0
ENDSEC
  0
ENDTAB
  0
TABLE
  2
STYLE
  5
3
330
0
100
AcDbSymbolTable
 70
     1
  0
STYLE
  5
11
330
3
100
AcDbSymbolTableRecord
100
AcDbTextStyleTableRecord
  2
STANDARD
 70
     0
 40
0.0
 41
1.0
 50
0.0
 71
     0
 42
2.5
  3
txt
  4

  0
ENDTAB
  0
TABLE
  2
VIEW
  5
6
330
0
100
AcDbSymbolTable
 70
     0
  0
ENDTAB
  0
TABLE
  2
UCS
  5
7
330
0
100
AcDbSymbolTable
 70
     0
  0
ENDTAB
  0
TABLE
  2
APPID
  5
9
330
0
100
AcDbSymbolTable
 70
     2
  0
APPID
  5
12
330
9
100
AcDbSymbolTableRecord
100
AcDbRegAppTableRecord
  2
ACAD
 70
     0
  0
ENDTAB
  0
TABLE
  2
DIMSTYLE
  5
A
330
0
100
AcDbSymbolTable
 70
     1
  0
DIMSTYLE
105
27
330
A
100
AcDbSymbolTableRecord
100
AcDbDimStyleTableRecord
  2
ISO-25
 70
     0
  3

  4

  5

  6

  7

 40
1.0
 41
2.5
 42
0.625
 43
3.75
 44
1.25
 45
0.0
 46
0.0
 47
0.0
 48
0.0
140
2.5
141
2.5
142
0.0
143
0.03937007874016
144
1.0
145
0.0
146
1.0
147
0.625
 71
     0
 72
     0
 73
     0
 74
     0
 75
     0
 76
     0
 77
     1
 78
     8
170
     0
171
     3
172
     1
173
     0
174
     0
175
     0
176
     0
177
     0
178
     0
270
     2
271
     2
272
     2
273
     2
274
     3
340
11
275
     0
280
     0
281
     0
282
     0
283
     0
284
     8
285
     0
286
     0
287
     3
288
     0
  0
ENDTAB
  0
TABLE
  2
BLOCK_RECORD
  5
1
330
0
100
AcDbSymbolTable
 70
     1
  0
BLOCK_RECORD
  5
1F
330
1
100
AcDbSymbolTableRecord
100
AcDbBlockTableRecord
  2
*MODEL_SPACE
  0
BLOCK_RECORD
  5
1B
330
1
100
AcDbSymbolTableRecord
100
AcDbBlockTableRecord
  2
*PAPER_SPACE
  0
ENDTAB
  0
ENDSEC
  0
SECTION
  2
BLOCKS
  0
BLOCK
  5
20
330
1F
100
AcDbEntity
  8
0
100
AcDbBlockBegin
  2
*MODEL_SPACE
 70
     0
 10
0.0
 20
0.0
 30
0.0
  3
*MODEL_SPACE
  1

  0
ENDBLK
  5
21
330
1F
100
AcDbEntity
  8
0
100
AcDbBlockEnd
  0
BLOCK
  5
1C
330
1B
100
AcDbEntity
 67
     1
  8
0
100
AcDbBlockBegin
  2
*PAPER_SPACE
  1

  0
ENDBLK
  5
1D
330
1B
100
AcDbEntity
 67
     1
  8
0
100
AcDbBlockEnd
  0
ENDSEC
  0
SECTION
  2
ENTITIES
0
DIMENSION
5
83
100
AcDbEntity
62
256
370
-1
6
ByLayer
1
total_width
3
Standard
70
0
71
5
72
1
41
1.0
100
AcDbAlignedDimension
13
2.257778
23
0.000000
33
0.0
14
40.075556
24
0.000000
34
0.0
50
0.000000
100
AcDbRotatedDimension
0
DIMENSION
5
83
100
AcDbEntity
62
256
370
-1
6
ByLayer
1
total_minx
3
Standard
70
0
71
5
72
1
41
1.0
100
AcDbAlignedDimension
13
2.257778
23
0.000000
33
0.0
14
0.000000
24
0.000000
34
0.0
50
0.000000
100
AcDbRotatedDimension
0
DIMENSION
5
83
100
AcDbEntity
62
256
370
-1
6
ByLayer
1
total_maxx
3
Standard
70
0
71
5
72
1
41
1.0
100
AcDbAlignedDimension
13
0.000000
23
0.000000
33
0.0
14
40.075556
24
0.000000
34
0.0
50
0.000000
100
AcDbRotatedDimension
0
DIMENSION
5
83
100
AcDbEntity
62
256
370
-1
6
ByLayer
1
total_height
3
Standard
70
0
71
5
72
1
41
1.0
100
AcDbAlignedDimension
13
0.000000
23
8.672167
33
0.0
14
0.000000
24
33.794259
34
0.0
50
90.000000
100
AcDbRotatedDimension
0
DIMENSION
5
83
100
AcDbEntity
62
256
370
-1
6
ByLayer
1
total_miny
3
Standard
70
0
71
5
72
1
41
1.0
100
AcDbAlignedDimension
13
8.672167
23
0.000000
33
0.0
14
0.000000
24
0.000000
34
0.0
50
0.000000
100
AcDbRotatedDimension
0
DIMENSION
5
83
100
AcDbEntity
62
256
370
-1
6
ByLayer
1
total_maxy
3
Standard
70
0
71
5
72
1
41
1.0
100
AcDbAlignedDimension
13
0.000000
23
0.000000
33
0.0
14
33.794259
24
0.000000
34
0.0
50
0.000000
100
AcDbRotatedDimension
0
DIMENSION
8
Layer_1
5
83
100
AcDbEntity
62
256
370
-1
6
ByLayer
1
Layer_1_width
3
Standard
70
0
71
5
72
1
41
1.0
100
AcDbAlignedDimension
13
2.257778
23
0.000000
33
0.0
14
40.075556
24
0.000000
34
0.0
50
0.000000
100
AcDbRotatedDimension
0
DIMENSION
8
Layer_1
5
83
100
AcDbEntity
62
256
370
-1
6
ByLayer
1
Layer_1_minx
3
Standard
70
0
71
5
72
1
41
1.0
100
AcDbAlignedDimension
13
2.257778
23
0.000000
33
0.0
14
0.000000
24
0.000000
34
0.0
50
0.000000
100
AcDbRotatedDimension
0
DIMENSION
8
Layer_1
5
83
100
AcDbEntity
62
256
370
-1
6
ByLayer
1
Layer_1_maxx
3
Standard
70
0
71
5
72
1
41
1.0
100
AcDbAlignedDimension
13
0.000000
23
0.000000
33
0.0
14
40.075556
24
0.000000
34
0.0
50
0.000000
100
AcDbRotatedDimension
0
DIMENSION
8
Layer_1
5
83
100
AcDbEntity
62
256
370
-1
6
ByLayer
1
Layer_1_height
3
Standard
70
0
71
5
72
1
41
1.0
100
AcDbAlignedDimension
13
0.000000
23
8.672167
33
0.0
14
0.000000
24
33.794259
34
0.0
50
90.000000
100
AcDbRotatedDimension
0
DIMENSION
8
Layer_1
5
83
100
AcDbEntity
62
256
370
-1
6
ByLayer
1
Layer_1_miny
3
Standard
70
0
71
5
72
1
41
1.0
100
AcDbAlignedDimension
13
8.672167
23
0.000000
33
0.0
14
0.000000
24
0.000000
34
0.0
50
0.000000
100
AcDbRotatedDimension
0
DIMENSION
8
Layer_1
5
83
100
AcDbEntity
62
256
370
-1
6
ByLayer
1
Layer_1_maxy
3
Standard
70
0
71
5
72
1
41
1.0
100
AcDbAlignedDimension
13
0.000000
23
0.000000
33
0.0
14
33.794259
24
0.000000
34
0.0
50
0.000000
100
AcDbRotatedDimension
62
0
0
LWPOLYLINE
100
AcDbPolyline
8
Layer_1
90
179
70
0
10
16.933333
20
9.326409
30
0.0
10
15.330323
20
10.046345
30
0.0
10
13.785787
20
11.007418
30
0.0
10
12.413743
20
12.128241
30
0.0
10
11.328209
20
13.327428
30
0.0
10
10.147448
20
14.675556
30
0.0
10
9.578304
20
13.937765
30
0.0
10
9.082437
20
13.246199
30
0.0
10
8.320088
20
12.464813
30
0.0
10
6.314562
20
10.856942
30
0.0
10
4.198971
20
9.562875
30
0.0
10
3.299038
20
9.173743
30
0.0
10
2.610556
20
9.031334
30
0.0
10
2.453165
20
9.130581
30
0.0
10
2.343261
20
9.434955
30
0.0
10
2.257778
20
10.697504
30
0.0
10
2.257778
20
12.363896
30
0.0
10
3.756247
20
13.209580
30
0.0
10
5.502379
20
14.472187
30
0.0
10
6.856172
20
16.023567
30
0.0
10
7.805664
20
17.790818
30
0.0
10
8.338897
20
19.701033
30
0.0
10
8.443908
20
21.681308
30
0.0
10
8.108740
20
23.658740
30
0.0
10
7.321430
20
25.560422
30
0.0
10
6.070020
20
27.313450
30
0.0
10
4.817916
20
28.486089
30
0.0
10
3.545190
20
29.372727
30
0.0
10
2.257778
20
30.055698
30
0.0
10
2.257778
20
31.678960
30
0.0
10
2.332798
20
32.806104
30
0.0
10
2.463268
20
33.118594
30
0.0
10
2.688326
20
33.272659
30
0.0
10
3.520059
20
33.132408
30
0.0
10
5.023698
20
32.439137
30
0.0
10
6.764628
20
31.311914
30
0.0
10
8.533336
20
29.650839
30
0.0
10
10.315789
20
27.725625
30
0.0
10
11.096050
20
28.811110
30
0.0
10
12.477836
20
30.324989
30
0.0
10
14.266801
20
31.710316
30
0.0
10
16.211935
20
32.800669
30
0.0
10
18.062222
20
33.429630
30
0.0
10
19.557965
20
33.770111
30
0.0
10
19.827247
20
33.794259
30
0.0
10
19.969198
20
33.603352
30
0.0
10
19.981299
20
32.156314
30
0.0
10
19.896667
20
30.398990
30
0.0
10
18.707393
20
30.048939
30
0.0
10
17.440060
20
29.569035
30
0.0
10
16.197599
20
28.906621
30
0.0
10
15.092730
20
28.130766
30
0.0
10
14.238175
20
27.310535
30
0.0
10
13.509620
20
26.272831
30
0.0
10
12.833226
20
25.022628
30
0.0
10
12.334340
20
23.821384
30
0.0
10
12.138313
20
22.930556
30
0.0
10
12.188167
20
22.574383
30
0.0
10
12.473508
20
22.384653
30
0.0
10
14.541430
20
22.295556
30
0.0
10
16.619481
20
22.391972
30
0.0
10
16.997085
20
22.582618
30
0.0
10
17.194138
20
22.930556
30
0.0
10
17.523821
20
23.559702
30
0.0
10
17.984427
20
24.120137
30
0.0
10
19.204727
20
24.988664
30
0.0
10
20.667686
20
25.443722
30
0.0
10
22.185952
20
25.392894
30
0.0
10
23.062420
20
25.043120
30
0.0
10
23.934098
20
24.443338
30
0.0
10
24.670014
20
23.702749
30
0.0
10
25.139196
20
22.930556
30
0.0
10
25.336248
20
22.582618
30
0.0
10
25.713852
20
22.391972
30
0.0
10
27.791904
20
22.295556
30
0.0
10
29.859822
20
22.384652
30
0.0
10
30.145162
20
22.574383
30
0.0
10
30.195020
20
22.930556
30
0.0
10
29.998993
20
23.821384
30
0.0
10
29.500108
20
25.022628
30
0.0
10
28.823713
20
26.272831
30
0.0
10
28.095158
20
27.310535
30
0.0
10
27.240604
20
28.130766
30
0.0
10
26.135735
20
28.906621
30
0.0
10
24.893273
20
29.569035
30
0.0
10
23.625940
20
30.048939
30
0.0
10
22.436667
20
30.398990
30
0.0
10
22.352035
20
32.156314
30
0.0
10
22.364135
20
33.603352
30
0.0
10
22.506086
20
33.794259
30
0.0
10
22.775368
20
33.770111
30
0.0
10
24.271111
20
33.429630
30
0.0
10
26.121399
20
32.800669
30
0.0
10
28.066532
20
31.710316
30
0.0
10
29.855497
20
30.324989
30
0.0
10
31.237284
20
28.811110
30
0.0
10
32.017544
20
27.725625
30
0.0
10
33.799997
20
29.650839
30
0.0
10
35.568705
20
31.311914
30
0.0
10
37.309637
20
32.439137
30
0.0
10
38.813274
20
33.132408
30
0.0
10
39.645007
20
33.272659
30
0.0
10
39.870066
20
33.118594
30
0.0
10
40.000535
20
32.806104
30
0.0
10
40.075556
20
31.678960
30
0.0
10
40.075556
20
30.055698
30
0.0
10
38.788142
20
29.372727
30
0.0
10
37.468212
20
28.464703
30
0.0
10
36.220056
20
27.229003
30
0.0
10
35.163519
20
25.803987
30
0.0
10
34.418448
20
24.328016
30
0.0
10
33.961011
20
22.643654
30
0.0
10
33.934171
20
20.743333
30
0.0
10
34.344413
20
18.366509
30
0.0
10
35.256801
20
16.315653
30
0.0
10
36.668603
20
14.595199
30
0.0
10
38.577085
20
13.209580
30
0.0
10
40.075556
20
12.363896
30
0.0
10
40.075556
20
10.697504
30
0.0
10
39.990072
20
9.434955
30
0.0
10
39.880168
20
9.130581
30
0.0
10
39.722778
20
9.031334
30
0.0
10
39.021122
20
9.179896
30
0.0
10
38.103495
20
9.586828
30
0.0
10
35.936943
20
10.947090
30
0.0
10
33.856342
20
12.654696
30
0.0
10
32.494914
20
14.252222
30
0.0
10
32.301425
20
14.552131
30
0.0
10
32.132687
20
14.620749
30
0.0
10
31.556525
20
13.970000
30
0.0
10
29.903030
20
12.142324
30
0.0
10
27.882619
20
10.588561
30
0.0
10
25.708045
20
9.445486
30
0.0
10
23.592063
20
8.849874
30
0.0
10
22.295556
20
8.672167
30
0.0
10
22.295556
20
10.350508
30
0.0
10
22.295556
20
12.028847
30
0.0
10
23.686348
20
12.385297
30
0.0
10
24.902560
20
12.835746
30
0.0
10
26.159235
20
13.543081
30
0.0
10
27.339720
20
14.430948
30
0.0
10
28.327361
20
15.422994
30
0.0
10
28.998289
20
16.378171
30
0.0
10
29.594817
20
17.492612
30
0.0
10
30.023673
20
18.567189
30
0.0
10
30.191580
20
19.402778
30
0.0
10
30.144157
20
19.758758
30
0.0
10
29.863594
20
19.948511
30
0.0
10
27.826766
20
20.037778
30
0.0
10
25.455754
20
20.037778
30
0.0
10
24.874460
20
19.052558
30
0.0
10
24.144472
20
18.122978
30
0.0
10
23.245661
20
17.458992
30
0.0
10
22.234301
20
17.060600
30
0.0
10
21.166667
20
16.927803
30
0.0
10
20.099032
20
17.060600
30
0.0
10
19.087673
20
17.458992
30
0.0
10
18.188862
20
18.122978
30
0.0
10
17.458874
20
19.052558
30
0.0
10
16.877580
20
20.037778
30
0.0
10
14.506568
20
20.037778
30
0.0
10
12.469740
20
19.948511
30
0.0
10
12.189177
20
19.758758
30
0.0
10
12.141754
20
19.402778
30
0.0
10
12.309661
20
18.567189
30
0.0
10
12.738517
20
17.492612
30
0.0
10
13.335046
20
16.378171
30
0.0
10
14.005973
20
15.422994
30
0.0
10
14.993613
20
14.430948
30
0.0
10
16.174098
20
13.543081
30
0.0
10
17.430774
20
12.835746
30
0.0
10
18.646986
20
12.385297
30
0.0
10
20.037778
20
12.028847
30
0.0
10
20.037778
20
10.388868
30
0.0
10
19.934270
20
8.968965
30
0.0
10
19.703050
20
8.784050
30
0.0
10
19.261667
20
8.759071
30
0.0
10
16.933333
20
9.326409
30
0.0
10
16.933333
20
9.326409
30
0.0
  0
ENDSEC
  0
SECTION
  2
OBJECTS
  0
DICTIONARY
  5
C
330
0
100
AcDbDictionary
  3
ACAD_GROUP
350
D
  3
ACAD_MLINESTYLE
350
17
  0
DICTIONARY
  5
D
330
C
100
AcDbDictionary
  0
DICTIONARY
  5
1A
330
C
100
AcDbDictionary
  0
DICTIONARY
  5
17
330
C
100
AcDbDictionary
  3
STANDARD
350
18
  0
DICTIONARY
  5
19
330
C
100
AcDbDictionary
  0
ENDSEC
  0
EOF
