999
Inkscape export via OpenSCAD DXF Export
  0
SECTION
  2
HEADER
  9
$ACADVER
  1
AC1014
  9
$HANDSEED
  5
FFFF
  9
$MEASUREMENT
 70
     1
  0
ENDSEC
  0
SECTION
  2
TABLES
  0
TABLE
  2
VPORT
  5
8
330
0
100
AcDbSymbolTable
 70
     4
  0
VPORT
  5
2E
330
8
100
AcDbSymbolTableRecord
100
AcDbViewportTableRecord
  2
*ACTIVE
 70
     0
 10
0.0
 20
0.0
 11
1.0
 21
1.0
 12
210.0
 22
148.5
 13
0.0
 23
0.0
 14
10.0
 24
10.0
 15
10.0
 25
10.0
 16
0.0
 26
0.0
 36
1.0
 17
0.0
 27
0.0
 37
0.0
 40
341.0
 41
1.24
 42
50.0
 43
0.0
 44
0.0
 50
0.0
 51
0.0
 71
     0
 72
   100
 73
     1
 74
     3
 75
     0
 76
     0
 77
     0
 78
     0
  0
ENDTAB
  0
TABLE
  2
LTYPE
  5
5
330
0
100
AcDbSymbolTable
 70
     1
  0
LTYPE
  5
14
330
5
100
AcDbSymbolTableRecord
100
AcDbLinetypeTableRecord
  2
BYBLOCK
 70
     0
  3

 72
    65
 73
     0
 40
0.0
  0
LTYPE
  5
15
330
5
100
AcDbSymbolTableRecord
100
AcDbLinetypeTableRecord
  2
BYLAYER
 70
     0
  3

 72
    65
 73
     0
 40
0.0
  0
LTYPE
  5
16
330
5
100
AcDbSymbolTableRecord
100
AcDbLinetypeTableRecord
  2
CONTINUOUS
 70
     0
  3
Solid line
 72
    65
 73
     0
 40
0.0
  0
ENDTAB
  0
TABLE
0
TABLE
2
LAYER
5
2
330
0
100
AcDbSymbolTable
70
1
0
LAYER
5
10
330
2
100
AcDbSymbolTableRecord
100
AcDbLayerTableRecord
2
Layer_1
70
0
62
7
6
CONTINUOUS
0
ENDTAB
0
ENDSEC
  0
ENDTAB
  0
TABLE
  2
STYLE
  5
3
330
0
100
AcDbSymbolTable
 70
     1
  0
STYLE
  5
11
330
3
100
AcDbSymbolTableRecord
100
AcDbTextStyleTableRecord
  2
STANDARD
 70
     0
 40
0.0
 41
1.0
 50
0.0
 71
     0
 42
2.5
  3
txt
  4

  0
ENDTAB
  0
TABLE
  2
VIEW
  5
6
330
0
100
AcDbSymbolTable
 70
     0
  0
ENDTAB
  0
TABLE
  2
UCS
  5
7
330
0
100
AcDbSymbolTable
 70
     0
  0
ENDTAB
  0
TABLE
  2
APPID
  5
9
330
0
100
AcDbSymbolTable
 70
     2
  0
APPID
  5
12
330
9
100
AcDbSymbolTableRecord
100
AcDbRegAppTableRecord
  2
ACAD
 70
     0
  0
ENDTAB
  0
TABLE
  2
DIMSTYLE
  5
A
330
0
100
AcDbSymbolTable
 70
     1
  0
DIMSTYLE
105
27
330
A
100
AcDbSymbolTableRecord
100
AcDbDimStyleTableRecord
  2
ISO-25
 70
     0
  3

  4

  5

  6

  7

 40
1.0
 41
2.5
 42
0.625
 43
3.75
 44
1.25
 45
0.0
 46
0.0
 47
0.0
 48
0.0
140
2.5
141
2.5
142
0.0
143
0.03937007874016
144
1.0
145
0.0
146
1.0
147
0.625
 71
     0
 72
     0
 73
     0
 74
     0
 75
     0
 76
     0
 77
     1
 78
     8
170
     0
171
     3
172
     1
173
     0
174
     0
175
     0
176
     0
177
     0
178
     0
270
     2
271
     2
272
     2
273
     2
274
     3
340
11
275
     0
280
     0
281
     0
282
     0
283
     0
284
     8
285
     0
286
     0
287
     3
288
     0
  0
ENDTAB
  0
TABLE
  2
BLOCK_RECORD
  5
1
330
0
100
AcDbSymbolTable
 70
     1
  0
BLOCK_RECORD
  5
1F
330
1
100
AcDbSymbolTableRecord
100
AcDbBlockTableRecord
  2
*MODEL_SPACE
  0
BLOCK_RECORD
  5
1B
330
1
100
AcDbSymbolTableRecord
100
AcDbBlockTableRecord
  2
*PAPER_SPACE
  0
ENDTAB
  0
ENDSEC
  0
SECTION
  2
BLOCKS
  0
BLOCK
  5
20
330
1F
100
AcDbEntity
  8
0
100
AcDbBlockBegin
  2
*MODEL_SPACE
 70
     0
 10
0.0
 20
0.0
 30
0.0
  3
*MODEL_SPACE
  1

  0
ENDBLK
  5
21
330
1F
100
AcDbEntity
  8
0
100
AcDbBlockEnd
  0
BLOCK
  5
1C
330
1B
100
AcDbEntity
 67
     1
  8
0
100
AcDbBlockBegin
  2
*PAPER_SPACE
  1

  0
ENDBLK
  5
1D
330
1B
100
AcDbEntity
 67
     1
  8
0
100
AcDbBlockEnd
  0
ENDSEC
  0
SECTION
  2
ENTITIES
0
DIMENSION
5
83
100
AcDbEntity
62
256
370
-1
6
ByLayer
1
total_width
3
Standard
70
0
71
5
72
1
41
1.0
100
AcDbAlignedDimension
13
7.321470
23
0.000000
33
0.0
14
34.980279
24
0.000000
34
0.0
50
0.000000
100
AcDbRotatedDimension
0
DIMENSION
5
83
100
AcDbEntity
62
256
370
-1
6
ByLayer
1
total_minx
3
Standard
70
0
71
5
72
1
41
1.0
100
AcDbAlignedDimension
13
7.321470
23
0.000000
33
0.0
14
0.000000
24
0.000000
34
0.0
50
0.000000
100
AcDbRotatedDimension
0
DIMENSION
5
83
100
AcDbEntity
62
256
370
-1
6
ByLayer
1
total_maxx
3
Standard
70
0
71
5
72
1
41
1.0
100
AcDbAlignedDimension
13
0.000000
23
0.000000
33
0.0
14
34.980279
24
0.000000
34
0.0
50
0.000000
100
AcDbRotatedDimension
0
DIMENSION
5
83
100
AcDbEntity
62
256
370
-1
6
ByLayer
1
total_height
3
Standard
70
0
71
5
72
1
41
1.0
100
AcDbAlignedDimension
13
0.000000
23
3.527778
33
0.0
14
0.000000
24
39.694970
34
0.0
50
90.000000
100
AcDbRotatedDimension
0
DIMENSION
5
83
100
AcDbEntity
62
256
370
-1
6
ByLayer
1
total_miny
3
Standard
70
0
71
5
72
1
41
1.0
100
AcDbAlignedDimension
13
3.527778
23
0.000000
33
0.0
14
0.000000
24
0.000000
34
0.0
50
0.000000
100
AcDbRotatedDimension
0
DIMENSION
5
83
100
AcDbEntity
62
256
370
-1
6
ByLayer
1
total_maxy
3
Standard
70
0
71
5
72
1
41
1.0
100
AcDbAlignedDimension
13
0.000000
23
0.000000
33
0.0
14
39.694970
24
0.000000
34
0.0
50
0.000000
100
AcDbRotatedDimension
0
DIMENSION
8
Layer_1
5
83
100
AcDbEntity
62
256
370
-1
6
ByLayer
1
Layer_1_width
3
Standard
70
0
71
5
72
1
41
1.0
100
AcDbAlignedDimension
13
7.321470
23
0.000000
33
0.0
14
34.980279
24
0.000000
34
0.0
50
0.000000
100
AcDbRotatedDimension
0
DIMENSION
8
Layer_1
5
83
100
AcDbEntity
62
256
370
-1
6
ByLayer
1
Layer_1_minx
3
Standard
70
0
71
5
72
1
41
1.0
100
AcDbAlignedDimension
13
7.321470
23
0.000000
33
0.0
14
0.000000
24
0.000000
34
0.0
50
0.000000
100
AcDbRotatedDimension
0
DIMENSION
8
Layer_1
5
83
100
AcDbEntity
62
256
370
-1
6
ByLayer
1
Layer_1_maxx
3
Standard
70
0
71
5
72
1
41
1.0
100
AcDbAlignedDimension
13
0.000000
23
0.000000
33
0.0
14
34.980279
24
0.000000
34
0.0
50
0.000000
100
AcDbRotatedDimension
0
DIMENSION
8
Layer_1
5
83
100
AcDbEntity
62
256
370
-1
6
ByLayer
1
Layer_1_height
3
Standard
70
0
71
5
72
1
41
1.0
100
AcDbAlignedDimension
13
0.000000
23
3.527778
33
0.0
14
0.000000
24
39.694970
34
0.0
50
90.000000
100
AcDbRotatedDimension
0
DIMENSION
8
Layer_1
5
83
100
AcDbEntity
62
256
370
-1
6
ByLayer
1
Layer_1_miny
3
Standard
70
0
71
5
72
1
41
1.0
100
AcDbAlignedDimension
13
3.527778
23
0.000000
33
0.0
14
0.000000
24
0.000000
34
0.0
50
0.000000
100
AcDbRotatedDimension
0
DIMENSION
8
Layer_1
5
83
100
AcDbEntity
62
256
370
-1
6
ByLayer
1
Layer_1_maxy
3
Standard
70
0
71
5
72
1
41
1.0
100
AcDbAlignedDimension
13
0.000000
23
0.000000
33
0.0
14
39.694970
24
0.000000
34
0.0
50
0.000000
100
AcDbRotatedDimension
62
0
0
LWPOLYLINE
100
AcDbPolyline
8
Layer_1
90
80
70
0
10
12.206126
20
5.644444
30
0.0
10
12.531110
20
7.761111
30
0.0
10
13.250270
20
9.877778
30
0.0
10
14.394839
20
13.291196
30
0.0
10
14.455400
20
15.264863
30
0.0
10
13.931765
20
17.608311
30
0.0
10
12.807954
20
20.371069
30
0.0
10
11.067987
20
23.602667
30
0.0
10
9.999529
20
25.699691
30
0.0
10
9.285823
20
27.747299
30
0.0
10
8.924812
20
29.722616
30
0.0
10
8.914436
20
31.602764
30
0.0
10
9.252636
20
33.364868
30
0.0
10
9.937354
20
34.986051
30
0.0
10
10.966529
20
36.443436
30
0.0
10
12.338103
20
37.714147
30
0.0
10
13.484562
20
38.421330
30
0.0
10
14.921431
20
39.120764
30
0.0
10
16.192997
20
39.612096
30
0.0
10
16.843549
20
39.694970
30
0.0
10
15.807910
20
37.929580
30
0.0
10
14.799891
20
36.203404
30
0.0
10
14.073078
20
34.353236
30
0.0
10
13.667489
20
32.509618
30
0.0
10
13.623145
20
30.803092
30
0.0
10
14.235468
20
28.078119
30
0.0
10
14.718884
20
26.716301
30
0.0
10
15.205797
20
25.723010
30
0.0
10
15.513547
20
25.550711
30
0.0
10
15.969445
20
25.690458
30
0.0
10
17.164389
20
26.726514
30
0.0
10
18.468027
20
28.472039
30
0.0
10
19.557760
20
30.567893
30
0.0
10
20.079335
20
31.654319
30
0.0
10
20.461111
20
32.122487
30
0.0
10
20.823946
20
31.805524
30
0.0
10
21.158259
20
30.925471
30
0.0
10
21.405559
20
29.694613
30
0.0
10
21.507357
20
28.325232
30
0.0
10
21.356859
20
26.647474
30
0.0
10
20.722460
20
25.129474
30
0.0
10
20.100517
20
24.211026
30
0.0
10
19.258415
20
23.247775
30
0.0
10
18.362262
20
22.411669
30
0.0
10
17.578168
20
21.874656
30
0.0
10
18.185809
20
20.165205
30
0.0
10
18.816790
20
18.157707
30
0.0
10
19.072901
20
16.238828
30
0.0
10
18.954739
20
14.392243
30
0.0
10
18.462903
20
12.601626
30
0.0
10
18.446472
20
12.258553
30
0.0
10
19.061851
20
12.422282
30
0.0
10
23.169205
20
13.541985
30
0.0
10
25.583350
20
14.199425
30
0.0
10
27.354920
20
14.852184
30
0.0
10
28.733401
20
15.612148
30
0.0
10
29.968280
20
16.591208
30
0.0
10
31.393575
20
18.177592
30
0.0
10
32.436640
20
20.003676
30
0.0
10
33.083995
20
22.038670
30
0.0
10
33.322158
20
24.251779
30
0.0
10
33.342083
20
25.823333
30
0.0
10
33.856699
20
24.667029
30
0.0
10
34.669664
20
22.093664
30
0.0
10
34.980279
20
19.344203
30
0.0
10
34.782325
20
16.715418
30
0.0
10
34.490693
20
15.539019
30
0.0
10
34.069587
20
14.504078
30
0.0
10
33.142584
20
13.109793
30
0.0
10
31.878589
20
11.786105
30
0.0
10
30.435356
20
10.674897
30
0.0
10
28.970636
20
9.918054
30
0.0
10
26.974678
20
9.389110
30
0.0
10
24.257065
20
8.896062
30
0.0
10
20.385986
20
8.223109
30
0.0
10
17.544555
20
7.416234
30
0.0
10
15.362596
20
6.336405
30
0.0
10
13.469934
20
4.844590
30
0.0
10
12.057057
20
3.527778
30
0.0
10
12.206126
20
5.644444
30
0.0
62
0
0
LWPOLYLINE
100
AcDbPolyline
8
Layer_1
90
20
70
0
10
9.094602
20
9.807222
30
0.0
10
8.347583
20
11.627993
30
0.0
10
7.802961
20
13.358246
30
0.0
10
7.460876
20
14.992488
30
0.0
10
7.321470
20
16.525223
30
0.0
10
7.384884
20
17.950958
30
0.0
10
7.651260
20
19.264196
30
0.0
10
8.120738
20
20.459443
30
0.0
10
8.793459
20
21.531205
30
0.0
10
9.033865
20
21.748657
30
0.0
10
9.291405
20
21.640485
30
0.0
10
10.263527
20
20.034205
30
0.0
10
11.345204
20
18.031554
30
0.0
10
10.682046
20
16.565222
30
0.0
10
10.331751
20
15.674592
30
0.0
10
10.131199
20
14.737820
30
0.0
10
10.018889
20
11.500556
30
0.0
10
9.990113
20
7.902222
30
0.0
10
9.094602
20
9.807222
30
0.0
10
9.094602
20
9.807222
30
0.0
62
0
0
LWPOLYLINE
100
AcDbPolyline
8
Layer_1
90
24
70
0
10
22.295556
20
16.966356
30
0.0
10
22.411138
20
18.406192
30
0.0
10
22.744377
20
19.799881
30
0.0
10
23.275011
20
21.117903
30
0.0
10
23.982780
20
22.330739
30
0.0
10
24.847422
20
23.408867
30
0.0
10
25.848675
20
24.322768
30
0.0
10
26.966280
20
25.042921
30
0.0
10
28.179974
20
25.539808
30
0.0
10
28.843280
20
25.738228
30
0.0
10
28.120198
20
24.504379
30
0.0
10
27.471793
20
23.140853
30
0.0
10
27.068925
20
21.715701
30
0.0
10
26.926031
20
20.303964
30
0.0
10
27.057547
20
18.980684
30
0.0
10
27.190438
20
18.003407
30
0.0
10
26.963660
20
17.372022
30
0.0
10
26.228328
20
16.918666
30
0.0
10
24.835556
20
16.475477
30
0.0
10
22.789444
20
15.904443
30
0.0
10
22.537376
20
15.879842
30
0.0
10
22.387035
20
16.014232
30
0.0
10
22.295556
20
16.966356
30
0.0
10
22.295556
20
16.966356
30
0.0
  0
ENDSEC
  0
SECTION
  2
OBJECTS
  0
DICTIONARY
  5
C
330
0
100
AcDbDictionary
  3
ACAD_GROUP
350
D
  3
ACAD_MLINESTYLE
350
17
  0
DICTIONARY
  5
D
330
C
100
AcDbDictionary
  0
DICTIONARY
  5
1A
330
C
100
AcDbDictionary
  0
DICTIONARY
  5
17
330
C
100
AcDbDictionary
  3
STANDARD
350
18
  0
DICTIONARY
  5
19
330
C
100
AcDbDictionary
  0
ENDSEC
  0
EOF
