999
Inkscape export via OpenSCAD DXF Export
  0
SECTION
  2
HEADER
  9
$ACADVER
  1
AC1014
  9
$HANDSEED
  5
FFFF
  9
$MEASUREMENT
 70
     1
  0
ENDSEC
  0
SECTION
  2
TABLES
  0
TABLE
  2
VPORT
  5
8
330
0
100
AcDbSymbolTable
 70
     4
  0
VPORT
  5
2E
330
8
100
AcDbSymbolTableRecord
100
AcDbViewportTableRecord
  2
*ACTIVE
 70
     0
 10
0.0
 20
0.0
 11
1.0
 21
1.0
 12
210.0
 22
148.5
 13
0.0
 23
0.0
 14
10.0
 24
10.0
 15
10.0
 25
10.0
 16
0.0
 26
0.0
 36
1.0
 17
0.0
 27
0.0
 37
0.0
 40
341.0
 41
1.24
 42
50.0
 43
0.0
 44
0.0
 50
0.0
 51
0.0
 71
     0
 72
   100
 73
     1
 74
     3
 75
     0
 76
     0
 77
     0
 78
     0
  0
ENDTAB
  0
TABLE
  2
LTYPE
  5
5
330
0
100
AcDbSymbolTable
 70
     1
  0
LTYPE
  5
14
330
5
100
AcDbSymbolTableRecord
100
AcDbLinetypeTableRecord
  2
BYBLOCK
 70
     0
  3

 72
    65
 73
     0
 40
0.0
  0
LTYPE
  5
15
330
5
100
AcDbSymbolTableRecord
100
AcDbLinetypeTableRecord
  2
BYLAYER
 70
     0
  3

 72
    65
 73
     0
 40
0.0
  0
LTYPE
  5
16
330
5
100
AcDbSymbolTableRecord
100
AcDbLinetypeTableRecord
  2
CONTINUOUS
 70
     0
  3
Solid line
 72
    65
 73
     0
 40
0.0
  0
ENDTAB
  0
TABLE
0
TABLE
2
LAYER
5
2
330
0
100
AcDbSymbolTable
70
1
0
LAYER
5
10
330
2
100
AcDbSymbolTableRecord
100
AcDbLayerTableRecord
2
Layer_1
70
0
62
7
6
CONTINUOUS
0
ENDTAB
0
ENDSEC
  0
ENDTAB
  0
TABLE
  2
STYLE
  5
3
330
0
100
AcDbSymbolTable
 70
     1
  0
STYLE
  5
11
330
3
100
AcDbSymbolTableRecord
100
AcDbTextStyleTableRecord
  2
STANDARD
 70
     0
 40
0.0
 41
1.0
 50
0.0
 71
     0
 42
2.5
  3
txt
  4

  0
ENDTAB
  0
TABLE
  2
VIEW
  5
6
330
0
100
AcDbSymbolTable
 70
     0
  0
ENDTAB
  0
TABLE
  2
UCS
  5
7
330
0
100
AcDbSymbolTable
 70
     0
  0
ENDTAB
  0
TABLE
  2
APPID
  5
9
330
0
100
AcDbSymbolTable
 70
     2
  0
APPID
  5
12
330
9
100
AcDbSymbolTableRecord
100
AcDbRegAppTableRecord
  2
ACAD
 70
     0
  0
ENDTAB
  0
TABLE
  2
DIMSTYLE
  5
A
330
0
100
AcDbSymbolTable
 70
     1
  0
DIMSTYLE
105
27
330
A
100
AcDbSymbolTableRecord
100
AcDbDimStyleTableRecord
  2
ISO-25
 70
     0
  3

  4

  5

  6

  7

 40
1.0
 41
2.5
 42
0.625
 43
3.75
 44
1.25
 45
0.0
 46
0.0
 47
0.0
 48
0.0
140
2.5
141
2.5
142
0.0
143
0.03937007874016
144
1.0
145
0.0
146
1.0
147
0.625
 71
     0
 72
     0
 73
     0
 74
     0
 75
     0
 76
     0
 77
     1
 78
     8
170
     0
171
     3
172
     1
173
     0
174
     0
175
     0
176
     0
177
     0
178
     0
270
     2
271
     2
272
     2
273
     2
274
     3
340
11
275
     0
280
     0
281
     0
282
     0
283
     0
284
     8
285
     0
286
     0
287
     3
288
     0
  0
ENDTAB
  0
TABLE
  2
BLOCK_RECORD
  5
1
330
0
100
AcDbSymbolTable
 70
     1
  0
BLOCK_RECORD
  5
1F
330
1
100
AcDbSymbolTableRecord
100
AcDbBlockTableRecord
  2
*MODEL_SPACE
  0
BLOCK_RECORD
  5
1B
330
1
100
AcDbSymbolTableRecord
100
AcDbBlockTableRecord
  2
*PAPER_SPACE
  0
ENDTAB
  0
ENDSEC
  0
SECTION
  2
BLOCKS
  0
BLOCK
  5
20
330
1F
100
AcDbEntity
  8
0
100
AcDbBlockBegin
  2
*MODEL_SPACE
 70
     0
 10
0.0
 20
0.0
 30
0.0
  3
*MODEL_SPACE
  1

  0
ENDBLK
  5
21
330
1F
100
AcDbEntity
  8
0
100
AcDbBlockEnd
  0
BLOCK
  5
1C
330
1B
100
AcDbEntity
 67
     1
  8
0
100
AcDbBlockBegin
  2
*PAPER_SPACE
  1

  0
ENDBLK
  5
1D
330
1B
100
AcDbEntity
 67
     1
  8
0
100
AcDbBlockEnd
  0
ENDSEC
  0
SECTION
  2
ENTITIES
0
DIMENSION
5
83
100
AcDbEntity
62
256
370
-1
6
ByLayer
1
total_width
3
Standard
70
0
71
5
72
1
41
1.0
100
AcDbAlignedDimension
13
0.123201
23
0.000000
33
0.0
14
42.192222
24
0.000000
34
0.0
50
0.000000
100
AcDbRotatedDimension
0
DIMENSION
5
83
100
AcDbEntity
62
256
370
-1
6
ByLayer
1
total_minx
3
Standard
70
0
71
5
72
1
41
1.0
100
AcDbAlignedDimension
13
0.123201
23
0.000000
33
0.0
14
0.000000
24
0.000000
34
0.0
50
0.000000
100
AcDbRotatedDimension
0
DIMENSION
5
83
100
AcDbEntity
62
256
370
-1
6
ByLayer
1
total_maxx
3
Standard
70
0
71
5
72
1
41
1.0
100
AcDbAlignedDimension
13
0.000000
23
0.000000
33
0.0
14
42.192222
24
0.000000
34
0.0
50
0.000000
100
AcDbRotatedDimension
0
DIMENSION
5
83
100
AcDbEntity
62
256
370
-1
6
ByLayer
1
total_height
3
Standard
70
0
71
5
72
1
41
1.0
100
AcDbAlignedDimension
13
0.000000
23
0.000000
33
0.0
14
0.000000
24
38.304008
34
0.0
50
90.000000
100
AcDbRotatedDimension
0
DIMENSION
5
83
100
AcDbEntity
62
256
370
-1
6
ByLayer
1
total_miny
3
Standard
70
0
71
5
72
1
41
1.0
100
AcDbAlignedDimension
13
0.000000
23
0.000000
33
0.0
14
0.000000
24
0.000000
34
0.0
50
0.000000
100
AcDbRotatedDimension
0
DIMENSION
5
83
100
AcDbEntity
62
256
370
-1
6
ByLayer
1
total_maxy
3
Standard
70
0
71
5
72
1
41
1.0
100
AcDbAlignedDimension
13
0.000000
23
0.000000
33
0.0
14
38.304008
24
0.000000
34
0.0
50
0.000000
100
AcDbRotatedDimension
0
DIMENSION
8
Layer_1
5
83
100
AcDbEntity
62
256
370
-1
6
ByLayer
1
Layer_1_width
3
Standard
70
0
71
5
72
1
41
1.0
100
AcDbAlignedDimension
13
0.123201
23
0.000000
33
0.0
14
42.192222
24
0.000000
34
0.0
50
0.000000
100
AcDbRotatedDimension
0
DIMENSION
8
Layer_1
5
83
100
AcDbEntity
62
256
370
-1
6
ByLayer
1
Layer_1_minx
3
Standard
70
0
71
5
72
1
41
1.0
100
AcDbAlignedDimension
13
0.123201
23
0.000000
33
0.0
14
0.000000
24
0.000000
34
0.0
50
0.000000
100
AcDbRotatedDimension
0
DIMENSION
8
Layer_1
5
83
100
AcDbEntity
62
256
370
-1
6
ByLayer
1
Layer_1_maxx
3
Standard
70
0
71
5
72
1
41
1.0
100
AcDbAlignedDimension
13
0.000000
23
0.000000
33
0.0
14
42.192222
24
0.000000
34
0.0
50
0.000000
100
AcDbRotatedDimension
0
DIMENSION
8
Layer_1
5
83
100
AcDbEntity
62
256
370
-1
6
ByLayer
1
Layer_1_height
3
Standard
70
0
71
5
72
1
41
1.0
100
AcDbAlignedDimension
13
0.000000
23
0.000000
33
0.0
14
0.000000
24
38.304008
34
0.0
50
90.000000
100
AcDbRotatedDimension
0
DIMENSION
8
Layer_1
5
83
100
AcDbEntity
62
256
370
-1
6
ByLayer
1
Layer_1_miny
3
Standard
70
0
71
5
72
1
41
1.0
100
AcDbAlignedDimension
13
0.000000
23
0.000000
33
0.0
14
0.000000
24
0.000000
34
0.0
50
0.000000
100
AcDbRotatedDimension
0
DIMENSION
8
Layer_1
5
83
100
AcDbEntity
62
256
370
-1
6
ByLayer
1
Layer_1_maxy
3
Standard
70
0
71
5
72
1
41
1.0
100
AcDbAlignedDimension
13
0.000000
23
0.000000
33
0.0
14
38.304008
24
0.000000
34
0.0
50
0.000000
100
AcDbRotatedDimension
62
0
0
LWPOLYLINE
100
AcDbPolyline
8
Layer_1
90
95
70
0
10
8.029201
20
0.358394
30
0.0
10
8.135422
20
1.209384
30
0.0
10
8.583929
20
2.752104
30
0.0
10
8.999470
20
4.234892
30
0.0
10
9.026429
20
4.941782
30
0.0
10
4.882225
20
6.238486
30
0.0
10
1.984553
20
7.188466
30
0.0
10
0.486608
20
7.868313
30
0.0
10
0.223836
20
8.183768
30
0.0
10
0.123201
20
8.568749
30
0.0
10
0.376842
20
10.223019
30
0.0
10
0.816667
20
11.881856
30
0.0
10
1.379647
20
13.091480
30
0.0
10
2.139975
20
13.968903
30
0.0
10
3.171844
20
14.631140
30
0.0
10
4.462698
20
15.117509
30
0.0
10
5.646349
20
15.098567
30
0.0
10
7.070295
20
14.576396
30
0.0
10
8.236268
20
13.612639
30
0.0
10
9.024027
20
12.344645
30
0.0
10
9.313333
20
10.909765
30
0.0
10
9.428747
20
10.145070
30
0.0
10
9.759749
20
9.766862
30
0.0
10
10.679245
20
9.632175
30
0.0
10
10.962709
20
9.808167
30
0.0
10
11.144884
20
10.150884
30
0.0
10
11.079953
20
10.589700
30
0.0
10
10.624598
20
11.344831
30
0.0
10
8.200569
20
14.284218
30
0.0
10
6.388295
20
16.419570
30
0.0
10
5.415303
20
17.764080
30
0.0
10
5.132194
20
18.573996
30
0.0
10
5.389565
20
19.105565
30
0.0
10
5.400798
20
19.414868
30
0.0
10
4.864863
20
19.980081
30
0.0
10
1.482607
20
22.450980
30
0.0
10
0.355013
20
23.379690
30
0.0
10
0.323324
20
23.678090
30
0.0
10
0.733846
20
23.889005
30
0.0
10
3.143940
20
24.117832
30
0.0
10
8.110129
20
24.205078
30
0.0
10
14.677978
20
24.347959
30
0.0
10
15.723583
20
24.515281
30
0.0
10
16.071128
20
24.806521
30
0.0
10
18.513275
20
31.504777
30
0.0
10
20.770019
20
37.472415
30
0.0
10
21.333574
20
38.293367
30
0.0
10
21.542841
20
38.304008
30
0.0
10
21.729936
20
38.101760
30
0.0
10
24.125819
20
31.328427
30
0.0
10
26.479323
20
24.628528
30
0.0
10
26.981332
20
24.460902
30
0.0
10
28.359936
20
24.340653
30
0.0
10
34.444900
20
24.205195
30
0.0
10
40.754137
20
24.069042
30
0.0
10
41.895044
20
23.935094
30
0.0
10
42.192222
20
23.726410
30
0.0
10
41.363194
20
22.841423
30
0.0
10
39.370000
20
21.280432
30
0.0
10
37.293940
20
19.647277
30
0.0
10
36.778908
20
19.115015
30
0.0
10
36.631166
20
18.789238
30
0.0
10
36.492260
20
18.203424
30
0.0
10
36.041197
20
17.425216
30
0.0
10
34.753584
20
15.481172
30
0.0
10
34.139324
20
14.452344
30
0.0
10
35.536813
20
14.862006
30
0.0
10
36.793264
20
15.074967
30
0.0
10
37.999305
20
14.988128
30
0.0
10
39.118839
20
14.629442
30
0.0
10
40.115768
20
14.026861
30
0.0
10
40.953994
20
13.208341
30
0.0
10
41.597419
20
12.201832
30
0.0
10
42.009946
20
11.035290
30
0.0
10
42.155477
20
9.736667
30
0.0
10
41.911675
20
8.064403
30
0.0
10
41.240402
20
6.657193
30
0.0
10
40.231862
20
5.553637
30
0.0
10
38.976256
20
4.792336
30
0.0
10
37.563786
20
4.411889
30
0.0
10
36.084654
20
4.450897
30
0.0
10
34.629063
20
4.947959
30
0.0
10
33.287214
20
5.941675
30
0.0
10
32.882583
20
6.276936
30
0.0
10
32.786391
20
6.092882
30
0.0
10
33.584444
20
3.668889
30
0.0
10
34.375529
20
0.983694
30
0.0
10
34.410893
20
0.254232
30
0.0
10
34.195075
20
0.000000
30
0.0
10
27.789517
20
4.233333
30
0.0
10
21.359016
20
8.466667
30
0.0
10
14.798187
20
4.233333
30
0.0
10
8.332533
20
0.000000
30
0.0
10
8.029201
20
0.358394
30
0.0
10
8.029201
20
0.358394
30
0.0
62
0
0
LWPOLYLINE
100
AcDbPolyline
8
Layer_1
90
28
70
0
10
39.250993
20
5.721717
30
0.0
10
40.247119
20
6.570219
30
0.0
10
40.958638
20
7.551780
30
0.0
10
41.385549
20
8.622047
30
0.0
10
41.527853
20
9.736667
30
0.0
10
41.385549
20
10.851287
30
0.0
10
40.958638
20
11.921554
30
0.0
10
40.247119
20
12.903115
30
0.0
10
39.250993
20
13.751617
30
0.0
10
38.480729
20
14.156824
30
0.0
10
37.666933
20
14.377023
30
0.0
10
36.831075
20
14.417854
30
0.0
10
35.994625
20
14.284955
30
0.0
10
35.179053
20
13.983965
30
0.0
10
34.405827
20
13.520523
30
0.0
10
33.696418
20
12.900269
30
0.0
10
33.072296
20
12.128840
30
0.0
10
32.551117
20
11.027432
30
0.0
10
32.519417
20
9.521207
30
0.0
10
32.703988
20
8.308527
30
0.0
10
33.099452
20
7.324192
30
0.0
10
33.752660
20
6.486812
30
0.0
10
34.710463
20
5.715000
30
0.0
10
35.774716
20
5.229083
30
0.0
10
36.973888
20
5.068360
30
0.0
10
38.176480
20
5.232636
30
0.0
10
39.250993
20
5.721717
30
0.0
10
39.250993
20
5.721717
30
0.0
62
0
0
LWPOLYLINE
100
AcDbPolyline
8
Layer_1
90
20
70
0
10
36.230334
20
7.900577
30
0.0
10
35.701007
20
8.324640
30
0.0
10
35.330018
20
9.020559
30
0.0
10
35.172533
20
9.831081
30
0.0
10
35.283716
20
10.598954
30
0.0
10
35.566084
20
11.078587
30
0.0
10
35.968881
20
11.419391
30
0.0
10
36.975423
20
11.685943
30
0.0
10
37.982675
20
11.401464
30
0.0
10
38.386358
20
11.053480
30
0.0
10
38.669968
20
10.568809
30
0.0
10
38.823066
20
9.926904
30
0.0
10
38.800514
20
9.324131
30
0.0
10
38.624700
20
8.784978
30
0.0
10
38.318014
20
8.333933
30
0.0
10
37.902845
20
7.995483
30
0.0
10
37.401582
20
7.794115
30
0.0
10
36.836615
20
7.754317
30
0.0
10
36.230334
20
7.900577
30
0.0
10
36.230334
20
7.900577
30
0.0
62
0
0
LWPOLYLINE
100
AcDbPolyline
8
Layer_1
90
28
70
0
10
9.848807
20
6.279444
30
0.0
10
10.283994
20
7.815343
30
0.0
10
10.371322
20
8.323042
30
0.0
10
10.309066
20
8.615087
30
0.0
10
9.473283
20
8.905088
30
0.0
10
8.897236
20
9.037655
30
0.0
10
8.597741
20
9.250819
30
0.0
10
8.484363
20
9.686757
30
0.0
10
8.466667
20
10.487646
30
0.0
10
8.228206
20
12.162166
30
0.0
10
7.934121
20
12.832030
30
0.0
10
7.527016
20
13.386495
30
0.0
10
7.009552
20
13.822709
30
0.0
10
6.384389
20
14.137822
30
0.0
10
4.821613
20
14.393333
30
0.0
10
3.721387
20
14.208133
30
0.0
10
2.708163
20
13.532560
30
0.0
10
2.047628
20
12.834801
30
0.0
10
1.576515
20
12.018067
30
0.0
10
1.243419
20
10.962691
30
0.0
10
0.996933
20
9.549006
30
0.0
10
0.819282
20
8.232459
30
0.0
10
2.314641
20
7.794938
30
0.0
10
6.491111
20
6.532575
30
0.0
10
9.313707
20
5.739066
30
0.0
10
9.673279
20
5.857138
30
0.0
10
9.848807
20
6.279444
30
0.0
10
9.848807
20
6.279444
30
0.0
62
0
0
LWPOLYLINE
100
AcDbPolyline
8
Layer_1
90
15
70
0
10
4.435360
20
10.332119
30
0.0
10
3.643293
20
10.614602
30
0.0
10
3.314731
20
10.899469
30
0.0
10
3.411811
20
11.298604
30
0.0
10
3.896668
20
11.923889
30
0.0
10
4.295135
20
12.238437
30
0.0
10
4.747117
20
12.363158
30
0.0
10
5.652453
20
12.138185
30
0.0
10
6.294325
20
11.439103
30
0.0
10
6.416979
20
10.971186
30
0.0
10
6.354386
20
10.456041
30
0.0
10
6.212766
20
10.078149
30
0.0
10
5.976127
20
9.939953
30
0.0
10
4.435360
20
10.332119
30
0.0
10
4.435360
20
10.332119
30
0.0
62
0
0
LWPOLYLINE
100
AcDbPolyline
8
Layer_1
90
8
70
0
10
31.737946
20
10.140498
30
0.0
10
31.768367
20
10.378118
30
0.0
10
31.613492
20
10.580488
30
0.0
10
31.410922
20
10.576437
30
0.0
10
31.326667
20
10.317767
30
0.0
10
31.441583
20
9.896439
30
0.0
10
31.737946
20
10.140498
30
0.0
10
31.737946
20
10.140498
30
0.0
62
0
0
LWPOLYLINE
100
AcDbPolyline
8
Layer_1
90
34
70
0
10
13.225624
20
12.450428
30
0.0
10
14.174582
20
13.313199
30
0.0
10
13.296180
20
14.219480
30
0.0
10
12.417778
20
15.323991
30
0.0
10
12.765572
20
15.512326
30
0.0
10
13.556895
20
15.515249
30
0.0
10
14.413660
20
15.366268
30
0.0
10
14.957778
20
15.098889
30
0.0
10
15.292119
20
14.779315
30
0.0
10
15.634458
20
14.732930
30
0.0
10
16.819148
20
15.583722
30
0.0
10
17.853493
20
16.491889
30
0.0
10
16.781948
20
17.418167
30
0.0
10
16.085951
20
17.934306
30
0.0
10
15.400961
20
18.255229
30
0.0
10
14.685839
20
18.394457
30
0.0
10
13.899444
20
18.365511
30
0.0
10
13.649985
20
18.481871
30
0.0
10
13.545612
20
18.825962
30
0.0
10
13.363372
20
19.589578
30
0.0
10
12.886662
20
20.363778
30
0.0
10
12.215984
20
21.023000
30
0.0
10
11.451842
20
21.441680
30
0.0
10
10.408080
20
21.613516
30
0.0
10
9.377682
20
21.405046
30
0.0
10
8.296808
20
20.791414
30
0.0
10
7.101616
20
19.747758
30
0.0
10
5.710626
20
18.364064
30
0.0
10
8.570313
20
14.989417
30
0.0
10
10.714321
20
12.602090
30
0.0
10
11.853333
20
11.601213
30
0.0
10
12.431069
20
11.845078
30
0.0
10
13.225624
20
12.450428
30
0.0
10
13.225624
20
12.450428
30
0.0
62
0
0
LWPOLYLINE
100
AcDbPolyline
8
Layer_1
90
14
70
0
10
9.738226
20
17.893981
30
0.0
10
9.286029
20
18.602229
30
0.0
10
9.182351
20
19.093857
30
0.0
10
9.429314
20
19.380384
30
0.0
10
10.029039
20
19.473333
30
0.0
10
10.669899
20
19.265845
30
0.0
10
11.193464
20
18.760304
30
0.0
10
11.475161
20
18.132103
30
0.0
10
11.390415
20
17.556629
30
0.0
10
11.038119
20
17.141409
30
0.0
10
10.676245
20
17.052914
30
0.0
10
10.258408
20
17.300614
30
0.0
10
9.738226
20
17.893981
30
0.0
10
9.738226
20
17.893981
30
0.0
62
0
0
LWPOLYLINE
100
AcDbPolyline
8
Layer_1
90
36
70
0
10
33.430391
20
14.969701
30
0.0
10
34.892614
20
17.353113
30
0.0
10
35.652168
20
18.344444
30
0.0
10
35.754265
20
18.485029
30
0.0
10
35.494567
20
18.828431
30
0.0
10
34.355445
20
19.653573
30
0.0
10
33.874339
20
19.871344
30
0.0
10
33.492635
20
19.909246
30
0.0
10
32.435941
20
19.352741
30
0.0
10
31.187819
20
18.626667
30
0.0
10
31.463990
20
19.648911
30
0.0
10
31.787354
20
20.561188
30
0.0
10
31.843578
20
21.233076
30
0.0
10
31.613413
20
21.801876
30
0.0
10
31.077611
20
22.404890
30
0.0
10
30.264114
20
23.184271
30
0.0
10
27.221060
20
20.249783
30
0.0
10
24.178007
20
17.315295
30
0.0
10
25.179999
20
16.551038
30
0.0
10
26.181992
20
15.786781
30
0.0
10
27.773046
20
17.418390
30
0.0
10
29.364102
20
19.050000
30
0.0
10
28.615473
20
16.993428
30
0.0
10
28.135039
20
15.492692
30
0.0
10
28.031211
20
14.772492
30
0.0
10
28.707775
20
15.010387
30
0.0
10
30.103597
20
15.813154
30
0.0
10
31.293265
20
16.554892
30
0.0
10
31.707236
20
16.672434
30
0.0
10
31.366876
20
16.006641
30
0.0
10
30.293553
20
14.398375
30
0.0
10
29.633333
20
13.138977
30
0.0
10
30.371931
20
12.264712
30
0.0
10
31.326667
20
11.593183
30
0.0
10
33.430391
20
14.969701
30
0.0
10
33.430391
20
14.969701
30
0.0
62
0
0
LWPOLYLINE
100
AcDbPolyline
8
Layer_1
90
28
70
0
10
23.405232
20
17.484097
30
0.0
10
24.030991
20
18.029072
30
0.0
10
24.540102
20
18.678197
30
0.0
10
25.188356
20
20.205157
30
0.0
10
25.309943
20
21.897497
30
0.0
10
25.160721
20
22.753347
30
0.0
10
24.864813
20
23.587738
30
0.0
10
24.241589
20
24.614404
30
0.0
10
23.434945
20
25.415880
30
0.0
10
22.491097
20
25.983453
30
0.0
10
21.456262
20
26.308411
30
0.0
10
20.376659
20
26.382043
30
0.0
10
19.298503
20
26.195635
30
0.0
10
18.268013
20
25.740475
30
0.0
10
17.331406
20
25.007850
30
0.0
10
16.585639
20
24.075311
30
0.0
10
16.104315
20
23.060044
30
0.0
10
15.882360
20
21.996536
30
0.0
10
15.914702
20
20.919275
30
0.0
10
16.196265
20
19.862749
30
0.0
10
16.721978
20
18.861444
30
0.0
10
17.486766
20
17.949848
30
0.0
10
18.485556
20
17.162448
30
0.0
10
19.569930
20
16.766101
30
0.0
10
20.904872
20
16.697632
30
0.0
10
22.260075
20
16.941984
30
0.0
10
23.405232
20
17.484097
30
0.0
10
23.405232
20
17.484097
30
0.0
62
0
0
LWPOLYLINE
100
AcDbPolyline
8
Layer_1
90
22
70
0
10
19.189537
20
20.244990
30
0.0
10
18.866950
20
20.785462
30
0.0
10
18.712558
20
21.343958
30
0.0
10
18.714120
20
21.892712
30
0.0
10
18.859392
20
22.403957
30
0.0
10
19.136135
20
22.849928
30
0.0
10
19.532105
20
23.202856
30
0.0
10
20.035061
20
23.434975
30
0.0
10
20.632762
20
23.518518
30
0.0
10
21.232128
20
23.419069
30
0.0
10
21.740192
20
23.146470
30
0.0
10
22.141636
20
22.739349
30
0.0
10
22.421138
20
22.236329
30
0.0
10
22.563379
20
21.676036
30
0.0
10
22.553038
20
21.097097
30
0.0
10
22.374796
20
20.538135
30
0.0
10
22.013333
20
20.037778
30
0.0
10
21.328533
20
19.590953
30
0.0
10
20.569341
20
19.480971
30
0.0
10
19.826196
20
19.701195
30
0.0
10
19.189537
20
20.244990
30
0.0
10
19.189537
20
20.244990
30
0.0
  0
ENDSEC
  0
SECTION
  2
OBJECTS
  0
DICTIONARY
  5
C
330
0
100
AcDbDictionary
  3
ACAD_GROUP
350
D
  3
ACAD_MLINESTYLE
350
17
  0
DICTIONARY
  5
D
330
C
100
AcDbDictionary
  0
DICTIONARY
  5
1A
330
C
100
AcDbDictionary
  0
DICTIONARY
  5
17
330
C
100
AcDbDictionary
  3
STANDARD
350
18
  0
DICTIONARY
  5
19
330
C
100
AcDbDictionary
  0
ENDSEC
  0
EOF
