999
Inkscape export via OpenSCAD DXF Export
  0
SECTION
  2
HEADER
  9
$ACADVER
  1
AC1014
  9
$HANDSEED
  5
FFFF
  9
$MEASUREMENT
 70
     1
  0
ENDSEC
  0
SECTION
  2
TABLES
  0
TABLE
  2
VPORT
  5
8
330
0
100
AcDbSymbolTable
 70
     4
  0
VPORT
  5
2E
330
8
100
AcDbSymbolTableRecord
100
AcDbViewportTableRecord
  2
*ACTIVE
 70
     0
 10
0.0
 20
0.0
 11
1.0
 21
1.0
 12
210.0
 22
148.5
 13
0.0
 23
0.0
 14
10.0
 24
10.0
 15
10.0
 25
10.0
 16
0.0
 26
0.0
 36
1.0
 17
0.0
 27
0.0
 37
0.0
 40
341.0
 41
1.24
 42
50.0
 43
0.0
 44
0.0
 50
0.0
 51
0.0
 71
     0
 72
   100
 73
     1
 74
     3
 75
     0
 76
     0
 77
     0
 78
     0
  0
ENDTAB
  0
TABLE
  2
LTYPE
  5
5
330
0
100
AcDbSymbolTable
 70
     1
  0
LTYPE
  5
14
330
5
100
AcDbSymbolTableRecord
100
AcDbLinetypeTableRecord
  2
BYBLOCK
 70
     0
  3

 72
    65
 73
     0
 40
0.0
  0
LTYPE
  5
15
330
5
100
AcDbSymbolTableRecord
100
AcDbLinetypeTableRecord
  2
BYLAYER
 70
     0
  3

 72
    65
 73
     0
 40
0.0
  0
LTYPE
  5
16
330
5
100
AcDbSymbolTableRecord
100
AcDbLinetypeTableRecord
  2
CONTINUOUS
 70
     0
  3
Solid line
 72
    65
 73
     0
 40
0.0
  0
ENDTAB
  0
TABLE
0
TABLE
2
LAYER
5
2
330
0
100
AcDbSymbolTable
70
1
0
LAYER
5
10
330
2
100
AcDbSymbolTableRecord
100
AcDbLayerTableRecord
2
Layer_1
70
0
62
7
6
CONTINUOUS
0
ENDTAB
0
ENDSEC
  0
ENDTAB
  0
TABLE
  2
STYLE
  5
3
330
0
100
AcDbSymbolTable
 70
     1
  0
STYLE
  5
11
330
3
100
AcDbSymbolTableRecord
100
AcDbTextStyleTableRecord
  2
STANDARD
 70
     0
 40
0.0
 41
1.0
 50
0.0
 71
     0
 42
2.5
  3
txt
  4

  0
ENDTAB
  0
TABLE
  2
VIEW
  5
6
330
0
100
AcDbSymbolTable
 70
     0
  0
ENDTAB
  0
TABLE
  2
UCS
  5
7
330
0
100
AcDbSymbolTable
 70
     0
  0
ENDTAB
  0
TABLE
  2
APPID
  5
9
330
0
100
AcDbSymbolTable
 70
     2
  0
APPID
  5
12
330
9
100
AcDbSymbolTableRecord
100
AcDbRegAppTableRecord
  2
ACAD
 70
     0
  0
ENDTAB
  0
TABLE
  2
DIMSTYLE
  5
A
330
0
100
AcDbSymbolTable
 70
     1
  0
DIMSTYLE
105
27
330
A
100
AcDbSymbolTableRecord
100
AcDbDimStyleTableRecord
  2
ISO-25
 70
     0
  3

  4

  5

  6

  7

 40
1.0
 41
2.5
 42
0.625
 43
3.75
 44
1.25
 45
0.0
 46
0.0
 47
0.0
 48
0.0
140
2.5
141
2.5
142
0.0
143
0.03937007874016
144
1.0
145
0.0
146
1.0
147
0.625
 71
     0
 72
     0
 73
     0
 74
     0
 75
     0
 76
     0
 77
     1
 78
     8
170
     0
171
     3
172
     1
173
     0
174
     0
175
     0
176
     0
177
     0
178
     0
270
     2
271
     2
272
     2
273
     2
274
     3
340
11
275
     0
280
     0
281
     0
282
     0
283
     0
284
     8
285
     0
286
     0
287
     3
288
     0
  0
ENDTAB
  0
TABLE
  2
BLOCK_RECORD
  5
1
330
0
100
AcDbSymbolTable
 70
     1
  0
BLOCK_RECORD
  5
1F
330
1
100
AcDbSymbolTableRecord
100
AcDbBlockTableRecord
  2
*MODEL_SPACE
  0
BLOCK_RECORD
  5
1B
330
1
100
AcDbSymbolTableRecord
100
AcDbBlockTableRecord
  2
*PAPER_SPACE
  0
ENDTAB
  0
ENDSEC
  0
SECTION
  2
BLOCKS
  0
BLOCK
  5
20
330
1F
100
AcDbEntity
  8
0
100
AcDbBlockBegin
  2
*MODEL_SPACE
 70
     0
 10
0.0
 20
0.0
 30
0.0
  3
*MODEL_SPACE
  1

  0
ENDBLK
  5
21
330
1F
100
AcDbEntity
  8
0
100
AcDbBlockEnd
  0
BLOCK
  5
1C
330
1B
100
AcDbEntity
 67
     1
  8
0
100
AcDbBlockBegin
  2
*PAPER_SPACE
  1

  0
ENDBLK
  5
1D
330
1B
100
AcDbEntity
 67
     1
  8
0
100
AcDbBlockEnd
  0
ENDSEC
  0
SECTION
  2
ENTITIES
0
DIMENSION
5
83
100
AcDbEntity
62
256
370
-1
6
ByLayer
1
total_width
3
Standard
70
0
71
5
72
1
41
1.0
100
AcDbAlignedDimension
13
4.127413
23
0.000000
33
0.0
14
38.218424
24
0.000000
34
0.0
50
0.000000
100
AcDbRotatedDimension
0
DIMENSION
5
83
100
AcDbEntity
62
256
370
-1
6
ByLayer
1
total_minx
3
Standard
70
0
71
5
72
1
41
1.0
100
AcDbAlignedDimension
13
4.127413
23
0.000000
33
0.0
14
0.000000
24
0.000000
34
0.0
50
0.000000
100
AcDbRotatedDimension
0
DIMENSION
5
83
100
AcDbEntity
62
256
370
-1
6
ByLayer
1
total_maxx
3
Standard
70
0
71
5
72
1
41
1.0
100
AcDbAlignedDimension
13
0.000000
23
0.000000
33
0.0
14
38.218424
24
0.000000
34
0.0
50
0.000000
100
AcDbRotatedDimension
0
DIMENSION
5
83
100
AcDbEntity
62
256
370
-1
6
ByLayer
1
total_height
3
Standard
70
0
71
5
72
1
41
1.0
100
AcDbAlignedDimension
13
0.000000
23
3.167919
33
0.0
14
0.000000
24
37.535556
34
0.0
50
90.000000
100
AcDbRotatedDimension
0
DIMENSION
5
83
100
AcDbEntity
62
256
370
-1
6
ByLayer
1
total_miny
3
Standard
70
0
71
5
72
1
41
1.0
100
AcDbAlignedDimension
13
3.167919
23
0.000000
33
0.0
14
0.000000
24
0.000000
34
0.0
50
0.000000
100
AcDbRotatedDimension
0
DIMENSION
5
83
100
AcDbEntity
62
256
370
-1
6
ByLayer
1
total_maxy
3
Standard
70
0
71
5
72
1
41
1.0
100
AcDbAlignedDimension
13
0.000000
23
0.000000
33
0.0
14
37.535556
24
0.000000
34
0.0
50
0.000000
100
AcDbRotatedDimension
0
DIMENSION
8
Layer_1
5
83
100
AcDbEntity
62
256
370
-1
6
ByLayer
1
Layer_1_width
3
Standard
70
0
71
5
72
1
41
1.0
100
AcDbAlignedDimension
13
4.127413
23
0.000000
33
0.0
14
38.218424
24
0.000000
34
0.0
50
0.000000
100
AcDbRotatedDimension
0
DIMENSION
8
Layer_1
5
83
100
AcDbEntity
62
256
370
-1
6
ByLayer
1
Layer_1_minx
3
Standard
70
0
71
5
72
1
41
1.0
100
AcDbAlignedDimension
13
4.127413
23
0.000000
33
0.0
14
0.000000
24
0.000000
34
0.0
50
0.000000
100
AcDbRotatedDimension
0
DIMENSION
8
Layer_1
5
83
100
AcDbEntity
62
256
370
-1
6
ByLayer
1
Layer_1_maxx
3
Standard
70
0
71
5
72
1
41
1.0
100
AcDbAlignedDimension
13
0.000000
23
0.000000
33
0.0
14
38.218424
24
0.000000
34
0.0
50
0.000000
100
AcDbRotatedDimension
0
DIMENSION
8
Layer_1
5
83
100
AcDbEntity
62
256
370
-1
6
ByLayer
1
Layer_1_height
3
Standard
70
0
71
5
72
1
41
1.0
100
AcDbAlignedDimension
13
0.000000
23
3.167919
33
0.0
14
0.000000
24
37.535556
34
0.0
50
90.000000
100
AcDbRotatedDimension
0
DIMENSION
8
Layer_1
5
83
100
AcDbEntity
62
256
370
-1
6
ByLayer
1
Layer_1_miny
3
Standard
70
0
71
5
72
1
41
1.0
100
AcDbAlignedDimension
13
3.167919
23
0.000000
33
0.0
14
0.000000
24
0.000000
34
0.0
50
0.000000
100
AcDbRotatedDimension
0
DIMENSION
8
Layer_1
5
83
100
AcDbEntity
62
256
370
-1
6
ByLayer
1
Layer_1_maxy
3
Standard
70
0
71
5
72
1
41
1.0
100
AcDbAlignedDimension
13
0.000000
23
0.000000
33
0.0
14
37.535556
24
0.000000
34
0.0
50
0.000000
100
AcDbRotatedDimension
62
0
0
LWPOLYLINE
100
AcDbPolyline
8
Layer_1
90
93
70
0
10
10.953180
20
3.591252
30
0.0
10
4.127413
20
13.758333
30
0.0
10
4.127975
20
13.926816
30
0.0
10
4.403372
20
14.034544
30
0.0
10
5.980566
20
14.105568
30
0.0
10
8.043333
20
14.100023
30
0.0
10
10.442222
20
10.442222
30
0.0
10
12.841111
20
6.784422
30
0.0
10
14.605000
20
6.778890
30
0.0
10
15.822240
20
6.857997
30
0.0
10
16.352027
20
7.134523
30
0.0
10
16.216186
20
7.652477
30
0.0
10
15.436540
20
8.455872
30
0.0
10
14.533804
20
9.474965
30
0.0
10
13.672652
20
10.775583
30
0.0
10
13.231068
20
11.647957
30
0.0
10
12.980404
20
12.426347
30
0.0
10
12.845070
20
14.675556
30
0.0
10
12.984264
20
16.903713
30
0.0
10
13.607823
20
18.520367
30
0.0
10
14.236013
20
19.547656
30
0.0
10
14.977091
20
20.460205
30
0.0
10
15.819851
20
21.251160
30
0.0
10
16.753087
20
21.913670
30
0.0
10
17.765593
20
22.440884
30
0.0
10
18.846162
20
22.825948
30
0.0
10
19.983589
20
23.062012
30
0.0
10
21.166667
20
23.142222
30
0.0
10
22.349744
20
23.062012
30
0.0
10
23.487171
20
22.825948
30
0.0
10
24.567740
20
22.440884
30
0.0
10
25.580246
20
21.913670
30
0.0
10
26.513482
20
21.251160
30
0.0
10
27.356242
20
20.460205
30
0.0
10
28.097320
20
19.547656
30
0.0
10
28.725509
20
18.520367
30
0.0
10
29.349069
20
16.903713
30
0.0
10
29.488263
20
14.675556
30
0.0
10
29.352933
20
12.426345
30
0.0
10
29.102268
20
11.647951
30
0.0
10
28.660683
20
10.775569
30
0.0
10
27.799529
20
9.474951
30
0.0
10
26.896793
20
8.455858
30
0.0
10
26.117147
20
7.652464
30
0.0
10
25.981306
20
7.134511
30
0.0
10
26.511093
20
6.857986
30
0.0
10
27.728333
20
6.778876
30
0.0
10
29.492222
20
6.784408
30
0.0
10
31.891111
20
10.442222
30
0.0
10
34.290000
20
14.100023
30
0.0
10
36.346040
20
14.105554
30
0.0
10
38.033968
20
14.032222
30
0.0
10
38.218424
20
13.884287
30
0.0
10
38.127206
20
13.617208
30
0.0
10
34.518944
20
8.184430
30
0.0
10
31.185556
20
3.245556
30
0.0
10
26.811111
20
3.245556
30
0.0
10
22.436667
20
3.245556
30
0.0
10
22.357420
20
6.531029
30
0.0
10
22.278173
20
9.816502
30
0.0
10
23.077666
20
10.095205
30
0.0
10
24.310503
20
10.820176
30
0.0
10
25.316166
20
11.976850
30
0.0
10
25.994435
20
13.411035
30
0.0
10
26.245093
20
14.968533
30
0.0
10
26.046570
20
15.946825
30
0.0
10
25.529093
20
17.058751
30
0.0
10
24.815318
20
18.090731
30
0.0
10
24.027905
20
18.829184
30
0.0
10
23.026383
20
19.355736
30
0.0
10
21.987714
20
19.648331
30
0.0
10
20.943079
20
19.715021
30
0.0
10
19.923655
20
19.563861
30
0.0
10
18.960622
20
19.202905
30
0.0
10
18.085161
20
18.640209
30
0.0
10
17.328449
20
17.883826
30
0.0
10
16.721667
20
16.941811
30
0.0
10
16.313019
20
15.995250
30
0.0
10
16.125690
20
15.145618
30
0.0
10
16.148016
20
14.271040
30
0.0
10
16.368334
20
13.249642
30
0.0
10
16.803518
20
12.313187
30
0.0
10
17.524964
20
11.373597
30
0.0
10
18.393601
20
10.582260
30
0.0
10
19.270358
20
10.090568
30
0.0
10
20.055160
20
9.816502
30
0.0
10
19.975914
20
6.531029
30
0.0
10
19.896667
20
3.245556
30
0.0
10
15.642927
20
3.167919
30
0.0
10
12.025385
20
3.186700
30
0.0
10
11.317712
20
3.327521
30
0.0
10
10.953180
20
3.591252
30
0.0
10
10.953180
20
3.591252
30
0.0
62
0
0
LWPOLYLINE
100
AcDbPolyline
8
Layer_1
90
16
70
0
10
4.276247
20
16.867159
30
0.0
10
12.721195
20
27.368324
30
0.0
10
21.166667
20
37.535556
30
0.0
10
29.612139
20
27.368324
30
0.0
10
38.057085
20
16.867159
30
0.0
10
37.477717
20
16.721463
30
0.0
10
35.946876
20
16.709298
30
0.0
10
33.738467
20
16.792222
30
0.0
10
27.523122
20
24.469932
30
0.0
10
21.166667
20
32.147642
30
0.0
10
14.810211
20
24.469932
30
0.0
10
8.594866
20
16.792222
30
0.0
10
6.386458
20
16.709298
30
0.0
10
4.855615
20
16.721463
30
0.0
10
4.276247
20
16.867159
30
0.0
10
4.276247
20
16.867159
30
0.0
  0
ENDSEC
  0
SECTION
  2
OBJECTS
  0
DICTIONARY
  5
C
330
0
100
AcDbDictionary
  3
ACAD_GROUP
350
D
  3
ACAD_MLINESTYLE
350
17
  0
DICTIONARY
  5
D
330
C
100
AcDbDictionary
  0
DICTIONARY
  5
1A
330
C
100
AcDbDictionary
  0
DICTIONARY
  5
17
330
C
100
AcDbDictionary
  3
STANDARD
350
18
  0
DICTIONARY
  5
19
330
C
100
AcDbDictionary
  0
ENDSEC
  0
EOF
