999
Inkscape export via OpenSCAD DXF Export
  0
SECTION
  2
HEADER
  9
$ACADVER
  1
AC1014
  9
$HANDSEED
  5
FFFF
  9
$MEASUREMENT
 70
     1
  0
ENDSEC
  0
SECTION
  2
TABLES
  0
TABLE
  2
VPORT
  5
8
330
0
100
AcDbSymbolTable
 70
     4
  0
VPORT
  5
2E
330
8
100
AcDbSymbolTableRecord
100
AcDbViewportTableRecord
  2
*ACTIVE
 70
     0
 10
0.0
 20
0.0
 11
1.0
 21
1.0
 12
210.0
 22
148.5
 13
0.0
 23
0.0
 14
10.0
 24
10.0
 15
10.0
 25
10.0
 16
0.0
 26
0.0
 36
1.0
 17
0.0
 27
0.0
 37
0.0
 40
341.0
 41
1.24
 42
50.0
 43
0.0
 44
0.0
 50
0.0
 51
0.0
 71
     0
 72
   100
 73
     1
 74
     3
 75
     0
 76
     0
 77
     0
 78
     0
  0
ENDTAB
  0
TABLE
  2
LTYPE
  5
5
330
0
100
AcDbSymbolTable
 70
     1
  0
LTYPE
  5
14
330
5
100
AcDbSymbolTableRecord
100
AcDbLinetypeTableRecord
  2
BYBLOCK
 70
     0
  3

 72
    65
 73
     0
 40
0.0
  0
LTYPE
  5
15
330
5
100
AcDbSymbolTableRecord
100
AcDbLinetypeTableRecord
  2
BYLAYER
 70
     0
  3

 72
    65
 73
     0
 40
0.0
  0
LTYPE
  5
16
330
5
100
AcDbSymbolTableRecord
100
AcDbLinetypeTableRecord
  2
CONTINUOUS
 70
     0
  3
Solid line
 72
    65
 73
     0
 40
0.0
  0
ENDTAB
  0
TABLE
0
TABLE
2
LAYER
5
2
330
0
100
AcDbSymbolTable
70
1
0
LAYER
5
10
330
2
100
AcDbSymbolTableRecord
100
AcDbLayerTableRecord
2
Layer_1
70
0
62
7
6
CONTINUOUS
0
ENDTAB
0
ENDSEC
  0
ENDTAB
  0
TABLE
  2
STYLE
  5
3
330
0
100
AcDbSymbolTable
 70
     1
  0
STYLE
  5
11
330
3
100
AcDbSymbolTableRecord
100
AcDbTextStyleTableRecord
  2
STANDARD
 70
     0
 40
0.0
 41
1.0
 50
0.0
 71
     0
 42
2.5
  3
txt
  4

  0
ENDTAB
  0
TABLE
  2
VIEW
  5
6
330
0
100
AcDbSymbolTable
 70
     0
  0
ENDTAB
  0
TABLE
  2
UCS
  5
7
330
0
100
AcDbSymbolTable
 70
     0
  0
ENDTAB
  0
TABLE
  2
APPID
  5
9
330
0
100
AcDbSymbolTable
 70
     2
  0
APPID
  5
12
330
9
100
AcDbSymbolTableRecord
100
AcDbRegAppTableRecord
  2
ACAD
 70
     0
  0
ENDTAB
  0
TABLE
  2
DIMSTYLE
  5
A
330
0
100
AcDbSymbolTable
 70
     1
  0
DIMSTYLE
105
27
330
A
100
AcDbSymbolTableRecord
100
AcDbDimStyleTableRecord
  2
ISO-25
 70
     0
  3

  4

  5

  6

  7

 40
1.0
 41
2.5
 42
0.625
 43
3.75
 44
1.25
 45
0.0
 46
0.0
 47
0.0
 48
0.0
140
2.5
141
2.5
142
0.0
143
0.03937007874016
144
1.0
145
0.0
146
1.0
147
0.625
 71
     0
 72
     0
 73
     0
 74
     0
 75
     0
 76
     0
 77
     1
 78
     8
170
     0
171
     3
172
     1
173
     0
174
     0
175
     0
176
     0
177
     0
178
     0
270
     2
271
     2
272
     2
273
     2
274
     3
340
11
275
     0
280
     0
281
     0
282
     0
283
     0
284
     8
285
     0
286
     0
287
     3
288
     0
  0
ENDTAB
  0
TABLE
  2
BLOCK_RECORD
  5
1
330
0
100
AcDbSymbolTable
 70
     1
  0
BLOCK_RECORD
  5
1F
330
1
100
AcDbSymbolTableRecord
100
AcDbBlockTableRecord
  2
*MODEL_SPACE
  0
BLOCK_RECORD
  5
1B
330
1
100
AcDbSymbolTableRecord
100
AcDbBlockTableRecord
  2
*PAPER_SPACE
  0
ENDTAB
  0
ENDSEC
  0
SECTION
  2
BLOCKS
  0
BLOCK
  5
20
330
1F
100
AcDbEntity
  8
0
100
AcDbBlockBegin
  2
*MODEL_SPACE
 70
     0
 10
0.0
 20
0.0
 30
0.0
  3
*MODEL_SPACE
  1

  0
ENDBLK
  5
21
330
1F
100
AcDbEntity
  8
0
100
AcDbBlockEnd
  0
BLOCK
  5
1C
330
1B
100
AcDbEntity
 67
     1
  8
0
100
AcDbBlockBegin
  2
*PAPER_SPACE
  1

  0
ENDBLK
  5
1D
330
1B
100
AcDbEntity
 67
     1
  8
0
100
AcDbBlockEnd
  0
ENDSEC
  0
SECTION
  2
ENTITIES
0
DIMENSION
5
83
100
AcDbEntity
62
256
370
-1
6
ByLayer
1
total_width
3
Standard
70
0
71
5
72
1
41
1.0
100
AcDbAlignedDimension
13
2.257778
23
0.000000
33
0.0
14
40.075556
24
0.000000
34
0.0
50
0.000000
100
AcDbRotatedDimension
0
DIMENSION
5
83
100
AcDbEntity
62
256
370
-1
6
ByLayer
1
total_minx
3
Standard
70
0
71
5
72
1
41
1.0
100
AcDbAlignedDimension
13
2.257778
23
0.000000
33
0.0
14
0.000000
24
0.000000
34
0.0
50
0.000000
100
AcDbRotatedDimension
0
DIMENSION
5
83
100
AcDbEntity
62
256
370
-1
6
ByLayer
1
total_maxx
3
Standard
70
0
71
5
72
1
41
1.0
100
AcDbAlignedDimension
13
0.000000
23
0.000000
33
0.0
14
40.075556
24
0.000000
34
0.0
50
0.000000
100
AcDbRotatedDimension
0
DIMENSION
5
83
100
AcDbEntity
62
256
370
-1
6
ByLayer
1
total_height
3
Standard
70
0
71
5
72
1
41
1.0
100
AcDbAlignedDimension
13
0.000000
23
2.257778
33
0.0
14
0.000000
24
40.075556
34
0.0
50
90.000000
100
AcDbRotatedDimension
0
DIMENSION
5
83
100
AcDbEntity
62
256
370
-1
6
ByLayer
1
total_miny
3
Standard
70
0
71
5
72
1
41
1.0
100
AcDbAlignedDimension
13
2.257778
23
0.000000
33
0.0
14
0.000000
24
0.000000
34
0.0
50
0.000000
100
AcDbRotatedDimension
0
DIMENSION
5
83
100
AcDbEntity
62
256
370
-1
6
ByLayer
1
total_maxy
3
Standard
70
0
71
5
72
1
41
1.0
100
AcDbAlignedDimension
13
0.000000
23
0.000000
33
0.0
14
40.075556
24
0.000000
34
0.0
50
0.000000
100
AcDbRotatedDimension
0
DIMENSION
8
Layer_1
5
83
100
AcDbEntity
62
256
370
-1
6
ByLayer
1
Layer_1_width
3
Standard
70
0
71
5
72
1
41
1.0
100
AcDbAlignedDimension
13
2.257778
23
0.000000
33
0.0
14
40.075556
24
0.000000
34
0.0
50
0.000000
100
AcDbRotatedDimension
0
DIMENSION
8
Layer_1
5
83
100
AcDbEntity
62
256
370
-1
6
ByLayer
1
Layer_1_minx
3
Standard
70
0
71
5
72
1
41
1.0
100
AcDbAlignedDimension
13
2.257778
23
0.000000
33
0.0
14
0.000000
24
0.000000
34
0.0
50
0.000000
100
AcDbRotatedDimension
0
DIMENSION
8
Layer_1
5
83
100
AcDbEntity
62
256
370
-1
6
ByLayer
1
Layer_1_maxx
3
Standard
70
0
71
5
72
1
41
1.0
100
AcDbAlignedDimension
13
0.000000
23
0.000000
33
0.0
14
40.075556
24
0.000000
34
0.0
50
0.000000
100
AcDbRotatedDimension
0
DIMENSION
8
Layer_1
5
83
100
AcDbEntity
62
256
370
-1
6
ByLayer
1
Layer_1_height
3
Standard
70
0
71
5
72
1
41
1.0
100
AcDbAlignedDimension
13
0.000000
23
2.257778
33
0.0
14
0.000000
24
40.075556
34
0.0
50
90.000000
100
AcDbRotatedDimension
0
DIMENSION
8
Layer_1
5
83
100
AcDbEntity
62
256
370
-1
6
ByLayer
1
Layer_1_miny
3
Standard
70
0
71
5
72
1
41
1.0
100
AcDbAlignedDimension
13
2.257778
23
0.000000
33
0.0
14
0.000000
24
0.000000
34
0.0
50
0.000000
100
AcDbRotatedDimension
0
DIMENSION
8
Layer_1
5
83
100
AcDbEntity
62
256
370
-1
6
ByLayer
1
Layer_1_maxy
3
Standard
70
0
71
5
72
1
41
1.0
100
AcDbAlignedDimension
13
0.000000
23
0.000000
33
0.0
14
40.075556
24
0.000000
34
0.0
50
0.000000
100
AcDbRotatedDimension
62
0
0
LWPOLYLINE
100
AcDbPolyline
8
Layer_1
90
98
70
0
10
18.363081
20
3.215400
30
0.0
10
17.701631
20
4.074098
30
0.0
10
16.857218
20
4.841510
30
0.0
10
15.874418
20
5.499173
30
0.0
10
14.797810
20
6.028623
30
0.0
10
13.671969
20
6.411398
30
0.0
10
12.541475
20
6.629034
30
0.0
10
11.450903
20
6.663068
30
0.0
10
10.444831
20
6.495037
30
0.0
10
9.854839
20
6.364488
30
0.0
10
9.373308
20
6.467147
30
0.0
10
7.834489
20
7.834489
30
0.0
10
6.467147
20
9.373308
30
0.0
10
6.364488
20
9.854838
30
0.0
10
6.495036
20
10.444830
30
0.0
10
6.663067
20
11.450902
30
0.0
10
6.629034
20
12.541474
30
0.0
10
6.411398
20
13.671969
30
0.0
10
6.028623
20
14.797809
30
0.0
10
5.499172
20
15.874418
30
0.0
10
4.841510
20
16.857218
30
0.0
10
4.074098
20
17.701631
30
0.0
10
3.215400
20
18.363081
30
0.0
10
2.662091
20
18.739847
30
0.0
10
2.377762
20
19.157888
30
0.0
10
2.257778
20
21.166667
30
0.0
10
2.377762
20
23.175445
30
0.0
10
2.662092
20
23.593486
30
0.0
10
3.215400
20
23.970252
30
0.0
10
4.074098
20
24.631702
30
0.0
10
4.841510
20
25.476116
30
0.0
10
5.499172
20
26.458915
30
0.0
10
6.028623
20
27.535524
30
0.0
10
6.411398
20
28.661364
30
0.0
10
6.629034
20
29.791859
30
0.0
10
6.663067
20
30.882431
30
0.0
10
6.495036
20
31.888503
30
0.0
10
6.364366
20
32.478339
30
0.0
10
6.466648
20
32.958623
30
0.0
10
7.831880
20
34.488811
30
0.0
10
9.454444
20
36.103951
30
0.0
10
10.684867
20
35.823593
30
0.0
10
11.666881
20
35.705596
30
0.0
10
12.716056
20
35.767303
30
0.0
10
14.862952
20
36.365626
30
0.0
10
16.819678
20
37.490143
30
0.0
10
17.631140
20
38.209594
30
0.0
10
18.280357
20
39.012437
30
0.0
10
18.983896
20
40.075556
30
0.0
10
21.181152
20
40.075556
30
0.0
10
23.378409
20
40.075556
30
0.0
10
23.991339
20
39.083813
30
0.0
10
24.607616
20
38.292064
30
0.0
10
25.411527
20
37.571668
30
0.0
10
27.401760
20
36.421787
30
0.0
10
29.601065
20
35.787864
30
0.0
10
30.666315
20
35.712416
30
0.0
10
31.648468
20
35.823593
30
0.0
10
32.878889
20
36.103951
30
0.0
10
34.491419
20
34.491420
30
0.0
10
36.103949
20
32.878889
30
0.0
10
35.823593
20
31.648467
30
0.0
10
35.712416
20
30.666315
30
0.0
10
35.787864
20
29.601065
30
0.0
10
36.421787
20
27.401761
30
0.0
10
37.571668
20
25.411527
30
0.0
10
38.292063
20
24.607616
30
0.0
10
39.083813
20
23.991339
30
0.0
10
40.075556
20
23.378409
30
0.0
10
40.075556
20
21.166667
30
0.0
10
40.075556
20
18.954925
30
0.0
10
39.083813
20
18.341994
30
0.0
10
38.292063
20
17.725717
30
0.0
10
37.571668
20
16.921807
30
0.0
10
36.421787
20
14.931573
30
0.0
10
35.787864
20
12.732268
30
0.0
10
35.712416
20
11.667018
30
0.0
10
35.823593
20
10.684866
30
0.0
10
36.103949
20
9.454444
30
0.0
10
34.488811
20
7.831881
30
0.0
10
32.958623
20
6.466649
30
0.0
10
32.478339
20
6.364367
30
0.0
10
31.888503
20
6.495037
30
0.0
10
30.882431
20
6.663068
30
0.0
10
29.791859
20
6.629034
30
0.0
10
28.661364
20
6.411398
30
0.0
10
27.535524
20
6.028623
30
0.0
10
26.458915
20
5.499173
30
0.0
10
25.476116
20
4.841510
30
0.0
10
24.631702
20
4.074098
30
0.0
10
23.970252
20
3.215400
30
0.0
10
23.593486
20
2.662091
30
0.0
10
23.175445
20
2.377762
30
0.0
10
21.166667
20
2.257778
30
0.0
10
19.157888
20
2.377798
30
0.0
10
18.739847
20
2.662132
30
0.0
10
18.363081
20
3.215400
30
0.0
10
18.363081
20
3.215400
30
0.0
62
0
0
LWPOLYLINE
100
AcDbPolyline
8
Layer_1
90
81
70
0
10
23.142222
20
10.409383
30
0.0
10
23.162753
20
11.534611
30
0.0
10
23.289712
20
12.227882
30
0.0
10
23.621149
20
12.748940
30
0.0
10
24.255116
20
13.357530
30
0.0
10
25.398133
20
14.164525
30
0.0
10
26.583450
20
14.692862
30
0.0
10
27.287849
20
14.852133
30
0.0
10
27.846765
20
14.848680
30
0.0
10
29.327441
20
14.214158
30
0.0
10
31.075249
20
13.316842
30
0.0
10
31.461112
20
13.707363
30
0.0
10
32.117954
20
14.674634
30
0.0
10
33.017353
20
16.394591
30
0.0
10
31.580723
20
17.344757
30
0.0
10
30.551124
20
18.047046
30
0.0
10
29.860386
20
18.876878
30
0.0
10
29.472414
20
19.896127
30
0.0
10
29.351111
20
21.166667
30
0.0
10
29.472414
20
22.437206
30
0.0
10
29.860386
20
23.456455
30
0.0
10
30.551124
20
24.286287
30
0.0
10
31.580723
20
24.988576
30
0.0
10
33.017353
20
25.938742
30
0.0
10
32.117951
20
27.658699
30
0.0
10
31.461111
20
28.625971
30
0.0
10
31.075249
20
29.016492
30
0.0
10
29.327441
20
28.119175
30
0.0
10
27.846765
20
27.484654
30
0.0
10
27.287849
20
27.481200
30
0.0
10
26.583450
20
27.640471
30
0.0
10
25.398133
20
28.168808
30
0.0
10
24.255116
20
28.975803
30
0.0
10
23.621149
20
29.584393
30
0.0
10
23.289711
20
30.105451
30
0.0
10
23.162753
20
30.798722
30
0.0
10
23.142222
20
31.923951
30
0.0
10
23.142222
20
33.866667
30
0.0
10
21.166667
20
33.866667
30
0.0
10
19.191111
20
33.866667
30
0.0
10
19.191111
20
31.923951
30
0.0
10
19.170580
20
30.798722
30
0.0
10
19.043622
20
30.105451
30
0.0
10
18.712184
20
29.584393
30
0.0
10
18.078217
20
28.975803
30
0.0
10
16.935200
20
28.168808
30
0.0
10
15.749884
20
27.640471
30
0.0
10
15.045484
20
27.481200
30
0.0
10
14.486568
20
27.484654
30
0.0
10
13.005893
20
28.119175
30
0.0
10
11.258084
20
29.016492
30
0.0
10
10.872221
20
28.625971
30
0.0
10
10.215379
20
27.658699
30
0.0
10
9.315982
20
25.938742
30
0.0
10
10.727034
20
25.002496
30
0.0
10
11.789516
20
24.290434
30
0.0
10
12.485836
20
23.471105
30
0.0
10
12.866552
20
22.458513
30
0.0
10
12.982222
20
21.166667
30
0.0
10
12.866552
20
19.874820
30
0.0
10
12.485836
20
18.862229
30
0.0
10
11.789516
20
18.042899
30
0.0
10
10.727034
20
17.330837
30
0.0
10
9.315982
20
16.394591
30
0.0
10
10.215379
20
14.674634
30
0.0
10
10.872221
20
13.707363
30
0.0
10
11.258084
20
13.316842
30
0.0
10
13.005893
20
14.214158
30
0.0
10
14.486568
20
14.848680
30
0.0
10
15.045484
20
14.852133
30
0.0
10
15.749884
20
14.692862
30
0.0
10
16.935200
20
14.164525
30
0.0
10
18.078217
20
13.357530
30
0.0
10
18.712185
20
12.748940
30
0.0
10
19.043622
20
12.227882
30
0.0
10
19.170581
20
11.534611
30
0.0
10
19.191111
20
10.409383
30
0.0
10
19.191111
20
8.466667
30
0.0
10
21.166667
20
8.466667
30
0.0
10
23.142222
20
8.466667
30
0.0
10
23.142222
20
10.409383
30
0.0
62
0
0
LWPOLYLINE
100
AcDbPolyline
8
Layer_1
90
24
70
0
10
20.115402
20
16.654080
30
0.0
10
18.736353
20
17.199400
30
0.0
10
17.680291
20
18.081087
30
0.0
10
16.960654
20
19.206034
30
0.0
10
16.590877
20
20.481133
30
0.0
10
16.584398
20
21.813276
30
0.0
10
16.954653
20
23.109356
30
0.0
10
17.715078
20
24.276266
30
0.0
10
18.879109
20
25.220898
30
0.0
10
19.911073
20
25.604365
30
0.0
10
21.166667
20
25.747350
30
0.0
10
22.761328
20
25.499614
30
0.0
10
24.088084
20
24.791371
30
0.0
10
25.080273
20
23.675069
30
0.0
10
25.671236
20
22.203158
30
0.0
10
25.786670
20
20.972745
30
0.0
10
25.592764
20
19.817856
30
0.0
10
25.128487
20
18.777411
30
0.0
10
24.432806
20
17.890332
30
0.0
10
23.544688
20
17.195539
30
0.0
10
22.503103
20
16.731952
30
0.0
10
21.347019
20
16.538492
30
0.0
10
20.115402
20
16.654080
30
0.0
10
20.115402
20
16.654080
30
0.0
  0
ENDSEC
  0
SECTION
  2
OBJECTS
  0
DICTIONARY
  5
C
330
0
100
AcDbDictionary
  3
ACAD_GROUP
350
D
  3
ACAD_MLINESTYLE
350
17
  0
DICTIONARY
  5
D
330
C
100
AcDbDictionary
  0
DICTIONARY
  5
1A
330
C
100
AcDbDictionary
  0
DICTIONARY
  5
17
330
C
100
AcDbDictionary
  3
STANDARD
350
18
  0
DICTIONARY
  5
19
330
C
100
AcDbDictionary
  0
ENDSEC
  0
EOF
